<svg width="168" height="72" viewBox="0 0 168 72" fill="none" xmlns="http://www.w3.org/2000/svg">
<path d="M121.123 63.0903C119.615 61.7065 118.615 60.1052 118.125 58.2854C117.79 57.0457 117.916 56.0234 117.92 54.6285C117.922 53.6148 117.639 52.1528 116.767 51.5689C116.404 51.3259 115.926 51.365 115.605 51.663C115.076 52.1601 114.93 52.7097 114.679 53.3729C113.491 56.5021 113.145 59.7486 113.644 63.1111L109.001 62.8973C108.025 61.4024 107.427 59.795 107.208 58.0753C107.042 56.7782 107.408 55.4921 107.537 54.2694C107.691 52.8123 107.36 51.586 106.545 50.5894C105.169 48.9112 103.61 50.6102 103.364 52.1174C102.999 54.3598 102.473 56.5754 101.785 58.7629C101.622 59.2771 101.563 59.966 101.604 60.8295C96.0437 57.8273 92.7972 52.4178 92.863 45.9237C92.8917 43.0888 92.8845 37.2262 92.8426 28.3381C92.8271 25.1466 92.9694 22.9042 93.2694 21.6107C93.9938 18.4791 95.6349 15.7871 98.1918 13.5325C98.0376 16.6189 98.9245 19.5331 100.311 22.2715C101.169 23.9729 102.782 24.6153 103.886 22.6281C105.094 20.4541 104.808 18.1041 104.313 15.6894C104.179 15.0372 104.122 14.4925 104.141 14.0552C104.207 12.3917 104.936 11.1788 105.443 9.64722C106.945 9.20263 108.525 8.98156 110.182 8.984C109.447 10.6671 109.628 12.5761 110.076 14.2738C110.326 15.2204 110.77 17.585 111.409 21.3677C111.686 23.0129 112.579 26.9592 114.758 26.5732C116.248 26.3106 117 23.6737 117.097 22.3973C117.143 21.8171 117.114 20.5041 117.009 18.4608C116.835 15.0592 117.788 11.886 119.869 8.94125C121.439 8.96324 123.021 8.87896 124.617 8.68965C128.038 8.28048 131.135 6.94184 133.759 4.69449C135.509 3.19462 137.394 1.66911 139.981 0.757951C145.098 -1.04848 150.73 0.392756 153.913 4.88136C155.508 7.12994 156.107 9.82921 155.712 12.9804C155.671 13.3212 155.906 13.6326 156.241 13.6766C156.249 13.6766 156.257 13.679 156.265 13.679C159.291 13.9343 161.889 15.0641 164.059 17.0696C169.597 22.1848 169.273 30.9055 163.244 35.4674C162.696 35.8827 162.866 36.3089 163.364 36.7095C166.299 39.0607 168.033 42.4305 167.975 46.2999C167.893 51.8792 164.129 56.1431 159.123 57.8713C158.395 58.1229 157.501 58.2756 156.443 58.3306C155.926 58.3562 155.7 58.6823 155.767 59.3101C155.966 61.1471 155.834 62.7544 155.373 64.1297C152.441 72.8749 142.301 74.1048 135.783 68.9469C134.273 67.7524 133.125 66.8632 132.341 66.2781C130.451 64.8699 128.287 63.9355 125.848 63.4751C124.355 63.1941 122.78 63.0671 121.123 63.0928L121.123 63.0903ZM160.655 47.7167C161.315 44.8892 159.082 41.9224 155.669 41.0919C152.257 40.2613 148.955 41.8797 148.295 44.7084C147.636 47.5359 149.868 50.5027 153.281 51.3332C156.694 52.1638 159.995 50.5454 160.655 47.7167ZM160.564 24.117C159.785 21.3029 156.412 19.8141 153.029 20.7924C149.647 21.7707 147.536 24.845 148.316 27.659C149.095 30.4731 152.468 31.962 155.851 30.9837C159.233 30.0053 161.344 26.9311 160.564 24.117ZM148.6 62.239C149.541 59.5104 147.588 56.3214 144.237 55.1171C140.888 53.9116 137.409 55.1464 136.47 57.875C135.529 60.6036 137.482 63.7926 140.832 64.9969C144.181 66.2024 147.661 64.9676 148.6 62.239ZM148.471 9.49577C147.412 6.80505 143.887 5.71801 140.596 7.07009C137.305 8.42217 135.497 11.6992 136.555 14.3899C137.614 17.0806 141.139 18.1676 144.43 16.8156C147.72 15.4635 149.529 12.1865 148.471 9.49577ZM125.803 36.0439C125.797 37.7892 125.205 38.8054 124.392 40.7694C123.065 43.9756 124.018 47.2281 126.91 48.9613C130.417 51.0633 134.469 50.0837 136.686 46.6614C137.241 45.8052 137.779 44.0489 138.855 43.2623C141.409 41.3923 143.723 39.3575 143.729 36.0866C143.738 32.8133 141.432 30.7675 138.887 28.8853C137.815 28.0939 137.285 26.3338 136.736 25.474C134.533 22.0394 130.486 21.0428 126.968 23.1301C124.071 24.8486 123.104 28.0963 124.414 31.3073C125.217 33.2738 125.806 34.2973 125.804 36.0427L125.803 36.0439Z" fill="#636383"/>
<path d="M153.281 51.3331C156.694 52.164 159.996 50.5448 160.655 47.7167C161.315 44.8885 159.082 41.9222 155.669 41.0913C152.256 40.2605 148.954 41.8796 148.295 44.7078C147.635 47.536 149.868 50.5022 153.281 51.3331Z" fill="#FEA99C"/>
<path d="M148.318 27.6587C149.097 30.473 152.471 31.9618 155.853 30.984C159.235 30.0061 161.344 26.9319 160.565 24.1176C159.786 21.3032 156.412 19.8144 153.03 20.7923C149.648 21.7701 147.539 24.8443 148.318 27.6587Z" fill="#FEA99C"/>
<path d="M140.833 64.9962C144.182 66.2015 147.66 64.9668 148.6 62.2385C149.54 59.5103 147.587 56.3216 144.238 55.1163C140.888 53.9111 137.411 55.1458 136.471 57.874C135.53 60.6023 137.483 63.791 140.833 64.9962Z" fill="#FEA99C"/>
<path d="M136.555 14.3913C137.614 17.0826 141.14 18.1686 144.43 16.817C147.721 15.4654 149.53 12.188 148.471 9.49675C147.412 6.80548 143.886 5.71947 140.596 7.07106C137.306 8.42266 135.496 11.7001 136.555 14.3913Z" fill="#FEA99C"/>
<path d="M125.803 36.0442C125.805 34.2989 125.216 33.2766 124.413 31.3089C123.103 28.0967 124.07 24.8502 126.967 23.1317C130.485 21.0444 134.532 22.041 136.735 25.4756C137.284 26.3354 137.813 28.0942 138.886 28.8869C141.432 30.7691 143.736 32.8149 143.728 36.0882C143.722 39.3591 141.408 41.3927 138.853 43.2639C137.778 44.0504 137.24 45.8068 136.685 46.663C134.468 50.0853 130.416 51.0649 126.908 48.9629C124.017 47.2297 123.064 43.9772 124.391 40.771C125.204 38.807 125.796 37.7896 125.802 36.0455L125.803 36.0442Z" fill="#FEA99C"/>
<path d="M0 31.2077C0 19.1024 9.80366 9.28411 21.9089 9.26601L120.296 9.1189L121 63.1189H21.9417C9.82365 63.1189 0 53.2952 0 41.1772V31.2077Z" fill="#636383"/>
</svg>
