<svg fill="none" xmlns="http://www.w3.org/2000/svg" viewBox="0 0 16 16"><g clip-path="url(#a)"><path fill-rule="evenodd" clip-rule="evenodd" d="M10.27 14.1a6.5 6.5 0 0 0 3.67-3.45c-1.24.05-2.52.23-3.67.52v2.93zM7 16a8 8 0 1 0 0-16 8 8 0 0 0 0 16m1-1.73c-1.11.48-2.33.73-3.64.73s-2.52-.25-3.64-.73c-.23-.1-.45-.22-.67-.34a7 7 0 0 1 6.39-1v3.07c.13-.07.27-.14.4-.22zM6.44 7.25c-.59-1.15-1.12-2.54-1.61-4.24-2.33.52-4.16 2.35-4.68 4.68C1.88 7.26 3 7.25 4.25 7.25zm1.44-1.25a2 2 0 1 1-4 0 2 2 0 0 1 4 0m1.76 4.93A6.5 6.5 0 0 0 12.5 7.5h-8a6.5 6.5 0 0 0 3.64 3.24v-2.87zM7.25 8.25a.75.75 0 0 0-1.5 0v2.9a6.5 6.5 0 0 1-3.8-3.64h1c.41 0 .19-.13.3-.3q.52-.89.7-1.3zm3.3-4.4c-.49.98-1.1 2.33-1.6 4.55a6.5 6.5 0 0 1-.16-1.13V6.25a6.5 6.5 0 0 1 1.76-2.4" fill="#666"/></g><defs><clipPath id="a"><path fill="#fff" d="M0 0h16v16H0z"/></clipPath></defs></svg>
