<svg width="88" height="88" viewBox="0 0 88 88" fill="none" xmlns="http://www.w3.org/2000/svg">
<path d="M33.0897 78C24.2885 78 17.1397 70.8915 17.09 62.0904L17 46.1744L71 46L71 62C71 70.8366 63.8366 78 55 78L33.0897 78Z" fill="#636383"/>
<path d="M71.0903 48.7582C69.7065 50.2667 68.1052 51.266 66.2854 51.7561C65.0457 52.0908 64.0234 51.9653 62.6285 51.9617C61.6148 51.9593 60.1528 52.2426 59.569 53.114C59.3259 53.4774 59.365 53.9555 59.663 54.2759C60.1601 54.8054 60.7097 54.9512 61.3729 55.2022C64.5021 56.3904 67.7486 56.7359 71.1111 56.2374L70.8973 60.8801C69.4024 61.8567 67.795 62.4543 66.0753 62.6731C64.7782 62.8392 63.4921 62.4734 62.2694 62.3444C60.8123 62.1902 59.5861 62.5213 58.5894 63.3365C56.9112 64.7123 58.6102 66.271 60.1174 66.5173C62.3598 66.8818 64.5754 67.4078 66.7629 68.0963C67.2771 68.2589 67.966 68.3186 68.8295 68.2768C65.8273 73.8375 60.4178 77.084 53.9237 77.0183C51.0888 76.9896 45.2262 76.9967 36.3381 77.0386C33.1466 77.0541 30.9042 76.9119 29.6107 76.6118C26.4791 75.8875 23.7871 74.2463 21.5325 71.6895C24.6189 71.8437 27.5331 70.9567 30.2715 69.5701C31.9729 68.7119 32.6153 67.0994 30.6281 65.9949C28.4541 64.7876 26.1041 65.0733 23.6894 65.5682C23.0372 65.702 22.4925 65.7594 22.0552 65.7403C20.3917 65.6745 19.1788 64.9454 17.6472 64.4386C17.2026 62.936 16.9816 61.3558 16.984 59.6991C18.6671 60.4342 20.5761 60.2537 22.2738 59.8055C23.2204 59.5556 25.585 59.111 29.3677 58.4727C31.0129 58.1954 34.9592 57.3024 34.5732 55.1233C34.3106 53.6328 31.6737 52.8809 30.3973 52.7841C29.8171 52.7387 28.5041 52.7673 26.4608 52.8725C23.0592 53.0459 19.886 52.0932 16.9413 50.0121C16.9632 48.4426 16.879 46.86 16.6897 45.2642C16.2805 41.8432 14.9418 38.7461 12.6945 36.1223C11.1946 34.3724 9.66911 32.4873 8.75795 29.9006C6.95152 24.7834 8.39276 19.151 12.8814 15.9678C15.1299 14.3733 17.8292 13.7744 20.9804 14.1689C21.3212 14.2107 21.6326 13.9752 21.6766 13.6405C21.6766 13.6322 21.679 13.6238 21.679 13.6166C21.9343 10.59 23.0641 7.99257 25.0696 5.82185C30.1848 0.283868 38.9055 0.607804 43.4674 6.63706C43.8827 7.18572 44.3089 7.01479 44.7095 6.51753C47.0607 3.58179 50.4305 1.84856 54.2999 1.90594C59.8792 1.98841 64.1431 5.75252 65.8713 10.7586C66.1229 11.4865 66.2756 12.3806 66.3306 13.4385C66.3562 13.9549 66.6823 14.1808 67.3101 14.1139C69.1471 13.9154 70.7544 14.0469 72.1297 14.5083C80.8749 17.4405 82.1048 27.5805 76.9469 34.0986C75.7524 35.6083 74.8632 36.7559 74.2781 37.54C72.8699 39.4298 71.9355 41.5946 71.4751 44.0331C71.1941 45.526 71.0671 47.1015 71.0928 48.7582L71.0903 48.7582ZM55.7167 9.22615C52.8892 8.56633 49.9224 10.7992 49.0919 14.2119C48.2613 17.6246 49.8797 20.9261 52.7084 21.5859C55.5359 22.2457 58.5027 20.0128 59.3332 16.6002C60.1638 13.1875 58.5454 9.88598 55.7167 9.22615ZM32.117 9.317C29.3029 10.0964 27.8141 13.4696 28.7924 16.8524C29.7707 20.234 32.845 22.3449 35.659 21.5656C38.4731 20.7862 39.962 17.413 38.9837 14.0302C38.0053 10.6486 34.9311 8.53764 32.117 9.317ZM70.239 21.2811C67.5104 20.3404 64.3214 22.2935 63.1171 25.6441C61.9116 28.9934 63.1464 32.4718 65.875 33.4113C68.6036 34.352 71.7926 32.3989 72.9969 29.0496C74.2024 25.7002 72.9676 22.2206 70.239 21.2811ZM17.4958 21.4102C14.805 22.4692 13.718 25.9943 15.0701 29.285C16.4222 32.5758 19.6992 34.3843 22.3899 33.3265C25.0806 32.2674 26.1676 28.7424 24.8156 25.4516C23.4635 22.1609 20.1865 20.3523 17.4958 21.4102ZM44.0439 44.0785C45.7892 44.0844 46.8054 44.6761 48.7694 45.489C51.9756 46.8158 55.2281 45.8631 56.9613 42.9716C59.0633 39.4645 58.0837 35.4123 54.6614 33.195C53.8052 32.6403 52.0489 32.1024 51.2623 31.0266C49.3923 28.4722 47.3575 26.158 44.0866 26.1521C40.8133 26.1437 38.7675 28.4495 36.8853 30.9944C36.0939 32.0666 34.3338 32.5961 33.474 33.1448C30.0394 35.3478 29.0428 39.3952 31.1301 42.913C32.8486 45.8105 36.0963 46.7775 39.3073 45.4674C41.2738 44.6642 42.2973 44.0749 44.0427 44.0773L44.0439 44.0785Z" fill="#636383"/>
<path d="M59.3331 16.6002C60.164 13.187 58.5448 9.88544 55.7167 9.22605C52.8885 8.56666 49.9222 10.7991 49.0913 14.2123C48.2605 17.6256 49.8796 20.9271 52.7078 21.5865C55.536 22.2459 58.5022 20.0135 59.3331 16.6002Z" fill="#FEA99C"/>
<path d="M35.6584 21.5632C38.4728 20.7838 39.9616 17.4104 38.9837 14.0285C38.0059 10.6466 34.9317 8.5368 32.1173 9.3162C29.303 10.0956 27.8142 13.469 28.792 16.8509C29.7699 20.2328 32.8441 22.3426 35.6584 21.5632Z" fill="#FEA99C"/>
<path d="M72.9967 29.0484C74.202 25.699 72.9673 22.2215 70.239 21.2813C67.5108 20.341 64.322 22.294 63.1168 25.6434C61.9116 28.9928 63.1463 32.4703 65.8745 33.4105C68.6028 34.3508 71.7915 32.3978 72.9967 29.0484Z" fill="#FEA99C"/>
<path d="M22.3916 33.3259C25.0828 32.2671 26.1688 28.7413 24.8172 25.4508C23.4657 22.1603 20.1883 20.3512 17.497 21.41C14.8057 22.4688 13.7197 25.9946 15.0713 29.2851C16.4229 32.5756 19.7003 34.3847 22.3916 33.3259Z" fill="#FEA99C"/>
<path d="M43.9865 46.5914C41.8686 46.5886 40.6281 47.2984 38.2405 48.2659C34.3426 49.844 30.4032 48.6792 28.3179 45.1891C25.785 40.9517 26.9944 36.0765 31.162 33.4229C32.2054 32.762 34.3396 32.1242 35.3015 30.8327C37.5854 27.7659 40.0679 24.9899 44.0399 25C48.0089 25.0072 50.4766 27.7947 52.7472 30.8716C53.7016 32.1674 55.8329 32.8153 56.8718 33.4834C61.0246 36.1542 62.2133 41.0352 59.6626 45.2596C57.5595 48.7425 53.6127 49.89 49.7222 48.2918C47.339 47.3128 46.1044 46.6001 43.988 46.5929L43.9865 46.5914Z" fill="#FEA99C"/>
<rect x="46" y="29" width="10.8572" height="4.00001" rx="1.77877" transform="rotate(90 46 29)" fill="white"/>
<circle cx="44" cy="43" r="2.00001" fill="white"/>
</svg>
