<svg width="87" height="64" viewBox="0 0 87 64" fill="none" xmlns="http://www.w3.org/2000/svg">
<g clip-path="url(#clip0_9_132)">
<path d="M11.4792 47.8696C11.4792 47.8696 7.6456 56.6896 0 62.6384C0 62.6384 9.412 63.5288 23.816 63.5288C38.22 63.5288 45.1072 62.3416 55.6456 62.8504C66.184 63.3592 72.92 64.7128 76.0944 63.5256C76.0944 63.5256 82.8896 55.9208 86.82 48.4488C86.82 48.4488 82.8112 49.9384 77.5208 49.4424C72.2304 48.9464 63.3576 48.4264 56.1264 49.4424C48.8952 50.4584 16.9344 50.1464 11.48 47.8696H11.4792Z" fill="#878FF7"/>
<path d="M12.7904 36.348C12.7904 36.348 14.0096 38.796 14.4928 42.3016C14.976 45.8072 15.1896 50.8632 14.984 52.7464C14.7784 54.6304 13.3816 56.0344 13.9256 56.9248C14.4696 57.8152 17.5864 57.6096 18.1688 55.0408C18.7512 52.472 18.7408 41.4192 12.7896 36.348H12.7904Z" fill="white"/>
<path d="M82.756 58.0792C80.6224 58.8128 77.8216 55.8456 74.856 56.1128C71.8904 56.3784 70.5552 57.3792 66.924 57.3128C63.2912 57.244 58.6992 59.7096 54.3216 58.9176C54.3216 58.9176 45.0592 60.0432 39.4208 54.0864C33.7848 48.1296 25.9064 44.9264 23.1528 46.0152C23.1528 46.0152 22.6712 46.9544 22.8408 49.584C23.0096 52.2136 23.6264 56.2536 20.9128 58.224C18.1976 60.1944 15.9208 59.1872 16.4024 58.0936C16.884 56.9984 18.1592 56.3928 17.956 52.7248C17.7528 49.0576 16.8864 43.7592 14.5432 39.7864C12.2 35.8128 10.508 31.5616 11.5072 23.424C11.5072 23.424 11.9504 20.8096 11.212 19.4296C10.472 18.0496 8.99123 17.1616 9.06563 13.6592C9.12163 11.0256 10.0944 9.1448 10.9144 7.2832L10.9168 7.2768C11.1864 6.6648 11.4408 6.0568 11.64 5.424C12.444 2.8608 13.7256 0 14.4664 0C15.2072 0 15.748 3.9456 16.2424 3.9456C16.7368 3.9456 21.3224 4.4376 23.0464 5.0304L23.0488 5.028C23.164 4.9296 27.0032 1.6304 27.6728 1.932C28.3552 2.24 27.7072 6.224 27.504 8.4048C27.4808 8.6528 27.4544 8.9608 27.4336 9.316C27.3864 10.0864 27.3584 11.0816 27.4144 12.2088V12.2304C27.5576 15.1536 28.2616 18.9408 30.6392 21.8784C31.4544 22.884 32.4024 23.8424 33.4336 24.7432C34.1784 25.3896 34.9632 26.008 35.7744 26.5872C35.7808 26.5912 35.7872 26.596 35.7912 26.6C39.0032 28.9024 42.6128 30.6592 45.4736 31.6136C49.6008 32.9896 56.2984 33.4368 59.9464 37.5384C60.364 38.0048 60.7384 38.5208 61.068 39.0896C62.8656 42.2048 64.5304 44.4648 66.6056 46.1808C68.236 47.5288 70.1208 48.5432 72.524 49.38C74.6528 50.12 76.1296 50.5568 77.2528 50.884C79.016 51.3936 79.9104 51.6352 81.0912 52.3472C83.0232 53.5136 84.8912 57.3456 82.7584 58.0792H82.756Z" fill="white"/>
<path d="M17.6232 56.0953C17.6056 56.0953 17.5872 56.0921 17.5696 56.0865C17.4864 56.0569 17.4424 55.9657 17.4712 55.8817C17.7592 55.0641 17.8648 54.0409 17.7928 52.7553C17.6616 50.3937 17.0696 44.4129 14.4024 39.8889C13.7672 38.8121 13.2816 37.8849 12.8736 36.9713C12.8376 36.8905 12.8736 36.7953 12.9544 36.7593C13.0352 36.7225 13.1304 36.7593 13.1664 36.8401C13.5696 37.7425 14.0504 38.6593 14.6792 39.7257C17.3824 44.3105 17.9816 50.3521 18.1144 52.7369C18.188 54.0657 18.0768 55.1297 17.7744 55.9881C17.7512 56.0545 17.6888 56.0953 17.6232 56.0953Z" fill="black"/>
<path d="M54.3217 59.0792C54.3153 59.0792 54.3088 59.0792 54.3032 59.0784C48.3208 58.3864 45.5585 52.9856 45.5313 52.9304C45.4921 52.8512 45.524 52.7552 45.6032 52.7152C45.6824 52.676 45.7792 52.708 45.8184 52.7872C45.8448 52.84 48.5337 58.0872 54.3409 58.7592C54.4289 58.7696 54.4921 58.8488 54.4817 58.9368C54.4721 59.0184 54.4025 59.0792 54.3225 59.0792H54.3217Z" fill="black"/>
<path d="M57.8719 35.7575C57.8719 35.7575 65.8207 35.2079 70.0711 26.2351C74.3215 17.2623 65.5847 13.9567 67.0015 9.94233C68.4183 5.92793 73.8831 11.0503 75.0295 16.9471C76.2103 23.0199 74.5295 34.6727 59.9431 37.5375L57.8719 35.7575Z" fill="black"/>
<path d="M23.1536 46.1769C23.1424 46.1769 23.1312 46.1753 23.1192 46.1729C23.0328 46.1537 22.9776 46.0689 22.9968 45.9825C23.0096 45.9241 23.3152 44.5401 24.2248 42.7841C25.0544 41.1825 25.504 39.6825 25.504 36.3481C25.504 36.2593 25.576 36.1873 25.6648 36.1873C25.7536 36.1873 25.8256 36.2593 25.8256 36.3481C25.8256 39.3721 25.4936 41.0337 24.5104 42.9321C23.6216 44.6481 23.3136 46.0369 23.3104 46.0513C23.2944 46.1265 23.228 46.1777 23.1536 46.1777V46.1769Z" fill="black"/>
<path d="M59.9448 37.5384H59.9424C59.9424 37.5384 58.5112 37.6648 57.2872 39.4384C56.0656 41.2104 54.4136 42.6176 51.724 42.1904C49.0344 41.7624 47.8104 36.4408 45.3048 36.5648C42.7968 36.6864 38.824 36.8088 38.456 33.2632C38.0904 29.724 38.088 28.4192 35.7896 26.6C39.0016 28.9024 42.6112 30.6592 45.472 31.6136C49.5992 32.9896 56.2968 33.4368 59.9448 37.5384Z" fill="black"/>
<path d="M77.2513 50.884C77.1657 52.7648 75.2297 51.8856 73.9329 51.7592C72.5017 51.62 70.8817 53.4688 68.1561 51.9904C65.4281 50.512 66.6049 46.1808 66.6049 46.1808C68.2353 47.5288 70.1201 48.5432 72.5233 49.38C74.6521 50.12 76.1289 50.5568 77.2521 50.884H77.2513Z" fill="black"/>
<path d="M33.432 24.7433C31.8912 24.8329 31.8464 27.1545 29.632 27.0089C27.4176 26.8657 28.0424 23.6409 27.4128 23.3521C26.7816 23.0633 25.252 24.8905 23.5184 23.3521C21.7856 21.8113 24.528 18.1785 25.9808 16.4241C27.3504 14.7681 27.4104 12.4785 27.412 12.2305C27.5552 15.1537 28.2592 18.9409 30.6368 21.8785C31.452 22.8841 32.4 23.8425 33.4312 24.7433H33.432Z" fill="black"/>
<path d="M16.2744 5.3064C15.7352 5.948 14.6224 5.704 14.188 5.6464C13.756 5.5888 13.9288 5.5888 12.8616 6.8C11.792 8.0128 10.9144 7.2832 10.9144 7.2832L10.9168 7.2768C11.1864 6.6648 11.4408 6.0568 11.64 5.424C12.444 2.8608 13.7256 0 14.4664 0C15.2072 0 15.748 3.9456 16.2424 3.9456C16.6128 3.9992 16.8136 4.6648 16.2744 5.3064Z" fill="black"/>
<path d="M27.5033 8.40482C27.4801 8.65282 27.4537 8.96082 27.4329 9.31602C25.2825 9.77602 25.5817 7.50802 25.1713 7.19762C24.7433 6.87202 23.4337 7.52082 22.7513 6.78882C22.0705 6.05522 23.0465 5.02962 23.0465 5.02962L23.0489 5.02722C23.1641 4.92882 27.0033 1.62962 27.6729 1.93122C28.3553 2.23922 27.7073 6.22322 27.5041 8.40402L27.5033 8.40482Z" fill="black"/>
<path d="M14.3048 11.1088C13.9696 10.9568 13.552 11.184 13.4512 11.5328C13.3696 11.816 13.5 12.172 13.8072 12.2904C14.1192 12.4112 14.4624 12.2288 14.5912 11.9464C14.7312 11.6408 14.6064 11.2456 14.304 11.108L14.3048 11.1088Z" fill="black"/>
<path d="M20.8409 11.9552C20.5057 11.8032 20.0881 12.0304 19.9873 12.3792C19.9057 12.6624 20.0361 13.0184 20.3433 13.1368C20.6553 13.2576 20.9985 13.0752 21.1273 12.7928C21.2673 12.4872 21.1425 12.092 20.8401 11.9544L20.8409 11.9552Z" fill="black"/>
<path d="M19.1849 15.8672C19.4257 14.7632 18.9961 14.06 18.3393 13.5456C18.1873 13.4272 18.0249 13.32 17.8553 13.2192C17.8249 13.2016 17.7953 13.184 17.7641 13.168C17.3705 13.1448 17.0129 13.1696 16.7585 13.1352C16.4945 13.0992 16.1249 12.9032 15.7881 12.8096C15.6233 12.8224 15.4529 12.8448 15.2801 12.8848C14.6105 13.0272 13.9289 13.4016 13.6225 14.508C13.0001 16.756 18.7145 18.0248 19.1841 15.8672H19.1849Z" fill="white"/>
<path d="M16.4272 14.984C16.4272 14.984 16.4344 14.9856 16.4376 14.9864C16.508 14.9968 16.5736 14.9488 16.5848 14.8784L16.7376 13.8808C16.748 13.8104 16.7 13.744 16.6296 13.7336C16.5592 13.7232 16.4936 13.7712 16.4824 13.8416L16.3296 14.8392C16.3192 14.9056 16.3624 14.9688 16.4272 14.984Z" fill="black"/>
<path d="M15.2672 13.2696C15.4752 13.5736 15.924 13.9216 16.2296 14.1384C16.4304 14.2784 16.6816 14.32 16.916 14.252C17.1368 14.1856 17.4504 14.0784 17.8536 13.9016C18.2656 13.724 18.4376 13.5088 18.4496 13.3256C18.4712 13.124 18.3008 12.9648 18.06 12.9384C17.9832 12.9296 17.9088 12.9256 17.8336 12.9208C17.412 12.896 17.0288 12.9224 16.756 12.8856C16.4728 12.8472 16.0768 12.6376 15.716 12.536C15.6688 12.5232 15.6224 12.5104 15.5768 12.5024C15.4104 12.4712 15.2568 12.5112 15.1712 12.6168C15.0664 12.7456 15.0648 12.9704 15.2664 13.2688L15.2672 13.2696Z" fill="black"/>
<path d="M15.4688 15.3368C15.5496 15.356 15.6312 15.3648 15.7144 15.3624C16.0352 15.3544 16.2896 15.1856 16.432 15.064C16.6392 15.3776 16.8872 15.5568 17.172 15.5968C17.6816 15.6688 18.1008 15.2576 18.1184 15.24C18.1688 15.1896 18.1688 15.108 18.1184 15.0576C18.068 15.0072 17.9864 15.0072 17.936 15.0576C17.9296 15.064 17.5864 15.396 17.2056 15.3416C16.9656 15.3072 16.752 15.124 16.5696 14.7968C16.5488 14.76 16.5112 14.7352 16.4696 14.7312C16.4272 14.7272 16.3856 14.744 16.3584 14.7768C16.356 14.78 16.0808 15.0976 15.7056 15.1056C15.4672 15.1104 15.2312 14.9896 15.0056 14.7464C14.9576 14.6944 14.876 14.6912 14.8232 14.7392C14.7712 14.7872 14.768 14.8688 14.816 14.9216C15.0224 15.144 15.2408 15.2832 15.468 15.3376L15.4688 15.3368Z" fill="black"/>
<path d="M12.5488 13.2343C12.5168 13.2415 12.4816 13.2343 12.4544 13.2111C12.448 13.2055 11.8296 12.6903 10.784 12.4335C10.7256 12.4191 10.6888 12.3591 10.7032 12.3007C10.7176 12.2423 10.7776 12.2055 10.836 12.2199C11.9352 12.4903 12.5696 13.0207 12.596 13.0431C12.6424 13.0823 12.648 13.1519 12.6088 13.1975C12.5928 13.2167 12.5712 13.2287 12.5488 13.2335V13.2343Z" fill="black"/>
<path d="M12.5784 13.928C12.5576 13.9328 12.536 13.9312 12.5152 13.9232C12.5032 13.9184 11.3432 13.4664 10.3648 13.5456C10.304 13.5504 10.2512 13.5056 10.2464 13.4448C10.2416 13.384 10.2864 13.332 10.3472 13.3264C11.3776 13.2432 12.5472 13.6992 12.596 13.7192C12.6528 13.7416 12.68 13.8056 12.6576 13.8616C12.6432 13.8968 12.6136 13.9208 12.5784 13.9288V13.928Z" fill="black"/>
<path d="M23.4704 14.8863C23.4592 14.8887 23.4472 14.8895 23.4352 14.8879C22.364 14.7743 21.6072 15.0487 21.6 15.0519C21.544 15.0727 21.48 15.0439 21.4592 14.9871C21.4384 14.9303 21.4672 14.8671 21.524 14.8463C21.5568 14.8343 22.3336 14.5511 23.4592 14.6703C23.5192 14.6767 23.5632 14.7311 23.5568 14.7911C23.552 14.8391 23.516 14.8767 23.4712 14.8871L23.4704 14.8863Z" fill="black"/>
<path d="M23.4409 16.0176C23.4185 16.0224 23.3945 16.0208 23.3721 16.0104C22.4785 15.604 21.2337 15.6344 21.2209 15.6352C21.1601 15.6368 21.1097 15.5896 21.1081 15.5288C21.1065 15.468 21.1545 15.4192 21.2145 15.416C21.2673 15.4144 22.5225 15.3832 23.4633 15.8112C23.5185 15.836 23.5425 15.9016 23.5177 15.9568C23.5025 15.9896 23.4737 16.0112 23.4409 16.0184V16.0176Z" fill="black"/>
<path d="M12.888 4.17994C12.888 4.17994 13.6008 1.69114 14.0208 1.25354C14.0208 1.25354 14.2376 1.33674 14.292 2.34154C14.3464 3.34634 14.6312 3.86314 14.6312 3.86314C14.6312 3.86314 13.9304 3.88074 12.888 4.17914V4.17994Z" fill="#DEE7EF"/>
<path d="M24.1584 5.37758C24.1584 5.37758 26.4928 3.03918 26.908 3.19038C27.3232 3.34238 26.4552 5.30398 26.2568 6.36158C26.2568 6.36158 25.5888 5.78958 24.1584 5.37758Z" fill="#DEE7EF"/>
<path d="M16.6792 59.0927C16.6232 59.0927 16.568 59.0631 16.5392 59.0103C16.1944 58.3911 16.8776 57.7151 16.9064 57.6863C16.9696 57.6247 17.0712 57.6263 17.1328 57.6895C17.1944 57.7527 17.1936 57.8543 17.1304 57.9159C17.1248 57.9215 16.5944 58.4495 16.8192 58.8543C16.8624 58.9319 16.8344 59.0295 16.7568 59.0727C16.732 59.0863 16.7056 59.0927 16.6792 59.0927Z" fill="black"/>
<path d="M17.612 59.5072C17.5512 59.5072 17.4928 59.4728 17.4664 59.4136C17.2184 58.8728 17.9016 58.1632 17.9808 58.084C18.0432 58.0208 18.1448 58.0208 18.208 58.084C18.2704 58.1464 18.2712 58.248 18.208 58.3112C18.0488 58.4712 17.6256 58.992 17.7576 59.28C17.7944 59.3608 17.7592 59.456 17.6784 59.4928C17.6568 59.5032 17.6344 59.5072 17.612 59.5072Z" fill="black"/>
<path d="M14.1872 57.1912C14.1312 57.1912 14.076 57.1616 14.0472 57.1088C13.7024 56.4896 14.3856 55.8136 14.4144 55.7848C14.4776 55.7232 14.5792 55.724 14.6408 55.788C14.7024 55.8512 14.7016 55.9528 14.6384 56.0144C14.6328 56.02 14.1024 56.548 14.3272 56.952C14.3704 57.0296 14.3424 57.1272 14.2648 57.1704C14.24 57.184 14.2136 57.1904 14.1872 57.1904V57.1912Z" fill="black"/>
<path d="M15.12 57.6048C15.0592 57.6048 15.0008 57.5704 14.9744 57.5112C14.7264 56.9704 15.4096 56.2608 15.4888 56.1824C15.5512 56.1192 15.6528 56.12 15.716 56.1824C15.7784 56.2448 15.7792 56.3464 15.716 56.4096C15.5576 56.5696 15.1336 57.0904 15.2656 57.3784C15.3024 57.4592 15.2672 57.5544 15.1864 57.5912C15.1648 57.6016 15.1416 57.6056 15.12 57.6056V57.6048Z" fill="black"/>
<path d="M82.648 58.1825C82.164 58.1825 81.728 57.7593 81.7056 57.7369C81.6424 57.6745 81.6416 57.5729 81.704 57.5105C81.7664 57.4473 81.868 57.4473 81.9312 57.5081C81.9368 57.5137 82.476 58.0337 82.8752 57.8009C82.952 57.7569 83.0504 57.7825 83.0944 57.8593C83.1392 57.9361 83.1128 58.0337 83.036 58.0785C82.908 58.1529 82.776 58.1825 82.648 58.1825Z" fill="black"/>
<path d="M83.3929 57.3928C82.9105 57.3928 82.3905 56.9104 82.3225 56.8448C82.2585 56.7832 82.2561 56.6824 82.3177 56.6184C82.3793 56.5544 82.4801 56.552 82.5449 56.6136C82.7081 56.7696 83.2385 57.1824 83.5225 57.0448C83.6033 57.0064 83.6985 57.04 83.7369 57.12C83.7753 57.2 83.7417 57.296 83.6617 57.3344C83.5753 57.376 83.4849 57.3936 83.3929 57.3936V57.3928Z" fill="black"/>
</g>
<defs>
<clipPath id="clip0_9_132">
<rect width="86.8192" height="64" fill="white"/>
</clipPath>
</defs>
</svg>
