<svg width="106" height="72" viewBox="0 0 106 72" fill="none" xmlns="http://www.w3.org/2000/svg">
<g clip-path="url(#clip0_9_217)">
<g clip-path="url(#clip1_9_217)">
<path d="M105.977 61.4836C105.309 60.8106 104.491 60.4998 103.626 60.4485C102.678 60.1799 101.838 59.9513 100.999 59.4534C98.8184 58.3225 95.7026 55.7484 93.5208 54.1347C90.9459 52.324 88.5551 50.5458 86.9157 48.1618C85.382 45.9385 86.0097 42.8453 88.3273 41.4572C93.0312 38.3429 95.9463 41.8699 99.1979 39.261C99.2039 39.2565 99.4416 39.0626 99.4544 39.0528C100.054 38.5534 100.932 37.8759 101.256 37.5236C101.266 37.5281 101.276 37.5319 101.284 37.5349C101.749 37.0739 101.771 36.6175 101.559 36.0215C101.554 36.0215 101.549 36.023 101.544 36.023C101.352 35.5153 100.957 34.8378 100.378 33.8125C99.5925 31.8601 100.855 30.9404 98.4533 28.2116C98.4518 28.2131 98.4457 28.2177 98.4374 28.2244C97.7652 27.3727 96.9738 26.6168 96.101 26.0011C96.7083 24.4764 97.0372 22.4297 95.9516 22.0849C95.6687 21.9951 95.3586 22.0502 95.1119 22.2154C94.5166 22.613 93.5412 23.5047 92.8275 24.4251C92.6094 24.0675 92.3748 23.6918 92.156 23.2905C91.4657 22.023 89.9855 20.1686 89.0651 21.1599C88.3876 21.8895 88.0738 23.4021 88.1719 24.8966C85.4378 26.1664 82.0112 26.0162 79.2334 26.3248C74.4239 26.8544 72.1726 26.2146 67.7962 26.3248C64.4525 26.4093 60.6532 25.8623 58.0564 25.3621C50.5317 23.9121 44.0195 24.2063 34.0761 26.1234C33.2115 26.2901 29.3171 27.7069 27.0561 28.5941C26.4933 28.8152 25.9606 28.6681 25.3775 28.3844C24.3024 27.8337 23.597 27.218 22.2435 26.2863C16.9723 22.0487 1.11113 15.679 4.47439 7.31234C4.48571 7.31385 4.49703 7.31535 4.5091 7.31686C5.19412 5.73708 6.78824 4.23199 7.49212 2.65674C8.25712 0.767637 7.58266 -0.494528 5.95836 0.566204C3.71015 2.45681 2.25863 3.58393 0.84482 5.36515C0.853873 5.37345 0.863681 5.3825 0.872734 5.3908C-0.850389 7.52886 -0.630849 11.1977 0.403477 13.7967C2.99646 20.4266 11.213 26.5028 17.2681 30.0011C18.7098 30.7774 20.5921 31.2708 20.9029 33.077C20.9633 33.4874 20.9565 33.971 20.9029 34.5587C20.6887 36.6779 20.0512 39.1788 19.563 41.3772C19.0251 42.6492 18.1681 43.7763 17.1466 44.619C14.1432 47.0641 10.3031 46.2094 7.89424 49.6481C5.64452 52.6613 3.9214 57.2626 1.93875 60.8137C1.93875 60.8137 1.93875 60.8137 1.93875 60.8152C1.81879 61.0521 1.69959 61.292 1.58794 61.5326C0.959494 62.7714 -0.066534 65.0038 1.68903 65.8804C3.4197 66.699 4.94742 65.688 5.82935 64.1679C6.14848 63.633 6.39669 63.0513 6.5853 62.4598C7.95761 58.5828 9.77654 54.6515 14.7467 54.9351C17.7894 55.2444 20.6223 55.5862 24.1191 55.2837C25.4597 55.6669 26.8592 55.845 28.0979 56.02C27.8263 56.5624 27.5049 57.089 27.136 57.5937C24.113 62.1867 32.623 68.6002 36.4752 70.1271C36.4752 70.1294 36.4752 70.1317 36.4752 70.1347C37.9659 70.5941 39.3103 70.7246 41.1722 70.7857C45.806 71.2724 45.1232 65.3478 40.6456 66.5572C40.1477 66.6552 39.5374 66.6175 38.9716 66.4259C37.3103 65.6405 34.4563 63.5613 35.1074 61.8382C35.812 60.2139 37.1685 59.0641 38.3658 57.6549C42.6894 57.9287 47.216 57.8993 49.4951 58.0615C53.3646 58.3376 56.952 58.4183 59.7509 58.3331C58.9987 61.249 57.5178 65.3486 58.2624 68.5187C58.2518 68.5262 58.2405 68.533 58.23 68.5406C58.9919 72.0924 61.5668 72.0932 64.9414 72.1777C65.7607 72.1467 66.7158 72.1384 67.3352 71.6224C68.1032 70.9502 68.2013 69.2475 66.5423 68.6522C66.2088 68.4855 65.7954 68.3731 65.3714 68.3097C65.004 68.2116 64.6215 68.1203 64.23 68.0396C62.8395 66.441 64.4065 63.3387 65.3986 61.2874C67.5261 56.6077 70.1734 54.321 73.7185 52.1007C80.8539 54.4108 81.4355 55.9694 90.7882 59.5802C92.276 60.398 95.1209 62.0026 97.9395 63.1833C97.9395 63.1841 97.938 63.1848 97.9372 63.1856C100.009 64.0539 101.632 64.6567 103.503 64.7088C105.307 64.8793 106.957 63.1252 105.979 61.4806L105.977 61.4836Z" fill="url(#paint0_radial_9_217)"/>
<path d="M6.9906 0.0800781C7.30267 0.0786717 7.54723 0.211584 7.70447 0.450195C7.85836 0.683845 7.9232 1.00937 7.90369 1.38867C7.88402 1.76965 7.77875 2.21429 7.58435 2.69434L7.58337 2.69727C7.22607 3.49689 6.64396 4.27668 6.07361 5.04492C5.49999 5.81756 4.938 6.57925 4.60095 7.35645L4.57068 7.42578L4.53943 7.4209C3.74911 9.45085 4.1048 11.361 5.17615 13.1592C6.26257 14.9824 8.08277 16.6863 10.181 18.2676C12.2784 19.8481 14.6465 21.3009 16.8226 22.625C18.9954 23.947 20.9819 25.1436 22.306 26.208C23.6656 27.1443 24.3573 27.7488 25.4232 28.2949H25.4222C25.9978 28.5747 26.4975 28.7062 27.0199 28.501C28.1514 28.057 29.691 27.4804 31.056 26.9941C32.4168 26.5094 33.6153 26.1106 34.057 26.0254C44.0079 24.1069 50.5342 23.8104 58.0756 25.2637C60.6694 25.7633 64.4603 26.3088 67.7933 26.2246C69.9862 26.1694 71.649 26.302 73.3568 26.3818C75.0647 26.4617 76.8244 26.4896 79.222 26.2256C79.919 26.1482 80.6565 26.0989 81.4105 26.0498C82.1654 26.0006 82.9379 25.9517 83.7084 25.8721C85.2268 25.7151 86.731 25.4411 88.0677 24.833C88.0259 24.1003 88.0813 23.3648 88.2299 22.7188C88.3827 22.054 88.6363 21.4744 88.9916 21.0918C89.2457 20.8181 89.5466 20.7371 89.8588 20.7979C90.1627 20.857 90.4711 21.0491 90.7621 21.3027C91.3457 21.8115 91.8953 22.603 92.2435 23.2422C92.4365 23.5961 92.6415 23.9304 92.8383 24.252C93.548 23.3648 94.4752 22.5198 95.056 22.1318C95.3256 21.9513 95.6674 21.8895 95.9818 21.9893C96.2861 22.0859 96.4892 22.3031 96.6107 22.5889C96.7308 22.8715 96.7726 23.2234 96.7611 23.6035C96.7389 24.3406 96.5134 25.2122 96.2211 25.9648C97.0475 26.5566 97.7992 27.273 98.4457 28.0762L98.4574 28.0654L98.5287 28.1455C99.7409 29.523 100.036 30.4542 100.121 31.293C100.143 31.5003 100.15 31.7011 100.157 31.8984C100.163 32.0967 100.168 32.291 100.183 32.4902C100.212 32.8855 100.279 33.2971 100.469 33.7715C101.019 34.7447 101.407 35.4141 101.611 35.9219H101.629L101.653 35.9883C101.762 36.2936 101.815 36.5746 101.775 36.8438C101.734 37.1155 101.599 37.3632 101.354 37.6055L101.309 37.6504L101.281 37.6396C101.106 37.8181 100.826 38.0598 100.522 38.3105C100.184 38.5887 99.8186 38.8796 99.5179 39.1299L99.515 39.1318C99.515 39.1318 99.5144 39.1329 99.5121 39.1348L99.473 39.166C99.449 39.1855 99.4179 39.2113 99.3871 39.2363C99.3282 39.2843 99.2649 39.3356 99.2582 39.3408L99.2572 39.3398C97.596 40.6712 96.0133 40.4352 94.2972 40.2695C92.5817 40.1039 90.7052 40.003 88.3822 41.541L88.3783 41.543C86.1118 42.9007 85.4966 45.9284 86.9984 48.1055C88.4227 50.1766 90.4199 51.7898 92.6224 53.374L93.5785 54.0527L93.5804 54.0547C94.1266 54.4587 94.731 54.9226 95.3636 55.4082C95.9966 55.8941 96.6584 56.4018 97.3197 56.8945C98.6436 57.8809 99.9621 58.8029 101.044 59.3643L101.05 59.3672C101.873 59.8555 102.697 60.0816 103.643 60.3496C104.49 60.402 105.295 60.6993 105.964 61.333L105.989 61.3008L106.066 61.4297C106.579 62.2932 106.4 63.1884 105.862 63.8389C105.326 64.4862 104.43 64.897 103.494 64.8086V64.8076C101.605 64.7538 99.9682 64.1447 97.8988 63.2773L97.7611 63.2207L97.764 63.2168C94.9878 62.0408 92.2079 60.4754 90.7445 59.6709C86.0682 57.8652 83.5826 56.5711 81.3763 55.4414C79.1812 54.3174 77.264 53.3563 73.7318 52.21C70.2177 54.4155 67.5988 56.6898 65.4896 61.3291L65.4886 61.3311C64.9913 62.3594 64.356 63.6391 64.017 64.8604C63.6802 66.0738 63.6474 67.1912 64.2855 67.9492C64.6662 68.0284 65.0383 68.1165 65.3959 68.2119C65.8188 68.2759 66.2352 68.3889 66.5765 68.5576L66.7328 68.6191C67.4898 68.9429 67.8609 69.5107 67.9476 70.0938C68.0391 70.7087 67.8124 71.3369 67.4008 71.6973L67.3988 71.6992C67.07 71.9731 66.6569 72.1088 66.2299 72.1807C65.8033 72.2524 65.3515 72.262 64.9447 72.2773L64.9388 72.2783V72.2773C63.2589 72.2353 61.7506 72.2154 60.5697 71.7529C59.9755 71.5202 59.461 71.1747 59.0472 70.6582C58.634 70.1424 58.3251 69.4607 58.1322 68.5615L58.1185 68.4971L58.1508 68.4736C57.7942 66.8834 57.9802 65.0753 58.347 63.3105C58.7078 61.5749 59.2452 59.8605 59.6185 58.4355C56.8358 58.5143 53.2978 58.433 49.4877 58.1611C48.3511 58.0803 46.6531 58.0472 44.6947 58C42.7522 57.9532 40.5562 57.8918 38.4076 57.7568C38.117 58.0969 37.8191 58.423 37.5238 58.7422C37.2169 59.074 36.9144 59.3997 36.6273 59.7314C36.0534 60.3947 35.546 61.0794 35.1996 61.8779L35.1986 61.877C35.0495 62.2751 35.1004 62.6992 35.2943 63.1309C35.4894 63.5649 35.8275 64.0013 36.2426 64.4131C37.0697 65.2339 38.1836 65.9413 39.0052 66.3311C39.4865 66.4938 39.9998 66.5422 40.4418 66.4883L40.6263 66.459C41.7634 66.1534 42.6728 66.2965 43.3207 66.6904C43.969 67.0847 44.3461 67.7246 44.4252 68.3887C44.5043 69.0529 44.285 69.7429 43.7416 70.2344C43.1989 70.7251 42.3445 71.0066 41.1693 70.8848V70.8857C39.3042 70.8245 37.949 70.6938 36.4457 70.2305L36.3754 70.208V70.1934C34.4314 69.4064 31.371 67.4317 29.1547 65.0791C28.0343 63.8898 27.1234 62.5974 26.684 61.3076C26.2435 60.0145 26.2759 58.7186 27.0521 57.5391L27.0551 57.5342C27.3923 57.0727 27.6875 56.592 27.9427 56.0986C26.7461 55.9307 25.4005 55.7517 24.1078 55.3838C20.6105 55.6842 17.774 55.3426 14.7406 55.0342C12.2886 54.8944 10.6205 55.793 9.39197 57.2031C8.15904 58.6185 7.36584 60.5522 6.68005 62.4893C6.48959 63.0866 6.23901 63.6763 5.91541 64.2188L5.91443 64.2178C5.46651 64.9897 4.85179 65.6398 4.12048 65.9912C3.38558 66.3443 2.53911 66.3932 1.64587 65.9707L1.64392 65.9697C1.1849 65.7404 0.901875 65.4188 0.751343 65.043C0.601831 64.6695 0.586601 64.2498 0.645874 63.8281C0.764147 62.9873 1.18462 62.1059 1.49841 61.4873C1.60707 61.2533 1.72316 61.0205 1.83923 60.791V60.7881L1.85095 60.7646C2.84043 58.9924 3.76445 56.9597 4.72595 54.9854C5.68588 53.0143 6.68282 51.1028 7.81384 49.5879C9.03739 47.8429 10.6257 47.1893 12.267 46.666C13.9134 46.1411 15.6002 45.7485 17.0834 44.541C18.0904 43.7101 18.9356 42.5991 19.4672 41.3457C19.9561 39.1445 20.5899 36.6571 20.8031 34.5488C20.8562 33.9657 20.8624 33.4921 20.8041 33.0938C20.6551 32.2286 20.1316 31.6748 19.4554 31.2373C19.1164 31.018 18.7412 30.8288 18.3578 30.6455C17.9762 30.4631 17.5842 30.2844 17.2211 30.0889L17.2181 30.0879C14.1865 28.3364 10.6125 25.9391 7.47107 23.1484C4.33103 20.359 1.6148 17.1694 0.309937 13.833C-0.211657 12.5221 -0.527209 10.9421 -0.495728 9.41895C-0.464941 7.9303 -0.101087 6.48665 0.737671 5.40234L0.708374 5.37598L0.766968 5.30273C2.18851 3.51187 3.64961 2.37659 5.89392 0.489258L5.90369 0.481445C6.31795 0.210994 6.68424 0.0815242 6.9906 0.0800781Z" stroke="black" stroke-opacity="0.1" stroke-width="0.2"/>
<mask id="mask0_9_217" style="mask-type:alpha" maskUnits="userSpaceOnUse" x="-1" y="0" width="108" height="73">
<path d="M105.977 61.4836C105.309 60.8106 104.491 60.4998 103.626 60.4485C102.678 60.1799 101.838 59.9513 100.999 59.4534C98.8184 58.3225 95.7026 55.7484 93.5208 54.1347C90.9459 52.324 88.5551 50.5458 86.9157 48.1618C85.382 45.9385 86.0097 42.8453 88.3273 41.4572C93.0312 38.3429 95.9463 41.8699 99.1979 39.261C99.2039 39.2565 99.4416 39.0626 99.4544 39.0528C100.054 38.5534 100.932 37.8759 101.256 37.5236C101.266 37.5281 101.276 37.5319 101.284 37.5349C101.749 37.0739 101.771 36.6175 101.559 36.0215C101.554 36.0215 101.549 36.023 101.544 36.023C101.352 35.5153 100.957 34.8378 100.378 33.8125C99.5925 31.8601 100.855 30.9404 98.4533 28.2116C98.4518 28.2131 98.4457 28.2177 98.4374 28.2244C97.7652 27.3727 96.9738 26.6168 96.101 26.0011C96.7083 24.4764 97.0372 22.4297 95.9516 22.0849C95.6687 21.9951 95.3586 22.0502 95.1119 22.2154C94.5166 22.613 93.5412 23.5047 92.8275 24.4251C92.6094 24.0675 92.3748 23.6918 92.156 23.2905C91.4657 22.023 89.9855 20.1686 89.0651 21.1599C88.3876 21.8895 88.0738 23.4021 88.1719 24.8966C85.4378 26.1664 82.0112 26.0162 79.2334 26.3248C74.4239 26.8544 72.1726 26.2146 67.7962 26.3248C64.4525 26.4093 60.6532 25.8623 58.0564 25.3621C50.5317 23.9121 44.0195 24.2063 34.0761 26.1234C33.2115 26.2901 29.3171 27.7069 27.0561 28.5941C26.4933 28.8152 25.9606 28.6681 25.3775 28.3844C24.3024 27.8337 23.597 27.218 22.2435 26.2863C16.9723 22.0487 1.11113 15.679 4.47439 7.31234C4.48571 7.31385 4.49703 7.31535 4.5091 7.31686C5.19412 5.73708 6.78824 4.23199 7.49212 2.65674C8.25712 0.767637 7.58266 -0.494528 5.95836 0.566204C3.71015 2.45681 2.25863 3.58393 0.84482 5.36515C0.853873 5.37345 0.863681 5.3825 0.872734 5.3908C-0.850389 7.52886 -0.630849 11.1977 0.403477 13.7967C2.99646 20.4266 11.213 26.5028 17.2681 30.0011C18.7098 30.7774 20.5921 31.2708 20.9029 33.077C20.9633 33.4874 20.9565 33.971 20.9029 34.5587C20.6887 36.6779 20.0512 39.1788 19.563 41.3772C19.0251 42.6492 18.1681 43.7763 17.1466 44.619C14.1432 47.0641 10.3031 46.2094 7.89424 49.6481C5.64452 52.6613 3.9214 57.2626 1.93875 60.8137C1.93875 60.8137 1.93875 60.8137 1.93875 60.8152C1.81879 61.0521 1.69959 61.292 1.58794 61.5326C0.959494 62.7714 -0.066534 65.0038 1.68903 65.8804C3.4197 66.699 4.94742 65.688 5.82935 64.1679C6.14848 63.633 6.39669 63.0513 6.5853 62.4598C7.95761 58.5828 9.77654 54.6515 14.7467 54.9351C17.7894 55.2444 20.6223 55.5862 24.1191 55.2837C25.4597 55.6669 26.8592 55.845 28.0979 56.02C27.8263 56.5624 27.5049 57.089 27.136 57.5937C24.113 62.1867 32.623 68.6002 36.4752 70.1271C36.4752 70.1294 36.4752 70.1317 36.4752 70.1347C37.9659 70.5941 39.3103 70.7246 41.1722 70.7857C45.806 71.2724 45.1232 65.3478 40.6456 66.5572C40.1477 66.6552 39.5374 66.6175 38.9716 66.4259C37.3103 65.6405 34.4563 63.5613 35.1074 61.8382C35.812 60.2139 37.1685 59.0641 38.3658 57.6549C42.6894 57.9287 47.216 57.8993 49.4951 58.0615C53.3646 58.3376 56.952 58.4183 59.7509 58.3331C58.9987 61.249 57.5178 65.3486 58.2624 68.5187C58.2518 68.5262 58.2405 68.533 58.23 68.5406C58.9919 72.0924 61.5668 72.0932 64.9414 72.1777C65.7607 72.1467 66.7158 72.1384 67.3352 71.6224C68.1032 70.9502 68.2013 69.2475 66.5423 68.6522C66.2088 68.4855 65.7954 68.3731 65.3714 68.3097C65.004 68.2116 64.6215 68.1203 64.23 68.0396C62.8395 66.441 64.4065 63.3387 65.3986 61.2874C67.5261 56.6077 70.1734 54.321 73.7185 52.1007C80.8539 54.4108 81.4355 55.9694 90.7882 59.5802C92.276 60.398 95.1209 62.0026 97.9395 63.1833C97.9395 63.1841 97.938 63.1848 97.9372 63.1856C100.009 64.0539 101.632 64.6567 103.503 64.7088C105.307 64.8793 106.957 63.1252 105.979 61.4806L105.977 61.4836Z" fill="#666666"/>
</mask>
<g mask="url(#mask0_9_217)">
<path d="M40.9079 59.8646C42.1801 57.5212 39.7744 58.0344 37.4266 56.7598C35.0788 55.4851 33.2106 53.5765 31.9383 55.9199C30.6661 58.2632 34.0226 58.5899 36.3704 59.8646C38.7182 61.1392 39.6357 62.2079 40.9079 59.8646Z" fill="#FCBF84"/>
<path d="M40.7236 60.4354C41.3396 58.257 39.5579 62.329 36.9873 61.602C34.4166 60.875 32.142 59.5383 31.5259 61.7167C30.9098 63.8951 34.2019 63.6665 36.7726 64.3935C39.3433 65.1205 40.1075 62.6138 40.7236 60.4354Z" fill="#FCBF84"/>
<path d="M71.6166 54.0212C72.8889 51.6779 69.7744 55.0244 67.4266 53.7498C65.0788 52.4751 62.5812 52.1972 61.9383 52.9099C61.0965 54.5303 64.0226 55.5799 66.3704 56.8546C68.7182 58.1292 70.3444 56.3646 71.6166 54.0212Z" fill="#FCBF84"/>
<path d="M71.5096 59.1092C72.7818 56.7658 69.7744 61.0344 67.4266 59.7598C65.0788 58.4851 63.2106 56.5765 61.9383 58.9199C60.6661 61.2632 64.0226 61.5899 66.3704 62.8646C68.7182 64.1392 70.2373 61.4525 71.5096 59.1092Z" fill="#FCBF84"/>
<path d="M70.7236 63.4354C71.3396 61.257 69.5579 65.329 66.9873 64.602C64.4166 63.875 62.142 62.5383 61.5259 64.7167C60.9098 66.8951 64.2019 66.6665 66.7726 67.3935C69.3433 68.1205 70.1075 65.6138 70.7236 63.4354Z" fill="#FCBF84"/>
<path d="M60.7187 25.1462C64.4067 24.1835 69.9263 23.7665 74.9922 23.4656C73.9038 24.8272 72.665 26.012 72.4407 27.6431C72.3781 28.0701 72.4606 28.629 72.688 29.3199C73.5287 31.8731 73.9598 34.2951 71.4508 36.0757C69.1556 37.7019 66.0059 36.5573 64.4067 34.5982C61.82 31.443 60.2388 28.1625 60.7187 25.1462Z" fill="#FCBF84"/>
<path d="M54.4267 23.899C57.8956 24.7153 61.2045 34.4463 54.8429 38.4607C49.9356 41.5574 50.8946 35.4094 48.1478 34.7023C47.4294 34.5135 46.4608 34.4281 45.2419 34.4463C40.7374 34.5136 36.5275 34.2166 33.9181 31.2143C31.5358 28.4687 34.0318 25.707 37.6521 24.7153C43.4847 23.1074 48.1478 22.4213 54.4267 23.899Z" fill="#FCBF84"/>
</g>
</g>
</g>
<defs>
<radialGradient id="paint0_radial_9_217" cx="0" cy="0" r="1" gradientTransform="matrix(-2.55286 17.7867 -26.352 -3.78215 55.4892 54.391)" gradientUnits="userSpaceOnUse">
<stop offset="0.552885" stop-color="#F6F4F1"/>
<stop offset="1" stop-color="#FFDCAC"/>
</radialGradient>
<clipPath id="clip0_9_217">
<rect width="106" height="72" fill="white"/>
</clipPath>
<clipPath id="clip1_9_217">
<rect width="106.667" height="72" fill="white" transform="translate(-0.398438 0.179932)"/>
</clipPath>
</defs>
</svg>
