<svg width="106" height="72" viewBox="0 0 106 72" fill="none" xmlns="http://www.w3.org/2000/svg">
<g clip-path="url(#clip0_9_164)">
<path d="M106.042 61.3037C105.374 60.6307 104.556 60.3199 103.691 60.2686C102.743 60 101.903 59.7714 101.064 59.2735C98.8835 58.1426 95.7677 55.5685 93.5859 53.9547C90.2505 51.6092 87.2238 49.3188 85.739 45.6952C85.3588 44.7673 85.5821 43.699 86.2966 42.9943C89.4471 39.8899 91.7918 39.5941 96.1592 40.126C97.1476 40.2459 98.1434 39.9676 98.925 39.3512C99.0299 39.269 99.1415 39.1792 99.263 39.0811C99.2652 39.0788 99.5187 38.8721 99.5187 38.8721C100.119 38.3727 101.34 37.3512 101.348 37.3542C101.814 36.8932 101.836 36.4368 101.623 35.8408C101.618 35.8408 101.613 35.8423 101.609 35.8423C101.416 35.3346 101.022 34.6571 100.442 33.6318C99.6568 31.6794 100.919 30.7597 98.5176 28.0309C98.5161 28.0324 98.5101 28.037 98.5018 28.0438C97.8296 27.192 97.0382 26.4361 96.1653 25.8204C96.7726 24.2957 97.1023 22.249 96.0159 21.9042C95.733 21.8144 95.4229 21.8695 95.1762 22.0347C94.581 22.4323 93.6055 23.324 92.8918 24.2444C92.6738 23.8868 92.4391 23.5111 92.2204 23.1098C91.5301 21.8423 90.0499 19.9879 89.1294 20.9793C88.452 21.7088 88.1381 23.2214 88.2362 24.716C85.3233 25.8763 84.3833 27.155 79.819 27.8189C75.1015 28.8955 75.7564 28.9347 69.2932 29.0343C65.9533 29.2018 62.6187 29.7895 59.9752 29.871C53.5059 29.7111 36.7439 25.493 27.1204 28.4127C26.5282 28.5356 26.025 28.4866 25.4418 28.2029C24.3667 27.6522 23.6613 27.0366 22.3079 26.1049C17.0374 21.868 1.17622 15.4991 4.53948 7.13241C4.5508 7.13391 4.56212 7.13542 4.57419 7.13693C5.25921 5.55715 6.85333 4.05206 7.55721 2.4768C8.32221 0.587706 7.64774 -0.67446 6.02345 0.386272C3.77524 2.27688 2.32296 3.404 0.909909 5.18522C0.918962 5.19351 0.92877 5.20257 0.937823 5.21087C-0.786055 7.34893 -0.56576 11.0177 0.468566 13.6168C3.06306 20.249 11.2773 26.3221 17.3331 29.8212C18.7756 30.5975 20.1781 31.2433 20.968 32.897C22.1487 35.3693 22.4225 38.5311 21.8054 40.9725C21.4667 42.3116 20.3184 43.9457 18.375 45.0894C15.0367 47.0532 10.369 46.0302 7.96008 49.4689C5.71036 52.4821 3.98724 57.0834 2.00459 60.6345C2.00459 60.6345 2.00459 60.6345 2.00459 60.636C1.88464 60.8729 1.76544 61.1128 1.65378 61.3535C1.02534 62.5915 -0.000690639 64.8246 1.75487 65.7012C3.48554 66.5198 5.01327 65.5089 5.8952 63.9887C6.21432 63.4538 6.46253 62.8721 6.65114 62.2807C8.02345 58.4036 9.83786 54.5741 14.8126 54.7559C19.9684 54.9446 24.6655 55.1528 29.1257 52.2942C29.1257 52.2942 29.8869 53.6665 27.2019 57.4146C23.9993 61.8846 32.6889 68.421 36.541 69.9479C36.541 69.9502 36.541 69.9525 36.541 69.9555C38.0317 70.4157 39.3762 70.5447 41.2381 70.6066C42.0604 70.6767 42.7122 70.5628 43.2049 70.332C45.5715 69.2426 44.2928 65.3331 40.7115 66.378C40.2136 66.4761 39.6032 66.4383 39.0374 66.2467C37.3761 65.4613 33.6228 62.212 34.5855 60.642C37.2494 56.2965 39.057 54.8653 39.9141 53.7805C41.3271 51.9917 43.0555 49.8069 44.4097 47.3172C45.7247 44.8993 45.134 42.9928 44.8232 41.9819C49.005 41.7873 53.3897 44.1071 55.9239 45.3519C58.2264 46.4429 59.8431 48.1924 61.6855 49.275C60.7952 51.8431 60.7085 54.6413 60.0167 57.3165C59.3822 60.2399 57.5082 64.8525 58.3267 68.3395C58.3162 68.347 58.3049 68.3538 58.2943 68.3614C59.0563 71.9132 61.6311 71.914 65.0057 71.9985C65.825 71.9676 66.7802 71.9593 67.3995 71.4432C68.1675 70.771 68.2656 69.0683 66.6066 68.473C66.2739 68.3063 65.8597 68.1939 65.4358 68.1305C65.0683 68.0324 64.6858 67.9412 64.2943 67.8604C62.9039 66.2618 64.4708 63.1596 65.4629 61.1083C67.5904 56.4285 71.6078 52.9687 75.1528 50.7492C82.0008 53.5534 83.0434 54.1796 90.8518 59.4017C92.2634 60.3455 95.1845 61.8242 98.0031 63.0049C98.0031 63.0057 98.0016 63.0064 98.0008 63.0072C100.072 63.8755 101.695 64.4783 103.566 64.5304C105.371 64.7009 107.021 62.9468 106.043 61.3022L106.042 61.3037Z" fill="url(#paint0_radial_9_164)"/>
<path d="M79.8044 27.7195C84.3206 27.0626 85.2416 25.8152 88.1326 24.6501C88.091 23.9181 88.1463 23.1833 88.2947 22.5378C88.4476 21.8731 88.7011 21.2935 89.0564 20.9109C89.3104 20.6375 89.6105 20.5572 89.9226 20.6179C90.2267 20.6771 90.5358 20.868 90.8269 21.1218C91.4106 21.6307 91.9602 22.423 92.3083 23.0623C92.5012 23.4161 92.7064 23.7496 92.9031 24.071C93.6128 23.184 94.5401 22.3398 95.1208 21.9519C95.3905 21.7713 95.7322 21.7095 96.0466 21.8093C96.3507 21.906 96.5531 22.1225 96.6746 22.408C96.7948 22.6906 96.8374 23.0425 96.8259 23.4226C96.8036 24.1596 96.5782 25.0314 96.2859 25.7839C97.1123 26.3758 97.8631 27.093 98.5095 27.8962L98.5222 27.8845L98.5925 27.9646C99.8047 29.3421 100.1 30.2734 100.185 31.1121C100.206 31.3194 100.215 31.5202 100.221 31.7175C100.228 31.9158 100.233 32.1101 100.248 32.3093C100.277 32.7045 100.343 33.1163 100.533 33.5906C101.083 34.5638 101.471 35.2332 101.675 35.741H101.693L101.717 35.8074C101.826 36.1128 101.879 36.3936 101.839 36.6628C101.798 36.9346 101.663 37.1832 101.419 37.4255L101.374 37.4695L101.366 37.4666C101.363 37.4693 101.359 37.4723 101.355 37.4753C101.32 37.5037 101.269 37.5459 101.207 37.5974C101.082 37.7004 100.91 37.8431 100.719 38.0017C100.338 38.3194 99.8831 38.6989 99.5828 38.949L99.5818 38.95H99.5808C99.5803 38.9503 99.5797 38.9512 99.5789 38.9519C99.577 38.9534 99.5744 38.956 99.571 38.9587C99.5641 38.9644 99.5545 38.9726 99.5427 38.9822L99.3669 39.1248C99.355 39.1346 99.3447 39.1434 99.3376 39.1492C99.3344 39.1518 99.3316 39.1536 99.3298 39.155L99.3259 39.1589C99.2046 39.2569 99.0924 39.3468 98.9871 39.4294C98.1845 40.0623 97.1619 40.3485 96.1472 40.2253C93.9658 39.9597 92.3034 39.9032 90.7966 40.2937C89.293 40.6835 87.9339 41.5211 86.3669 43.0652C85.6811 43.7416 85.4672 44.767 85.8318 45.657C87.304 49.2501 90.3061 51.526 93.6433 53.8728L93.6453 53.8748C94.1915 54.2788 94.7967 54.7425 95.4294 55.2283C96.0625 55.7142 96.7242 56.2219 97.3855 56.7146C98.544 57.5777 99.6977 58.3918 100.693 58.9578L101.11 59.1843L101.115 59.1873C101.938 59.6754 102.761 59.9018 103.707 60.1697C104.547 60.2215 105.347 60.5139 106.013 61.1375L106.036 61.0935L106.129 61.2507C106.642 62.1144 106.464 63.0104 105.926 63.6609C105.391 64.3068 104.497 64.7157 103.563 64.6296C101.672 64.577 100.034 63.9676 97.9626 63.0994L97.825 63.0417L97.8279 63.0378C95.05 61.8661 92.1931 60.4188 90.7966 59.4851C86.8915 56.8734 84.6818 55.414 82.5935 54.2566C80.5159 53.1051 78.5567 52.2517 75.1619 50.8611C71.6362 53.0762 67.6609 56.5137 65.5535 61.1492L65.5525 61.1521C65.0552 62.1803 64.4208 63.4595 64.0818 64.6804C63.7448 65.8942 63.7118 67.0122 64.3503 67.7703C64.731 67.8495 65.1031 67.9375 65.4607 68.033C65.8833 68.0969 66.2999 68.2101 66.6404 68.3787C67.5032 68.6883 67.92 69.2928 68.0125 69.9148C68.1038 70.5295 67.8771 71.158 67.4656 71.5183L67.4636 71.5203C67.1349 71.7941 66.7217 71.9298 66.2947 72.0017C65.8682 72.0735 65.4163 72.083 65.0095 72.0984H65.0037C63.3235 72.0563 61.8145 72.0356 60.6335 71.573C60.0397 71.3403 59.5257 70.9954 59.1121 70.4792C58.6988 69.9634 58.3889 69.2817 58.196 68.3826L58.1824 68.3181L58.2146 68.2947C57.8222 66.5435 58.0885 64.5271 58.5291 62.5945C58.7524 61.6145 59.0211 60.6524 59.2732 59.7546C59.5255 58.8558 59.7609 58.0228 59.9187 57.2957L59.9197 57.2917C60.2641 55.96 60.4576 54.5976 60.6775 53.24C60.8927 51.9111 61.1334 50.5879 61.5652 49.3181C60.6634 48.7784 59.8119 48.0844 58.9167 47.3962C57.9955 46.688 57.0218 45.9828 55.8806 45.4421H55.8796C54.6105 44.8187 52.8863 43.9304 50.9568 43.2214C49.0667 42.527 46.9873 42.0084 44.9558 42.0779C45.2747 43.1242 45.78 45.0071 44.4978 47.365C43.1389 49.8632 41.4053 52.0546 39.9929 53.8425C39.1228 54.9439 37.3314 56.3537 34.6707 60.6941C34.4558 61.0446 34.4953 61.5024 34.7322 62.0281C34.9683 62.5517 35.3917 63.121 35.9011 63.6707C36.9186 64.7686 38.2592 65.7667 39.0759 66.1541C39.623 66.3381 40.211 66.3732 40.6882 66.28C42.517 65.7484 43.7841 66.4797 44.2791 67.5115C44.7709 68.5369 44.4877 69.8501 43.2468 70.4216C42.736 70.661 42.0681 70.7761 41.2351 70.7058V70.7068C39.3701 70.6448 38.0149 70.5156 36.5115 70.0515L36.4412 70.0291V70.0144C34.4961 69.2268 31.3916 67.221 29.1531 64.8533C28.0216 63.6564 27.1046 62.3605 26.6736 61.0759C26.2413 59.7875 26.2975 58.5054 27.1208 57.3562C28.4577 55.49 28.9301 54.2237 29.072 53.4314C29.1429 53.0357 29.1318 52.7581 29.1042 52.5828C29.0953 52.5261 29.0831 52.4802 29.073 52.4441C24.614 55.2516 19.9193 55.0431 14.8093 54.8562C12.3534 54.7664 10.6839 55.6645 9.45581 57.0623C8.22275 58.4658 7.43184 60.3762 6.74585 62.3142C6.55565 62.91 6.3039 63.4966 5.9812 64.0378L5.98218 64.0388C5.53424 64.8109 4.91771 65.4608 4.18628 65.8123C3.4514 66.1653 2.60486 66.2142 1.71167 65.7917L1.70972 65.7908C1.25054 65.5614 0.967645 65.2391 0.817139 64.863C0.667753 64.4896 0.652439 64.0707 0.71167 63.6492C0.829865 62.8082 1.25037 61.9266 1.56421 61.3083C1.67286 61.0743 1.78895 60.8416 1.90503 60.6121V60.6082L1.91772 60.5857C2.90718 58.8135 3.83123 56.7807 4.79272 54.8064C5.75264 52.8354 6.74863 50.9238 7.87964 49.4089C9.10679 47.659 10.9084 47.0491 12.7976 46.6287C14.6972 46.2059 16.6729 45.9748 18.324 45.0037C20.2481 43.8713 21.3775 42.2573 21.7087 40.948C22.3201 38.5292 22.0483 35.3913 20.8777 32.9402C20.1046 31.3216 18.7366 30.6897 17.2859 29.9089L17.283 29.908C14.251 28.1561 10.678 25.7588 7.53687 22.9685C4.39737 20.1797 1.68148 16.9912 0.375732 13.6541L0.190186 13.1501C-0.219521 11.9485 -0.458378 10.5721 -0.430908 9.23901C-0.400216 7.75042 -0.0365581 6.30671 0.80249 5.22241L0.77417 5.19604L0.831787 5.1228C2.25262 3.33186 3.7144 2.19668 5.95874 0.309326L5.96851 0.301514C6.38283 0.0309902 6.74902 -0.0983968 7.05542 -0.0998535C7.36768 -0.101327 7.61299 0.0314785 7.77026 0.270264C7.92409 0.503906 7.98802 0.829513 7.96851 1.20874C7.94884 1.58971 7.84453 2.03437 7.65015 2.5144L7.64819 2.51733C7.2909 3.31693 6.70973 4.09678 6.1394 4.86499C5.5657 5.63775 5.00285 6.3992 4.66577 7.17651L4.63647 7.24585L4.60522 7.24097C3.81473 9.27116 4.17038 11.181 5.24194 12.9792C6.32837 14.8024 8.14759 16.5065 10.2458 18.0876C12.3431 19.6681 14.7114 21.1202 16.8875 22.4441C19.0568 23.7639 21.0401 24.9592 22.364 26.0222C23.7265 26.9602 24.4188 27.5665 25.4851 28.113L25.6931 28.2048C26.168 28.3948 26.5968 28.4177 27.0945 28.3152C31.9279 26.8499 38.5418 27.1781 44.7419 27.8875C47.8445 28.2424 50.8489 28.694 53.4792 29.0662C56.1103 29.4384 58.3642 29.7301 59.9744 29.7703C61.2907 29.7296 62.7804 29.5636 64.3621 29.3855C65.9429 29.2075 67.6145 29.0183 69.2878 28.9343H69.2917L71.406 28.8972C73.2343 28.8591 74.2777 28.8111 75.198 28.6941C76.4254 28.5381 77.4329 28.2609 79.7966 27.7214L79.8044 27.7195Z" stroke="black" stroke-opacity="0.1" stroke-width="0.2"/>
<mask id="mask0_9_164" style="mask-type:alpha" maskUnits="userSpaceOnUse" x="-1" y="-1" width="108" height="73">
<path d="M106.042 61.3037C105.374 60.6307 104.556 60.3199 103.691 60.2686C102.743 60 101.903 59.7714 101.064 59.2735C98.8835 58.1426 95.7677 55.5685 93.5859 53.9547C90.2505 51.6092 87.2238 49.3188 85.739 45.6952C85.3588 44.7673 85.5821 43.699 86.2966 42.9943C89.4471 39.8899 91.7918 39.5941 96.1592 40.126C97.1476 40.2459 98.1434 39.9676 98.925 39.3512C99.0299 39.269 99.1415 39.1792 99.263 39.0811C99.2652 39.0788 99.5187 38.8721 99.5187 38.8721C100.119 38.3727 101.34 37.3512 101.348 37.3542C101.814 36.8932 101.836 36.4368 101.623 35.8408C101.618 35.8408 101.613 35.8423 101.609 35.8423C101.416 35.3346 101.022 34.6571 100.442 33.6318C99.6568 31.6794 100.919 30.7597 98.5176 28.0309C98.5161 28.0324 98.5101 28.037 98.5018 28.0438C97.8296 27.192 97.0382 26.4361 96.1653 25.8204C96.7726 24.2957 97.1023 22.249 96.0159 21.9042C95.733 21.8144 95.4229 21.8695 95.1762 22.0347C94.581 22.4323 93.6055 23.324 92.8918 24.2444C92.6738 23.8868 92.4391 23.5111 92.2204 23.1098C91.5301 21.8423 90.0499 19.9879 89.1294 20.9793C88.452 21.7088 88.1381 23.2214 88.2362 24.716C85.3233 25.8763 84.3833 27.155 79.819 27.8189C75.1015 28.8955 75.7564 28.9347 69.2932 29.0343C65.9533 29.2018 62.6187 29.7895 59.9752 29.871C53.5059 29.7111 36.7439 25.493 27.1204 28.4127C26.5282 28.5356 26.025 28.4866 25.4418 28.2029C24.3667 27.6522 23.6613 27.0366 22.3079 26.1049C17.0374 21.868 1.17622 15.4991 4.53948 7.13241C4.5508 7.13391 4.56212 7.13542 4.57419 7.13693C5.25921 5.55715 6.85333 4.05206 7.55721 2.4768C8.32221 0.587706 7.64774 -0.67446 6.02345 0.386272C3.77524 2.27688 2.32296 3.404 0.909909 5.18522C0.918962 5.19351 0.92877 5.20257 0.937823 5.21087C-0.786055 7.34893 -0.56576 11.0177 0.468566 13.6168C3.06306 20.249 11.2773 26.3221 17.3331 29.8212C18.7756 30.5975 20.1781 31.2433 20.968 32.897C22.1487 35.3693 22.4225 38.5311 21.8054 40.9725C21.4667 42.3116 20.3184 43.9457 18.375 45.0894C15.0367 47.0532 10.369 46.0302 7.96008 49.4689C5.71036 52.4821 3.98724 57.0834 2.00459 60.6345C2.00459 60.6345 2.00459 60.6345 2.00459 60.636C1.88464 60.8729 1.76544 61.1128 1.65378 61.3535C1.02534 62.5915 -0.000690639 64.8246 1.75487 65.7012C3.48554 66.5198 5.01327 65.5089 5.8952 63.9887C6.21432 63.4538 6.46253 62.8721 6.65114 62.2807C8.02345 58.4036 9.83786 54.5741 14.8126 54.7559C19.9684 54.9446 24.6655 55.1528 29.1257 52.2942C29.1257 52.2942 29.8869 53.6665 27.2019 57.4146C23.9993 61.8846 32.6889 68.421 36.541 69.9479C36.541 69.9502 36.541 69.9525 36.541 69.9555C38.0317 70.4157 39.3762 70.5447 41.2381 70.6066C42.0604 70.6767 42.7122 70.5628 43.2049 70.332C45.5715 69.2426 44.2928 65.3331 40.7115 66.378C40.2136 66.4761 39.6032 66.4383 39.0374 66.2467C37.3761 65.4613 33.6228 62.212 34.5855 60.642C37.2494 56.2965 39.057 54.8653 39.9141 53.7805C41.3271 51.9917 43.0555 49.8069 44.4097 47.3172C45.7247 44.8993 45.134 42.9928 44.8232 41.9819C49.005 41.7873 53.3897 44.1071 55.9239 45.3519C58.2264 46.4429 59.8431 48.1924 61.6855 49.275C60.7952 51.8431 60.7085 54.6413 60.0167 57.3165C59.3822 60.2399 57.5082 64.8525 58.3267 68.3395C58.3162 68.347 58.3049 68.3538 58.2943 68.3614C59.0563 71.9132 61.6311 71.914 65.0057 71.9985C65.825 71.9676 66.7802 71.9593 67.3995 71.4432C68.1675 70.771 68.2656 69.0683 66.6066 68.473C66.2739 68.3063 65.8597 68.1939 65.4358 68.1305C65.0683 68.0324 64.6858 67.9412 64.2943 67.8604C62.9039 66.2618 64.4708 63.1596 65.4629 61.1083C67.5904 56.4285 71.6078 52.9687 75.1528 50.7492C82.0008 53.5534 83.0434 54.1796 90.8518 59.4017C92.2634 60.3455 95.1845 61.8242 98.0031 63.0049C98.0031 63.0057 98.0016 63.0064 98.0008 63.0072C100.072 63.8755 101.695 64.4783 103.566 64.5304C105.371 64.7009 107.021 62.9468 106.043 61.3022L106.042 61.3037Z" fill="#E2681A"/>
</mask>
<g mask="url(#mask0_9_164)">
<path d="M41.5096 56.1092C42.7818 53.7658 39.7744 58.0344 37.4266 56.7598C35.0788 55.4851 33.2106 53.5765 31.9383 55.9199C30.6661 58.2632 34.0226 58.5899 36.3704 59.8646C38.7182 61.1392 40.2373 58.4525 41.5096 56.1092Z" fill="#FCBF84"/>
<path d="M40.7236 60.4354C41.3396 58.257 39.5579 62.329 36.9873 61.602C34.4166 60.875 32.142 59.5383 31.5259 61.7167C30.9098 63.8951 34.2019 63.6665 36.7726 64.3935C39.3433 65.1205 40.1075 62.6138 40.7236 60.4354Z" fill="#FCBF84"/>
<path d="M71.6166 54.0212C72.8889 51.6779 69.7744 55.0244 67.4266 53.7498C65.0788 52.4751 62.5812 52.1972 61.9383 52.9099C61.0965 54.5303 64.0226 55.5799 66.3704 56.8546C68.7182 58.1292 70.3444 56.3646 71.6166 54.0212Z" fill="#FCBF84"/>
<path d="M71.5096 59.1092C72.7818 56.7658 69.7744 61.0344 67.4266 59.7598C65.0788 58.4851 63.2106 56.5765 61.9383 58.9199C60.6661 61.2632 64.0226 61.5899 66.3704 62.8646C68.7182 64.1392 70.2373 61.4525 71.5096 59.1092Z" fill="#FCBF84"/>
<path d="M70.7236 63.4354C71.3396 61.257 69.5579 65.329 66.9873 64.602C64.4166 63.875 62.142 62.5383 61.5259 64.7167C60.9098 66.8951 64.2019 66.6665 66.7726 67.3935C69.3433 68.1205 70.1075 65.6138 70.7236 63.4354Z" fill="#FCBF84"/>
<path d="M60.7187 29.832C64.4067 29.2547 69.9263 29.0047 74.9922 28.8242C73.9038 29.6407 72.665 30.3512 72.4407 31.3293C72.3781 31.5854 72.4606 31.9205 72.688 32.3348C73.5287 33.8659 73.9598 35.3182 71.4508 36.386C69.1556 37.3612 66.0059 36.6748 64.4067 35.5C61.82 33.608 60.2388 31.6408 60.7187 29.832Z" fill="#FCBF84"/>
<path d="M54.4267 23.899C57.8956 24.7153 61.2045 34.4463 54.8429 38.4607C49.9356 41.5574 50.8946 35.4094 48.1478 34.7023C47.4294 34.5135 46.4608 34.4281 45.2419 34.4463C40.7374 34.5136 36.5275 34.2166 33.9181 31.2143C31.5358 28.4687 34.0318 25.707 37.6521 24.7153C43.4847 23.1074 48.1478 22.4213 54.4267 23.899Z" fill="#FCBF84"/>
</g>
</g>
<defs>
<radialGradient id="paint0_radial_9_164" cx="0" cy="0" r="1" gradientTransform="matrix(-2.55283 17.7869 -26.3516 -3.78219 55.5534 54.2116)" gradientUnits="userSpaceOnUse">
<stop offset="0.552885" stop-color="#F6F4F1"/>
<stop offset="1" stop-color="#FFDCAC"/>
</radialGradient>
<clipPath id="clip0_9_164">
<rect width="106" height="72" fill="white"/>
</clipPath>
</defs>
</svg>
