<svg width="106" height="72" viewBox="0 0 106 72" fill="none" xmlns="http://www.w3.org/2000/svg">
<g clip-path="url(#clip0_9_175)">
<path d="M106.477 61.4836C105.809 60.8106 104.991 60.4998 104.126 60.4485C103.178 60.1799 102.338 59.9513 101.499 59.4534C99.3184 58.3225 96.2026 55.7484 94.0208 54.1347C90.7843 51.8585 87.8382 49.6345 86.3097 46.1935C85.8194 45.089 86.0728 43.8012 86.9465 42.9661C89.9137 40.1301 92.2086 39.802 96.275 40.2682C97.4912 40.4078 98.7126 40.057 99.6655 39.2882C99.6768 39.2791 99.6881 39.2701 99.6994 39.261C99.7024 39.2588 99.9453 39.0611 99.9559 39.0528C100.556 38.5534 101.432 37.8759 101.757 37.5236C101.767 37.5281 101.777 37.5319 101.785 37.5349C102.251 37.0739 102.273 36.6175 102.06 36.0215C102.055 36.0215 102.05 36.023 102.046 36.023C101.853 35.5153 101.459 34.8378 100.879 33.8125C100.094 31.8601 101.356 30.9404 98.9548 28.2116C98.9533 28.2131 98.9472 28.2177 98.9389 28.2244C98.2667 27.3727 97.4753 26.6168 96.6025 26.0011C97.2098 24.4764 97.5395 22.4297 96.4531 22.0849C96.1702 21.9951 95.8601 22.0502 95.6134 22.2154C95.0182 22.613 94.0427 23.5047 93.329 24.4251C93.1109 24.0675 92.8763 23.6918 92.6575 23.2905C91.9672 22.023 90.487 20.1686 89.5666 21.1599C88.8891 21.8895 88.5753 23.4021 88.6734 24.8966C85.7605 26.057 84.8205 27.3357 80.2562 27.9996C75.5387 29.0762 76.1936 29.1154 69.7303 29.215C66.3905 29.3825 63.0559 29.9702 60.4123 30.0517C53.9431 29.8917 37.1811 25.6737 27.5576 28.5934C26.9653 28.7163 26.4621 28.6673 25.879 28.3836C24.8039 27.8329 24.0985 27.2173 22.745 26.2856C17.4723 22.0479 1.61113 15.679 4.97439 7.31234C4.98571 7.31385 4.99703 7.31535 5.0091 7.31686C5.69412 5.73708 7.28824 4.23199 7.99212 2.65674C8.75712 0.767637 8.08266 -0.494528 6.45836 0.566204C4.21015 2.45681 2.75787 3.58393 1.34482 5.36515C1.35387 5.37345 1.36368 5.3825 1.37273 5.3908C-0.350389 7.52886 -0.130849 11.1977 0.903477 13.7967C3.49646 20.4266 11.713 26.5028 17.7681 30.0011C19.2098 30.7774 21.0921 31.2708 21.4029 33.077C21.4633 33.4874 22.5308 38.4078 21.2445 41.7529C20.7488 43.0415 19.5214 44.0834 18.4999 44.9261C15.4965 47.3712 10.8039 46.2101 8.39499 49.6488C6.14527 52.662 4.42215 57.2633 2.4395 60.8144C2.4395 60.8144 2.4395 60.8144 2.4395 60.8159C2.31955 61.0528 2.20035 61.2927 2.08869 61.5334C1.46025 62.7722 0.43422 65.0045 2.18978 65.8812C3.92045 66.6997 5.44818 65.6888 6.33011 64.1686C6.64923 63.6337 6.89744 63.0521 7.08605 62.4606C8.45836 58.5836 10.2773 54.653 15.2475 54.9359C19.6089 55.4112 24.8884 55.9355 29.335 54.2033C28.9902 55.3025 28.4018 56.5692 27.6368 57.5945C24.6138 62.1882 33.1238 68.6009 36.9759 70.1279C36.9759 70.1301 36.9759 70.1324 36.9759 70.1354C38.4667 70.5956 39.8111 70.7246 41.673 70.7865C42.4953 70.8567 43.1472 70.7427 43.6398 70.5119C46.0065 69.4225 44.7277 65.513 41.1464 66.5579C40.6485 66.656 40.0381 66.6183 39.4723 66.4266C37.8111 65.6413 34.1 63.2173 34.7103 61.4798C35.8254 58.3067 40.1272 54.3829 40.7141 53.5892C42.0683 51.7559 42.576 50.8197 42.7722 48.9578C42.9344 47.2648 43.0242 45.8601 42.7722 44.5836C43.8699 44.5903 45.8774 44.7714 47.0529 44.871C49.8254 45.1071 51.7605 45.6594 54.2192 46.8416C56.7782 48.0547 59.7069 49.3191 61.8465 50.3233C61.2226 52.6477 61.0544 55.1177 60.4516 57.4964C59.8171 60.4198 57.9431 65.0324 58.7616 68.5194C58.7511 68.527 58.7398 68.5338 58.7292 68.5413C59.4912 72.0932 62.0661 72.0939 65.4406 72.1784C66.2599 72.1475 67.2151 72.1392 67.8344 71.6232C68.6025 70.951 68.7005 69.2482 67.0415 68.653C66.7081 68.4862 66.2947 68.3738 65.8707 68.3105C65.5033 68.2124 65.1208 68.1211 64.7292 68.0404C63.3388 66.4417 64.9057 63.3395 65.8978 61.2882C68.0253 56.6085 71.1328 53.1486 74.6771 50.9291C80.1732 53.1456 81.8941 54.5934 91.2867 59.5817C92.7858 60.3784 95.6194 62.0042 98.438 63.1848C98.438 63.1856 98.4365 63.1863 98.4357 63.1871C100.507 64.0555 102.13 64.6582 104.001 64.7103C105.806 64.8808 107.456 63.1268 106.478 61.4821L106.477 61.4836Z" fill="url(#paint0_radial_9_175)"/>
<path d="M7.4906 0.0800781C7.80267 0.0786717 8.04723 0.211584 8.20447 0.450195C8.35836 0.683845 8.4232 1.00937 8.40369 1.38867C8.38402 1.76965 8.27875 2.21429 8.08435 2.69434L8.08337 2.69727C7.72607 3.49689 7.14396 4.27668 6.57361 5.04492C5.99999 5.81756 5.438 6.57925 5.10095 7.35645L5.07068 7.42578L5.03943 7.4209C4.2491 9.45088 4.60474 11.3611 5.67615 13.1592C6.7626 14.9823 8.58265 16.6864 10.681 18.2676C12.7783 19.8479 15.1464 21.3001 17.3226 22.624C19.4928 23.9442 21.4776 25.1397 22.8021 26.2031L23.7152 26.8486C24.5343 27.4401 25.1227 27.8841 25.9222 28.2939L26.1302 28.3857C26.5387 28.5491 26.9132 28.5894 27.3265 28.5322L27.5375 28.4951C32.3704 27.0317 38.9813 27.3593 45.1791 28.0684C48.2819 28.4233 51.2869 28.8749 53.9174 29.2471C56.5482 29.6193 58.8014 29.911 60.4115 29.9512C61.7278 29.9105 63.2175 29.7445 64.7992 29.5664C66.3801 29.3884 68.0516 29.1992 69.725 29.1152H69.7289C72.9625 29.0654 74.4081 29.03 75.6351 28.874C76.8625 28.718 77.8701 28.4418 80.2338 27.9023L80.2416 27.9004L81.0541 27.7695C84.8817 27.0867 85.861 25.9227 88.5697 24.8311C88.5281 24.099 88.5834 23.3643 88.7318 22.7188C88.8847 22.054 89.1382 21.4744 89.4935 21.0918C89.7475 20.8183 90.0477 20.7372 90.3597 20.7979C90.6639 20.857 90.9729 21.0489 91.264 21.3027C91.8477 21.8115 92.3973 22.6029 92.7455 23.2422C92.9384 23.5962 93.1435 23.9304 93.3402 24.252C94.0499 23.3648 94.9772 22.5197 95.558 22.1318C95.8276 21.9514 96.1694 21.8895 96.4838 21.9893C96.788 22.0859 96.9902 22.3032 97.1117 22.5889C97.2319 22.8715 97.2746 23.2233 97.2631 23.6035C97.2408 24.3406 97.0153 25.2122 96.723 25.9648C97.5494 26.5567 98.3002 27.2739 98.9467 28.0771L98.9594 28.0654L99.0297 28.1455C100.242 29.5231 100.537 30.4542 100.622 31.293C100.644 31.5003 100.652 31.701 100.659 31.8984C100.665 32.0967 100.67 32.291 100.685 32.4902C100.714 32.8854 100.78 33.2972 100.97 33.7715C101.52 34.7447 101.908 35.4141 102.112 35.9219H102.13L102.155 35.9883C102.264 36.2936 102.316 36.5746 102.276 36.8438C102.235 37.1154 102.1 37.3633 101.856 37.6055L101.811 37.6504L101.783 37.6396C101.608 37.8181 101.327 38.0596 101.023 38.3105C100.685 38.5887 100.32 38.8796 100.02 39.1299L100.018 39.1318H100.017C100.016 39.1324 100.015 39.1338 100.014 39.1348C100.012 39.1365 100.009 39.1387 100.005 39.1416C99.9977 39.1477 99.987 39.1562 99.975 39.166C99.9508 39.1857 99.9192 39.211 99.8881 39.2363C99.8333 39.2809 99.7742 39.3274 99.7611 39.3379L99.7621 39.3389L99.7279 39.3662C98.7542 40.1517 97.5064 40.5097 96.264 40.3672C94.234 40.1344 92.6584 40.1022 91.224 40.4756C89.7922 40.8483 88.491 41.6284 87.016 43.0381C86.1729 43.844 85.9275 45.0873 86.4008 46.1533C87.7271 49.1392 90.1316 51.2039 92.8812 53.1992L94.0785 54.0527L94.0804 54.0547C94.6266 54.4587 95.231 54.9226 95.8636 55.4082C96.4966 55.8941 97.1584 56.4018 97.8197 56.8945C99.1436 57.8809 100.462 58.8029 101.544 59.3643L101.55 59.3672C102.373 59.8555 103.197 60.0816 104.143 60.3496C104.983 60.4016 105.782 60.6944 106.448 61.3174L106.47 61.2734L106.564 61.4307C107.077 62.2944 106.899 63.1903 106.36 63.8408C105.825 64.4866 104.932 64.8955 103.998 64.8096V64.8105C102.107 64.7579 100.469 64.1477 98.3969 63.2793L98.2601 63.2217L98.2621 63.2188C95.4836 62.041 92.7104 60.4516 91.2396 59.6699C81.864 54.6907 80.1394 53.2443 74.6869 51.041C71.1783 53.2505 68.0998 56.6854 65.9886 61.3291L65.9877 61.332C65.4904 62.3603 64.855 63.6393 64.516 64.8604C64.179 66.0742 64.1469 67.1921 64.7855 67.9502C65.1664 68.0295 65.539 68.1183 65.8969 68.2139H65.8959C66.3185 68.2779 66.7345 68.39 67.0756 68.5586L67.2318 68.6201C67.9889 68.9439 68.36 69.5116 68.4467 70.0947C68.538 70.7094 68.3122 71.3379 67.9008 71.6982L67.8988 71.7002C67.5699 71.9742 67.156 72.1098 66.7289 72.1816C66.3025 72.2534 65.8513 72.263 65.4447 72.2783H65.4379C63.7579 72.2363 62.2496 72.2155 61.0687 71.7529C60.4746 71.5202 59.96 71.1756 59.5463 70.6592C59.133 70.1434 58.8241 69.4616 58.6312 68.5625L58.6176 68.498L58.6498 68.4746C58.2574 66.7234 58.5237 64.7071 58.9642 62.7744C59.1876 61.7944 59.4563 60.8324 59.7084 59.9346C59.9607 59.0357 60.196 58.2028 60.3539 57.4756L60.3549 57.4717C60.6549 56.2874 60.8468 55.0794 61.0424 53.873C61.2331 52.6963 61.4279 51.5211 61.7289 50.3789C60.676 49.886 59.4379 49.3316 58.1488 48.752C57.1592 48.307 56.1399 47.8469 55.1517 47.3887L54.1761 46.9316C51.7279 45.7545 49.8042 45.2058 47.0443 44.9707C45.9083 44.8745 44.0061 44.7037 42.892 44.6855C43.0893 45.7832 43.0474 46.9736 42.9291 48.3457L42.8715 48.9678C42.7725 49.9069 42.5943 50.6181 42.2679 51.3262C41.9426 52.032 41.4718 52.7312 40.7943 53.6484C40.6428 53.8534 40.2568 54.254 39.7572 54.7793C39.2541 55.3082 38.6283 55.9714 37.9857 56.708C36.6979 58.1844 35.3557 59.9459 34.8051 61.5127C34.6665 61.9072 34.7684 62.3525 35.0492 62.8242C35.3295 63.295 35.7794 63.777 36.3051 64.2344C37.3545 65.1473 38.687 65.9439 39.5111 66.334C40.0582 66.5179 40.6462 66.5532 41.1234 66.46C42.952 65.9285 44.2183 66.6597 44.7133 67.6914C45.1746 68.6531 44.9553 69.8684 43.9027 70.4873L43.682 70.6025C43.171 70.8419 42.5026 70.9562 41.6693 70.8857C39.8047 70.8238 38.4498 70.6954 36.9467 70.2314L36.8763 70.209V70.1943C34.9324 69.4075 31.8721 67.4327 29.6556 65.0801C28.5352 63.8907 27.6233 62.5985 27.184 61.3086C26.7435 60.0153 26.7767 58.7189 27.5531 57.5391L27.556 57.5342H27.557C28.2685 56.5804 28.8247 55.4125 29.1732 54.3701C24.7437 56.0213 19.5336 55.5029 15.2416 55.0352C12.7894 54.8956 11.1215 55.794 9.89294 57.2041C8.65917 58.6203 7.86616 60.5558 7.18005 62.4941C6.9897 63.0904 6.73942 63.6782 6.41638 64.2197L6.41541 64.2188C5.96749 64.9906 5.35274 65.6408 4.62146 65.9922C3.88653 66.3453 3.04013 66.3942 2.14685 65.9717L2.1449 65.9707C1.6856 65.7413 1.40285 65.419 1.25232 65.043C1.10291 64.6695 1.08662 64.2507 1.14587 63.8291C1.26408 62.9882 1.68556 62.1069 1.99939 61.4883C2.10798 61.2544 2.22322 61.0214 2.33923 60.792V60.7881L2.35193 60.7656C3.34139 58.9934 4.26545 56.9606 5.22693 54.9863C6.18686 53.0153 7.18379 51.1037 8.31482 49.5889C9.54223 47.8387 11.3509 47.2628 13.2015 46.8174C15.0626 46.3695 16.9566 46.0527 18.4359 44.8486C19.4616 44.0025 20.6661 42.9766 21.1508 41.7168C21.7859 40.0649 21.8422 38.0165 21.7289 36.3213C21.616 34.6327 21.3369 33.3131 21.3041 33.0938C21.1551 32.2286 20.6316 31.6748 19.9554 31.2373C19.6164 31.018 19.2412 30.8288 18.8578 30.6455C18.4762 30.4631 18.0842 30.2844 17.7211 30.0889L17.7181 30.0879C14.6865 28.3364 11.1125 25.9391 7.97107 23.1484C4.83103 20.359 2.1148 17.1694 0.809937 13.833C0.288343 12.5221 -0.0272087 10.9421 0.00427246 9.41895C0.0350593 7.9303 0.398913 6.48665 1.23767 5.40234L1.20837 5.37598L1.26599 5.30273C2.68689 3.51163 4.14947 2.37671 6.39392 0.489258L6.40369 0.481445C6.81795 0.210994 7.18424 0.0815242 7.4906 0.0800781ZM98.4994 63.2637L98.4974 63.2656C98.4987 63.2647 98.5022 63.2618 98.5062 63.2578L98.5052 63.2568C98.502 63.26 98.5003 63.2629 98.4994 63.2637Z" stroke="black" stroke-opacity="0.1" stroke-width="0.2"/>
<mask id="mask0_9_175" style="mask-type:alpha" maskUnits="userSpaceOnUse" x="0" y="0" width="107" height="73">
<path d="M106.477 61.4836C105.809 60.8106 104.991 60.4998 104.126 60.4485C103.178 60.1799 102.338 59.9513 101.499 59.4534C99.3184 58.3225 96.2026 55.7484 94.0208 54.1347C90.7843 51.8585 87.8382 49.6345 86.3097 46.1935C85.8194 45.089 86.0728 43.8012 86.9465 42.9661C89.9137 40.1301 92.2086 39.802 96.275 40.2682C97.4912 40.4078 98.7126 40.057 99.6655 39.2882C99.6768 39.2791 99.6881 39.2701 99.6994 39.261C99.7024 39.2588 99.9453 39.0611 99.9559 39.0528C100.556 38.5534 101.432 37.8759 101.757 37.5236C101.767 37.5281 101.777 37.5319 101.785 37.5349C102.251 37.0739 102.273 36.6175 102.06 36.0215C102.055 36.0215 102.05 36.023 102.046 36.023C101.853 35.5153 101.459 34.8378 100.879 33.8125C100.094 31.8601 101.356 30.9404 98.9548 28.2116C98.9533 28.2131 98.9472 28.2177 98.9389 28.2244C98.2667 27.3727 97.4753 26.6168 96.6025 26.0011C97.2098 24.4764 97.5395 22.4297 96.4531 22.0849C96.1702 21.9951 95.8601 22.0502 95.6134 22.2154C95.0182 22.613 94.0427 23.5047 93.329 24.4251C93.1109 24.0675 92.8763 23.6918 92.6575 23.2905C91.9672 22.023 90.487 20.1686 89.5666 21.1599C88.8891 21.8895 88.5753 23.4021 88.6734 24.8966C85.7605 26.057 84.8205 27.3357 80.2562 27.9996C75.5387 29.0762 76.1936 29.1154 69.7303 29.215C66.3905 29.3825 63.0559 29.9702 60.4123 30.0517C53.9431 29.8917 37.1811 25.6737 27.5576 28.5934C26.9653 28.7163 26.4621 28.6673 25.879 28.3836C24.8039 27.8329 24.0985 27.2173 22.745 26.2856C17.4723 22.0479 1.61113 15.679 4.97439 7.31234C4.98571 7.31385 4.99703 7.31535 5.0091 7.31686C5.69412 5.73708 7.28824 4.23199 7.99212 2.65674C8.75712 0.767637 8.08266 -0.494528 6.45836 0.566204C4.21015 2.45681 2.75787 3.58393 1.34482 5.36515C1.35387 5.37345 1.36368 5.3825 1.37273 5.3908C-0.350389 7.52886 -0.130849 11.1977 0.903477 13.7967C3.49646 20.4266 11.713 26.5028 17.7681 30.0011C19.2098 30.7774 21.0921 31.2708 21.4029 33.077C21.4633 33.4874 22.5308 38.4078 21.2445 41.7529C20.7488 43.0415 19.5214 44.0834 18.4999 44.9261C15.4965 47.3712 10.8039 46.2101 8.39499 49.6488C6.14527 52.662 4.42215 57.2633 2.4395 60.8144C2.4395 60.8144 2.4395 60.8144 2.4395 60.8159C2.31955 61.0528 2.20035 61.2927 2.08869 61.5334C1.46025 62.7722 0.43422 65.0045 2.18978 65.8812C3.92045 66.6997 5.44818 65.6888 6.33011 64.1686C6.64923 63.6337 6.89744 63.0521 7.08605 62.4606C8.45836 58.5836 10.2773 54.653 15.2475 54.9359C19.6089 55.4112 24.8884 55.9355 29.335 54.2033C28.9902 55.3025 28.4018 56.5692 27.6368 57.5945C24.6138 62.1882 33.1238 68.6009 36.9759 70.1279C36.9759 70.1301 36.9759 70.1324 36.9759 70.1354C38.4667 70.5956 39.8111 70.7246 41.673 70.7865C42.4953 70.8567 43.1472 70.7427 43.6398 70.5119C46.0065 69.4225 44.7277 65.513 41.1464 66.5579C40.6485 66.656 40.0381 66.6183 39.4723 66.4266C37.8111 65.6413 34.1 63.2173 34.7103 61.4798C35.8254 58.3067 40.1272 54.3829 40.7141 53.5892C42.0683 51.7559 42.576 50.8197 42.7722 48.9578C42.9344 47.2648 43.0242 45.8601 42.7722 44.5836C43.8699 44.5903 45.8774 44.7714 47.0529 44.871C49.8254 45.1071 51.7605 45.6594 54.2192 46.8416C56.7782 48.0547 59.7069 49.3191 61.8465 50.3233C61.2226 52.6477 61.0544 55.1177 60.4516 57.4964C59.8171 60.4198 57.9431 65.0324 58.7616 68.5194C58.7511 68.527 58.7398 68.5338 58.7292 68.5413C59.4912 72.0932 62.0661 72.0939 65.4406 72.1784C66.2599 72.1475 67.2151 72.1392 67.8344 71.6232C68.6025 70.951 68.7005 69.2482 67.0415 68.653C66.7081 68.4862 66.2947 68.3738 65.8707 68.3105C65.5033 68.2124 65.1208 68.1211 64.7292 68.0404C63.3388 66.4417 64.9057 63.3395 65.8978 61.2882C68.0253 56.6085 71.1328 53.1486 74.6771 50.9291C80.1732 53.1456 81.8941 54.5934 91.2867 59.5817C92.7858 60.3784 95.6194 62.0042 98.438 63.1848C98.438 63.1856 98.4365 63.1863 98.4357 63.1871C100.507 64.0555 102.13 64.6582 104.001 64.7103C105.806 64.8808 107.456 63.1268 106.478 61.4821L106.477 61.4836Z" fill="#666666"/>
</mask>
<g mask="url(#mask0_9_175)">
<path d="M41.5096 56.1092C42.7818 53.7658 39.7744 58.0344 37.4266 56.7598C35.0788 55.4851 33.2106 53.5765 31.9383 55.9199C30.6661 58.2632 34.0226 58.5899 36.3704 59.8646C38.7182 61.1392 40.2373 58.4525 41.5096 56.1092Z" fill="#FCBF84"/>
<path d="M40.7236 60.4354C41.3396 58.257 39.5579 62.329 36.9873 61.602C34.4166 60.875 32.142 59.5383 31.5259 61.7167C30.9098 63.8951 34.2019 63.6665 36.7726 64.3935C39.3433 65.1205 40.1075 62.6138 40.7236 60.4354Z" fill="#FCBF84"/>
<path d="M71.6166 54.0212C72.8889 51.6779 69.7744 55.0244 67.4266 53.7498C65.0788 52.4751 62.5812 52.1972 61.9383 52.9099C61.0965 54.5303 64.0226 55.5799 66.3704 56.8546C68.7182 58.1292 70.3444 56.3646 71.6166 54.0212Z" fill="#FCBF84"/>
<path d="M71.5096 59.1092C72.7818 56.7658 69.7744 61.0344 67.4266 59.7598C65.0788 58.4851 63.2106 56.5765 61.9383 58.9199C60.6661 61.2632 64.0226 61.5899 66.3704 62.8646C68.7182 64.1392 70.2373 61.4525 71.5096 59.1092Z" fill="#FCBF84"/>
<path d="M70.7236 63.4354C71.3396 61.257 69.5579 65.329 66.9873 64.602C64.4166 63.875 62.142 62.5383 61.5259 64.7167C60.9098 66.8951 64.2019 66.6665 66.7726 67.3935C69.3433 68.1205 70.1075 65.6138 70.7236 63.4354Z" fill="#FCBF84"/>
<path d="M60.7187 29.832C64.4067 29.2547 69.9263 29.0047 74.9922 28.8242C73.9038 29.6407 72.665 30.3512 72.4407 31.3293C72.3781 31.5854 72.4606 31.9205 72.688 32.3348C73.5287 33.8659 73.9598 35.3182 71.4508 36.386C69.1556 37.3612 66.0059 36.6748 64.4067 35.5C61.82 33.608 60.2388 31.6408 60.7187 29.832Z" fill="#FCBF84"/>
<path d="M54.4267 23.899C57.8956 24.7153 61.2045 34.4463 54.8429 38.4607C49.9356 41.5574 50.8946 35.4094 48.1478 34.7023C47.4294 34.5135 46.4608 34.4281 45.2419 34.4463C40.7374 34.5136 36.5275 34.2166 33.9181 31.2143C31.5358 28.4687 34.0318 25.707 37.6521 24.7153C43.4847 23.1074 48.1478 22.4213 54.4267 23.899Z" fill="#FCBF84"/>
</g>
</g>
<defs>
<radialGradient id="paint0_radial_9_175" cx="0" cy="0" r="1" gradientTransform="matrix(-2.55282 17.7869 -26.3516 -3.78219 55.9884 54.3915)" gradientUnits="userSpaceOnUse">
<stop offset="0.552885" stop-color="#F6F4F1"/>
<stop offset="1" stop-color="#FFDCAC"/>
</radialGradient>
<clipPath id="clip0_9_175">
<rect width="106" height="72" fill="white"/>
</clipPath>
</defs>
</svg>
