<svg width="106" height="72" viewBox="0 0 106 72" fill="none" xmlns="http://www.w3.org/2000/svg">
<g clip-path="url(#clip0_9_206)">
<path d="M106.477 61.4836C105.809 60.8106 104.991 60.4998 104.126 60.4485C103.178 60.1799 102.338 59.9513 101.499 59.4534C99.3192 58.3225 96.2034 55.7484 94.0215 54.1347C91.4467 52.324 89.0559 50.5458 87.4157 48.1618C85.882 45.9385 86.5097 42.8453 88.828 41.4572C93.5319 38.3429 96.4471 41.8699 99.6987 39.261C99.6911 39.2671 99.9506 39.0558 99.9552 39.0528C100.555 38.5534 101.432 37.8759 101.757 37.5236C101.767 37.5281 101.776 37.5319 101.785 37.5349C102.25 37.0739 102.272 36.6175 102.059 36.0215C102.055 36.0215 102.049 36.023 102.045 36.023C101.853 35.5153 101.458 34.8378 100.879 33.8125C100.093 31.8601 101.355 30.9404 98.954 28.2116C98.9525 28.2131 98.9465 28.2177 98.9382 28.2244C98.266 27.3727 97.4746 26.6168 96.6017 26.0011C97.209 24.4764 97.5387 22.4297 96.4523 22.0849C96.1694 21.9951 95.8593 22.0502 95.6126 22.2154C95.0174 22.613 94.0419 23.5047 93.3282 24.4251C93.1102 24.0675 92.8756 23.6918 92.6568 23.2905C91.9665 22.023 90.4863 20.1686 89.5659 21.1599C88.8884 21.8895 88.5745 23.4021 88.6726 24.8966C85.925 26.0819 82.865 26.994 80.0925 27.3063C75.283 27.8359 74.1226 28.1588 69.7462 28.269C66.4025 28.3535 62.9525 27.722 60.3399 27.3063C50.7737 25.7846 43.6783 25.3893 33.7349 27.3063C32.8703 27.473 28.3278 28.3535 27.5561 28.5934C26.9638 28.7163 26.4599 28.6673 25.8775 28.3836C24.8024 27.8329 24.097 27.2173 22.7435 26.2856C17.4723 22.0479 1.61113 15.679 4.97439 7.31234C4.98571 7.31385 4.99703 7.31535 5.0091 7.31686C5.69412 5.73708 7.28824 4.23199 7.99212 2.65674C8.75712 0.767637 8.08266 -0.494528 6.45836 0.566204C4.21015 2.45681 2.75863 3.58393 1.34482 5.36515C1.35387 5.37345 1.36368 5.3825 1.37273 5.3908C-0.350389 7.52886 -0.130849 11.1977 0.903477 13.7967C3.49646 20.4266 11.713 26.5028 17.7681 30.0011C19.2098 30.7774 21.0921 31.2708 21.4029 33.077C21.4633 33.4874 21.4565 33.971 21.4029 34.5587C21.1887 36.6779 20.5512 39.1788 20.063 41.3772C19.5251 42.6492 18.6681 43.7763 17.6466 44.619C14.6432 47.0641 10.8031 46.2094 8.39424 49.6481C6.14452 52.6613 4.4214 57.2626 2.43875 60.8137C2.43875 60.8137 2.43875 60.8137 2.43875 60.8152C2.31879 61.0521 2.19959 61.292 2.08794 61.5326C1.45949 62.7707 0.433466 65.0038 2.18903 65.8804C3.9197 66.6982 5.44742 65.688 6.32935 64.1679C6.64848 63.633 6.89669 63.0513 7.0853 62.4598C8.45761 58.5828 10.2765 54.6515 15.2467 54.9351C19.6081 55.4104 24.8876 55.9347 29.3343 54.2026C28.9895 55.301 28.401 56.5685 27.636 57.5937C24.613 62.1867 33.123 68.6002 36.9752 70.1271C36.9752 70.1294 36.9752 70.1317 36.9752 70.1347C38.4659 70.5941 39.8103 70.7239 41.6722 70.7857C42.5896 70.8529 43.2151 70.7427 43.799 70.4289C45.9559 69.2286 44.6296 65.5394 41.1456 66.5572C40.6477 66.6552 40.0374 66.6175 39.4716 66.4259C37.8103 65.6405 34.9563 63.5613 35.6074 61.8382C36.3671 60.0871 37.8835 58.8883 39.1419 57.3214C40.3256 55.9506 41.5048 54.4515 42.401 52.871C45.1449 53.0551 47.7696 53.2573 49.4572 53.378C53.6285 53.676 57.765 55.2331 60.7994 55.8902C60.2177 59.633 57.8956 64.2644 58.7616 68.5187C58.7511 68.5262 58.7398 68.533 58.7292 68.5406C59.4912 72.0924 62.0661 72.0932 65.4406 72.1777C66.2599 72.1467 67.2151 72.1384 67.8344 71.6224C68.6025 70.9502 68.7013 69.2475 67.0423 68.6522C66.7088 68.4855 66.2954 68.3731 65.8714 68.3097C65.504 68.2116 65.1215 68.1203 64.73 68.0396C63.3395 66.441 64.9065 63.3387 65.8986 61.2874C68.0261 56.6077 70.6734 54.321 74.2185 52.1007C81.3539 54.4108 81.9355 55.9694 91.2882 59.5802C92.776 60.398 95.6209 62.0026 98.4395 63.1833C98.4395 63.1841 98.438 63.1848 98.4372 63.1856C100.509 64.0539 102.132 64.6567 104.003 64.7088C105.807 64.8793 107.457 63.1252 106.479 61.4806L106.477 61.4836Z" fill="url(#paint0_radial_9_206)"/>
<path d="M7.4906 0.0800781C7.80267 0.0786717 8.04723 0.211584 8.20447 0.450195C8.35836 0.683845 8.4232 1.00937 8.40369 1.38867C8.38402 1.76965 8.27875 2.21429 8.08435 2.69434L8.08337 2.69727C7.72607 3.49689 7.14396 4.27668 6.57361 5.04492C5.99999 5.81756 5.438 6.57925 5.10095 7.35645L5.07068 7.42578L5.03943 7.4209C4.2491 9.45088 4.60476 11.3611 5.67615 13.1592C6.7626 14.9824 8.58269 16.6864 10.681 18.2676C12.7784 19.848 15.1465 21.3 17.3226 22.624C19.4924 23.9441 21.476 25.1398 22.8002 26.2031C24.1629 27.1412 24.8547 27.7473 25.9213 28.2939L26.1283 28.3857C26.6046 28.5764 27.0355 28.5989 27.5355 28.4951C27.9389 28.3718 29.2644 28.0924 30.5912 27.8242C31.9317 27.5532 33.2838 27.2914 33.7162 27.208C43.6743 25.2882 50.7823 25.6851 60.3558 27.208C62.9722 27.6243 66.4114 28.2531 69.7435 28.1689C74.1143 28.0589 75.266 27.7373 80.0814 27.207L80.6019 27.1416C83.2 26.7842 86.0158 25.9264 88.5687 24.8311C88.5271 24.099 88.5824 23.3643 88.7308 22.7188C88.8837 22.0539 89.1372 21.4744 89.4926 21.0918C89.7465 20.8183 90.0467 20.7373 90.3588 20.7979C90.6629 20.857 90.9719 21.049 91.2631 21.3027C91.8467 21.8115 92.3963 22.603 92.7445 23.2422C92.9374 23.5961 93.1425 23.9304 93.3392 24.252C94.049 23.3648 94.9762 22.5197 95.557 22.1318L95.6615 22.0703C95.9118 21.9389 96.2077 21.9019 96.4828 21.9893C96.7872 22.0859 96.9902 22.3032 97.1117 22.5889C97.2318 22.8715 97.2736 23.2234 97.2621 23.6035C97.2398 24.3406 97.0144 25.2122 96.722 25.9648C97.5484 26.5566 98.3002 27.273 98.9467 28.0762L98.9584 28.0654L99.0287 28.1455C100.241 29.5231 100.536 30.4542 100.621 31.293C100.643 31.5003 100.651 31.701 100.658 31.8984C100.664 32.0967 100.669 32.291 100.684 32.4902C100.713 32.8854 100.779 33.2973 100.969 33.7715C101.519 34.7448 101.907 35.4141 102.111 35.9219H102.129L102.154 35.9883C102.263 36.2936 102.315 36.5746 102.275 36.8438C102.234 37.1154 102.099 37.3632 101.855 37.6055L101.81 37.6504L101.782 37.6396C101.607 37.8181 101.327 38.0597 101.023 38.3105C100.685 38.5888 100.32 38.8795 100.019 39.1299L100.011 39.1367L100.01 39.1357C100.009 39.137 100.007 39.139 100.005 39.1406C99.9979 39.1466 99.9874 39.155 99.975 39.165C99.9502 39.1851 99.9174 39.2121 99.8851 39.2383C99.8532 39.2643 99.8214 39.2897 99.7982 39.3086C99.7868 39.3179 99.7772 39.3259 99.7709 39.3311C99.7677 39.3337 99.7645 39.3357 99.7631 39.3369L99.764 39.3359C99.7646 39.3354 99.7667 39.3342 99.7679 39.333C99.7722 39.3285 99.7704 39.2741 99.7377 39.2285C99.7158 39.2464 99.7008 39.2589 99.6986 39.2607L99.7611 39.3389L99.7582 39.3418C99.7576 39.3422 99.7549 39.3431 99.7523 39.3447C98.0932 40.6709 96.5122 40.435 94.7982 40.2695C93.0827 40.1039 91.2063 40.003 88.8832 41.541L88.8793 41.543C86.6119 42.9006 85.9965 45.9284 87.4984 48.1055C88.9234 50.1766 90.9209 51.7897 93.1234 53.374L94.0795 54.0527L94.0814 54.0547C94.6276 54.4587 95.232 54.9226 95.8646 55.4082C96.4976 55.8941 97.1593 56.4018 97.8207 56.8945C99.1446 57.8809 100.463 58.8029 101.545 59.3643L101.55 59.3672C102.372 59.8556 103.197 60.0816 104.143 60.3496C104.99 60.402 105.795 60.6993 106.464 61.333L106.489 61.3008L106.566 61.4297C107.079 62.2932 106.9 63.1884 106.362 63.8389C105.826 64.4862 104.93 64.897 103.994 64.8086V64.8076C102.105 64.7538 100.468 64.1447 98.3988 63.2773L98.2611 63.2207L98.264 63.2168C95.4878 62.0408 92.7079 60.4754 91.2445 59.6709C86.5682 57.8652 84.0826 56.5711 81.8763 55.4414C79.6812 54.3174 77.764 53.3563 74.2318 52.21C70.7177 54.4155 68.0988 56.6898 65.9896 61.3291L65.9886 61.3311C65.4913 62.3594 64.856 63.6391 64.517 64.8604C64.1802 66.0738 64.1474 67.1912 64.7855 67.9492C65.1662 68.0284 65.5383 68.1165 65.8959 68.2119C66.3188 68.2759 66.7352 68.3889 67.0765 68.5576L67.2328 68.6191C67.9898 68.9429 68.3611 69.5106 68.4476 70.0938C68.5388 70.7085 68.3122 71.3369 67.9008 71.6973L67.8988 71.6992C67.5699 71.9732 67.156 72.1088 66.7289 72.1807C66.3025 72.2524 65.8513 72.262 65.4447 72.2773L65.4379 72.2783V72.2773C63.7579 72.2353 62.2496 72.2155 61.0687 71.7529C60.4745 71.5202 59.96 71.1747 59.5463 70.6582C59.133 70.1424 58.8241 69.4606 58.6312 68.5615L58.6176 68.4971L58.6508 68.4727C58.2338 66.3428 58.6007 64.1271 59.141 61.9883C59.4138 60.9081 59.7317 59.8418 60.017 58.8174C60.2934 57.8245 60.5384 56.8686 60.6849 55.9658C59.1853 55.6345 57.4184 55.0923 55.5297 54.5957C53.5969 54.0876 51.5267 53.6259 49.4506 53.4775C47.7744 53.3577 45.1763 53.1576 42.4545 52.9746C41.5581 54.542 40.3898 56.0269 39.2191 57.3828L39.2201 57.3838C38.5896 58.1689 37.8872 58.8698 37.2621 59.5771C36.6333 60.2888 36.0731 61.0171 35.6996 61.8779L35.6986 61.877C35.5495 62.2751 35.6004 62.6992 35.7943 63.1309C35.9894 63.5649 36.3275 64.0013 36.7426 64.4131C37.5697 65.2339 38.6836 65.9413 39.5052 66.3311C40.0541 66.5166 40.6446 66.5527 41.1234 66.459C42.9015 65.9419 44.1541 66.6229 44.6761 67.6143C45.1949 68.5999 44.9809 69.8861 43.848 70.5166H43.8461C43.2408 70.8419 42.5952 70.9537 41.6654 70.8857V70.8848C39.8022 70.8228 38.4481 70.6935 36.9457 70.2305L36.8754 70.208V70.1934C34.9314 69.4064 31.871 67.4317 29.6547 65.0791C28.5343 63.8898 27.6234 62.5974 27.184 61.3076C26.7435 60.0145 26.7759 58.7186 27.5521 57.5391L27.556 57.5342C28.2677 56.5803 28.8236 55.4112 29.1722 54.3691C24.7426 56.0202 19.5326 55.5019 15.2406 55.0342C12.7886 54.8944 11.1205 55.793 9.89197 57.2031C8.65904 58.6185 7.86584 60.5522 7.18005 62.4893C6.98959 63.0866 6.73901 63.6763 6.41541 64.2188L6.41443 64.2178C5.9665 64.9897 5.35179 65.6399 4.62048 65.9912C3.88561 66.3441 3.03906 66.3928 2.14587 65.9707L2.14392 65.9697C1.68493 65.7404 1.40188 65.4189 1.25134 65.043C1.10183 64.6694 1.0866 64.2498 1.14587 63.8281C1.26409 62.9871 1.68457 62.1056 1.99841 61.4873C2.10707 61.2533 2.22316 61.0205 2.33923 60.791V60.7881L2.35095 60.7646C3.34043 58.9924 4.26445 56.9597 5.22595 54.9854C6.18588 53.0143 7.18282 51.1028 8.31384 49.5879C9.53739 47.8429 11.1257 47.1893 12.767 46.666C14.4134 46.1411 16.1002 45.7485 17.5834 44.541C18.5904 43.7101 19.4356 42.5991 19.9672 41.3457C20.4561 39.1445 21.0899 36.6571 21.3031 34.5488C21.3562 33.9657 21.3624 33.4921 21.3041 33.0938C21.1551 32.2286 20.6316 31.6748 19.9554 31.2373C19.6164 31.018 19.2412 30.8288 18.8578 30.6455C18.4762 30.4631 18.0842 30.2844 17.7211 30.0889L17.7181 30.0879C14.6865 28.3364 11.1125 25.9391 7.97107 23.1484C4.83103 20.359 2.1148 17.1694 0.809937 13.833C0.288343 12.5221 -0.0272087 10.9421 0.00427246 9.41895C0.0350593 7.9303 0.398913 6.48665 1.23767 5.40234L1.20837 5.37598L1.26697 5.30273C2.68851 3.51187 4.14961 2.37659 6.39392 0.489258L6.40369 0.481445C6.81795 0.210994 7.18424 0.0815242 7.4906 0.0800781Z" stroke="black" stroke-opacity="0.1" stroke-width="0.2"/>
<mask id="mask0_9_206" style="mask-type:alpha" maskUnits="userSpaceOnUse" x="0" y="0" width="107" height="73">
<path d="M106.477 61.4836C105.809 60.8106 104.991 60.4998 104.126 60.4485C103.178 60.1799 102.338 59.9513 101.499 59.4534C99.3192 58.3225 96.2034 55.7484 94.0215 54.1347C91.4467 52.324 89.0559 50.5458 87.4157 48.1618C85.882 45.9385 86.5097 42.8453 88.828 41.4572C93.5319 38.3429 96.4471 41.8699 99.6987 39.261C99.6911 39.2671 99.9506 39.0558 99.9552 39.0528C100.555 38.5534 101.432 37.8759 101.757 37.5236C101.767 37.5281 101.776 37.5319 101.785 37.5349C102.25 37.0739 102.272 36.6175 102.059 36.0215C102.055 36.0215 102.049 36.023 102.045 36.023C101.853 35.5153 101.458 34.8378 100.879 33.8125C100.093 31.8601 101.355 30.9404 98.954 28.2116C98.9525 28.2131 98.9465 28.2177 98.9382 28.2244C98.266 27.3727 97.4746 26.6168 96.6017 26.0011C97.209 24.4764 97.5387 22.4297 96.4523 22.0849C96.1694 21.9951 95.8593 22.0502 95.6126 22.2154C95.0174 22.613 94.0419 23.5047 93.3282 24.4251C93.1102 24.0675 92.8756 23.6918 92.6568 23.2905C91.9665 22.023 90.4863 20.1686 89.5659 21.1599C88.8884 21.8895 88.5745 23.4021 88.6726 24.8966C85.925 26.0819 82.865 26.994 80.0925 27.3063C75.283 27.8359 74.1226 28.1588 69.7462 28.269C66.4025 28.3535 62.9525 27.722 60.3399 27.3063C50.7737 25.7846 43.6783 25.3893 33.7349 27.3063C32.8703 27.473 28.3278 28.3535 27.5561 28.5934C26.9638 28.7163 26.4599 28.6673 25.8775 28.3836C24.8024 27.8329 24.097 27.2173 22.7435 26.2856C17.4723 22.0479 1.61113 15.679 4.97439 7.31234C4.98571 7.31385 4.99703 7.31535 5.0091 7.31686C5.69412 5.73708 7.28824 4.23199 7.99212 2.65674C8.75712 0.767637 8.08266 -0.494528 6.45836 0.566204C4.21015 2.45681 2.75863 3.58393 1.34482 5.36515C1.35387 5.37345 1.36368 5.3825 1.37273 5.3908C-0.350389 7.52886 -0.130849 11.1977 0.903477 13.7967C3.49646 20.4266 11.713 26.5028 17.7681 30.0011C19.2098 30.7774 21.0921 31.2708 21.4029 33.077C21.4633 33.4874 21.4565 33.971 21.4029 34.5587C21.1887 36.6779 20.5512 39.1788 20.063 41.3772C19.5251 42.6492 18.6681 43.7763 17.6466 44.619C14.6432 47.0641 10.8031 46.2094 8.39424 49.6481C6.14452 52.6613 4.4214 57.2626 2.43875 60.8137C2.43875 60.8137 2.43875 60.8137 2.43875 60.8152C2.31879 61.0521 2.19959 61.292 2.08794 61.5326C1.45949 62.7707 0.433466 65.0038 2.18903 65.8804C3.9197 66.6982 5.44742 65.688 6.32935 64.1679C6.64848 63.633 6.89669 63.0513 7.0853 62.4598C8.45761 58.5828 10.2765 54.6515 15.2467 54.9351C19.6081 55.4104 24.8876 55.9347 29.3343 54.2026C28.9895 55.301 28.401 56.5685 27.636 57.5937C24.613 62.1867 33.123 68.6002 36.9752 70.1271C36.9752 70.1294 36.9752 70.1317 36.9752 70.1347C38.4659 70.5941 39.8103 70.7239 41.6722 70.7857C42.5896 70.8529 43.2151 70.7427 43.799 70.4289C45.9559 69.2286 44.6296 65.5394 41.1456 66.5572C40.6477 66.6552 40.0374 66.6175 39.4716 66.4259C37.8103 65.6405 34.9563 63.5613 35.6074 61.8382C36.3671 60.0871 37.8835 58.8883 39.1419 57.3214C40.3256 55.9506 41.5048 54.4515 42.401 52.871C45.1449 53.0551 47.7696 53.2573 49.4572 53.378C53.6285 53.676 57.765 55.2331 60.7994 55.8902C60.2177 59.633 57.8956 64.2644 58.7616 68.5187C58.7511 68.5262 58.7398 68.533 58.7292 68.5406C59.4912 72.0924 62.0661 72.0932 65.4406 72.1777C66.2599 72.1467 67.2151 72.1384 67.8344 71.6224C68.6025 70.9502 68.7013 69.2475 67.0423 68.6522C66.7088 68.4855 66.2954 68.3731 65.8714 68.3097C65.504 68.2116 65.1215 68.1203 64.73 68.0396C63.3395 66.441 64.9065 63.3387 65.8986 61.2874C68.0261 56.6077 70.6734 54.321 74.2185 52.1007C81.3539 54.4108 81.9355 55.9694 91.2882 59.5802C92.776 60.398 95.6209 62.0026 98.4395 63.1833C98.4395 63.1841 98.438 63.1848 98.4372 63.1856C100.509 64.0539 102.132 64.6567 104.003 64.7088C105.807 64.8793 107.457 63.1252 106.479 61.4806L106.477 61.4836Z" fill="#666666"/>
</mask>
<g mask="url(#mask0_9_206)">
<path d="M41.5096 56.1092C42.7818 53.7658 39.7744 58.0344 37.4266 56.7598C35.0788 55.4851 33.2106 53.5765 31.9383 55.9199C30.6661 58.2632 34.0226 58.5899 36.3704 59.8646C38.7182 61.1392 40.2373 58.4525 41.5096 56.1092Z" fill="#FCBF84"/>
<path d="M40.7236 60.4354C41.3396 58.257 39.5579 62.329 36.9873 61.602C34.4166 60.875 32.142 59.5383 31.5259 61.7167C30.9098 63.8951 34.2019 63.6665 36.7726 64.3935C39.3433 65.1205 40.1075 62.6138 40.7236 60.4354Z" fill="#FCBF84"/>
<path d="M71.6166 54.0212C72.8889 51.6779 69.7744 55.0244 67.4266 53.7498C65.0788 52.4751 62.5812 52.1972 61.9383 52.9099C61.0965 54.5303 64.0226 55.5799 66.3704 56.8546C68.7182 58.1292 70.3444 56.3646 71.6166 54.0212Z" fill="#FCBF84"/>
<path d="M71.5096 59.1092C72.7818 56.7658 69.7744 61.0344 67.4266 59.7598C65.0788 58.4851 63.2106 56.5765 61.9383 58.9199C60.6661 61.2632 64.0226 61.5899 66.3704 62.8646C68.7182 64.1392 70.2373 61.4525 71.5096 59.1092Z" fill="#FCBF84"/>
<path d="M70.7236 63.4354C71.3396 61.257 69.5579 65.329 66.9873 64.602C64.4166 63.875 62.142 62.5383 61.5259 64.7167C60.9098 66.8951 64.2019 66.6665 66.7726 67.3935C69.3433 68.1205 70.1075 65.6138 70.7236 63.4354Z" fill="#FCBF84"/>
<path d="M59.9378 26.9173C63.6257 26.34 69.5885 28.0414 74.6544 27.8609C73.566 28.6774 72.665 30.3511 72.4407 31.3292C72.3781 31.5853 72.4606 31.9204 72.688 32.3348C73.5287 33.8658 73.9598 35.3182 71.4508 36.3859C69.1556 37.3611 66.0059 36.6747 64.4066 35.4999C61.82 33.6079 59.4578 28.7261 59.9378 26.9173Z" fill="#FCBF84"/>
<path d="M54.4267 23.899C57.8956 24.7153 61.2045 34.4463 54.8429 38.4607C49.9356 41.5574 50.8946 35.4094 48.1478 34.7023C47.4294 34.5135 46.4608 34.4281 45.2419 34.4463C40.7374 34.5136 36.5275 34.2166 33.9181 31.2143C31.5358 28.4687 34.0318 25.707 37.6521 24.7153C43.4847 23.1074 48.1478 22.4213 54.4267 23.899Z" fill="#FCBF84"/>
</g>
</g>
<defs>
<radialGradient id="paint0_radial_9_206" cx="0" cy="0" r="1" gradientTransform="matrix(-2.55286 17.7867 -26.352 -3.78215 55.9892 54.391)" gradientUnits="userSpaceOnUse">
<stop offset="0.552885" stop-color="#F6F4F1"/>
<stop offset="1" stop-color="#FFDCAC"/>
</radialGradient>
<clipPath id="clip0_9_206">
<rect width="106" height="72" fill="white"/>
</clipPath>
</defs>
</svg>
