<svg width="24" height="24" viewBox="0 0 24 24" fill="none" xmlns="http://www.w3.org/2000/svg">
<path d="M5.63603 5.63607C8.3697 2.9024 12.8019 2.9024 15.5355 5.63607C18.1503 8.25083 18.2626 12.4183 15.8753 15.1682L18.1872 17.4801C18.4801 17.773 18.4801 18.2479 18.1872 18.5408C17.8943 18.8337 17.4194 18.8337 17.1265 18.5408L14.7766 16.1909C12.0348 18.2463 8.12954 18.0291 5.63603 15.5356C2.90236 12.8019 2.90236 8.36974 5.63603 5.63607ZM6.69669 6.69673C4.5488 8.84461 4.5488 12.327 6.69669 14.4749C8.84457 16.6228 12.327 16.6228 14.4749 14.4749C16.6227 12.327 16.6227 8.84461 14.4749 6.69673C12.327 4.54884 8.84457 4.54884 6.69669 6.69673Z" fill="#AFB4A6"/>
</svg>
