<svg width="48" height="48" viewBox="0 0 48 48" fill="none" xmlns="http://www.w3.org/2000/svg">
<path d="M24.5 15H19.8C18.1198 15 17.2798 15 16.638 15.327C16.0735 15.6146 15.6146 16.0735 15.327 16.638C15 17.2798 15 18.1198 15 19.8V28.2C15 29.8802 15 30.7202 15.327 31.362C15.6146 31.9265 16.0735 32.3854 16.638 32.673C17.2798 33 18.1198 33 19.8 33H29C29.93 33 30.395 33 30.7765 32.8978C31.8117 32.6204 32.6204 31.8117 32.8978 30.7765C33 30.395 33 29.93 33 29M22.5 20.5C22.5 21.6046 21.6046 22.5 20.5 22.5C19.3954 22.5 18.5 21.6046 18.5 20.5C18.5 19.3954 19.3954 18.5 20.5 18.5C21.6046 18.5 22.5 19.3954 22.5 20.5ZM26.99 23.9181L18.5311 31.608C18.0554 32.0406 17.8175 32.2568 17.7964 32.4442C17.7782 32.6066 17.8405 32.7676 17.9632 32.8755C18.1048 33 18.4263 33 19.0693 33H28.456C29.8951 33 30.6147 33 31.1799 32.7582C31.8894 32.4547 32.4547 31.8894 32.7582 31.1799C33 30.6147 33 29.8951 33 28.456C33 27.9717 33 27.7296 32.9471 27.5042C32.8805 27.2208 32.753 26.9554 32.5733 26.7264C32.4303 26.5442 32.2412 26.3929 31.8631 26.0905L29.0658 23.8527C28.6874 23.5499 28.4982 23.3985 28.2898 23.3451C28.1061 23.298 27.9129 23.3041 27.7325 23.3627C27.5279 23.4291 27.3486 23.5921 26.99 23.9181Z" stroke="black" stroke-width="2" stroke-linecap="round" stroke-linejoin="round"/>
<path d="M34 17L31 20M31 20L28 17M31 20L31 14" stroke="black" stroke-width="2" stroke-linecap="round" stroke-linejoin="round"/>
</svg>
