<svg preserveAspectRatio="none" width="100%" height="100%" overflow="visible" style="display: block;" viewBox="0 0 343 72.1188" fill="none" xmlns="http://www.w3.org/2000/svg">
<g id="PP_BTN_Container_100">
<g id="Paw">
<path id="Vector" d="M295.101 63.0903C293.56 61.7065 292.539 60.1052 292.038 58.2854C291.696 57.0457 291.824 56.0234 291.828 54.6285C291.83 53.6148 291.541 52.1528 290.65 51.569C290.279 51.3259 289.791 51.365 289.463 51.663C288.922 52.1601 288.773 52.7097 288.517 53.3729C287.303 56.5021 287.035 59.5349 287.544 62.8973L282.715 62.8973C281.717 61.4024 281.106 59.795 280.883 58.0753C280.713 56.7782 281.087 55.4921 281.219 54.2694C281.376 52.8123 281.038 51.5861 280.205 50.5894C278.799 48.9112 277.207 50.6102 276.955 52.1174C276.582 54.3598 276.045 56.5754 275.342 58.7629C275.175 59.2771 275.114 59.966 275.157 60.8295C269.475 57.8273 266.158 52.4178 266.225 45.9237C266.254 43.0888 266.247 37.2262 266.204 28.3381C266.188 25.1466 266.334 22.9042 266.64 21.6107C267.381 18.4791 269.058 15.7871 271.67 13.5325C271.513 16.6189 272.419 19.5331 273.836 22.2715C274.713 23.9729 276.36 24.6153 277.489 22.6281C278.722 20.4541 278.43 18.1041 277.925 15.6894C277.788 15.0372 277.729 14.4925 277.749 14.0552C277.816 12.3917 278.561 11.1788 279.079 9.64722C280.614 9.20263 282.229 8.98156 283.922 8.98401C283.171 10.6671 283.355 12.5761 283.813 14.2738C284.068 15.2204 284.523 17.585 285.175 21.3677C285.458 23.0129 286.371 26.9592 288.597 26.5732C290.12 26.3106 290.889 23.6737 290.988 22.3973C291.034 21.8171 291.005 20.5041 290.897 18.4608C290.72 15.0592 291.694 11.886 293.82 8.94126C295.424 8.96324 297.041 8.87897 298.671 8.68965C302.167 8.28049 305.332 6.94184 308.012 4.69449C309.801 3.19462 311.727 1.66911 314.37 0.757952C319.599 -1.04848 325.354 0.392757 328.606 4.88136C330.236 7.12994 330.848 9.82921 330.445 12.9804C330.402 13.3212 330.642 13.6326 330.984 13.6766C330.993 13.6766 331.001 13.679 331.009 13.679C334.101 13.9343 336.755 15.0641 338.973 17.0696C344.632 22.1848 344.301 30.9055 338.14 35.4674C337.58 35.8827 337.755 36.3089 338.263 36.7095C341.262 39.0607 343.033 42.4305 342.975 46.2999C342.89 51.8792 339.044 56.143 333.929 57.8713C333.185 58.1229 332.272 58.2756 331.191 58.3306C330.663 58.3562 330.432 58.6823 330.501 59.3101C330.703 61.1471 330.569 62.7544 330.098 64.1297C327.102 72.8749 316.741 74.1048 310.08 68.9469C308.538 67.7524 307.365 66.8632 306.564 66.2781C304.633 64.8699 302.421 63.9355 299.929 63.4751C298.404 63.1941 296.794 63.0671 295.101 63.0928L295.101 63.0903ZM335.495 47.7167C336.169 44.8892 333.888 41.9224 330.401 41.0919C326.913 40.2613 323.54 41.8797 322.866 44.7084C322.192 47.5359 324.473 50.5027 327.96 51.3332C331.447 52.1638 334.821 50.5454 335.495 47.7167ZM335.402 24.117C334.606 21.3029 331.159 19.8141 327.702 20.7924C324.247 21.7707 322.09 24.845 322.887 27.659C323.683 30.4731 327.13 31.962 330.586 30.9837C334.042 30.0053 336.198 26.9311 335.402 24.117ZM323.177 62.239C324.138 59.5104 322.143 56.3214 318.719 55.1171C315.297 53.9116 311.743 55.1464 310.783 57.875C309.821 60.6036 311.817 63.7926 315.239 64.9969C318.662 66.2024 322.217 64.9676 323.177 62.239ZM323.045 9.49577C321.963 6.80505 318.361 5.71801 314.999 7.07009C311.636 8.42217 309.788 11.6992 310.869 14.3899C311.951 17.0806 315.553 18.1676 318.916 16.8156C322.278 15.4635 324.126 12.1865 323.045 9.49577ZM299.883 36.0439C299.877 37.7892 299.272 38.8054 298.442 40.7694C297.086 43.9756 298.059 47.2281 301.014 48.9613C304.597 51.0633 308.738 50.0837 311.004 46.6614C311.57 45.8052 312.12 44.0489 313.219 43.2623C315.829 41.3923 318.194 39.3575 318.2 36.0866C318.209 32.8133 315.853 30.7675 313.252 28.8853C312.157 28.0939 311.616 26.3338 311.055 25.474C308.804 22.0394 304.668 21.0428 301.074 23.1301C298.113 24.8486 297.125 28.0963 298.464 31.3073C299.284 33.2738 299.887 34.2973 299.884 36.0427L299.883 36.0439Z" fill="#F8620C"/>
<path id="Vector_2" d="M327.96 51.3333C331.448 52.1642 334.821 50.545 335.495 47.7168C336.169 44.8887 333.888 41.9224 330.4 41.0915C326.913 40.2607 323.539 41.8798 322.865 44.708C322.192 47.5362 324.473 50.5024 327.96 51.3333Z" fill="#FEA99C"/>
<path id="Vector_3" d="M322.889 27.6587C323.685 30.4731 327.132 31.9619 330.588 30.984C334.043 30.0062 336.199 26.932 335.403 24.1176C334.606 21.3033 331.159 19.8145 327.704 20.7923C324.248 21.7702 322.092 24.8444 322.889 27.6587Z" fill="#FEA99C"/>
<path id="Vector_4" d="M315.241 64.9964C318.663 66.2016 322.216 64.967 323.177 62.2387C324.138 59.5105 322.142 56.3217 318.72 55.1165C315.298 53.9113 311.744 55.146 310.783 57.8742C309.823 60.6025 311.818 63.7912 315.241 64.9964Z" fill="#FEA99C"/>
<path id="Vector_5" d="M310.87 14.3913C311.952 17.0825 315.554 18.1685 318.917 16.8169C322.279 15.4653 324.127 12.188 323.046 9.49669C321.964 6.80542 318.361 5.71941 314.999 7.071C311.637 8.4226 309.788 11.7 310.87 14.3913Z" fill="#FEA99C"/>
<path id="Vector_6" d="M299.883 36.0441C299.886 34.2987 299.283 33.2764 298.463 31.3087C297.124 28.0965 298.112 24.85 301.073 23.1315C304.667 21.0442 308.803 22.0408 311.054 25.4754C311.615 26.3352 312.156 28.094 313.251 28.8867C315.853 30.7689 318.208 32.8147 318.199 36.088C318.193 39.3589 315.828 41.3925 313.218 43.2637C312.119 44.0503 311.569 45.8066 311.003 46.6628C308.737 50.0852 304.596 51.0647 301.013 48.9627C298.058 47.2295 297.085 43.977 298.441 40.7708C299.271 38.8068 299.876 37.7894 299.882 36.0453L299.883 36.0441Z" fill="#FEA99C"/>
</g>
<path id="Bar" d="M0 30.6796C0 18.5536 9.83598 8.72671 21.962 8.73789L296.499 8.99085L297.26 63.1325L21.9741 63.5395C9.8434 63.5574 0 53.7285 0 41.5978V30.6796Z" fill="#F8620C"/>
</g>
</svg>
