<svg preserveAspectRatio="none" width="100%" height="100%" overflow="visible" style="display: block;" viewBox="0 0 29.5058 22.6896" fill="none" xmlns="http://www.w3.org/2000/svg">
<g id="Group 7">
<path id="Vector 2" d="M3.91705 1.0045L11.5434 3.3713L5.24188 7.93992C4.37678 6.4569 3.38242 4.06901 2.79118 2.06919C2.58843 1.38343 3.23408 0.792545 3.91705 1.0045Z" fill="var(--fill-0, #D9D9D9)"/>
<path id="Vector 7" d="M7.4541 6.04947C5.18555 4.9152 3.56815 2.53112 3.04302 1.48086C2.91699 2.74117 4.5659 6.41706 5.4061 8.09747L7.4541 6.04947Z" fill="var(--fill-0, white)"/>
<path id="Vector 4 (Stroke)" d="M3.28745 0.159988C3.44455 0.172322 3.56814 0.226278 3.6512 0.273738C3.68146 0.267456 3.71149 0.262159 3.7412 0.258113L3.81495 0.248113C3.98375 0.225125 4.16167 0.248491 4.32745 0.326863L4.35995 0.341863L4.39245 0.357488C4.42839 0.374483 4.46267 0.394137 4.49683 0.413738C4.57201 0.413731 4.65067 0.424091 4.73183 0.445613C4.89807 0.442233 5.05054 0.48792 5.1787 0.565613C5.37681 0.522167 5.60125 0.54855 5.7962 0.671238L5.87933 0.731863L5.90933 0.755613L5.9262 0.769363L5.94183 0.779363L5.94995 0.784363C6.02055 0.780929 6.09733 0.786493 6.17808 0.805613C6.26384 0.82594 6.34056 0.858316 6.40745 0.898113C6.42647 0.896869 6.44576 0.894309 6.46558 0.894363H6.53995C6.68654 0.894809 6.81209 0.933535 6.91745 0.989363C7.10564 1.00653 7.25994 1.08469 7.3737 1.18374C7.44289 1.19633 7.50598 1.21724 7.5637 1.24311C7.61308 1.23769 7.66559 1.23537 7.7212 1.23999C7.88804 1.25385 8.01816 1.31052 8.11933 1.38249C8.21727 1.3914 8.32263 1.418 8.43058 1.47624C8.50079 1.51413 8.55938 1.55844 8.60808 1.60499C8.65895 1.59718 8.71442 1.59437 8.7737 1.59749C8.96846 1.60775 9.12484 1.68463 9.2412 1.77999C9.32299 1.77755 9.41314 1.78638 9.5087 1.81686C9.63913 1.85849 9.73835 1.92594 9.8137 1.99686C9.9528 2.0054 10.0817 2.04943 10.1931 2.11749C10.2502 2.10578 10.3138 2.09897 10.3831 2.10124C10.6461 2.10988 10.8239 2.22377 10.9406 2.34936L11.0325 2.37686L11.0662 2.38874L11.0993 2.40061C11.1204 2.40811 11.1404 2.41695 11.16 2.42561C11.2775 2.40651 11.4166 2.40915 11.5681 2.46436C11.6947 2.51054 11.7907 2.57981 11.8637 2.65249C12.2237 2.81236 12.4152 3.21953 12.2956 3.60499C12.1891 3.94782 11.8699 4.16495 11.5281 4.15811C11.3997 4.17707 11.2449 4.17102 11.0806 4.09936C10.9181 4.11589 10.7403 4.08793 10.5762 3.99374C10.5553 3.98171 10.5357 3.96863 10.5168 3.95561C10.3995 3.94904 10.2753 3.91898 10.1537 3.84999C10.0792 3.8509 9.99867 3.8426 9.91495 3.81811C9.88908 3.81054 9.86443 3.80142 9.84058 3.79186C9.70195 3.78303 9.55366 3.73974 9.41433 3.63874C9.41193 3.637 9.40982 3.63487 9.40745 3.63311C9.32508 3.63833 9.23384 3.63194 9.13745 3.60499C9.06779 3.58551 9.00572 3.55806 8.95058 3.52624C8.82831 3.50949 8.70599 3.46484 8.59558 3.38749C8.58844 3.38248 8.58178 3.37698 8.57495 3.37186C8.50169 3.37797 8.42072 3.37571 8.33433 3.35686C8.16977 3.32096 8.04148 3.23927 7.94745 3.14999C7.83699 3.11976 7.74618 3.07143 7.67183 3.01374L7.64808 3.00874L7.6137 3.00186C7.57031 2.99262 7.52984 2.97968 7.49183 2.96561C7.40636 2.97 7.31255 2.9636 7.21495 2.93436C7.11914 2.90566 7.03803 2.86061 6.96933 2.81061C6.93171 2.80736 6.89284 2.80264 6.85308 2.79374L6.81808 2.78561L6.7837 2.77811C6.74303 2.769 6.70516 2.7564 6.66933 2.74311C6.61008 2.7451 6.54627 2.74146 6.4787 2.72749C6.40573 2.71238 6.34083 2.68808 6.28308 2.65936C6.17416 2.67131 6.04871 2.66446 5.91558 2.61686L5.88245 2.60499L5.8487 2.59249C5.67377 2.52987 5.55359 2.42264 5.47495 2.32374C5.41481 2.30278 5.35811 2.27597 5.30495 2.24499C5.29834 2.24626 5.29171 2.24886 5.28495 2.24999C5.16059 2.27076 5.03886 2.26082 4.92558 2.22874C4.79417 2.23622 4.64402 2.21392 4.49058 2.12999C4.42757 2.0955 4.37463 2.05534 4.32933 2.01374C4.19192 2.0102 4.04674 1.9759 3.9087 1.89499L3.87745 1.87624L3.8462 1.85811C3.8422 1.85576 3.83833 1.85297 3.83433 1.85061C3.76567 1.8634 3.69228 1.86902 3.61495 1.86561C3.60516 1.87634 3.59496 1.88631 3.58495 1.89624C3.65418 1.96639 3.72164 2.05655 3.7687 2.17186C3.82363 2.30657 3.83725 2.4407 3.82745 2.56124L3.85933 2.63686L3.87245 2.66936L3.88558 2.70249C3.92339 2.79887 3.93899 2.89124 3.94245 2.97686C3.97849 3.05227 4.00473 3.13858 4.01683 3.23686C4.02758 3.26194 4.0368 3.28744 4.04558 3.31311C4.15322 3.40003 4.26467 3.53331 4.31745 3.72999C4.33935 3.81161 4.34548 3.88847 4.3437 3.95874C4.3864 4.00831 4.42699 4.06482 4.46058 4.13061L4.49808 4.21499L4.5112 4.24811L4.5162 4.26124L4.52245 4.27249L4.53995 4.30311C4.65543 4.50808 4.65942 4.71051 4.63058 4.86374C4.65028 4.87835 4.67033 4.89425 4.68995 4.91186C4.8481 5.05383 4.9495 5.25691 4.9587 5.48186C4.95898 5.48875 4.95797 5.49572 4.95808 5.50249C4.96557 5.51992 4.97182 5.53774 4.97808 5.55561C5.0352 5.60553 5.0915 5.66717 5.13933 5.74561C5.23614 5.90439 5.2618 6.06171 5.25745 6.19561C5.30397 6.24983 5.34698 6.31329 5.3812 6.38936L5.41683 6.48186L5.42808 6.51624L5.4387 6.54999C5.4618 6.62123 5.47264 6.69062 5.47808 6.75624L5.51308 6.78561L5.56745 6.83624C5.58571 6.85328 5.60429 6.87054 5.62245 6.88749L5.64933 6.91311L5.67683 6.93811C5.79108 7.04475 5.85985 7.16754 5.89808 7.28936C5.91055 7.30401 5.923 7.31931 5.93495 7.33561C6.06388 7.51154 6.10346 7.71244 6.08745 7.88686L6.08433 7.91874L6.08183 7.94999C6.07687 8.00385 6.06363 8.0968 6.02058 8.20186C5.97731 8.30741 5.88057 8.47937 5.67808 8.59749L5.66495 8.60499L5.1812 8.88749L4.90558 8.65124C4.81694 8.60937 4.73641 8.55095 4.66808 8.47811C4.55945 8.41998 4.43721 8.32439 4.34745 8.16749C4.28209 8.05318 4.25321 7.94027 4.24433 7.83936C4.22129 7.81911 4.1977 7.79754 4.17558 7.77374L4.12558 7.71999C4.00075 7.58565 3.92538 7.42282 3.89808 7.25436C3.87819 7.23735 3.85737 7.22006 3.83808 7.19999C3.62752 6.98083 3.59417 6.72532 3.61745 6.53249C3.58264 6.48343 3.55207 6.42756 3.52683 6.36436C3.39464 6.26217 3.27181 6.10208 3.23495 5.85186C3.22773 5.80275 3.22566 5.7558 3.22683 5.71186C3.16355 5.63542 3.11239 5.54737 3.07808 5.44936C3.0456 5.40742 3.01353 5.36125 2.98745 5.30749C2.91725 5.16272 2.90042 5.01764 2.90933 4.89249C2.82893 4.8249 2.74956 4.73474 2.68933 4.61499L2.6737 4.58249L2.65745 4.55061C2.595 4.42635 2.57151 4.30628 2.56995 4.19811C2.54969 4.15398 2.53268 4.10612 2.51995 4.05499C2.49355 3.94881 2.49258 3.85045 2.50245 3.76499C2.4171 3.67623 2.33816 3.55596 2.2987 3.39436C2.2627 3.24679 2.27331 3.11525 2.29933 3.00749C2.29303 2.98848 2.28699 2.96941 2.28183 2.94999C2.22217 2.91133 2.15853 2.86103 2.09995 2.79311C1.94024 2.60791 1.87832 2.37198 1.90745 2.14624C1.83547 1.96745 1.81989 1.76758 1.8737 1.57249L1.88433 1.53311L1.89558 1.49374L1.92683 1.39499C1.93862 1.36256 1.95221 1.33058 1.96683 1.29874L1.98308 1.26249L1.99995 1.22624C2.04558 1.12695 2.10621 1.03522 2.1812 0.954363L2.20808 0.925613L2.23495 0.896238L2.2862 0.845613C2.31306 0.820871 2.34101 0.798636 2.36933 0.778113C2.41068 0.663733 2.47996 0.543568 2.59433 0.436863L2.6537 0.381238L2.71995 0.325613C2.88004 0.204566 3.08066 0.14383 3.28745 0.159988ZM4.9287 7.02124L4.82245 7.27686C4.67114 7.38558 4.59672 7.52235 4.56308 7.60436C4.53296 7.67783 4.52137 7.74131 4.5162 7.78061C4.51313 7.85511 4.52097 7.9343 4.54245 8.01374C4.56248 8.02545 4.58036 8.03458 4.59558 8.04124L4.56058 8.02749L4.54433 8.02061C4.5455 8.02479 4.54683 8.02893 4.54808 8.03311C4.56525 8.05285 4.58283 8.07226 4.60183 8.08999L4.57433 8.06436L4.5512 8.04311C4.55922 8.06865 4.56892 8.09404 4.57995 8.11936L5.14245 7.70936L5.03183 7.51936L5.04245 7.50811L5.0037 7.44061L4.99245 7.45249L4.8712 7.24436C4.85409 7.2548 4.83792 7.26575 4.82245 7.27686L4.92808 7.02374L4.93058 7.02124H4.9287ZM4.77495 7.62999L4.72058 7.76061L4.79995 7.76811L4.56183 8.02311L4.64433 7.82561L4.55433 7.92186L4.62495 7.75186L4.6587 7.75499L4.77495 7.62999ZM4.6787 7.78874L4.65995 7.78749L4.64745 7.81749L4.6037 7.81374L4.59558 7.82249L4.55433 7.92186L4.64433 7.82561L4.56183 8.02311L4.79995 7.76811L4.7062 7.75936L4.6787 7.78874ZM4.61183 7.78311L4.59558 7.82249L4.6312 7.78436L4.61183 7.78311ZM4.6037 7.81374L4.64745 7.81749L4.67308 7.75624L4.6587 7.75499L4.6037 7.81374ZM4.65995 7.78749L4.6787 7.78874L4.7062 7.75936L4.67308 7.75624L4.65995 7.78749ZM4.61183 7.78311L4.6312 7.78436L4.6587 7.75499L4.62495 7.75186L4.61183 7.78311ZM4.77495 7.62999L4.6587 7.75499L4.72058 7.76061L4.77495 7.62999ZM5.04245 7.50811L5.03183 7.51936L4.99245 7.45249L5.0037 7.44061L5.04245 7.50811ZM4.47558 7.13249L4.54433 7.12749L4.5487 7.08811L4.47933 7.09311L4.47558 7.13249ZM4.54433 7.12749L4.47558 7.13249L4.47933 7.09311L4.5487 7.08811L4.54433 7.12749ZM5.06808 6.94436L5.01558 6.93436L4.98058 7.01749L4.99058 7.01686L5.06808 6.94436ZM4.92808 7.02374L4.9287 7.02124H4.93058L4.92808 7.02374ZM5.0612 6.94311L5.0562 6.95561L4.99058 7.01686L4.98058 7.01749L5.00933 6.94811L5.02308 6.93561L5.0612 6.94311ZM5.06808 6.94436L5.0562 6.95561L5.0612 6.94311L5.06808 6.94436ZM5.02308 6.93561L5.00933 6.94811L5.01558 6.93436L5.02308 6.93561ZM4.43808 6.82061L4.4362 6.83686L4.4687 6.82624L4.43808 6.82061ZM4.4687 6.82624L4.4362 6.83686L4.43808 6.82061L4.4687 6.82624ZM5.09495 6.62374L4.82745 6.70999L4.88433 6.72936L5.07683 6.66686L5.09495 6.62374ZM4.96245 6.70374L4.88433 6.72936L4.82745 6.70999L4.9062 6.68436L4.96245 6.70374ZM5.07683 6.66686L4.96245 6.70374L4.9062 6.68436L5.09495 6.62374L5.07683 6.66686ZM4.2887 6.47311L4.30558 6.47874L4.34933 6.46624L4.3587 6.42686L4.29558 6.44436L4.2887 6.47311ZM4.34933 6.46624L4.30558 6.47874L4.2887 6.47311L4.29558 6.44436L4.3587 6.42686L4.34933 6.46624ZM4.00245 6.04436L3.96683 6.05249L3.94245 6.04311L3.9387 6.05936L4.00245 6.04436ZM3.96683 6.05249L3.9387 6.05936L3.94245 6.04311L3.96683 6.05249ZM3.47745 5.76749L3.57433 5.77561L3.54808 5.81374L3.99058 5.85124L4.00058 5.81186L3.57433 5.77561L3.84308 5.38624L3.81808 5.38874L3.79995 5.37311L3.78683 5.39249L3.81808 5.38874L3.83245 5.40124L3.57433 5.77561L3.52558 5.77124L3.7587 5.43374L3.70308 5.43999L3.47745 5.76749ZM4.00058 5.81186L3.99058 5.85124L3.9312 5.84624L3.9412 5.80686L4.00058 5.81186ZM3.9412 5.80686L3.9312 5.84624L3.54808 5.81374L3.57433 5.77561L3.9412 5.80686ZM3.7587 5.43374L3.52558 5.77124L3.47745 5.76749L3.70308 5.43999L3.7587 5.43374ZM4.18245 5.34499L4.05308 5.36061L4.04308 5.39936L4.1762 5.38311L4.18245 5.34499ZM3.83245 5.40124L3.81808 5.38874L3.84308 5.38624L3.83245 5.40124ZM4.16808 5.38436L4.1087 5.39124L4.11558 5.35436L4.10558 5.39186L4.04308 5.39936L4.05308 5.36061L4.17745 5.34561L4.16808 5.38436ZM3.81808 5.38874L3.78683 5.39249L3.79995 5.37311L3.81808 5.38874ZM4.1087 5.39124L4.10558 5.39186L4.11558 5.35436L4.1087 5.39124ZM4.1762 5.38311L4.16808 5.38436L4.17745 5.34561L4.18245 5.34499L4.1762 5.38311ZM4.1937 4.80186L3.9937 5.09186L4.04433 5.09374L4.1637 4.92061L4.1937 4.80186ZM3.67245 5.11936L3.72245 5.12124L3.7462 5.08311L3.6962 5.08124L3.67245 5.11936ZM3.7462 5.08311L3.72245 5.12124L3.67245 5.11936L3.6962 5.08124L3.7462 5.08311ZM4.1637 4.92061L4.04433 5.09374L3.9937 5.09186L4.1937 4.80186L4.1637 4.92061ZM3.38183 4.71999L3.28995 4.92499L3.34995 4.89124L3.4662 4.68749L3.38183 4.71999ZM3.34995 4.89124L3.28995 4.92499L3.38183 4.71999L3.4662 4.68749L3.34995 4.89124ZM3.4762 4.26436L3.50308 4.20499L3.4812 4.21561L3.4762 4.26436ZM3.6162 4.06811L3.58058 4.03249L3.54933 4.10186L3.61995 4.06624L3.5737 4.16936L3.58683 4.16249L3.61745 4.19436L3.64495 4.13374L3.5737 4.16936L3.61995 4.06624L3.6162 4.06811ZM3.4762 4.26436L3.4812 4.21561L3.50308 4.20499L3.4762 4.26436ZM3.61745 4.19436L3.58683 4.16249L3.64495 4.13374L3.61745 4.19436ZM3.6162 4.06811L3.54933 4.10186L3.58058 4.03249L3.6162 4.06811ZM3.83683 4.03686L3.8912 4.00936L3.8587 3.99811L3.83683 4.03686ZM3.8912 4.00936L3.83683 4.03686L3.8587 3.99811L3.8912 4.00936ZM3.85495 3.94811L3.88183 3.95749L3.90058 3.92561L3.85495 3.94811ZM3.88183 3.95749L3.85495 3.94811L3.90058 3.92561L3.88183 3.95749ZM2.9362 3.62374L2.9662 3.63436L2.97995 3.60436L2.9362 3.62374ZM2.9662 3.63436L2.9362 3.62374L2.97995 3.60436L2.9662 3.63436ZM9.65558 3.53061L9.65058 3.45186L9.63308 3.46624L9.65558 3.53061ZM9.65558 3.53061L9.63308 3.46624L9.65058 3.45186L9.65558 3.53061ZM10.6987 3.41811L10.71 3.41186L10.7031 3.40624L10.6987 3.41811ZM10.71 3.41186L10.6987 3.41811L10.7031 3.40624L10.71 3.41186ZM3.56558 3.37436L3.56495 3.37811L3.57558 3.37311L3.56558 3.37436ZM3.56495 3.37811L3.56558 3.37436L3.57558 3.37311L3.56495 3.37811ZM3.37308 2.86499L3.23495 2.91936L3.2137 2.96561L3.35183 2.91186L3.37308 2.86499ZM9.9837 3.11311L9.99995 3.10811L9.99745 3.10124L9.9837 3.11311ZM9.99995 3.10811L9.9837 3.11311L9.99745 3.10124L9.99995 3.10811ZM3.28245 2.93874L3.2137 2.96561L3.23495 2.91936L3.3037 2.89249L3.28245 2.93874ZM3.35183 2.91186L3.28245 2.93874L3.3037 2.89249L3.37308 2.86499L3.35183 2.91186ZM8.21495 2.71999L8.16558 2.79999L8.15933 2.85874L8.19933 2.82436L8.20558 2.76374L8.2287 2.74436L8.21495 2.71999ZM2.72495 2.74936L2.71058 2.76811L2.7037 2.78936L2.7562 2.77999L2.78808 2.73811L2.72495 2.74936ZM10.9356 2.85999L10.9318 2.86874L10.9362 2.86749L10.9356 2.85999ZM10.9362 2.86749L10.9318 2.86874L10.9356 2.85999L10.9362 2.86749ZM8.19933 2.82436L8.15933 2.85874L8.16558 2.79999L8.16745 2.79686L8.20558 2.76374L8.19933 2.82436ZM10.4431 2.77624L10.4843 2.76374L10.4775 2.74749L10.4431 2.77624ZM8.20558 2.76374L8.16745 2.79686L8.20933 2.72874L8.20558 2.76374ZM2.7562 2.77999L2.7037 2.78936L2.71058 2.76811L2.72495 2.74936L2.78808 2.73811L2.7562 2.77999ZM10.4843 2.76374L10.4431 2.77624L10.4775 2.74749L10.4843 2.76374ZM8.2287 2.74436L8.20558 2.76374L8.20933 2.72874L8.21495 2.71999L8.2287 2.74436ZM8.17433 2.71624L8.18683 2.69561L8.1762 2.69811L8.17433 2.71624ZM8.17433 2.71624L8.1762 2.69811L8.18683 2.69561L8.17433 2.71624ZM3.38183 2.59499L3.4437 2.58436L3.41683 2.64374L3.46683 2.61624L3.5437 2.60249L3.49683 2.59374L3.49245 2.60249L3.41683 2.64374L3.4412 2.58936L3.45433 2.58249L3.4462 2.58374L3.45058 2.58436L3.4412 2.58936L3.44433 2.58311L3.39183 2.57311L3.38183 2.59499ZM3.48808 2.61249L3.46683 2.61624L3.49245 2.60249L3.48808 2.61249ZM3.5437 2.60249L3.48808 2.61249L3.49245 2.60249L3.5062 2.59499L3.5437 2.60249ZM3.5062 2.59499L3.49245 2.60249L3.49683 2.59374L3.5062 2.59499ZM3.44433 2.58311L3.4437 2.58436L3.38183 2.59499L3.39183 2.57311L3.44433 2.58311ZM3.45058 2.58436L3.4462 2.58374L3.45433 2.58249L3.45058 2.58436ZM7.2587 2.26624L7.20558 2.28436L7.1912 2.27186L7.15933 2.30061L7.2362 2.27374L7.24058 2.28249L7.2587 2.26624ZM7.20558 2.28436L7.15933 2.30061L7.1912 2.27186L7.20558 2.28436ZM7.24058 2.28249L7.2362 2.27374L7.2587 2.26624L7.24058 2.28249ZM2.89308 2.03124L2.87933 2.07124L2.94558 2.06499L2.9587 2.02499L2.89308 2.03124ZM7.88308 2.04811L7.88745 2.05561L7.87495 2.11374L7.9137 2.10061L7.88745 2.05561L7.88933 2.04624L7.88308 2.04811ZM2.1362 2.10124L2.12995 2.10374L2.14495 2.10249L2.1362 2.10124ZM7.9137 2.10061L7.87495 2.11374L7.88745 2.05561L7.9137 2.10061ZM2.14495 2.10249L2.12995 2.10374L2.1362 2.10124L2.14495 2.10249ZM2.94558 2.06499L2.87933 2.07124L2.89308 2.03124L2.9587 2.02499L2.94558 2.06499ZM7.88745 2.05561L7.88308 2.04811L7.88933 2.04624L7.88745 2.05561ZM5.32683 1.93311L5.3812 1.92124L5.44245 1.83499L5.38808 1.84686L5.32683 1.93311ZM6.05745 2.00811L6.06308 2.00749L6.06058 1.99936L6.05745 2.00811ZM6.06308 2.00749L6.05745 2.00811L6.06058 1.99936L6.06308 2.00749ZM7.06558 1.82499L6.93433 1.85874L6.9912 1.84874L6.99245 1.84374L7.0312 1.83374L7.02933 1.84249L7.06683 1.83624L7.06808 1.83061L7.06558 1.82499ZM5.3812 1.92124L5.32683 1.93311L5.38808 1.84686L5.44245 1.83499L5.3812 1.92124ZM6.9912 1.84874L6.93433 1.85874L6.99245 1.84374L6.9912 1.84874ZM7.06808 1.83061L7.06683 1.83624L7.02933 1.84249L7.0312 1.83374L7.06558 1.82499L7.06808 1.83061ZM2.9012 1.81311L2.91433 1.77499L2.85808 1.80124L2.9012 1.81311ZM2.9012 1.81311L2.85808 1.80124L2.91433 1.77499L2.9012 1.81311ZM3.07183 1.36686L2.99808 1.47561L3.01808 1.55374L3.11683 1.40749L3.07183 1.36686ZM3.11683 1.40749L3.01808 1.55374L2.99808 1.47561L3.07183 1.36686L3.11683 1.40749ZM5.8337 1.24249L5.81933 1.30186L5.81058 1.31374L5.8137 1.32436L5.81933 1.30186L5.84183 1.26999L5.8337 1.24249ZM5.8137 1.32436L5.81058 1.31374L5.81933 1.30186L5.8137 1.32436ZM5.84183 1.26999L5.81933 1.30186L5.8337 1.24249L5.84183 1.26999ZM5.78058 0.973113L5.72745 1.03749L5.7462 1.09999L5.7762 1.05061L5.76183 1.00311L5.78058 0.973113ZM5.7762 1.05061L5.7462 1.09999L5.73183 1.05249L5.76183 1.00311L5.7762 1.05061ZM5.76183 1.00311L5.73183 1.05249L5.72745 1.03749L5.76058 0.997488L5.76183 1.00311ZM5.76183 1.00311L5.76058 0.997488L5.78058 0.973113L5.76183 1.00311ZM4.69995 0.864988V0.878113L4.70245 0.868738L4.69995 0.864988ZM3.50808 0.719363L3.50058 0.838738L3.60058 0.691238L3.60745 0.716238L3.61058 0.676863L3.53683 0.784988L3.54433 0.665613L3.50808 0.719363ZM4.70245 0.868738L4.69995 0.878113V0.864988L4.70245 0.868738ZM3.53683 0.784988L3.50058 0.838738L3.50808 0.719363L3.54433 0.665613L3.53683 0.784988ZM3.60745 0.716238L3.60058 0.691238L3.61058 0.676863L3.60745 0.716238Z" fill="var(--fill-0, black)"/>
<path id="Ellipse 4194" d="M27.1403 13.9265C27.1403 20.0169 20.7852 21.6459 14.6948 21.6459C8.60433 21.6459 3.03691 20.0169 3.03691 13.9265C3.03691 7.83609 10.2837 2.89883 15.0098 2.89883C19.736 2.89883 27.1403 7.83609 27.1403 13.9265Z" fill="var(--fill-0, white)"/>
<path id="Vector 3" d="M26.4169 0.847078L18.7906 3.21388C18.7906 3.21388 8.94474 2.5296 17.0184 9.2496C25.0921 15.9696 25.0921 7.7825 25.0921 7.7825C25.9572 6.29947 26.9516 3.91159 27.5428 1.91177C27.7456 1.22601 27.0999 0.635123 26.4169 0.847078Z" fill="var(--fill-0, #D9D9D9)"/>
<path id="Vector 6" d="M22.8861 6.04947C25.1547 4.9152 26.7721 2.53112 27.2972 1.48086C27.4232 2.74117 25.7743 6.41706 24.9341 8.09747L22.8861 6.04947Z" fill="var(--fill-0, white)"/>
<path id="Vector 5 (Stroke)" d="M27.0465 0.002566C26.8894 0.0148997 26.7658 0.0688566 26.6828 0.116316C26.6525 0.110034 26.6225 0.104738 26.5928 0.100691L26.519 0.090691C26.3502 0.067703 26.1723 0.0910689 26.0065 0.169441L25.974 0.184441L25.9415 0.200066C25.9056 0.217061 25.8713 0.236715 25.8372 0.256316C25.762 0.256309 25.6833 0.266669 25.6022 0.288191C25.4359 0.284812 25.2834 0.330498 25.1553 0.408191C24.9572 0.364745 24.7327 0.391128 24.5378 0.513816L24.4547 0.574441L24.4247 0.598191L24.4078 0.611941L24.3922 0.621941L24.384 0.626941C24.3134 0.623507 24.2367 0.629071 24.1559 0.648191C24.0701 0.668518 23.9934 0.700895 23.9265 0.740691C23.9075 0.739447 23.8882 0.736887 23.8684 0.736941H23.794C23.6474 0.737387 23.5219 0.776113 23.4165 0.831941C23.2283 0.849107 23.074 0.927273 22.9603 1.02632C22.8911 1.03891 22.828 1.05982 22.7703 1.08569C22.7209 1.08027 22.6684 1.07795 22.6128 1.08257C22.4459 1.09642 22.3158 1.15309 22.2147 1.22507C22.1167 1.23397 22.0114 1.26057 21.9034 1.31882C21.8332 1.35671 21.7746 1.40101 21.7259 1.44757C21.675 1.43976 21.6196 1.43695 21.5603 1.44007C21.3655 1.45033 21.2091 1.5272 21.0928 1.62257C21.011 1.62013 20.9208 1.62896 20.8253 1.65944C20.6949 1.70106 20.5956 1.76852 20.5203 1.83944C20.3812 1.84798 20.2523 1.89201 20.1409 1.96007C20.0838 1.94836 20.0202 1.94155 19.9509 1.94382C19.6879 1.95246 19.5101 2.06635 19.3934 2.19194L19.3015 2.21944L19.2678 2.23132L19.2347 2.24319C19.2136 2.25069 19.1936 2.25953 19.174 2.26819C19.0565 2.24909 18.9174 2.25173 18.7659 2.30694C18.6392 2.35312 18.5433 2.42239 18.4703 2.49507C18.1102 2.65494 17.9188 3.06211 18.0384 3.44757C18.1449 3.7904 18.4641 4.00752 18.8059 4.00069C18.9343 4.01964 19.0891 4.0136 19.2534 3.94194C19.4159 3.95846 19.5937 3.93051 19.7578 3.83632C19.7787 3.82429 19.7983 3.81121 19.8172 3.79819C19.9345 3.79162 20.0587 3.76156 20.1803 3.69257C20.2548 3.69347 20.3353 3.68518 20.419 3.66069C20.4449 3.65312 20.4696 3.644 20.4934 3.63444C20.632 3.62561 20.7803 3.58232 20.9197 3.48132C20.9221 3.47957 20.9242 3.47745 20.9265 3.47569C21.0089 3.48091 21.1001 3.47452 21.1965 3.44757C21.2662 3.42808 21.3283 3.40064 21.3834 3.36882C21.5057 3.35206 21.628 3.30742 21.7384 3.23007C21.7455 3.22506 21.7522 3.21956 21.759 3.21444C21.8323 3.22055 21.9133 3.21828 21.9997 3.19944C22.1642 3.16354 22.2925 3.08185 22.3865 2.99257C22.497 2.96234 22.5878 2.91401 22.6622 2.85632L22.6859 2.85132L22.7203 2.84444C22.7637 2.8352 22.8041 2.82226 22.8422 2.80819C22.9276 2.81258 23.0214 2.80618 23.119 2.77694C23.2148 2.74823 23.296 2.70319 23.3647 2.65319C23.4023 2.64994 23.4411 2.64521 23.4809 2.63632L23.5159 2.62819L23.5503 2.62069C23.591 2.61158 23.6288 2.59898 23.6647 2.58569C23.7239 2.58768 23.7877 2.58404 23.8553 2.57007C23.9283 2.55496 23.9932 2.53066 24.0509 2.50194C24.1598 2.51389 24.2853 2.50704 24.4184 2.45944L24.4515 2.44757L24.4853 2.43507C24.6602 2.37245 24.7804 2.26521 24.859 2.16632C24.9192 2.14536 24.9759 2.11854 25.029 2.08757C25.0356 2.08884 25.0423 2.09144 25.049 2.09257C25.1734 2.11334 25.2951 2.1034 25.4084 2.07132C25.5398 2.0788 25.69 2.0565 25.8434 1.97257C25.9064 1.93808 25.9594 1.89791 26.0047 1.85632C26.1421 1.85278 26.2872 1.81848 26.4253 1.73757L26.4565 1.71882L26.4878 1.70069C26.4918 1.69834 26.4957 1.69555 26.4997 1.69319C26.5683 1.70598 26.6417 1.71159 26.719 1.70819C26.7288 1.71891 26.739 1.72889 26.749 1.73882C26.6798 1.80897 26.6123 1.89913 26.5653 2.01444C26.5104 2.14915 26.4967 2.28328 26.5065 2.40382L26.4747 2.47944L26.4615 2.51194L26.4484 2.54507C26.4106 2.64145 26.395 2.73382 26.3915 2.81944C26.3555 2.89485 26.3293 2.98116 26.3172 3.07944C26.3064 3.10452 26.2972 3.13002 26.2884 3.15569C26.1808 3.24261 26.0693 3.37589 26.0165 3.57257C25.9946 3.65419 25.9885 3.73105 25.9903 3.80132C25.9476 3.85088 25.907 3.9074 25.8734 3.97319L25.8359 4.05757L25.8228 4.09069L25.8178 4.10382L25.8115 4.11507L25.794 4.14569C25.6786 4.35066 25.6746 4.55308 25.7034 4.70632C25.6837 4.72093 25.6637 4.73683 25.644 4.75444C25.4859 4.89641 25.3845 5.09949 25.3753 5.32444C25.375 5.33133 25.376 5.3383 25.3759 5.34507C25.3684 5.3625 25.3622 5.38032 25.3559 5.39819C25.2988 5.4481 25.2425 5.50975 25.1947 5.58819C25.0978 5.74697 25.0722 5.90429 25.0765 6.03819C25.03 6.09241 24.987 6.15586 24.9528 6.23194L24.9172 6.32444L24.9059 6.35882L24.8953 6.39257C24.8722 6.46381 24.8613 6.5332 24.8559 6.59882L24.8209 6.62819L24.7665 6.67882C24.7483 6.69585 24.7297 6.71312 24.7115 6.73007L24.6847 6.75569L24.6572 6.78069C24.5429 6.88733 24.4741 7.01011 24.4359 7.13194C24.4234 7.14659 24.411 7.16188 24.399 7.17819C24.2701 7.35412 24.2305 7.55502 24.2465 7.72944L24.2497 7.76132L24.2522 7.79257C24.2571 7.84643 24.2704 7.93938 24.3134 8.04444C24.3567 8.14999 24.4534 8.32195 24.6559 8.44007L24.669 8.44757L25.1528 8.73007L25.4284 8.49382C25.517 8.45194 25.5976 8.39353 25.6659 8.32069C25.7745 8.26256 25.8968 8.16697 25.9865 8.01007C26.0519 7.89576 26.0808 7.78285 26.0897 7.68194C26.1127 7.66169 26.1363 7.64012 26.1584 7.61632L26.2084 7.56257C26.3332 7.42823 26.4086 7.26539 26.4359 7.09694C26.4558 7.07993 26.4766 7.06264 26.4959 7.04257C26.7065 6.82341 26.7398 6.5679 26.7165 6.37507C26.7513 6.32601 26.7819 6.27014 26.8072 6.20694C26.9393 6.10475 27.0622 5.94465 27.099 5.69444C27.1063 5.64533 27.1083 5.59838 27.1072 5.55444C27.1704 5.478 27.2216 5.38995 27.2559 5.29194C27.2884 5.25 27.3205 5.20383 27.3465 5.15007C27.4167 5.00529 27.4336 4.86022 27.4247 4.73507C27.5051 4.66748 27.5844 4.57732 27.6447 4.45757L27.6603 4.42507L27.6765 4.39319C27.739 4.26893 27.7625 4.14886 27.764 4.04069C27.7843 3.99655 27.8013 3.94869 27.814 3.89757C27.8404 3.79139 27.8414 3.69303 27.8315 3.60757C27.9169 3.51881 27.9958 3.39854 28.0353 3.23694C28.0713 3.08937 28.0607 2.95783 28.0347 2.85007C28.041 2.83105 28.047 2.81198 28.0522 2.79257C28.1118 2.7539 28.1755 2.70361 28.234 2.63569C28.3937 2.45049 28.4557 2.21455 28.4265 1.98882C28.4985 1.81002 28.5141 1.61015 28.4603 1.41507L28.4497 1.37569L28.4384 1.33632L28.4072 1.23757C28.3954 1.20514 28.3818 1.17315 28.3672 1.14132L28.3509 1.10507L28.334 1.06882C28.2884 0.969531 28.2278 0.877798 28.1528 0.796941L28.1259 0.768191L28.099 0.738816L28.0478 0.688191C28.0209 0.663449 27.993 0.641214 27.9647 0.620691C27.9233 0.506311 27.854 0.386146 27.7397 0.279441L27.6803 0.223816L27.614 0.168191C27.4539 0.0471445 27.2533 -0.0135918 27.0465 0.002566ZM25.4053 6.86382L25.5115 7.11944C25.6628 7.22815 25.7373 7.36493 25.7709 7.44694C25.801 7.52041 25.8126 7.58389 25.8178 7.62319C25.8209 7.69769 25.813 7.77688 25.7915 7.85632C25.7715 7.86802 25.7536 7.87715 25.7384 7.88382L25.7734 7.87007L25.7897 7.86319C25.7885 7.86737 25.7872 7.87151 25.7859 7.87569C25.7687 7.89543 25.7512 7.91483 25.7322 7.93257L25.7597 7.90694L25.7828 7.88569C25.7748 7.91123 25.7651 7.93662 25.754 7.96194L25.1915 7.55194L25.3022 7.36194L25.2915 7.35069L25.3303 7.28319L25.3415 7.29507L25.4628 7.08694C25.4799 7.09737 25.4961 7.10833 25.5115 7.11944L25.4059 6.86632L25.4034 6.86382H25.4053ZM25.559 7.47257L25.6134 7.60319L25.534 7.61069L25.7722 7.86569L25.6897 7.66819L25.7797 7.76444L25.709 7.59444L25.6753 7.59757L25.559 7.47257ZM25.6553 7.63132L25.674 7.63007L25.6865 7.66007L25.7303 7.65632L25.7384 7.66507L25.7797 7.76444L25.6897 7.66819L25.7722 7.86569L25.534 7.61069L25.6278 7.60194L25.6553 7.63132ZM25.7222 7.62569L25.7384 7.66507L25.7028 7.62694L25.7222 7.62569ZM25.7303 7.65632L25.6865 7.66007L25.6609 7.59882L25.6753 7.59757L25.7303 7.65632ZM25.674 7.63007L25.6553 7.63132L25.6278 7.60194L25.6609 7.59882L25.674 7.63007ZM25.7222 7.62569L25.7028 7.62694L25.6753 7.59757L25.709 7.59444L25.7222 7.62569ZM25.559 7.47257L25.6753 7.59757L25.6134 7.60319L25.559 7.47257ZM25.2915 7.35069L25.3022 7.36194L25.3415 7.29507L25.3303 7.28319L25.2915 7.35069ZM25.8584 6.97507L25.7897 6.97007L25.7853 6.93069L25.8547 6.93569L25.8584 6.97507ZM25.7897 6.97007L25.8584 6.97507L25.8547 6.93569L25.7853 6.93069L25.7897 6.97007ZM25.2659 6.78694L25.3184 6.77694L25.3534 6.86007L25.3434 6.85944L25.2659 6.78694ZM25.4059 6.86632L25.4053 6.86382H25.4034L25.4059 6.86632ZM25.2728 6.78569L25.2778 6.79819L25.3434 6.85944L25.3534 6.86007L25.3247 6.79069L25.3109 6.77819L25.2728 6.78569ZM25.2659 6.78694L25.2778 6.79819L25.2728 6.78569L25.2659 6.78694ZM25.3109 6.77819L25.3247 6.79069L25.3184 6.77694L25.3109 6.77819ZM25.8959 6.66319L25.8978 6.67944L25.8653 6.66882L25.8959 6.66319ZM25.8653 6.66882L25.8978 6.67944L25.8959 6.66319L25.8653 6.66882ZM25.239 6.46632L25.5065 6.55257L25.4497 6.57194L25.2572 6.50944L25.239 6.46632ZM25.3715 6.54632L25.4497 6.57194L25.5065 6.55257L25.4278 6.52694L25.3715 6.54632ZM25.2572 6.50944L25.3715 6.54632L25.4278 6.52694L25.239 6.46632L25.2572 6.50944ZM26.0453 6.31569L26.0284 6.32132L25.9847 6.30882L25.9753 6.26944L26.0384 6.28694L26.0453 6.31569ZM25.9847 6.30882L26.0284 6.32132L26.0453 6.31569L26.0384 6.28694L25.9753 6.26944L25.9847 6.30882ZM26.3315 5.88694L26.3672 5.89507L26.3915 5.88569L26.3953 5.90194L26.3315 5.88694ZM26.3672 5.89507L26.3953 5.90194L26.3915 5.88569L26.3672 5.89507ZM26.8565 5.61007L26.7597 5.61819L26.7859 5.65632L26.3434 5.69382L26.3334 5.65444L26.7597 5.61819L26.4909 5.22882L26.5159 5.23132L26.534 5.21569L26.5472 5.23507L26.5159 5.23132L26.5015 5.24382L26.7597 5.61819L26.8084 5.61382L26.5753 5.27632L26.6309 5.28257L26.8565 5.61007ZM26.3334 5.65444L26.3434 5.69382L26.4028 5.68882L26.3928 5.64944L26.3334 5.65444ZM26.3928 5.64944L26.4028 5.68882L26.7859 5.65632L26.7597 5.61819L26.3928 5.64944ZM26.5753 5.27632L26.8084 5.61382L26.8565 5.61007L26.6309 5.28257L26.5753 5.27632ZM26.1515 5.18757L26.2809 5.20319L26.2909 5.24194L26.1578 5.22569L26.1515 5.18757ZM26.5015 5.24382L26.5159 5.23132L26.4909 5.22882L26.5015 5.24382ZM26.1659 5.22694L26.2253 5.23382L26.2184 5.19694L26.2284 5.23444L26.2909 5.24194L26.2809 5.20319L26.1565 5.18819L26.1659 5.22694ZM26.5159 5.23132L26.5472 5.23507L26.534 5.21569L26.5159 5.23132ZM26.2253 5.23382L26.2284 5.23444L26.2184 5.19694L26.2253 5.23382ZM26.1578 5.22569L26.1659 5.22694L26.1565 5.18819L26.1515 5.18757L26.1578 5.22569ZM26.1403 4.64444L26.3403 4.93444L26.2897 4.93632L26.1703 4.76319L26.1403 4.64444ZM26.6615 4.96194L26.6115 4.96382L26.5878 4.92569L26.6378 4.92382L26.6615 4.96194ZM26.5878 4.92569L26.6115 4.96382L26.6615 4.96194L26.6378 4.92382L26.5878 4.92569ZM26.1703 4.76319L26.2897 4.93632L26.3403 4.93444L26.1403 4.64444L26.1703 4.76319ZM26.9522 4.56257L27.044 4.76757L26.984 4.73382L26.8678 4.53007L26.9522 4.56257ZM26.984 4.73382L27.044 4.76757L26.9522 4.56257L26.8678 4.53007L26.984 4.73382ZM26.8578 4.10694L26.8309 4.04757L26.8528 4.05819L26.8578 4.10694ZM26.7178 3.91069L26.7534 3.87507L26.7847 3.94444L26.714 3.90882L26.7603 4.01194L26.7472 4.00507L26.7165 4.03694L26.689 3.97632L26.7603 4.01194L26.714 3.90882L26.7178 3.91069ZM26.8578 4.10694L26.8528 4.05819L26.8309 4.04757L26.8578 4.10694ZM26.7165 4.03694L26.7472 4.00507L26.689 3.97632L26.7165 4.03694ZM26.7178 3.91069L26.7847 3.94444L26.7534 3.87507L26.7178 3.91069ZM26.4972 3.87944L26.4428 3.85194L26.4753 3.84069L26.4972 3.87944ZM26.4428 3.85194L26.4972 3.87944L26.4753 3.84069L26.4428 3.85194ZM26.479 3.79069L26.4522 3.80007L26.4334 3.76819L26.479 3.79069ZM26.4522 3.80007L26.479 3.79069L26.4334 3.76819L26.4522 3.80007ZM27.3978 3.46632L27.3678 3.47694L27.354 3.44694L27.3978 3.46632ZM27.3678 3.47694L27.3978 3.46632L27.354 3.44694L27.3678 3.47694ZM20.6784 3.37319L20.6834 3.29444L20.7009 3.30882L20.6784 3.37319ZM20.6784 3.37319L20.7009 3.30882L20.6834 3.29444L20.6784 3.37319ZM19.6353 3.26069L19.624 3.25444L19.6309 3.24882L19.6353 3.26069ZM19.624 3.25444L19.6353 3.26069L19.6309 3.24882L19.624 3.25444ZM26.7684 3.21694L26.769 3.22069L26.7584 3.21569L26.7684 3.21694ZM26.769 3.22069L26.7684 3.21694L26.7584 3.21569L26.769 3.22069ZM26.9609 2.70757L27.099 2.76194L27.1203 2.80819L26.9822 2.75444L26.9609 2.70757ZM20.3503 2.95569L20.334 2.95069L20.3365 2.94382L20.3503 2.95569ZM20.334 2.95069L20.3503 2.95569L20.3365 2.94382L20.334 2.95069ZM27.0515 2.78132L27.1203 2.80819L27.099 2.76194L27.0303 2.73507L27.0515 2.78132ZM26.9822 2.75444L27.0515 2.78132L27.0303 2.73507L26.9609 2.70757L26.9822 2.75444ZM22.119 2.56257L22.1684 2.64257L22.1747 2.70132L22.1347 2.66694L22.1284 2.60632L22.1053 2.58694L22.119 2.56257ZM27.609 2.59194L27.6234 2.61069L27.6303 2.63194L27.5778 2.62257L27.5459 2.58069L27.609 2.59194ZM19.3984 2.70257L19.4022 2.71132L19.3978 2.71007L19.3984 2.70257ZM19.3978 2.71007L19.4022 2.71132L19.3984 2.70257L19.3978 2.71007ZM22.1347 2.66694L22.1747 2.70132L22.1684 2.64257L22.1665 2.63944L22.1284 2.60632L22.1347 2.66694ZM19.8909 2.61882L19.8497 2.60632L19.8565 2.59007L19.8909 2.61882ZM22.1284 2.60632L22.1665 2.63944L22.1247 2.57132L22.1284 2.60632ZM27.5778 2.62257L27.6303 2.63194L27.6234 2.61069L27.609 2.59194L27.5459 2.58069L27.5778 2.62257ZM19.8497 2.60632L19.8909 2.61882L19.8565 2.59007L19.8497 2.60632ZM22.1053 2.58694L22.1284 2.60632L22.1247 2.57132L22.119 2.56257L22.1053 2.58694ZM22.1597 2.55882L22.1472 2.53819L22.1578 2.54069L22.1597 2.55882ZM22.1597 2.55882L22.1578 2.54069L22.1472 2.53819L22.1597 2.55882ZM26.9522 2.43757L26.8903 2.42694L26.9172 2.48632L26.8672 2.45882L26.7903 2.44507L26.8372 2.43632L26.8415 2.44507L26.9172 2.48632L26.8928 2.43194L26.8797 2.42507L26.8878 2.42632L26.8834 2.42694L26.8928 2.43194L26.8897 2.42569L26.9422 2.41569L26.9522 2.43757ZM26.8459 2.45507L26.8672 2.45882L26.8415 2.44507L26.8459 2.45507ZM26.7903 2.44507L26.8459 2.45507L26.8415 2.44507L26.8278 2.43757L26.7903 2.44507ZM26.8278 2.43757L26.8415 2.44507L26.8372 2.43632L26.8278 2.43757ZM26.8897 2.42569L26.8903 2.42694L26.9522 2.43757L26.9422 2.41569L26.8897 2.42569ZM26.8834 2.42694L26.8878 2.42632L26.8797 2.42507L26.8834 2.42694ZM23.0753 2.10882L23.1284 2.12694L23.1428 2.11444L23.1747 2.14319L23.0978 2.11632L23.0934 2.12507L23.0753 2.10882ZM23.1284 2.12694L23.1747 2.14319L23.1428 2.11444L23.1284 2.12694ZM23.0934 2.12507L23.0978 2.11632L23.0753 2.10882L23.0934 2.12507ZM27.4409 1.87382L27.4547 1.91382L27.3884 1.90757L27.3753 1.86757L27.4409 1.87382ZM22.4509 1.89069L22.4465 1.89819L22.459 1.95632L22.4203 1.94319L22.4465 1.89819L22.4447 1.88882L22.4509 1.89069ZM28.1978 1.94382L28.204 1.94632L28.189 1.94507L28.1978 1.94382ZM22.4203 1.94319L22.459 1.95632L22.4465 1.89819L22.4203 1.94319ZM28.189 1.94507L28.204 1.94632L28.1978 1.94382L28.189 1.94507ZM27.3884 1.90757L27.4547 1.91382L27.4409 1.87382L27.3753 1.86757L27.3884 1.90757ZM22.4465 1.89819L22.4509 1.89069L22.4447 1.88882L22.4465 1.89819ZM25.0072 1.77569L24.9528 1.76382L24.8915 1.67757L24.9459 1.68944L25.0072 1.77569ZM24.2765 1.85069L24.2709 1.85007L24.2734 1.84194L24.2765 1.85069ZM24.2709 1.85007L24.2765 1.85069L24.2734 1.84194L24.2709 1.85007ZM23.2684 1.66757L23.3997 1.70132L23.3428 1.69132L23.3415 1.68632L23.3028 1.67632L23.3047 1.68507L23.2672 1.67882L23.2659 1.67319L23.2684 1.66757ZM24.9528 1.76382L25.0072 1.77569L24.9459 1.68944L24.8915 1.67757L24.9528 1.76382ZM23.3428 1.69132L23.3997 1.70132L23.3415 1.68632L23.3428 1.69132ZM23.2659 1.67319L23.2672 1.67882L23.3047 1.68507L23.3028 1.67632L23.2684 1.66757L23.2659 1.67319ZM27.4328 1.65569L27.4197 1.61757L27.4759 1.64382L27.4328 1.65569ZM27.4328 1.65569L27.4759 1.64382L27.4197 1.61757L27.4328 1.65569ZM27.2622 1.20944L27.3359 1.31819L27.3159 1.39632L27.2172 1.25007L27.2622 1.20944ZM27.2172 1.25007L27.3159 1.39632L27.3359 1.31819L27.2622 1.20944L27.2172 1.25007ZM24.5003 1.08507L24.5147 1.14444L24.5234 1.15632L24.5203 1.16694L24.5147 1.14444L24.4922 1.11257L24.5003 1.08507ZM24.5203 1.16694L24.5234 1.15632L24.5147 1.14444L24.5203 1.16694ZM24.4922 1.11257L24.5147 1.14444L24.5003 1.08507L24.4922 1.11257ZM24.5534 0.815691L24.6065 0.880066L24.5878 0.942566L24.5578 0.893191L24.5722 0.845691L24.5534 0.815691ZM24.5578 0.893191L24.5878 0.942566L24.6022 0.895066L24.5722 0.845691L24.5578 0.893191ZM24.5722 0.845691L24.6022 0.895066L24.6065 0.880066L24.5734 0.840066L24.5722 0.845691ZM24.5722 0.845691L24.5734 0.840066L24.5534 0.815691L24.5722 0.845691ZM25.634 0.707566V0.720691L25.6315 0.711316L25.634 0.707566ZM26.8259 0.561941L26.8334 0.681316L26.7334 0.533816L26.7265 0.558816L26.7234 0.519441L26.7972 0.627566L26.7897 0.508191L26.8259 0.561941ZM25.6315 0.711316L25.634 0.720691V0.707566L25.6315 0.711316ZM26.7972 0.627566L26.8334 0.681316L26.8259 0.561941L26.7897 0.508191L26.7972 0.627566ZM26.7265 0.558816L26.7334 0.533816L26.7234 0.519441L26.7265 0.558816Z" fill="var(--fill-0, black)"/>
<path id="Ellipse 4198" d="M25.9786 7.64945C25.9786 8.17965 25.6921 8.60945 25.3386 8.60945C24.9852 8.60945 24.6986 8.17965 24.6986 7.64945C24.6986 7.11926 24.9852 6.68945 25.3386 6.68945C25.6921 6.68945 25.9786 7.11926 25.9786 7.64945Z" fill="var(--fill-0, black)"/>
<path id="Ellipse 4197 (Stroke)" d="M6.55721 5.46445C6.87408 5.34669 7.13248 5.47267 7.17283 5.49195C7.3006 5.55299 7.38294 5.63767 7.38721 5.64195L7.44158 5.69883L7.48408 5.7482L7.59033 5.86945L7.59096 5.87133C7.68239 5.98556 7.73775 6.1218 7.75596 6.2632C7.75678 6.26516 7.75826 6.26685 7.75908 6.26883C7.77645 6.31073 7.81925 6.41934 7.82721 6.56008C7.8351 6.6997 7.80841 7.07546 7.43971 7.29695C7.39073 7.32635 7.34144 7.347 7.29408 7.36383C7.25158 7.47561 7.18018 7.59369 7.06408 7.69195C7.03016 7.72065 6.99559 7.74539 6.96096 7.76633L6.68033 8.1707L6.64158 8.05133C6.60165 8.1319 6.54623 8.21405 6.46533 8.28883L6.41408 8.33633C6.36496 8.38172 6.31342 8.41683 6.26283 8.4457C6.23942 8.49576 6.21007 8.54697 6.17158 8.59695L6.15658 8.6157L6.14658 8.6382C6.073 8.79067 5.96942 8.89411 5.86221 8.96633C5.84555 9.00257 5.82583 9.03964 5.80158 9.07633C5.76175 9.13657 5.71625 9.1851 5.67033 9.22695C5.62241 9.31754 5.55258 9.40665 5.45158 9.48445C5.44301 9.49105 5.43331 9.49585 5.42471 9.50195C5.41814 9.51157 5.41124 9.5211 5.40408 9.5307C5.37655 9.64238 5.32126 9.76078 5.21971 9.87383L5.19596 9.90008L5.17283 9.92633C5.13415 9.96939 5.09274 10.0059 5.05158 10.0376C5.04155 10.0876 5.02719 10.1399 5.00471 10.1932C4.9188 10.3969 4.77145 10.5197 4.64346 10.5895C4.64539 10.6438 4.64028 10.702 4.62908 10.7632C4.65664 10.8825 4.66774 11.0459 4.60158 11.2238C4.55804 11.3408 4.49303 11.432 4.42408 11.5026C4.42598 11.5212 4.42786 11.5404 4.42846 11.5601C4.43245 11.6924 4.40311 11.8185 4.34908 11.9307C4.34324 12.0355 4.3172 12.1477 4.25846 12.2595L4.22596 12.322C4.19071 12.389 4.14891 12.446 4.10596 12.4951C4.11728 12.5202 4.12793 12.5468 4.13721 12.5751C4.17847 12.7007 4.1944 12.8547 4.15408 13.0182C4.13448 13.0976 4.10425 13.1671 4.06971 13.227C4.06802 13.279 4.06268 13.3329 4.04908 13.3882C4.0737 13.4798 4.0864 13.582 4.07408 13.6913C4.06773 13.7476 4.05386 13.7993 4.03846 13.8476L4.04783 13.8738C4.13522 14.1189 4.09189 14.3605 3.99221 14.5395C3.98367 14.5548 3.97247 14.5679 3.96346 14.582C3.98245 14.6801 3.98498 14.7886 3.95908 14.9057C3.95198 14.9378 3.94281 14.9683 3.93283 14.997C3.98636 15.131 4.00746 15.2859 3.97596 15.4488C3.97362 15.4609 3.96936 15.4723 3.96658 15.4838C4.09868 15.5945 4.24211 15.7797 4.25533 16.0607C4.25821 16.1222 4.25234 16.1791 4.24346 16.232C4.24581 16.2439 4.24844 16.2559 4.25033 16.2682C4.25305 16.2859 4.25319 16.3036 4.25471 16.3207C4.323 16.386 4.38694 16.4705 4.43471 16.5807C4.45386 16.6249 4.46735 16.6686 4.47783 16.7107C4.54323 16.7562 4.60803 16.8139 4.66346 16.887C4.76749 16.9515 4.87045 17.0468 4.94721 17.1882L4.98533 17.2682L4.99908 17.2995L5.01221 17.3313C5.07668 17.4843 5.08573 17.6287 5.07533 17.7463C5.08704 17.7607 5.09931 17.775 5.11033 17.7907C5.22913 17.8791 5.30766 17.986 5.35783 18.0938C5.44137 18.1688 5.50679 18.2585 5.55221 18.3563C5.66165 18.4084 5.7485 18.477 5.81596 18.5551C5.89751 18.5499 5.98944 18.5555 6.08721 18.5826C6.28776 18.6382 6.45559 18.7673 6.56158 18.9395C6.57229 18.9569 6.58205 18.9742 6.59096 18.9913C6.59654 18.9937 6.60231 18.9957 6.60783 18.9982H6.63283C6.70467 19.0011 6.78252 19.0135 6.86408 19.0413L6.89721 19.0526L6.93033 19.0645C7.18339 19.1509 7.32244 19.3198 7.40096 19.4738C7.50078 19.4506 7.632 19.4388 7.77971 19.4745C7.92714 19.5101 8.04884 19.5822 8.14221 19.6688L8.22596 19.7595L8.27471 19.8207C8.32083 19.8096 8.37137 19.802 8.42596 19.7995C8.68619 19.7872 8.91139 19.8996 9.05908 20.0601C9.08283 20.0859 9.10313 20.1124 9.12158 20.1382C9.1494 20.1432 9.17787 20.1499 9.20658 20.1582C9.33058 20.1943 9.42852 20.2559 9.50533 20.3213C9.58316 20.3072 9.6705 20.3026 9.76658 20.317C9.83322 20.3269 9.89351 20.344 9.94783 20.3657L9.97721 20.3513L10.0772 20.3076C10.188 20.2676 10.3296 20.2428 10.4903 20.2701C10.6395 20.2955 10.7586 20.3581 10.8485 20.427C10.9244 20.4357 10.9941 20.4562 11.0585 20.482C11.1548 20.4842 11.2563 20.5055 11.3603 20.5507C11.402 20.5367 11.4467 20.5244 11.4953 20.517C11.6062 20.5 11.7065 20.5075 11.796 20.5282C11.954 20.5095 12.1117 20.5389 12.2497 20.6082C12.2922 20.6295 12.3298 20.6543 12.3641 20.6795C12.4163 20.6741 12.4705 20.6729 12.5266 20.6788C12.5906 20.6439 12.6657 20.6133 12.7528 20.5951L12.8241 20.5801L12.9466 20.5632C13.0088 20.5587 13.071 20.5625 13.1328 20.5707C13.3383 20.5341 13.5435 20.5795 13.7078 20.6845C13.7741 20.7268 13.8259 20.7754 13.8678 20.8207C13.8927 20.826 13.9173 20.8326 13.9416 20.8401C14.0624 20.8053 14.1989 20.7943 14.3422 20.827C14.3644 20.8205 14.3876 20.8153 14.4116 20.8107C14.5014 20.7506 14.6262 20.6923 14.7835 20.6776C14.9376 20.6632 15.0748 20.6953 15.186 20.7451C15.2544 20.7267 15.33 20.7151 15.4128 20.717C15.4969 20.7188 15.573 20.7336 15.6403 20.7551C15.7412 20.7104 15.8621 20.6796 16.001 20.6838C16.1632 20.6888 16.2958 20.7395 16.396 20.7976C16.4021 20.7914 16.4082 20.785 16.4147 20.7788C16.4955 20.7019 16.6284 20.6086 16.8147 20.572C16.9809 20.5393 17.1331 20.5647 17.2572 20.6126C17.2999 20.5962 17.3457 20.583 17.3947 20.5738C17.4808 20.5269 17.5845 20.4883 17.7066 20.477C17.8661 20.4621 18.0034 20.496 18.1097 20.5426C18.1499 20.5198 18.1937 20.4977 18.2428 20.4807C18.3645 20.4385 18.4777 20.431 18.5791 20.4407C18.7488 20.3635 18.9458 20.3455 19.1391 20.4026C19.2252 20.312 19.3513 20.2196 19.531 20.1763C19.6698 20.1429 19.7937 20.1499 19.8985 20.1745L19.9128 20.1713L19.9466 20.1638L20.0378 20.1476C20.1422 20.1346 20.239 20.1421 20.3253 20.1601C20.3895 20.1243 20.4604 20.097 20.536 20.0795C20.6132 20.0263 20.7059 19.9807 20.8147 19.9563C20.9212 19.9325 21.0204 19.9335 21.1072 19.9463C21.1584 19.8943 21.221 19.8445 21.2978 19.8026L21.3603 19.7688L21.4635 19.7207C21.5632 19.6821 21.661 19.6656 21.7522 19.6638C21.7812 19.6374 21.8133 19.6117 21.8491 19.5876C21.9472 19.5216 22.0486 19.4833 22.1466 19.4638C22.2167 19.4212 22.2965 19.3866 22.386 19.3638L22.4203 19.3551L22.4541 19.3463C22.6403 19.299 22.8043 19.323 22.9316 19.3651C22.9442 19.3588 22.9574 19.3538 22.9703 19.3482C22.9969 19.3115 23.0283 19.2759 23.0635 19.2413C23.0658 19.2354 23.0678 19.2292 23.0703 19.2232C23.1254 19.0932 23.2341 18.9313 23.4297 18.8245C23.5429 18.7627 23.6551 18.7374 23.7541 18.7295C23.7938 18.7023 23.8338 18.6793 23.8741 18.6607C23.9076 18.61 23.9474 18.5586 23.9978 18.5107L24.0203 18.4888C24.0229 18.481 24.0256 18.473 24.0285 18.4651C24.1158 18.2253 24.3185 18.026 24.5922 17.9582L24.6297 17.9488L24.6378 17.9463C24.697 17.8463 24.7831 17.7532 24.901 17.6795C24.9033 17.656 24.9056 17.632 24.9103 17.6076C24.9436 17.4345 25.0361 17.2609 25.1941 17.132C25.2179 17.0946 25.2449 17.0572 25.2772 17.0213C25.3497 16.9411 25.4288 16.8846 25.5047 16.8445C25.5274 16.7069 25.5874 16.5575 25.7191 16.4207L25.7441 16.3945L25.7691 16.3688L25.8378 16.302C25.8493 16.2917 25.8612 16.2823 25.8728 16.2726C25.8726 16.1996 25.8817 16.1211 25.9072 16.0395C25.8879 15.9597 25.8775 15.8681 25.8885 15.7657C25.8984 15.673 25.9215 15.5915 25.9535 15.5207C25.9321 15.2522 26.0362 15.0314 26.171 14.8801C26.1569 14.8431 26.1444 14.8034 26.1347 14.7613L26.1185 14.6901C26.0788 14.5181 26.0961 14.3691 26.1397 14.2451C26.1367 14.1911 26.1411 14.1388 26.1485 14.0882C26.1253 14.0367 26.106 13.979 26.0928 13.9151L26.086 13.8807L26.0791 13.847C26.018 13.5499 26.135 13.3143 26.2341 13.187C26.2761 13.1329 26.3206 13.0899 26.361 13.0563C26.3651 13.0458 26.3695 13.0354 26.3741 13.0251C26.3737 13.0238 26.3732 13.0226 26.3728 13.0213C26.3033 12.9322 26.2408 12.8155 26.2128 12.667C26.2076 12.6394 26.2046 12.6121 26.2022 12.5857C26.0563 12.4389 25.9528 12.2242 25.9622 11.9738C25.9176 11.8927 25.8833 11.7975 25.8703 11.6857C25.8131 11.5761 25.7871 11.4693 25.781 11.3707C25.6418 11.2753 25.4919 11.1142 25.4447 10.8545C25.3882 10.5428 25.5312 10.3164 25.5685 10.2595C25.5724 10.2535 25.5764 10.2477 25.5803 10.242C25.5749 10.2248 25.5704 10.2073 25.566 10.1895C25.4372 10.1256 25.3217 10.028 25.236 9.9032C25.1856 9.89457 25.1301 9.882 25.0728 9.85945C24.9704 9.81905 24.8468 9.74608 24.7435 9.61945C24.6544 9.51026 24.6048 9.38917 24.581 9.27445C24.5768 9.26743 24.5724 9.26047 24.5685 9.2532C24.4802 9.19873 24.41 9.13345 24.3535 9.0632C24.3205 9.04611 24.2871 9.02689 24.2541 9.00383L24.2247 8.9832L24.1947 8.96258C24.001 8.82702 23.9069 8.63955 23.8703 8.47195C23.8406 8.43078 23.8158 8.38938 23.7966 8.34758C23.6734 8.25652 23.5932 8.14187 23.5422 8.02633C23.532 8.01912 23.5212 8.01235 23.511 8.00445C23.4436 7.95228 23.3889 7.89355 23.3453 7.83195C23.2719 7.80065 23.1956 7.75634 23.1228 7.6907C22.9584 7.54251 22.8929 7.36926 22.8691 7.23133C22.8301 7.21007 22.7919 7.18684 22.7547 7.16133C22.4672 7.06706 22.2968 6.84452 22.2272 6.63508C22.2022 6.55982 22.1914 6.48834 22.1866 6.4257C22.0979 6.11869 22.2023 5.7759 22.4741 5.57445C22.8236 5.31555 23.3163 5.38881 23.5753 5.7382L23.6135 5.78945L23.6785 5.87758L23.6835 5.88008C23.696 5.88652 23.7085 5.89291 23.721 5.89945C23.8674 5.9186 24.0423 5.97693 24.1953 6.1107L24.2628 6.17633L24.2872 6.20258L24.311 6.22883C24.3388 6.25895 24.3633 6.2898 24.3847 6.3207C24.3954 6.32694 24.4071 6.3319 24.4178 6.33883L24.5172 6.41383L24.571 6.46133C24.6741 6.55219 24.7389 6.6547 24.781 6.7532C24.8712 6.81529 24.9438 6.8917 24.9991 6.97633C25.0341 6.99286 25.07 7.01268 25.106 7.03695C25.1776 7.08538 25.2388 7.14365 25.2891 7.2082C25.3891 7.26761 25.488 7.35518 25.5641 7.48195C25.6617 7.64473 25.6793 7.80362 25.6766 7.91445C25.7858 7.96821 25.9034 8.05545 25.9953 8.1957C26.0198 8.23308 26.0393 8.27119 26.056 8.3082C26.1802 8.3545 26.3184 8.43935 26.4278 8.59383L26.4728 8.66508L26.5091 8.72758C26.5579 8.81284 26.59 8.90096 26.6103 8.98758C26.6863 9.04555 26.7581 9.11617 26.8197 9.20133L26.841 9.23133L26.8628 9.2607C26.8861 9.29286 26.9075 9.32631 26.9272 9.3607L26.981 9.46633L26.9953 9.50008L27.0103 9.5332C27.0155 9.54481 27.0187 9.55713 27.0235 9.56883C27.1084 9.65632 27.1802 9.76465 27.2247 9.89383L27.2503 9.98195L27.2585 10.0182L27.2672 10.0545C27.2927 10.1637 27.2965 10.269 27.2891 10.3657C27.4023 10.4663 27.5028 10.6082 27.5466 10.7901L27.5641 10.8913L27.5685 10.9282L27.5722 10.9607C27.6014 11.0108 27.6275 11.0674 27.6472 11.1313C27.6763 11.2257 27.6856 11.314 27.6828 11.3945C27.6944 11.4261 27.7049 11.4593 27.7128 11.4945C27.7249 11.5474 27.7306 11.5985 27.7322 11.647L27.7335 11.6482C27.854 11.7744 27.9543 11.9621 27.9591 12.1926C27.9616 12.3133 27.9352 12.4163 27.9035 12.4995C27.9093 12.5281 27.9132 12.5576 27.916 12.5882C27.9625 12.6947 27.9872 12.8108 27.9878 12.9307C28.0089 12.9935 28.0223 13.0585 28.0278 13.1251C28.0787 13.2271 28.1156 13.3536 28.1122 13.5001C28.1072 13.7088 28.0228 13.866 27.9516 13.9613C27.9514 13.9909 27.9514 14.0213 27.9478 14.0526L27.9441 14.0845C27.9758 14.1712 27.9976 14.2727 27.9928 14.3901C27.9884 14.4984 27.9626 14.5915 27.9285 14.6713L27.9485 14.7213L27.961 14.7595L27.9741 14.797C28.064 15.067 28.0034 15.3403 27.8547 15.5432C27.9069 15.6917 27.927 15.8851 27.8335 16.107C27.7844 16.2233 27.7155 16.3099 27.6485 16.3738C27.6302 16.4447 27.6005 16.5176 27.556 16.5913L27.5616 16.6645C27.5718 16.7933 27.5531 16.9455 27.4785 17.0957C27.4195 17.2144 27.3389 17.3031 27.2585 17.3682C27.2513 17.4324 27.2367 17.5014 27.2091 17.5726C27.1917 17.6172 27.17 17.6577 27.1472 17.6957C27.1372 17.7396 27.1237 17.7854 27.1041 17.832C27.0167 18.0391 26.8614 18.1723 26.7141 18.2451C26.7014 18.2513 26.6879 18.2553 26.6753 18.2607C26.6753 18.2634 26.676 18.2661 26.676 18.2688C26.6725 18.4419 26.6085 18.6909 26.3841 18.877C26.3167 18.9328 26.2468 18.9706 26.181 18.9982C26.1095 19.0672 26.0252 19.1236 25.9291 19.1632C25.8689 19.2253 25.7962 19.2797 25.7091 19.3232C25.6983 19.3798 25.682 19.4434 25.6516 19.5095C25.5675 19.6923 25.4116 19.8485 25.2022 19.9257C25.1069 19.9608 25.0178 19.9721 24.9428 19.9738C24.8673 20.028 24.7827 20.0713 24.6897 20.0982L24.6641 20.1051C24.6397 20.1275 24.6141 20.1501 24.5853 20.1707C24.5524 20.1943 24.5182 20.2139 24.4847 20.2313V20.2326C24.4272 20.3286 24.3466 20.4155 24.2472 20.4838C24.1792 20.6442 24.0454 20.8341 23.7735 20.9295C23.6686 20.9662 23.57 20.9761 23.4841 20.9738C23.3492 21.0252 23.2167 21.0349 23.1041 21.0238C22.9585 21.0561 22.8273 21.0436 22.7172 21.0151C22.7097 21.0214 22.7026 21.0288 22.6947 21.0351C22.5929 21.1155 22.4812 21.1654 22.3691 21.1913C22.3386 21.2699 22.2893 21.3675 22.2035 21.4588C22.1119 21.5563 21.98 21.6469 21.8103 21.6888C21.6696 21.7236 21.5416 21.714 21.4391 21.6907C21.39 21.7318 21.3336 21.7719 21.2653 21.8038C21.0933 21.8844 20.9344 21.8899 20.8016 21.8676L20.7897 21.872C20.6834 21.9083 20.5834 21.9191 20.4916 21.9163C20.4723 21.9335 20.4517 21.9512 20.4291 21.9676C20.2604 22.0897 20.0458 22.1443 19.8303 22.1088C19.8287 22.1086 19.827 22.1079 19.8253 22.1076C19.6947 22.1896 19.5244 22.2472 19.3228 22.2282C19.2995 22.226 19.2771 22.2215 19.2553 22.2176C19.1633 22.2347 19.0627 22.2385 18.9541 22.217L18.9522 22.2163C18.8913 22.2367 18.8252 22.2506 18.7541 22.2557C18.6355 22.3169 18.4887 22.3579 18.3178 22.3432C18.23 22.3357 18.1529 22.3142 18.0866 22.2876C17.9725 22.3039 17.854 22.2963 17.7385 22.2613C17.7284 22.2583 17.7188 22.254 17.7091 22.2507C17.6394 22.2826 17.5603 22.3078 17.4703 22.3201L17.4353 22.3251L17.4222 22.3263C17.3663 22.388 17.2892 22.4552 17.1853 22.5076C17.0375 22.5821 16.8846 22.6029 16.7422 22.5882C16.5872 22.6536 16.4025 22.6765 16.2122 22.6238C16.1677 22.6115 16.1271 22.5954 16.0897 22.5782C16.0364 22.609 15.9753 22.6387 15.9041 22.6588C15.7134 22.7126 15.5238 22.6921 15.3653 22.6251L15.3291 22.6101L15.2928 22.5945C15.2394 22.5719 15.1921 22.5452 15.1503 22.517C15.1103 22.5441 15.0663 22.5711 15.016 22.5926C14.8768 22.6518 14.7222 22.67 14.5703 22.6445C14.4231 22.6739 14.2837 22.6592 14.1616 22.6182C14.0836 22.6364 13.9978 22.6459 13.9053 22.6376C13.8127 22.6293 13.7311 22.6052 13.6603 22.5751C13.6592 22.5754 13.6583 22.5766 13.6572 22.577C13.3809 22.6557 13.1533 22.5754 12.9985 22.4738C12.8566 22.5566 12.6473 22.6199 12.4078 22.5651C12.3066 22.5419 12.2223 22.5021 12.1535 22.4582C12.0918 22.4694 12.0251 22.4765 11.9535 22.4713C11.8157 22.4613 11.6986 22.4179 11.6053 22.3632C11.3641 22.4172 11.118 22.3565 10.9328 22.2107C10.907 22.2024 10.8804 22.1934 10.8541 22.182C10.7995 22.1583 10.7518 22.1294 10.7091 22.0995C10.6755 22.1093 10.6398 22.1181 10.6016 22.1238C10.5005 22.139 10.403 22.133 10.3116 22.1132C10.3073 22.1149 10.3035 22.1178 10.2991 22.1195C10.1907 22.1595 10.0628 22.1795 9.92908 22.1651C9.786 22.1992 9.62648 22.1967 9.47221 22.142C9.37538 22.146 9.27769 22.1322 9.18346 22.1007C9.0762 22.1031 8.95863 22.0856 8.83846 22.032C8.78017 22.0059 8.72953 21.9748 8.68533 21.942C8.45922 21.9553 8.24379 21.878 8.08158 21.7332C7.97309 21.6363 7.90908 21.5286 7.87096 21.4457C7.77976 21.4121 7.6937 21.3638 7.61658 21.2995L7.61221 21.2982L7.57846 21.2882C7.51843 21.2708 7.46473 21.2468 7.41533 21.2207C7.33635 21.2299 7.24843 21.2303 7.15658 21.212C7.00109 21.2732 6.74666 21.3288 6.46596 21.1951L6.43283 21.1795L6.39971 21.1632C6.17897 21.0579 6.06356 20.8893 6.00283 20.7526C5.88693 20.7104 5.79618 20.6494 5.72533 20.5807C5.70545 20.5758 5.6846 20.5725 5.66408 20.5657C5.5227 20.5189 5.40277 20.4361 5.31096 20.3326C5.16234 20.3182 4.9761 20.2611 4.81658 20.1026C4.72481 20.0113 4.66838 19.9125 4.63346 19.8226C4.61289 19.8137 4.59109 19.806 4.57033 19.7951L4.53721 19.7776L4.50346 19.7601C4.3626 19.6858 4.266 19.5905 4.19908 19.4901C4.07188 19.4377 3.93627 19.3457 3.83221 19.1801C3.79805 19.1257 3.77447 19.0708 3.75596 19.0182C3.62715 18.9585 3.49166 18.8555 3.39283 18.6795L3.37408 18.647L3.35596 18.6145C3.2035 18.3428 3.25159 18.0836 3.28408 17.9695C3.26999 17.9588 3.25561 17.9478 3.24158 17.9357C3.08889 17.8902 2.77492 17.7522 2.67971 17.3557C2.61052 17.2586 2.55879 17.1422 2.53908 17.0101C2.53672 16.9942 2.53546 16.9785 2.53408 16.9632C2.49469 16.8814 2.46492 16.7871 2.45658 16.6776C2.4541 16.6449 2.45411 16.6135 2.45533 16.5832C2.42935 16.5063 2.41322 16.4197 2.41346 16.3226C2.41346 16.3201 2.41405 16.3176 2.41408 16.3151C2.38595 16.2477 2.36454 16.1715 2.35533 16.0857L2.35158 16.0501L2.34721 16.0145C2.34661 16.0089 2.34707 16.0031 2.34658 15.9976C2.29552 15.9331 2.2463 15.8528 2.21283 15.7532C2.15848 15.5914 2.16329 15.4378 2.19408 15.3082C2.12844 15.185 2.0851 15.031 2.10096 14.8551C2.1083 14.774 2.12699 14.7016 2.15096 14.6388C2.11943 14.559 2.09604 14.4665 2.09408 14.3601C2.09181 14.2351 2.11821 14.128 2.15533 14.0388C2.14201 13.9741 2.13509 13.9037 2.13971 13.8276C2.14682 13.7102 2.17816 13.6102 2.21783 13.5276C2.18324 13.3995 2.17421 13.2464 2.22971 13.0763C2.23724 13.0533 2.24761 13.0318 2.25658 13.0107C2.17209 12.8823 2.07831 12.669 2.14033 12.3926C2.19961 12.1287 2.3649 11.9774 2.47971 11.9001C2.42337 11.7518 2.38975 11.525 2.49783 11.2863C2.52222 11.2325 2.55113 11.1854 2.58158 11.1438C2.59451 11.0207 2.63073 10.8979 2.69533 10.7838L2.71346 10.752L2.72096 10.7395C2.71946 10.728 2.71698 10.7164 2.71596 10.7045C2.69785 10.4923 2.76448 10.2647 2.92908 10.0895C2.97932 10.036 3.0332 9.99651 3.08346 9.96445C3.08925 9.94251 3.09547 9.92008 3.10346 9.89758C3.11173 9.87428 3.12115 9.85162 3.13096 9.83008C3.13371 9.79798 3.13803 9.76441 3.14533 9.73008C3.19855 9.48024 3.35453 9.30833 3.51408 9.21008C3.52447 9.1889 3.53571 9.1675 3.54846 9.14633C3.58038 9.09328 3.61641 9.04723 3.65408 9.00695C3.65588 8.88036 3.68678 8.73048 3.78721 8.57945C3.82915 8.51638 3.8752 8.46412 3.92346 8.42133C3.95679 8.35966 4.00152 8.2982 4.05971 8.23883C4.12378 8.17346 4.19136 8.1251 4.25783 8.09008C4.2616 8.08568 4.2659 8.08184 4.26971 8.07758C4.31892 7.94699 4.40252 7.82371 4.52408 7.7282C4.51958 7.667 4.51991 7.59614 4.53408 7.51883C4.57396 7.30121 4.70672 7.08668 4.93283 6.95945L4.96596 6.9407L4.99971 6.92195L5.10033 6.87383C5.1107 6.86972 5.12133 6.86679 5.13158 6.8632C5.13466 6.85182 5.13727 6.83979 5.14096 6.8282C5.22937 6.55108 5.44681 6.36984 5.68346 6.3007C5.74663 6.25121 5.81438 6.21286 5.88283 6.1857C5.93799 6.11445 6.00134 6.05682 6.06846 6.01133C6.11119 5.84676 6.23157 5.58562 6.55721 5.46445ZM16.156 21.8888L16.1103 21.8713L16.0022 21.9288L16.1785 21.9957L16.1872 21.9263L16.1485 21.947L16.156 21.8888ZM14.0641 21.9395L14.1147 21.9207L14.126 21.8963L14.0703 21.9257L14.0641 21.9395ZM16.1216 21.8757L16.1097 21.9676L16.1872 21.9263L16.1785 21.9957L16.0022 21.9288L16.1103 21.8713L16.1216 21.8757ZM16.156 21.8888L16.1485 21.947L16.1097 21.9676L16.1216 21.8757L16.156 21.8888ZM14.1147 21.9207L14.0641 21.9395L14.0703 21.9257L14.126 21.8963L14.1147 21.9207ZM14.0597 21.5763L13.9978 21.5901L14.0391 21.6013L14.0597 21.5763ZM16.8616 21.5395L16.7035 21.6345L16.7466 21.5345L16.691 21.5638L16.6453 21.6688L16.6735 21.6526L16.6541 21.6488L16.691 21.5638L16.7466 21.5345L16.7035 21.6345L16.8435 21.5501L16.8985 21.5607L16.8585 21.6332L16.9303 21.5901L17.0072 21.452L16.9347 21.4951L16.9078 21.5445L16.8822 21.5576L16.8547 21.552L16.8616 21.5395ZM16.6735 21.6526L16.6453 21.6688L16.6541 21.6488L16.6735 21.6526ZM10.7435 21.6151L10.771 21.6476L10.7647 21.6051L10.7435 21.6151ZM10.771 21.6476L10.7435 21.6151L10.7647 21.6051L10.771 21.6476ZM17.0072 21.452L16.9303 21.5901L16.8585 21.6332L16.9347 21.4951L17.0072 21.452ZM14.0391 21.6013L13.9978 21.5901L14.0597 21.5763L14.0391 21.6013ZM16.8985 21.5607L16.8822 21.5576L16.9078 21.5445L16.8985 21.5607ZM16.8547 21.552L16.8435 21.5501L16.8616 21.5395L16.8547 21.552ZM18.5328 21.3682L18.3628 21.4701L18.4253 21.4832L18.5328 21.3682ZM18.5078 21.3951L18.4253 21.4832L18.3628 21.4701L18.4928 21.392L18.5078 21.3951ZM19.2553 21.3588L19.1653 21.4176L19.2591 21.4445L19.3647 21.3907L19.2553 21.3588ZM19.3703 21.3926L19.3991 21.4007L19.3722 21.392L19.3703 21.3926ZM19.3072 21.4201L19.2591 21.4445L19.1653 21.4176L19.2147 21.3851L19.3072 21.4201ZM17.1647 21.357L17.1741 21.4432L17.2072 21.4232L17.1978 21.337L17.1647 21.357ZM17.2072 21.4232L17.1741 21.4432L17.1647 21.357L17.1978 21.337L17.2072 21.4232ZM19.3647 21.3907L19.3072 21.4201L19.2147 21.3851L19.2553 21.3588L19.3647 21.3907ZM21.2766 21.1045L21.2385 21.0951L21.2453 21.1445L21.2772 21.112L21.2766 21.1045ZM19.3991 21.4007L19.3703 21.3926L19.3722 21.392L19.3991 21.4007ZM18.5078 21.3951L18.4928 21.392L18.5328 21.3682L18.5078 21.3951ZM8.60221 21.2963L8.68971 21.2776L8.69033 21.2832L8.70033 21.2757L8.68971 21.2776L8.68596 21.2307L8.60221 21.2963ZM14.311 21.3388L14.3478 21.3107L14.3653 21.272L14.311 21.3388ZM14.3478 21.3107L14.311 21.3388L14.3653 21.272L14.3478 21.3107ZM10.001 21.2895L10.0078 21.2938L10.0203 21.2863L10.001 21.2895ZM8.65158 21.2857L8.60221 21.2963L8.64908 21.2595L8.65158 21.2857ZM10.0078 21.2938L10.001 21.2895L10.0203 21.2863L10.0078 21.2938ZM20.6128 21.2463L20.6097 21.2363L20.601 21.2445L20.5735 21.2413L20.5835 21.2707L20.6172 21.2463H20.6128ZM8.68971 21.2776L8.65158 21.2857L8.64908 21.2595L8.68596 21.2307L8.68971 21.2776ZM8.69033 21.2832L8.68971 21.2776L8.70033 21.2757L8.69033 21.2832ZM20.6128 21.2463H20.6172L20.5835 21.2707L20.581 21.2632L20.6097 21.2363L20.6128 21.2463ZM20.601 21.2445L20.581 21.2632L20.5735 21.2413L20.601 21.2445ZM8.69846 21.0607L8.71096 21.0788L8.70908 21.057L8.69846 21.0607ZM21.2766 21.1045L21.2772 21.112L21.2453 21.1445L21.2385 21.0951L21.2766 21.1045ZM10.3978 21.1257L10.3991 21.1263L10.4016 21.1251L10.3978 21.1257ZM8.67658 21.1307L8.67158 21.0707L8.64221 21.0813L8.67658 21.1307ZM8.67658 21.1307L8.64221 21.0813L8.67158 21.0707L8.67658 21.1307ZM10.3991 21.1263L10.3978 21.1257L10.4016 21.1251L10.3991 21.1263ZM21.0047 20.8463L20.9141 20.9107L20.9503 20.9126L21.0203 20.8463H21.0047ZM21.6778 20.9495L21.6366 21.0607L21.6841 21.0632L21.7253 20.952L21.6778 20.9495ZM8.71096 21.0788L8.69846 21.0607L8.70908 21.057L8.71096 21.0788ZM21.7253 20.952L21.6841 21.0632L21.6366 21.0607L21.6778 20.9495L21.7253 20.952ZM20.5303 21.0051L20.531 21.0045L20.5685 21.0063L20.566 20.9982L20.541 20.992L20.531 21.0045H20.5303V21.0051ZM20.566 20.9982L20.5685 21.0063L20.531 21.0045L20.541 20.992L20.566 20.9982ZM21.0203 20.8463L20.9503 20.9126L20.9141 20.9107L21.0047 20.8463H21.0203ZM7.92846 20.7945L7.91408 20.8363L7.95783 20.792L7.92846 20.7945ZM7.95783 20.792L7.91408 20.8363L7.92846 20.7945L7.95783 20.792ZM21.9353 20.3876L21.901 20.4795L21.9616 20.4182L21.9353 20.3876ZM21.9616 20.4182L21.901 20.4795L21.9353 20.3876L21.9616 20.4182ZM7.92596 20.3413L7.90783 20.4032L8.00721 20.3595L8.02971 20.2951L7.92596 20.3413ZM8.00721 20.3595L7.90783 20.4032L7.92596 20.3413L8.02971 20.2951L8.00721 20.3595ZM22.8947 20.0245L22.8997 20.0382L22.9091 20.0257L22.8947 20.0245ZM22.9091 20.0257L22.8997 20.0382L22.8947 20.0245L22.9091 20.0257ZM23.8947 19.6688L23.8285 19.677L23.796 19.7695L23.7347 19.777L23.7416 19.7582L23.7928 19.6813L23.7678 19.6845L23.7416 19.7582L23.7285 19.7776L23.796 19.7695L23.8285 19.677L23.8947 19.6688L23.8816 19.7588L23.9928 19.7451L24.0022 19.5676L23.9078 19.5788L23.8947 19.6688ZM23.7347 19.777L23.7285 19.7776L23.7416 19.7582L23.7347 19.777ZM23.9928 19.7451L23.8816 19.7588L23.8947 19.6688L23.9972 19.6563L23.9928 19.7451ZM23.7416 19.7582L23.7678 19.6845L23.7928 19.6813L23.7416 19.7582ZM23.2403 19.6851L23.1897 19.7557L23.2272 19.7513L23.2403 19.6851ZM23.2403 19.6851L23.2272 19.7513L23.1897 19.7557L23.2403 19.6851ZM24.0366 19.7395L24.0803 19.7345L24.0853 19.6451L24.041 19.6507L24.0366 19.7395ZM24.0803 19.7345L24.0366 19.7395L24.041 19.6507L24.0853 19.6451L24.0803 19.7345ZM23.9972 19.6563L23.8947 19.6688L23.9078 19.5788L24.0022 19.5676L23.9972 19.6563ZM24.5047 19.5957L24.5066 19.5932H24.5041L24.5047 19.5957ZM24.5047 19.5957L24.5041 19.5932H24.5066L24.5047 19.5957ZM23.9391 19.3657L23.9178 19.4251L24.0078 19.4538L24.0103 19.407L23.936 19.3838L23.9391 19.3657ZM23.936 19.3838L24.0103 19.407L24.0078 19.4538L23.9178 19.4251L23.9391 19.3657L23.936 19.3838ZM24.3547 19.2126V19.2113L24.3516 19.2126H24.3547ZM4.85971 19.2451L4.92033 19.2357L4.87033 19.2257L4.85971 19.2451ZM4.92033 19.2357L4.85971 19.2451L4.87033 19.2257L4.92033 19.2357ZM24.3547 19.2126H24.3516L24.3547 19.2113V19.2126ZM5.31096 19.1282L5.32158 19.127L5.31408 19.1095L5.31096 19.1282ZM5.32158 19.127L5.31096 19.1282L5.31408 19.1095L5.32158 19.127ZM25.3297 18.7526L25.326 18.7607L25.3316 18.7582L25.3297 18.7526ZM24.9291 19.0945L24.9503 19.0845L24.946 19.0663L24.9291 19.0945ZM24.9503 19.0845L24.9291 19.0945L24.946 19.0663L24.9503 19.0845ZM5.34158 18.9388L5.33158 19.0001L5.37221 19.0063L5.38221 18.9451L5.34158 18.9388ZM5.38221 18.9451L5.37221 19.0063L5.33158 19.0001L5.34158 18.9388L5.38221 18.9451ZM25.3316 18.7582L25.326 18.7607L25.3297 18.7526L25.3316 18.7582ZM5.14408 18.6251L5.11721 18.6757L5.16971 18.6576L5.19658 18.607L5.14408 18.6251ZM5.16971 18.6576L5.11721 18.6757L5.14408 18.6251L5.19658 18.607L5.16971 18.6576ZM25.1516 18.5051L25.1666 18.4995L25.1941 18.4545L25.151 18.4663L25.1516 18.5051ZM25.461 18.4207L25.4491 18.4507L25.5672 18.417L25.5822 18.3801L25.461 18.4207ZM25.1666 18.4995L25.1516 18.5051L25.151 18.4663L25.1941 18.4545L25.1666 18.4995ZM25.5672 18.417L25.4491 18.4507L25.461 18.4207L25.5822 18.3801L25.5672 18.417ZM25.1185 18.2782L25.1491 18.3476V18.352L25.1866 18.3376L25.1972 18.3613V18.3338L25.1866 18.3376L25.1528 18.2613L25.1185 18.2782ZM25.1972 18.3613L25.1866 18.3376L25.1972 18.3338V18.3613ZM25.1866 18.3376L25.1491 18.352L25.1478 18.2632L25.1528 18.2613L25.1866 18.3376ZM25.1491 18.3476L25.1185 18.2782L25.1478 18.2632L25.1491 18.3476ZM25.8597 18.1451L25.8447 18.2007L25.8647 18.1951L25.8597 18.1451ZM25.8647 18.1951L25.8447 18.2007L25.856 18.1576L25.8603 18.1563L25.8647 18.1951ZM25.8603 18.1563L25.856 18.1576L25.8597 18.1451L25.8603 18.1563ZM3.59221 17.6045L3.65658 17.6263L3.59033 17.5845L3.59221 17.6045ZM3.65658 17.6263L3.59221 17.6045L3.59033 17.5845L3.65658 17.6263ZM25.9591 17.5882L25.961 17.6045L25.9878 17.5826L25.9591 17.5882ZM25.961 17.6045L25.9591 17.5882L25.9878 17.5826L25.961 17.6045ZM3.39096 17.2913L3.43783 17.3013L3.43283 17.2526L3.39533 17.2445L3.39096 17.2913ZM3.43283 17.2526L3.43783 17.3013L3.39096 17.2913L3.39533 17.2445L3.43283 17.2526ZM26.8753 16.6776L26.8841 16.7182L26.9391 16.6726L26.8753 16.6776ZM26.2953 16.6826H26.3003L26.2991 16.6807L26.2953 16.6826ZM26.8841 16.7182L26.8753 16.6776L26.9391 16.6726L26.8841 16.7182ZM26.6216 16.657L26.6247 16.6976L26.6985 16.692L26.6953 16.6513L26.6216 16.657ZM26.6985 16.692L26.6247 16.6976L26.6216 16.657L26.6953 16.6513L26.6985 16.692ZM26.3003 16.6826H26.2953L26.2991 16.6807L26.3003 16.6826ZM26.3641 16.5695L26.4728 16.5682L26.5335 16.5288L26.4253 16.5301L26.3641 16.5695ZM26.4728 16.5682L26.3641 16.5695L26.4253 16.5301L26.5335 16.5288L26.4728 16.5682ZM26.6416 16.2245L26.5872 16.2563L26.5922 16.3151L26.6628 16.2738L26.6566 16.1995L26.6416 16.2245ZM26.6628 16.2738L26.5922 16.3151L26.5916 16.3088L26.6416 16.2245L26.6578 16.2151L26.6628 16.2738ZM26.5916 16.3088L26.5872 16.2563L26.6416 16.2245L26.5916 16.3088ZM26.9085 16.1301V16.1501L27.0385 16.0663V16.0538L26.9085 16.1301ZM26.9066 16.0163L26.8022 16.192L26.8297 16.1763L26.8247 16.1545L26.8585 16.097L26.9072 16.0688L26.9066 16.0163ZM26.6578 16.2151L26.6416 16.2245L26.6566 16.1995L26.6578 16.2151ZM26.8297 16.1763L26.8022 16.192L26.8247 16.1545L26.8297 16.1763ZM27.0385 16.0663L26.9085 16.1501V16.1301L27.0385 16.0538V16.0663ZM26.9072 16.0688L26.8585 16.097L26.9066 16.0163L26.9072 16.0688ZM26.6491 15.9738L26.7041 15.9288L26.6966 15.8945L26.6491 15.9738ZM3.43846 15.9332L3.46721 15.9301L3.46908 15.9126L3.44283 15.8995L3.43846 15.9332ZM26.7041 15.9288L26.6491 15.9738L26.6966 15.8945L26.7041 15.9288ZM3.46908 15.9126L3.46721 15.9301L3.43846 15.9332L3.44283 15.8995L3.46908 15.9126ZM27.086 15.692L27.0935 15.7007L27.111 15.672L27.086 15.692ZM27.0935 15.7007L27.086 15.692L27.111 15.672L27.0935 15.7007ZM27.156 15.4545L27.1691 15.4663L27.1872 15.4513L27.156 15.4545ZM3.10346 15.4207L3.10596 15.4251L3.11471 15.4051L3.10346 15.4207ZM27.1691 15.4663L27.156 15.4545L27.1872 15.4513L27.1691 15.4663ZM27.0947 15.4607L27.0997 15.4601L27.0966 15.4576L27.0947 15.4607ZM27.0997 15.4601L27.0947 15.4607L27.0966 15.4576L27.0997 15.4601ZM27.0285 15.3345L27.0028 15.3776L27.0291 15.4007L27.0285 15.3345ZM3.10596 15.4251L3.10346 15.4207L3.11471 15.4051L3.10596 15.4251ZM27.0285 15.3345L27.0291 15.4007L27.0028 15.3776L27.0285 15.3345ZM3.19346 15.1201L3.21721 15.1695L3.20971 15.1863L3.26471 15.1101L3.19346 15.1201ZM3.26471 15.1101L3.20971 15.1863L3.24158 15.1132L3.26471 15.1101ZM3.21721 15.1695L3.19346 15.1201L3.24158 15.1132L3.21721 15.1695ZM27.2241 15.0045L27.2447 14.9976L27.2391 14.9788L27.2241 15.0045ZM2.85158 15.0276L2.85408 15.0307L2.85658 15.0238L2.85158 15.0276ZM2.85408 15.0307L2.85158 15.0276L2.85658 15.0238L2.85408 15.0307ZM27.2447 14.9976L27.2241 15.0045L27.2391 14.9788L27.2447 14.9976ZM26.966 14.7757L26.9653 14.7763L27.0053 14.8813L27.0635 14.8288L27.0066 14.6807L26.966 14.7757ZM27.0066 14.6807L27.0635 14.8288L27.0053 14.8813L26.9653 14.777L27.0066 14.6807ZM26.8616 14.5182L26.866 14.5176L26.9147 14.6451L26.9453 14.5738L26.9641 14.5695L26.956 14.5488L26.9628 14.5326L26.951 14.5351L26.956 14.5488L26.9147 14.6451L26.8641 14.5126L26.8616 14.5182ZM3.15908 14.4732L3.19908 14.5932L3.26908 14.4145L3.22908 14.2951L3.15908 14.4732ZM3.34346 14.6357L3.35721 14.677L3.39221 14.597L3.34346 14.6357ZM3.35721 14.677L3.34346 14.6357L3.39221 14.597L3.35721 14.677ZM27.396 14.3951L27.1866 14.4432L27.1785 14.4501L27.1766 14.4457H27.176L27.1772 14.4513L27.1291 14.4938L27.1866 14.4807L27.1941 14.5051L27.2341 14.4695L27.3385 14.4457L27.396 14.3951ZM27.061 14.5545L27.0722 14.5451L27.0641 14.5463L27.061 14.5545ZM3.32596 14.5826L3.31658 14.6032L3.32908 14.5932L3.32596 14.5826ZM3.32908 14.5932L3.31658 14.6032L3.32596 14.5826L3.32908 14.5932ZM3.26908 14.4145L3.19908 14.5932L3.15908 14.4732L3.22908 14.2951L3.26908 14.4145ZM26.9641 14.5695L26.9453 14.5738L26.956 14.5488L26.9641 14.5695ZM2.90033 14.5145L2.90846 14.5045L2.89096 14.4951L2.90033 14.5145ZM27.061 14.5545L27.0641 14.5463L27.0722 14.5451L27.061 14.5545ZM26.956 14.5488L26.951 14.5351L26.9628 14.5326L26.956 14.5488ZM26.866 14.5176L26.8616 14.5182L26.8641 14.5126L26.866 14.5176ZM2.90846 14.5045L2.90033 14.5145L2.89096 14.4951L2.90846 14.5045ZM27.3385 14.4457L27.2341 14.4695L27.1941 14.5051L27.1866 14.4807L27.1291 14.4938L27.1866 14.4432L27.396 14.3951L27.3385 14.4457ZM27.1785 14.4501L27.1772 14.4513L27.176 14.4457H27.1766L27.1785 14.4501ZM3.18783 14.172L3.18908 14.1757L3.19283 14.1663L3.18783 14.172ZM3.18908 14.1757L3.18783 14.172L3.19283 14.1663L3.18908 14.1757ZM26.9178 13.9345L26.9222 13.9438L26.926 13.9351L26.9178 13.9345ZM27.2847 13.6695L27.3047 13.7338L27.3372 13.6588L27.2847 13.6695ZM27.171 13.7713L27.1753 13.7851L27.2191 13.6832L27.2047 13.6857L27.171 13.7713ZM26.926 13.9351L26.9222 13.9438L26.9178 13.9345L26.926 13.9351ZM27.1753 13.7851L27.171 13.7713L27.2047 13.6857L27.2191 13.6832L27.1753 13.7851ZM27.3047 13.7338L27.2847 13.6695L27.3372 13.6588L27.3047 13.7338ZM27.1185 13.4482L27.0066 13.6907L27.0235 13.6876L27.0385 13.6488L27.1372 13.6288L27.1216 13.667L27.1372 13.6638L27.131 13.6438L27.1372 13.6288L27.0385 13.6488L27.1185 13.4482ZM27.0235 13.6876L27.0066 13.6907L27.0247 13.652L27.0385 13.6488L27.0235 13.6876ZM27.1372 13.6638L27.1216 13.667L27.131 13.6438L27.1372 13.6638ZM27.1185 13.4482L27.0385 13.6488L27.0247 13.652L27.1185 13.4482ZM3.31408 13.072L3.29846 13.097L3.31908 13.1445L3.33471 13.1157L3.31408 13.072ZM3.33471 13.1157L3.31908 13.1445L3.29846 13.097L3.31408 13.072L3.33471 13.1157ZM27.0622 12.962L27.0647 12.9701L27.0728 12.9645L27.0622 12.962ZM27.0728 12.9645L27.0647 12.9701L27.0622 12.962L27.0728 12.9645ZM27.3972 12.7388L27.4303 12.7157L27.4078 12.7126L27.3972 12.7388ZM27.4303 12.7157L27.3972 12.7388L27.4078 12.7126L27.4303 12.7157ZM26.9141 12.6851L26.9116 12.697L26.9191 12.6857L26.9141 12.6851ZM26.9191 12.6857L26.9116 12.697L26.9141 12.6851L26.9191 12.6857ZM3.01158 12.6207L3.01783 12.6051L2.99471 12.5832L3.01158 12.6207ZM3.01783 12.6051L3.01158 12.6207L2.99471 12.5832L3.01783 12.6051ZM3.53971 12.2188V12.2232L3.54221 12.2226L3.53971 12.2188L3.54096 12.1776L3.51971 12.1857L3.53971 12.2188ZM3.54221 12.2226L3.53971 12.2232V12.2188L3.54221 12.2226ZM3.53971 12.2188L3.51971 12.1857L3.54096 12.1776L3.53971 12.2188ZM26.7185 12.0663L26.7178 12.0795L26.726 12.0707L26.7185 12.0663ZM26.726 12.0707L26.7178 12.0795L26.7185 12.0663L26.726 12.0707ZM3.83033 11.2413V11.2576L3.84346 11.2413H3.83033ZM3.83033 11.2576V11.2413H3.84346L3.83033 11.2576ZM3.53971 11.2207L3.52658 11.2413L3.54158 11.2213L3.53971 11.2207ZM3.54158 11.2213L3.52658 11.2413L3.53971 11.2207L3.54158 11.2213ZM3.73346 10.9601L3.75408 10.9326L3.77658 10.6545L3.72846 10.7195L3.73346 10.9601ZM3.75408 10.9326L3.73346 10.9601L3.72846 10.7195L3.77658 10.6545L3.75408 10.9326ZM3.82721 10.3101L3.80783 10.2595L3.79846 10.3732L3.78033 10.3257L3.68783 10.3551L3.67221 10.5488L3.72346 10.4788L3.72096 10.3445L3.78033 10.3257L3.79846 10.3732L3.80283 10.3182L3.81096 10.3157L3.80971 10.2651L3.83408 10.3282L3.85346 10.302L3.82721 10.3101ZM3.72346 10.4788L3.67221 10.5488L3.68783 10.3551L3.72096 10.3445L3.72346 10.4788ZM3.83408 10.3282L3.82721 10.3101L3.85346 10.302L3.83408 10.3282ZM3.81096 10.3157L3.80283 10.3182L3.80721 10.2657L3.80971 10.2651L3.81096 10.3157ZM4.11533 10.1932L4.04971 10.2432L4.04346 10.2907L4.11533 10.1932ZM4.09158 10.2251L4.04346 10.2907L4.04971 10.2432L4.06033 10.2351L4.09158 10.2251ZM3.80971 10.2651L3.80721 10.2657L3.80783 10.2595L3.80971 10.2651ZM4.09158 10.2251L4.06033 10.2351L4.11533 10.1932L4.09158 10.2251ZM25.6422 10.0976L25.611 10.1113L25.6178 10.1101L25.5941 10.1588L25.6191 10.1482L25.5972 10.1526L25.6178 10.1101L25.611 10.1113L25.6422 10.0976L25.6285 10.1076L25.6703 10.0988L25.686 10.0663L25.6422 10.0976ZM25.5941 10.1588L25.5972 10.1526L25.6191 10.1482L25.5941 10.1588ZM25.6547 10.132L25.6535 10.1345L25.6603 10.1295L25.6547 10.132ZM25.6535 10.1345L25.6547 10.132L25.6603 10.1295L25.6535 10.1345ZM25.6703 10.0988L25.6285 10.1076L25.6422 10.0976L25.6785 10.082L25.6703 10.0988ZM25.6785 10.082L25.6422 10.0976L25.686 10.0663L25.6785 10.082ZM4.52908 9.64883L4.44783 9.68445L4.44096 9.71258L4.53908 9.68258L4.52908 9.64883ZM4.49408 9.69633L4.44096 9.71258L4.44783 9.68445L4.48596 9.66758L4.49408 9.69633ZM4.53908 9.68258L4.49408 9.69633L4.48596 9.66758L4.52908 9.64883L4.53908 9.68258ZM4.04908 9.65695L4.12596 9.64695L4.13221 9.6007L4.11971 9.60258L4.04908 9.65695ZM4.12596 9.64695L4.04908 9.65695L4.11971 9.60258L4.13221 9.6007L4.12596 9.64695ZM25.2572 9.4432L25.2872 9.4407L25.2891 9.42508L25.2572 9.4432ZM25.2872 9.4407L25.2572 9.4432L25.2891 9.42508L25.2872 9.4407ZM25.3466 9.39258L25.3416 9.39508L25.346 9.39445L25.3466 9.39258ZM26.3235 9.34445L26.271 9.34945L26.2391 9.39195L26.2916 9.38758L26.3235 9.34445ZM25.346 9.39445L25.3416 9.39508L25.3466 9.39258L25.346 9.39445ZM26.2916 9.38758L26.2391 9.39195L26.271 9.34945L26.3235 9.34445L26.2916 9.38758ZM4.45033 9.21508L4.41283 9.24383L4.41471 9.24633L4.45158 9.22008L4.45033 9.21508ZM4.16596 9.17633L4.18096 9.2157L4.18846 9.1607L4.16596 9.17633ZM4.45158 9.22008L4.41471 9.24633L4.41283 9.24383L4.45033 9.21508L4.45158 9.22008ZM4.18096 9.2157L4.16596 9.17633L4.18846 9.1607L4.18096 9.2157ZM5.06596 8.7407L5.05158 8.79695L5.08783 8.77133L5.08596 8.85758L5.14658 8.8107L5.14846 8.72883L5.05158 8.79695L5.06408 8.74633L5.08846 8.73133V8.7232L5.06596 8.7407ZM4.94346 8.71445L4.92971 8.7607L4.97283 8.73008L4.98283 8.69008L4.94346 8.71445ZM4.83971 8.67195L4.79846 8.69695L4.78846 8.73695L4.82846 8.70883L4.83971 8.67195ZM5.14658 8.8107L5.08596 8.85758L5.08783 8.77133L5.14846 8.72883L5.14658 8.8107ZM4.97283 8.73008L4.92971 8.7607L4.94346 8.71445L4.98283 8.69008L4.97283 8.73008ZM5.08846 8.73133L5.06408 8.74633L5.06596 8.7407L5.08846 8.7232V8.73133ZM4.82846 8.70883L4.78846 8.73695L4.79846 8.69695L4.83971 8.67195L4.82846 8.70883ZM5.09221 8.5157L5.12658 8.49445L5.12533 8.49945L5.17158 8.46695L5.15283 8.4782L5.15533 8.38008L5.13283 8.46945L5.09283 8.49445L5.09221 8.5157ZM5.12658 8.49445L5.09221 8.5157L5.09283 8.49445L5.13283 8.46945L5.12658 8.49445ZM5.15283 8.48008L5.12533 8.49945L5.12658 8.49445L5.15283 8.4782V8.48008ZM5.15283 8.4782L5.12658 8.49445L5.13283 8.46945L5.15346 8.45695L5.15283 8.4782ZM5.15283 8.48008V8.4782L5.17158 8.46695L5.15283 8.48008ZM24.6535 8.36945L24.6185 8.41883L24.6616 8.42008L24.6666 8.41258L24.6535 8.36945ZM5.15346 8.45695L5.13283 8.46945L5.15533 8.38008L5.15346 8.45695ZM24.6666 8.41258L24.6616 8.42008L24.6185 8.41883L24.6535 8.36945L24.6666 8.41258ZM5.36658 8.29383L5.34721 8.33695L5.36846 8.32383L5.36658 8.29383ZM5.36846 8.32383L5.34721 8.33695L5.36658 8.29383L5.36846 8.32383ZM5.30971 8.23445L5.32096 8.23945L5.35721 8.21695L5.30658 8.19258L5.30971 8.23445ZM5.35721 8.21695L5.32096 8.23945L5.30971 8.23445L5.30658 8.19258L5.35721 8.21695ZM5.13596 8.0707L5.16096 8.05445L5.16346 7.96258L5.13596 8.0707ZM5.16096 8.05445L5.13596 8.0707L5.16346 7.96258L5.16096 8.05445ZM5.22346 7.8007L5.27346 7.78133L5.26721 7.6982L5.21658 7.71758L5.22346 7.8007ZM5.27346 7.78133L5.22346 7.8007L5.21658 7.71758L5.26721 7.6982L5.27346 7.78133ZM5.81158 7.58195L5.78783 7.63508L5.83283 7.60508L5.81158 7.58195ZM5.83283 7.60508L5.78783 7.63508L5.81158 7.58195L5.83283 7.60508ZM6.19096 7.15633L6.18158 7.16008L6.17658 7.1707L6.28408 7.13758L6.28846 7.1307L6.19096 7.15633ZM23.7928 7.29008L23.7591 7.32758L23.7947 7.34195L23.8085 7.32633L23.7928 7.29008ZM5.99783 7.13633L6.01033 7.1332L5.95783 7.25195L6.02783 7.2232L6.03158 7.2157L5.96471 7.2357L6.01033 7.1332L6.07971 7.11508L6.08721 7.10008L5.99783 7.13633ZM23.8085 7.32633L23.7947 7.34195L23.7591 7.32758L23.7928 7.29008L23.8085 7.32633ZM24.1247 7.1357L24.201 7.1657L24.1991 7.06445L24.1322 7.0382L24.1247 7.1357ZM6.02783 7.2232L5.95783 7.25195L5.96471 7.2357L6.03158 7.2157L6.02783 7.2232ZM23.9822 7.12883L24.0297 7.1457L24.0335 7.09945L24.0147 7.09195L23.9822 7.12883ZM6.28408 7.13758L6.17658 7.1707L6.18158 7.16008L6.19096 7.15633L6.28846 7.1307L6.28408 7.13758ZM24.1991 7.06445L24.201 7.1657L24.1247 7.1357L24.1322 7.0382L24.1991 7.06445ZM24.0335 7.09945L24.0297 7.1457L23.9822 7.12883L24.0147 7.09195L24.0335 7.09945ZM6.01033 7.1332L5.99783 7.13633L6.01158 7.1307L6.01033 7.1332ZM6.07971 7.11508L6.01033 7.1332L6.01158 7.1307L6.08721 7.10008L6.07971 7.11508ZM23.5997 6.82758L23.5985 6.8382L23.6072 6.83008L23.5997 6.82758ZM23.6072 6.83008L23.5985 6.8382L23.5997 6.82758L23.6072 6.83008ZM6.61846 6.78258L6.62971 6.7782L6.64783 6.74633L6.63283 6.7457L6.61846 6.78258ZM6.64783 6.74633L6.62971 6.7782L6.61846 6.78258L6.63283 6.7457L6.64783 6.74633ZM6.83158 6.45008L6.82471 6.46758L6.88783 6.43195L6.83158 6.45008ZM6.82471 6.46758L6.83158 6.45008L6.88783 6.43195L6.82471 6.46758ZM15.2028 1.94945C15.4077 1.94037 15.5674 2.00812 15.6853 2.0907C15.7978 2.01626 15.9574 1.94702 16.1635 1.95383C16.2234 1.95581 16.2789 1.9641 16.3303 1.97633C16.38 1.97054 16.433 1.96831 16.4891 1.97258C16.6202 1.98255 16.7288 2.02055 16.8185 2.07008C16.8763 2.07677 16.9367 2.08772 16.9985 2.10883L17.0328 2.1207L17.0678 2.13258C17.102 2.14425 17.1344 2.15854 17.166 2.1732C17.1909 2.17027 17.2166 2.16566 17.2435 2.16508C17.4272 2.16106 17.6003 2.21916 17.7397 2.32008C17.752 2.32899 17.7627 2.33958 17.7741 2.34883C17.9607 2.37048 18.1147 2.45414 18.2272 2.55758C18.2533 2.56838 18.2803 2.57898 18.3066 2.5932C18.3105 2.5953 18.314 2.59856 18.3178 2.6007C18.4295 2.57002 18.5624 2.555 18.711 2.58695L18.7903 2.6082L18.8253 2.61945L18.8597 2.63008C18.9552 2.66021 19.0354 2.70474 19.1041 2.75445C19.1308 2.76176 19.1585 2.76998 19.186 2.7807C19.3216 2.8336 19.4213 2.91402 19.4941 2.9957C19.5599 2.99976 19.6301 3.01284 19.7035 3.0382C19.8269 3.03199 19.9678 3.05246 20.1153 3.1257L20.1803 3.1582C20.2075 3.17172 20.2343 3.18602 20.2603 3.20133L20.3378 3.2507L20.3978 3.29195C20.4923 3.3567 20.5617 3.43233 20.6128 3.50633C20.8496 3.60318 20.9878 3.79277 21.0497 3.94008C21.0953 4.04867 21.1091 4.14867 21.1135 4.21633C21.1594 4.35454 21.1683 4.50719 21.1297 4.65883C21.0222 5.08011 20.5936 5.33477 20.1722 5.22758L20.1097 5.21133L19.4153 5.03445L19.4485 4.81945C19.4437 4.81454 19.4386 4.81002 19.4341 4.80508C19.3146 4.85226 19.0845 4.91206 18.8228 4.8032C18.6834 4.74518 18.5833 4.6601 18.5122 4.57383C18.4265 4.51821 18.3597 4.44969 18.3078 4.38133C18.2284 4.39901 18.1363 4.40841 18.0341 4.39695C17.7918 4.36978 17.6125 4.24526 17.4972 4.11133C17.4172 4.11461 17.3299 4.1071 17.2385 4.0807C17.0466 4.02522 16.9125 3.9113 16.8291 3.8082L16.8016 3.77445L16.7835 3.75195L16.7547 3.74195C16.727 3.73251 16.7 3.72211 16.6741 3.7107C16.5856 3.72391 16.4881 3.72366 16.3841 3.7007C16.379 3.70593 16.375 3.71233 16.3697 3.71758C16.3076 3.77862 16.1789 3.88652 15.9816 3.93383C15.8477 3.96586 15.7152 3.96149 15.5928 3.93008C15.5083 3.95071 15.4126 3.96048 15.3066 3.94758C15.2109 3.93591 15.1285 3.90761 15.0578 3.87383C15.0047 3.88027 14.9497 3.88133 14.8928 3.87633C14.7844 3.90184 14.6796 3.90214 14.5828 3.88633C14.467 3.91124 14.3606 3.90719 14.266 3.8882C14.1858 3.90037 14.1 3.90076 14.0085 3.88445C13.9424 3.89628 13.8704 3.90012 13.7922 3.8932C13.7771 3.89186 13.7623 3.88779 13.7478 3.8857C13.7149 3.9002 13.68 3.91378 13.6422 3.92445C13.5542 3.98975 13.4436 4.04637 13.3053 4.07383L13.2716 4.08008L13.2372 4.08695C13.1191 4.11041 13.0117 4.10726 12.9166 4.08883C12.8936 4.09781 12.8698 4.10653 12.8447 4.11383C12.8396 4.11532 12.8342 4.11619 12.8291 4.11758C12.7264 4.19209 12.6 4.24882 12.4541 4.26633C12.4119 4.27138 12.3713 4.27193 12.3328 4.2707C12.2101 4.36189 12.0694 4.41492 11.9253 4.43008C11.8139 4.55872 11.6432 4.67938 11.4041 4.70508C11.2924 4.71705 11.1938 4.70367 11.1116 4.68195C11.052 4.68834 10.9943 4.68916 10.9397 4.68445C10.8661 4.73761 10.7776 4.78062 10.6716 4.80695C10.6552 4.83477 10.637 4.86324 10.6153 4.89133C10.5836 4.99059 10.5228 5.12154 10.3991 5.2382C10.201 5.4248 9.96049 5.46982 9.77408 5.45383C9.7552 5.46827 9.73659 5.48415 9.71533 5.49758C9.29963 5.75983 8.91484 5.54576 8.79533 5.4557L8.76596 5.43383L8.43908 5.18758L8.44408 5.03445C8.43931 5.0216 8.43385 5.00893 8.42971 4.9957C8.30327 4.59197 8.51845 4.16357 8.91221 4.0207C8.9143 4.01927 8.91633 4.01774 8.91846 4.01633C9.01264 3.88636 9.13889 3.79076 9.28096 3.73633C9.29968 3.6955 9.323 3.65233 9.35283 3.60945C9.44792 3.47289 9.58698 3.3642 9.75346 3.30695C9.83739 3.2403 9.94365 3.18434 10.0791 3.15383C10.138 3.14056 10.1944 3.13518 10.2466 3.13445C10.2824 3.11869 10.3206 3.10417 10.3616 3.09258L10.396 3.08258L10.431 3.07258C10.5249 3.046 10.6155 3.03749 10.6991 3.03883C10.7976 2.89648 10.9609 2.74961 11.2303 2.70633L11.2666 2.7007L11.3028 2.69445L11.3728 2.68633C11.4651 2.67873 11.5503 2.68773 11.6266 2.70258C11.6806 2.6565 11.746 2.61384 11.8235 2.57945C11.8858 2.51151 11.9663 2.44493 12.0735 2.39508C12.1478 2.36049 12.2196 2.33987 12.2878 2.32883C12.4031 2.2607 12.5453 2.21388 12.7122 2.21758C12.7943 2.21941 12.8675 2.23411 12.9316 2.25383C13.0471 2.11813 13.2443 1.96624 13.5503 1.96633H13.6247C13.7575 1.96641 13.87 1.99805 13.9622 2.04008C14.0616 2.03962 14.1487 2.05832 14.2247 2.08445C14.3008 2.05155 14.3894 2.02784 14.4916 2.02133C14.5997 2.01444 14.6949 2.03008 14.7778 2.0557C14.8505 2.01758 14.9357 1.98522 15.036 1.97008L15.0722 1.96445L15.1091 1.95883L15.2028 1.94945ZM9.45471 4.83695L9.44658 4.87008L9.47158 4.8407L9.45471 4.83695ZM9.47158 4.8407L9.44658 4.87008L9.45471 4.83695L9.47158 4.8407ZM10.2853 4.0882L10.1372 4.29445L10.2347 4.28695L10.3053 4.18883L10.2078 4.19633L10.2778 4.0982L10.3228 4.09445L10.2853 4.0882ZM19.9585 4.39383L19.9441 4.41883L19.9653 4.45445L19.996 4.39945L19.9585 4.39383ZM19.996 4.39945L19.9653 4.45445L19.9441 4.41883L19.9585 4.39383L19.996 4.39945ZM10.8497 4.18883L10.8953 4.19695L10.9128 4.13883L10.8672 4.1307L10.8497 4.18883ZM10.2347 4.28695L10.1372 4.29445L10.2078 4.19633L10.3053 4.18883L10.2347 4.28695ZM20.0685 4.10883L20.0922 4.1532L20.1178 4.10758L20.0685 4.10883ZM10.9128 4.13883L10.8953 4.19695L10.8497 4.18883L10.8672 4.1307L10.9128 4.13883ZM20.0922 4.1532L20.0685 4.10883L20.1178 4.10758L20.0922 4.1532ZM18.981 4.01758L18.9428 4.0307L18.941 4.06758L18.9791 4.05383L18.981 4.01758ZM10.3228 4.09445L10.2778 4.0982L10.2853 4.0882L10.3228 4.09445ZM18.9791 4.05383L18.941 4.06758L18.9428 4.0307L18.981 4.01758L18.9791 4.05383ZM20.0728 3.70008L20.1303 3.6807L20.1797 3.60883L20.1222 3.6282L20.0728 3.70008ZM20.1303 3.6807L20.0728 3.70008L20.1222 3.6282L20.1797 3.60883L20.1303 3.6807ZM18.5885 3.58883L18.5572 3.5882L18.551 3.60758L18.5885 3.58883ZM17.371 3.39695L17.361 3.3782L17.3185 3.41195L17.371 3.39695ZM18.5885 3.58883L18.551 3.60758L18.5572 3.5882L18.5885 3.58883ZM12.0203 3.5582L12.0378 3.5707L12.0591 3.5557L12.0203 3.5582ZM12.0378 3.5707L12.0203 3.5582L12.0591 3.5557L12.0378 3.5707ZM12.571 3.2932L12.5185 3.35945L12.4491 3.40883L12.4791 3.40945L12.571 3.2932L12.6078 3.2957L12.691 3.23695L12.6441 3.29633L12.6047 3.2957L12.6422 3.2982L12.691 3.23695L12.6078 3.2957L12.571 3.2932ZM17.371 3.39695L17.3185 3.41195L17.361 3.3782L17.371 3.39695ZM12.4791 3.40945L12.4491 3.40883L12.5185 3.35945L12.4791 3.40945ZM16.6041 3.34383L16.616 3.3407L16.6241 3.31758L16.6041 3.34383ZM16.616 3.3407L16.6041 3.34383L16.6241 3.31758L16.616 3.3407ZM12.6441 3.29633L12.6422 3.2982L12.6047 3.2957L12.6441 3.29633ZM11.9678 3.2507L11.946 3.2832L12.016 3.28445L12.0353 3.25508L11.9678 3.2507ZM12.0353 3.25508L12.016 3.28445L11.946 3.2832L11.9678 3.2507L12.0353 3.25508ZM13.3085 3.2382L13.3328 3.23945L13.3135 3.23008L13.3085 3.2382ZM13.3328 3.23945L13.3085 3.2382L13.3135 3.23008L13.3328 3.23945ZM17.7078 3.0407L17.721 3.03758L17.7185 3.03195L17.7078 3.0407ZM15.8222 3.02195L15.7385 3.06633L15.7597 3.07945L15.841 3.0332L15.8222 3.02195ZM15.841 3.0332L15.7597 3.07945L15.7385 3.06633L15.8222 3.02195L15.841 3.0332ZM17.721 3.03758L17.7078 3.0407L17.7185 3.03195L17.721 3.03758ZM13.186 2.89633L13.1741 2.8932L13.021 3.00133L13.001 2.90008L12.961 2.89508L12.926 2.9382L12.9835 2.8982L13.001 2.90008L13.0235 3.01445L13.0597 3.01945H13.0603L13.0522 2.97945L13.1353 2.92008L13.1578 2.9232L13.186 2.89633ZM13.0603 3.01945H13.0597L13.0235 3.01445L13.021 3.00133L13.0522 2.97945L13.0603 3.01945ZM14.0603 2.94883L14.0397 2.94195L14.0378 2.94258L14.0603 2.94883ZM14.0603 2.94883L14.0378 2.94258L14.0397 2.94195L14.0603 2.94883ZM13.5497 2.92508L13.5722 2.8882L13.5497 2.88258V2.92508ZM12.9835 2.8982L12.926 2.9382L12.961 2.89508L12.9835 2.8982ZM13.5722 2.8882L13.5497 2.92508V2.88258L13.5722 2.8882ZM13.186 2.89633L13.1578 2.9232L13.1353 2.92008L13.1741 2.8932L13.186 2.89633Z" fill="var(--fill-0, black)"/>
<path id="Vector 1 (Stroke)" d="M5.51145 11.1178C5.9316 11.0053 6.36323 11.2546 6.47582 11.6747C6.54333 11.9266 6.47985 12.1819 6.32832 12.3709C6.29614 12.4441 6.24328 12.5398 6.15332 12.6278C6.0617 12.7174 5.92317 12.8084 5.73895 12.8422C5.6758 12.8538 5.61561 12.8548 5.55895 12.8522C5.50858 12.8707 5.45561 12.8845 5.4002 12.8928C5.32617 12.9366 5.24498 12.9689 5.15895 12.9872C5.07265 13.0491 4.96402 13.1008 4.82645 13.1234C4.72932 13.1394 4.6408 13.1349 4.56332 13.1216C4.56196 13.1226 4.56095 13.1243 4.55957 13.1253C4.36978 13.2655 4.14482 13.3031 3.94457 13.2666C3.88933 13.3076 3.82451 13.3453 3.7477 13.3741C3.59281 13.432 3.45247 13.4348 3.33395 13.4134C3.24793 13.4348 3.16058 13.4415 3.0752 13.4347C3.00336 13.4988 2.91185 13.5592 2.7927 13.5978C2.72066 13.6212 2.65209 13.6331 2.5877 13.6366C2.52722 13.684 2.45435 13.728 2.36645 13.7603L2.2402 13.8066C2.24272 13.8056 2.24532 13.8051 2.2477 13.8041L2.1227 13.8553C2.07222 13.8762 2.01984 13.893 1.96582 13.9047L1.9002 13.9191L1.83457 13.9328C1.66023 13.9705 1.51118 13.9453 1.39707 13.9041C1.34051 13.9526 1.22716 14.0372 1.05895 14.0759C0.825136 14.1298 0.576122 14.0745 0.385195 13.9209C0.231634 13.7973 0.166781 13.6516 0.142695 13.5897L0.12207 13.5359L0.0970703 13.4722C0.0948407 13.4664 0.0929233 13.4605 0.0908203 13.4547L0.000195313 13.2222L0.0470703 13.1216C0.0739792 12.7998 0.297877 12.5149 0.627695 12.4266L0.68957 12.4097L0.732695 12.3978C0.789923 12.3102 0.887071 12.1982 1.04457 12.1197C1.2844 12.0002 1.52196 12.0268 1.68332 12.0884C1.7103 12.0988 1.735 12.111 1.75832 12.1228L1.83895 12.1016C1.94366 12.0156 2.07608 11.9508 2.22645 11.9278L2.26145 11.8991L2.32207 11.8522C2.46881 11.7502 2.65205 11.6951 2.84582 11.7109C2.8983 11.7152 2.94677 11.7247 2.99082 11.7366C3.03485 11.7204 3.08194 11.7068 3.1327 11.6984C3.16971 11.6741 3.21061 11.6517 3.25582 11.6322C3.36005 11.523 3.51955 11.418 3.73082 11.3909C3.88244 11.3716 4.01135 11.3992 4.1077 11.4347C4.24382 11.3641 4.38478 11.341 4.51457 11.3478C4.69726 11.2778 4.86263 11.2878 4.99395 11.3228L5.01457 11.2509L5.44957 11.1341L5.51145 11.1178ZM25.9583 10.8903C26.0284 10.8979 26.0916 10.9151 26.1483 10.9359C26.3323 10.8856 26.5358 10.9001 26.7214 10.9947C26.8505 11.0051 26.9575 11.0432 27.0439 11.0909H27.2389C27.3521 11.029 27.5027 10.9798 27.6839 10.9934L27.7508 10.9991L27.8177 11.0041C27.8386 11.0057 27.8596 11.0088 27.8802 11.0116C27.9853 10.9567 28.1218 10.9153 28.2827 10.9222C28.4884 10.9311 28.6431 11.0162 28.7396 11.0916C28.9693 11.0984 29.1737 11.2037 29.3133 11.3666L29.5033 11.4878V11.9541L29.4971 12.0566C29.4678 12.2857 29.3451 12.4472 29.2508 12.5353C29.1522 12.6275 29.0533 12.6729 29.0071 12.6922L28.9396 12.7203L28.8727 12.7478C28.7101 12.8155 28.5313 12.8266 28.3627 12.7828C28.3606 12.7836 28.3586 12.7852 28.3564 12.7859C28.1473 12.8626 27.9361 12.8425 27.7633 12.7666C27.7443 12.7746 27.7252 12.7841 27.7046 12.7909C27.557 12.8401 27.4224 12.8415 27.3052 12.8184C27.2922 12.8212 27.2794 12.8256 27.2658 12.8278C27.0766 12.8583 26.9125 12.8176 26.7864 12.7559C26.6792 12.7504 26.5856 12.7218 26.5052 12.6847C26.4233 12.7208 26.3255 12.7487 26.2121 12.7528L26.0783 12.7578C26.0206 12.7599 25.9664 12.7544 25.9158 12.7459C25.829 12.7894 25.7215 12.8244 25.5958 12.8303C25.4215 12.8385 25.2716 12.7893 25.1596 12.7247L25.1452 12.7159C25.0878 12.7074 25.0354 12.6927 24.9871 12.6753C24.9069 12.717 24.8086 12.7521 24.6914 12.7628C24.5041 12.7799 24.3479 12.7301 24.2314 12.6659H23.9896C23.5546 12.6659 23.2021 12.3135 23.2021 11.8784C23.2021 11.4972 23.4728 11.1786 23.8327 11.1059C23.9707 11.0482 24.1625 11.0112 24.3777 11.0741C24.4344 11.0686 24.4884 11.0674 24.5396 11.0728L24.5683 11.0622L24.6352 11.0359L24.7014 11.0134C24.8358 10.9735 24.98 10.9678 25.1208 11.0003L25.1908 11.0197L25.2577 11.0416L25.3252 11.0634C25.3271 11.0641 25.3289 11.0647 25.3308 11.0653C25.348 11.0551 25.3657 11.0447 25.3846 11.0353L25.5183 10.9691L25.6152 10.9291C25.7167 10.8944 25.8331 10.8769 25.9583 10.8903ZM24.3277 12.1797L24.3696 12.2547L24.3546 12.1472L24.3277 12.1797ZM24.3696 12.2547L24.3277 12.1797L24.3546 12.1472L24.3696 12.2547ZM24.9764 12.1297L24.9833 12.1209L24.9814 12.1153L24.9764 12.1297ZM24.9833 12.1209L24.9764 12.1297L24.9814 12.1153L24.9833 12.1209ZM25.2708 11.8659L25.2677 11.8878L25.2808 11.8709L25.2708 11.8659ZM25.2808 11.8709L25.2677 11.8878L25.2708 11.8659L25.2808 11.8709ZM28.5452 11.5847L28.4833 11.6247L28.5046 11.6759L28.5564 11.6122L28.5452 11.5847ZM26.5252 11.6872L26.5239 11.7159L26.5439 11.6772L26.5252 11.6872ZM26.5239 11.7159L26.5252 11.6872L26.5439 11.6772L26.5239 11.7159ZM28.5564 11.6122L28.5046 11.6759L28.4833 11.6247L28.5452 11.5847L28.5564 11.6122ZM1.07082 8.2472C1.3148 8.17157 1.53438 8.22661 1.6927 8.3147C1.75629 8.3077 1.81643 8.30789 1.87332 8.3147C1.92578 8.2863 1.98626 8.25985 2.05582 8.2422C2.24596 8.19401 2.40508 8.2165 2.53332 8.2672C2.63755 8.24157 2.75828 8.23532 2.89457 8.26595C2.97804 8.28473 3.0498 8.31548 3.11145 8.35032C3.16269 8.32042 3.22214 8.29321 3.2902 8.27345C3.50628 8.21077 3.69821 8.24919 3.8452 8.31782C3.92997 8.28358 4.03037 8.25927 4.14707 8.26032C4.32367 8.26196 4.46206 8.31892 4.56395 8.38407C4.69798 8.34935 4.83216 8.3517 4.95645 8.38282C5.01279 8.34465 5.08139 8.30864 5.16332 8.28282C5.42299 8.20108 5.66789 8.26537 5.83645 8.37532C5.84747 8.38251 5.85684 8.39167 5.86707 8.39907C5.88486 8.39876 5.90295 8.39695 5.92145 8.39782L6.05582 8.40407C6.063 8.40441 6.07002 8.40606 6.07707 8.40657C6.19059 8.33388 6.34651 8.2736 6.54645 8.2847C6.72059 8.29442 6.85482 8.3564 6.95395 8.42532C7.32404 8.48983 7.60578 8.81177 7.60582 9.20032C7.60582 9.53143 7.40086 9.81382 7.11145 9.93032C6.99019 10.0122 6.79936 10.097 6.55145 10.0622C6.54851 10.0618 6.54561 10.0608 6.5427 10.0603C6.38868 10.1351 6.19515 10.1693 5.99207 10.1172C5.96632 10.1106 5.94171 10.1031 5.91832 10.0947C5.78803 10.1296 5.65496 10.131 5.52957 10.1022C5.45025 10.1337 5.35712 10.1565 5.25145 10.1584C5.216 10.1591 5.1818 10.1564 5.14895 10.1528C5.00286 10.1956 4.82922 10.2033 4.6427 10.1309C4.6379 10.1291 4.63364 10.126 4.62895 10.1241C4.54582 10.1616 4.44573 10.1909 4.32895 10.1947C4.25663 10.197 4.1896 10.1885 4.12832 10.1747C3.99424 10.2006 3.8483 10.1937 3.70457 10.1409C3.69308 10.1367 3.68237 10.1312 3.67145 10.1266C3.60133 10.1582 3.51914 10.1846 3.42395 10.1941C3.21859 10.2144 3.0483 10.151 2.9277 10.0766C2.7949 10.0833 2.67537 10.0565 2.57457 10.0134L2.5677 10.0147L2.50082 10.0216C2.47257 10.0245 2.44495 10.0257 2.41832 10.0259C2.32903 10.0671 2.22053 10.0995 2.09457 10.1009C1.97166 10.1023 1.86444 10.0736 1.77457 10.0353C1.7445 10.0417 1.71313 10.0473 1.6802 10.0503L1.54582 10.0628C1.5317 10.0641 1.51769 10.0635 1.50395 10.0641C1.42909 10.1022 1.33946 10.1341 1.23332 10.1459C0.885675 10.1845 0.654888 9.9946 0.56457 9.89782C0.538967 9.87039 0.517567 9.84258 0.498945 9.81657C0.368264 9.7125 0.272175 9.56783 0.22832 9.40157L0.201445 9.3647V9.03532C0.201445 9.01118 0.202096 8.95969 0.21332 8.89595C0.219599 8.8603 0.249611 8.68092 0.396445 8.51282C0.484078 8.41251 0.620735 8.30927 0.807695 8.2647C0.902195 8.24219 0.990444 8.23988 1.06895 8.24782C1.06956 8.24763 1.0702 8.24739 1.07082 8.2472ZM27.5652 8.05032C27.7579 7.9583 27.9778 7.94847 28.1764 8.0197C28.2175 8.03442 28.2546 8.05198 28.2883 8.07032C28.3091 8.06742 28.3304 8.06355 28.3521 8.0622L28.4183 8.05845L28.4852 8.05407C28.6162 8.04589 28.7291 8.06968 28.8233 8.10595C29.0923 8.14277 29.32 8.31581 29.4308 8.5572L29.5058 8.63345L29.5027 8.96032L29.5021 9.01782C29.5017 9.05747 29.5022 9.2797 29.3402 9.4922C29.2419 9.62111 29.096 9.72912 28.9127 9.7772C28.7426 9.82178 28.5968 9.79991 28.5058 9.77532C28.4903 9.77113 28.4759 9.76455 28.4614 9.7597C28.3919 9.79643 28.3085 9.82725 28.2114 9.8422C28.0368 9.86908 27.8825 9.83298 27.7621 9.77845C27.6299 9.83476 27.4677 9.8643 27.2852 9.8272L27.2177 9.81345L27.1496 9.7997C27.1294 9.7956 27.1103 9.78937 27.0914 9.78407C26.9394 9.80683 26.8004 9.78237 26.6852 9.73782C26.6607 9.74358 26.6355 9.74983 26.6089 9.75345C26.5314 9.764 26.4591 9.76252 26.3927 9.75345C26.3132 9.79487 26.2179 9.82838 26.1052 9.84032L26.0383 9.84782L25.9714 9.8547C25.8726 9.86512 25.778 9.857 25.6908 9.83657C25.617 9.84841 25.5477 9.84793 25.4827 9.84095C25.4569 9.85558 25.4293 9.87025 25.3996 9.88282C25.2127 9.96179 25.0242 9.95964 24.8627 9.9122C24.7688 9.96685 24.6509 10.0106 24.5052 10.0178C24.425 10.0218 24.3518 10.0136 24.2858 9.99845C24.1608 10.0486 24.0136 10.0718 23.8558 10.0447C23.7643 10.029 23.6865 9.99898 23.6221 9.96532L23.3108 9.98345L23.2471 9.98657C22.8127 10.0114 22.44 9.67964 22.4152 9.24532C22.4024 9.02086 22.4857 8.81347 22.6283 8.66157C22.6578 8.59935 22.7065 8.50985 22.7889 8.4272C22.8659 8.35006 23.0192 8.22947 23.2502 8.19907C23.4327 8.17508 23.5899 8.21696 23.7102 8.2772C23.8006 8.21924 23.9199 8.16775 24.0664 8.15407C24.2405 8.13785 24.3889 8.18229 24.5008 8.23907C24.6195 8.22162 24.7369 8.23163 24.8458 8.26407C24.9181 8.2216 25.0044 8.18435 25.1077 8.16532L25.1739 8.15282L25.2402 8.14095C25.4467 8.1029 25.6194 8.14865 25.7477 8.21282C25.8261 8.16064 25.9246 8.11333 26.0464 8.09032L26.1133 8.07782L26.1796 8.06532L26.2964 8.05157C26.3318 8.05 26.366 8.05126 26.3989 8.05407C26.424 8.04571 26.4501 8.03777 26.4777 8.03157C26.6557 7.99162 26.8143 8.0177 26.9408 8.06657C27.0081 8.05068 27.0823 8.04136 27.1639 8.04532C27.2766 8.05081 27.3724 8.07961 27.4527 8.11595C27.4859 8.09279 27.5234 8.07029 27.5652 8.05032ZM3.0127 9.6297L3.03582 9.61782L3.0277 9.5797L3.0127 9.6297ZM3.03582 9.61782L3.0127 9.6297L3.0277 9.5797L3.03582 9.61782ZM2.5752 9.4447L2.6602 9.3947L2.5652 9.34907L2.5752 9.4447ZM6.2977 9.3722L6.35457 9.47595L6.4177 9.4322L6.36082 9.32845L6.2977 9.3722ZM6.4177 9.4322L6.35457 9.47595L6.2977 9.3722L6.36082 9.32845L6.4177 9.4322ZM2.6602 9.3947L2.5752 9.4447L2.5652 9.34907L2.6602 9.3947ZM1.56707 9.19345L1.59832 9.17657L1.59582 9.14532L1.5402 9.1697L1.56707 9.19345ZM28.4846 9.20782L28.4908 9.2197L28.4902 9.20345L28.4846 9.20782ZM6.3127 9.08345L6.2552 9.1372L6.2952 9.21032L6.30957 9.22032L6.39207 9.14282L6.3127 9.08345ZM6.39207 9.14282L6.30957 9.22032L6.2952 9.21032L6.2552 9.1372L6.3127 9.08345L6.39207 9.14282ZM28.4908 9.2197L28.4846 9.20782L28.4902 9.20345L28.4908 9.2197ZM1.59832 9.17657L1.56707 9.19345L1.5402 9.1697L1.59582 9.14532L1.59832 9.17657ZM23.6346 8.93157L23.6477 8.88032L23.6152 8.92407L23.6346 8.93157ZM24.8189 8.8247L24.8333 8.93907L24.8502 8.90532L24.8914 8.87282L24.8189 8.8247ZM6.03207 8.89157L6.03332 8.87407L6.01457 8.8597L6.03207 8.89157ZM24.8333 8.93907L24.8308 8.92032L24.8502 8.90532L24.8333 8.93907ZM23.6346 8.93157L23.6152 8.92407L23.6477 8.88032L23.6346 8.93157ZM24.8727 8.86032L24.8502 8.90532L24.8308 8.92032L24.8189 8.8247L24.8727 8.86032ZM27.4008 8.9097L27.4327 8.88345L27.4114 8.85907L27.4008 8.9097ZM27.4327 8.88345L27.4008 8.9097L27.4114 8.85907L27.4327 8.88345ZM24.8914 8.87282L24.8502 8.90532L24.8727 8.86032L24.8914 8.87282ZM6.03332 8.87407L6.03207 8.89157L6.01457 8.8597L6.03332 8.87407Z" fill="var(--fill-0, black)"/>
<path id="Polygon 2 (Stroke)" d="M14.6913 9.03301C15.0448 9.03298 15.3316 9.31921 15.3317 9.67264C15.3318 10.2354 15.6665 10.6358 16.111 10.9319C16.3292 11.0772 16.5525 11.1811 16.7234 11.2485C16.8077 11.2817 16.8766 11.3056 16.9227 11.3202C16.9457 11.3275 16.9631 11.3326 16.9732 11.3354C16.9781 11.3368 16.9813 11.3379 16.9827 11.3383L16.982 11.3377C17.3238 11.4266 17.5291 11.7757 17.4406 12.1176C17.352 12.4597 17.0028 12.6653 16.6607 12.5768L16.8207 11.957C16.6632 12.5653 16.6603 12.5767 16.66 12.5768L16.6594 12.5762L16.6581 12.5763C16.6573 12.5761 16.6561 12.5754 16.655 12.5751C16.6527 12.5745 16.65 12.5738 16.6468 12.5729C16.6402 12.5711 16.6314 12.5686 16.6209 12.5656C16.5998 12.5596 16.5709 12.5514 16.5357 12.5402C16.4654 12.5179 16.3685 12.4846 16.2535 12.4393C16.0252 12.3492 15.7153 12.2064 15.4013 11.9972C15.1772 11.848 14.9396 11.6554 14.7265 11.4156C14.5329 11.6677 14.3159 11.8765 14.1083 12.0428C13.8195 12.2742 13.5339 12.4402 13.3217 12.5479C13.2149 12.6021 13.1243 12.6424 13.0587 12.6702C13.026 12.684 12.9994 12.6951 12.9797 12.7028C12.9698 12.7066 12.9613 12.7093 12.955 12.7117C12.9519 12.7129 12.9491 12.7143 12.9469 12.7151C12.9461 12.7154 12.9452 12.7155 12.9445 12.7158L12.9432 12.7164L12.9426 12.7165C12.9424 12.7166 12.942 12.7165 12.7249 12.1144L12.942 12.7165C12.6095 12.8364 12.2427 12.664 12.1229 12.3315C12.0031 11.999 12.176 11.6322 12.5085 11.5124C12.51 11.5118 12.5121 11.5113 12.5146 11.5103C12.5236 11.5068 12.5388 11.5002 12.5597 11.4913C12.6016 11.4736 12.6651 11.4453 12.7426 11.406C12.8992 11.3266 13.1054 11.2068 13.3081 11.0444C13.6938 10.7354 14.0097 10.3243 14.0477 9.78296L14.0517 9.67277L14.0546 9.60702C14.0874 9.28445 14.3601 9.03306 14.6913 9.03301Z" fill="var(--fill-0, #111111)"/>
<path id="Polygon 1" d="M14.8694 10.0289C14.7635 10.0995 14.6257 10.0995 14.5198 10.0289L13.67 9.46239C13.4106 9.28947 13.533 8.88516 13.8448 8.88516L15.5444 8.88516C15.8562 8.88516 15.9786 9.28947 15.7192 9.46239L14.8694 10.0289Z" fill="var(--fill-0, #111111)"/>
<path id="Polygon 1 (Stroke)" d="M15.5435 8.88516C15.8552 8.88516 15.9779 9.28973 15.7185 9.46266L14.8685 10.0289C14.7627 10.0994 14.6249 10.0994 14.5191 10.0289L13.6691 9.46266C13.4098 9.28972 13.5324 8.88516 13.8441 8.88516H15.5435ZM14.6941 9.76703L15.5435 9.20016H13.8441L14.6941 9.76703Z" fill="var(--fill-0, #111111)"/>
<path id="Ellipse 4195" d="M12.174 9.04277C12.174 9.4778 11.8214 9.83046 11.3863 9.83046C10.9513 9.83046 10.5986 9.4778 10.5986 9.04277C10.5986 8.60774 10.9513 8.25508 11.3863 8.25508C11.8214 8.25508 12.174 8.60774 12.174 9.04277Z" fill="var(--fill-0, #111111)"/>
<path id="Ellipse 4196" d="M19.1053 9.04277C19.1053 9.4778 18.7526 9.83046 18.3176 9.83046C17.8825 9.83046 17.5299 9.4778 17.5299 9.04277C17.5299 8.60774 17.8825 8.25508 18.3176 8.25508C18.7526 8.25508 19.1053 8.60774 19.1053 9.04277Z" fill="var(--fill-0, #111111)"/>
</g>
</svg>
