<svg width="86" height="32" viewBox="0 0 86 32" fill="none" xmlns="http://www.w3.org/2000/svg">
<path d="M80.5816 15.3897L80.9216 15.6297L81.2216 15.8296L81.2016 16.3497L81.2216 16.7296L81.4016 17.0697L81.7416 17.2896V17.7497L82.0616 17.9496L82.2216 18.3496L82.4816 18.6497L82.4416 19.1096L82.4816 19.5296L82.7616 19.9897L82.4616 20.2297L82.7616 20.5497L82.5416 20.9897L82.3016 21.3897L82.4216 21.8097L82.3416 22.2497L82.0416 22.5697L81.7216 22.8696L81.5816 23.3097L81.1416 23.3297L80.8216 23.6096L80.5016 23.9697L80.0616 23.6096H79.7016L79.3416 23.4496L79.0016 23.4097L78.5816 23.3297L78.3016 23.0697L78.1016 22.7097L77.6616 22.5897L77.4616 22.2696L77.2416 21.8496L76.8016 21.7696L76.5216 21.5897L76.1016 21.4697L75.7416 21.6497L75.4816 21.9496L75.4016 22.4097L75.0216 22.6497L74.7016 22.8696L74.3816 23.0497L74.1816 23.4496L73.8616 23.6096L73.4016 23.5897L73.1216 23.9697L72.7616 23.6697L72.3416 23.7497L72.1016 23.5296L71.7216 23.4297L71.3816 23.1697L70.9816 23.0296L70.8216 22.6697V22.1896L70.6616 21.7896L70.5216 21.4297L70.2416 21.0096L70.6416 20.5897L70.4216 20.1697L70.5016 19.8696V19.4697L70.6416 19.1297L70.6616 18.7497L70.7416 18.4296L70.8416 18.0096L71.1616 17.7896L71.0216 17.2697L71.4016 17.0497L71.7616 16.7097L71.8216 16.3296L71.7816 15.7896L72.2816 15.6697L72.5616 15.3696L72.8016 15.0497L73.0616 14.7697L73.2416 14.3696L73.4016 13.9896L73.9816 14.0697L74.2216 13.6896L74.5816 13.5696L74.9216 13.2497L75.3416 13.3096L75.7016 13.1697L76.1616 13.1497L76.5416 13.2696L76.9016 13.4896L77.2616 13.2896L77.6416 13.5096L77.9216 13.5897L78.4416 13.3897L78.7416 13.6096L78.9816 13.9696L79.2616 14.2296L79.6616 14.3497L79.9216 14.6496L80.0416 14.9697L80.4216 15.0696L80.5816 15.3897ZM71.7216 10.5896L71.7416 10.2697L71.7016 9.92965L71.9216 9.58965L71.9016 9.20965L72.0816 8.88965L72.1616 8.58965L72.5016 8.32965L72.8016 8.12965L73.2216 8.10965L73.5616 8.14965L73.9016 8.46965L74.2216 8.66965L74.5216 8.94965L74.6616 9.36965L74.8016 9.74965L74.9216 10.0897V10.4096L74.9816 10.8096L74.9616 11.1297L74.9216 11.5096L74.6816 11.7296L74.6216 12.0896L74.4016 12.2896L74.2016 12.5097H73.8616L73.5016 12.6697L73.1816 12.6297L72.9216 12.5097L72.6616 12.4896L72.2816 12.3097L72.0816 12.0696L71.9016 11.7097L71.8216 11.3296L71.8016 10.9496L71.7216 10.5896ZM77.8016 12.3496L77.5016 12.1696L77.2216 11.8497V11.4296L77.0816 11.0296L77.1816 10.6697L77.3016 10.2896L77.3416 9.90965L77.5416 9.54965L77.7616 9.22965L78.0216 8.98965L78.3016 8.68965L78.5816 8.42965L79.0216 8.28965L79.4216 8.32965L79.7616 8.60965L79.9216 8.90965L80.0616 9.22965L80.3616 9.50965L80.5016 9.84965L80.4416 10.2097L80.3616 10.5896L80.4816 10.9297L80.4616 11.3296L80.1816 11.5697L79.9416 11.8497L79.7616 12.1097L79.4816 12.3696L79.2216 12.4496L78.8816 12.4697L78.5216 12.5897L78.1616 12.4896L77.8016 12.3496ZM84.4416 12.8296L84.5416 13.2896L84.4216 13.7296L84.2816 14.2296L84.0816 14.6096L83.7816 14.8696L83.4816 15.0696L83.1216 15.2497L82.7416 15.1297L82.3616 15.0897L82.0616 15.0696L81.7016 14.8896L81.4616 14.4896L81.4016 14.1096L81.3816 13.7097L81.3416 13.4096L81.4016 12.9896L81.5816 12.6697L81.8216 12.3296L82.0816 12.0896L82.3416 11.8497L82.6816 11.6296L83.0616 11.6896L83.4816 11.7696L83.8416 11.8696L84.1816 12.1097L84.4016 12.4296L84.4416 12.8296ZM71.0216 15.0897L70.7016 15.2497L70.4416 15.4697L70.0616 15.5296L69.8216 15.4096L69.4416 15.4297L69.0816 15.2697L68.8416 15.0296L68.5416 14.8296L68.3416 14.5296L68.2616 14.2696L68.1816 13.9896L68.3416 13.5696L68.4016 13.1297V12.6697L68.6816 12.3296L69.1616 12.1297L69.5616 12.0896H69.9616L70.2216 12.4096L70.4816 12.7896L70.7416 13.0896L70.9616 13.4297L71.1416 13.7497L71.2016 14.2097L71.1416 14.5497L71.2016 14.9697L71.0216 15.0897Z" fill="white"/>
<path d="M58.3453 23.3297C58.3586 23.3163 58.3719 23.2897 58.3853 23.2497C58.4119 23.2097 58.4319 23.1697 58.4453 23.1297C58.4586 23.0897 58.4719 23.0497 58.4853 23.0097C58.4986 22.983 58.4986 22.9763 58.4853 22.9897C58.5119 22.8963 58.5186 22.7963 58.5053 22.6897C58.5053 22.583 58.5386 22.443 58.6053 22.2697C58.6853 22.123 58.7253 21.9963 58.7253 21.8897C58.7253 21.783 58.7453 21.6163 58.7853 21.3897C58.7453 21.3897 58.6986 21.363 58.6453 21.3097C58.6053 21.243 58.5786 21.1763 58.5653 21.1097C58.5519 21.0297 58.5519 20.9563 58.5653 20.8897C58.5919 20.8097 58.6453 20.7563 58.7253 20.7297C58.6586 20.663 58.6253 20.5897 58.6253 20.5097C58.6253 20.4297 58.6786 20.3097 58.7853 20.1497C58.6519 20.043 58.5786 19.9297 58.5653 19.8097C58.5519 19.6897 58.5386 19.5563 58.5253 19.4097C58.5519 19.303 58.5653 19.2163 58.5653 19.1497C58.5653 19.083 58.5586 19.023 58.5453 18.9697C58.5319 18.9163 58.5119 18.863 58.4853 18.8097C58.4719 18.743 58.4586 18.6697 58.4453 18.5897C58.4853 18.4963 58.5186 18.4297 58.5453 18.3897C58.5853 18.3363 58.6386 18.2563 58.7053 18.1497C58.7053 18.083 58.6919 18.023 58.6653 17.9697C58.6519 17.9163 58.6319 17.863 58.6053 17.8097C58.5919 17.7563 58.5853 17.6963 58.5853 17.6297C58.5986 17.563 58.6319 17.483 58.6853 17.3897C58.6186 17.363 58.5786 17.323 58.5653 17.2697C58.5653 17.2163 58.5719 17.1563 58.5853 17.0897C58.6119 17.023 58.6319 16.9563 58.6453 16.8897C58.6719 16.823 58.6853 16.7697 58.6853 16.7297C58.6853 16.6363 58.6586 16.543 58.6053 16.4497C58.5519 16.3563 58.5519 16.1697 58.6053 15.8897C58.6986 15.8763 58.7186 15.823 58.6653 15.7297C58.6119 15.6363 58.5786 15.483 58.5653 15.2697C58.6319 15.203 58.6586 15.143 58.6453 15.0897C58.6453 15.0363 58.6719 14.9363 58.7253 14.7897C58.5919 14.603 58.5386 14.463 58.5653 14.3697C58.6053 14.2763 58.6186 14.1763 58.6053 14.0697C58.6586 13.9763 58.6653 13.8897 58.6253 13.8097C58.5853 13.7163 58.5853 13.543 58.6253 13.2897C58.5586 13.2363 58.5453 13.1697 58.5853 13.0897C58.6386 13.0097 58.6386 12.8697 58.5853 12.6697C58.5853 12.5897 58.5853 12.503 58.5853 12.4097C58.5986 12.3163 58.5253 12.2097 58.3653 12.0897C58.4053 12.0097 58.4319 11.9497 58.4453 11.9097C58.4719 11.8697 58.4853 11.8297 58.4853 11.7897C58.4986 11.7497 58.5053 11.6963 58.5053 11.6297C58.5053 11.563 58.4986 11.4563 58.4853 11.3097C58.4319 11.203 58.4319 11.103 58.4853 11.0097C58.5386 10.9163 58.5986 10.783 58.6653 10.6097C58.5853 10.5163 58.5586 10.4363 58.5853 10.3697C58.6119 10.2897 58.5919 10.223 58.5253 10.1697C58.5253 10.0363 58.5053 9.91632 58.4653 9.80965C58.4386 9.70299 58.3719 9.57632 58.2653 9.42965L58.4453 8.94965C58.2986 8.84299 58.2586 8.76965 58.3253 8.72965C58.3919 8.67632 58.4786 8.58965 58.5853 8.46965C58.6519 8.30965 58.7586 8.18965 58.9053 8.10965C59.0519 8.01632 59.1919 7.98299 59.3253 8.00965C59.4853 8.11632 59.6186 8.16299 59.7253 8.14965C59.8319 8.13632 59.8786 8.18298 59.8653 8.28965C59.9186 8.39632 59.9719 8.47632 60.0253 8.52965C60.0786 8.58299 60.1253 8.63632 60.1653 8.68965C60.2053 8.74298 60.2319 8.80298 60.2453 8.86965C60.2586 8.92298 60.2453 9.00965 60.2053 9.12965C60.2453 9.11632 60.2719 9.14299 60.2853 9.20965C60.3119 9.26299 60.4119 9.40299 60.5853 9.62965C60.5186 9.65632 60.4853 9.68965 60.4853 9.72965C60.4853 9.76965 60.4853 9.82965 60.4853 9.90965C60.4853 9.97632 60.4786 10.0563 60.4653 10.1497C60.4519 10.2297 60.4053 10.3163 60.3253 10.4097C60.4053 10.4763 60.4519 10.5497 60.4653 10.6297C60.4786 10.7097 60.4719 10.7897 60.4453 10.8697C60.4319 10.9497 60.4186 11.023 60.4053 11.0897C60.3919 11.143 60.3986 11.183 60.4253 11.2097C60.3986 11.2363 60.3919 11.2763 60.4053 11.3297C60.4319 11.383 60.4519 11.4363 60.4653 11.4897C60.4786 11.543 60.4786 11.5963 60.4653 11.6497C60.4653 11.6897 60.4386 11.7097 60.3853 11.7097C60.5319 11.8563 60.6119 11.9897 60.6253 12.1097C60.6386 12.2297 60.5519 12.3497 60.3653 12.4697C60.4586 12.5763 60.5053 12.6963 60.5053 12.8297C60.5053 12.963 60.5586 13.083 60.6653 13.1897C60.5986 13.1897 60.5453 13.2163 60.5053 13.2697C60.4653 13.323 60.4453 13.3897 60.4453 13.4697C60.4453 13.5363 60.4586 13.603 60.4853 13.6697C60.5253 13.7363 60.5786 13.783 60.6453 13.8097C60.6053 13.8497 60.5786 13.903 60.5653 13.9697C60.5653 14.0363 60.5586 14.1097 60.5453 14.1897C60.5453 14.2697 60.5386 14.3497 60.5253 14.4297C60.5119 14.4963 60.4786 14.5497 60.4253 14.5897C60.5453 14.7363 60.6053 14.843 60.6053 14.9097C60.6053 14.963 60.6586 15.023 60.7653 15.0897C60.6319 15.183 60.5653 15.2963 60.5653 15.4297C60.5653 15.5497 60.5586 15.723 60.5453 15.9497C60.5186 15.9897 60.5053 16.0563 60.5053 16.1497C60.5186 16.2297 60.5586 16.383 60.6253 16.6097C60.5986 16.6763 60.5919 16.7563 60.6053 16.8497C60.6186 16.9297 60.6586 17.003 60.7253 17.0697C60.6719 17.0963 60.6453 17.143 60.6453 17.2097C60.6453 17.263 60.6453 17.323 60.6453 17.3897C60.6586 17.4563 60.6653 17.523 60.6653 17.5897C60.6786 17.643 60.6653 17.683 60.6253 17.7097C60.6519 17.8163 60.6586 17.903 60.6453 17.9697C60.6453 18.023 60.6319 18.0697 60.6053 18.1097C60.5919 18.1497 60.5786 18.183 60.5653 18.2097C60.5653 18.2363 60.5786 18.2763 60.6053 18.3297C60.5386 18.4897 60.5253 18.603 60.5653 18.6697C60.6186 18.723 60.6319 18.8163 60.6053 18.9497C60.5786 19.0697 60.5519 19.1563 60.5253 19.2097C60.5119 19.263 60.4986 19.3097 60.4853 19.3497C60.4853 19.3897 60.4853 19.4363 60.4853 19.4897C60.4853 19.5297 60.4986 19.5963 60.5253 19.6897C60.4986 19.7963 60.4986 19.9163 60.5253 20.0497C60.5519 20.183 60.5519 20.2763 60.5253 20.3297C60.4986 20.3563 60.4919 20.4297 60.5053 20.5497C60.5319 20.6563 60.5853 20.843 60.6653 21.1097C60.5853 21.163 60.5319 21.2363 60.5053 21.3297C60.4919 21.423 60.4786 21.523 60.4653 21.6297C60.4653 21.723 60.4586 21.823 60.4453 21.9297C60.4319 22.0363 60.4053 22.1297 60.3653 22.2097C60.3253 22.503 60.3319 22.7097 60.3853 22.8297C60.4519 22.9497 60.4986 23.0963 60.5253 23.2697C60.4719 23.363 60.4053 23.463 60.3253 23.5697C60.2453 23.6897 60.1519 23.7963 60.0453 23.8897C59.9519 23.983 59.8519 24.0497 59.7453 24.0897C59.6519 24.143 59.5586 24.1363 59.4653 24.0697C59.3186 24.0297 59.1919 24.023 59.0853 24.0497C58.9786 24.0763 58.9053 24.0563 58.8653 23.9897C58.8253 23.7897 58.7719 23.6297 58.7053 23.5097C58.6386 23.3897 58.5719 23.2963 58.5053 23.2297L58.3453 23.3297ZM48.1653 22.0897C48.1653 21.903 48.1986 21.7763 48.2653 21.7097C48.3319 21.643 48.4786 21.5363 48.7053 21.3897C48.7586 21.2163 48.8319 21.1163 48.9253 21.0897C49.0186 21.0497 49.0586 21.003 49.0453 20.9497C49.1786 20.8163 49.2786 20.7163 49.3453 20.6497C49.4253 20.5697 49.4853 20.5097 49.5253 20.4697C49.5786 20.4163 49.6119 20.3697 49.6253 20.3297C49.6386 20.2763 49.6519 20.2163 49.6653 20.1497C49.7719 19.9763 49.8786 19.8697 49.9853 19.8297C50.1053 19.7763 50.1853 19.6763 50.2253 19.5297C50.2786 19.4897 50.3719 19.4297 50.5053 19.3497C50.6386 19.2563 50.6786 19.1497 50.6253 19.0297C50.8786 18.8297 51.0319 18.6763 51.0853 18.5697C51.1519 18.4497 51.2453 18.403 51.3653 18.4297C51.3653 18.4163 51.3786 18.3897 51.4053 18.3497C51.4319 18.2963 51.4586 18.243 51.4853 18.1897C51.5119 18.123 51.5253 18.0563 51.5253 17.9897C51.5253 17.923 51.4986 17.8563 51.4453 17.7897C51.5253 17.723 51.6053 17.623 51.6853 17.4897C51.7786 17.3563 51.8053 17.2763 51.7653 17.2497C51.8186 17.2497 51.8519 17.2363 51.8653 17.2097C51.8919 17.183 51.9053 17.1497 51.9053 17.1097C51.9186 17.0697 51.9386 17.0297 51.9653 16.9897C51.9919 16.9363 52.0386 16.8897 52.1053 16.8497C52.0653 16.8097 52.0453 16.7563 52.0453 16.6897C52.0586 16.623 52.0719 16.5563 52.0853 16.4897C52.1119 16.423 52.1319 16.3697 52.1453 16.3297C52.1719 16.2897 52.1853 16.2697 52.1853 16.2697C52.1853 16.1363 52.2186 15.983 52.2853 15.8097C52.3519 15.623 52.4386 15.463 52.5453 15.3297C52.4919 15.3297 52.4586 15.3097 52.4453 15.2697C52.4453 15.2297 52.4453 15.1763 52.4453 15.1097C52.4453 15.0297 52.4519 14.9497 52.4653 14.8697C52.4786 14.7897 52.4786 14.7163 52.4653 14.6497C52.5719 14.5963 52.6053 14.4963 52.5653 14.3497C52.5386 14.203 52.4986 14.103 52.4453 14.0497C52.5786 13.9563 52.6586 13.8363 52.6853 13.6897C52.7253 13.5297 52.6719 13.383 52.5253 13.2497C52.6319 13.0897 52.6853 12.9697 52.6853 12.8897C52.6853 12.8097 52.6786 12.7563 52.6653 12.7297C52.6786 12.663 52.6986 12.6097 52.7253 12.5697C52.7519 12.5297 52.7653 12.4897 52.7653 12.4497C52.7653 12.4097 52.7519 12.363 52.7253 12.3097C52.6986 12.243 52.6386 12.1497 52.5453 12.0297C52.6519 11.923 52.7186 11.823 52.7453 11.7297C52.7719 11.6363 52.7653 11.4963 52.7253 11.3097C52.5653 11.2697 52.4053 11.2497 52.2453 11.2497C52.0853 11.2363 51.9719 11.1963 51.9053 11.1297C51.7319 11.263 51.6053 11.323 51.5253 11.3097C51.4453 11.2963 51.3386 11.2363 51.2053 11.1297C51.0586 11.1697 50.9386 11.1897 50.8453 11.1897C50.7653 11.1897 50.6986 11.1897 50.6453 11.1897C50.6053 11.1897 50.5719 11.1963 50.5453 11.2097C50.5186 11.2097 50.4919 11.2363 50.4653 11.2897C50.2519 11.263 50.0986 11.2563 50.0053 11.2697C49.9119 11.2697 49.8053 11.2963 49.6853 11.3497L48.9253 11.1097C48.6986 11.163 48.5119 11.1697 48.3653 11.1297C48.2186 11.0763 48.1653 10.9697 48.2053 10.8097C48.1786 10.7563 48.1453 10.6963 48.1053 10.6297C48.0653 10.5497 48.0453 10.403 48.0453 10.1897C47.9786 10.1763 47.9386 10.1497 47.9253 10.1097C47.9253 10.0563 47.9253 9.99632 47.9253 9.92965C47.9253 9.84965 47.9253 9.76965 47.9253 9.68965C47.9386 9.60965 47.9319 9.52965 47.9053 9.44965C48.0119 9.46299 48.0853 9.46299 48.1253 9.44965C48.1786 9.42298 48.2186 9.39632 48.2453 9.36965C48.2719 9.34299 48.2986 9.32298 48.3253 9.30965C48.3519 9.29632 48.4053 9.30965 48.4853 9.34965C48.4986 9.36299 48.5253 9.36299 48.5653 9.34965C48.6053 9.32299 48.6519 9.29632 48.7053 9.26965C48.7586 9.22965 48.8119 9.19632 48.8653 9.16965C48.9319 9.14299 48.9919 9.12965 49.0453 9.12965C49.1519 9.24965 49.2919 9.32299 49.4653 9.34965C49.6386 9.36299 49.7853 9.33632 49.9053 9.26965C49.9719 9.18965 50.1519 9.18298 50.4453 9.24965C50.5119 9.22299 50.5786 9.21632 50.6453 9.22965C50.7119 9.24299 50.7653 9.26299 50.8053 9.28965C50.8586 9.30299 50.9053 9.31632 50.9453 9.32965C50.9986 9.34299 51.0386 9.33632 51.0653 9.30965C51.1986 9.33632 51.3119 9.31632 51.4053 9.24965C51.4986 9.18298 51.5853 9.13632 51.6653 9.10965C51.7186 9.09632 51.7719 9.09632 51.8253 9.10965C51.8786 9.12299 51.9453 9.14299 52.0253 9.16965C52.1053 9.18299 52.1986 9.18965 52.3053 9.18965C52.4119 9.18965 52.5386 9.15632 52.6853 9.08965C52.6586 9.08965 52.6653 9.09632 52.7053 9.10965C52.7586 9.10965 52.8119 9.12299 52.8653 9.14965C52.9319 9.16299 52.9919 9.18965 53.0453 9.22965C53.0986 9.26965 53.1253 9.32965 53.1253 9.40965C53.4053 9.27632 53.6053 9.24965 53.7253 9.32965C53.8453 9.39632 53.8986 9.46299 53.8853 9.52965C53.9653 9.47632 54.0186 9.46299 54.0453 9.48965C54.0853 9.50299 54.1053 9.53632 54.1053 9.58965C54.1186 9.64298 54.1186 9.70299 54.1053 9.76965C54.1053 9.82299 54.1186 9.85632 54.1453 9.86965C54.2653 9.94965 54.3519 10.003 54.4053 10.0297C54.4719 10.0563 54.5386 10.1163 54.6053 10.2097C54.5786 10.3563 54.5719 10.463 54.5853 10.5297C54.5986 10.583 54.6453 10.7163 54.7253 10.9297C54.8453 11.0363 54.9053 11.1297 54.9053 11.2097C54.9186 11.2763 54.8519 11.443 54.7053 11.7097C54.7453 11.6697 54.7786 11.6563 54.8053 11.6697C54.8319 11.6697 54.8519 11.683 54.8653 11.7097C54.8786 11.7363 54.8919 11.763 54.9053 11.7897C54.9319 11.803 54.9653 11.8097 55.0053 11.8097C55.0053 11.943 54.9853 12.0497 54.9453 12.1297C54.9053 12.1963 54.8653 12.2497 54.8253 12.2897C54.7853 12.3297 54.7519 12.3697 54.7253 12.4097C54.6986 12.4497 54.6919 12.5097 54.7053 12.5897C54.7053 12.683 54.6919 12.7963 54.6653 12.9297C54.6519 13.063 54.6719 13.163 54.7253 13.2297C54.6853 13.2563 54.6653 13.2963 54.6653 13.3497C54.6786 13.403 54.6986 13.463 54.7253 13.5297C54.7519 13.5963 54.7786 13.663 54.8053 13.7297C54.8319 13.783 54.8453 13.823 54.8453 13.8497C54.8186 13.9963 54.7919 14.163 54.7653 14.3497C54.7519 14.5363 54.7386 14.7097 54.7253 14.8697C54.6719 14.8563 54.6386 14.8763 54.6253 14.9297C54.6119 14.9697 54.6053 15.0363 54.6053 15.1297C54.6053 15.2097 54.6053 15.2963 54.6053 15.3897C54.6186 15.483 54.6253 15.5697 54.6253 15.6497C54.6386 15.7297 54.6119 15.7897 54.5453 15.8297C54.4919 15.8697 54.3986 16.003 54.2653 16.2297C54.3853 16.2963 54.4519 16.3897 54.4653 16.5097C54.4919 16.6297 54.4653 16.703 54.3853 16.7297C54.2786 16.8497 54.2119 16.9497 54.1853 17.0297C54.1719 17.0963 54.2053 17.243 54.2853 17.4697C54.1786 17.4963 54.0986 17.5363 54.0453 17.5897C53.9919 17.6297 53.9253 17.6697 53.8453 17.7097C53.9119 17.7897 53.9119 17.903 53.8453 18.0497C53.7786 18.183 53.7119 18.303 53.6453 18.4097C53.6853 18.423 53.6919 18.4563 53.6653 18.5097C53.6386 18.5497 53.5986 18.603 53.5453 18.6697C53.5053 18.723 53.4519 18.7897 53.3853 18.8697C53.3319 18.9363 53.2986 19.0097 53.2853 19.0897C53.3119 19.063 53.3186 19.0963 53.3053 19.1897C53.2919 19.2697 53.2386 19.363 53.1453 19.4697C53.1186 19.563 53.0786 19.6297 53.0253 19.6697C52.9853 19.6963 52.9386 19.723 52.8853 19.7497C52.8453 19.763 52.8119 19.783 52.7853 19.8097C52.7586 19.823 52.7586 19.8497 52.7853 19.8897C52.6653 19.9963 52.5453 20.123 52.4253 20.2697C52.3186 20.403 52.2719 20.543 52.2853 20.6897C52.2586 20.6763 52.2253 20.6897 52.1853 20.7297C52.1453 20.7563 52.1053 20.7963 52.0653 20.8497C52.0253 20.903 51.9786 20.9497 51.9253 20.9897C51.8853 21.0163 51.8453 21.0163 51.8053 20.9897C51.6853 21.0963 51.5919 21.183 51.5253 21.2497C51.4586 21.303 51.3986 21.363 51.3453 21.4297C51.3053 21.483 51.2719 21.5497 51.2453 21.6297C51.2319 21.6963 51.2186 21.7963 51.2053 21.9297C51.0719 21.8897 50.9519 21.9297 50.8453 22.0497C50.7519 22.1563 50.6719 22.243 50.6053 22.3097C50.6053 22.3763 50.5986 22.4163 50.5853 22.4297C50.5853 22.443 50.5719 22.4497 50.5453 22.4497C50.5319 22.463 50.5119 22.4763 50.4853 22.4897C50.4719 22.503 50.4519 22.5363 50.4253 22.5897C50.2919 22.563 50.2119 22.5697 50.1853 22.6097C50.1719 22.6497 50.1453 22.663 50.1053 22.6497C49.9986 22.783 49.8986 22.8697 49.8053 22.9097C49.7119 22.963 49.5253 23.003 49.2453 23.0297C49.1386 23.0163 49.0519 22.963 48.9853 22.8697C48.9319 22.7763 48.8119 22.6963 48.6253 22.6297C48.5453 22.6697 48.4586 22.6297 48.3653 22.5097C48.2719 22.403 48.2253 22.2563 48.2253 22.0697L48.1653 22.0897Z" fill="white"/>
<path d="M33.7584 10.3296C33.6918 10.343 33.6251 10.3363 33.5584 10.3096C33.5051 10.2696 33.4451 10.2296 33.3784 10.1896C33.3251 10.1363 33.2718 10.0896 33.2184 10.0496C33.1651 9.99631 33.1051 9.95631 33.0384 9.92964C33.0784 9.91631 33.0851 9.87631 33.0584 9.80964C33.0451 9.74297 33.0251 9.66964 32.9984 9.58964C32.9851 9.50964 32.9784 9.42964 32.9784 9.34964C32.9784 9.26964 33.0118 9.20964 33.0784 9.16964C33.0118 9.07631 32.9851 8.98297 32.9984 8.88964C33.0251 8.78297 33.0584 8.68964 33.0984 8.60964C33.1518 8.52964 33.2118 8.46297 33.2784 8.40964C33.3584 8.35631 33.4318 8.32964 33.4984 8.32964C33.6184 8.35631 33.7051 8.37631 33.7584 8.38964C33.8251 8.40297 33.8718 8.41631 33.8984 8.42964C33.9384 8.42964 33.9718 8.42964 33.9984 8.42964C34.0251 8.42964 34.0651 8.42964 34.1184 8.42964C34.2384 8.29631 34.3851 8.24297 34.5584 8.26964C34.7451 8.29631 34.9118 8.27631 35.0584 8.20964C35.0851 8.19631 35.1384 8.19631 35.2184 8.20964C35.3118 8.22297 35.4918 8.21631 35.7584 8.18964C35.8251 8.18964 35.8918 8.20297 35.9584 8.22964C36.0384 8.24297 36.1718 8.18964 36.3584 8.06964C36.3451 8.09631 36.3584 8.12297 36.3984 8.14964C36.4518 8.16297 36.5051 8.18297 36.5584 8.20964C36.6251 8.22297 36.6851 8.24297 36.7384 8.26964C36.7918 8.28297 36.8184 8.29631 36.8184 8.30964C36.9118 8.24297 37.0318 8.19631 37.1784 8.16964C37.3384 8.12964 37.5318 8.20297 37.7584 8.38964C37.7851 8.36297 37.8318 8.34964 37.8984 8.34964C37.9784 8.33631 38.0518 8.34964 38.1184 8.38964C38.2518 8.41631 38.4118 8.43631 38.5984 8.44964C38.7984 8.44964 38.9718 8.43631 39.1184 8.40964C39.2518 8.35631 39.3251 8.36964 39.3384 8.44964C39.3651 8.51631 39.4384 8.63631 39.5584 8.80964C39.5984 8.96964 39.6251 9.10964 39.6384 9.22964C39.6651 9.33631 39.6984 9.40297 39.7384 9.42964C39.6984 9.48297 39.6584 9.58964 39.6184 9.74964C39.5784 9.89631 39.5251 9.98964 39.4584 10.0296C39.4318 10.0696 39.3984 10.0963 39.3584 10.1096C39.3318 10.1096 39.2851 10.1096 39.2184 10.1096C39.1651 10.0963 39.0918 10.0896 38.9984 10.0896C38.9184 10.0763 38.8118 10.0763 38.6784 10.0896L38.6384 10.2096C38.4651 10.1163 38.3251 10.0696 38.2184 10.0696C38.1118 10.0563 37.9451 10.1363 37.7184 10.3096C37.7184 10.2963 37.6984 10.2763 37.6584 10.2496C37.6184 10.2096 37.5651 10.1696 37.4984 10.1296C37.4318 10.0896 37.3584 10.063 37.2784 10.0496C37.1984 10.023 37.1184 10.0163 37.0384 10.0296C36.8118 9.97631 36.6651 9.95631 36.5984 9.96964C36.5451 9.96964 36.4651 10.0163 36.3584 10.1096C36.2384 10.0696 36.1051 10.043 35.9584 10.0296C35.8251 10.003 35.6918 10.023 35.5584 10.0896C35.4118 10.1163 35.2851 10.1096 35.1784 10.0696C35.0851 10.0163 35.0118 9.96964 34.9584 9.92964C34.7184 9.94297 34.5518 9.95631 34.4584 9.96964C34.3651 9.96964 34.2251 9.97631 34.0384 9.98964L33.8784 10.1696L33.7584 10.3296ZM32.3984 12.8696L32.4584 12.9096L32.5184 12.8496L32.4984 12.7296L32.3984 12.6096C32.3984 12.4763 32.4251 12.363 32.4784 12.2696C32.5318 12.163 32.5918 12.0696 32.6584 11.9896C32.7384 11.8963 32.8051 11.8163 32.8584 11.7496C32.9251 11.6696 32.9651 11.5963 32.9784 11.5296C33.1784 11.5163 33.3318 11.523 33.4384 11.5496C33.5584 11.563 33.7051 11.5296 33.8784 11.4496C33.9184 11.583 33.9718 11.6563 34.0384 11.6696C34.1184 11.6696 34.1918 11.643 34.2584 11.5896C34.3918 11.5496 34.4918 11.523 34.5584 11.5096C34.6251 11.483 34.6784 11.463 34.7184 11.4496C34.7718 11.4363 34.8251 11.4296 34.8784 11.4296C34.9318 11.4163 35.0184 11.403 35.1384 11.3896C35.3118 11.4163 35.4451 11.4563 35.5384 11.5096C35.6318 11.563 35.7584 11.5563 35.9184 11.4896C35.9318 11.503 35.9451 11.503 35.9584 11.4896C35.9851 11.4763 36.0118 11.4696 36.0384 11.4696C36.0651 11.4563 36.0984 11.463 36.1384 11.4896C36.1918 11.503 36.2584 11.5496 36.3384 11.6296C36.4851 11.483 36.6051 11.4096 36.6984 11.4096C36.7918 11.4096 36.8851 11.3963 36.9784 11.3696C37.2451 11.4363 37.4384 11.4696 37.5584 11.4696C37.6918 11.4696 37.8384 11.4363 37.9984 11.3696C38.0384 11.4363 38.0918 11.483 38.1584 11.5096C38.2251 11.5363 38.2984 11.5563 38.3784 11.5696C38.4584 11.5696 38.5384 11.5763 38.6184 11.5896C38.6984 11.603 38.7651 11.623 38.8184 11.6496C38.8851 11.5563 39.0118 11.5296 39.1984 11.5696C39.3851 11.5963 39.5584 11.603 39.7184 11.5896C39.7451 11.6563 39.7984 11.7496 39.8784 11.8696C39.9718 11.9763 39.9984 12.0363 39.9584 12.0496C40.0918 12.1696 40.1518 12.2563 40.1384 12.3096C40.1384 12.363 40.1518 12.403 40.1784 12.4296C40.2584 12.5363 40.2918 12.6296 40.2784 12.7096C40.2784 12.7763 40.2518 12.8363 40.1984 12.8896C40.1584 12.943 40.1051 12.9896 40.0384 13.0296C39.9851 13.0696 39.9384 13.1096 39.8984 13.1496C39.9518 13.203 39.9651 13.2696 39.9384 13.3496C39.9118 13.4163 39.8718 13.4763 39.8184 13.5296C39.7651 13.583 39.7051 13.623 39.6384 13.6496C39.5851 13.6763 39.5384 13.6696 39.4984 13.6296L39.2384 13.5696C39.1051 13.503 38.9851 13.4696 38.8784 13.4696C38.7851 13.4696 38.6784 13.543 38.5584 13.6896C38.3718 13.543 38.2518 13.4563 38.1984 13.4296C38.1451 13.3896 38.0184 13.4096 37.8184 13.4896C37.6984 13.5163 37.5851 13.5163 37.4784 13.4896C37.3851 13.4496 37.2518 13.463 37.0784 13.5296C36.9984 13.5696 36.8984 13.5896 36.7784 13.5896C36.6718 13.5763 36.6118 13.523 36.5984 13.4296C36.4518 13.483 36.3251 13.4963 36.2184 13.4696C36.1251 13.4296 36.0051 13.423 35.8584 13.4496C35.7518 13.4496 35.6451 13.4696 35.5384 13.5096C35.4451 13.5496 35.2918 13.543 35.0784 13.4896C35.0118 13.5296 34.9584 13.5496 34.9184 13.5496C34.8784 13.5363 34.8384 13.523 34.7984 13.5096C34.7584 13.483 34.7184 13.463 34.6784 13.4496C34.6384 13.4363 34.5851 13.4496 34.5184 13.4896C34.1318 13.5963 33.8318 13.583 33.6184 13.4496L33.4784 13.3896C33.3318 13.5363 33.1651 13.5763 32.9784 13.5096C32.7918 13.443 32.6518 13.2896 32.5584 13.0496L32.3984 12.8696ZM34.9984 20.2896C35.1051 20.3963 35.1984 20.5163 35.2784 20.6496C35.3718 20.783 35.4118 20.823 35.3984 20.7696C35.5184 20.8763 35.6118 20.9496 35.6784 20.9896C35.7584 21.0163 35.8251 21.0363 35.8784 21.0496C35.9318 21.0496 35.9784 21.0563 36.0184 21.0696C36.0718 21.0696 36.1384 21.0963 36.2184 21.1496C36.6451 21.043 36.9051 20.943 36.9984 20.8496C37.1051 20.8096 37.1984 20.7896 37.2784 20.7896C37.3718 20.7896 37.4518 20.783 37.5184 20.7696C37.5851 20.743 37.6384 20.7096 37.6784 20.6696C37.7318 20.6296 37.7651 20.5496 37.7784 20.4296C37.7651 20.4563 37.7718 20.4096 37.7984 20.2896C37.8251 20.1696 37.8318 20.103 37.8184 20.0896C37.9251 19.903 37.9451 19.763 37.8784 19.6696C37.8118 19.563 37.7584 19.443 37.7184 19.3096C37.8118 19.2563 37.8651 19.1963 37.8784 19.1296C37.8918 19.0496 37.8984 18.9696 37.8984 18.8896C37.8984 18.8096 37.9051 18.723 37.9184 18.6296C37.9318 18.5363 37.9784 18.443 38.0584 18.3496C37.9918 18.3763 37.9518 18.3696 37.9384 18.3296C37.9384 18.2763 37.9384 18.223 37.9384 18.1696C37.9384 18.1163 37.9384 18.0696 37.9384 18.0296C37.9384 17.9896 37.9251 17.983 37.8984 18.0096C37.8584 17.863 37.8251 17.7296 37.7984 17.6096C37.7851 17.4763 37.7584 17.2963 37.7184 17.0696C37.7184 16.963 37.7051 16.8363 37.6784 16.6896C37.6651 16.5296 37.6184 16.423 37.5384 16.3696C37.4984 16.3963 37.4718 16.403 37.4584 16.3896C37.4451 16.3763 37.4251 16.3563 37.3984 16.3296C37.3851 16.2896 37.3584 16.263 37.3184 16.2496C37.2918 16.223 37.2451 16.2096 37.1784 16.2096C37.1251 16.0496 37.0184 15.9563 36.8584 15.9296C36.6984 15.8896 36.5051 15.8896 36.2784 15.9296C36.0918 15.903 35.9451 15.9296 35.8384 16.0096C35.7318 16.0896 35.6918 16.1096 35.7184 16.0696C35.5718 16.1496 35.4518 16.2696 35.3584 16.4296C35.2784 16.5896 35.2718 16.7563 35.3384 16.9296C35.2051 16.9563 35.1118 17.063 35.0584 17.2496C35.0184 17.4363 35.0518 17.603 35.1584 17.7496C35.1584 17.7896 35.1451 17.8496 35.1184 17.9296C35.1051 17.9963 35.0918 18.0696 35.0784 18.1496C35.0651 18.2163 35.0651 18.2763 35.0784 18.3296C35.0918 18.383 35.1251 18.4163 35.1784 18.4296C35.1518 18.7096 35.1118 18.923 35.0584 19.0696C35.0184 19.2163 34.9918 19.363 34.9784 19.5096C35.0051 19.6563 35.0318 19.7963 35.0584 19.9296C35.0851 20.063 35.1118 20.1896 35.1384 20.3096L34.9984 20.2896ZM33.1584 18.6896C33.0384 18.583 32.9651 18.463 32.9384 18.3296C32.9118 18.1963 32.8784 18.083 32.8384 17.9896C32.9184 17.9363 32.9718 17.8696 32.9984 17.7896C33.0251 17.7096 33.0451 17.6363 33.0584 17.5696C33.0718 17.4896 33.0851 17.4296 33.0984 17.3896C33.1251 17.3496 33.1784 17.3363 33.2584 17.3496C33.2318 17.0963 33.2051 16.943 33.1784 16.8896C33.1651 16.823 33.2051 16.7763 33.2984 16.7496C33.2851 16.5363 33.2584 16.3696 33.2184 16.2496C33.1784 16.1296 33.1851 16.0696 33.2384 16.0696C33.3718 15.963 33.4318 15.8896 33.4184 15.8496C33.4051 15.8096 33.4251 15.7563 33.4784 15.6896C33.5584 15.5563 33.6451 15.4163 33.7384 15.2696C33.8451 15.123 33.9651 15.083 34.0984 15.1496C34.1518 15.0963 34.1784 15.023 34.1784 14.9296C34.1918 14.8363 34.2384 14.7763 34.3184 14.7496C34.4251 14.563 34.5384 14.4563 34.6584 14.4296C34.7918 14.403 34.8784 14.443 34.9184 14.5496C35.0384 14.3496 35.1518 14.2496 35.2584 14.2496C35.3651 14.2496 35.4518 14.2496 35.5184 14.2496C35.6384 14.2763 35.7584 14.2496 35.8784 14.1696C36.0118 14.0763 36.2318 14.0163 36.5384 13.9896C36.6051 14.0963 36.7118 14.1763 36.8584 14.2296C37.0051 14.283 37.0851 14.283 37.0984 14.2296C37.3918 14.2563 37.5984 14.2696 37.7184 14.2696C37.8384 14.2563 37.8651 14.283 37.7984 14.3496C37.8518 14.323 37.9118 14.323 37.9784 14.3496C38.0584 14.3763 38.1318 14.4163 38.1984 14.4696C38.2784 14.5096 38.3451 14.5563 38.3984 14.6096C38.4518 14.663 38.4851 14.7096 38.4984 14.7496C38.6718 14.723 38.7918 14.7296 38.8584 14.7696C38.9251 14.8096 39.0184 14.863 39.1384 14.9296C39.1518 15.023 39.1584 15.0896 39.1584 15.1296C39.1718 15.1563 39.1784 15.1896 39.1784 15.2296C39.1784 15.2563 39.1784 15.2963 39.1784 15.3496C39.1918 15.3896 39.2118 15.4696 39.2384 15.5896C39.4251 15.603 39.5318 15.6696 39.5584 15.7896C39.5851 15.9096 39.5851 15.9763 39.5584 15.9896C39.6118 16.003 39.6451 16.0363 39.6584 16.0896C39.6851 16.143 39.6984 16.203 39.6984 16.2696C39.7118 16.3363 39.7318 16.403 39.7584 16.4696C39.7851 16.5363 39.8384 16.5963 39.9184 16.6496C39.9318 16.703 39.9384 16.7696 39.9384 16.8496C39.9518 16.9163 39.8851 17.003 39.7384 17.1096C39.7384 17.1896 39.7584 17.2563 39.7984 17.3096C39.8384 17.3496 39.8784 17.403 39.9184 17.4696C39.9718 17.523 40.0184 17.5963 40.0584 17.6896C40.0984 17.7696 40.1118 17.8763 40.0984 18.0096C40.0451 18.0363 40.0118 18.0763 39.9984 18.1296C39.9984 18.1696 39.9984 18.2163 39.9984 18.2696C39.9984 18.3096 39.9984 18.3496 39.9984 18.3896C39.9984 18.4163 39.9718 18.4363 39.9184 18.4496C39.9718 18.5563 39.9918 18.6896 39.9784 18.8496C39.9784 18.9963 39.9318 19.123 39.8384 19.2296C39.8918 19.2963 39.9184 19.3963 39.9184 19.5296C39.9184 19.6496 39.9584 19.803 40.0384 19.9896C39.9584 20.0163 39.9051 20.0496 39.8784 20.0896C39.8518 20.1163 39.8318 20.1563 39.8184 20.2096C39.8051 20.2496 39.7918 20.2963 39.7784 20.3496C39.7651 20.403 39.7184 20.4496 39.6384 20.4896C39.6384 20.5163 39.6384 20.563 39.6384 20.6296C39.6384 20.6963 39.6318 20.763 39.6184 20.8296C39.6184 20.8963 39.6118 20.9563 39.5984 21.0096C39.5851 21.063 39.5651 21.0963 39.5384 21.1096C39.4584 21.3096 39.3784 21.483 39.2984 21.6296C39.2318 21.763 39.1784 21.8763 39.1384 21.9696C39.0318 21.943 38.9518 21.9896 38.8984 22.1096C38.8584 22.2163 38.7851 22.3363 38.6784 22.4696C38.6251 22.4696 38.5851 22.4763 38.5584 22.4896C38.5318 22.5163 38.5051 22.5363 38.4784 22.5496C38.4651 22.5763 38.4451 22.5896 38.4184 22.5896C38.4051 22.603 38.3718 22.583 38.3184 22.5296C38.1318 22.5563 37.9784 22.5963 37.8584 22.6496C37.7384 22.703 37.6251 22.743 37.5184 22.7696C37.5051 22.8363 37.4451 22.863 37.3384 22.8496C37.2318 22.8363 37.0851 22.8296 36.8984 22.8296C36.7918 22.8296 36.7118 22.843 36.6584 22.8696C36.6184 22.9096 36.5318 22.9096 36.3984 22.8696C36.3184 22.9363 36.2051 22.983 36.0584 23.0096C35.9118 23.0363 35.7251 23.063 35.4984 23.0896C35.4718 23.0363 35.4118 22.9696 35.3184 22.8896C35.2251 22.8096 35.1384 22.803 35.0584 22.8696C34.8584 22.843 34.6984 22.803 34.5784 22.7496C34.4584 22.7096 34.4184 22.6363 34.4584 22.5296C34.3918 22.383 34.2984 22.2763 34.1784 22.2096C34.0584 22.143 33.9251 22.0696 33.7784 21.9896C33.6984 21.923 33.6384 21.8496 33.5984 21.7696C33.5718 21.6896 33.5184 21.643 33.4384 21.6296C33.4784 21.483 33.5051 21.363 33.5184 21.2696C33.5451 21.163 33.5251 21.1163 33.4584 21.1296C33.3651 21.0496 33.2851 20.9896 33.2184 20.9496C33.1651 20.8963 33.1184 20.8496 33.0784 20.8096C33.0518 20.7563 33.0384 20.703 33.0384 20.6496C33.0384 20.583 33.0451 20.4963 33.0584 20.3896C33.0184 20.2563 33.0051 20.1563 33.0184 20.0896C33.0451 20.023 33.0318 19.8963 32.9784 19.7096C32.9518 19.683 32.9451 19.6363 32.9584 19.5696C32.9851 19.4896 33.0118 19.403 33.0384 19.3096C32.9718 19.163 32.9384 19.0163 32.9384 18.8696C32.9384 18.7096 32.9584 18.5963 32.9984 18.5296L33.1584 18.6896ZM42.0384 23.2896L42.1584 23.2096C42.0918 23.103 42.0984 22.9563 42.1784 22.7696C42.2584 22.583 42.2984 22.3963 42.2984 22.2096C42.1651 22.0096 42.1384 21.7696 42.2184 21.4896C42.1918 21.4896 42.1851 21.4296 42.1984 21.3096C42.2251 21.1763 42.1918 21.0496 42.0984 20.9296C42.1651 20.7963 42.2384 20.6763 42.3184 20.5696C42.3984 20.4496 42.4318 20.263 42.4184 20.0096C42.3384 19.9296 42.2918 19.8696 42.2784 19.8296C42.2784 19.7763 42.2851 19.7296 42.2984 19.6896C42.3251 19.6496 42.3451 19.6096 42.3584 19.5696C42.3718 19.5163 42.3584 19.4496 42.3184 19.3696C42.2784 19.3296 42.2584 19.283 42.2584 19.2296C42.2718 19.163 42.2851 19.0963 42.2984 19.0296C42.3118 18.963 42.3184 18.903 42.3184 18.8496C42.3318 18.783 42.3251 18.7363 42.2984 18.7096C42.2318 18.5496 42.2318 18.403 42.2984 18.2696C42.3651 18.1363 42.4118 17.983 42.4384 17.8096C42.3318 17.7563 42.2784 17.6763 42.2784 17.5696C42.2784 17.463 42.3318 17.343 42.4384 17.2096C42.4651 17.0496 42.4718 16.923 42.4584 16.8296C42.4584 16.7363 42.4718 16.6296 42.4984 16.5096C42.4584 16.483 42.4384 16.4096 42.4384 16.2896C42.4384 16.1563 42.3851 16.0296 42.2784 15.9096C42.2251 15.763 42.2251 15.6496 42.2784 15.5696C42.3451 15.4896 42.3584 15.4496 42.3184 15.4496C42.2918 15.3696 42.2784 15.2963 42.2784 15.2296C42.2918 15.1496 42.3051 15.0763 42.3184 15.0096C42.3451 14.9296 42.3651 14.8496 42.3784 14.7696C42.3918 14.6763 42.3918 14.5763 42.3784 14.4696C42.2984 14.443 42.2451 14.383 42.2184 14.2896C42.2051 14.1963 42.1784 14.163 42.1384 14.1896C42.2051 14.0696 42.2518 13.9763 42.2784 13.9096C42.3184 13.843 42.3451 13.783 42.3584 13.7296C42.3851 13.6763 42.4051 13.623 42.4184 13.5696C42.4318 13.503 42.4518 13.4163 42.4784 13.3096C42.4518 13.3096 42.3984 13.2563 42.3184 13.1496C42.2384 13.0296 42.1851 12.8496 42.1584 12.6096C42.1451 12.5563 42.1584 12.503 42.1984 12.4496C42.2518 12.3963 42.2918 12.283 42.3184 12.1096C42.3584 12.0163 42.3584 11.9163 42.3184 11.8096C42.2784 11.703 42.2251 11.583 42.1584 11.4496C42.1051 11.343 42.1051 11.2563 42.1584 11.1896C42.2118 11.123 42.2784 10.9696 42.3584 10.7296C42.3318 10.7296 42.2984 10.7096 42.2584 10.6696C42.2318 10.6296 42.1984 10.5896 42.1584 10.5496C42.1318 10.4963 42.1051 10.4563 42.0784 10.4296C42.0651 10.403 42.0584 10.3963 42.0584 10.4096L42.2584 9.80964C42.2584 9.76964 42.2451 9.73631 42.2184 9.70964C42.1918 9.66964 42.1651 9.62964 42.1384 9.58964C42.1251 9.54964 42.1118 9.50297 42.0984 9.44964C42.0984 9.39631 42.1118 9.32964 42.1384 9.24964L41.9384 9.22964L42.1384 9.10964C42.1518 9.01631 42.1651 8.94297 42.1784 8.88964C42.1918 8.82297 42.2051 8.76964 42.2184 8.72964C42.2318 8.68964 42.2451 8.64964 42.2584 8.60964C42.2718 8.55631 42.2784 8.49631 42.2784 8.42964C42.4784 8.37631 42.6251 8.28297 42.7184 8.14964C42.8251 8.01631 42.8918 7.91631 42.9184 7.84964C43.0118 7.87631 43.1518 7.91631 43.3384 7.96964C43.5384 8.02297 43.6918 8.14964 43.7984 8.34964C43.7451 8.33631 43.7451 8.34964 43.7984 8.38964C43.8651 8.42964 43.9984 8.56297 44.1984 8.78964L44.1184 8.70964L43.9784 8.98964C44.0718 9.17631 44.0918 9.30297 44.0384 9.36964C43.9984 9.42297 43.9918 9.43631 44.0184 9.40964C44.1651 9.64964 44.2318 9.83631 44.2184 9.96964C44.2051 10.103 44.1584 10.223 44.0784 10.3296C44.0784 10.3963 44.0984 10.4763 44.1384 10.5696C44.1918 10.663 44.2451 10.783 44.2984 10.9296C44.2851 10.9963 44.2518 11.0896 44.1984 11.2096C44.1584 11.3163 44.1784 11.443 44.2584 11.5896C44.2984 11.7496 44.3184 11.9163 44.3184 12.0896C44.3184 12.2496 44.3318 12.403 44.3584 12.5496C44.3318 12.5896 44.3051 12.643 44.2784 12.7096C44.2518 12.7763 44.3118 12.8763 44.4584 13.0096C44.3651 13.1696 44.3051 13.2963 44.2784 13.3896C44.2518 13.483 44.2051 13.563 44.1384 13.6296C44.1918 13.8163 44.2251 13.983 44.2384 14.1296C44.2518 14.263 44.3184 14.3963 44.4384 14.5296L44.8784 14.5896L45.9384 14.4896C46.0851 14.5563 46.1984 14.6296 46.2784 14.7096C46.3718 14.7763 46.4918 14.8763 46.6384 15.0096C46.6784 15.0096 46.6984 15.0363 46.6984 15.0896C46.7118 15.143 46.7184 15.203 46.7184 15.2696C46.7184 15.3363 46.7251 15.4096 46.7384 15.4896C46.7651 15.5696 46.8118 15.6496 46.8784 15.7296C46.9318 15.7963 46.9251 15.8896 46.8584 16.0096C46.7918 16.1163 46.6318 16.1963 46.3784 16.2496C46.2851 16.2363 46.1784 16.2563 46.0584 16.3096C45.9518 16.363 45.8384 16.3696 45.7184 16.3296L44.9784 16.4496L44.3584 16.3496C44.3051 16.4563 44.2784 16.543 44.2784 16.6096C44.2784 16.6763 44.2784 16.7363 44.2784 16.7896C44.2918 16.843 44.2984 16.8963 44.2984 16.9496C44.3118 16.9896 44.2984 17.043 44.2584 17.1096C44.2851 17.3496 44.2984 17.5496 44.2984 17.7096C44.2984 17.8696 44.2318 17.9763 44.0984 18.0296C44.2451 18.1896 44.3184 18.3163 44.3184 18.4096C44.3184 18.503 44.3251 18.603 44.3384 18.7096C44.2184 18.7763 44.1651 18.883 44.1784 19.0296C44.1918 19.1763 44.2584 19.303 44.3784 19.4096C44.3518 19.5696 44.3451 19.7163 44.3584 19.8496C44.3718 19.983 44.3584 20.0763 44.3184 20.1296L44.0984 21.0296L44.1184 21.7896L44.0384 22.3096L44.0184 22.7096C44.1518 22.8563 44.1984 23.023 44.1584 23.2096C44.1184 23.3963 44.0984 23.5096 44.0984 23.5496C44.1518 23.6563 44.1184 23.7363 43.9984 23.7896C43.8784 23.8563 43.7718 23.8963 43.6784 23.9096C43.5984 23.9896 43.5451 24.0363 43.5184 24.0496C43.5051 24.0763 43.4118 24.1496 43.2384 24.2696C43.0118 24.1496 42.8784 24.0763 42.8384 24.0496C42.7984 24.023 42.7251 24.0096 42.6184 24.0096C42.4718 23.8096 42.3718 23.6496 42.3184 23.5296C42.2651 23.423 42.2118 23.3363 42.1584 23.2696L42.0384 23.2896Z" fill="white"/>
<path d="M27.412 23.0497L27.152 22.7497C27.2053 22.5897 27.2386 22.463 27.252 22.3697C27.2786 22.263 27.2786 22.1163 27.252 21.9297C27.252 21.9297 27.252 21.9097 27.252 21.8697C27.252 21.8163 27.252 21.763 27.252 21.7097C27.252 21.643 27.2586 21.583 27.272 21.5297C27.2986 21.4763 27.3453 21.443 27.412 21.4297C27.3586 21.3497 27.3253 21.263 27.312 21.1697C27.312 21.0763 27.312 20.9963 27.312 20.9297C27.312 20.863 27.3053 20.8097 27.292 20.7697C27.292 20.7163 27.272 20.6897 27.232 20.6897C27.2853 20.583 27.3253 20.4963 27.352 20.4297C27.3786 20.363 27.392 20.303 27.392 20.2497C27.4053 20.183 27.4053 20.1097 27.392 20.0297C27.392 19.9497 27.392 19.8363 27.392 19.6897C27.4586 19.6763 27.472 19.623 27.432 19.5297C27.4053 19.423 27.432 19.263 27.512 19.0497C27.352 18.9163 27.2986 18.803 27.352 18.7097C27.4186 18.603 27.4853 18.563 27.552 18.5897C27.4053 18.3497 27.352 18.183 27.392 18.0897C27.432 17.9963 27.472 17.9363 27.512 17.9097C27.392 17.7497 27.3586 17.6163 27.412 17.5097C27.4653 17.3897 27.4853 17.2897 27.472 17.2097C27.3653 17.023 27.3186 16.8497 27.332 16.6897C27.3586 16.5163 27.392 16.4097 27.432 16.3697C27.4053 16.2897 27.412 16.183 27.452 16.0497C27.492 15.903 27.532 15.7497 27.572 15.5897C27.4786 15.5763 27.4253 15.543 27.412 15.4897C27.3986 15.423 27.3986 15.363 27.412 15.3097C27.4386 15.243 27.4653 15.1897 27.492 15.1497C27.5186 15.0963 27.532 15.0697 27.532 15.0697C27.372 14.9497 27.312 14.8097 27.352 14.6497C27.392 14.4897 27.4253 14.3563 27.452 14.2497C27.332 14.1563 27.292 14.0363 27.332 13.8897C27.372 13.743 27.4453 13.6363 27.552 13.5697C27.432 13.4763 27.352 13.363 27.312 13.2297C27.272 13.0963 27.2586 12.9497 27.272 12.7897C27.2453 12.7497 27.2453 12.7163 27.272 12.6897C27.2986 12.6497 27.3253 12.6097 27.352 12.5697C27.392 12.5297 27.4253 12.4763 27.452 12.4097C27.492 12.343 27.5053 12.263 27.492 12.1697C27.4253 12.1963 27.372 12.203 27.332 12.1897C27.3053 12.163 27.2786 12.123 27.252 12.0697C27.2386 12.003 27.2253 11.9297 27.212 11.8497C27.1986 11.7697 27.1853 11.683 27.172 11.5897C27.3453 11.443 27.412 11.3097 27.372 11.1897C27.332 11.0697 27.2986 10.9697 27.272 10.8897C27.2586 10.783 27.272 10.663 27.312 10.5297C27.352 10.3963 27.352 10.283 27.312 10.1897C27.3253 10.043 27.312 9.93632 27.272 9.86965C27.2453 9.80299 27.1786 9.70299 27.072 9.56965L27.012 9.50965L27.092 9.40965C27.132 9.35632 27.152 9.28299 27.152 9.18965C27.152 9.08299 27.152 8.98965 27.152 8.90965C27.1653 8.81632 27.1853 8.73632 27.212 8.66965C27.2386 8.60299 27.292 8.56965 27.372 8.56965C27.4253 8.51632 27.4986 8.46299 27.592 8.40965C27.6986 8.35632 27.832 8.31632 27.992 8.28965C28.232 8.26299 28.372 8.27632 28.412 8.32965C28.4653 8.38299 28.532 8.48299 28.612 8.62966C28.7986 8.66965 28.932 8.73632 29.012 8.82965C29.092 8.90965 29.0986 9.02965 29.032 9.18965C29.0053 9.25632 28.9986 9.30299 29.012 9.32965C29.0386 9.34299 29.0586 9.36299 29.072 9.38965C29.0853 9.40299 29.0853 9.42965 29.072 9.46966C29.072 9.49632 29.0453 9.54299 28.992 9.60965C29.0053 9.67632 29.032 9.75632 29.072 9.84965C29.112 9.94299 29.1453 10.043 29.172 10.1497C29.1986 10.243 29.212 10.343 29.212 10.4497C29.212 10.543 29.1786 10.623 29.112 10.6897C29.2186 10.7297 29.2653 10.8297 29.252 10.9897C29.2386 11.1363 29.2186 11.2297 29.192 11.2697C29.2453 11.3363 29.272 11.403 29.272 11.4697C29.2853 11.5363 29.2853 11.5963 29.272 11.6497C29.2586 11.6897 29.252 11.7297 29.252 11.7697C29.2653 11.7963 29.3053 11.8163 29.372 11.8297C29.3986 11.923 29.372 12.0297 29.292 12.1497C29.2253 12.2563 29.2053 12.3697 29.232 12.4897C29.392 12.663 29.3986 12.9163 29.252 13.2497C29.2253 13.303 29.2253 13.3963 29.252 13.5297C29.292 13.6497 29.3053 13.823 29.292 14.0497C29.3986 14.1697 29.4253 14.2497 29.372 14.2897C29.332 14.3163 29.2986 14.3497 29.272 14.3897C29.2986 14.6163 29.2986 14.7963 29.272 14.9297C29.2453 15.0497 29.2186 15.1363 29.192 15.1897C29.2453 15.243 29.272 15.303 29.272 15.3697C29.2853 15.4363 29.292 15.4963 29.292 15.5497C29.292 15.603 29.2853 15.643 29.272 15.6697C29.272 15.6963 29.292 15.703 29.332 15.6897C29.3853 15.7563 29.412 15.8297 29.412 15.9097C29.4253 15.9897 29.4253 16.0763 29.412 16.1697C29.3986 16.2497 29.3853 16.3297 29.372 16.4097C29.372 16.4763 29.392 16.5363 29.432 16.5897C29.4586 16.5897 29.4653 16.6163 29.452 16.6697C29.452 16.723 29.4386 16.7897 29.412 16.8697C29.3853 16.9363 29.352 17.0097 29.312 17.0897C29.272 17.1563 29.2453 17.2097 29.232 17.2497C29.2453 17.2497 29.2586 17.2763 29.272 17.3297C29.2986 17.383 29.312 17.443 29.312 17.5097C29.3253 17.563 29.3253 17.623 29.312 17.6897C29.312 17.743 29.292 17.7763 29.252 17.7897C29.3186 18.0563 29.3653 18.223 29.392 18.2897C29.432 18.343 29.4653 18.4297 29.492 18.5497C29.4386 18.7363 29.4053 18.903 29.392 19.0497C29.392 19.1963 29.4253 19.2697 29.492 19.2697C29.4386 19.443 29.3853 19.583 29.332 19.6897C29.2786 19.783 29.272 19.963 29.312 20.2297C29.312 20.2963 29.332 20.383 29.372 20.4897C29.4253 20.5963 29.4386 20.7497 29.412 20.9497C29.2653 21.0963 29.1986 21.243 29.212 21.3897C29.2386 21.5363 29.232 21.7163 29.192 21.9297C29.2453 22.0097 29.2853 22.1163 29.312 22.2497C29.3386 22.3697 29.352 22.4897 29.352 22.6097C29.352 22.743 29.3453 22.8563 29.332 22.9497C29.3186 23.0563 29.292 23.123 29.252 23.1497C29.132 23.2297 29.0653 23.323 29.052 23.4297C29.0386 23.5363 29.0186 23.5897 28.992 23.5897C28.8986 23.6563 28.7653 23.703 28.592 23.7297C28.432 23.7563 28.2586 23.823 28.072 23.9297C27.992 23.943 27.8853 23.9097 27.752 23.8297C27.6186 23.7497 27.5386 23.6297 27.512 23.4697C27.4186 23.523 27.3586 23.503 27.332 23.4097C27.3186 23.3297 27.2986 23.1763 27.272 22.9497L27.412 23.0497ZM17.032 22.8897C16.992 22.6363 16.992 22.443 17.032 22.3097C17.072 22.163 17.1453 22.0297 17.252 21.9097C17.212 21.843 17.1986 21.7763 17.212 21.7097C17.2386 21.643 17.2653 21.5763 17.292 21.5097C17.3186 21.4297 17.3386 21.3563 17.352 21.2897C17.3786 21.2097 17.372 21.1297 17.332 21.0497C17.4253 20.783 17.5186 20.5897 17.612 20.4697C17.7053 20.3363 17.7586 20.203 17.772 20.0697C17.8786 19.923 17.9453 19.7763 17.972 19.6297C18.012 19.4697 18.032 19.283 18.032 19.0697C18.0453 18.9897 18.0853 18.9163 18.152 18.8497C18.232 18.7697 18.2853 18.6297 18.312 18.4297C18.232 18.3363 18.192 18.2763 18.192 18.2497C18.192 18.2097 18.2986 18.1497 18.512 18.0697C18.5253 17.8563 18.5186 17.7163 18.492 17.6497C18.4653 17.583 18.432 17.4963 18.392 17.3897C18.552 17.1897 18.652 17.0163 18.692 16.8697C18.7453 16.723 18.7053 16.603 18.572 16.5097C18.5986 16.5363 18.6186 16.523 18.632 16.4697C18.6586 16.4163 18.6786 16.3563 18.692 16.2897C18.7053 16.223 18.7186 16.1563 18.732 16.0897C18.7453 16.023 18.752 15.9763 18.752 15.9497L19.032 15.1497C19.032 15.1763 19.0453 15.183 19.072 15.1697C19.0986 15.143 19.1186 15.1097 19.132 15.0697C19.1586 15.0297 19.1653 14.9897 19.152 14.9497C19.1386 14.8963 19.092 14.863 19.012 14.8497C19.132 14.783 19.1786 14.6697 19.152 14.5097C19.1253 14.3497 19.132 14.1963 19.172 14.0497C19.2653 13.9163 19.2986 13.783 19.272 13.6497C19.2453 13.503 19.2386 13.3697 19.252 13.2497C19.252 13.1163 19.252 13.0163 19.252 12.9497C19.252 12.883 19.2186 12.803 19.152 12.7097C19.232 12.6697 19.2853 12.6163 19.312 12.5497C19.352 12.483 19.3786 12.4163 19.392 12.3497C19.4053 12.2697 19.4186 12.1897 19.432 12.1097C19.4586 12.0297 19.492 11.9497 19.532 11.8697C19.3453 11.7363 19.252 11.6163 19.252 11.5097C19.2653 11.3897 19.2786 11.2363 19.292 11.0497C19.3586 11.0497 19.3986 11.043 19.412 11.0297C19.4253 11.003 19.4253 10.9763 19.412 10.9497C19.3986 10.9097 19.3853 10.8697 19.372 10.8297C19.372 10.7763 19.3853 10.7163 19.412 10.6497C19.4386 10.4497 19.4586 10.2763 19.472 10.1297C19.4986 9.98299 19.532 9.92299 19.572 9.94965C19.532 9.66966 19.512 9.47632 19.512 9.36965C19.512 9.24965 19.5386 9.10965 19.592 8.94965C19.632 8.89632 19.692 8.85632 19.772 8.82965C19.8653 8.80299 19.952 8.78299 20.032 8.76965C20.112 8.75632 20.1853 8.74299 20.252 8.72965C20.3186 8.71632 20.3653 8.68299 20.392 8.62966C20.6586 8.65632 20.8453 8.70965 20.952 8.78965C21.072 8.85632 21.1453 8.90965 21.172 8.94965C21.4253 9.05632 21.552 9.17632 21.552 9.30965C21.552 9.42965 21.492 9.54299 21.372 9.64965C21.4786 9.84965 21.5386 10.0163 21.552 10.1497C21.5653 10.2697 21.6253 10.3763 21.732 10.4697C21.6386 10.5763 21.5986 10.6763 21.612 10.7697C21.6386 10.8497 21.612 10.903 21.532 10.9297C21.5853 11.1163 21.6053 11.2763 21.592 11.4097C21.5786 11.543 21.5053 11.643 21.372 11.7097C21.5186 11.8563 21.592 11.9897 21.592 12.1097C21.6053 12.2163 21.5986 12.3097 21.572 12.3897C21.532 12.5363 21.492 12.663 21.452 12.7697C21.4253 12.8763 21.4653 12.923 21.572 12.9097C21.5453 13.1097 21.512 13.2897 21.472 13.4497C21.432 13.6097 21.412 13.743 21.412 13.8497C21.4653 13.8363 21.5053 13.8497 21.532 13.8897C21.5586 13.9297 21.5653 13.9763 21.552 14.0297C21.552 14.083 21.532 14.1363 21.492 14.1897C21.4653 14.243 21.4186 14.2763 21.352 14.2897C21.4586 14.3963 21.5253 14.5097 21.552 14.6297C21.592 14.7497 21.6386 14.843 21.692 14.9097L21.372 15.0697L21.832 15.4097C21.872 15.4497 21.8986 15.5163 21.912 15.6097C21.9253 15.703 21.9453 15.803 21.972 15.9097C22.012 16.0163 22.0653 16.123 22.132 16.2297C22.1986 16.3363 22.292 16.423 22.412 16.4897C22.3853 16.5697 22.3786 16.6563 22.392 16.7497C22.4053 16.843 22.432 16.9297 22.472 17.0097C22.512 17.0897 22.552 17.163 22.592 17.2297C22.6453 17.2963 22.6986 17.3363 22.752 17.3497C22.792 17.403 22.832 17.4697 22.872 17.5497C22.9253 17.6297 22.972 17.703 23.012 17.7697C23.0653 17.8363 23.1186 17.8897 23.172 17.9297C23.2253 17.9563 23.2853 17.9563 23.352 17.9297C23.352 18.0497 23.3586 18.163 23.372 18.2697C23.3853 18.3763 23.4786 18.5563 23.652 18.8097C23.6386 18.7963 23.6386 18.8163 23.652 18.8697C23.6786 18.9097 23.7053 18.9697 23.732 19.0497C23.772 19.1163 23.812 19.1897 23.852 19.2697C23.892 19.3497 23.9253 19.4163 23.952 19.4697C24.112 19.5763 24.2453 19.6697 24.352 19.7497C24.4586 19.8163 24.5453 19.8763 24.612 19.9297C24.612 20.0897 24.632 20.2163 24.672 20.3097C24.7253 20.3897 24.7853 20.4697 24.852 20.5497C24.932 20.6163 25.012 20.6897 25.092 20.7697C25.1853 20.8497 25.272 20.9563 25.352 21.0897C25.2853 21.1163 25.2853 21.1763 25.352 21.2697C25.432 21.3497 25.492 21.5097 25.532 21.7497C25.4653 21.8163 25.392 21.8963 25.312 21.9897C25.232 22.0697 25.1386 22.223 25.032 22.4497C24.9653 22.543 24.9053 22.623 24.852 22.6897C24.812 22.7563 24.6986 22.8363 24.512 22.9297C24.2853 22.7963 24.112 22.6963 23.992 22.6297C23.8853 22.563 23.8186 22.543 23.792 22.5697C23.592 22.463 23.492 22.363 23.492 22.2697C23.5053 22.163 23.472 22.063 23.392 21.9697C23.3253 21.9163 23.2453 21.8563 23.152 21.7897C23.0586 21.7097 23.012 21.5963 23.012 21.4497C22.932 21.4363 22.872 21.4163 22.832 21.3897C22.8053 21.363 22.7786 21.323 22.752 21.2697C22.7253 21.2163 22.692 21.1563 22.652 21.0897C22.612 21.0097 22.5453 20.9163 22.452 20.8097C22.4253 20.7297 22.3786 20.6563 22.312 20.5897C22.2586 20.5097 22.2386 20.4163 22.252 20.3097C22.172 20.323 22.112 20.3163 22.072 20.2897C22.0453 20.263 22.0186 20.223 21.992 20.1697C21.9653 20.1163 21.932 20.0497 21.892 19.9697C21.852 19.8763 21.7853 19.7763 21.692 19.6697C21.7053 19.6563 21.6653 19.5963 21.572 19.4897C21.4786 19.3697 21.412 19.243 21.372 19.1097C21.412 19.0697 21.4186 19.0363 21.392 19.0097C21.3786 18.9697 21.352 18.9363 21.312 18.9097C21.2853 18.8697 21.2586 18.8297 21.232 18.7897C21.2053 18.7497 21.2053 18.703 21.232 18.6497C21.1386 18.6097 21.072 18.563 21.032 18.5097C20.992 18.4563 20.9653 18.403 20.952 18.3497C20.9386 18.2963 20.932 18.2497 20.932 18.2097C20.9453 18.1563 20.9586 18.1163 20.972 18.0897C20.9453 18.0097 20.8786 17.9097 20.772 17.7897C20.6786 17.6697 20.5853 17.563 20.492 17.4697C20.4786 17.5763 20.4586 17.6963 20.432 17.8297C20.4186 17.963 20.3586 18.1163 20.252 18.2897C20.3053 18.3963 20.3386 18.4763 20.352 18.5297C20.3786 18.583 20.3853 18.6297 20.372 18.6697C20.372 18.6963 20.3586 18.7297 20.332 18.7697C20.3186 18.7963 20.3053 18.843 20.292 18.9097C20.172 19.1363 20.092 19.3097 20.052 19.4297C20.012 19.5363 19.9853 19.583 19.972 19.5697C19.932 19.6897 19.892 19.783 19.852 19.8497C19.8253 19.9163 19.7986 19.9763 19.772 20.0297C19.7586 20.083 19.752 20.143 19.752 20.2097C19.7653 20.2763 19.792 20.3763 19.832 20.5097C19.8053 20.563 19.7853 20.603 19.772 20.6297C19.7586 20.643 19.7386 20.6697 19.712 20.7097C19.6853 20.7363 19.6453 20.7697 19.592 20.8097C19.552 20.8497 19.492 20.9163 19.412 21.0097C19.3453 21.0097 19.3186 21.0697 19.332 21.1897C19.3586 21.3097 19.4053 21.4163 19.472 21.5097C19.2853 21.6963 19.1786 21.8163 19.152 21.8697C19.1253 21.923 19.1653 22.0363 19.272 22.2097C19.192 22.2363 19.1386 22.283 19.112 22.3497C19.0853 22.403 19.0586 22.463 19.032 22.5297C19.0186 22.6097 18.9986 22.6897 18.972 22.7697C18.9453 22.8497 18.9053 22.9297 18.852 23.0097C18.852 22.9697 18.852 22.9563 18.852 22.9697C18.852 22.983 18.8453 23.0097 18.832 23.0497C18.832 23.0897 18.8053 23.1297 18.752 23.1697C18.712 23.223 18.6386 23.263 18.532 23.2897C18.5053 23.4497 18.4253 23.5763 18.292 23.6697C18.172 23.7763 18.0453 23.7897 17.912 23.7097C17.7653 23.6963 17.6186 23.6497 17.472 23.5697C17.3253 23.4897 17.2053 23.4163 17.112 23.3497C17.1386 23.3497 17.152 23.2897 17.152 23.1697C17.1653 23.0497 17.132 22.8963 17.052 22.7097L17.032 22.8897Z" fill="white"/>
<path d="M11.1065 23.2697L10.9065 23.0697C10.9465 23.0297 10.9798 22.9763 11.0065 22.9097C11.0332 22.843 11.0598 22.7697 11.0865 22.6897C11.1132 22.623 11.1465 22.563 11.1865 22.5097C11.2265 22.4563 11.2865 22.423 11.3665 22.4097C11.2865 22.263 11.2398 22.103 11.2265 21.9297C11.2132 21.7563 11.1732 21.6363 11.1065 21.5697C11.1865 21.423 11.2265 21.2697 11.2265 21.1097C11.2265 20.9497 11.2598 20.8563 11.3265 20.8297C11.2865 20.7497 11.2598 20.683 11.2465 20.6297C11.2332 20.563 11.2198 20.503 11.2065 20.4497C11.1932 20.383 11.1798 20.3163 11.1665 20.2497C11.1532 20.183 11.1265 20.0963 11.0865 19.9897C11.1665 19.843 11.2332 19.7097 11.2865 19.5897C11.3532 19.4563 11.3332 19.343 11.2265 19.2497C11.2932 19.223 11.2998 19.1563 11.2465 19.0497C11.2065 18.943 11.1532 18.783 11.0865 18.5697C11.0865 18.5297 11.0998 18.4763 11.1265 18.4097C11.1665 18.343 11.1998 18.2763 11.2265 18.2097C11.2665 18.143 11.2932 18.083 11.3065 18.0297C11.3198 17.9763 11.3065 17.9497 11.2665 17.9497C11.1865 17.7497 11.1532 17.563 11.1665 17.3897C11.1932 17.203 11.2798 17.0497 11.4265 16.9297C11.4265 16.823 11.4132 16.743 11.3865 16.6897C11.3732 16.623 11.3798 16.483 11.4065 16.2697C11.2865 16.123 11.2532 16.003 11.3065 15.9097C11.2665 15.8163 11.2465 15.723 11.2465 15.6297C11.2465 15.5363 11.2532 15.4497 11.2665 15.3697C11.2932 15.2763 11.3132 15.1963 11.3265 15.1297C11.3398 15.063 11.3398 15.003 11.3265 14.9497C11.3532 15.003 11.3532 14.963 11.3265 14.8297C11.2998 14.6963 11.2532 14.5763 11.1865 14.4697C11.2265 14.3763 11.2465 14.303 11.2465 14.2497C11.2465 14.1963 11.2398 14.1497 11.2265 14.1097C11.2132 14.0697 11.2065 14.0297 11.2065 13.9897C11.2198 13.9363 11.2532 13.8697 11.3065 13.7897C11.3065 13.7363 11.2998 13.6963 11.2865 13.6697C11.2865 13.6297 11.2798 13.5897 11.2665 13.5497C11.2665 13.4963 11.2598 13.4363 11.2465 13.3697C11.2332 13.2897 11.2198 13.183 11.2065 13.0497C11.1932 13.0763 11.1865 13.0697 11.1865 13.0297C11.1865 12.9763 11.1798 12.9163 11.1665 12.8497C11.1665 12.783 11.1532 12.723 11.1265 12.6697C11.1132 12.6163 11.0865 12.5897 11.0465 12.5897C11.1132 12.4963 11.1465 12.4163 11.1465 12.3497C11.1598 12.283 11.1598 12.2297 11.1465 12.1897C11.1332 12.1363 11.1198 12.0963 11.1065 12.0697C11.0932 12.0297 11.0998 12.003 11.1265 11.9897C11.1132 11.883 11.1265 11.7697 11.1665 11.6497C11.2065 11.5163 11.1732 11.3963 11.0665 11.2897C11.0932 11.223 11.0998 11.0963 11.0865 10.9097C11.0732 10.723 11.0532 10.5763 11.0265 10.4697C10.9998 10.3897 10.9998 10.2497 11.0265 10.0497C11.0665 9.83632 11.0732 9.66965 11.0465 9.54965C10.9398 9.60299 10.8798 9.57632 10.8665 9.46965C10.8665 9.34965 10.8798 9.18298 10.9065 8.96965L10.8665 8.98965L10.8465 8.64965C10.9132 8.55632 10.9598 8.46965 10.9865 8.38965C11.0265 8.30965 11.0798 8.15632 11.1465 7.92965C11.2665 7.95632 11.3732 7.94965 11.4665 7.90965C11.5732 7.86965 11.7465 7.84298 11.9865 7.82965C12.2132 7.86965 12.3865 7.89632 12.5065 7.90965C12.6265 7.92298 12.6998 7.93632 12.7265 7.94965C12.6998 8.01632 12.6932 8.08298 12.7065 8.14965C12.7332 8.20298 12.7598 8.26298 12.7865 8.32965C12.8132 8.38298 12.8332 8.44298 12.8465 8.50965C12.8732 8.57632 12.8665 8.64965 12.8265 8.72965C12.8532 8.78298 12.8932 8.82965 12.9465 8.86965C13.0132 8.89632 13.0598 9.00965 13.0865 9.20965C13.0465 9.26298 13.0265 9.31632 13.0265 9.36965C13.0398 9.42298 13.0465 9.47632 13.0465 9.52965C13.0598 9.58298 13.0598 9.62965 13.0465 9.66965C13.0465 9.70965 13.0265 9.73632 12.9865 9.74965C12.9865 9.96298 12.9798 10.143 12.9665 10.2897C12.9665 10.4363 12.9732 10.483 12.9865 10.4297C12.9998 10.563 12.9998 10.6897 12.9865 10.8097C12.9865 10.9297 12.9932 10.9897 13.0065 10.9897C13.1532 11.123 13.2332 11.2963 13.2465 11.5097C13.2732 11.723 13.2732 11.8963 13.2465 12.0297C13.2732 11.9763 13.2665 12.003 13.2265 12.1097C13.1998 12.203 13.2598 12.3163 13.4065 12.4497C13.3932 12.5697 13.3798 12.663 13.3665 12.7297C13.3532 12.783 13.3398 12.8297 13.3265 12.8697C13.3132 12.9097 13.2998 12.9497 13.2865 12.9897C13.2865 13.0297 13.2932 13.0963 13.3065 13.1897C13.3732 13.2697 13.3998 13.3897 13.3865 13.5497C13.3865 13.6963 13.3798 13.8563 13.3665 14.0297C13.3932 13.8963 13.4332 13.8363 13.4865 13.8497C13.5398 13.8497 13.6398 13.8697 13.7865 13.9097C13.9465 13.8297 14.0798 13.8163 14.1865 13.8697C14.2932 13.923 14.4198 13.943 14.5665 13.9297C14.6465 13.8763 14.7265 13.863 14.8065 13.8897C14.8998 13.903 14.9865 13.943 15.0665 14.0097C15.1598 14.0763 15.2465 14.163 15.3265 14.2697C15.4065 14.363 15.4732 14.4497 15.5265 14.5297L15.6665 14.8297C15.6665 14.843 15.6198 14.903 15.5265 15.0097C15.4332 15.103 15.3798 15.183 15.3665 15.2497C15.2998 15.3963 15.1798 15.503 15.0065 15.5697C14.8465 15.6363 14.6932 15.703 14.5465 15.7697L13.2865 15.7097C13.3398 15.963 13.3465 16.143 13.3065 16.2497C13.2665 16.3563 13.2065 16.443 13.1265 16.5097C13.1532 16.5497 13.1665 16.5897 13.1665 16.6297C13.1798 16.6697 13.1865 16.7097 13.1865 16.7497C13.1998 16.7897 13.2132 16.843 13.2265 16.9097C13.2398 16.9763 13.2798 17.063 13.3465 17.1697C13.2532 17.2097 13.2332 17.3163 13.2865 17.4897C13.3532 17.6497 13.3998 17.803 13.4265 17.9497C13.3998 18.0163 13.3665 18.083 13.3265 18.1497C13.2865 18.203 13.2665 18.283 13.2665 18.3897C13.3332 18.5897 13.3465 18.723 13.3065 18.7897C13.2665 18.8563 13.1932 18.963 13.0865 19.1097C13.1265 19.163 13.1598 19.223 13.1865 19.2897C13.2132 19.3563 13.2332 19.423 13.2465 19.4897C13.2598 19.5563 13.2665 19.6097 13.2665 19.6497C13.2798 19.6897 13.2798 19.703 13.2665 19.6897L13.1465 20.5697L13.0065 21.5497L12.9465 22.2497C13.1065 22.263 13.1932 22.3097 13.2065 22.3897C13.2332 22.483 13.2132 22.563 13.1465 22.6297C13.1998 22.7763 13.1998 22.8963 13.1465 22.9897C13.1065 23.0963 13.0865 23.2563 13.0865 23.4697C13.0465 23.4963 13.0132 23.5363 12.9865 23.5897C12.9732 23.643 12.9598 23.6897 12.9465 23.7297C12.9465 23.783 12.9398 23.823 12.9265 23.8497C12.9265 23.8897 12.9065 23.903 12.8665 23.8897C12.6398 23.9963 12.4665 24.0963 12.3465 24.1897C12.2398 24.283 12.1798 24.303 12.1665 24.2497C12.0598 24.2363 11.9665 24.2097 11.8865 24.1697C11.8198 24.143 11.7532 24.1097 11.6865 24.0697C11.6332 24.043 11.5732 24.023 11.5065 24.0097C11.4532 23.9963 11.3932 24.003 11.3265 24.0297C11.2198 23.923 11.1265 23.7897 11.0465 23.6297C10.9798 23.483 10.9932 23.3763 11.0865 23.3097L11.1065 23.2697ZM2.42648 22.3297C2.38648 22.223 2.31982 22.1163 2.22648 22.0097C2.14648 21.8897 2.15982 21.7563 2.26648 21.6097C2.13315 21.5163 2.05315 21.4163 2.02648 21.3097C2.01315 21.203 1.99982 21.1363 1.98648 21.1097C1.99982 21.003 1.99315 20.9163 1.96648 20.8497C1.95315 20.783 1.92648 20.7297 1.88648 20.6897C1.85982 20.6497 1.83315 20.6097 1.80648 20.5697C1.79315 20.5297 1.79982 20.4763 1.82648 20.4097C1.78648 20.3297 1.76648 20.2563 1.76648 20.1897C1.76648 20.123 1.76648 20.0497 1.76648 19.9697C1.77982 19.8897 1.78648 19.803 1.78648 19.7097C1.78648 19.6163 1.77315 19.503 1.74648 19.3697C1.77315 19.4097 1.76648 19.3697 1.72648 19.2497C1.69982 19.1297 1.71982 19.0097 1.78648 18.8897C1.75982 18.783 1.74648 18.6897 1.74648 18.6097C1.75982 18.5297 1.77982 18.4563 1.80648 18.3897C1.83315 18.3097 1.85982 18.2363 1.88648 18.1697C1.91315 18.103 1.93315 18.0297 1.94648 17.9497C1.79982 17.8163 1.73315 17.6897 1.74648 17.5697C1.75982 17.4497 1.75315 17.3363 1.72648 17.2297C1.91315 17.2563 1.88648 17.1363 1.64648 16.8697C1.68648 16.6697 1.71982 16.5097 1.74648 16.3897C1.78648 16.2697 1.85982 16.223 1.96648 16.2497C1.85982 16.1563 1.79315 16.0297 1.76648 15.8697C1.75315 15.6963 1.79982 15.6163 1.90648 15.6297C1.89315 15.5763 1.87982 15.5097 1.86648 15.4297C1.86648 15.3497 1.86648 15.2763 1.86648 15.2097C1.86648 15.143 1.87315 15.0897 1.88648 15.0497C1.89982 14.9963 1.91315 14.9763 1.92648 14.9897C1.77982 14.8563 1.70648 14.743 1.70648 14.6497C1.70648 14.5563 1.79982 14.423 1.98648 14.2497C1.89315 14.1697 1.82648 14.103 1.78648 14.0497C1.74648 13.9963 1.71315 13.9497 1.68648 13.9097C1.67315 13.8563 1.66648 13.803 1.66648 13.7497C1.66648 13.683 1.65982 13.603 1.64648 13.5097C1.71315 13.4963 1.75315 13.4697 1.76648 13.4297C1.79315 13.3897 1.80648 13.3497 1.80648 13.3097C1.81982 13.2563 1.82648 13.2097 1.82648 13.1697C1.83982 13.1297 1.86648 13.103 1.90648 13.0897C1.85315 12.9697 1.82648 12.8697 1.82648 12.7897C1.82648 12.6963 1.83315 12.6163 1.84648 12.5497C1.87315 12.4697 1.89982 12.403 1.92648 12.3497C1.96648 12.2963 1.98648 12.243 1.98648 12.1897C1.98648 12.163 1.96648 12.123 1.92648 12.0697C1.89982 12.0163 1.87315 11.963 1.84648 11.9097C1.81982 11.843 1.79982 11.783 1.78648 11.7297C1.78648 11.663 1.81982 11.6163 1.88648 11.5897C1.81982 11.4563 1.80648 11.363 1.84648 11.3097C1.88648 11.2563 1.93315 11.1897 1.98648 11.1097C2.01315 10.9497 2.01982 10.7897 2.00648 10.6297C1.99315 10.4697 2.00648 10.323 2.04648 10.1897C1.97982 10.1363 1.93315 10.0963 1.90648 10.0697C1.89315 10.043 1.88648 10.023 1.88648 10.0097C1.88648 9.98298 1.87982 9.95632 1.86648 9.92965C1.86648 9.88965 1.84648 9.83632 1.80648 9.76965C1.81982 9.63632 1.88648 9.49632 2.00648 9.34965C2.13982 9.20298 2.25982 9.09632 2.36648 9.02965C2.37982 9.02965 2.39982 9.00965 2.42648 8.96965C2.46648 8.92965 2.50648 8.89632 2.54648 8.86965C2.59982 8.82965 2.66648 8.80298 2.74648 8.78965C2.83982 8.77632 2.94648 8.78965 3.06648 8.82965C3.09315 8.84298 3.16648 8.80965 3.28648 8.72965C3.41982 8.63632 3.59315 8.56965 3.80648 8.52965C3.93982 8.48965 4.04648 8.50298 4.12648 8.56965C4.21982 8.63632 4.31982 8.66965 4.42648 8.66965C4.57315 8.54965 4.70648 8.52298 4.82648 8.58965C4.95982 8.64298 5.07982 8.69632 5.18648 8.74965C5.25315 8.74965 5.34648 8.74298 5.46648 8.72965C5.59982 8.70298 5.78648 8.60298 6.02648 8.42965C6.02648 8.46965 6.05315 8.50298 6.10649 8.52965C6.15982 8.54298 6.21982 8.55632 6.28648 8.56965C6.35315 8.58298 6.40648 8.60965 6.44648 8.64965C6.49982 8.67632 6.52648 8.71632 6.52648 8.76965C6.56648 8.75632 6.62648 8.74965 6.70648 8.74965C6.78648 8.74965 6.86648 8.74298 6.94648 8.72965C7.02648 8.71632 7.09315 8.68965 7.14648 8.64965C7.19982 8.60965 7.21982 8.54965 7.20648 8.46965C7.32648 8.53632 7.41982 8.58298 7.48648 8.60965C7.56648 8.63632 7.63315 8.65632 7.68649 8.66965C7.73982 8.66965 7.78648 8.66965 7.82648 8.66965C7.87982 8.66965 7.93982 8.67632 8.00648 8.68965C8.13982 8.66298 8.28648 8.66965 8.44648 8.70965C8.60648 8.74965 8.75982 8.78298 8.90648 8.80965C8.95982 8.76965 9.01315 8.76298 9.06649 8.78965C9.11982 8.80298 9.16648 8.82965 9.20648 8.86965C9.24648 8.90965 9.28648 8.94965 9.32648 8.98965C9.36649 9.02965 9.40649 9.04298 9.44649 9.02965C9.44649 9.08298 9.45315 9.17632 9.46649 9.30965C9.49315 9.44298 9.53982 9.52298 9.60648 9.54965C9.64648 9.69632 9.63315 9.82965 9.56649 9.94965C9.51315 10.0697 9.47315 10.203 9.44649 10.3497C9.33982 10.4163 9.25315 10.4763 9.18649 10.5297C9.13315 10.583 9.08649 10.6297 9.04648 10.6697C9.00648 10.6963 8.95982 10.723 8.90648 10.7497C8.86648 10.763 8.80648 10.7763 8.72648 10.7897C8.59315 10.803 8.48648 10.8097 8.40648 10.8097C8.32648 10.7963 8.25315 10.783 8.18649 10.7697C8.13315 10.7563 8.07982 10.7497 8.02648 10.7497C7.97315 10.7363 7.91315 10.7363 7.84648 10.7497C7.76648 10.7763 7.66648 10.803 7.54648 10.8297C7.43982 10.8563 7.31315 10.863 7.16648 10.8497C7.01982 10.8363 6.82649 10.8297 6.58648 10.8297C6.34648 10.8163 6.19982 10.803 6.14648 10.7897C6.05315 10.643 5.92648 10.5897 5.76648 10.6297C5.60648 10.6563 5.39315 10.6697 5.12648 10.6697C4.96648 10.6963 4.77982 10.7097 4.56648 10.7097C4.35315 10.6963 4.21315 10.643 4.14648 10.5497C4.02648 10.5763 3.96648 10.6297 3.96648 10.7097C3.96648 10.7763 3.90648 10.8297 3.78648 10.8697L3.84648 11.6097L4.06648 12.2897L3.98648 12.7897L3.74648 13.6297L3.76648 13.9897C3.79315 14.2563 3.81982 14.443 3.84648 14.5497C3.88648 14.643 3.93982 14.6897 4.00648 14.6897C3.87315 14.8097 3.79982 14.923 3.78648 15.0297C3.77315 15.123 3.77982 15.2697 3.80648 15.4697C3.83315 15.603 3.87315 15.723 3.92648 15.8297C3.99315 15.9363 4.00648 15.9763 3.96648 15.9497C3.99315 16.003 4.00648 16.0763 4.00648 16.1697C4.00648 16.2497 3.99982 16.3297 3.98648 16.4097C3.98648 16.4897 3.98648 16.563 3.98648 16.6297C3.98648 16.6963 3.99982 16.7297 4.02648 16.7297C4.03982 16.8097 4.03315 16.883 4.00648 16.9497C3.97982 17.0163 3.95315 17.083 3.92648 17.1497C3.91315 17.203 3.90648 17.2563 3.90648 17.3097C3.91982 17.3497 3.96648 17.383 4.04648 17.4097C3.97982 17.4897 3.93982 17.5697 3.92648 17.6497C3.92648 17.7297 3.92648 17.7963 3.92648 17.8497C3.93982 17.8897 3.93982 17.923 3.92648 17.9497C3.92648 17.9763 3.89315 17.983 3.82648 17.9697C3.91982 18.2097 3.95982 18.3697 3.94648 18.4497C3.93315 18.5163 3.89315 18.563 3.82648 18.5897C3.90648 18.6963 3.95315 18.8163 3.96648 18.9497C3.97982 19.0697 3.98648 19.1897 3.98648 19.3097C3.98648 19.4297 3.98648 19.543 3.98648 19.6497C3.98648 19.743 4.01982 19.8163 4.08648 19.8697C4.11315 20.1363 4.13315 20.3697 4.14648 20.5697C4.15982 20.7563 4.16648 20.8763 4.16648 20.9297C4.13982 21.423 4.25982 21.563 4.52648 21.3497C4.71315 21.3763 4.82648 21.4297 4.86648 21.5097C4.90648 21.5897 4.95315 21.6163 5.00648 21.5897C5.17982 21.5363 5.29315 21.4963 5.34648 21.4697C5.41315 21.443 5.49982 21.483 5.60648 21.5897C5.89982 21.3363 6.11982 21.2563 6.26648 21.3497C6.33315 21.3763 6.38648 21.3763 6.42649 21.3497C6.47982 21.323 6.55982 21.3497 6.66648 21.4297C6.73315 21.4697 6.79315 21.4897 6.84649 21.4897C6.91315 21.4763 6.97315 21.463 7.02649 21.4497C7.09315 21.423 7.15982 21.4097 7.22649 21.4097C7.30649 21.3963 7.38649 21.4163 7.46649 21.4697C7.50648 21.483 7.55315 21.4763 7.60648 21.4497C7.67315 21.423 7.73315 21.403 7.78648 21.3897C7.85315 21.363 7.90648 21.3497 7.94648 21.3497C7.99982 21.3363 8.03315 21.3563 8.04648 21.4097C8.17982 21.4097 8.28649 21.4097 8.36649 21.4097C8.44649 21.3963 8.51315 21.383 8.56649 21.3697C8.63315 21.343 8.68648 21.3163 8.72648 21.2897C8.77982 21.263 8.84649 21.2363 8.92649 21.2097L9.24648 21.1697C9.37982 21.303 9.47315 21.3763 9.52649 21.3897C9.57982 21.403 9.68649 21.423 9.84649 21.4497C9.81982 21.623 9.79315 21.7763 9.76649 21.9097C9.73982 22.0297 9.72649 22.103 9.72649 22.1297C9.69982 22.3163 9.69315 22.4697 9.70649 22.5897C9.71982 22.723 9.65982 22.8297 9.52649 22.9097C9.49982 22.923 9.43982 22.983 9.34649 23.0897C9.25315 23.1963 9.18648 23.2497 9.14648 23.2497C9.09315 23.183 9.01982 23.143 8.92649 23.1297C8.83315 23.1163 8.73315 23.1163 8.62648 23.1297C8.53315 23.143 8.43982 23.163 8.34649 23.1897C8.26649 23.2163 8.20649 23.2363 8.16648 23.2497C8.04648 23.1563 7.93982 23.1297 7.84648 23.1697C7.75315 23.2097 7.56648 23.2697 7.28648 23.3497C7.25982 23.283 7.19315 23.2497 7.08648 23.2497C6.97982 23.2497 6.81315 23.323 6.58648 23.4697C6.59982 23.4697 6.59315 23.4563 6.56649 23.4297C6.53982 23.4163 6.49982 23.3963 6.44648 23.3697C6.40648 23.3563 6.35315 23.3497 6.28648 23.3497C6.23315 23.363 6.18648 23.3963 6.14648 23.4497C5.86648 23.303 5.67982 23.223 5.58648 23.2097C5.49315 23.1963 5.39315 23.1763 5.28648 23.1497C5.05982 23.283 4.91315 23.363 4.84648 23.3897C4.79315 23.4163 4.72648 23.4163 4.64648 23.3897C4.53982 23.4163 4.41315 23.4097 4.26648 23.3697C4.11982 23.3297 3.93315 23.2097 3.70648 23.0097C3.66648 23.0097 3.63315 23.023 3.60648 23.0497C3.57982 23.0897 3.54648 23.123 3.50648 23.1497C3.46648 23.1763 3.41315 23.1963 3.34648 23.2097C3.29315 23.223 3.21982 23.2163 3.12648 23.1897C3.00648 23.1097 2.89982 23.0163 2.80648 22.9097C2.71315 22.8163 2.68648 22.743 2.72648 22.6897C2.63315 22.6897 2.55982 22.663 2.50648 22.6097C2.46648 22.5697 2.43315 22.5163 2.40648 22.4497C2.37982 22.3963 2.35315 22.343 2.32648 22.2897C2.31315 22.2363 2.28648 22.203 2.24648 22.1897L2.42648 22.3297Z" fill="white"/>
</svg>
