<svg width="81" height="32" viewBox="0 0 81 32" fill="none" xmlns="http://www.w3.org/2000/svg">
<path d="M75.8482 16L76.1882 16.24L76.4882 16.44L76.4682 16.96L76.4882 17.34L76.6682 17.68L77.0082 17.9V18.36L77.3282 18.56L77.4882 18.96L77.7482 19.26L77.7082 19.72L77.7482 20.14L78.0282 20.6L77.7282 20.84L78.0282 21.16L77.8082 21.6L77.5682 22L77.6882 22.42L77.6082 22.86L77.3082 23.18L76.9882 23.48L76.8482 23.92L76.4082 23.94L76.0882 24.22L75.7682 24.58L75.3282 24.22H74.9682L74.6082 24.06L74.2682 24.02L73.8482 23.94L73.5682 23.68L73.3682 23.32L72.9282 23.2L72.7282 22.88L72.5082 22.46L72.0682 22.38L71.7882 22.2L71.3682 22.08L71.0082 22.26L70.7482 22.56L70.6682 23.02L70.2882 23.26L69.9682 23.48L69.6482 23.66L69.4482 24.06L69.1282 24.22L68.6682 24.2L68.3882 24.58L68.0282 24.28L67.6082 24.36L67.3682 24.14L66.9882 24.04L66.6482 23.78L66.2482 23.64L66.0882 23.28V22.8L65.9282 22.4L65.7882 22.04L65.5082 21.62L65.9082 21.2L65.6882 20.78L65.7682 20.48V20.08L65.9082 19.74L65.9282 19.36L66.0082 19.04L66.1082 18.62L66.4282 18.4L66.2882 17.88L66.6682 17.66L67.0282 17.32L67.0882 16.94L67.0482 16.4L67.5482 16.28L67.8282 15.98L68.0682 15.66L68.3282 15.38L68.5082 14.98L68.6682 14.6L69.2482 14.68L69.4882 14.3L69.8482 14.18L70.1882 13.86L70.6082 13.92L70.9682 13.78L71.4282 13.76L71.8082 13.88L72.1682 14.1L72.5282 13.9L72.9082 14.12L73.1882 14.2L73.7082 14L74.0082 14.22L74.2482 14.58L74.5282 14.84L74.9282 14.96L75.1882 15.26L75.3082 15.58L75.6882 15.68L75.8482 16ZM66.9882 11.2L67.0082 10.88L66.9682 10.54L67.1882 10.2L67.1682 9.82L67.3482 9.5L67.4282 9.2L67.7682 8.94L68.0682 8.74L68.4882 8.72L68.8282 8.76L69.1682 9.08L69.4882 9.28L69.7882 9.56L69.9282 9.98L70.0682 10.36L70.1882 10.7V11.02L70.2482 11.42L70.2282 11.74L70.1882 12.12L69.9482 12.34L69.8882 12.7L69.6682 12.9L69.4682 13.12H69.1282L68.7682 13.28L68.4482 13.24L68.1882 13.12L67.9282 13.1L67.5482 12.92L67.3482 12.68L67.1682 12.32L67.0882 11.94L67.0682 11.56L66.9882 11.2ZM73.0682 12.96L72.7682 12.78L72.4882 12.46V12.04L72.3482 11.64L72.4482 11.28L72.5682 10.9L72.6082 10.52L72.8082 10.16L73.0282 9.84L73.2882 9.6L73.5682 9.3L73.8482 9.04L74.2882 8.9L74.6882 8.94L75.0282 9.22L75.1882 9.52L75.3282 9.84L75.6282 10.12L75.7682 10.46L75.7082 10.82L75.6282 11.2L75.7482 11.54L75.7282 11.94L75.4482 12.18L75.2082 12.46L75.0282 12.72L74.7482 12.98L74.4882 13.06L74.1482 13.08L73.7882 13.2L73.4282 13.1L73.0682 12.96ZM79.7082 13.44L79.8082 13.9L79.6882 14.34L79.5482 14.84L79.3482 15.22L79.0482 15.48L78.7482 15.68L78.3882 15.86L78.0082 15.74L77.6282 15.7L77.3282 15.68L76.9682 15.5L76.7282 15.1L76.6682 14.72L76.6482 14.32L76.6082 14.02L76.6682 13.6L76.8482 13.28L77.0882 12.94L77.3482 12.7L77.6082 12.46L77.9482 12.24L78.3282 12.3L78.7482 12.38L79.1082 12.48L79.4482 12.72L79.6682 13.04L79.7082 13.44ZM66.2882 15.7L65.9682 15.86L65.7082 16.08L65.3282 16.14L65.0882 16.02L64.7082 16.04L64.3482 15.88L64.1082 15.64L63.8082 15.44L63.6082 15.14L63.5282 14.88L63.4482 14.6L63.6082 14.18L63.6682 13.74V13.28L63.9482 12.94L64.4282 12.74L64.8282 12.7H65.2282L65.4882 13.02L65.7482 13.4L66.0082 13.7L66.2282 14.04L66.4082 14.36L66.4682 14.82L66.4082 15.16L66.4682 15.58L66.2882 15.7Z" fill="white"/>
<path d="M58.1622 23.94C58.1755 23.9267 58.1888 23.9 58.2022 23.86C58.2288 23.82 58.2488 23.78 58.2622 23.74C58.2755 23.7 58.2888 23.66 58.3022 23.62C58.3155 23.5933 58.3155 23.5867 58.3022 23.6C58.3288 23.5067 58.3355 23.4067 58.3222 23.3C58.3222 23.1933 58.3555 23.0533 58.4222 22.88C58.5022 22.7333 58.5422 22.6067 58.5422 22.5C58.5422 22.3933 58.5622 22.2267 58.6022 22C58.5622 22 58.5155 21.9733 58.4622 21.92C58.4222 21.8533 58.3955 21.7867 58.3822 21.72C58.3688 21.64 58.3688 21.5667 58.3822 21.5C58.4088 21.42 58.4622 21.3667 58.5422 21.34C58.4755 21.2733 58.4422 21.2 58.4422 21.12C58.4422 21.04 58.4955 20.92 58.6022 20.76C58.4688 20.6533 58.3955 20.54 58.3822 20.42C58.3688 20.3 58.3555 20.1667 58.3422 20.02C58.3688 19.9133 58.3822 19.8267 58.3822 19.76C58.3822 19.6933 58.3755 19.6333 58.3622 19.58C58.3488 19.5267 58.3288 19.4733 58.3022 19.42C58.2888 19.3533 58.2755 19.28 58.2622 19.2C58.3022 19.1067 58.3355 19.04 58.3622 19C58.4022 18.9467 58.4555 18.8667 58.5222 18.76C58.5222 18.6933 58.5088 18.6333 58.4822 18.58C58.4688 18.5267 58.4488 18.4733 58.4222 18.42C58.4088 18.3667 58.4022 18.3067 58.4022 18.24C58.4155 18.1733 58.4488 18.0933 58.5022 18C58.4355 17.9733 58.3955 17.9333 58.3822 17.88C58.3822 17.8267 58.3888 17.7667 58.4022 17.7C58.4288 17.6333 58.4488 17.5667 58.4622 17.5C58.4888 17.4333 58.5022 17.38 58.5022 17.34C58.5022 17.2467 58.4755 17.1533 58.4222 17.06C58.3688 16.9667 58.3688 16.78 58.4222 16.5C58.5155 16.4867 58.5355 16.4333 58.4822 16.34C58.4288 16.2467 58.3955 16.0933 58.3822 15.88C58.4488 15.8133 58.4755 15.7533 58.4622 15.7C58.4622 15.6467 58.4888 15.5467 58.5422 15.4C58.4088 15.2133 58.3555 15.0733 58.3822 14.98C58.4222 14.8867 58.4355 14.7867 58.4222 14.68C58.4755 14.5867 58.4822 14.5 58.4422 14.42C58.4022 14.3267 58.4022 14.1533 58.4422 13.9C58.3755 13.8467 58.3622 13.78 58.4022 13.7C58.4555 13.62 58.4555 13.48 58.4022 13.28C58.4022 13.2 58.4022 13.1133 58.4022 13.02C58.4155 12.9267 58.3422 12.82 58.1822 12.7C58.2222 12.62 58.2488 12.56 58.2622 12.52C58.2888 12.48 58.3022 12.44 58.3022 12.4C58.3155 12.36 58.3222 12.3067 58.3222 12.24C58.3222 12.1733 58.3155 12.0667 58.3022 11.92C58.2488 11.8133 58.2488 11.7133 58.3022 11.62C58.3555 11.5267 58.4155 11.3933 58.4822 11.22C58.4022 11.1267 58.3755 11.0467 58.4022 10.98C58.4288 10.9 58.4088 10.8333 58.3422 10.78C58.3422 10.6467 58.3222 10.5267 58.2822 10.42C58.2555 10.3133 58.1888 10.1867 58.0822 10.04L58.2622 9.56C58.1155 9.45334 58.0755 9.38 58.1422 9.34C58.2088 9.28667 58.2955 9.2 58.4022 9.08C58.4688 8.92 58.5755 8.8 58.7222 8.72C58.8688 8.62667 59.0088 8.59334 59.1422 8.62C59.3022 8.72667 59.4355 8.77334 59.5422 8.76C59.6488 8.74667 59.6955 8.79334 59.6822 8.9C59.7355 9.00667 59.7888 9.08667 59.8422 9.14C59.8955 9.19334 59.9422 9.24667 59.9822 9.3C60.0222 9.35334 60.0488 9.41334 60.0622 9.48C60.0755 9.53334 60.0622 9.62 60.0222 9.74C60.0622 9.72667 60.0888 9.75334 60.1022 9.82C60.1288 9.87334 60.2288 10.0133 60.4022 10.24C60.3355 10.2667 60.3022 10.3 60.3022 10.34C60.3022 10.38 60.3022 10.44 60.3022 10.52C60.3022 10.5867 60.2955 10.6667 60.2822 10.76C60.2688 10.84 60.2222 10.9267 60.1422 11.02C60.2222 11.0867 60.2688 11.16 60.2822 11.24C60.2955 11.32 60.2888 11.4 60.2622 11.48C60.2488 11.56 60.2355 11.6333 60.2222 11.7C60.2088 11.7533 60.2155 11.7933 60.2422 11.82C60.2155 11.8467 60.2088 11.8867 60.2222 11.94C60.2488 11.9933 60.2688 12.0467 60.2822 12.1C60.2955 12.1533 60.2955 12.2067 60.2822 12.26C60.2822 12.3 60.2555 12.32 60.2022 12.32C60.3488 12.4667 60.4288 12.6 60.4422 12.72C60.4555 12.84 60.3688 12.96 60.1822 13.08C60.2755 13.1867 60.3222 13.3067 60.3222 13.44C60.3222 13.5733 60.3755 13.6933 60.4822 13.8C60.4155 13.8 60.3622 13.8267 60.3222 13.88C60.2822 13.9333 60.2622 14 60.2622 14.08C60.2622 14.1467 60.2755 14.2133 60.3022 14.28C60.3422 14.3467 60.3955 14.3933 60.4622 14.42C60.4222 14.46 60.3955 14.5133 60.3822 14.58C60.3822 14.6467 60.3755 14.72 60.3622 14.8C60.3622 14.88 60.3555 14.96 60.3422 15.04C60.3288 15.1067 60.2955 15.16 60.2422 15.2C60.3622 15.3467 60.4222 15.4533 60.4222 15.52C60.4222 15.5733 60.4755 15.6333 60.5822 15.7C60.4488 15.7933 60.3822 15.9067 60.3822 16.04C60.3822 16.16 60.3755 16.3333 60.3622 16.56C60.3355 16.6 60.3222 16.6667 60.3222 16.76C60.3355 16.84 60.3755 16.9933 60.4422 17.22C60.4155 17.2867 60.4088 17.3667 60.4222 17.46C60.4355 17.54 60.4755 17.6133 60.5422 17.68C60.4888 17.7067 60.4622 17.7533 60.4622 17.82C60.4622 17.8733 60.4622 17.9333 60.4622 18C60.4755 18.0667 60.4822 18.1333 60.4822 18.2C60.4955 18.2533 60.4822 18.2933 60.4422 18.32C60.4688 18.4267 60.4755 18.5133 60.4622 18.58C60.4622 18.6333 60.4488 18.68 60.4222 18.72C60.4088 18.76 60.3955 18.7933 60.3822 18.82C60.3822 18.8467 60.3955 18.8867 60.4222 18.94C60.3555 19.1 60.3422 19.2133 60.3822 19.28C60.4355 19.3333 60.4488 19.4267 60.4222 19.56C60.3955 19.68 60.3688 19.7667 60.3422 19.82C60.3288 19.8733 60.3155 19.92 60.3022 19.96C60.3022 20 60.3022 20.0467 60.3022 20.1C60.3022 20.14 60.3155 20.2067 60.3422 20.3C60.3155 20.4067 60.3155 20.5267 60.3422 20.66C60.3688 20.7933 60.3688 20.8867 60.3422 20.94C60.3155 20.9667 60.3088 21.04 60.3222 21.16C60.3488 21.2667 60.4022 21.4533 60.4822 21.72C60.4022 21.7733 60.3488 21.8467 60.3222 21.94C60.3088 22.0333 60.2955 22.1333 60.2822 22.24C60.2822 22.3333 60.2755 22.4333 60.2622 22.54C60.2488 22.6467 60.2222 22.74 60.1822 22.82C60.1422 23.1133 60.1488 23.32 60.2022 23.44C60.2688 23.56 60.3155 23.7067 60.3422 23.88C60.2888 23.9733 60.2222 24.0733 60.1422 24.18C60.0622 24.3 59.9688 24.4067 59.8622 24.5C59.7688 24.5933 59.6688 24.66 59.5622 24.7C59.4688 24.7533 59.3755 24.7467 59.2822 24.68C59.1355 24.64 59.0088 24.6333 58.9022 24.66C58.7955 24.6867 58.7222 24.6667 58.6822 24.6C58.6422 24.4 58.5888 24.24 58.5222 24.12C58.4555 24 58.3888 23.9067 58.3222 23.84L58.1622 23.94ZM47.9822 22.7C47.9822 22.5133 48.0155 22.3867 48.0822 22.32C48.1488 22.2533 48.2955 22.1467 48.5222 22C48.5755 21.8267 48.6488 21.7267 48.7422 21.7C48.8355 21.66 48.8755 21.6133 48.8622 21.56C48.9955 21.4267 49.0955 21.3267 49.1622 21.26C49.2422 21.18 49.3022 21.12 49.3422 21.08C49.3955 21.0267 49.4288 20.98 49.4422 20.94C49.4555 20.8867 49.4688 20.8267 49.4822 20.76C49.5888 20.5867 49.6955 20.48 49.8022 20.44C49.9222 20.3867 50.0022 20.2867 50.0422 20.14C50.0955 20.1 50.1888 20.04 50.3222 19.96C50.4555 19.8667 50.4955 19.76 50.4422 19.64C50.6955 19.44 50.8488 19.2867 50.9022 19.18C50.9688 19.06 51.0622 19.0133 51.1822 19.04C51.1822 19.0267 51.1955 19 51.2222 18.96C51.2488 18.9067 51.2755 18.8533 51.3022 18.8C51.3288 18.7333 51.3422 18.6667 51.3422 18.6C51.3422 18.5333 51.3155 18.4667 51.2622 18.4C51.3422 18.3333 51.4222 18.2333 51.5022 18.1C51.5955 17.9667 51.6222 17.8867 51.5822 17.86C51.6355 17.86 51.6688 17.8467 51.6822 17.82C51.7088 17.7933 51.7222 17.76 51.7222 17.72C51.7355 17.68 51.7555 17.64 51.7822 17.6C51.8088 17.5467 51.8555 17.5 51.9222 17.46C51.8822 17.42 51.8622 17.3667 51.8622 17.3C51.8755 17.2333 51.8888 17.1667 51.9022 17.1C51.9288 17.0333 51.9488 16.98 51.9622 16.94C51.9888 16.9 52.0022 16.88 52.0022 16.88C52.0022 16.7467 52.0355 16.5933 52.1022 16.42C52.1688 16.2333 52.2555 16.0733 52.3622 15.94C52.3088 15.94 52.2755 15.92 52.2622 15.88C52.2622 15.84 52.2622 15.7867 52.2622 15.72C52.2622 15.64 52.2688 15.56 52.2822 15.48C52.2955 15.4 52.2955 15.3267 52.2822 15.26C52.3888 15.2067 52.4222 15.1067 52.3822 14.96C52.3555 14.8133 52.3155 14.7133 52.2622 14.66C52.3955 14.5667 52.4755 14.4467 52.5022 14.3C52.5422 14.14 52.4888 13.9933 52.3422 13.86C52.4488 13.7 52.5022 13.58 52.5022 13.5C52.5022 13.42 52.4955 13.3667 52.4822 13.34C52.4955 13.2733 52.5155 13.22 52.5422 13.18C52.5688 13.14 52.5822 13.1 52.5822 13.06C52.5822 13.02 52.5688 12.9733 52.5422 12.92C52.5155 12.8533 52.4555 12.76 52.3622 12.64C52.4688 12.5333 52.5355 12.4333 52.5622 12.34C52.5888 12.2467 52.5822 12.1067 52.5422 11.92C52.3822 11.88 52.2222 11.86 52.0622 11.86C51.9022 11.8467 51.7888 11.8067 51.7222 11.74C51.5488 11.8733 51.4222 11.9333 51.3422 11.92C51.2622 11.9067 51.1555 11.8467 51.0222 11.74C50.8755 11.78 50.7555 11.8 50.6622 11.8C50.5822 11.8 50.5155 11.8 50.4622 11.8C50.4222 11.8 50.3888 11.8067 50.3622 11.82C50.3355 11.82 50.3088 11.8467 50.2822 11.9C50.0688 11.8733 49.9155 11.8667 49.8222 11.88C49.7288 11.88 49.6222 11.9067 49.5022 11.96L48.7422 11.72C48.5155 11.7733 48.3288 11.78 48.1822 11.74C48.0355 11.6867 47.9822 11.58 48.0222 11.42C47.9955 11.3667 47.9622 11.3067 47.9222 11.24C47.8822 11.16 47.8622 11.0133 47.8622 10.8C47.7955 10.7867 47.7555 10.76 47.7422 10.72C47.7422 10.6667 47.7422 10.6067 47.7422 10.54C47.7422 10.46 47.7422 10.38 47.7422 10.3C47.7555 10.22 47.7488 10.14 47.7222 10.06C47.8288 10.0733 47.9022 10.0733 47.9422 10.06C47.9955 10.0333 48.0355 10.0067 48.0622 9.98C48.0888 9.95334 48.1155 9.93334 48.1422 9.92C48.1688 9.90667 48.2222 9.92 48.3022 9.96C48.3155 9.97334 48.3422 9.97334 48.3822 9.96C48.4222 9.93334 48.4688 9.90667 48.5222 9.88C48.5755 9.84 48.6288 9.80667 48.6822 9.78C48.7488 9.75334 48.8088 9.74 48.8622 9.74C48.9688 9.86 49.1088 9.93334 49.2822 9.96C49.4555 9.97334 49.6022 9.94667 49.7222 9.88C49.7888 9.8 49.9688 9.79334 50.2622 9.86C50.3288 9.83334 50.3955 9.82667 50.4622 9.84C50.5288 9.85334 50.5822 9.87334 50.6222 9.9C50.6755 9.91334 50.7222 9.92667 50.7622 9.94C50.8155 9.95334 50.8555 9.94667 50.8822 9.92C51.0155 9.94667 51.1288 9.92667 51.2222 9.86C51.3155 9.79334 51.4022 9.74667 51.4822 9.72C51.5355 9.70667 51.5888 9.70667 51.6422 9.72C51.6955 9.73334 51.7622 9.75334 51.8422 9.78C51.9222 9.79334 52.0155 9.8 52.1222 9.8C52.2288 9.8 52.3555 9.76667 52.5022 9.7C52.4755 9.7 52.4822 9.70667 52.5222 9.72C52.5755 9.72 52.6288 9.73334 52.6822 9.76C52.7488 9.77334 52.8088 9.8 52.8622 9.84C52.9155 9.88 52.9422 9.94 52.9422 10.02C53.2222 9.88667 53.4222 9.86 53.5422 9.94C53.6622 10.0067 53.7155 10.0733 53.7022 10.14C53.7822 10.0867 53.8355 10.0733 53.8622 10.1C53.9022 10.1133 53.9222 10.1467 53.9222 10.2C53.9355 10.2533 53.9355 10.3133 53.9222 10.38C53.9222 10.4333 53.9355 10.4667 53.9622 10.48C54.0822 10.56 54.1688 10.6133 54.2222 10.64C54.2888 10.6667 54.3555 10.7267 54.4222 10.82C54.3955 10.9667 54.3888 11.0733 54.4022 11.14C54.4155 11.1933 54.4622 11.3267 54.5422 11.54C54.6622 11.6467 54.7222 11.74 54.7222 11.82C54.7355 11.8867 54.6688 12.0533 54.5222 12.32C54.5622 12.28 54.5955 12.2667 54.6222 12.28C54.6488 12.28 54.6688 12.2933 54.6822 12.32C54.6955 12.3467 54.7088 12.3733 54.7222 12.4C54.7488 12.4133 54.7822 12.42 54.8222 12.42C54.8222 12.5533 54.8022 12.66 54.7622 12.74C54.7222 12.8067 54.6822 12.86 54.6422 12.9C54.6022 12.94 54.5688 12.98 54.5422 13.02C54.5155 13.06 54.5088 13.12 54.5222 13.2C54.5222 13.2933 54.5088 13.4067 54.4822 13.54C54.4688 13.6733 54.4888 13.7733 54.5422 13.84C54.5022 13.8667 54.4822 13.9067 54.4822 13.96C54.4955 14.0133 54.5155 14.0733 54.5422 14.14C54.5688 14.2067 54.5955 14.2733 54.6222 14.34C54.6488 14.3933 54.6622 14.4333 54.6622 14.46C54.6355 14.6067 54.6088 14.7733 54.5822 14.96C54.5688 15.1467 54.5555 15.32 54.5422 15.48C54.4888 15.4667 54.4555 15.4867 54.4422 15.54C54.4288 15.58 54.4222 15.6467 54.4222 15.74C54.4222 15.82 54.4222 15.9067 54.4222 16C54.4355 16.0933 54.4422 16.18 54.4422 16.26C54.4555 16.34 54.4288 16.4 54.3622 16.44C54.3088 16.48 54.2155 16.6133 54.0822 16.84C54.2022 16.9067 54.2688 17 54.2822 17.12C54.3088 17.24 54.2822 17.3133 54.2022 17.34C54.0955 17.46 54.0288 17.56 54.0022 17.64C53.9888 17.7067 54.0222 17.8533 54.1022 18.08C53.9955 18.1067 53.9155 18.1467 53.8622 18.2C53.8088 18.24 53.7422 18.28 53.6622 18.32C53.7288 18.4 53.7288 18.5133 53.6622 18.66C53.5955 18.7933 53.5288 18.9133 53.4622 19.02C53.5022 19.0333 53.5088 19.0667 53.4822 19.12C53.4555 19.16 53.4155 19.2133 53.3622 19.28C53.3222 19.3333 53.2688 19.4 53.2022 19.48C53.1488 19.5467 53.1155 19.62 53.1022 19.7C53.1288 19.6733 53.1355 19.7067 53.1222 19.8C53.1088 19.88 53.0555 19.9733 52.9622 20.08C52.9355 20.1733 52.8955 20.24 52.8422 20.28C52.8022 20.3067 52.7555 20.3333 52.7022 20.36C52.6622 20.3733 52.6288 20.3933 52.6022 20.42C52.5755 20.4333 52.5755 20.46 52.6022 20.5C52.4822 20.6067 52.3622 20.7333 52.2422 20.88C52.1355 21.0133 52.0888 21.1533 52.1022 21.3C52.0755 21.2867 52.0422 21.3 52.0022 21.34C51.9622 21.3667 51.9222 21.4067 51.8822 21.46C51.8422 21.5133 51.7955 21.56 51.7422 21.6C51.7022 21.6267 51.6622 21.6267 51.6222 21.6C51.5022 21.7067 51.4088 21.7933 51.3422 21.86C51.2755 21.9133 51.2155 21.9733 51.1622 22.04C51.1222 22.0933 51.0888 22.16 51.0622 22.24C51.0488 22.3067 51.0355 22.4067 51.0222 22.54C50.8888 22.5 50.7688 22.54 50.6622 22.66C50.5688 22.7667 50.4888 22.8533 50.4222 22.92C50.4222 22.9867 50.4155 23.0267 50.4022 23.04C50.4022 23.0533 50.3888 23.06 50.3622 23.06C50.3488 23.0733 50.3288 23.0867 50.3022 23.1C50.2888 23.1133 50.2688 23.1467 50.2422 23.2C50.1088 23.1733 50.0288 23.18 50.0022 23.22C49.9888 23.26 49.9622 23.2733 49.9222 23.26C49.8155 23.3933 49.7155 23.48 49.6222 23.52C49.5288 23.5733 49.3422 23.6133 49.0622 23.64C48.9555 23.6267 48.8688 23.5733 48.8022 23.48C48.7488 23.3867 48.6288 23.3067 48.4422 23.24C48.3622 23.28 48.2755 23.24 48.1822 23.12C48.0888 23.0133 48.0422 22.8667 48.0422 22.68L47.9822 22.7Z" fill="white"/>
<path d="M33.5753 10.94C33.5087 10.9533 33.442 10.9467 33.3753 10.92C33.322 10.88 33.262 10.84 33.1953 10.8C33.142 10.7467 33.0887 10.7 33.0353 10.66C32.982 10.6067 32.922 10.5667 32.8553 10.54C32.8953 10.5267 32.902 10.4867 32.8753 10.42C32.862 10.3533 32.842 10.28 32.8153 10.2C32.802 10.12 32.7953 10.04 32.7953 9.95999C32.7953 9.87999 32.8287 9.81999 32.8953 9.77999C32.8287 9.68666 32.802 9.59333 32.8153 9.49999C32.842 9.39333 32.8753 9.29999 32.9153 9.21999C32.9687 9.13999 33.0287 9.07332 33.0953 9.01999C33.1753 8.96666 33.2487 8.93999 33.3153 8.93999C33.4353 8.96666 33.522 8.98666 33.5753 8.99999C33.642 9.01332 33.6887 9.02666 33.7153 9.03999C33.7553 9.03999 33.7887 9.03999 33.8153 9.03999C33.842 9.03999 33.882 9.03999 33.9353 9.03999C34.0553 8.90666 34.202 8.85333 34.3753 8.87999C34.562 8.90666 34.7287 8.88666 34.8753 8.81999C34.902 8.80666 34.9553 8.80666 35.0353 8.81999C35.1287 8.83333 35.3087 8.82666 35.5753 8.79999C35.642 8.79999 35.7087 8.81333 35.7753 8.83999C35.8553 8.85333 35.9887 8.79999 36.1753 8.67999C36.162 8.70666 36.1753 8.73333 36.2153 8.75999C36.2687 8.77333 36.322 8.79332 36.3753 8.81999C36.442 8.83333 36.502 8.85333 36.5553 8.87999C36.6087 8.89332 36.6353 8.90666 36.6353 8.91999C36.7287 8.85332 36.8487 8.80666 36.9953 8.77999C37.1553 8.73999 37.3487 8.81332 37.5753 8.99999C37.602 8.97333 37.6487 8.95999 37.7153 8.95999C37.7953 8.94666 37.8687 8.95999 37.9353 8.99999C38.0687 9.02666 38.2287 9.04666 38.4153 9.05999C38.6153 9.05999 38.7887 9.04666 38.9353 9.01999C39.0687 8.96666 39.142 8.97999 39.1553 9.05999C39.182 9.12666 39.2553 9.24666 39.3753 9.41999C39.4153 9.57999 39.442 9.71999 39.4553 9.83999C39.482 9.94666 39.5153 10.0133 39.5553 10.04C39.5153 10.0933 39.4753 10.2 39.4353 10.36C39.3953 10.5067 39.342 10.6 39.2753 10.64C39.2487 10.68 39.2153 10.7067 39.1753 10.72C39.1487 10.72 39.102 10.72 39.0353 10.72C38.982 10.7067 38.9087 10.7 38.8153 10.7C38.7353 10.6867 38.6287 10.6867 38.4953 10.7L38.4553 10.82C38.282 10.7267 38.142 10.68 38.0353 10.68C37.9287 10.6667 37.762 10.7467 37.5353 10.92C37.5353 10.9067 37.5153 10.8867 37.4753 10.86C37.4353 10.82 37.382 10.78 37.3153 10.74C37.2487 10.7 37.1753 10.6733 37.0953 10.66C37.0153 10.6333 36.9353 10.6267 36.8553 10.64C36.6287 10.5867 36.482 10.5667 36.4153 10.58C36.362 10.58 36.282 10.6267 36.1753 10.72C36.0553 10.68 35.922 10.6533 35.7753 10.64C35.642 10.6133 35.5087 10.6333 35.3753 10.7C35.2287 10.7267 35.102 10.72 34.9953 10.68C34.902 10.6267 34.8287 10.58 34.7753 10.54C34.5353 10.5533 34.3687 10.5667 34.2753 10.58C34.182 10.58 34.042 10.5867 33.8553 10.6L33.6953 10.78L33.5753 10.94ZM32.2153 13.48L32.2753 13.52L32.3353 13.46L32.3153 13.34L32.2153 13.22C32.2153 13.0867 32.242 12.9733 32.2953 12.88C32.3487 12.7733 32.4087 12.68 32.4753 12.6C32.5553 12.5067 32.622 12.4267 32.6753 12.36C32.742 12.28 32.782 12.2067 32.7953 12.14C32.9953 12.1267 33.1487 12.1333 33.2553 12.16C33.3753 12.1733 33.522 12.14 33.6953 12.06C33.7353 12.1933 33.7887 12.2667 33.8553 12.28C33.9353 12.28 34.0087 12.2533 34.0753 12.2C34.2087 12.16 34.3087 12.1333 34.3753 12.12C34.442 12.0933 34.4953 12.0733 34.5353 12.06C34.5887 12.0467 34.642 12.04 34.6953 12.04C34.7487 12.0267 34.8353 12.0133 34.9553 12C35.1287 12.0267 35.262 12.0667 35.3553 12.12C35.4487 12.1733 35.5753 12.1667 35.7353 12.1C35.7487 12.1133 35.762 12.1133 35.7753 12.1C35.802 12.0867 35.8287 12.08 35.8553 12.08C35.882 12.0667 35.9153 12.0733 35.9553 12.1C36.0087 12.1133 36.0753 12.16 36.1553 12.24C36.302 12.0933 36.422 12.02 36.5153 12.02C36.6087 12.02 36.702 12.0067 36.7953 11.98C37.062 12.0467 37.2553 12.08 37.3753 12.08C37.5087 12.08 37.6553 12.0467 37.8153 11.98C37.8553 12.0467 37.9087 12.0933 37.9753 12.12C38.042 12.1467 38.1153 12.1667 38.1953 12.18C38.2753 12.18 38.3553 12.1867 38.4353 12.2C38.5153 12.2133 38.582 12.2333 38.6353 12.26C38.702 12.1667 38.8287 12.14 39.0153 12.18C39.202 12.2067 39.3753 12.2133 39.5353 12.2C39.562 12.2667 39.6153 12.36 39.6953 12.48C39.7887 12.5867 39.8153 12.6467 39.7753 12.66C39.9087 12.78 39.9687 12.8667 39.9553 12.92C39.9553 12.9733 39.9687 13.0133 39.9953 13.04C40.0753 13.1467 40.1087 13.24 40.0953 13.32C40.0953 13.3867 40.0687 13.4467 40.0153 13.5C39.9753 13.5533 39.922 13.6 39.8553 13.64C39.802 13.68 39.7553 13.72 39.7153 13.76C39.7687 13.8133 39.782 13.88 39.7553 13.96C39.7287 14.0267 39.6887 14.0867 39.6353 14.14C39.582 14.1933 39.522 14.2333 39.4553 14.26C39.402 14.2867 39.3553 14.28 39.3153 14.24L39.0553 14.18C38.922 14.1133 38.802 14.08 38.6953 14.08C38.602 14.08 38.4953 14.1533 38.3753 14.3C38.1887 14.1533 38.0687 14.0667 38.0153 14.04C37.962 14 37.8353 14.02 37.6353 14.1C37.5153 14.1267 37.402 14.1267 37.2953 14.1C37.202 14.06 37.0687 14.0733 36.8953 14.14C36.8153 14.18 36.7153 14.2 36.5953 14.2C36.4887 14.1867 36.4287 14.1333 36.4153 14.04C36.2687 14.0933 36.142 14.1067 36.0353 14.08C35.942 14.04 35.822 14.0333 35.6753 14.06C35.5687 14.06 35.462 14.08 35.3553 14.12C35.262 14.16 35.1087 14.1533 34.8953 14.1C34.8287 14.14 34.7753 14.16 34.7353 14.16C34.6953 14.1467 34.6553 14.1333 34.6153 14.12C34.5753 14.0933 34.5353 14.0733 34.4953 14.06C34.4553 14.0467 34.402 14.06 34.3353 14.1C33.9487 14.2067 33.6487 14.1933 33.4353 14.06L33.2953 14C33.1487 14.1467 32.982 14.1867 32.7953 14.12C32.6087 14.0533 32.4687 13.9 32.3753 13.66L32.2153 13.48ZM34.8153 20.9C34.922 21.0067 35.0153 21.1267 35.0953 21.26C35.1887 21.3933 35.2287 21.4333 35.2153 21.38C35.3353 21.4867 35.4287 21.56 35.4953 21.6C35.5753 21.6267 35.642 21.6467 35.6953 21.66C35.7487 21.66 35.7953 21.6667 35.8353 21.68C35.8887 21.68 35.9553 21.7067 36.0353 21.76C36.462 21.6533 36.722 21.5533 36.8153 21.46C36.922 21.42 37.0153 21.4 37.0953 21.4C37.1887 21.4 37.2687 21.3933 37.3353 21.38C37.402 21.3533 37.4553 21.32 37.4953 21.28C37.5487 21.24 37.582 21.16 37.5953 21.04C37.582 21.0667 37.5887 21.02 37.6153 20.9C37.642 20.78 37.6487 20.7133 37.6353 20.7C37.742 20.5133 37.762 20.3733 37.6953 20.28C37.6287 20.1733 37.5753 20.0533 37.5353 19.92C37.6287 19.8667 37.682 19.8067 37.6953 19.74C37.7087 19.66 37.7153 19.58 37.7153 19.5C37.7153 19.42 37.722 19.3333 37.7353 19.24C37.7487 19.1467 37.7953 19.0533 37.8753 18.96C37.8087 18.9867 37.7687 18.98 37.7553 18.94C37.7553 18.8867 37.7553 18.8333 37.7553 18.78C37.7553 18.7267 37.7553 18.68 37.7553 18.64C37.7553 18.6 37.742 18.5933 37.7153 18.62C37.6753 18.4733 37.642 18.34 37.6153 18.22C37.602 18.0867 37.5753 17.9067 37.5353 17.68C37.5353 17.5733 37.522 17.4467 37.4953 17.3C37.482 17.14 37.4353 17.0333 37.3553 16.98C37.3153 17.0067 37.2887 17.0133 37.2753 17C37.262 16.9867 37.242 16.9667 37.2153 16.94C37.202 16.9 37.1753 16.8733 37.1353 16.86C37.1087 16.8333 37.062 16.82 36.9953 16.82C36.942 16.66 36.8353 16.5667 36.6753 16.54C36.5153 16.5 36.322 16.5 36.0953 16.54C35.9087 16.5133 35.762 16.54 35.6553 16.62C35.5487 16.7 35.5087 16.72 35.5353 16.68C35.3887 16.76 35.2687 16.88 35.1753 17.04C35.0953 17.2 35.0887 17.3667 35.1553 17.54C35.022 17.5667 34.9287 17.6733 34.8753 17.86C34.8353 18.0467 34.8687 18.2133 34.9753 18.36C34.9753 18.4 34.962 18.46 34.9353 18.54C34.922 18.6067 34.9087 18.68 34.8953 18.76C34.882 18.8267 34.882 18.8867 34.8953 18.94C34.9087 18.9933 34.942 19.0267 34.9953 19.04C34.9687 19.32 34.9287 19.5333 34.8753 19.68C34.8353 19.8267 34.8087 19.9733 34.7953 20.12C34.822 20.2667 34.8487 20.4067 34.8753 20.54C34.902 20.6733 34.9287 20.8 34.9553 20.92L34.8153 20.9ZM32.9753 19.3C32.8553 19.1933 32.782 19.0733 32.7553 18.94C32.7287 18.8067 32.6953 18.6933 32.6553 18.6C32.7353 18.5467 32.7887 18.48 32.8153 18.4C32.842 18.32 32.862 18.2467 32.8753 18.18C32.8887 18.1 32.902 18.04 32.9153 18C32.942 17.96 32.9953 17.9467 33.0753 17.96C33.0487 17.7067 33.022 17.5533 32.9953 17.5C32.982 17.4333 33.022 17.3867 33.1153 17.36C33.102 17.1467 33.0753 16.98 33.0353 16.86C32.9953 16.74 33.002 16.68 33.0553 16.68C33.1887 16.5733 33.2487 16.5 33.2353 16.46C33.222 16.42 33.242 16.3667 33.2953 16.3C33.3753 16.1667 33.462 16.0267 33.5553 15.88C33.662 15.7333 33.782 15.6933 33.9153 15.76C33.9687 15.7067 33.9953 15.6333 33.9953 15.54C34.0087 15.4467 34.0553 15.3867 34.1353 15.36C34.242 15.1733 34.3553 15.0667 34.4753 15.04C34.6087 15.0133 34.6953 15.0533 34.7353 15.16C34.8553 14.96 34.9687 14.86 35.0753 14.86C35.182 14.86 35.2687 14.86 35.3353 14.86C35.4553 14.8867 35.5753 14.86 35.6953 14.78C35.8287 14.6867 36.0487 14.6267 36.3553 14.6C36.422 14.7067 36.5287 14.7867 36.6753 14.84C36.822 14.8933 36.902 14.8933 36.9153 14.84C37.2087 14.8667 37.4153 14.88 37.5353 14.88C37.6553 14.8667 37.682 14.8933 37.6153 14.96C37.6687 14.9333 37.7287 14.9333 37.7953 14.96C37.8753 14.9867 37.9487 15.0267 38.0153 15.08C38.0953 15.12 38.162 15.1667 38.2153 15.22C38.2687 15.2733 38.302 15.32 38.3153 15.36C38.4887 15.3333 38.6087 15.34 38.6753 15.38C38.742 15.42 38.8353 15.4733 38.9553 15.54C38.9687 15.6333 38.9753 15.7 38.9753 15.74C38.9887 15.7667 38.9953 15.8 38.9953 15.84C38.9953 15.8667 38.9953 15.9067 38.9953 15.96C39.0087 16 39.0287 16.08 39.0553 16.2C39.242 16.2133 39.3487 16.28 39.3753 16.4C39.402 16.52 39.402 16.5867 39.3753 16.6C39.4287 16.6133 39.462 16.6467 39.4753 16.7C39.502 16.7533 39.5153 16.8133 39.5153 16.88C39.5287 16.9467 39.5487 17.0133 39.5753 17.08C39.602 17.1467 39.6553 17.2067 39.7353 17.26C39.7487 17.3133 39.7553 17.38 39.7553 17.46C39.7687 17.5267 39.702 17.6133 39.5553 17.72C39.5553 17.8 39.5753 17.8667 39.6153 17.92C39.6553 17.96 39.6953 18.0133 39.7353 18.08C39.7887 18.1333 39.8353 18.2067 39.8753 18.3C39.9153 18.38 39.9287 18.4867 39.9153 18.62C39.862 18.6467 39.8287 18.6867 39.8153 18.74C39.8153 18.78 39.8153 18.8267 39.8153 18.88C39.8153 18.92 39.8153 18.96 39.8153 19C39.8153 19.0267 39.7887 19.0467 39.7353 19.06C39.7887 19.1667 39.8087 19.3 39.7953 19.46C39.7953 19.6067 39.7487 19.7333 39.6553 19.84C39.7087 19.9067 39.7353 20.0067 39.7353 20.14C39.7353 20.26 39.7753 20.4133 39.8553 20.6C39.7753 20.6267 39.722 20.66 39.6953 20.7C39.6687 20.7267 39.6487 20.7667 39.6353 20.82C39.622 20.86 39.6087 20.9067 39.5953 20.96C39.582 21.0133 39.5353 21.06 39.4553 21.1C39.4553 21.1267 39.4553 21.1733 39.4553 21.24C39.4553 21.3067 39.4487 21.3733 39.4353 21.44C39.4353 21.5067 39.4287 21.5667 39.4153 21.62C39.402 21.6733 39.382 21.7067 39.3553 21.72C39.2753 21.92 39.1953 22.0933 39.1153 22.24C39.0487 22.3733 38.9953 22.4867 38.9553 22.58C38.8487 22.5533 38.7687 22.6 38.7153 22.72C38.6753 22.8267 38.602 22.9467 38.4953 23.08C38.442 23.08 38.402 23.0867 38.3753 23.1C38.3487 23.1267 38.322 23.1467 38.2953 23.16C38.282 23.1867 38.262 23.2 38.2353 23.2C38.222 23.2133 38.1887 23.1933 38.1353 23.14C37.9487 23.1667 37.7953 23.2067 37.6753 23.26C37.5553 23.3133 37.442 23.3533 37.3353 23.38C37.322 23.4467 37.262 23.4733 37.1553 23.46C37.0487 23.4467 36.902 23.44 36.7153 23.44C36.6087 23.44 36.5287 23.4533 36.4753 23.48C36.4353 23.52 36.3487 23.52 36.2153 23.48C36.1353 23.5467 36.022 23.5933 35.8753 23.62C35.7287 23.6467 35.542 23.6733 35.3153 23.7C35.2887 23.6467 35.2287 23.58 35.1353 23.5C35.042 23.42 34.9553 23.4133 34.8753 23.48C34.6753 23.4533 34.5153 23.4133 34.3953 23.36C34.2753 23.32 34.2353 23.2467 34.2753 23.14C34.2087 22.9933 34.1153 22.8867 33.9953 22.82C33.8753 22.7533 33.742 22.68 33.5953 22.6C33.5153 22.5333 33.4553 22.46 33.4153 22.38C33.3887 22.3 33.3353 22.2533 33.2553 22.24C33.2953 22.0933 33.322 21.9733 33.3353 21.88C33.362 21.7733 33.342 21.7267 33.2753 21.74C33.182 21.66 33.102 21.6 33.0353 21.56C32.982 21.5067 32.9353 21.46 32.8953 21.42C32.8687 21.3667 32.8553 21.3133 32.8553 21.26C32.8553 21.1933 32.862 21.1067 32.8753 21C32.8353 20.8667 32.822 20.7667 32.8353 20.7C32.862 20.6333 32.8487 20.5067 32.7953 20.32C32.7687 20.2933 32.762 20.2467 32.7753 20.18C32.802 20.1 32.8287 20.0133 32.8553 19.92C32.7887 19.7733 32.7553 19.6267 32.7553 19.48C32.7553 19.32 32.7753 19.2067 32.8153 19.14L32.9753 19.3ZM41.8553 23.9L41.9753 23.82C41.9087 23.7133 41.9153 23.5667 41.9953 23.38C42.0753 23.1933 42.1153 23.0067 42.1153 22.82C41.982 22.62 41.9553 22.38 42.0353 22.1C42.0087 22.1 42.002 22.04 42.0153 21.92C42.042 21.7867 42.0087 21.66 41.9153 21.54C41.982 21.4067 42.0553 21.2867 42.1353 21.18C42.2153 21.06 42.2487 20.8733 42.2353 20.62C42.1553 20.54 42.1087 20.48 42.0953 20.44C42.0953 20.3867 42.102 20.34 42.1153 20.3C42.142 20.26 42.162 20.22 42.1753 20.18C42.1887 20.1267 42.1753 20.06 42.1353 19.98C42.0953 19.94 42.0753 19.8933 42.0753 19.84C42.0887 19.7733 42.102 19.7067 42.1153 19.64C42.1287 19.5733 42.1353 19.5133 42.1353 19.46C42.1487 19.3933 42.142 19.3467 42.1153 19.32C42.0487 19.16 42.0487 19.0133 42.1153 18.88C42.182 18.7467 42.2287 18.5933 42.2553 18.42C42.1487 18.3667 42.0953 18.2867 42.0953 18.18C42.0953 18.0733 42.1487 17.9533 42.2553 17.82C42.282 17.66 42.2887 17.5333 42.2753 17.44C42.2753 17.3467 42.2887 17.24 42.3153 17.12C42.2753 17.0933 42.2553 17.02 42.2553 16.9C42.2553 16.7667 42.202 16.64 42.0953 16.52C42.042 16.3733 42.042 16.26 42.0953 16.18C42.162 16.1 42.1753 16.06 42.1353 16.06C42.1087 15.98 42.0953 15.9067 42.0953 15.84C42.1087 15.76 42.122 15.6867 42.1353 15.62C42.162 15.54 42.182 15.46 42.1953 15.38C42.2087 15.2867 42.2087 15.1867 42.1953 15.08C42.1153 15.0533 42.062 14.9933 42.0353 14.9C42.022 14.8067 41.9953 14.7733 41.9553 14.8C42.022 14.68 42.0687 14.5867 42.0953 14.52C42.1353 14.4533 42.162 14.3933 42.1753 14.34C42.202 14.2867 42.222 14.2333 42.2353 14.18C42.2487 14.1133 42.2687 14.0267 42.2953 13.92C42.2687 13.92 42.2153 13.8667 42.1353 13.76C42.0553 13.64 42.002 13.46 41.9753 13.22C41.962 13.1667 41.9753 13.1133 42.0153 13.06C42.0687 13.0067 42.1087 12.8933 42.1353 12.72C42.1753 12.6267 42.1753 12.5267 42.1353 12.42C42.0953 12.3133 42.042 12.1933 41.9753 12.06C41.922 11.9533 41.922 11.8667 41.9753 11.8C42.0287 11.7333 42.0953 11.58 42.1753 11.34C42.1487 11.34 42.1153 11.32 42.0753 11.28C42.0487 11.24 42.0153 11.2 41.9753 11.16C41.9487 11.1067 41.922 11.0667 41.8953 11.04C41.882 11.0133 41.8753 11.0067 41.8753 11.02L42.0753 10.42C42.0753 10.38 42.062 10.3467 42.0353 10.32C42.0087 10.28 41.982 10.24 41.9553 10.2C41.942 10.16 41.9287 10.1133 41.9153 10.06C41.9153 10.0067 41.9287 9.93999 41.9553 9.85999L41.7553 9.83999L41.9553 9.71999C41.9687 9.62666 41.982 9.55333 41.9953 9.49999C42.0087 9.43333 42.022 9.37999 42.0353 9.33999C42.0487 9.29999 42.062 9.25999 42.0753 9.21999C42.0887 9.16666 42.0953 9.10666 42.0953 9.03999C42.2953 8.98666 42.442 8.89333 42.5353 8.75999C42.642 8.62666 42.7087 8.52666 42.7353 8.45999C42.8287 8.48666 42.9687 8.52666 43.1553 8.57999C43.3553 8.63333 43.5087 8.75999 43.6153 8.95999C43.562 8.94666 43.562 8.95999 43.6153 8.99999C43.682 9.03999 43.8153 9.17333 44.0153 9.39999L43.9353 9.31999L43.7953 9.59999C43.8887 9.78666 43.9087 9.91333 43.8553 9.97999C43.8153 10.0333 43.8087 10.0467 43.8353 10.02C43.982 10.26 44.0487 10.4467 44.0353 10.58C44.022 10.7133 43.9753 10.8333 43.8953 10.94C43.8953 11.0067 43.9153 11.0867 43.9553 11.18C44.0087 11.2733 44.062 11.3933 44.1153 11.54C44.102 11.6067 44.0687 11.7 44.0153 11.82C43.9753 11.9267 43.9953 12.0533 44.0753 12.2C44.1153 12.36 44.1353 12.5267 44.1353 12.7C44.1353 12.86 44.1487 13.0133 44.1753 13.16C44.1487 13.2 44.122 13.2533 44.0953 13.32C44.0687 13.3867 44.1287 13.4867 44.2753 13.62C44.182 13.78 44.122 13.9067 44.0953 14C44.0687 14.0933 44.022 14.1733 43.9553 14.24C44.0087 14.4267 44.042 14.5933 44.0553 14.74C44.0687 14.8733 44.1353 15.0067 44.2553 15.14L44.6953 15.2L45.7553 15.1C45.902 15.1667 46.0153 15.24 46.0953 15.32C46.1887 15.3867 46.3087 15.4867 46.4553 15.62C46.4953 15.62 46.5153 15.6467 46.5153 15.7C46.5287 15.7533 46.5353 15.8133 46.5353 15.88C46.5353 15.9467 46.542 16.02 46.5553 16.1C46.582 16.18 46.6287 16.26 46.6953 16.34C46.7487 16.4067 46.742 16.5 46.6753 16.62C46.6087 16.7267 46.4487 16.8067 46.1953 16.86C46.102 16.8467 45.9953 16.8667 45.8753 16.92C45.7687 16.9733 45.6553 16.98 45.5353 16.94L44.7953 17.06L44.1753 16.96C44.122 17.0667 44.0953 17.1533 44.0953 17.22C44.0953 17.2867 44.0953 17.3467 44.0953 17.4C44.1087 17.4533 44.1153 17.5067 44.1153 17.56C44.1287 17.6 44.1153 17.6533 44.0753 17.72C44.102 17.96 44.1153 18.16 44.1153 18.32C44.1153 18.48 44.0487 18.5867 43.9153 18.64C44.062 18.8 44.1353 18.9267 44.1353 19.02C44.1353 19.1133 44.142 19.2133 44.1553 19.32C44.0353 19.3867 43.982 19.4933 43.9953 19.64C44.0087 19.7867 44.0753 19.9133 44.1953 20.02C44.1687 20.18 44.162 20.3267 44.1753 20.46C44.1887 20.5933 44.1753 20.6867 44.1353 20.74L43.9153 21.64L43.9353 22.4L43.8553 22.92L43.8353 23.32C43.9687 23.4667 44.0153 23.6333 43.9753 23.82C43.9353 24.0067 43.9153 24.12 43.9153 24.16C43.9687 24.2667 43.9353 24.3467 43.8153 24.4C43.6953 24.4667 43.5887 24.5067 43.4953 24.52C43.4153 24.6 43.362 24.6467 43.3353 24.66C43.322 24.6867 43.2287 24.76 43.0553 24.88C42.8287 24.76 42.6953 24.6867 42.6553 24.66C42.6153 24.6333 42.542 24.62 42.4353 24.62C42.2887 24.42 42.1887 24.26 42.1353 24.14C42.082 24.0333 42.0287 23.9467 41.9753 23.88L41.8553 23.9Z" fill="white"/>
<path d="M18.2484 22.94L18.2284 22.24L18.3484 21.66V20.78L18.1084 20.02C18.2017 19.9 18.2617 19.8 18.2884 19.72C18.3151 19.64 18.3351 19.58 18.3484 19.54C18.3617 19.4867 18.3817 19.4533 18.4084 19.44C18.4351 19.4267 18.4884 19.42 18.5684 19.42C18.6484 19.4067 18.7217 19.3867 18.7884 19.36C18.8684 19.3333 18.9417 19.3067 19.0084 19.28C19.0751 19.24 19.1284 19.22 19.1684 19.22C19.2217 19.2067 19.2551 19.2133 19.2684 19.24C19.4017 19.2667 19.5284 19.2867 19.6484 19.3C19.7817 19.3 19.8484 19.3467 19.8484 19.44C19.9417 19.5867 20.0284 19.6933 20.1084 19.76C20.2017 19.8133 20.2217 19.8867 20.1684 19.98L20.2084 20.72L20.4284 21.5V22.2C20.3217 22.4267 20.3017 22.62 20.3684 22.78C20.4351 22.9267 20.6217 22.98 20.9284 22.94L21.8284 22.78H22.2684L23.2884 22.96L23.9484 22.8L24.7084 22.94L25.1084 22.84L26.0684 22.88L26.7284 22.9L27.4684 22.8L27.9284 22.7C28.2084 22.6867 28.4017 22.7 28.5084 22.74C28.6284 22.78 28.7551 22.8933 28.8884 23.08C29.0617 23.1467 29.1817 23.2133 29.2484 23.28C29.3151 23.36 29.2484 23.4533 29.0484 23.56C29.1551 23.76 29.1884 23.9133 29.1484 24.02C29.1217 24.14 29.0751 24.2333 29.0084 24.3C28.8617 24.4333 28.7217 24.4933 28.5884 24.48C28.4551 24.4667 28.3551 24.46 28.2884 24.46L27.6484 24.58L27.0884 24.84L26.2684 24.7L25.6484 24.68L24.8284 24.5L24.0684 24.86L23.6484 24.7L22.7084 24.54L22.0284 24.78L21.4484 24.88L20.8484 24.82L20.2884 24.9C20.1284 24.82 19.9551 24.76 19.7684 24.72C19.5817 24.68 19.4484 24.6933 19.3684 24.76C19.2617 24.6933 19.1417 24.6333 19.0084 24.58C18.8884 24.5267 18.7751 24.4667 18.6684 24.4C18.6417 24.28 18.6217 24.1867 18.6084 24.12C18.5951 24.0667 18.5751 24.02 18.5484 23.98C18.5351 23.94 18.5084 23.8933 18.4684 23.84C18.4417 23.8 18.3951 23.7333 18.3284 23.64C18.2617 23.52 18.2484 23.3933 18.2884 23.26C18.3284 23.1267 18.3217 23.0267 18.2684 22.96L18.2484 22.94ZM26.6684 18.6C26.5884 18.4667 26.5351 18.36 26.5084 18.28C26.4817 18.1867 26.4751 18.0667 26.4884 17.92C26.4751 17.8 26.4884 17.7067 26.5284 17.64C26.5817 17.56 26.6417 17.4733 26.7084 17.38C26.6817 17.3533 26.6684 17.32 26.6684 17.28C26.6684 17.24 26.6684 17.1867 26.6684 17.12C26.6684 17.0533 26.6617 16.98 26.6484 16.9C26.6484 16.8067 26.6217 16.6933 26.5684 16.56C26.5017 16.4933 26.4884 16.4133 26.5284 16.32C26.5817 16.2267 26.6217 16.1267 26.6484 16.02C26.7151 15.8467 26.7484 15.74 26.7484 15.7C26.7617 15.6467 26.7351 15.5667 26.6684 15.46C26.6017 15.3933 26.5684 15.3 26.5684 15.18C26.5817 15.06 26.5551 14.98 26.4884 14.94C26.4484 14.82 26.4617 14.6933 26.5284 14.56C26.6084 14.4133 26.6817 14.2533 26.7484 14.08C26.7484 13.9467 26.7017 13.8267 26.6084 13.72C26.5284 13.6133 26.4951 13.5067 26.5084 13.4C26.5351 13.2933 26.5551 13.2 26.5684 13.12C26.5817 13.04 26.5617 12.9867 26.5084 12.96C26.5217 12.6667 26.5417 12.4533 26.5684 12.32C26.6084 12.1867 26.5751 12.08 26.4684 12C26.4951 11.92 26.5284 11.8533 26.5684 11.8C26.6084 11.7333 26.6351 11.58 26.6484 11.34C26.5417 11.34 26.4884 11.28 26.4884 11.16C26.5017 11.0267 26.5551 10.9467 26.6484 10.92C26.4884 10.7333 26.4284 10.6 26.4684 10.52C26.5217 10.44 26.5951 10.3267 26.6884 10.18C26.5551 10.0867 26.4817 9.95332 26.4684 9.77999C26.4551 9.59332 26.5217 9.47999 26.6684 9.43999C26.6417 9.30666 26.6284 9.19999 26.6284 9.11999C26.6417 9.02666 26.6617 8.94666 26.6884 8.87999C26.6884 8.75999 26.6884 8.67332 26.6884 8.61999C26.6884 8.56666 26.6951 8.52666 26.7084 8.49999C26.7351 8.47332 26.7617 8.45332 26.7884 8.43999C26.8151 8.41332 26.8617 8.37999 26.9284 8.33999C26.9551 8.19332 27.0351 8.05999 27.1684 7.93999C27.3017 7.80666 27.4417 7.73999 27.5884 7.73999C27.7084 7.77999 27.8417 7.83999 27.9884 7.91999C28.1351 7.99999 28.2551 8.09332 28.3484 8.19999C28.2951 8.34666 28.2751 8.43999 28.2884 8.47999C28.3017 8.51999 28.3084 8.60666 28.3084 8.73999C28.4417 8.92666 28.4951 9.08666 28.4684 9.21999C28.4551 9.35332 28.4684 9.49332 28.5084 9.63999C28.4417 9.62666 28.4217 9.67999 28.4484 9.79999C28.4751 9.91999 28.5417 9.97999 28.6484 9.97999C28.5817 10.18 28.5617 10.36 28.5884 10.52C28.6284 10.6667 28.6351 10.8 28.6084 10.92C28.5684 10.92 28.5417 10.9467 28.5284 11C28.5151 11.04 28.5084 11.0867 28.5084 11.14C28.5084 11.1933 28.5084 11.2467 28.5084 11.3C28.5084 11.34 28.5017 11.3533 28.4884 11.34C28.4884 11.42 28.4884 11.5133 28.4884 11.62C28.4884 11.7267 28.5617 11.8333 28.7084 11.94C28.6417 12.0867 28.6284 12.22 28.6684 12.34C28.7084 12.4467 28.7284 12.6467 28.7284 12.94C28.9284 12.7933 29.1151 12.7133 29.2884 12.7C29.4751 12.6733 29.5817 12.7 29.6084 12.78C29.8084 12.7667 29.9484 12.7733 30.0284 12.8C30.1084 12.8133 30.1951 12.8333 30.2884 12.86C30.4084 12.94 30.4951 13 30.5484 13.04C30.6151 13.08 30.6551 13.12 30.6684 13.16C30.6817 13.2 30.6817 13.2467 30.6684 13.3C30.6551 13.3533 30.6417 13.4267 30.6284 13.52L30.9284 13.7C30.8217 13.7533 30.7684 13.8133 30.7684 13.88C30.7817 13.9467 30.7551 14.02 30.6884 14.1C30.5817 14.2067 30.4817 14.32 30.3884 14.44C30.3084 14.5467 30.1417 14.66 29.8884 14.78L29.7684 14.5L28.6284 14.74L28.4284 15.5L28.6684 16.16L28.3884 16.7L28.5884 17.42L28.4284 18.14L28.5884 18.8C28.5617 18.8667 28.5417 18.9267 28.5284 18.98C28.5151 19.02 28.5017 19.06 28.4884 19.1C28.4884 19.14 28.4751 19.1867 28.4484 19.24C28.4217 19.2933 28.3884 19.3667 28.3484 19.46C28.2284 19.4733 28.0617 19.5 27.8484 19.54C27.6484 19.5667 27.4951 19.5933 27.3884 19.62C27.2551 19.6067 27.1684 19.5667 27.1284 19.5C27.0884 19.42 27.0484 19.3933 27.0084 19.42C26.8751 19.34 26.7884 19.2267 26.7484 19.08C26.7084 18.92 26.6684 18.8 26.6284 18.72L26.6684 18.6ZM16.6084 17.4C16.6751 17.1333 16.7217 16.96 16.7484 16.88C16.7751 16.7867 16.8017 16.72 16.8284 16.68C16.8284 16.5867 16.8617 16.4533 16.9284 16.28C16.9951 16.1067 17.0417 15.98 17.0684 15.9C17.1884 15.7533 17.3017 15.6467 17.4084 15.58C17.5151 15.5133 17.5751 15.4067 17.5884 15.26C17.5351 15.06 17.6151 14.8067 17.8284 14.5C17.9617 14.3533 18.1484 14.12 18.3884 13.8C18.4151 13.6667 18.4084 13.5467 18.3684 13.44C18.3417 13.32 18.3751 13.2667 18.4684 13.28C18.4951 13.16 18.5151 13.0667 18.5284 13C18.5551 12.92 18.5751 12.8533 18.5884 12.8C18.6017 12.7333 18.6151 12.66 18.6284 12.58C18.6551 12.5 18.6884 12.4 18.7284 12.28C18.7417 12.2267 18.7684 12.1867 18.8084 12.16C18.8484 12.12 18.8884 12.0867 18.9284 12.06C18.9684 12.0333 19.0017 12 19.0284 11.96C19.0684 11.9067 19.0884 11.8467 19.0884 11.78C19.0617 11.6733 19.0217 11.56 18.9684 11.44C18.9284 11.3067 18.9417 11.22 19.0084 11.18C19.1951 11.1133 19.2617 11.0133 19.2084 10.88C19.1684 10.7333 19.1417 10.5533 19.1284 10.34C19.3017 10.26 19.3951 10.1467 19.4084 9.99999C19.4217 9.85332 19.4217 9.70666 19.4084 9.55999C19.4351 9.58666 19.4551 9.58666 19.4684 9.55999C19.4951 9.51999 19.5151 9.47332 19.5284 9.41999C19.5551 9.35332 19.5751 9.29999 19.5884 9.25999C19.6151 9.20666 19.6351 9.17999 19.6484 9.17999C19.8084 8.97999 19.9817 8.87332 20.1684 8.85999C20.3684 8.84666 20.5084 8.85999 20.5884 8.89999C20.6284 8.92666 20.6817 8.94666 20.7484 8.95999C20.8151 8.97332 20.8817 8.99332 20.9484 9.01999C21.0151 9.04666 21.0684 9.07999 21.1084 9.11999C21.1484 9.15999 21.1484 9.20666 21.1084 9.25999C21.2017 9.29999 21.2684 9.33332 21.3084 9.35999C21.3484 9.38666 21.3751 9.42666 21.3884 9.47999C21.4017 9.53332 21.4084 9.59999 21.4084 9.67999C21.4217 9.75999 21.4484 9.86666 21.4884 9.99999C21.5817 10.0533 21.6151 10.16 21.5884 10.32C21.5617 10.4667 21.5017 10.6133 21.4084 10.76C21.4217 10.8 21.4084 10.8533 21.3684 10.92C21.3417 10.9733 21.3151 11.0267 21.2884 11.08C21.2617 11.1333 21.2351 11.1867 21.2084 11.24C21.1951 11.28 21.2017 11.3133 21.2284 11.34C21.2417 11.6467 21.2084 11.88 21.1284 12.04C21.1684 12.1067 21.1817 12.1733 21.1684 12.24C21.1551 12.2933 21.1351 12.3533 21.1084 12.42C21.0951 12.4733 21.0817 12.54 21.0684 12.62C21.0551 12.6867 21.0684 12.7667 21.1084 12.86C21.0817 12.9 21.0884 12.9467 21.1284 13C21.1684 13.0533 21.2151 13.1133 21.2684 13.18C21.3351 13.2333 21.3951 13.3067 21.4484 13.4C21.5017 13.48 21.5351 13.58 21.5484 13.7C21.7084 13.7667 21.8484 13.84 21.9684 13.92C22.0884 13.9867 22.1884 14.0533 22.2684 14.12C22.3484 14.1867 22.4217 14.24 22.4884 14.28C22.5551 14.32 22.6217 14.3267 22.6884 14.3C22.8484 14.4467 22.9751 14.5467 23.0684 14.6C23.1617 14.6533 23.2617 14.76 23.3684 14.92C23.3951 14.9867 23.4151 15.0467 23.4284 15.1C23.4417 15.1533 23.4684 15.2467 23.5084 15.38C23.6684 15.3533 23.8084 15.38 23.9284 15.46C24.0617 15.54 24.1884 15.5667 24.3084 15.54C24.4284 15.74 24.5084 15.8533 24.5484 15.88C24.5884 15.8933 24.6217 15.9267 24.6484 15.98C24.7817 16.0733 24.8817 16.1667 24.9484 16.26C25.0151 16.3533 25.0951 16.48 25.1884 16.64C25.1217 16.8267 25.0351 17.0067 24.9284 17.18C24.8217 17.34 24.7084 17.4933 24.5884 17.64C24.6284 17.7867 24.5751 17.84 24.4284 17.8C24.2817 17.76 24.1217 17.7467 23.9484 17.76C23.9217 17.8133 23.8484 17.8533 23.7284 17.88C23.6217 17.9067 23.4684 17.8467 23.2684 17.7C23.3084 17.6467 23.2817 17.5867 23.1884 17.52C23.1084 17.44 23.0884 17.3867 23.1284 17.36C23.0084 17.28 22.8751 17.24 22.7284 17.24C22.5817 17.24 22.4817 17.2267 22.4284 17.2C22.3617 17.1467 22.2684 17.0533 22.1484 16.92C22.0417 16.7867 21.9351 16.6667 21.8284 16.56C21.7617 16.4933 21.6751 16.4067 21.5684 16.3C21.4751 16.1933 21.3884 16.1467 21.3084 16.16C21.2684 16.0667 21.2217 15.9933 21.1684 15.94C21.1151 15.8867 21.0684 15.84 21.0284 15.8C21.0017 15.76 20.9817 15.7133 20.9684 15.66C20.9551 15.6067 20.9617 15.5267 20.9884 15.42C20.8417 15.4467 20.7017 15.44 20.5684 15.4C20.4484 15.3467 20.3951 15.24 20.4084 15.08C20.2884 15.0267 20.2084 14.9667 20.1684 14.9C20.1417 14.82 20.1217 14.7267 20.1084 14.62C19.9751 14.82 19.8684 14.9733 19.7884 15.08C19.7217 15.1733 19.7217 15.24 19.7884 15.28C19.7617 15.4267 19.7217 15.5333 19.6684 15.6C19.6151 15.6533 19.4951 15.7133 19.3084 15.78C19.3617 15.8467 19.3884 15.9133 19.3884 15.98C19.3884 16.0467 19.3751 16.1133 19.3484 16.18C19.3351 16.2333 19.3151 16.2867 19.2884 16.34C19.2751 16.3933 19.2817 16.4333 19.3084 16.46C19.2551 16.46 19.2151 16.4867 19.1884 16.54C19.1617 16.58 19.1284 16.6333 19.0884 16.7C19.0617 16.7533 19.0284 16.8133 18.9884 16.88C18.9484 16.9333 18.8884 16.9667 18.8084 16.98C18.8217 17.0467 18.7817 17.1333 18.6884 17.24C18.6084 17.3333 18.5751 17.4733 18.5884 17.66C18.4684 17.8867 18.3684 18.0267 18.2884 18.08C18.2217 18.12 18.1017 18.1267 17.9284 18.1C17.6217 18.1267 17.4084 18.1267 17.2884 18.1C17.1817 18.0733 17.0884 17.9667 17.0084 17.78C16.9551 17.82 16.9017 17.78 16.8484 17.66C16.8084 17.54 16.7417 17.3933 16.6484 17.22L16.6084 17.4Z" fill="white"/>
<path d="M12.8415 23.72L12.8215 23.58C12.7815 23.3133 12.7682 23.1133 12.7815 22.98C12.7949 22.8467 12.8482 22.7067 12.9415 22.56C12.9149 22.48 12.8882 22.38 12.8615 22.26C12.8349 22.1267 12.8949 22.0267 13.0415 21.96C13.0682 21.7733 13.0682 21.62 13.0415 21.5C13.0282 21.38 12.9549 21.32 12.8215 21.32C12.9015 21.0533 12.9549 20.88 12.9815 20.8C13.0215 20.72 13.0415 20.66 13.0415 20.62C13.0682 20.5667 13.0749 20.4933 13.0615 20.4C13.0482 20.3067 13.0215 20.22 12.9815 20.14C12.9549 20.06 12.9215 19.9933 12.8815 19.94C12.8415 19.8733 12.8215 19.84 12.8215 19.84C12.8882 19.8 12.9349 19.74 12.9615 19.66C13.0015 19.58 13.0215 19.5 13.0215 19.42C13.0215 19.34 13.0082 19.2667 12.9815 19.2C12.9682 19.1333 12.9349 19.0933 12.8815 19.08C12.9215 19.0267 12.9482 18.9667 12.9615 18.9C12.9882 18.82 13.0082 18.7467 13.0215 18.68C13.0349 18.6 13.0415 18.54 13.0415 18.5C13.0415 18.4467 13.0349 18.4267 13.0215 18.44C12.9682 18.3467 12.9615 18.24 13.0015 18.12C13.0549 17.9867 13.0282 17.8267 12.9215 17.64C12.9882 17.4933 13.0215 17.4 13.0215 17.36C13.0215 17.32 12.9682 17.2333 12.8615 17.1C12.9282 16.9533 12.9749 16.8067 13.0015 16.66C13.0282 16.5 13.0149 16.3067 12.9615 16.08C13.0149 16.0533 13.0415 16.02 13.0415 15.98C13.0415 15.9267 13.0282 15.8733 13.0015 15.82C12.9882 15.7533 12.9682 15.6867 12.9415 15.62C12.9149 15.5533 12.9149 15.4867 12.9415 15.42C12.9949 15.3533 13.0215 15.2533 13.0215 15.12C13.0349 14.9867 13.0349 14.8467 13.0215 14.7C12.9682 14.6467 12.9349 14.6 12.9215 14.56C12.9082 14.5067 12.9082 14.4533 12.9215 14.4C12.9349 14.3467 12.9482 14.2933 12.9615 14.24C12.9749 14.1733 12.9815 14.1 12.9815 14.02C13.0082 13.9267 13.0215 13.86 13.0215 13.82C13.0349 13.7667 13.0349 13.72 13.0215 13.68C13.0082 13.6267 12.9882 13.5667 12.9615 13.5C12.9349 13.42 12.9015 13.3067 12.8615 13.16C12.8882 13.16 12.9015 13.1533 12.9015 13.14C12.9015 13.1133 12.9015 13.0867 12.9015 13.06C12.9149 13.02 12.9349 12.9733 12.9615 12.92C12.9882 12.8667 13.0415 12.8067 13.1215 12.74C13.1082 12.4733 13.0682 12.2867 13.0015 12.18C12.9482 12.06 12.8949 11.9467 12.8415 11.84C12.8949 11.6533 12.9282 11.5067 12.9415 11.4C12.9682 11.28 12.9882 11.1867 13.0015 11.12C12.9215 10.9867 12.8615 10.8667 12.8215 10.76C12.7949 10.6533 12.7815 10.5467 12.7815 10.44C12.7815 10.32 12.7815 10.2067 12.7815 10.1C12.7949 9.98 12.7949 9.84667 12.7815 9.7L12.9015 9.74L12.6615 9.52C12.7682 9.41333 12.8349 9.32667 12.8615 9.26C12.9015 9.18 12.9149 9.06667 12.9015 8.92C12.9815 8.68 13.1015 8.52667 13.2615 8.46C13.4349 8.39333 13.5749 8.45333 13.6815 8.64C13.8282 8.49333 13.9682 8.45333 14.1015 8.52C14.2482 8.57333 14.2949 8.71333 14.2415 8.94C14.4015 8.96667 14.5149 9.02 14.5815 9.1C14.6615 9.18 14.6415 9.29334 14.5215 9.44C14.6282 9.50667 14.6682 9.58667 14.6415 9.68C14.6149 9.76 14.6215 9.83334 14.6615 9.9C14.8082 10.1267 14.8749 10.3133 14.8615 10.46C14.8482 10.5933 14.8282 10.7733 14.8015 11C14.8949 11.0133 14.9482 11.0933 14.9615 11.24C14.9882 11.3867 14.9549 11.5333 14.8615 11.68C14.8349 11.7067 14.8149 11.8067 14.8015 11.98C14.8015 12.14 14.8682 12.28 15.0015 12.4C14.9749 12.3733 14.9815 12.4333 15.0215 12.58C15.0749 12.7267 15.0882 12.8933 15.0615 13.08C14.9949 13.0933 14.9482 13.1333 14.9215 13.2C14.8949 13.2533 14.8815 13.32 14.8815 13.4C14.8815 13.4667 14.8882 13.5333 14.9015 13.6C14.9149 13.6667 14.9349 13.72 14.9615 13.76C14.9349 13.84 14.9215 13.9 14.9215 13.94C14.9349 13.9667 14.9482 13.9933 14.9615 14.02C14.9749 14.0467 14.9749 14.0733 14.9615 14.1C14.9615 14.1133 14.9349 14.14 14.8815 14.18C14.9615 14.2733 15.0082 14.3667 15.0215 14.46C15.0349 14.54 15.0349 14.62 15.0215 14.7C15.0215 14.7667 15.0082 14.82 14.9815 14.86C14.9682 14.9 14.9615 14.9133 14.9615 14.9C15.0282 15.0333 15.0549 15.2 15.0415 15.4C15.0282 15.6 15.0749 15.7733 15.1815 15.92C15.0349 16.0133 14.9549 16.08 14.9415 16.12C14.9415 16.1467 14.9482 16.2333 14.9615 16.38C14.9349 16.4867 14.9215 16.62 14.9215 16.78C14.9349 16.9267 14.9482 17.0733 14.9615 17.22C15.0682 17.3267 15.1282 17.4333 15.1415 17.54C15.1549 17.6333 15.1349 17.7133 15.0815 17.78C15.0949 17.82 15.0949 17.88 15.0815 17.96C15.0682 18.0267 15.0549 18.1 15.0415 18.18C15.0282 18.2467 15.0149 18.3067 15.0015 18.36C15.0015 18.4133 15.0215 18.44 15.0615 18.44C15.0749 18.52 15.0749 18.6 15.0615 18.68C15.0482 18.76 15.0349 18.84 15.0215 18.92C15.0082 19 15.0082 19.0733 15.0215 19.14C15.0482 19.2067 15.0949 19.26 15.1615 19.3C15.1215 19.4733 15.0949 19.5867 15.0815 19.64C15.0815 19.6933 15.0349 19.7867 14.9415 19.92C14.9149 19.9867 14.9215 20.1133 14.9615 20.3C15.0149 20.4733 15.0749 20.6067 15.1415 20.7C15.1415 20.8467 15.1282 20.9867 15.1015 21.12C15.0882 21.2533 15.0615 21.4 15.0215 21.56C14.9949 21.7467 14.9749 21.9067 14.9615 22.04C14.9615 22.16 14.9882 22.32 15.0415 22.52C15.0282 22.6933 15.0015 22.8467 14.9615 22.98C14.9349 23.1 14.9082 23.2133 14.8815 23.32C14.8549 23.4267 14.8349 23.5267 14.8215 23.62C14.8082 23.7133 14.8149 23.8067 14.8415 23.9C14.8015 23.98 14.7749 24.04 14.7615 24.08C14.7482 24.12 14.7282 24.1533 14.7015 24.18C14.6882 24.2067 14.6549 24.24 14.6015 24.28C14.5615 24.32 14.4949 24.3867 14.4015 24.48C14.2815 24.48 14.1882 24.4867 14.1215 24.5C14.0682 24.5267 13.9482 24.5733 13.7615 24.64C13.7215 24.56 13.6349 24.48 13.5015 24.4C13.3815 24.32 13.2682 24.2867 13.1615 24.3C13.0149 24.2867 12.9215 24.2 12.8815 24.04C12.8415 23.8933 12.8215 23.7467 12.8215 23.6L12.8415 23.72ZM1.42154 22.64C1.46154 22.56 1.48821 22.4933 1.50154 22.44C1.52821 22.3867 1.54821 22.34 1.56154 22.3C1.57488 22.26 1.59488 22.22 1.62154 22.18C1.66154 22.1267 1.72154 22.0533 1.80154 21.96C1.93488 21.9467 2.02154 21.8667 2.06154 21.72C2.11488 21.5733 2.21488 21.4067 2.36154 21.22C2.40154 21.22 2.44821 21.2067 2.50154 21.18C2.56821 21.1533 2.62154 21.1267 2.66154 21.1C2.71488 21.06 2.75488 21.02 2.78154 20.98C2.82154 20.94 2.82821 20.9067 2.80154 20.88C2.88154 20.8267 2.95488 20.7533 3.02154 20.66C3.08821 20.5667 3.15488 20.48 3.22154 20.4C3.28821 20.32 3.34821 20.26 3.40154 20.22C3.46821 20.1667 3.53488 20.1467 3.60154 20.16C3.57488 20.08 3.58154 20.0133 3.62154 19.96C3.66154 19.8933 3.70821 19.84 3.76154 19.8C3.81488 19.76 3.87488 19.72 3.94154 19.68C4.00821 19.64 4.06154 19.5933 4.10154 19.54C4.12821 19.5533 4.16821 19.48 4.22154 19.32C4.28821 19.16 4.38154 19.02 4.50154 18.9C4.42154 18.7933 4.42154 18.7133 4.50154 18.66C4.58154 18.5933 4.70821 18.58 4.88154 18.62C4.93488 18.5133 4.96821 18.4067 4.98154 18.3C4.99488 18.18 5.05488 18.08 5.16154 18C5.17488 17.7867 5.19488 17.6467 5.22154 17.58C5.24821 17.5 5.28821 17.46 5.34154 17.46C5.30154 17.4067 5.28154 17.3 5.28154 17.14C5.29488 16.98 5.28821 16.8467 5.26154 16.74C5.35488 16.5933 5.43488 16.5133 5.50154 16.5C5.58154 16.4733 5.63488 16.3933 5.66154 16.26C5.63488 16.22 5.62821 16.16 5.64154 16.08C5.65488 16 5.67488 15.92 5.70154 15.84C5.72821 15.76 5.75488 15.68 5.78154 15.6C5.82154 15.52 5.84821 15.4533 5.86154 15.4C5.71488 15.2 5.63488 15.0667 5.62154 15C5.60821 14.9333 5.64154 14.8333 5.72154 14.7C5.76154 14.58 5.79488 14.4867 5.82154 14.42C5.86154 14.3533 5.88821 14.3 5.90154 14.26C5.92821 14.2067 5.93488 14.16 5.92154 14.12C5.90821 14.0667 5.88154 13.9933 5.84154 13.9C5.86821 13.7667 5.88154 13.6467 5.88154 13.54C5.89488 13.4333 5.88821 13.2933 5.86154 13.12C5.83488 13.1467 5.82821 13.1133 5.84154 13.02C5.85488 12.9267 5.85488 12.8733 5.84154 12.86C5.82821 12.7667 5.82821 12.68 5.84154 12.6C5.85488 12.5067 5.86154 12.4267 5.86154 12.36C5.86154 12.2933 5.84154 12.24 5.80154 12.2C5.77488 12.16 5.70821 12.14 5.60154 12.14C5.58821 12.06 5.56154 12.0067 5.52154 11.98C5.49488 11.94 5.45488 11.9133 5.40154 11.9C5.36154 11.8733 5.30821 11.8533 5.24154 11.84C5.17488 11.8133 5.09488 11.7733 5.00154 11.72C4.96154 11.6933 4.91488 11.6867 4.86154 11.7C4.80821 11.7133 4.74821 11.7333 4.68154 11.76C4.62821 11.7867 4.56821 11.8133 4.50154 11.84C4.44821 11.8667 4.40821 11.8733 4.38154 11.86C4.26154 11.8867 4.16154 11.9067 4.08154 11.92C4.00154 11.92 3.92821 11.92 3.86154 11.92C3.79488 11.9067 3.72821 11.9 3.66154 11.9C3.59488 11.9 3.51488 11.9067 3.42154 11.92C3.27488 11.8267 3.12821 11.7733 2.98154 11.76C2.83488 11.7333 2.70821 11.7467 2.60154 11.8C2.54821 11.8533 2.46821 11.8933 2.36154 11.92C2.26821 11.9333 2.06821 11.86 1.76154 11.7C1.72154 11.7667 1.68154 11.8067 1.64154 11.82C1.60154 11.82 1.56154 11.8067 1.52154 11.78C1.48154 11.7533 1.44154 11.72 1.40154 11.68C1.37488 11.64 1.35488 11.6067 1.34154 11.58C1.30154 11.4733 1.26821 11.34 1.24154 11.18C1.22821 11.02 1.22154 10.9467 1.22154 10.96C1.15488 10.72 1.11488 10.5467 1.10154 10.44C1.08821 10.3333 1.08154 10.26 1.08154 10.22C1.26821 10.1133 1.40154 10.0467 1.48154 10.02C1.57488 9.99333 1.68821 10.0067 1.82154 10.06C1.80821 9.91333 1.86154 9.83333 1.98154 9.82C2.10154 9.80667 2.18154 9.82 2.22154 9.86C2.24821 9.87333 2.29488 9.88 2.36154 9.88C2.42821 9.86667 2.49488 9.85334 2.56154 9.84C2.62821 9.82667 2.68821 9.82 2.74154 9.82C2.80821 9.82 2.84154 9.83333 2.84154 9.86C3.02821 9.79333 3.16154 9.78 3.24154 9.82C3.32154 9.84667 3.39488 9.92 3.46154 10.04C3.71488 9.94667 3.88821 9.9 3.98154 9.9C4.07488 9.88667 4.14821 9.83333 4.20154 9.74C4.30821 9.76667 4.41488 9.79333 4.52154 9.82C4.64154 9.83333 4.73488 9.79333 4.80154 9.7C5.16154 9.79333 5.50154 9.76667 5.82154 9.62C5.84821 9.64667 5.94821 9.69333 6.12154 9.76C6.29488 9.81333 6.43488 9.86667 6.54154 9.92C6.55488 9.85333 6.63488 9.85333 6.78154 9.92C6.92821 9.98667 7.02821 10.08 7.08154 10.2C7.40154 10.16 7.54821 10.1933 7.52154 10.3C7.52154 10.3667 7.54154 10.4667 7.58154 10.6C7.63488 10.72 7.72154 10.8 7.84154 10.84C7.88154 10.9333 7.88821 11.04 7.86154 11.16C7.83488 11.28 7.86154 11.4067 7.94154 11.54C7.91488 11.6467 7.92154 11.7467 7.96154 11.84C8.01488 11.9333 8.02821 12.0667 8.00154 12.24C7.94821 12.4133 7.93488 12.5667 7.96154 12.7C8.00154 12.8333 8.04821 12.9067 8.10154 12.92L8.16154 13.02L9.04154 12.82H10.0015L9.64154 12.24L9.70154 11.6C9.76821 11.3467 9.79488 11.14 9.78154 10.98C9.78154 10.8067 9.70154 10.56 9.54154 10.24C9.63488 10.24 9.70154 10.1867 9.74154 10.08C9.79488 9.96 9.83488 9.88667 9.86154 9.86L9.60154 9.56C9.62821 9.45333 9.64821 9.36 9.66154 9.28C9.67488 9.18667 9.75488 9.06667 9.90154 8.92C10.1815 8.62667 10.4015 8.54667 10.5615 8.68C10.7615 8.68 10.9149 8.70667 11.0215 8.76C11.1282 8.8 11.1682 8.91333 11.1415 9.1C11.2349 9.11333 11.3015 9.12667 11.3415 9.14C11.3815 9.15333 11.4015 9.16667 11.4015 9.18C11.4149 9.19333 11.4149 9.22 11.4015 9.26C11.3882 9.28667 11.3882 9.32667 11.4015 9.38C11.5882 9.48667 11.7015 9.60667 11.7415 9.74C11.7949 9.86 11.8282 9.99333 11.8415 10.14C11.8415 10.2467 11.8082 10.3933 11.7415 10.58C11.6882 10.7667 11.6549 10.9133 11.6415 11.02C11.6015 11.2067 11.5882 11.3333 11.6015 11.4C11.6149 11.4667 11.6415 11.6133 11.6815 11.84C11.6415 11.88 11.6482 11.96 11.7015 12.08C11.7682 12.1867 11.8615 12.2667 11.9815 12.32C11.8749 12.4267 11.7949 12.5667 11.7415 12.74C11.7015 12.9 11.6815 12.9733 11.6815 12.96C11.7349 13.0667 11.7815 13.1467 11.8215 13.2C11.8749 13.2533 11.9082 13.3067 11.9215 13.36C11.9482 13.4 11.9682 13.4467 11.9815 13.5C11.9949 13.5533 12.0015 13.64 12.0015 13.76C11.8949 13.7333 11.8482 13.78 11.8615 13.9C11.8749 14.0067 11.8415 14.1733 11.7615 14.4C11.8682 14.4667 11.9349 14.5467 11.9615 14.64C12.0015 14.7333 12.0082 14.7733 11.9815 14.76C11.8749 14.9067 11.8149 15.08 11.8015 15.28C11.8015 15.4667 11.8415 15.5867 11.9215 15.64C11.9349 15.7067 11.9215 15.8067 11.8815 15.94C11.8549 16.06 11.7882 16.0933 11.6815 16.04C11.8282 16.28 11.9149 16.46 11.9415 16.58C11.9682 16.7 11.9215 16.7267 11.8015 16.66C11.7749 16.86 11.7882 17.0133 11.8415 17.12C11.9082 17.2267 11.9015 17.3267 11.8215 17.42C11.8215 17.6467 11.8349 17.8267 11.8615 17.96C11.8882 18.08 11.9015 18.1867 11.9015 18.28C11.8082 18.2533 11.7682 18.2867 11.7815 18.38C11.7949 18.46 11.8949 18.5333 12.0815 18.6C11.9615 18.7867 11.9015 18.9467 11.9015 19.08C11.9149 19.2133 11.9149 19.3733 11.9015 19.56C11.8349 19.6133 11.7949 19.68 11.7815 19.76C11.7682 19.84 11.8215 19.9867 11.9415 20.2C11.8082 20.2133 11.7482 20.2733 11.7615 20.38C11.7882 20.4867 11.8349 20.6067 11.9015 20.74C11.9549 20.98 11.9349 21.1467 11.8415 21.24C11.7615 21.3333 11.7549 21.36 11.8215 21.32C11.7682 21.4933 11.7349 21.7067 11.7215 21.96C11.7082 22.2133 11.7282 22.4933 11.7815 22.8C11.7549 23 11.7349 23.2 11.7215 23.4C11.7215 23.6 11.6749 23.76 11.5815 23.88C11.5815 23.9333 11.5815 23.9933 11.5815 24.06C11.5815 24.1267 11.5815 24.1867 11.5815 24.24C11.5815 24.2933 11.5682 24.3267 11.5415 24.34C11.5149 24.3667 11.4682 24.36 11.4015 24.32C11.4015 24.4533 11.3415 24.56 11.2215 24.64C11.1015 24.7333 11.0082 24.8 10.9415 24.84C10.6749 24.7467 10.4882 24.6867 10.3815 24.66C10.2749 24.6467 10.1749 24.6 10.0815 24.52C10.0815 24.4267 10.0615 24.3533 10.0215 24.3C9.98154 24.26 9.94154 24.22 9.90154 24.18C9.86154 24.14 9.82821 24.0933 9.80154 24.04C9.77488 23.9867 9.77488 23.9 9.80154 23.78L9.86154 23.46C9.92821 23.4333 9.96154 23.3533 9.96154 23.22C9.96154 23.1 9.96821 22.9867 9.98154 22.88C10.0082 22.68 10.0282 22.5467 10.0415 22.48C10.0549 22.4133 10.0615 22.3467 10.0615 22.28C10.0349 22.08 10.0149 21.94 10.0015 21.86C9.98821 21.7667 9.99488 21.6667 10.0215 21.56C9.99488 21.48 9.98154 21.3933 9.98154 21.3C9.99488 21.2067 10.0015 21.1133 10.0015 21.02C10.0015 20.9133 9.99488 20.82 9.98154 20.74C9.96821 20.6467 9.92821 20.5733 9.86154 20.52C9.88821 20.4267 9.93488 20.36 10.0015 20.32C10.0682 20.2667 10.0815 20.1667 10.0415 20.02C9.86821 19.7533 9.79488 19.5133 9.82154 19.3L9.02154 19.28L8.06154 19.22C7.96821 19.3267 7.90154 19.3533 7.86154 19.3C7.83488 19.2333 7.79488 19.16 7.74154 19.08C7.66154 18.8667 7.56821 18.7333 7.46154 18.68C7.35488 18.6133 7.28821 18.54 7.26154 18.46C7.27488 18.2067 7.28821 18.0133 7.30154 17.88C7.32821 17.7467 7.40154 17.6133 7.52154 17.48C7.58821 17.4667 7.70821 17.46 7.88154 17.46C8.05488 17.46 8.16821 17.4267 8.22154 17.36L9.18154 17.16L9.86154 17.42C9.88821 17.22 9.92154 17.0733 9.96154 16.98C10.0149 16.8733 10.0149 16.7333 9.96154 16.56C9.89488 16.36 9.90154 16.1933 9.98154 16.06C10.0749 15.9133 10.1082 15.76 10.0815 15.6C10.0815 15.5867 10.0682 15.5533 10.0415 15.5C10.0282 15.4333 10.0149 15.3733 10.0015 15.32C9.98821 15.2533 9.98821 15.1867 10.0015 15.12C10.0149 15.0533 10.0549 15 10.1215 14.96L9.12154 14.84L8.34154 14.92L8.14154 15.08L7.66154 14.78L7.94154 15.66C7.91488 15.74 7.88154 15.8133 7.84154 15.88C7.80154 15.9333 7.72821 16.0867 7.62154 16.34C7.63488 16.34 7.64154 16.3667 7.64154 16.42C7.64154 16.4733 7.63488 16.54 7.62154 16.62C7.62154 16.6867 7.62154 16.7467 7.62154 16.8C7.62154 16.8533 7.63488 16.88 7.66154 16.88C7.60821 17.12 7.56821 17.2933 7.54154 17.4C7.52821 17.5067 7.49488 17.6733 7.44154 17.9C7.41488 17.9667 7.39488 18.02 7.38154 18.06C7.38154 18.1 7.37488 18.1333 7.36154 18.16C7.34821 18.1867 7.33488 18.22 7.32154 18.26C7.30821 18.3 7.28821 18.36 7.26154 18.44C7.15488 18.4667 7.07488 18.5667 7.02154 18.74C6.96821 18.9133 6.95488 19.0467 6.98154 19.14C6.94154 19.2067 6.89488 19.28 6.84154 19.36C6.78821 19.4267 6.72821 19.4467 6.66154 19.42C6.60821 19.54 6.56154 19.6333 6.52154 19.7C6.48154 19.7533 6.44154 19.7933 6.40154 19.82C6.36154 19.8333 6.31488 19.8533 6.26154 19.88C6.22154 19.8933 6.16821 19.92 6.10154 19.96C5.99488 20.2 5.92154 20.34 5.88154 20.38C5.85488 20.42 5.81488 20.4667 5.76154 20.52C5.73488 20.7467 5.68821 20.9133 5.62154 21.02C5.56821 21.1133 5.54154 21.2 5.54154 21.28C5.44821 21.2533 5.36821 21.2467 5.30154 21.26C5.23488 21.2733 5.16821 21.3 5.10154 21.34C5.04821 21.38 4.98821 21.4267 4.92154 21.48C4.85488 21.5333 4.77488 21.5867 4.68154 21.64C4.72154 21.72 4.73488 21.8067 4.72154 21.9C4.70821 21.98 4.68154 22.06 4.64154 22.14C4.60154 22.2067 4.56154 22.28 4.52154 22.36C4.49488 22.4267 4.48154 22.4867 4.48154 22.54C4.30821 22.46 4.15488 22.4733 4.02154 22.58C3.88821 22.6867 3.76821 22.7933 3.66154 22.9L3.42154 23C3.47488 23.0933 3.48821 23.1867 3.46154 23.28C3.43488 23.3733 3.30154 23.42 3.06154 23.42C3.08821 23.4867 3.08154 23.5267 3.04154 23.54C3.00154 23.5667 2.94821 23.58 2.88154 23.58C2.82821 23.58 2.76821 23.5667 2.70154 23.54C2.64821 23.5267 2.61488 23.5067 2.60154 23.48C2.45488 23.5467 2.33488 23.58 2.24154 23.58C2.16154 23.5933 2.03488 23.4867 1.86154 23.26C1.75488 23.2333 1.65488 23.1667 1.56154 23.06C1.46821 22.9667 1.41488 22.84 1.40154 22.68L1.42154 22.64Z" fill="white"/>
</svg>
