<svg width="54" height="32" viewBox="0 0 54 32" fill="none" xmlns="http://www.w3.org/2000/svg">
<path d="M49.2477 16.195L49.5877 16.435L49.8877 16.635L49.8677 17.155L49.8877 17.535L50.0677 17.875L50.4077 18.095V18.555L50.7277 18.755L50.8877 19.155L51.1477 19.455L51.1077 19.915L51.1477 20.335L51.4277 20.795L51.1277 21.035L51.4277 21.355L51.2077 21.795L50.9677 22.195L51.0877 22.615L51.0077 23.055L50.7077 23.375L50.3877 23.675L50.2477 24.115L49.8077 24.135L49.4877 24.415L49.1677 24.775L48.7277 24.415H48.3677L48.0077 24.255L47.6677 24.215L47.2477 24.135L46.9677 23.875L46.7677 23.515L46.3277 23.395L46.1277 23.075L45.9077 22.655L45.4677 22.575L45.1877 22.395L44.7677 22.275L44.4077 22.455L44.1477 22.755L44.0677 23.215L43.6877 23.455L43.3677 23.675L43.0477 23.855L42.8477 24.255L42.5277 24.415L42.0677 24.395L41.7877 24.775L41.4277 24.475L41.0077 24.555L40.7677 24.335L40.3877 24.235L40.0477 23.975L39.6477 23.835L39.4877 23.475V22.995L39.3277 22.595L39.1877 22.235L38.9077 21.815L39.3077 21.395L39.0877 20.975L39.1677 20.675V20.275L39.3077 19.935L39.3277 19.555L39.4077 19.235L39.5077 18.815L39.8277 18.595L39.6877 18.075L40.0677 17.855L40.4277 17.515L40.4877 17.135L40.4477 16.595L40.9477 16.475L41.2277 16.175L41.4677 15.855L41.7277 15.575L41.9077 15.175L42.0677 14.795L42.6477 14.875L42.8877 14.495L43.2477 14.375L43.5877 14.055L44.0077 14.115L44.3677 13.975L44.8277 13.955L45.2077 14.075L45.5677 14.295L45.9277 14.095L46.3077 14.315L46.5877 14.395L47.1077 14.195L47.4077 14.415L47.6477 14.775L47.9277 15.035L48.3277 15.155L48.5877 15.455L48.7077 15.775L49.0877 15.875L49.2477 16.195ZM40.3877 11.395L40.4077 11.075L40.3677 10.735L40.5877 10.395L40.5677 10.015L40.7477 9.69501L40.8277 9.39501L41.1677 9.13501L41.4677 8.93501L41.8877 8.91501L42.2277 8.95501L42.5677 9.27501L42.8877 9.47501L43.1877 9.75501L43.3277 10.175L43.4677 10.555L43.5877 10.895V11.215L43.6477 11.615L43.6277 11.935L43.5877 12.315L43.3477 12.535L43.2877 12.895L43.0677 13.095L42.8677 13.315H42.5277L42.1677 13.475L41.8477 13.435L41.5877 13.315L41.3277 13.295L40.9477 13.115L40.7477 12.875L40.5677 12.515L40.4877 12.135L40.4677 11.755L40.3877 11.395ZM46.4677 13.155L46.1677 12.975L45.8877 12.655V12.235L45.7477 11.835L45.8477 11.475L45.9677 11.095L46.0077 10.715L46.2077 10.355L46.4277 10.035L46.6877 9.79501L46.9677 9.49501L47.2477 9.23501L47.6877 9.09501L48.0877 9.13501L48.4277 9.41501L48.5877 9.71501L48.7277 10.035L49.0277 10.315L49.1677 10.655L49.1077 11.015L49.0277 11.395L49.1477 11.735L49.1277 12.135L48.8477 12.375L48.6077 12.655L48.4277 12.915L48.1477 13.175L47.8877 13.255L47.5477 13.275L47.1877 13.395L46.8277 13.295L46.4677 13.155ZM53.1077 13.635L53.2077 14.095L53.0877 14.535L52.9477 15.035L52.7477 15.415L52.4477 15.675L52.1477 15.875L51.7877 16.055L51.4077 15.935L51.0277 15.895L50.7277 15.875L50.3677 15.695L50.1277 15.295L50.0677 14.915L50.0477 14.515L50.0077 14.215L50.0677 13.795L50.2477 13.475L50.4877 13.135L50.7477 12.895L51.0077 12.655L51.3477 12.435L51.7277 12.495L52.1477 12.575L52.5077 12.675L52.8477 12.915L53.0677 13.235L53.1077 13.635ZM39.6877 15.895L39.3677 16.055L39.1077 16.275L38.7277 16.335L38.4877 16.215L38.1077 16.235L37.7477 16.075L37.5077 15.835L37.2077 15.635L37.0077 15.335L36.9277 15.075L36.8477 14.795L37.0077 14.375L37.0677 13.935V13.475L37.3477 13.135L37.8277 12.935L38.2277 12.895H38.6277L38.8877 13.215L39.1477 13.595L39.4077 13.895L39.6277 14.235L39.8077 14.555L39.8677 15.015L39.8077 15.355L39.8677 15.775L39.6877 15.895Z" fill="white"/>
<path d="M18.39 23.115L18.19 22.275L18.31 21.675L18.25 20.895L18.21 20.055C18.3033 19.9083 18.3566 19.795 18.37 19.715C18.3833 19.6217 18.4033 19.495 18.43 19.335C18.6566 19.2817 18.8233 19.2883 18.93 19.355C19.05 19.4217 19.1166 19.4083 19.13 19.315C19.21 19.2883 19.29 19.2883 19.37 19.315C19.45 19.3283 19.53 19.3617 19.61 19.415C19.69 19.455 19.7633 19.5083 19.83 19.575C19.91 19.6283 19.9766 19.6817 20.03 19.735C20.07 19.7083 20.11 19.7683 20.15 19.915C20.2033 20.0483 20.2366 20.1483 20.25 20.215L20.37 21.035L20.39 21.515L20.27 22.595C20.27 22.7017 20.33 22.8083 20.45 22.915C20.5833 23.0083 20.7633 23.0283 20.99 22.975L21.49 23.295L22.31 23.055L22.97 23.015L23.75 23.095L24.19 22.955L24.91 23.095L25.65 23.175L26.19 22.915L27.03 23.175L27.73 23.095L28.47 23.015C28.5366 23.055 28.65 23.0817 28.81 23.095C28.9833 23.1083 29.0766 23.175 29.09 23.295C29.3166 23.3617 29.4433 23.4417 29.47 23.535C29.51 23.6283 29.5033 23.7483 29.45 23.895C29.5566 23.975 29.6033 24.075 29.59 24.195C29.5766 24.3283 29.4633 24.4483 29.25 24.555C29.21 24.715 29.1366 24.8217 29.03 24.875C28.9233 24.9417 28.75 24.9017 28.51 24.755L28.09 24.715L27.23 25.055L26.87 24.935L26.01 24.875L25.51 25.035L24.91 24.855L24.07 24.755L23.29 24.875L22.77 25.115L22.13 24.815L21.41 24.935L20.83 24.795L19.99 24.875C19.9233 24.915 19.87 24.9417 19.83 24.955C19.79 24.9817 19.7433 24.9883 19.69 24.975C19.6366 24.975 19.57 24.955 19.49 24.915C19.4233 24.8883 19.3233 24.8417 19.19 24.775C19.1233 24.735 19.0766 24.695 19.05 24.655C19.0366 24.615 19.0233 24.575 19.01 24.535C18.9966 24.5083 18.9766 24.475 18.95 24.435C18.9233 24.4083 18.87 24.3817 18.79 24.355C18.6433 24.2883 18.5633 24.235 18.55 24.195C18.55 24.1683 18.5366 24.1217 18.51 24.055C18.3633 23.7883 18.27 23.5883 18.23 23.455C18.19 23.335 18.21 23.2483 18.29 23.195L18.39 23.115ZM23.87 13.475C23.9366 13.3817 23.99 13.2817 24.03 13.175C24.07 13.055 24.1233 12.955 24.19 12.875C24.2033 12.835 24.2433 12.7883 24.31 12.735C24.3766 12.6817 24.4566 12.6283 24.55 12.575C24.6433 12.5217 24.73 12.475 24.81 12.435C24.89 12.395 24.95 12.3817 24.99 12.395L25.39 12.555L26.31 12.475L26.97 12.355L27.41 12.475C27.5033 12.3817 27.5433 12.3017 27.53 12.235C27.53 12.1683 27.5833 12.0283 27.69 11.815C27.5033 11.695 27.3966 11.5883 27.37 11.495C27.3566 11.3883 27.39 11.2617 27.47 11.115L27.33 10.135C27.2633 10.1083 27.2166 10.055 27.19 9.975C27.1633 9.895 27.1633 9.82167 27.19 9.755L27.11 9.535L27.31 9.455C27.2966 9.28167 27.3166 9.14833 27.37 9.055C27.4366 8.94834 27.4366 8.84833 27.37 8.755C27.45 8.755 27.53 8.74167 27.61 8.715C27.69 8.68834 27.7633 8.655 27.83 8.615C27.8966 8.575 27.9566 8.54167 28.01 8.515C28.0633 8.475 28.11 8.46167 28.15 8.475C28.2966 8.46167 28.4366 8.495 28.57 8.575C28.7166 8.64167 28.87 8.68167 29.03 8.695C29.0566 8.84167 29.1033 8.955 29.17 9.035C29.2366 9.10167 29.21 9.18834 29.09 9.295C29.1166 9.50833 29.1766 9.68167 29.27 9.815C29.3633 9.935 29.3766 10.075 29.31 10.235C29.2833 10.2083 29.2633 10.2617 29.25 10.395C29.2366 10.515 29.2633 10.6217 29.33 10.715C29.29 10.9017 29.29 11.035 29.33 11.115C29.3833 11.195 29.3833 11.2617 29.33 11.315C29.3566 11.515 29.39 11.6817 29.43 11.815C29.47 11.935 29.5033 12.015 29.53 12.055C29.5566 12.335 29.5433 12.5483 29.49 12.695C29.4366 12.8283 29.4366 12.955 29.49 13.075C29.5033 13.1017 29.5033 13.1417 29.49 13.195C29.4766 13.2483 29.4633 13.3083 29.45 13.375C29.45 13.4417 29.4566 13.5083 29.47 13.575C29.4833 13.6283 29.5233 13.6683 29.59 13.695C29.6033 13.8017 29.6033 13.9083 29.59 14.015C29.59 14.1083 29.5233 14.2683 29.39 14.495L29.71 15.155L29.37 15.775L29.67 16.695L29.41 17.335C29.5033 17.4817 29.5233 17.6083 29.47 17.715C29.43 17.8217 29.3966 17.9483 29.37 18.095C29.4366 18.1883 29.45 18.335 29.41 18.535C29.37 18.735 29.3166 18.875 29.25 18.955C29.2766 19.0617 29.27 19.155 29.23 19.235C29.2033 19.3017 29.1166 19.3283 28.97 19.315C28.9033 19.4617 28.8433 19.5683 28.79 19.635C28.75 19.6883 28.6566 19.6483 28.51 19.515C28.4166 19.5283 28.3433 19.5483 28.29 19.575C28.2366 19.5883 28.1833 19.5883 28.13 19.575C28.09 19.5617 28.0433 19.535 27.99 19.495C27.95 19.4417 27.89 19.355 27.81 19.235C27.73 19.2483 27.6633 19.235 27.61 19.195C27.57 19.155 27.5366 19.1017 27.51 19.035C27.4833 18.955 27.4566 18.875 27.43 18.795C27.4166 18.715 27.3833 18.6483 27.33 18.595L27.37 18.375C27.4366 18.3483 27.51 18.255 27.59 18.095C27.67 17.935 27.7233 17.755 27.75 17.555C27.6566 17.515 27.59 17.4617 27.55 17.395C27.5233 17.3283 27.5033 17.255 27.49 17.175C27.49 17.095 27.4833 17.0017 27.47 16.895C27.47 16.7883 27.4566 16.675 27.43 16.555C27.4833 16.515 27.51 16.4217 27.51 16.275C27.51 16.115 27.5366 15.9417 27.59 15.755C27.5766 15.7017 27.57 15.6483 27.57 15.595C27.5833 15.5283 27.59 15.4083 27.59 15.235C27.5766 15.0617 27.5566 14.9083 27.53 14.775C27.5033 14.6283 27.53 14.4817 27.61 14.335C27.5033 14.295 27.3833 14.295 27.25 14.335C27.13 14.375 27.0033 14.3883 26.87 14.375C26.7766 14.2817 26.67 14.2417 26.55 14.255C26.4433 14.255 26.2966 14.255 26.11 14.255C26.0433 14.2283 25.9433 14.235 25.81 14.275C25.6766 14.3017 25.5633 14.2883 25.47 14.235C25.43 14.3817 25.3366 14.4483 25.19 14.435C25.0566 14.4083 24.95 14.3417 24.87 14.235C24.7766 14.2483 24.6566 14.2483 24.51 14.235C24.3633 14.2083 24.3033 14.1217 24.33 13.975C24.17 13.8283 24.0433 13.7283 23.95 13.675C23.8566 13.6083 23.8566 13.5017 23.95 13.355L23.87 13.475ZM16.21 17.435C16.25 17.355 16.2766 17.2817 16.29 17.215C16.3166 17.135 16.3366 17.0617 16.35 16.995C16.3766 16.9283 16.4033 16.875 16.43 16.835C16.47 16.7817 16.53 16.7417 16.61 16.715C16.7033 16.6883 16.7766 16.5883 16.83 16.415C16.8966 16.2417 16.9766 16.1017 17.07 15.995C17.1766 15.9283 17.29 15.8817 17.41 15.855C17.53 15.815 17.5766 15.7883 17.55 15.775C17.6033 15.6683 17.6566 15.5883 17.71 15.535C17.7633 15.4683 17.8233 15.415 17.89 15.375C17.9566 15.335 18.03 15.3017 18.11 15.275C18.19 15.235 18.29 15.175 18.41 15.095C18.3566 15.015 18.3366 14.9617 18.35 14.935C18.3633 14.895 18.3966 14.855 18.45 14.815C18.5033 14.775 18.57 14.7283 18.65 14.675C18.7433 14.6217 18.83 14.535 18.91 14.415C18.9766 14.415 19.0566 14.3817 19.15 14.315C19.2566 14.2483 19.3366 14.135 19.39 13.975C19.3766 13.9483 19.3766 13.9083 19.39 13.855C19.4033 13.7883 19.4633 13.7217 19.57 13.655C19.6766 13.535 19.8166 13.435 19.99 13.355C20.1766 13.2617 20.3033 13.1417 20.37 12.995C20.4633 12.995 20.53 12.955 20.57 12.875C20.61 12.795 20.7033 12.7417 20.85 12.715C20.8633 12.595 20.8833 12.5083 20.91 12.455C20.95 12.3883 20.9833 12.3483 21.01 12.335C21.0366 12.3083 21.0566 12.2883 21.07 12.275C21.0833 12.2617 21.07 12.2417 21.03 12.215C21.19 12.095 21.3233 12.0017 21.43 11.935C21.55 11.855 21.59 11.7817 21.55 11.715C21.47 11.595 21.45 11.4683 21.49 11.335C21.53 11.1883 21.5233 11.115 21.47 11.115L21.49 11.255C21.3433 11.215 21.2366 11.1817 21.17 11.155C21.1033 11.1283 20.9766 11.075 20.79 10.995C20.79 11.0483 20.7433 11.0617 20.65 11.035C20.57 10.995 20.4766 11.015 20.37 11.095C20.2233 11.0817 20.1033 11.0617 20.01 11.035C19.9166 11.0083 19.7633 11.0083 19.55 11.035C19.4033 11.1017 19.29 11.1483 19.21 11.175C19.13 11.2017 19.11 11.2417 19.15 11.295C19.0033 11.3217 18.85 11.335 18.69 11.335C18.53 11.3217 18.43 11.3217 18.39 11.335C18.1633 11.2417 18.01 11.215 17.93 11.255C17.85 11.295 17.7633 11.3683 17.67 11.475L17.65 11.195C17.49 11.2217 17.3433 11.2217 17.21 11.195C17.09 11.1683 17.0166 11.155 16.99 11.155C16.87 10.995 16.81 10.855 16.81 10.735C16.8233 10.6017 16.8233 10.5617 16.81 10.615C16.73 10.4817 16.6833 10.3817 16.67 10.315C16.6566 10.235 16.6566 10.175 16.67 10.135C16.6833 10.095 16.69 10.0683 16.69 10.055C16.69 10.0283 16.67 10.0017 16.63 9.975C16.8566 9.70833 17.0033 9.555 17.07 9.515C17.1366 9.46167 17.1833 9.46833 17.21 9.535C17.2766 9.52167 17.3633 9.50833 17.47 9.495C17.59 9.48167 17.7033 9.46833 17.81 9.455C17.9166 9.44167 18.0033 9.42834 18.07 9.415C18.15 9.38833 18.19 9.36167 18.19 9.335C18.3233 9.36167 18.43 9.36833 18.51 9.355C18.59 9.34167 18.6566 9.32167 18.71 9.295C18.7766 9.255 18.83 9.22833 18.87 9.215C18.9233 9.20167 18.9766 9.20834 19.03 9.235C19.0833 9.28834 19.15 9.315 19.23 9.315C19.31 9.30167 19.3966 9.28833 19.49 9.275C19.5833 9.26167 19.6766 9.255 19.77 9.255C19.8633 9.255 19.9633 9.275 20.07 9.315L20.73 9.095C20.8366 9.12167 20.9366 9.16834 21.03 9.235C21.1366 9.30167 21.2833 9.28167 21.47 9.175C21.4966 9.22834 21.5366 9.26167 21.59 9.275C21.6566 9.275 21.73 9.26833 21.81 9.255C21.89 9.24167 21.9766 9.235 22.07 9.235C22.1633 9.22167 22.25 9.22833 22.33 9.255C22.3566 9.32167 22.4166 9.355 22.51 9.355C22.6166 9.355 22.7433 9.40167 22.89 9.495C23.0633 9.44167 23.1833 9.44167 23.25 9.495C23.33 9.54833 23.3833 9.58833 23.41 9.615C23.4766 9.66834 23.5366 9.72834 23.59 9.795C23.6433 9.84834 23.6833 9.915 23.71 9.995C23.79 10.115 23.8633 10.2083 23.93 10.275C23.9966 10.3283 24.05 10.375 24.09 10.415C24.13 10.455 24.15 10.495 24.15 10.535C24.1633 10.5617 24.1566 10.6083 24.13 10.675C24.21 10.8617 24.21 11.0083 24.13 11.115C24.05 11.2083 23.9433 11.3283 23.81 11.475C23.8233 11.5817 23.7966 11.675 23.73 11.755C23.6766 11.835 23.6366 11.9083 23.61 11.975C23.5433 12.0817 23.4833 12.2017 23.43 12.335C23.3766 12.4683 23.2766 12.5617 23.13 12.615C23.0233 12.6817 22.9566 12.775 22.93 12.895C22.9033 13.015 22.83 13.1217 22.71 13.215C22.55 13.375 22.4633 13.5217 22.45 13.655C22.45 13.775 22.4366 13.8817 22.41 13.975C22.4233 14.0817 22.4766 14.1683 22.57 14.235C22.6766 14.2883 22.77 14.4217 22.85 14.635C22.9966 14.675 23.0833 14.7283 23.11 14.795C23.1366 14.8617 23.2033 14.915 23.31 14.955C23.3233 15.0483 23.35 15.1217 23.39 15.175C23.4433 15.2283 23.49 15.275 23.53 15.315C23.57 15.355 23.6033 15.4017 23.63 15.455C23.67 15.5083 23.6966 15.5817 23.71 15.675C23.7233 15.6617 23.7566 15.675 23.81 15.715C23.8766 15.7417 23.9366 15.7817 23.99 15.835C24.0433 15.875 24.0833 15.9217 24.11 15.975C24.15 16.0283 24.1566 16.0617 24.13 16.075C24.1833 16.1417 24.2966 16.195 24.47 16.235C24.6433 16.2617 24.7833 16.3217 24.89 16.415C24.8633 16.4417 24.85 16.4883 24.85 16.555C24.8633 16.6217 24.8833 16.695 24.91 16.775C24.95 16.8417 24.99 16.9083 25.03 16.975C25.0833 17.0417 25.13 17.0817 25.17 17.095C25.1433 17.2017 25.0833 17.3417 24.99 17.515C24.8966 17.675 24.77 17.8217 24.61 17.955C24.61 17.9683 24.59 18.0017 24.55 18.055C24.51 18.1083 24.4566 18.155 24.39 18.195C24.3233 18.235 24.25 18.255 24.17 18.255C24.09 18.255 24.01 18.215 23.93 18.135C23.9033 18.135 23.87 18.1483 23.83 18.175C23.8033 18.1883 23.77 18.2017 23.73 18.215C23.69 18.215 23.65 18.195 23.61 18.155C23.57 18.115 23.53 18.035 23.49 17.915C23.4633 17.875 23.3966 17.8817 23.29 17.935C23.1833 17.9883 23.11 17.9883 23.07 17.935C22.9766 17.815 22.8966 17.7017 22.83 17.595C22.7633 17.475 22.7366 17.435 22.75 17.475C22.5633 17.4083 22.43 17.3083 22.35 17.175C22.2833 17.0417 22.1966 16.9883 22.09 17.015C22.0766 16.9217 22.03 16.815 21.95 16.695C21.87 16.5617 21.7966 16.3683 21.73 16.115C21.6633 16.0483 21.57 16.0017 21.45 15.975C21.3433 15.935 21.2633 15.8217 21.21 15.635C21.05 15.5283 20.9566 15.4483 20.93 15.395C20.9166 15.3283 20.85 15.3417 20.73 15.435C20.7433 15.4083 20.7366 15.415 20.71 15.455C20.6833 15.4817 20.65 15.5283 20.61 15.595C20.57 15.6617 20.53 15.7417 20.49 15.835C20.4633 15.9283 20.4433 16.015 20.43 16.095C20.2033 16.175 20.0366 16.275 19.93 16.395C19.8366 16.5017 19.6833 16.6083 19.47 16.715C19.4166 16.7417 19.33 16.8417 19.21 17.015C19.1033 17.175 18.9566 17.315 18.77 17.435C18.73 17.4883 18.6966 17.5283 18.67 17.555C18.6566 17.5817 18.6433 17.6083 18.63 17.635C18.63 17.6483 18.6166 17.6683 18.59 17.695C18.5633 17.7217 18.5233 17.755 18.47 17.795C18.39 17.875 18.33 17.935 18.29 17.975C18.2633 18.015 18.2366 18.0483 18.21 18.075C18.1833 18.1017 18.1433 18.1283 18.09 18.155C18.05 18.1817 17.9833 18.215 17.89 18.255C17.7966 18.1883 17.71 18.195 17.63 18.275C17.5633 18.3417 17.45 18.4083 17.29 18.475C17.1833 18.5017 17.09 18.495 17.01 18.455C16.9433 18.4017 16.8833 18.3417 16.83 18.275C16.79 18.2083 16.75 18.135 16.71 18.055C16.67 17.975 16.6433 17.9083 16.63 17.855C16.59 17.8683 16.5566 17.8483 16.53 17.795C16.5166 17.7417 16.4966 17.6817 16.47 17.615C16.4566 17.5483 16.4366 17.4817 16.41 17.415C16.3833 17.3483 16.35 17.3083 16.31 17.295L16.21 17.435Z" fill="white"/>
<path d="M11.6443 23.715C11.6176 23.7417 11.6109 23.7217 11.6243 23.655C11.6509 23.5883 11.6509 23.5417 11.6243 23.515C11.6109 23.4617 11.6176 23.415 11.6443 23.375C11.6709 23.335 11.6909 23.295 11.7043 23.255C11.7309 23.215 11.7376 23.1617 11.7243 23.095C11.7243 23.0283 11.6909 22.935 11.6243 22.815C11.6909 22.7084 11.7376 22.615 11.7643 22.535C11.8043 22.4417 11.8043 22.3817 11.7643 22.355C11.8309 22.195 11.8509 22.015 11.8243 21.815C11.8109 21.6017 11.8309 21.475 11.8843 21.435C11.8443 21.2883 11.8176 21.1617 11.8043 21.055C11.8043 20.935 11.7909 20.8217 11.7643 20.715C11.7243 20.6883 11.6909 20.6083 11.6643 20.475C11.6509 20.3284 11.7243 20.2017 11.8843 20.095C11.8843 20.0417 11.8709 20.0017 11.8443 19.975C11.8309 19.935 11.8109 19.8883 11.7843 19.835C11.7709 19.7817 11.7643 19.7217 11.7643 19.655C11.7776 19.575 11.8043 19.4683 11.8443 19.335C11.7509 19.3217 11.6976 19.2617 11.6843 19.155C11.6843 19.0483 11.7176 18.9483 11.7843 18.855C11.8109 18.7883 11.7843 18.675 11.7043 18.515C11.6243 18.355 11.5776 18.2217 11.5643 18.115C11.6043 17.9817 11.6176 17.8083 11.6043 17.595C11.6576 17.475 11.6776 17.3483 11.6643 17.215C11.6643 17.0683 11.6776 16.9617 11.7043 16.895C11.7043 16.8817 11.7043 16.8483 11.7043 16.795C11.7176 16.7283 11.7309 16.6617 11.7443 16.595C11.7576 16.5283 11.7709 16.475 11.7843 16.435C11.8109 16.3817 11.8243 16.3617 11.8243 16.375C11.7443 16.2417 11.7243 16.1417 11.7643 16.075C11.8176 16.0083 11.8509 15.8817 11.8643 15.695C11.8909 15.5883 11.8909 15.475 11.8643 15.355C11.8509 15.2217 11.8643 15.1017 11.9043 14.995C11.7309 14.635 11.6243 14.4417 11.5843 14.415C11.6109 14.3083 11.6243 14.2283 11.6243 14.175C11.6376 14.1083 11.6043 13.995 11.5243 13.835C11.5243 13.7283 11.5243 13.6283 11.5243 13.535C11.5243 13.4283 11.5176 13.2817 11.5043 13.095C11.5176 13.0817 11.5243 13.0483 11.5243 12.995C11.5376 12.9283 11.5443 12.855 11.5443 12.775C11.5443 12.695 11.5443 12.615 11.5443 12.535C11.5443 12.455 11.5576 12.395 11.5843 12.355C11.5843 12.2617 11.5976 12.1483 11.6243 12.015C11.6509 11.8817 11.6509 11.7483 11.6243 11.615C11.6109 11.6283 11.5976 11.615 11.5843 11.575C11.5843 11.5217 11.5843 11.4617 11.5843 11.395C11.5843 11.3283 11.5909 11.2617 11.6043 11.195C11.6309 11.1283 11.6709 11.0817 11.7243 11.055C11.6976 11.0417 11.6709 11.0083 11.6443 10.955C11.6309 10.9017 11.6109 10.8483 11.5843 10.795C11.5576 10.7283 11.5309 10.675 11.5043 10.635C11.4776 10.595 11.4443 10.5817 11.4043 10.595L11.4443 10.015C11.3776 9.96168 11.3709 9.88835 11.4243 9.79502C11.4909 9.68835 11.6376 9.56835 11.8643 9.43502C11.8109 9.28835 11.8643 9.18168 12.0243 9.11501C12.1976 9.03502 12.3709 9.02835 12.5443 9.09501C12.7309 9.12168 12.8709 9.17502 12.9643 9.25502C13.0709 9.32168 13.1843 9.34168 13.3043 9.31502C13.3043 9.44835 13.2976 9.56168 13.2843 9.65501C13.2843 9.73502 13.2909 9.80835 13.3043 9.87502C13.3176 9.92835 13.3443 9.97501 13.3843 10.015C13.4243 10.0417 13.4909 10.0617 13.5843 10.075C13.6109 10.1017 13.6176 10.155 13.6043 10.235C13.6043 10.315 13.5509 10.4283 13.4443 10.575C13.4309 10.6817 13.4376 10.775 13.4643 10.855C13.4909 10.935 13.5176 11.0083 13.5443 11.075C13.5709 11.1417 13.5909 11.215 13.6043 11.295C13.6309 11.3617 13.6376 11.435 13.6243 11.515C13.7043 11.5417 13.7043 11.6217 13.6243 11.755C13.5576 11.8883 13.5043 11.995 13.4643 12.075C13.5176 12.1817 13.5509 12.275 13.5643 12.355C13.5909 12.4217 13.5976 12.4883 13.5843 12.555C13.5843 12.6083 13.5776 12.675 13.5643 12.755C13.5643 12.8217 13.5643 12.9017 13.5643 12.995C13.6309 13.0083 13.6643 13.0617 13.6643 13.155C13.6776 13.2483 13.6709 13.3283 13.6443 13.395C13.7643 13.5817 13.8043 13.735 13.7643 13.855C13.7376 13.975 13.7376 14.0417 13.7643 14.055C13.7643 14.2017 13.7376 14.3017 13.6843 14.355C13.6309 14.4083 13.6243 14.5083 13.6643 14.655C13.6909 14.855 13.7243 15.0017 13.7643 15.095C13.8176 15.1883 13.8576 15.335 13.8843 15.535C13.7909 15.575 13.7643 15.6417 13.8043 15.735C13.8443 15.8283 13.8776 15.9417 13.9043 16.075C13.8643 16.1283 13.8376 16.175 13.8243 16.215C13.8243 16.255 13.8243 16.295 13.8243 16.335C13.8243 16.375 13.8176 16.4217 13.8043 16.475C13.8043 16.515 13.7776 16.5683 13.7243 16.635C13.7776 16.835 13.7709 16.9683 13.7043 17.035C13.6509 17.1017 13.6443 17.2017 13.6843 17.335C13.8176 17.4817 13.8443 17.6217 13.7643 17.755C13.6976 17.8883 13.6376 18.0283 13.5843 18.175C13.6509 18.1883 13.7043 18.2217 13.7443 18.275C13.7843 18.3283 13.8109 18.3817 13.8243 18.435C13.8509 18.4883 13.8576 18.5417 13.8443 18.595C13.8309 18.635 13.8109 18.6483 13.7843 18.635C13.8376 18.7817 13.8176 18.9483 13.7243 19.135C13.6443 19.3083 13.5843 19.4217 13.5443 19.475C13.6243 19.5817 13.6576 19.7217 13.6443 19.895C13.6309 20.055 13.6043 20.1483 13.5643 20.175C13.6309 20.335 13.6576 20.4817 13.6443 20.615C13.6443 20.7483 13.6109 20.8283 13.5443 20.855C13.6109 21.015 13.6376 21.1817 13.6243 21.355C13.6109 21.5283 13.5909 21.6483 13.5643 21.715C13.5509 21.8217 13.5376 21.9883 13.5243 22.215C13.5243 22.4417 13.5309 22.6684 13.5443 22.895C13.5976 23.175 13.6109 23.3883 13.5843 23.535C13.5709 23.695 13.5109 23.8817 13.4043 24.095C13.3643 24.1083 13.3443 24.1217 13.3443 24.135C13.3443 24.1617 13.3376 24.195 13.3243 24.235C13.3109 24.275 13.2843 24.3284 13.2443 24.395C13.2176 24.4617 13.1509 24.5417 13.0443 24.635C13.0043 24.675 12.9709 24.7017 12.9443 24.715C12.9309 24.7283 12.9043 24.735 12.8643 24.735C12.8376 24.7484 12.7909 24.755 12.7243 24.755C12.6709 24.7683 12.5843 24.795 12.4643 24.835C12.4643 24.8483 12.4376 24.855 12.3843 24.855C12.3309 24.855 12.2776 24.8417 12.2243 24.815C12.1709 24.8017 12.1176 24.775 12.0643 24.735C12.0243 24.7084 12.0176 24.6683 12.0443 24.615C11.9243 24.4417 11.8509 24.2883 11.8243 24.155C11.7976 24.0217 11.7376 23.9283 11.6443 23.875V23.715ZM4.06428 20.715C3.94428 20.8217 3.90428 20.915 3.94428 20.995C3.98428 21.075 4.05761 21.155 4.16428 21.235C4.27094 21.3417 4.34428 21.4217 4.38428 21.475C4.42428 21.5283 4.49761 21.5617 4.60428 21.575C4.65761 21.615 4.74428 21.615 4.86428 21.575C4.98428 21.5217 5.09761 21.5217 5.20428 21.575C5.28428 21.615 5.35094 21.6283 5.40428 21.615C5.47094 21.6017 5.53761 21.5883 5.60428 21.575C5.68428 21.5617 5.75761 21.555 5.82428 21.555C5.90428 21.5417 5.99094 21.5617 6.08428 21.615C6.13761 21.3883 6.21094 21.2617 6.30428 21.235C6.41094 21.195 6.49761 21.1883 6.56428 21.215C6.65761 21.0683 6.73094 20.9417 6.78428 20.835C6.83761 20.7283 6.85094 20.6283 6.82428 20.535C6.90428 20.495 6.96428 20.455 7.00428 20.415C7.04428 20.3617 7.07094 20.3017 7.08428 20.235C7.11094 20.1684 7.13761 20.0883 7.16428 19.995C7.19094 19.8883 7.23761 19.775 7.30428 19.655C7.33094 19.655 7.33761 19.6283 7.32428 19.575C7.31094 19.5217 7.29094 19.4683 7.26428 19.415C7.25094 19.3483 7.23761 19.295 7.22428 19.255C7.21094 19.2017 7.21761 19.1817 7.24428 19.195C7.23094 19.0883 7.23761 18.9883 7.26428 18.895C7.30428 18.7884 7.33761 18.695 7.36428 18.615C7.40428 18.535 7.43761 18.4683 7.46428 18.415C7.49094 18.3617 7.49761 18.315 7.48428 18.275C7.45761 18.1017 7.42428 17.9617 7.38428 17.855C7.34428 17.7483 7.41761 17.6417 7.60428 17.535C7.53761 17.3217 7.47094 17.1483 7.40428 17.015C7.33761 16.8817 7.31761 16.7217 7.34428 16.535C7.34428 16.5083 7.35761 16.4617 7.38428 16.395C7.41094 16.315 7.43761 16.2483 7.46428 16.195C7.46428 16.155 7.46428 16.1017 7.46428 16.035C7.47761 15.955 7.48428 15.8817 7.48428 15.815C7.48428 15.735 7.48428 15.6683 7.48428 15.615C7.48428 15.5617 7.47094 15.5417 7.44428 15.555C7.47094 15.3683 7.45761 15.215 7.40428 15.095C7.36428 14.975 7.31094 14.8883 7.24428 14.835C7.19094 14.5017 7.25094 14.255 7.42428 14.095C7.31761 14.0283 7.25094 13.9683 7.22428 13.915C7.21094 13.8483 7.20428 13.7883 7.20428 13.735C7.20428 13.6683 7.19761 13.6083 7.18428 13.555C7.17094 13.5017 7.13094 13.4483 7.06428 13.395C7.02428 13.2883 6.99094 13.2083 6.96428 13.155C6.95094 13.1017 6.93761 13.055 6.92428 13.015C6.91094 12.975 6.89094 12.935 6.86428 12.895C6.85094 12.855 6.82428 12.795 6.78428 12.715C6.70428 12.5283 6.64428 12.415 6.60428 12.375C6.57761 12.3217 6.51094 12.2483 6.40428 12.155C6.40428 12.1417 6.38428 12.115 6.34428 12.075C6.31761 12.035 6.27761 11.995 6.22428 11.955C6.18428 11.915 6.14428 11.8883 6.10428 11.875C6.06428 11.8617 6.04428 11.8817 6.04428 11.935C5.85761 11.8017 5.70428 11.715 5.58428 11.675C5.46428 11.635 5.35094 11.6883 5.24428 11.835C5.12428 11.6883 5.01094 11.6283 4.90428 11.655C4.81094 11.6817 4.77761 11.7483 4.80428 11.855C4.71094 11.9083 4.61094 11.9617 4.50428 12.015C4.41094 12.055 4.29761 12.1217 4.16428 12.215C4.16428 12.2283 4.14428 12.2683 4.10428 12.335C4.07761 12.3883 4.04428 12.455 4.00428 12.535C3.96428 12.615 3.92428 12.7017 3.88428 12.795C3.85761 12.8883 3.85094 12.9683 3.86428 13.035C3.82428 13.075 3.80428 13.115 3.80428 13.155C3.80428 13.1817 3.80428 13.2083 3.80428 13.235C3.80428 13.2483 3.79094 13.2683 3.76428 13.295C3.75094 13.3217 3.70428 13.3417 3.62428 13.355C3.65094 13.4217 3.69094 13.5283 3.74428 13.675C3.79761 13.8083 3.79761 13.9617 3.74428 14.135C3.77094 14.1617 3.77094 14.2417 3.74428 14.375C3.73094 14.5083 3.75761 14.6683 3.82428 14.855C3.66428 14.9617 3.56428 15.055 3.52428 15.135C3.49761 15.215 3.49761 15.3083 3.52428 15.415C3.47094 15.5217 3.45761 15.6283 3.48428 15.735C3.51094 15.8283 3.57761 15.9083 3.68428 15.975C3.68428 16.1217 3.66428 16.2283 3.62428 16.295C3.59761 16.3617 3.61094 16.4683 3.66428 16.615C3.63761 16.7617 3.58428 16.895 3.50428 17.015C3.43761 17.1217 3.41094 17.1683 3.42428 17.155C3.51761 17.2617 3.58428 17.3817 3.62428 17.515C3.67761 17.6483 3.63094 17.8417 3.48428 18.095C3.45761 18.1217 3.44428 18.175 3.44428 18.255C3.45761 18.3217 3.45761 18.455 3.44428 18.655C3.48428 18.7617 3.53761 18.875 3.60428 18.995C3.67094 19.115 3.65761 19.1883 3.56428 19.215C3.64428 19.2817 3.69761 19.355 3.72428 19.435C3.76428 19.5017 3.78428 19.5683 3.78428 19.635C3.79761 19.6883 3.81094 19.735 3.82428 19.775C3.83761 19.815 3.86428 19.8283 3.90428 19.815C3.93094 19.935 3.95094 20.0817 3.96428 20.255C3.97761 20.415 3.95761 20.5083 3.90428 20.535L4.06428 20.715ZM2.14428 21.755C2.13094 21.675 2.13094 21.615 2.14428 21.575C2.15761 21.5217 2.16428 21.475 2.16428 21.435C2.17761 21.395 2.17761 21.355 2.16428 21.315C2.15094 21.2617 2.11094 21.195 2.04428 21.115C2.09761 21.0217 2.08428 20.9417 2.00428 20.875C1.93761 20.795 1.89094 20.6617 1.86428 20.475C1.82428 20.4083 1.79761 20.315 1.78428 20.195C1.77094 20.075 1.75761 19.9417 1.74428 19.795C1.82428 19.675 1.83094 19.5683 1.76428 19.475C1.69761 19.3817 1.67761 19.3017 1.70428 19.235C1.67761 19.1283 1.64428 18.995 1.60428 18.835C1.57761 18.675 1.59761 18.5617 1.66428 18.495C1.69094 18.4817 1.69761 18.4483 1.68428 18.395C1.67094 18.3417 1.64428 18.2817 1.60428 18.215C1.57761 18.135 1.53761 18.0683 1.48428 18.015C1.44428 17.9617 1.41094 17.9283 1.38428 17.915C1.38428 17.8883 1.39094 17.8417 1.40428 17.775C1.43094 17.7083 1.45094 17.6483 1.46428 17.595C1.49094 17.5283 1.50428 17.475 1.50428 17.435C1.51761 17.395 1.51761 17.3817 1.50428 17.395C1.54428 17.275 1.55761 17.1683 1.54428 17.075C1.54428 16.9817 1.54428 16.915 1.54428 16.875C1.54428 16.8217 1.55761 16.7883 1.58428 16.775C1.61094 16.7617 1.66428 16.7617 1.74428 16.775C1.71761 16.535 1.69094 16.3417 1.66428 16.195C1.65094 16.035 1.59094 15.915 1.48428 15.835C1.51094 15.8217 1.53094 15.7617 1.54428 15.655C1.55761 15.535 1.62428 15.3817 1.74428 15.195C1.70428 15.1017 1.68428 15.0217 1.68428 14.955C1.68428 14.875 1.68428 14.8017 1.68428 14.735C1.69761 14.6683 1.70428 14.595 1.70428 14.515C1.70428 14.435 1.69761 14.3283 1.68428 14.195C1.72428 14.1683 1.74428 14.135 1.74428 14.095C1.74428 14.0417 1.74428 13.9883 1.74428 13.935C1.74428 13.8683 1.74428 13.8017 1.74428 13.735C1.75761 13.655 1.79094 13.5683 1.84428 13.475C1.87094 13.3417 1.89094 13.2617 1.90428 13.235C1.93094 13.2083 1.96428 13.135 2.00428 13.015C1.95094 12.9617 1.92428 12.9017 1.92428 12.835C1.92428 12.755 1.93094 12.6817 1.94428 12.615C1.97094 12.535 2.00428 12.475 2.04428 12.435C2.09761 12.3817 2.14428 12.355 2.18428 12.355C2.13094 12.3283 2.10428 12.295 2.10428 12.255C2.11761 12.215 2.13761 12.175 2.16428 12.135C2.19094 12.095 2.21094 12.055 2.22428 12.015C2.25094 11.9617 2.25761 11.915 2.24428 11.875C2.35094 11.7283 2.41094 11.595 2.42428 11.475C2.45094 11.3417 2.49094 11.2883 2.54428 11.315C2.53094 11.2883 2.52428 11.2417 2.52428 11.175C2.53761 11.1083 2.55094 11.0417 2.56428 10.975C2.59094 10.9083 2.61761 10.8483 2.64428 10.795C2.67094 10.7283 2.69761 10.6883 2.72428 10.675C3.17761 10.6883 3.33761 10.6217 3.20428 10.475C3.32428 10.4483 3.41094 10.4083 3.46428 10.355C3.51761 10.3017 3.56428 10.255 3.60428 10.215C3.64428 10.1617 3.69094 10.1217 3.74428 10.095C3.79761 10.0683 3.87761 10.0617 3.98428 10.075C4.06428 10.1283 4.15094 10.1283 4.24428 10.075C4.35094 10.0083 4.43761 9.90168 4.50428 9.75501C4.59761 9.83502 4.67094 9.89502 4.72428 9.93501C4.77761 9.96168 4.82428 9.98168 4.86428 9.99502C4.91761 10.0083 4.97094 10.015 5.02428 10.015C5.09094 10.0017 5.17761 9.99502 5.28428 9.99502C5.39094 9.98168 5.49761 9.94835 5.60428 9.89502C5.72428 9.84168 5.84428 9.80835 5.96428 9.79502C6.08428 9.80835 6.17761 9.83502 6.24428 9.87502C6.32428 9.91502 6.39094 9.95501 6.44428 9.99502C6.49761 10.0217 6.54428 10.035 6.58428 10.035C6.62428 10.035 6.67094 9.99501 6.72428 9.91502C6.91094 10.0217 7.04428 10.1217 7.12428 10.215C7.20428 10.295 7.29094 10.3217 7.38428 10.295C7.57094 10.3617 7.68428 10.4417 7.72428 10.535C7.77761 10.6283 7.79761 10.7083 7.78428 10.775C7.95761 10.7617 8.05761 10.7883 8.08428 10.855C8.12428 10.9217 8.15094 11.0483 8.16428 11.235C8.25761 11.2217 8.33094 11.235 8.38428 11.275C8.45094 11.315 8.49761 11.3683 8.52428 11.435C8.55094 11.4883 8.56428 11.5417 8.56428 11.595C8.56428 11.6483 8.55761 11.675 8.54428 11.675C8.62428 11.715 8.69094 11.795 8.74428 11.915C8.79761 12.035 8.79094 12.2283 8.72428 12.495C8.79094 12.4683 8.84428 12.475 8.88428 12.515C8.93761 12.555 8.97094 12.6017 8.98428 12.655C9.01094 12.7083 9.02428 12.7617 9.02428 12.815C9.02428 12.855 9.00428 12.8683 8.96428 12.855C9.11094 13.1083 9.18428 13.295 9.18428 13.415C9.18428 13.5217 9.17094 13.635 9.14428 13.755C9.26428 13.8483 9.34428 13.955 9.38428 14.075C9.42428 14.1817 9.43094 14.235 9.40428 14.235C9.43094 14.2883 9.44428 14.3617 9.44428 14.455C9.45761 14.535 9.45761 14.6217 9.44428 14.715C9.44428 14.795 9.43094 14.8683 9.40428 14.935C9.37761 15.0017 9.34428 15.035 9.30428 15.035C9.31761 15.1417 9.33761 15.295 9.36428 15.495C9.40428 15.6817 9.34428 15.8483 9.18428 15.995C9.31761 16.155 9.40428 16.2883 9.44428 16.395C9.49761 16.4883 9.46428 16.595 9.34428 16.715C9.29094 16.7017 9.25761 16.7417 9.24428 16.835C9.24428 16.915 9.22428 17.0683 9.18428 17.295C9.29094 17.3483 9.35761 17.415 9.38428 17.495C9.42428 17.5617 9.36428 17.6283 9.20428 17.695C9.28428 17.7617 9.33761 17.875 9.36428 18.035C9.40428 18.1817 9.41094 18.275 9.38428 18.315C9.41094 18.4483 9.40428 18.6083 9.36428 18.795C9.32428 18.9683 9.31094 19.1083 9.32428 19.215C9.27094 19.2283 9.21761 19.3017 9.16428 19.435C9.12428 19.555 9.13094 19.6617 9.18428 19.755C9.03761 19.8883 8.96428 20.0083 8.96428 20.115C8.96428 20.2217 8.94428 20.3217 8.90428 20.415C8.87761 20.5083 8.85761 20.595 8.84428 20.675C8.84428 20.7417 8.83761 20.8083 8.82428 20.875C8.81094 20.9417 8.77761 21.0017 8.72428 21.055C8.68428 21.1083 8.61761 21.1617 8.52428 21.215C8.60428 21.3217 8.63761 21.4283 8.62428 21.535C8.62428 21.6417 8.53094 21.7283 8.34428 21.795C8.31761 21.7817 8.31094 21.8217 8.32428 21.915C8.33761 22.0083 8.27761 22.0817 8.14428 22.135C7.99761 22.2417 7.90428 22.3483 7.86428 22.455C7.82428 22.5483 7.77761 22.5883 7.72428 22.575C7.65761 22.6417 7.55761 22.7283 7.42428 22.835C7.29094 22.9417 7.24428 23.0083 7.28428 23.035C7.20428 23.1017 7.13094 23.1483 7.06428 23.175C6.99761 23.1883 6.93761 23.2017 6.88428 23.215C6.84428 23.2417 6.81094 23.2683 6.78428 23.295C6.77094 23.335 6.77094 23.3883 6.78428 23.455C6.71761 23.4683 6.64428 23.4683 6.56428 23.455C6.49761 23.4417 6.43094 23.4283 6.36428 23.415C6.31094 23.415 6.26428 23.4217 6.22428 23.435C6.18428 23.4483 6.16428 23.4817 6.16428 23.535C6.03094 23.495 5.91761 23.4683 5.82428 23.455C5.73094 23.455 5.65094 23.455 5.58428 23.455C5.51761 23.4683 5.45094 23.4683 5.38428 23.455C5.31761 23.455 5.25094 23.4217 5.18428 23.355C5.15761 23.3283 5.06428 23.3217 4.90428 23.335C4.75761 23.3617 4.64428 23.3883 4.56428 23.415C4.48428 23.3617 4.36428 23.315 4.20428 23.275C4.05761 23.235 3.95761 23.175 3.90428 23.095C3.85094 23.1217 3.78428 23.1217 3.70428 23.095C3.62428 23.0683 3.54428 23.0417 3.46428 23.015C3.39761 22.975 3.33761 22.9483 3.28428 22.935C3.23094 22.9083 3.20428 22.9017 3.20428 22.915C3.15094 22.915 3.10428 22.8883 3.06428 22.835C3.02428 22.7817 2.98428 22.7283 2.94428 22.675C2.91761 22.6083 2.88428 22.555 2.84428 22.515C2.80428 22.475 2.75761 22.4617 2.70428 22.475C2.55761 22.2617 2.44428 22.1083 2.36428 22.015C2.29761 21.9083 2.27094 21.8083 2.28428 21.715L2.14428 21.755Z" fill="white"/>
</svg>
