<svg width="150" height="40" viewBox="0 0 150 40" fill="none" xmlns="http://www.w3.org/2000/svg">
<path d="M124.26 30.82L125.9 30.54L127.54 30.7L129.26 30.9C129.234 30.6867 129.154 30.4333 129.02 30.14C128.887 29.82 128.94 29.4733 129.18 29.1C129.1 28.8067 129.06 28.5667 129.06 28.38C129.06 28.1667 128.98 27.8733 128.82 27.5C128.847 27.3933 128.847 27.1667 128.82 26.82C128.794 26.4733 128.927 26.14 129.22 25.82C129.034 25.7933 128.98 25.6467 129.06 25.38C129.14 25.1133 129.18 24.8867 129.18 24.7L127.42 24.58L125.86 24.78H123.86L124.02 24.58L124.14 26.34C124.167 26.34 124.154 26.4067 124.1 26.54C124.074 26.6467 124.034 26.78 123.98 26.94C123.954 27.1 123.927 27.2733 123.9 27.46C123.9 27.6467 123.927 27.7933 123.98 27.9C124.007 28.0867 124.047 28.2733 124.1 28.46C124.154 28.62 124.194 28.78 124.22 28.94C124.247 29.1 124.287 29.2467 124.34 29.38C124.18 29.4867 124.074 29.5933 124.02 29.7C123.994 29.8067 123.98 29.9267 123.98 30.06C124.007 30.1667 124.02 30.2867 124.02 30.42C124.047 30.5533 124.047 30.6867 124.02 30.82H124.26ZM113.54 32.46C113.434 32.4333 113.367 32.3667 113.34 32.26C113.314 32.1533 113.314 32.0467 113.34 31.94C113.367 31.8333 113.42 31.7533 113.5 31.7C113.607 31.62 113.74 31.6067 113.9 31.66C113.847 31.58 113.847 31.4867 113.9 31.38C113.98 31.2733 114.06 31.18 114.14 31.1C114.247 31.02 114.354 30.9533 114.46 30.9C114.594 30.8467 114.7 30.8467 114.78 30.9C114.86 30.9267 114.967 30.9267 115.1 30.9C115.26 30.8467 115.407 30.7933 115.54 30.74C115.7 30.66 115.847 30.5933 115.98 30.54C116.14 30.46 116.26 30.42 116.34 30.42C116.58 30.4733 116.74 30.5933 116.82 30.78C116.9 30.94 117.047 31.0067 117.26 30.98C117.634 30.8467 117.98 30.8067 118.3 30.86C118.62 30.9133 118.847 30.82 118.98 30.58C119.034 30.66 119.207 30.7533 119.5 30.86C119.794 30.94 120.047 31.06 120.26 31.22L120.22 29.54L119.78 28.06L119.98 27.22L119.86 26.02L120.34 24.46C120.02 24.4067 119.66 24.3533 119.26 24.3C118.887 24.22 118.514 24.22 118.14 24.3C118.007 24.3533 117.847 24.38 117.66 24.38C117.474 24.3533 117.287 24.34 117.1 24.34C116.914 24.3133 116.754 24.3 116.62 24.3C116.487 24.3 116.407 24.34 116.38 24.42C116.247 24.2067 116.114 24.0467 115.98 23.94C115.847 23.8333 115.727 23.74 115.62 23.66C115.54 23.5533 115.487 23.4467 115.46 23.34C115.434 23.2067 115.46 23.02 115.54 22.78C115.247 22.7533 115.127 22.6067 115.18 22.34C115.234 22.0467 115.207 21.78 115.1 21.54L114.62 19.78L114.74 18.22L114.78 16.7C114.754 16.5133 114.727 16.38 114.7 16.3C114.7 16.22 114.687 16.14 114.66 16.06C114.634 15.98 114.594 15.8867 114.54 15.78C114.514 15.6733 114.447 15.5 114.34 15.26C114.394 15.1 114.5 14.9133 114.66 14.7C114.847 14.4867 114.967 14.2067 115.02 13.86C115.1 13.78 115.154 13.7267 115.18 13.7C115.207 13.6733 115.234 13.6467 115.26 13.62C115.314 13.5667 115.367 13.5133 115.42 13.46C115.5 13.38 115.62 13.2467 115.78 13.06C115.754 13.1133 115.86 13.1133 116.1 13.06C116.34 13.0067 116.767 12.82 117.38 12.5C117.594 12.5533 117.78 12.5933 117.94 12.62C118.127 12.62 118.42 12.6467 118.82 12.7C118.9 12.78 118.967 12.8333 119.02 12.86C119.074 12.8867 119.14 12.9133 119.22 12.94C119.3 12.9667 119.394 12.9933 119.5 13.02C119.634 13.02 119.807 13.06 120.02 13.14C120.154 12.98 120.26 12.9 120.34 12.9C120.42 12.8733 120.487 12.8867 120.54 12.94C120.62 12.9667 120.7 13.02 120.78 13.1C120.86 13.1533 120.967 13.18 121.1 13.18C121.314 13.0733 121.527 12.9667 121.74 12.86C121.954 12.7267 122.18 12.66 122.42 12.66C122.634 12.6067 122.874 12.5933 123.14 12.62C123.434 12.6467 123.674 12.7267 123.86 12.86C124.127 12.8333 124.407 12.8067 124.7 12.78C125.02 12.7533 125.26 12.7133 125.42 12.66C125.66 12.6333 125.914 12.6733 126.18 12.78C126.447 12.8867 126.714 12.9133 126.98 12.86C126.927 12.8333 126.94 12.8467 127.02 12.9C127.1 12.9267 127.194 12.9667 127.3 13.02C127.434 13.0467 127.554 13.0733 127.66 13.1C127.767 13.1 127.82 13.0467 127.82 12.94C128.007 12.8867 128.274 12.94 128.62 13.1C128.994 13.2333 129.207 13.3 129.26 13.3C129.5 13.22 129.74 13.1933 129.98 13.22C130.22 13.2467 130.474 13.2067 130.74 13.1C131.06 13.1267 131.34 13.1267 131.58 13.1C131.847 13.0733 132.034 12.9933 132.14 12.86C132.434 12.7267 132.674 12.6867 132.86 12.74C133.074 12.7667 133.247 12.74 133.38 12.66L134.14 12.74C134.087 12.82 134.06 12.8467 134.06 12.82C134.087 12.7933 134.1 12.7533 134.1 12.7C134.1 12.6467 134.087 12.6067 134.06 12.58C134.06 12.5267 134.007 12.5133 133.9 12.54L133.98 10.98L134.38 8.78001C134.3 8.56668 134.22 8.42001 134.14 8.34001C134.087 8.23335 134.02 8.16668 133.94 8.14001C133.887 8.08668 133.807 8.06001 133.7 8.06001C133.62 8.03335 133.5 7.98001 133.34 7.90001C133.314 8.03335 133.14 8.14001 132.82 8.22001C132.527 8.27335 132.26 8.35335 132.02 8.46001C131.86 8.16668 131.66 8.03335 131.42 8.06001C131.18 8.06001 131.034 8.04668 130.98 8.02001C130.954 8.10001 130.874 8.14001 130.74 8.14001C130.607 8.11335 130.447 8.10001 130.26 8.10001C130.1 8.07335 129.927 8.07335 129.74 8.10001C129.58 8.12668 129.447 8.20668 129.34 8.34001C129.394 8.31335 129.394 8.27335 129.34 8.22001C129.287 8.16668 129.207 8.12668 129.1 8.10001C129.02 8.07335 128.914 8.07335 128.78 8.10001C128.674 8.10001 128.58 8.15335 128.5 8.26001C128.26 8.23335 128.074 8.22001 127.94 8.22001C127.807 8.19335 127.687 8.18001 127.58 8.18001C127.474 8.15335 127.354 8.11335 127.22 8.06001C127.087 8.00668 126.927 7.94001 126.74 7.86001C126.5 7.96668 126.287 8.06001 126.1 8.14001C125.914 8.19335 125.767 8.26001 125.66 8.34001C125.66 8.50001 125.26 8.40668 124.46 8.06001C124.38 8.06001 124.274 8.07335 124.14 8.10001C124.034 8.12668 123.914 8.15335 123.78 8.18001C123.674 8.18001 123.58 8.18001 123.5 8.18001C123.42 8.15335 123.394 8.10001 123.42 8.02001C122.914 8.15335 122.554 8.22001 122.34 8.22001C122.127 8.22001 122.02 8.28668 122.02 8.42001C121.807 8.39335 121.594 8.38001 121.38 8.38001C121.194 8.35335 120.927 8.34001 120.58 8.34001L118.7 8.06001L117.1 7.98001C116.914 8.08668 116.767 8.12668 116.66 8.10001C116.554 8.07335 116.46 8.02001 116.38 7.94001C116.3 7.86001 116.207 7.78001 116.1 7.70001C116.02 7.62001 115.9 7.55335 115.74 7.50001C115.554 7.20668 115.46 7.02001 115.46 6.94001C115.487 6.83335 115.514 6.63335 115.54 6.34001C115.567 6.12668 115.594 5.91335 115.62 5.70001C115.674 5.48668 115.7 5.20668 115.7 4.86001C115.754 4.62001 115.874 4.51335 116.06 4.54001C116.247 4.54001 116.54 4.51335 116.94 4.46001C117.34 4.32668 117.674 4.28668 117.94 4.34001C118.234 4.36668 118.447 4.35335 118.58 4.30001C118.9 4.59335 119.487 4.71335 120.34 4.66001L122.1 4.14001H123.3L124.18 4.34001L125.5 4.50001C125.607 4.47335 125.74 4.47335 125.9 4.50001C126.06 4.50001 126.234 4.51335 126.42 4.54001C126.607 4.54001 126.78 4.52668 126.94 4.50001C127.127 4.47335 127.274 4.42001 127.38 4.34001C127.514 4.26001 127.687 4.27335 127.9 4.38001C128.114 4.46001 128.26 4.56668 128.34 4.70001L129.78 4.30001L131.22 4.50001C131.487 4.63335 131.78 4.70001 132.1 4.70001C132.447 4.67335 132.58 4.63335 132.5 4.58001C132.874 4.31335 133.247 4.23335 133.62 4.34001C134.02 4.42001 134.327 4.48668 134.54 4.54001C134.834 4.48668 135.154 4.43335 135.5 4.38001C135.874 4.32668 136.167 4.32668 136.38 4.38001C136.354 4.46001 136.38 4.52668 136.46 4.58001C136.567 4.63335 136.674 4.68668 136.78 4.74001C136.887 4.76668 136.98 4.80668 137.06 4.86001C137.167 4.88668 137.207 4.94001 137.18 5.02001C137.394 5.34001 137.567 5.67335 137.7 6.02001C137.834 6.34001 137.834 6.55335 137.7 6.66001C137.914 7.03335 138.047 7.32668 138.1 7.54001C138.18 7.72668 138.114 7.91335 137.9 8.10001C137.767 8.26001 137.767 8.54001 137.9 8.94001C138.06 9.34001 138.22 9.66001 138.38 9.90001C138.354 10.1133 138.3 10.3267 138.22 10.54C138.14 10.7267 138.047 11.0733 137.94 11.58C137.967 11.58 137.967 11.6333 137.94 11.74C137.94 11.8467 137.927 11.98 137.9 12.14C137.9 12.2733 137.9 12.42 137.9 12.58C137.927 12.74 137.98 12.8733 138.06 12.98C138.194 13.1133 138.234 13.2867 138.18 13.5C138.127 13.7133 138.074 14.02 138.02 14.42C137.674 14.8733 137.42 15.2467 137.26 15.54C137.1 15.8067 136.767 16.0067 136.26 16.14C136.314 16.14 136.22 16.18 135.98 16.26C135.767 16.34 135.434 16.3133 134.98 16.18C134.74 16.34 134.54 16.46 134.38 16.54C134.22 16.5933 134.127 16.5533 134.1 16.42C133.967 16.4733 133.82 16.5 133.66 16.5C133.527 16.5 133.367 16.5 133.18 16.5C133.02 16.5 132.82 16.54 132.58 16.62C132.367 16.6733 132.114 16.78 131.82 16.94C131.554 16.7267 131.327 16.66 131.14 16.74C130.98 16.7933 130.86 16.7133 130.78 16.5C130.594 16.6333 130.42 16.7 130.26 16.7C130.127 16.7 129.994 16.6867 129.86 16.66C129.727 16.6067 129.58 16.5667 129.42 16.54C129.26 16.4867 129.074 16.4867 128.86 16.54C128.834 16.7 128.66 16.7667 128.34 16.74C128.047 16.7133 127.78 16.7533 127.54 16.86C127.22 16.6733 127.02 16.6333 126.94 16.74C126.887 16.82 126.78 16.8733 126.62 16.9C126.354 16.6333 126.114 16.5133 125.9 16.54C125.687 16.54 125.487 16.5133 125.3 16.46C124.687 16.6467 124.274 16.7533 124.06 16.78C123.874 16.8067 123.674 16.78 123.46 16.7C123.087 16.6733 122.847 16.7 122.74 16.78C122.634 16.8333 122.367 16.86 121.94 16.86C121.62 16.5933 121.354 16.4467 121.14 16.42C120.954 16.3933 120.674 16.5 120.3 16.74C120.087 16.5267 119.887 16.42 119.7 16.42C119.54 16.42 119.274 16.4867 118.9 16.62L118.66 16.82L119.18 16.66L118.78 17.34L118.98 18.5L119.1 20.14C119.127 20.22 119.127 20.3 119.1 20.38C119.074 20.46 119.047 20.54 119.02 20.62C118.994 20.7 118.994 20.78 119.02 20.86C119.074 20.9133 119.194 20.9533 119.38 20.98C119.754 21.1133 120.02 21.2067 120.18 21.26C120.367 21.2867 120.527 21.2733 120.66 21.22C120.847 21.1667 120.994 21.1267 121.1 21.1C121.207 21.0733 121.287 21.06 121.34 21.06C121.42 21.0333 121.5 21.02 121.58 21.02C121.66 21.02 121.767 21.02 121.9 21.02L123.5 21.14L124.74 21.46L126.82 21.54C126.9 21.3533 126.967 21.2467 127.02 21.22C127.1 21.1933 127.167 21.18 127.22 21.18C127.3 21.18 127.367 21.18 127.42 21.18C127.474 21.18 127.527 21.1133 127.58 20.98C128.06 20.9533 128.367 20.9533 128.5 20.98C128.634 21.0067 128.767 21.14 128.9 21.38C129.327 21.1933 129.647 21.1 129.86 21.1C130.1 21.1 130.407 21.2067 130.78 21.42C130.727 21.34 130.82 21.2467 131.06 21.14C131.3 21.0333 131.567 21.0867 131.86 21.3C132.127 20.98 132.354 20.8733 132.54 20.98C132.754 21.0867 132.967 21.14 133.18 21.14C133.42 21.1133 133.62 21.0733 133.78 21.02C133.967 20.9667 134.127 20.9267 134.26 20.9C134.42 20.8467 134.58 20.8333 134.74 20.86C134.927 20.86 135.154 20.94 135.42 21.1L135.62 21.02L136.5 20.22C136.74 20.5933 137.007 20.7667 137.3 20.74C137.594 20.7133 137.927 20.74 138.3 20.82C138.3 20.9 138.327 21.02 138.38 21.18C138.434 21.3133 138.487 21.4733 138.54 21.66C138.594 21.8467 138.634 22.0467 138.66 22.26C138.687 22.4467 138.66 22.62 138.58 22.78C138.447 22.9933 138.26 23.2333 138.02 23.5C137.78 23.74 137.474 23.8867 137.1 23.94C136.834 23.9133 136.634 23.9667 136.5 24.1C136.367 24.2067 136.234 24.4333 136.1 24.78C135.54 24.6733 135.087 24.66 134.74 24.74C134.42 24.7933 134.114 24.8067 133.82 24.78C133.874 24.8333 133.74 24.8467 133.42 24.82C133.1 24.7933 132.754 24.6733 132.38 24.46L132.9 24.94L132.86 26.42L132.38 27.98L132.66 29.14L133.14 30.42L133.3 30.9C133.407 30.9267 133.527 30.9267 133.66 30.9C133.794 30.8467 133.94 30.82 134.1 30.82C134.26 30.7933 134.434 30.7933 134.62 30.82C134.807 30.8467 134.994 30.94 135.18 31.1C135.287 30.9133 135.394 30.8067 135.5 30.78C135.634 30.7267 135.754 30.7133 135.86 30.74C135.994 30.7667 136.14 30.7933 136.3 30.82C136.46 30.8467 136.647 30.8333 136.86 30.78C136.754 30.7533 136.834 30.74 137.1 30.74C137.367 30.7133 137.767 30.78 138.3 30.94C138.3 30.94 138.314 30.9267 138.34 30.9C138.394 30.8733 138.474 30.86 138.58 30.86C138.687 30.8333 138.807 30.8467 138.94 30.9C139.074 30.9267 139.22 31.0067 139.38 31.14C139.647 31.22 139.78 31.4067 139.78 31.7C139.807 31.9933 139.714 32.2467 139.5 32.46C139.527 32.54 139.527 32.6467 139.5 32.78C139.474 32.9133 139.434 33.0467 139.38 33.18C139.354 33.3133 139.314 33.4467 139.26 33.58C139.207 33.7133 139.154 33.8067 139.1 33.86C139.234 34.1267 139.18 34.2467 138.94 34.22C138.727 34.22 138.46 34.22 138.14 34.22C137.927 34.3267 137.727 34.38 137.54 34.38C137.38 34.38 137.207 34.3667 137.02 34.34C136.86 34.34 136.674 34.3267 136.46 34.3C136.274 34.2733 136.034 34.2867 135.74 34.34C135.394 34.4467 135.007 34.4467 134.58 34.34C134.18 34.2333 133.927 34.18 133.82 34.18C133.607 34.1533 133.327 34.2333 132.98 34.42C132.66 34.6067 132.274 34.6733 131.82 34.62C131.767 34.4867 131.66 34.3933 131.5 34.34C131.367 34.3133 131.034 34.34 130.5 34.42C130.474 34.5533 130.434 34.62 130.38 34.62C130.327 34.62 130.247 34.5933 130.14 34.54C130.06 34.5133 129.94 34.4733 129.78 34.42C129.647 34.3667 129.474 34.3533 129.26 34.38C129.154 34.3533 129.047 34.3533 128.94 34.38C128.86 34.4333 128.754 34.4733 128.62 34.5C128.514 34.5267 128.38 34.5267 128.22 34.5C128.06 34.5 127.887 34.4333 127.7 34.3C127.594 34.4067 127.5 34.46 127.42 34.46C127.34 34.4867 127.247 34.5 127.14 34.5C127.06 34.5 126.954 34.5133 126.82 34.54C126.714 34.5667 126.567 34.6467 126.38 34.78C126.38 34.7267 126.327 34.66 126.22 34.58C126.114 34.5267 125.994 34.4733 125.86 34.42C125.727 34.3933 125.594 34.3667 125.46 34.34C125.327 34.34 125.247 34.34 125.22 34.34C125.087 34.3667 124.954 34.38 124.82 34.38C124.687 34.38 124.554 34.38 124.42 34.38C124.314 34.38 124.234 34.3933 124.18 34.42C124.127 34.4467 124.127 34.4733 124.18 34.5C123.887 34.58 123.567 34.5933 123.22 34.54C122.9 34.5133 122.66 34.5667 122.5 34.7C122.18 34.7267 121.887 34.6467 121.62 34.46C121.38 34.3 121.154 34.2467 120.94 34.3C120.78 34.4333 120.66 34.5133 120.58 34.54C120.5 34.5667 120.42 34.5533 120.34 34.5C120.26 34.4733 120.14 34.4333 119.98 34.38C119.847 34.3533 119.647 34.34 119.38 34.34C119.22 34.5 119.087 34.5667 118.98 34.54C118.874 34.5133 118.647 34.5667 118.3 34.7C117.847 34.6467 117.474 34.6467 117.18 34.7C116.914 34.7533 116.58 34.78 116.18 34.78C115.86 34.62 115.62 34.4733 115.46 34.34C115.327 34.2067 115.087 34.0733 114.74 33.94C114.26 34.1533 113.86 34.1133 113.54 33.82C113.247 33.5267 113.154 33.14 113.26 32.66L113.54 32.46Z" fill="#111111"/>
<path d="M86.8481 10.7C86.8747 11.1 86.9147 11.4867 86.9681 11.86C87.0481 12.2333 87.1947 12.5667 87.4081 12.86C87.6214 12.8067 87.7947 12.9 87.9281 13.14C88.0614 13.38 88.2614 13.5667 88.5281 13.7C88.4481 13.62 88.4214 13.58 88.4481 13.58C88.5014 13.58 88.5681 13.6067 88.6481 13.66C88.7547 13.6867 88.8614 13.7133 88.9681 13.74C89.1014 13.7667 89.2081 13.78 89.2881 13.78C89.3947 13.8333 89.5414 13.86 89.7281 13.86C89.9147 13.86 90.1014 13.86 90.2881 13.86C90.5014 13.8333 90.6881 13.82 90.8481 13.82C91.0347 13.82 91.1547 13.8467 91.2081 13.9C91.6614 13.82 92.0214 13.82 92.2881 13.9C92.5814 13.9533 92.8347 14.0067 93.0481 14.06C93.3681 13.9 93.6081 13.7 93.7681 13.46C93.9547 13.22 94.2881 13.0733 94.7681 13.02C94.6881 13.1 94.7547 13.0333 94.9681 12.82C95.1814 12.6067 95.3414 12.3667 95.4481 12.1C95.5547 11.94 95.6214 11.78 95.6481 11.62C95.6747 11.4333 95.8081 11.18 96.0481 10.86C95.9681 10.5667 95.8747 10.3 95.7681 10.06C95.6614 9.79334 95.4881 9.59334 95.2481 9.46001C95.3814 9.24668 95.3547 9.06001 95.1681 8.90001C94.9814 8.74001 94.8614 8.56668 94.8081 8.38001C94.6747 8.38001 94.5147 8.32668 94.3281 8.22001C94.1414 8.08668 94.0214 8.11334 93.9681 8.30001C93.5947 8.11334 93.3681 8.02001 93.2881 8.02001C93.2081 8.02001 93.0747 8.07334 92.8881 8.18001C92.3547 7.88668 91.9814 7.78001 91.7681 7.86001C91.5547 7.91334 91.4081 7.92668 91.3281 7.90001C90.8481 7.95334 90.4214 7.98001 90.0481 7.98001C89.7014 7.95334 89.3414 7.87334 88.9681 7.74001C89.0214 7.84668 89.0214 7.91334 88.9681 7.94001C88.9414 7.96668 88.8881 7.98001 88.8081 7.98001C88.7547 7.98001 88.6881 7.99334 88.6081 8.02001C88.5281 8.04668 88.4747 8.10001 88.4481 8.18001C88.0747 8.58001 87.8081 8.87334 87.6481 9.06001C87.5147 9.24668 87.4214 9.36668 87.3681 9.42001C87.4481 9.47334 87.4481 9.70001 87.3681 10.1C87.3147 10.5 87.2081 10.7933 87.0481 10.98L86.8481 10.7ZM82.1681 23.42C82.1681 23.4733 82.1414 23.4733 82.0881 23.42C82.0614 23.34 82.0347 23.26 82.0081 23.18C81.9814 23.0733 81.9814 22.98 82.0081 22.9C82.0614 22.82 82.1681 22.7933 82.3281 22.82C82.4347 22.5533 82.5547 22.3667 82.6881 22.26C82.8481 22.1533 82.9814 22.0867 83.0881 22.06C83.2214 22.0333 83.3414 22.0333 83.4481 22.06C83.5547 22.06 83.6481 22.0467 83.7281 22.02L83.7681 21.86C84.2214 21.9667 84.5814 22.0067 84.8481 21.98C85.1414 21.9533 85.3814 21.8867 85.5681 21.78C85.5681 21.9133 85.6214 21.98 85.7281 21.98C85.8614 21.98 85.9947 21.9667 86.1281 21.94C86.2881 21.8867 86.4347 21.8333 86.5681 21.78C86.7014 21.7267 86.7947 21.7 86.8481 21.7L87.7681 21.58L89.3681 22.06L89.3281 20.14L89.4881 17.9C89.3281 17.8467 89.3014 17.7667 89.4081 17.66C89.5147 17.5267 89.5547 17.4733 89.5281 17.5C89.3414 17.4467 89.1281 17.3267 88.8881 17.14C88.6747 16.9267 88.4081 16.7533 88.0881 16.62C87.9547 16.5667 87.7814 16.6333 87.5681 16.82C87.3547 16.98 87.2214 17.06 87.1681 17.06C86.9814 16.7667 86.7547 16.5933 86.4881 16.54C86.2214 16.46 86.0481 16.46 85.9681 16.54C85.7281 16.3267 85.5414 16.1667 85.4081 16.06C85.2747 15.9267 85.2214 15.66 85.2481 15.26C85.1147 15.3133 84.9681 15.3133 84.8081 15.26C84.6747 15.18 84.5681 14.94 84.4881 14.54C84.1414 14.3533 83.9014 14.2733 83.7681 14.3C83.6347 14.3 83.6481 14.22 83.8081 14.06C83.7281 13.7667 83.5681 13.4867 83.3281 13.22C83.1147 12.9267 83.0214 12.7667 83.0481 12.74C83.1281 12.2067 83.1814 11.8333 83.2081 11.62C83.2614 11.4067 83.2614 11.14 83.2081 10.82C83.1814 10.7667 83.1681 10.6867 83.1681 10.58C83.1947 10.4467 83.1947 10.3 83.1681 10.14C83.1681 9.98001 83.1281 9.82001 83.0481 9.66001C82.9947 9.50001 82.8881 9.35334 82.7281 9.22001C82.9147 8.98001 83.0481 8.74001 83.1281 8.50001C83.2347 8.23334 83.3414 8.18001 83.4481 8.34001C83.6614 7.99334 83.8081 7.71335 83.8881 7.50001C83.9681 7.28668 84.1147 7.02001 84.3281 6.70001C84.1414 6.56668 84.1147 6.44668 84.2481 6.34001C84.4081 6.23334 84.5414 6.23334 84.6481 6.34001C84.8614 6.18001 85.0081 6.06001 85.0881 5.98001C85.1947 5.87334 85.2747 5.79334 85.3281 5.74001C85.4081 5.66001 85.4614 5.56668 85.4881 5.46001C85.5414 5.35334 85.6347 5.19334 85.7681 4.98001C85.7681 4.95334 85.8081 4.92668 85.8881 4.90001C85.9947 4.84668 86.1014 4.82001 86.2081 4.82001C86.3147 4.79334 86.4081 4.78001 86.4881 4.78001C86.5681 4.75334 86.6081 4.74001 86.6081 4.74001C86.7947 4.66001 86.9547 4.60668 87.0881 4.58001C87.2214 4.52668 87.3414 4.50001 87.4481 4.50001C87.5814 4.47334 87.7281 4.44668 87.8881 4.42001C88.0481 4.36668 88.2481 4.30001 88.4881 4.22001C88.5947 4.38001 88.7547 4.42001 88.9681 4.34001C89.2081 4.23334 89.3681 4.24668 89.4481 4.38001C89.8481 4.46001 90.1281 4.47334 90.2881 4.42001C90.4747 4.36668 90.8081 4.27334 91.2881 4.14001C91.3681 4.06001 91.4881 4.03334 91.6481 4.06001C91.8347 4.08668 92.0614 4.26001 92.3281 4.58001C92.5147 4.42001 92.6614 4.32668 92.7681 4.30001C92.9014 4.27334 93.0214 4.26001 93.1281 4.26001C93.2347 4.26001 93.3281 4.26001 93.4081 4.26001C93.4881 4.26001 93.5814 4.19334 93.6881 4.06001C94.2747 4.14001 94.6747 4.23334 94.8881 4.34001C95.1014 4.42001 95.2747 4.51334 95.4081 4.62001C95.6747 4.94001 95.9147 5.10001 96.1281 5.10001C96.3414 5.07334 96.5814 5.04668 96.8481 5.02001C96.7947 5.20668 96.8081 5.35334 96.8881 5.46001C96.9681 5.54001 97.0481 5.62001 97.1281 5.70001C97.2081 5.75334 97.2747 5.82001 97.3281 5.90001C97.4081 5.95334 97.4347 6.03334 97.4081 6.14001C97.7014 6.32668 97.9281 6.43334 98.0881 6.46001C98.2481 6.46001 98.4747 6.47334 98.7681 6.50001C98.7147 6.71334 98.7014 6.96668 98.7281 7.26001C98.7814 7.55334 98.8881 7.86001 99.0481 8.18001C98.9947 8.26001 98.9947 8.35334 99.0481 8.46001C99.1014 8.56668 99.1547 8.67334 99.2081 8.78001C99.2614 8.88668 99.3014 8.99334 99.3281 9.10001C99.3547 9.18001 99.3414 9.23334 99.2881 9.26001C99.4747 9.39334 99.5281 9.60668 99.4481 9.90001C99.3681 10.1667 99.3681 10.5667 99.4481 11.1C99.4214 11.3933 99.4214 11.5933 99.4481 11.7C99.5014 11.8067 99.4347 12.0867 99.2481 12.54C99.3281 12.86 99.3414 13.0733 99.2881 13.18C99.2614 13.2867 99.2481 13.4733 99.2481 13.74C98.9547 14.0867 98.7281 14.34 98.5681 14.5C98.4347 14.6333 98.3281 14.66 98.2481 14.58C98.3014 14.7667 98.3147 14.9133 98.2881 15.02C98.2614 15.1 98.2081 15.18 98.1281 15.26C98.0481 15.3133 97.9547 15.3933 97.8481 15.5C97.7414 15.58 97.6347 15.7133 97.5281 15.9C97.3947 15.7133 97.3014 15.7133 97.2481 15.9C97.2214 16.0867 97.1281 16.2333 96.9681 16.34C96.4881 16.3667 96.1414 16.4067 95.9281 16.46C95.7414 16.4867 95.5014 16.58 95.2081 16.74C95.1547 16.6867 95.0214 16.6867 94.8081 16.74C94.6214 16.7667 94.5414 16.7133 94.5681 16.58C94.1414 16.74 93.8347 16.9133 93.6481 17.1C93.4881 17.26 93.2747 17.3133 93.0081 17.26C93.0881 17.2067 93.1414 17.22 93.1681 17.3C93.2214 17.3533 93.2614 17.4467 93.2881 17.58C93.3414 17.6867 93.3814 17.82 93.4081 17.98C93.4614 18.1133 93.5147 18.2333 93.5681 18.34L93.4881 20.14L93.6481 21.9L95.5681 22.3C95.6214 22.2733 95.7014 22.2333 95.8081 22.18C95.9414 22.1 96.0747 22.0333 96.2081 21.98C96.3414 21.9267 96.4614 21.9133 96.5681 21.94C96.7014 21.94 96.7814 21.9933 96.8081 22.1C96.9947 21.9933 97.1547 21.9267 97.2881 21.9C97.4214 21.8467 97.5547 21.82 97.6881 21.82C97.8481 21.82 98.0214 21.8067 98.2081 21.78C98.3947 21.7533 98.6081 21.6733 98.8481 21.54L99.1281 21.98C99.6081 21.9533 99.9014 21.94 100.008 21.94C100.115 21.94 100.221 22.1133 100.328 22.46C100.701 22.6733 100.888 22.8467 100.888 22.98C100.888 23.1133 100.888 23.4333 100.888 23.94C100.968 23.94 101.008 23.9933 101.008 24.1C101.008 24.18 100.981 24.2867 100.928 24.42C100.901 24.5267 100.861 24.6333 100.808 24.74C100.781 24.82 100.755 24.86 100.728 24.86C100.488 24.9933 100.288 25.0867 100.128 25.14C99.9947 25.1933 99.8614 25.2333 99.7281 25.26C99.6214 25.26 99.5014 25.26 99.3681 25.26C99.2614 25.2333 99.1147 25.22 98.9281 25.22C98.9281 25.3267 98.8614 25.42 98.7281 25.5C98.6214 25.5533 98.5014 25.5933 98.3681 25.62C98.2614 25.6467 98.1681 25.66 98.0881 25.66C98.0081 25.66 97.9814 25.6467 98.0081 25.62C97.6614 25.7533 97.3281 25.86 97.0081 25.94C96.6881 25.9933 96.3947 25.9933 96.1281 25.94C95.9947 25.9667 95.8347 25.98 95.6481 25.98C95.4614 25.9533 95.3147 25.8733 95.2081 25.74C94.9947 25.82 94.8081 25.86 94.6481 25.86C94.5147 25.8333 94.3947 25.8067 94.2881 25.78C94.1814 25.7267 94.0881 25.6867 94.0081 25.66C93.9281 25.6333 93.8481 25.6467 93.7681 25.7C93.5814 25.7533 93.3414 25.7667 93.0481 25.74C92.7814 25.7133 92.5947 25.6867 92.4881 25.66C92.2747 25.66 92.0614 25.6467 91.8481 25.62C91.6347 25.5667 91.5014 25.58 91.4481 25.66C91.2081 25.74 91.0081 25.78 90.8481 25.78C90.6881 25.78 90.5547 25.7667 90.4481 25.74C90.3414 25.7133 90.2481 25.7 90.1681 25.7C90.0881 25.7 90.0214 25.7533 89.9681 25.86C89.5147 25.7 89.1014 25.7133 88.7281 25.9C88.3547 26.06 88.0347 26.1 87.7681 26.02C87.5547 25.9933 87.3147 25.9267 87.0481 25.82C86.8081 25.6867 86.7014 25.6733 86.7281 25.78C86.2481 25.9133 85.9147 25.9267 85.7281 25.82C85.5414 25.7133 85.3147 25.6333 85.0481 25.58C84.6747 25.5267 84.3414 25.4733 84.0481 25.42C83.7814 25.34 83.6081 25.38 83.5281 25.54C83.4747 25.4333 83.3947 25.3533 83.2881 25.3C83.1814 25.2467 83.0747 25.2067 82.9681 25.18C82.8614 25.1267 82.7681 25.0733 82.6881 25.02C82.6081 24.9667 82.5681 24.8733 82.5681 24.74C82.2747 24.82 82.0347 24.7667 81.8481 24.58C81.6881 24.3933 81.7014 24.1267 81.8881 23.78L82.1681 23.42ZM88.1281 36.62C87.8081 36.6467 87.5147 36.7133 87.2481 36.82C86.9814 36.9267 86.7014 36.8733 86.4081 36.66C86.4347 36.6333 86.4214 36.58 86.3681 36.5C86.3147 36.4467 86.2481 36.3667 86.1681 36.26C86.0881 36.18 86.0214 36.0867 85.9681 35.98C85.9147 35.9 85.9014 35.8067 85.9281 35.7C85.7681 35.6467 85.6481 35.58 85.5681 35.5C85.4881 35.42 85.4214 35.34 85.3681 35.26C85.3414 35.18 85.3014 35.1133 85.2481 35.06C85.2214 35.0067 85.1547 34.9533 85.0481 34.9C85.0214 34.4467 84.9147 34.1133 84.7281 33.9C84.5414 33.7133 84.4481 33.4867 84.4481 33.22L84.4081 31.86L84.2881 29.86L84.8881 28.7C84.9147 28.1667 84.9147 27.7933 84.8881 27.58C84.8614 27.3667 85.0347 27.18 85.4081 27.02C85.5947 26.9667 85.7814 26.94 85.9681 26.94C86.1547 26.94 86.2747 26.8867 86.3281 26.78C86.8081 26.8867 87.1681 27.0067 87.4081 27.14C87.6481 27.2467 87.7947 27.3667 87.8481 27.5C88.1147 27.7133 88.2881 27.86 88.3681 27.94C88.4747 27.9933 88.6081 28.18 88.7681 28.5L88.8881 29.82L88.6081 31.62C88.5814 32.2333 88.6881 32.6067 88.9281 32.74C89.1947 32.8733 89.6214 32.8733 90.2081 32.74L91.4481 33.14L92.7281 32.74L94.0881 33.06L95.0881 32.98L96.4081 33.34L98.2881 32.66L99.6081 33.3L100.568 32.58L102.288 33.14L103.488 33.06L104.528 32.58C104.901 32.6067 105.261 32.6733 105.608 32.78C105.981 32.86 106.301 32.9 106.568 32.9C106.621 33.3533 106.728 33.7267 106.888 34.02C107.075 34.34 107.181 34.6867 107.208 35.06C107.475 35.6467 107.248 35.8867 106.528 35.78C106.501 35.9933 106.435 36.14 106.328 36.22C106.248 36.3 106.155 36.3533 106.048 36.38C105.941 36.4067 105.821 36.42 105.688 36.42C105.581 36.42 105.488 36.4333 105.408 36.46L104.128 36.5L103.208 36.78L101.328 36.98L100.008 36.42L98.7681 36.78L97.6481 36.74L96.2081 36.5L95.0481 36.62L93.4081 36.7L92.6081 36.98L90.8081 36.62L89.3681 36.5L88.3281 36.78L88.1281 36.62ZM102.848 25.26C102.795 25.1267 102.755 25.02 102.728 24.94C102.701 24.86 102.675 24.7667 102.648 24.66C102.621 24.5533 102.581 24.42 102.528 24.26C102.475 24.1 102.368 23.8733 102.208 23.58C102.235 23.4733 102.288 23.3667 102.368 23.26C102.448 23.1533 102.515 23.0467 102.568 22.94C102.621 22.8333 102.648 22.74 102.648 22.66C102.648 22.58 102.595 22.5 102.488 22.42C102.541 21.9933 102.608 21.6867 102.688 21.5C102.795 21.2867 102.848 21.1667 102.848 21.14C102.848 20.6867 102.755 20.3267 102.568 20.06C102.408 19.7933 102.408 19.62 102.568 19.54C102.461 19.22 102.421 19.0067 102.448 18.9C102.475 18.7667 102.608 18.58 102.848 18.34C102.768 18.02 102.715 17.74 102.688 17.5C102.688 17.2333 102.715 17.1667 102.768 17.3C102.555 16.82 102.421 16.4467 102.368 16.18C102.315 15.8867 102.381 15.6333 102.568 15.42C102.408 15.2333 102.328 15.1133 102.328 15.06C102.355 14.98 102.355 14.74 102.328 14.34C102.301 14.2067 102.315 14.0733 102.368 13.94C102.448 13.78 102.541 13.5533 102.648 13.26C102.515 13.02 102.421 12.8467 102.368 12.74C102.315 12.6333 102.288 12.54 102.288 12.46C102.288 12.38 102.301 12.2867 102.328 12.18C102.381 12.0733 102.435 11.9 102.488 11.66C102.381 11.6867 102.315 11.6733 102.288 11.62C102.261 11.5667 102.235 11.4867 102.208 11.38C102.208 11.2733 102.195 11.1667 102.168 11.06C102.168 10.9267 102.155 10.7933 102.128 10.66C102.235 10.58 102.288 10.4733 102.288 10.34C102.315 10.2067 102.315 10.0733 102.288 9.94001C102.261 9.80668 102.221 9.70001 102.168 9.62001C102.141 9.51334 102.141 9.46001 102.168 9.46001C102.381 9.19334 102.488 8.96668 102.488 8.78001C102.515 8.59334 102.475 8.34001 102.368 8.02001C102.075 7.40668 102.141 6.86001 102.568 6.38001C102.435 6.27334 102.341 6.20668 102.288 6.18001C102.261 6.12668 102.248 6.07334 102.248 6.02001C102.248 5.96668 102.261 5.88668 102.288 5.78001C102.315 5.67334 102.328 5.50001 102.328 5.26001C102.221 5.12668 102.168 5.03334 102.168 4.98001C102.195 4.90001 102.221 4.83334 102.248 4.78001C102.301 4.72668 102.355 4.67334 102.408 4.62001C102.488 4.54001 102.541 4.43334 102.568 4.30001C103.048 3.95334 103.395 3.79334 103.608 3.82001C103.848 3.82001 103.995 3.91334 104.048 4.10001C104.155 4.10001 104.301 4.08668 104.488 4.06001C104.675 4.03334 104.848 4.03334 105.008 4.06001C105.168 4.06001 105.315 4.11334 105.448 4.22001C105.581 4.32668 105.661 4.51334 105.688 4.78001C105.901 4.70001 106.048 4.76668 106.128 4.98001C106.235 5.16668 106.235 5.36668 106.128 5.58001C106.181 5.79334 106.221 6.03334 106.248 6.30001C106.275 6.56668 106.248 6.98001 106.168 7.54001C106.248 7.54001 106.301 7.59334 106.328 7.70001C106.381 7.80668 106.421 7.92668 106.448 8.06001C106.475 8.16668 106.475 8.28668 106.448 8.42001C106.421 8.52668 106.368 8.59335 106.288 8.62001C106.421 8.96668 106.488 9.31334 106.488 9.66001C106.515 10.0067 106.421 10.2467 106.208 10.38C106.341 10.5933 106.448 10.86 106.528 11.18C106.635 11.5 106.715 11.7933 106.768 12.06L107.048 12.02C107.208 11.9133 107.435 11.8733 107.728 11.9C108.021 11.9267 108.261 12.0333 108.448 12.22C108.555 12.2733 108.661 12.3133 108.768 12.34C108.901 12.34 109.021 12.3533 109.128 12.38C109.235 12.38 109.341 12.4067 109.448 12.46C109.555 12.5133 109.648 12.62 109.728 12.78C109.701 13.0733 109.715 13.3133 109.768 13.5C109.821 13.6867 109.875 13.9133 109.928 14.18C110.168 14.5267 110.235 14.8067 110.128 15.02C110.021 15.2333 109.835 15.3667 109.568 15.42C109.461 15.5267 109.368 15.62 109.288 15.7C109.235 15.7533 109.155 15.8067 109.048 15.86C108.968 15.9133 108.861 15.9667 108.728 16.02C108.621 16.0467 108.461 16.1 108.248 16.18L108.048 16.06L106.208 16.22C106.395 16.1933 106.528 16.2333 106.608 16.34C106.688 16.42 106.741 16.54 106.768 16.7C106.795 16.8333 106.795 16.9933 106.768 17.18C106.768 17.34 106.768 17.4733 106.768 17.58C106.715 17.7133 106.688 17.9133 106.688 18.18C106.715 18.42 106.555 18.7533 106.208 19.18C106.235 19.2333 106.275 19.3267 106.328 19.46C106.408 19.5933 106.475 19.7267 106.528 19.86C106.608 19.9933 106.661 20.1267 106.688 20.26C106.715 20.3933 106.688 20.4733 106.608 20.5C106.475 20.8733 106.408 21.26 106.408 21.66C106.435 22.0333 106.501 22.4067 106.608 22.78C106.421 23.3133 106.301 23.7533 106.248 24.1C106.221 24.4467 106.235 24.74 106.288 24.98C106.235 25.3533 106.195 25.6867 106.168 25.98C106.168 26.2733 106.048 26.4067 105.808 26.38C105.595 26.6467 105.408 26.8467 105.248 26.98C105.115 27.1133 104.928 27.14 104.688 27.06C104.075 27.1667 103.701 27.22 103.568 27.22C103.435 27.22 103.355 27.14 103.328 26.98C103.088 26.5267 102.928 26.2067 102.848 26.02C102.795 25.8067 102.675 25.5933 102.488 25.38L102.848 25.26Z" fill="#111111"/>
<path d="M44.612 32.7L44.572 31.3L44.812 30.14V28.38L44.332 26.86C44.5187 26.62 44.6387 26.42 44.692 26.26C44.7454 26.1 44.7854 25.98 44.812 25.9C44.8387 25.7933 44.8787 25.7267 44.932 25.7C44.9854 25.6733 45.092 25.66 45.252 25.66C45.412 25.6333 45.5587 25.5933 45.692 25.54C45.852 25.4867 45.9987 25.4333 46.132 25.38C46.2654 25.3 46.372 25.26 46.452 25.26C46.5587 25.2333 46.6254 25.2467 46.652 25.3C46.9187 25.3533 47.172 25.3933 47.412 25.42C47.6787 25.42 47.812 25.5133 47.812 25.7C47.9987 25.9933 48.172 26.2067 48.332 26.34C48.5187 26.4467 48.5587 26.5933 48.452 26.78L48.532 28.26L48.972 29.82V31.22C48.7587 31.6733 48.7187 32.06 48.852 32.38C48.9854 32.6733 49.3587 32.78 49.972 32.7L51.772 32.38H52.652L54.692 32.74L56.012 32.42L57.532 32.7L58.332 32.5L60.252 32.58L61.572 32.62L63.052 32.42L63.972 32.22C64.532 32.1933 64.9187 32.22 65.132 32.3C65.372 32.38 65.6254 32.6067 65.892 32.98C66.2387 33.1133 66.4787 33.2467 66.612 33.38C66.7454 33.54 66.612 33.7267 66.212 33.94C66.4254 34.34 66.492 34.6467 66.412 34.86C66.3587 35.1 66.2654 35.2867 66.132 35.42C65.8387 35.6867 65.5587 35.8067 65.292 35.78C65.0254 35.7533 64.8254 35.74 64.692 35.74L63.412 35.98L62.292 36.5L60.652 36.22L59.412 36.18L57.772 35.82L56.252 36.54L55.412 36.22L53.532 35.9L52.172 36.38L51.012 36.58L49.812 36.46L48.692 36.62C48.372 36.46 48.0254 36.34 47.652 36.26C47.2787 36.18 47.012 36.2067 46.852 36.34C46.6387 36.2067 46.3987 36.0867 46.132 35.98C45.892 35.8733 45.6654 35.7533 45.452 35.62C45.3987 35.38 45.3587 35.1933 45.332 35.06C45.3054 34.9533 45.2654 34.86 45.212 34.78C45.1854 34.7 45.132 34.6067 45.052 34.5C44.9987 34.42 44.9054 34.2867 44.772 34.1C44.6387 33.86 44.612 33.6067 44.692 33.34C44.772 33.0733 44.7587 32.8733 44.652 32.74L44.612 32.7ZM61.452 24.02C61.292 23.7533 61.1854 23.54 61.132 23.38C61.0787 23.1933 61.0654 22.9533 61.092 22.66C61.0654 22.42 61.092 22.2333 61.172 22.1C61.2787 21.94 61.3987 21.7667 61.532 21.58C61.4787 21.5267 61.452 21.46 61.452 21.38C61.452 21.3 61.452 21.1933 61.452 21.06C61.452 20.9267 61.4387 20.78 61.412 20.62C61.412 20.4333 61.3587 20.2067 61.252 19.94C61.1187 19.8067 61.092 19.6467 61.172 19.46C61.2787 19.2733 61.3587 19.0733 61.412 18.86C61.5454 18.5133 61.612 18.3 61.612 18.22C61.6387 18.1133 61.5854 17.9533 61.452 17.74C61.3187 17.6067 61.252 17.42 61.252 17.18C61.2787 16.94 61.2254 16.78 61.092 16.7C61.012 16.46 61.0387 16.2067 61.172 15.94C61.332 15.6467 61.4787 15.3267 61.612 14.98C61.612 14.7133 61.5187 14.4733 61.332 14.26C61.172 14.0467 61.1054 13.8333 61.132 13.62C61.1854 13.4067 61.2254 13.22 61.252 13.06C61.2787 12.9 61.2387 12.7933 61.132 12.74C61.1587 12.1533 61.1987 11.7267 61.252 11.46C61.332 11.1933 61.2654 10.98 61.052 10.82C61.1054 10.66 61.172 10.5267 61.252 10.42C61.332 10.2867 61.3854 9.98 61.412 9.5C61.1987 9.5 61.092 9.38 61.092 9.14C61.1187 8.87334 61.2254 8.71334 61.412 8.66C61.092 8.28667 60.972 8.02 61.052 7.86C61.1587 7.7 61.3054 7.47333 61.492 7.18C61.2254 6.99334 61.0787 6.72667 61.052 6.38C61.0254 6.00667 61.1587 5.78 61.452 5.7C61.3987 5.43334 61.372 5.22 61.372 5.06C61.3987 4.87334 61.4387 4.71334 61.492 4.58C61.492 4.34 61.492 4.16667 61.492 4.06C61.492 3.95333 61.5054 3.87334 61.532 3.82C61.5854 3.76667 61.6387 3.72667 61.692 3.7C61.7454 3.64667 61.8387 3.58 61.972 3.5C62.0254 3.20667 62.1854 2.94 62.452 2.7C62.7187 2.43334 62.9987 2.3 63.292 2.3C63.532 2.38 63.7987 2.5 64.092 2.66C64.3854 2.82 64.6254 3.00667 64.812 3.22C64.7054 3.51334 64.6654 3.7 64.692 3.78C64.7187 3.86 64.732 4.03333 64.732 4.3C64.9987 4.67333 65.1054 4.99334 65.052 5.26C65.0254 5.52667 65.052 5.80667 65.132 6.1C64.9987 6.07334 64.9587 6.18 65.012 6.42C65.0654 6.66 65.1987 6.78 65.412 6.78C65.2787 7.18 65.2387 7.54 65.292 7.86C65.372 8.15334 65.3854 8.42 65.332 8.66C65.252 8.66 65.1987 8.71334 65.172 8.82C65.1454 8.9 65.132 8.99334 65.132 9.1C65.132 9.20667 65.132 9.31333 65.132 9.42C65.132 9.5 65.1187 9.52667 65.092 9.5C65.092 9.66 65.092 9.84667 65.092 10.06C65.092 10.2733 65.2387 10.4867 65.532 10.7C65.3987 10.9933 65.372 11.26 65.452 11.5C65.532 11.7133 65.572 12.1133 65.572 12.7C65.972 12.4067 66.3454 12.2467 66.692 12.22C67.0654 12.1667 67.2787 12.22 67.332 12.38C67.732 12.3533 68.012 12.3667 68.172 12.42C68.332 12.4467 68.5054 12.4867 68.692 12.54C68.932 12.7 69.1054 12.82 69.212 12.9C69.3454 12.98 69.4254 13.06 69.452 13.14C69.4787 13.22 69.4787 13.3133 69.452 13.42C69.4254 13.5267 69.3987 13.6733 69.372 13.86L69.972 14.22C69.7587 14.3267 69.652 14.4467 69.652 14.58C69.6787 14.7133 69.6254 14.86 69.492 15.02C69.2787 15.2333 69.0787 15.46 68.892 15.7C68.732 15.9133 68.3987 16.14 67.892 16.38L67.652 15.82L65.372 16.3L64.972 17.82L65.452 19.14L64.892 20.22L65.292 21.66L64.972 23.1L65.292 24.42C65.2387 24.5533 65.1987 24.6733 65.172 24.78C65.1454 24.86 65.1187 24.94 65.092 25.02C65.092 25.1 65.0654 25.1933 65.012 25.3C64.9587 25.4067 64.892 25.5533 64.812 25.74C64.572 25.7667 64.2387 25.82 63.812 25.9C63.412 25.9533 63.1054 26.0067 62.892 26.06C62.6254 26.0333 62.452 25.9533 62.372 25.82C62.292 25.66 62.212 25.6067 62.132 25.66C61.8654 25.5 61.692 25.2733 61.612 24.98C61.532 24.66 61.452 24.42 61.372 24.26L61.452 24.02ZM41.332 21.62C41.4654 21.0867 41.5587 20.74 41.612 20.58C41.6654 20.3933 41.7187 20.26 41.772 20.18C41.772 19.9933 41.8387 19.7267 41.972 19.38C42.1054 19.0333 42.1987 18.78 42.252 18.62C42.492 18.3267 42.7187 18.1133 42.932 17.98C43.1454 17.8467 43.2654 17.6333 43.292 17.34C43.1854 16.94 43.3454 16.4333 43.772 15.82C44.0387 15.5267 44.412 15.06 44.892 14.42C44.9454 14.1533 44.932 13.9133 44.852 13.7C44.7987 13.46 44.8654 13.3533 45.052 13.38C45.1054 13.14 45.1454 12.9533 45.172 12.82C45.2254 12.66 45.2654 12.5267 45.292 12.42C45.3187 12.2867 45.3454 12.14 45.372 11.98C45.4254 11.82 45.492 11.62 45.572 11.38C45.5987 11.2733 45.652 11.1933 45.732 11.14C45.812 11.06 45.892 10.9933 45.972 10.94C46.052 10.8867 46.1187 10.82 46.172 10.74C46.252 10.6333 46.292 10.5133 46.292 10.38C46.2387 10.1667 46.1587 9.94 46.052 9.7C45.972 9.43334 45.9987 9.26 46.132 9.18C46.5054 9.04667 46.6387 8.84667 46.532 8.58C46.452 8.28667 46.3987 7.92667 46.372 7.5C46.7187 7.34 46.9054 7.11333 46.932 6.82C46.9587 6.52667 46.9587 6.23334 46.932 5.94C46.9854 5.99334 47.0254 5.99334 47.052 5.94C47.1054 5.86 47.1454 5.76667 47.172 5.66C47.2254 5.52667 47.2654 5.42 47.292 5.34C47.3454 5.23334 47.3854 5.18 47.412 5.18C47.732 4.78 48.0787 4.56667 48.452 4.54C48.852 4.51334 49.132 4.54 49.292 4.62C49.372 4.67334 49.4787 4.71334 49.612 4.74C49.7454 4.76667 49.8787 4.80667 50.012 4.86C50.1454 4.91334 50.252 4.98 50.332 5.06C50.412 5.14 50.412 5.23334 50.332 5.34C50.5187 5.42 50.652 5.48667 50.732 5.54C50.812 5.59334 50.8654 5.67334 50.892 5.78C50.9187 5.88667 50.932 6.02 50.932 6.18C50.9587 6.34 51.012 6.55334 51.092 6.82C51.2787 6.92667 51.3454 7.14 51.292 7.46C51.2387 7.75334 51.1187 8.04667 50.932 8.34C50.9587 8.42 50.932 8.52667 50.852 8.66C50.7987 8.76667 50.7454 8.87334 50.692 8.98C50.6387 9.08667 50.5854 9.19334 50.532 9.3C50.5054 9.38 50.5187 9.44667 50.572 9.5C50.5987 10.1133 50.532 10.58 50.372 10.9C50.452 11.0333 50.4787 11.1667 50.452 11.3C50.4254 11.4067 50.3854 11.5267 50.332 11.66C50.3054 11.7667 50.2787 11.9 50.252 12.06C50.2254 12.1933 50.252 12.3533 50.332 12.54C50.2787 12.62 50.292 12.7133 50.372 12.82C50.452 12.9267 50.5454 13.0467 50.652 13.18C50.7854 13.2867 50.9054 13.4333 51.012 13.62C51.1187 13.78 51.1854 13.98 51.212 14.22C51.532 14.3533 51.812 14.5 52.052 14.66C52.292 14.7933 52.492 14.9267 52.652 15.06C52.812 15.1933 52.9587 15.3 53.092 15.38C53.2254 15.46 53.3587 15.4733 53.492 15.42C53.812 15.7133 54.0654 15.9133 54.252 16.02C54.4387 16.1267 54.6387 16.34 54.852 16.66C54.9054 16.7933 54.9454 16.9133 54.972 17.02C54.9987 17.1267 55.052 17.3133 55.132 17.58C55.452 17.5267 55.732 17.58 55.972 17.74C56.2387 17.9 56.492 17.9533 56.732 17.9C56.972 18.3 57.132 18.5267 57.212 18.58C57.292 18.6067 57.3587 18.6733 57.412 18.78C57.6787 18.9667 57.8787 19.1533 58.012 19.34C58.1454 19.5267 58.3054 19.78 58.492 20.1C58.3587 20.4733 58.1854 20.8333 57.972 21.18C57.7587 21.5 57.532 21.8067 57.292 22.1C57.372 22.3933 57.2654 22.5 56.972 22.42C56.6787 22.34 56.3587 22.3133 56.012 22.34C55.9587 22.4467 55.812 22.5267 55.572 22.58C55.3587 22.6333 55.052 22.5133 54.652 22.22C54.732 22.1133 54.6787 21.9933 54.492 21.86C54.332 21.7 54.292 21.5933 54.372 21.54C54.132 21.38 53.8654 21.3 53.572 21.3C53.2787 21.3 53.0787 21.2733 52.972 21.22C52.8387 21.1133 52.652 20.9267 52.412 20.66C52.1987 20.3933 51.9854 20.1533 51.772 19.94C51.6387 19.8067 51.4654 19.6333 51.252 19.42C51.0654 19.2067 50.892 19.1133 50.732 19.14C50.652 18.9533 50.5587 18.8067 50.452 18.7C50.3454 18.5933 50.252 18.5 50.172 18.42C50.1187 18.34 50.0787 18.2467 50.052 18.14C50.0254 18.0333 50.0387 17.8733 50.092 17.66C49.7987 17.7133 49.5187 17.7 49.252 17.62C49.012 17.5133 48.9054 17.3 48.932 16.98C48.692 16.8733 48.532 16.7533 48.452 16.62C48.3987 16.46 48.3587 16.2733 48.332 16.06C48.0654 16.46 47.852 16.7667 47.692 16.98C47.5587 17.1667 47.5587 17.3 47.692 17.38C47.6387 17.6733 47.5587 17.8867 47.452 18.02C47.3454 18.1267 47.1054 18.2467 46.732 18.38C46.8387 18.5133 46.892 18.6467 46.892 18.78C46.892 18.9133 46.8654 19.0467 46.812 19.18C46.7854 19.2867 46.7454 19.3933 46.692 19.5C46.6654 19.6067 46.6787 19.6867 46.732 19.74C46.6254 19.74 46.5454 19.7933 46.492 19.9C46.4387 19.98 46.372 20.0867 46.292 20.22C46.2387 20.3267 46.172 20.4467 46.092 20.58C46.012 20.6867 45.892 20.7533 45.732 20.78C45.7587 20.9133 45.6787 21.0867 45.492 21.3C45.332 21.4867 45.2654 21.7667 45.292 22.14C45.052 22.5933 44.852 22.8733 44.692 22.98C44.5587 23.06 44.3187 23.0733 43.972 23.02C43.3587 23.0733 42.932 23.0733 42.692 23.02C42.4787 22.9667 42.292 22.7533 42.132 22.38C42.0254 22.46 41.9187 22.38 41.812 22.14C41.732 21.9 41.5987 21.6067 41.412 21.26L41.332 21.62Z" fill="#111111"/>
<path d="M33.7983 34.26L33.7583 33.98C33.6783 33.4467 33.6517 33.0467 33.6783 32.78C33.705 32.5133 33.8116 32.2333 33.9983 31.94C33.945 31.78 33.8917 31.58 33.8383 31.34C33.785 31.0733 33.905 30.8733 34.1983 30.74C34.2517 30.3667 34.2517 30.06 34.1983 29.82C34.1717 29.58 34.025 29.46 33.7583 29.46C33.9183 28.9267 34.025 28.58 34.0783 28.42C34.1583 28.26 34.1983 28.14 34.1983 28.06C34.2517 27.9533 34.265 27.8067 34.2383 27.62C34.2117 27.4333 34.1583 27.26 34.0783 27.1C34.025 26.94 33.9583 26.8067 33.8783 26.7C33.7983 26.5667 33.7583 26.5 33.7583 26.5C33.8917 26.42 33.985 26.3 34.0383 26.14C34.1183 25.98 34.1583 25.82 34.1583 25.66C34.1583 25.5 34.1317 25.3533 34.0783 25.22C34.0517 25.0867 33.985 25.0067 33.8783 24.98C33.9583 24.8733 34.0117 24.7533 34.0383 24.62C34.0917 24.46 34.1317 24.3133 34.1583 24.18C34.185 24.02 34.1983 23.9 34.1983 23.82C34.1983 23.7133 34.185 23.6733 34.1583 23.7C34.0517 23.5133 34.0383 23.3 34.1183 23.06C34.225 22.7933 34.1717 22.4733 33.9583 22.1C34.0917 21.8067 34.1583 21.62 34.1583 21.54C34.1583 21.46 34.0517 21.2867 33.8383 21.02C33.9717 20.7267 34.065 20.4333 34.1183 20.14C34.1717 19.82 34.145 19.4333 34.0383 18.98C34.145 18.9267 34.1983 18.86 34.1983 18.78C34.1983 18.6733 34.1717 18.5667 34.1183 18.46C34.0917 18.3267 34.0517 18.1933 33.9983 18.06C33.945 17.9267 33.945 17.7933 33.9983 17.66C34.105 17.5267 34.1583 17.3267 34.1583 17.06C34.185 16.7933 34.185 16.5133 34.1583 16.22C34.0517 16.1133 33.985 16.02 33.9583 15.94C33.9317 15.8333 33.9317 15.7267 33.9583 15.62C33.985 15.5133 34.0117 15.4067 34.0383 15.3C34.065 15.1667 34.0783 15.02 34.0783 14.86C34.1317 14.6733 34.1583 14.54 34.1583 14.46C34.185 14.3533 34.185 14.26 34.1583 14.18C34.1317 14.0733 34.0917 13.9533 34.0383 13.82C33.985 13.66 33.9183 13.4333 33.8383 13.14C33.8917 13.14 33.9183 13.1267 33.9183 13.1C33.9183 13.0467 33.9183 12.9933 33.9183 12.94C33.945 12.86 33.985 12.7667 34.0383 12.66C34.0917 12.5533 34.1983 12.4333 34.3583 12.3C34.3317 11.7667 34.2517 11.3933 34.1183 11.18C34.0117 10.94 33.905 10.7133 33.7983 10.5C33.905 10.1267 33.9717 9.83334 33.9983 9.62001C34.0517 9.38001 34.0917 9.19334 34.1183 9.06001C33.9583 8.79334 33.8383 8.55334 33.7583 8.34001C33.705 8.12668 33.6783 7.91334 33.6783 7.70001C33.6783 7.46001 33.6783 7.23334 33.6783 7.02001C33.705 6.78001 33.705 6.51334 33.6783 6.22001L33.9183 6.30001L33.4383 5.86001C33.6517 5.64668 33.785 5.47334 33.8383 5.34001C33.9183 5.18001 33.945 4.95334 33.9183 4.66001C34.0783 4.18001 34.3183 3.87334 34.6383 3.74001C34.985 3.60668 35.265 3.72668 35.4783 4.10001C35.7717 3.80668 36.0517 3.72668 36.3183 3.86001C36.6117 3.96668 36.705 4.24668 36.5983 4.70001C36.9183 4.75334 37.145 4.86001 37.2783 5.02001C37.4383 5.18001 37.3983 5.40668 37.1583 5.70001C37.3717 5.83334 37.4517 5.99334 37.3983 6.18001C37.345 6.34001 37.3583 6.48668 37.4383 6.62001C37.7317 7.07334 37.865 7.44668 37.8383 7.74001C37.8117 8.00668 37.7717 8.36668 37.7183 8.82001C37.905 8.84668 38.0117 9.00668 38.0383 9.30001C38.0917 9.59334 38.025 9.88668 37.8383 10.18C37.785 10.2333 37.745 10.4333 37.7183 10.78C37.7183 11.1 37.8517 11.38 38.1183 11.62C38.065 11.5667 38.0783 11.6867 38.1583 11.98C38.265 12.2733 38.2917 12.6067 38.2383 12.98C38.105 13.0067 38.0117 13.0867 37.9583 13.22C37.905 13.3267 37.8783 13.46 37.8783 13.62C37.8783 13.7533 37.8916 13.8867 37.9183 14.02C37.945 14.1533 37.985 14.26 38.0383 14.34C37.985 14.5 37.9583 14.62 37.9583 14.7C37.985 14.7533 38.0117 14.8067 38.0383 14.86C38.065 14.9133 38.065 14.9667 38.0383 15.02C38.0383 15.0467 37.985 15.1 37.8783 15.18C38.0383 15.3667 38.1317 15.5533 38.1583 15.74C38.185 15.9 38.185 16.06 38.1583 16.22C38.1583 16.3533 38.1317 16.46 38.0783 16.54C38.0517 16.62 38.0383 16.6467 38.0383 16.62C38.1717 16.8867 38.225 17.22 38.1983 17.62C38.1717 18.02 38.265 18.3667 38.4783 18.66C38.185 18.8467 38.025 18.98 37.9983 19.06C37.9983 19.1133 38.0117 19.2867 38.0383 19.58C37.985 19.7933 37.9583 20.06 37.9583 20.38C37.985 20.6733 38.0117 20.9667 38.0383 21.26C38.2517 21.4733 38.3717 21.6867 38.3983 21.9C38.425 22.0867 38.385 22.2467 38.2783 22.38C38.305 22.46 38.305 22.58 38.2783 22.74C38.2516 22.8733 38.225 23.02 38.1983 23.18C38.1717 23.3133 38.145 23.4333 38.1183 23.54C38.1183 23.6467 38.1583 23.7 38.2383 23.7C38.265 23.86 38.265 24.02 38.2383 24.18C38.2117 24.34 38.185 24.5 38.1583 24.66C38.1317 24.82 38.1317 24.9667 38.1583 25.1C38.2117 25.2333 38.305 25.34 38.4383 25.42C38.3583 25.7667 38.305 25.9933 38.2783 26.1C38.2783 26.2067 38.185 26.3933 37.9983 26.66C37.945 26.7933 37.9583 27.0467 38.0383 27.42C38.145 27.7667 38.265 28.0333 38.3983 28.22C38.3983 28.5133 38.3717 28.7933 38.3183 29.06C38.2917 29.3267 38.2383 29.62 38.1583 29.94C38.105 30.3133 38.065 30.6333 38.0383 30.9C38.0383 31.14 38.0917 31.46 38.1983 31.86C38.1717 32.2067 38.1183 32.5133 38.0383 32.78C37.985 33.02 37.9317 33.2467 37.8783 33.46C37.825 33.6733 37.785 33.8733 37.7583 34.06C37.7317 34.2467 37.745 34.4333 37.7983 34.62C37.7183 34.78 37.665 34.9 37.6383 34.98C37.6117 35.06 37.5717 35.1267 37.5183 35.18C37.4917 35.2333 37.425 35.3 37.3183 35.38C37.2383 35.46 37.105 35.5933 36.9183 35.78C36.6783 35.78 36.4917 35.7933 36.3583 35.82C36.2517 35.8733 36.0117 35.9667 35.6383 36.1C35.5583 35.94 35.385 35.78 35.1183 35.62C34.8783 35.46 34.6517 35.3933 34.4383 35.42C34.145 35.3933 33.9583 35.22 33.8783 34.9C33.7983 34.6067 33.7583 34.3133 33.7583 34.02L33.7983 34.26ZM10.9583 32.1C11.0383 31.94 11.0917 31.8067 11.1183 31.7C11.1717 31.5933 11.2117 31.5 11.2383 31.42C11.265 31.34 11.305 31.26 11.3583 31.18C11.4383 31.0733 11.5583 30.9267 11.7183 30.74C11.985 30.7133 12.1583 30.5533 12.2383 30.26C12.345 29.9667 12.545 29.6333 12.8383 29.26C12.9183 29.26 13.0117 29.2333 13.1183 29.18C13.2517 29.1267 13.3583 29.0733 13.4383 29.02C13.545 28.94 13.625 28.86 13.6783 28.78C13.7583 28.7 13.7717 28.6333 13.7183 28.58C13.8783 28.4733 14.025 28.3267 14.1583 28.14C14.2917 27.9533 14.425 27.78 14.5583 27.62C14.6917 27.46 14.8117 27.34 14.9183 27.26C15.0517 27.1533 15.185 27.1133 15.3183 27.14C15.265 26.98 15.2783 26.8467 15.3583 26.74C15.4383 26.6067 15.5317 26.5 15.6383 26.42C15.745 26.34 15.865 26.26 15.9983 26.18C16.1317 26.1 16.2383 26.0067 16.3183 25.9C16.3717 25.9267 16.4517 25.78 16.5583 25.46C16.6917 25.14 16.8783 24.86 17.1183 24.62C16.9583 24.4067 16.9583 24.2467 17.1183 24.14C17.2783 24.0067 17.5317 23.98 17.8783 24.06C17.985 23.8467 18.0517 23.6333 18.0783 23.42C18.105 23.18 18.225 22.98 18.4383 22.82C18.465 22.3933 18.505 22.1133 18.5583 21.98C18.6117 21.82 18.6917 21.74 18.7983 21.74C18.7183 21.6333 18.6783 21.42 18.6783 21.1C18.705 20.78 18.6917 20.5133 18.6383 20.3C18.825 20.0067 18.985 19.8467 19.1183 19.82C19.2783 19.7667 19.385 19.6067 19.4383 19.34C19.385 19.26 19.3717 19.14 19.3983 18.98C19.425 18.82 19.465 18.66 19.5183 18.5C19.5717 18.34 19.625 18.18 19.6783 18.02C19.7583 17.86 19.8117 17.7267 19.8383 17.62C19.545 17.22 19.385 16.9533 19.3583 16.82C19.3317 16.6867 19.3983 16.4867 19.5583 16.22C19.6383 15.98 19.705 15.7933 19.7583 15.66C19.8383 15.5267 19.8916 15.42 19.9183 15.34C19.9716 15.2333 19.985 15.14 19.9583 15.06C19.9317 14.9533 19.8783 14.8067 19.7983 14.62C19.8517 14.3533 19.8783 14.1133 19.8783 13.9C19.905 13.6867 19.8917 13.4067 19.8383 13.06C19.785 13.1133 19.7717 13.0467 19.7983 12.86C19.825 12.6733 19.825 12.5667 19.7983 12.54C19.7717 12.3533 19.7717 12.18 19.7983 12.02C19.825 11.8333 19.8383 11.6733 19.8383 11.54C19.8383 11.4067 19.7983 11.3 19.7183 11.22C19.665 11.14 19.5317 11.1 19.3183 11.1C19.2917 10.94 19.2383 10.8333 19.1583 10.78C19.105 10.7 19.025 10.6467 18.9183 10.62C18.8383 10.5667 18.7316 10.5267 18.5983 10.5C18.465 10.4467 18.305 10.3667 18.1183 10.26C18.0383 10.2067 17.945 10.1933 17.8383 10.22C17.7317 10.2467 17.6117 10.2867 17.4783 10.34C17.3717 10.3933 17.2517 10.4467 17.1183 10.5C17.0117 10.5533 16.9317 10.5667 16.8783 10.54C16.6383 10.5933 16.4383 10.6333 16.2783 10.66C16.1183 10.66 15.9717 10.66 15.8383 10.66C15.705 10.6333 15.5717 10.62 15.4383 10.62C15.305 10.62 15.145 10.6333 14.9583 10.66C14.665 10.4733 14.3717 10.3667 14.0783 10.34C13.785 10.2867 13.5317 10.3133 13.3183 10.42C13.2117 10.5267 13.0517 10.6067 12.8383 10.66C12.6517 10.6867 12.2517 10.54 11.6383 10.22C11.5583 10.3533 11.4783 10.4333 11.3983 10.46C11.3183 10.46 11.2383 10.4333 11.1583 10.38C11.0783 10.3267 10.9983 10.26 10.9183 10.18C10.865 10.1 10.825 10.0333 10.7983 9.98001C10.7183 9.76668 10.6517 9.50001 10.5983 9.18001C10.5717 8.86001 10.5583 8.71334 10.5583 8.74001C10.425 8.26001 10.345 7.91334 10.3183 7.70001C10.2917 7.48668 10.2783 7.34001 10.2783 7.26001C10.6517 7.04668 10.9183 6.91334 11.0783 6.86001C11.265 6.80668 11.4917 6.83334 11.7583 6.94001C11.7317 6.64668 11.8383 6.48668 12.0783 6.46001C12.3183 6.43334 12.4783 6.46001 12.5583 6.54001C12.6117 6.56668 12.705 6.58001 12.8383 6.58001C12.9717 6.55334 13.105 6.52668 13.2383 6.50001C13.3717 6.47334 13.4917 6.46001 13.5983 6.46001C13.7317 6.46001 13.7983 6.48668 13.7983 6.54001C14.1717 6.40668 14.4383 6.38001 14.5983 6.46001C14.7583 6.51334 14.905 6.66001 15.0383 6.90001C15.545 6.71334 15.8917 6.62001 16.0783 6.62001C16.265 6.59334 16.4117 6.48668 16.5183 6.30001C16.7317 6.35334 16.945 6.40668 17.1583 6.46001C17.3983 6.48668 17.585 6.40668 17.7183 6.22001C18.4383 6.40668 19.1183 6.35334 19.7583 6.06001C19.8117 6.11334 20.0117 6.20668 20.3583 6.34001C20.705 6.44668 20.985 6.55334 21.1983 6.66001C21.225 6.52668 21.385 6.52668 21.6783 6.66001C21.9717 6.79334 22.1716 6.98001 22.2783 7.22001C22.9183 7.14001 23.2117 7.20668 23.1583 7.42001C23.1583 7.55334 23.1983 7.75334 23.2783 8.02001C23.385 8.26001 23.5583 8.42001 23.7983 8.50001C23.8783 8.68668 23.8917 8.90001 23.8383 9.14001C23.785 9.38001 23.8383 9.63335 23.9983 9.90001C23.945 10.1133 23.9583 10.3133 24.0383 10.5C24.145 10.6867 24.1717 10.9533 24.1183 11.3C24.0117 11.6467 23.985 11.9533 24.0383 12.22C24.1183 12.4867 24.2117 12.6333 24.3183 12.66L24.4383 12.86L26.1983 12.46H28.1183L27.3983 11.3L27.5183 10.02C27.6517 9.51334 27.705 9.10001 27.6783 8.78001C27.6783 8.43334 27.5183 7.94001 27.1983 7.30001C27.385 7.30001 27.5183 7.19334 27.5983 6.98001C27.705 6.74001 27.785 6.59334 27.8383 6.54001L27.3183 5.94001C27.3717 5.72668 27.4117 5.54001 27.4383 5.38001C27.465 5.19334 27.625 4.95334 27.9183 4.66001C28.4783 4.07334 28.9183 3.91334 29.2383 4.18001C29.6383 4.18001 29.945 4.23334 30.1583 4.34001C30.3717 4.42001 30.4517 4.64668 30.3983 5.02001C30.585 5.04668 30.7183 5.07334 30.7983 5.10001C30.8783 5.12668 30.9183 5.15334 30.9183 5.18001C30.945 5.20668 30.945 5.26001 30.9183 5.34001C30.8916 5.39334 30.8916 5.47334 30.9183 5.58001C31.2916 5.79334 31.5183 6.03334 31.5983 6.30001C31.705 6.54001 31.7717 6.80668 31.7983 7.10001C31.7983 7.31334 31.7317 7.60668 31.5983 7.98001C31.4917 8.35334 31.425 8.64668 31.3983 8.86001C31.3183 9.23334 31.2917 9.48668 31.3183 9.62001C31.345 9.75334 31.3983 10.0467 31.4783 10.5C31.3983 10.58 31.4117 10.74 31.5183 10.98C31.6517 11.1933 31.8383 11.3533 32.0783 11.46C31.865 11.6733 31.705 11.9533 31.5983 12.3C31.5183 12.62 31.4783 12.7667 31.4783 12.74C31.585 12.9533 31.6783 13.1133 31.7583 13.22C31.865 13.3267 31.9317 13.4333 31.9583 13.54C32.0117 13.62 32.0517 13.7133 32.0783 13.82C32.105 13.9267 32.1183 14.1 32.1183 14.34C31.905 14.2867 31.8117 14.38 31.8383 14.62C31.865 14.8333 31.7983 15.1667 31.6383 15.62C31.8517 15.7533 31.985 15.9133 32.0383 16.1C32.1183 16.2867 32.1317 16.3667 32.0783 16.34C31.865 16.6333 31.745 16.98 31.7183 17.38C31.7183 17.7533 31.7983 17.9933 31.9583 18.1C31.985 18.2333 31.9583 18.4333 31.8783 18.7C31.825 18.94 31.6917 19.0067 31.4783 18.9C31.7717 19.38 31.945 19.74 31.9983 19.98C32.0517 20.22 31.9583 20.2733 31.7183 20.14C31.665 20.54 31.6917 20.8467 31.7983 21.06C31.9317 21.2733 31.9183 21.4733 31.7583 21.66C31.7583 22.1133 31.785 22.4733 31.8383 22.74C31.8917 22.98 31.9183 23.1933 31.9183 23.38C31.7317 23.3267 31.6517 23.3933 31.6783 23.58C31.705 23.74 31.905 23.8867 32.2783 24.02C32.0383 24.3933 31.9183 24.7133 31.9183 24.98C31.945 25.2467 31.945 25.5667 31.9183 25.94C31.785 26.0467 31.705 26.18 31.6783 26.34C31.6517 26.5 31.7583 26.7933 31.9983 27.22C31.7317 27.2467 31.6117 27.3667 31.6383 27.58C31.6917 27.7933 31.785 28.0333 31.9183 28.3C32.025 28.78 31.985 29.1133 31.7983 29.3C31.6383 29.4867 31.625 29.54 31.7583 29.46C31.6517 29.8067 31.585 30.2333 31.5583 30.74C31.5317 31.2467 31.5717 31.8067 31.6783 32.42C31.625 32.82 31.585 33.22 31.5583 33.62C31.5583 34.02 31.465 34.34 31.2783 34.58C31.2783 34.6867 31.2783 34.8067 31.2783 34.94C31.2783 35.0733 31.2783 35.1933 31.2783 35.3C31.2783 35.4067 31.2517 35.4733 31.1983 35.5C31.145 35.5533 31.0516 35.54 30.9183 35.46C30.9183 35.7267 30.7983 35.94 30.5583 36.1C30.3183 36.2867 30.1317 36.42 29.9983 36.5C29.465 36.3133 29.0917 36.1933 28.8783 36.14C28.665 36.1133 28.465 36.02 28.2783 35.86C28.2783 35.6733 28.2383 35.5267 28.1583 35.42C28.0783 35.34 27.9983 35.26 27.9183 35.18C27.8383 35.1 27.7717 35.0067 27.7183 34.9C27.665 34.7933 27.665 34.62 27.7183 34.38L27.8383 33.74C27.9717 33.6867 28.0383 33.5267 28.0383 33.26C28.0383 33.02 28.0517 32.7933 28.0783 32.58C28.1317 32.18 28.1717 31.9133 28.1983 31.78C28.225 31.6467 28.2383 31.5133 28.2383 31.38C28.185 30.98 28.145 30.7 28.1183 30.54C28.0917 30.3533 28.105 30.1533 28.1583 29.94C28.105 29.78 28.0783 29.6067 28.0783 29.42C28.105 29.2333 28.1183 29.0467 28.1183 28.86C28.1183 28.6467 28.105 28.46 28.0783 28.3C28.0517 28.1133 27.9717 27.9667 27.8383 27.86C27.8917 27.6733 27.985 27.54 28.1183 27.46C28.2517 27.3533 28.2783 27.1533 28.1983 26.86C27.8517 26.3267 27.705 25.8467 27.7583 25.42L26.1583 25.38L24.2383 25.26C24.0517 25.4733 23.9183 25.5267 23.8383 25.42C23.785 25.2867 23.705 25.14 23.5983 24.98C23.4383 24.5533 23.2517 24.2867 23.0383 24.18C22.825 24.0467 22.6917 23.9 22.6383 23.74C22.665 23.2333 22.6917 22.8467 22.7183 22.58C22.7717 22.3133 22.9183 22.0467 23.1583 21.78C23.2917 21.7533 23.5317 21.74 23.8783 21.74C24.225 21.74 24.4517 21.6733 24.5583 21.54L26.4783 21.14L27.8383 21.66C27.8917 21.26 27.9583 20.9667 28.0383 20.78C28.145 20.5667 28.145 20.2867 28.0383 19.94C27.905 19.54 27.9183 19.2067 28.0783 18.94C28.265 18.6467 28.3316 18.34 28.2783 18.02C28.2783 17.9933 28.2517 17.9267 28.1983 17.82C28.1717 17.6867 28.145 17.5667 28.1183 17.46C28.0917 17.3267 28.0917 17.1933 28.1183 17.06C28.145 16.9267 28.225 16.82 28.3583 16.74L26.3583 16.5L24.7983 16.66L24.3983 16.98L23.4383 16.38L23.9983 18.14C23.945 18.3 23.8783 18.4467 23.7983 18.58C23.7183 18.6867 23.5717 18.9933 23.3583 19.5C23.385 19.5 23.3983 19.5533 23.3983 19.66C23.3983 19.7667 23.385 19.9 23.3583 20.06C23.3583 20.1933 23.3583 20.3133 23.3583 20.42C23.3583 20.5267 23.385 20.58 23.4383 20.58C23.3317 21.06 23.2517 21.4067 23.1983 21.62C23.1717 21.8333 23.105 22.1667 22.9983 22.62C22.945 22.7533 22.905 22.86 22.8783 22.94C22.8783 23.02 22.865 23.0867 22.8383 23.14C22.8117 23.1933 22.785 23.26 22.7583 23.34C22.7317 23.42 22.6917 23.54 22.6383 23.7C22.425 23.7533 22.265 23.9533 22.1583 24.3C22.0517 24.6467 22.025 24.9133 22.0783 25.1C21.9983 25.2333 21.905 25.38 21.7983 25.54C21.6917 25.6733 21.5717 25.7133 21.4383 25.66C21.3317 25.9 21.2383 26.0867 21.1583 26.22C21.0783 26.3267 20.9983 26.4067 20.9183 26.46C20.8383 26.4867 20.745 26.5267 20.6383 26.58C20.5583 26.6067 20.4517 26.66 20.3183 26.74C20.105 27.22 19.9583 27.5 19.8783 27.58C19.825 27.66 19.745 27.7533 19.6383 27.86C19.585 28.3133 19.4917 28.6467 19.3583 28.86C19.2517 29.0467 19.1983 29.22 19.1983 29.38C19.0117 29.3267 18.8517 29.3133 18.7183 29.34C18.585 29.3667 18.4517 29.42 18.3183 29.5C18.2117 29.58 18.0917 29.6733 17.9583 29.78C17.825 29.8867 17.665 29.9933 17.4783 30.1C17.5583 30.26 17.585 30.4333 17.5583 30.62C17.5317 30.78 17.4783 30.94 17.3983 31.1C17.3183 31.2333 17.2383 31.38 17.1583 31.54C17.105 31.6733 17.0783 31.7933 17.0783 31.9C16.7317 31.74 16.425 31.7667 16.1583 31.98C15.8917 32.1933 15.6517 32.4067 15.4383 32.62L14.9583 32.82C15.065 33.0067 15.0917 33.1933 15.0383 33.38C14.985 33.5667 14.7183 33.66 14.2383 33.66C14.2917 33.7933 14.2783 33.8733 14.1983 33.9C14.1183 33.9533 14.0117 33.98 13.8783 33.98C13.7717 33.98 13.6517 33.9533 13.5183 33.9C13.4117 33.8733 13.345 33.8333 13.3183 33.78C13.025 33.9133 12.785 33.98 12.5983 33.98C12.4383 34.0067 12.185 33.7933 11.8383 33.34C11.625 33.2867 11.425 33.1533 11.2383 32.94C11.0517 32.7533 10.945 32.5 10.9183 32.18L10.9583 32.1Z" fill="#111111"/>
</svg>
