<svg width="63" height="40" viewBox="0 0 63 40" fill="none" xmlns="http://www.w3.org/2000/svg">
<path d="M56.5012 34.4L56.4613 33.96C56.4079 33.8267 56.4079 33.6933 56.4613 33.56C56.5146 33.4267 56.5679 33.28 56.6213 33.12C56.7013 32.96 56.7546 32.7867 56.7812 32.6C56.8346 32.4133 56.8212 32.2133 56.7412 32C56.7946 31.8933 56.8079 31.7333 56.7812 31.52C56.7546 31.28 56.7013 31.0667 56.6213 30.88C56.7013 30.5867 56.7146 30.32 56.6613 30.08C56.6079 29.8133 56.6213 29.4533 56.7012 29C56.6746 28.76 56.7146 28.5867 56.8213 28.48C56.9279 28.3733 56.8612 28.3067 56.6213 28.28C56.5413 27.9867 56.5946 27.7333 56.7812 27.52C56.9946 27.28 57.1146 26.9733 57.1413 26.6C56.8479 26.4933 56.6879 26.2933 56.6613 26C56.6613 25.7067 56.6879 25.4 56.7412 25.08C56.7146 25.08 56.7146 25.0267 56.7412 24.92C56.7679 24.7867 56.7946 24.6533 56.8213 24.52C56.8746 24.36 56.9012 24.2267 56.9012 24.12C56.9279 24.0133 56.9279 23.96 56.9012 23.96C56.9279 23.7467 56.9279 23.5867 56.9012 23.48C56.9012 23.3733 56.8879 23.28 56.8612 23.2C56.8346 23.12 56.8213 23.04 56.8213 22.96C56.8479 22.8533 56.9279 22.7067 57.0612 22.52C57.0079 22.3867 56.9546 22.1733 56.9012 21.88C56.8746 21.5867 56.8212 21.4133 56.7412 21.36C56.6612 20.9333 56.6346 20.56 56.6613 20.24C56.7146 19.92 56.8079 19.8 56.9412 19.88C56.8879 19.6667 56.9013 19.3733 56.9813 19C57.0613 18.6267 57.0346 18.28 56.9012 17.96C56.9012 17.64 56.8479 17.3733 56.7412 17.16C56.6612 16.92 56.7279 16.7067 56.9412 16.52C56.9946 16.36 56.9679 16.2133 56.8612 16.08C56.7546 15.92 56.8079 15.6267 57.0212 15.2C57.0479 14.9333 57.0212 14.68 56.9412 14.44C56.8879 14.1733 56.8746 13.9733 56.9012 13.84C56.6612 13.6267 56.5813 13.44 56.6613 13.28C56.7413 13.12 56.7679 12.92 56.7412 12.68C56.6879 12.44 56.6479 12.2533 56.6213 12.12C56.6213 11.96 56.6213 11.8267 56.6213 11.72C56.6479 11.5867 56.6613 11.4533 56.6613 11.32C56.6613 11.1867 56.6346 11.0133 56.5812 10.8C56.5279 10.5867 56.5679 10.3867 56.7012 10.2C56.8612 9.98666 56.9146 9.74666 56.8612 9.48C56.5946 9.42666 56.4079 9.25333 56.3013 8.96C56.2213 8.66666 56.2213 8.47999 56.3013 8.4C56.1679 8.18666 56.1012 7.90666 56.1012 7.55999C56.1012 7.18666 56.0746 6.93333 56.0213 6.8L56.3013 6.31999L55.9412 6.47999C56.1546 6.07999 56.3279 5.76 56.4613 5.51999C56.5946 5.27999 56.6746 5.13333 56.7012 5.08C56.8612 4.94666 56.9813 4.81333 57.0612 4.68C57.1679 4.54666 57.2746 4.43999 57.3812 4.36C57.4879 4.25333 57.6079 4.18666 57.7412 4.16C57.9012 4.10666 58.1146 4.10666 58.3812 4.16C58.6479 4.10666 58.9013 4.17333 59.1413 4.36C59.4079 4.52 59.6346 4.73333 59.8212 4.99999C60.0346 5.13333 60.1413 5.29333 60.1413 5.48C60.1679 5.66666 60.2213 5.81333 60.3013 5.91999C60.4079 6.21333 60.4346 6.46666 60.3812 6.67999C60.3279 6.89333 60.4213 7.06666 60.6613 7.19999C60.5546 7.30666 60.5013 7.42666 60.5013 7.55999C60.5013 7.69333 60.5013 7.82666 60.5013 7.95999C60.5013 8.09333 60.4746 8.23999 60.4212 8.4C60.3946 8.56 60.3013 8.72 60.1413 8.87999C60.4613 9.33333 60.6613 9.65333 60.7412 9.83999C60.8212 10 60.8612 10.0933 60.8612 10.12C60.8079 10.68 60.7812 11.0533 60.7812 11.24C60.8079 11.4267 60.8346 11.64 60.8612 11.88C60.7279 11.9867 60.6613 12.08 60.6613 12.16C60.6613 12.2133 60.6746 12.28 60.7012 12.36C60.7279 12.4133 60.7546 12.4933 60.7812 12.6C60.8346 12.68 60.8612 12.7733 60.8612 12.88C60.9412 13.0933 60.9146 13.3867 60.7812 13.76C60.6479 14.1067 60.5946 14.3467 60.6213 14.48C60.6213 14.5067 60.6479 14.6933 60.7012 15.04C60.7812 15.3867 60.8079 15.64 60.7812 15.8C60.7812 15.96 60.8212 16.1333 60.9012 16.32C61.0079 16.48 61.0346 16.64 60.9813 16.8C61.0079 16.88 60.9946 16.9867 60.9412 17.12C60.8879 17.2533 60.8479 17.4 60.8213 17.56C60.7946 17.72 60.7812 17.8933 60.7812 18.08C60.8079 18.24 60.8879 18.3867 61.0213 18.52C61.0479 18.4933 61.0612 18.5333 61.0612 18.64C61.0612 18.72 61.0612 18.8267 61.0612 18.96C61.0612 19.0933 61.0746 19.2133 61.1012 19.32C61.1279 19.4267 61.1812 19.48 61.2612 19.48C60.9679 19.5867 60.8079 19.7467 60.7812 19.96C60.7812 20.1467 60.8479 20.3467 60.9813 20.56C61.0879 20.7733 61.1146 21.0267 61.0612 21.32C61.0346 21.6133 61.0079 21.8933 60.9813 22.16C61.1146 22.4267 61.1412 22.68 61.0612 22.92C60.9812 23.16 60.9012 23.44 60.8213 23.76C60.9546 23.7067 60.9413 23.7867 60.7812 24C60.6213 24.1867 60.5412 24.5067 60.5412 24.96C60.8346 25.0133 60.9679 25.16 60.9412 25.4C60.9146 25.64 60.7946 25.7867 60.5812 25.84C60.6079 26.1333 60.5946 26.4 60.5412 26.64C60.5146 26.8533 60.5413 26.9867 60.6213 27.04C60.7812 27.2533 60.9013 27.5067 60.9813 27.8C61.0612 28.0933 61.0879 28.32 61.0612 28.48C60.9812 28.5333 60.9146 28.6267 60.8612 28.76C60.8346 28.8667 60.8079 28.9867 60.7812 29.12C60.7812 29.2533 60.7679 29.3733 60.7412 29.48C60.7412 29.5867 60.7412 29.64 60.7412 29.64C60.6613 29.9333 60.6213 30.1867 60.6213 30.4C60.6213 30.5867 60.6346 30.7733 60.6613 30.96C60.7146 31.12 60.7679 31.2933 60.8213 31.48C60.9012 31.64 60.9812 31.84 61.0612 32.08C60.8479 32.64 60.7012 33.1067 60.6213 33.48C60.5679 33.8533 60.5679 34.12 60.6213 34.28C60.3546 34.7333 60.1946 35.0933 60.1413 35.36C60.0879 35.6267 60.0212 35.84 59.9412 36C59.5146 35.8933 59.2346 35.8533 59.1012 35.88C58.9946 35.9333 58.8079 36.1067 58.5412 36.4C58.3279 36.08 58.1013 35.8667 57.8613 35.76C57.6479 35.6533 57.4879 35.6933 57.3812 35.88C57.1146 35.8 56.9279 35.68 56.8213 35.52C56.7146 35.36 56.6346 35.2 56.5812 35.04C56.5546 34.88 56.5279 34.72 56.5012 34.56C56.5012 34.4267 56.4879 34.32 56.4613 34.24L56.5012 34.4ZM34.0212 32.36C33.9412 32.2267 33.9012 32.1067 33.9012 32C33.9279 31.8667 33.9546 31.7467 33.9812 31.64C34.0346 31.5333 34.0746 31.44 34.1012 31.36C34.1279 31.2533 34.1012 31.1467 34.0212 31.04C34.1279 30.9067 34.2213 30.8133 34.3013 30.76C34.4079 30.68 34.5012 30.6133 34.5812 30.56C34.6612 30.48 34.7412 30.4 34.8212 30.32C34.9279 30.2133 35.0346 30.0533 35.1412 29.84C35.4612 29.7067 35.6746 29.6267 35.7812 29.6C35.9146 29.5467 36.0346 29.4133 36.1412 29.2C36.3279 29.0133 36.5146 28.8267 36.7012 28.64C36.8879 28.4533 37.0879 28.2 37.3013 27.88C37.3279 27.96 37.3546 27.96 37.3812 27.88C37.4079 27.8 37.4346 27.7067 37.4612 27.6C37.4879 27.4933 37.5279 27.4 37.5812 27.32C37.6612 27.2133 37.7679 27.16 37.9012 27.16C38.0346 27.1067 38.1279 27.0267 38.1812 26.92C38.2612 26.7867 38.3279 26.6533 38.3812 26.52C38.4346 26.3867 38.5012 26.2667 38.5812 26.16C38.6612 26.0267 38.8079 25.9333 39.0212 25.88C39.1546 25.7733 39.2479 25.6533 39.3013 25.52C39.3546 25.3867 39.5012 25.1733 39.7412 24.88C39.7679 24.7467 39.8612 24.6133 40.0212 24.48C40.2079 24.3467 40.3013 24.2533 40.3013 24.2C40.3813 23.96 40.4479 23.7867 40.5012 23.68C40.5812 23.5733 40.6612 23.4933 40.7412 23.44C40.8212 23.36 40.9013 23.28 40.9813 23.2C41.0879 23.12 41.2079 23 41.3412 22.84C41.4746 22.6267 41.5012 22.3867 41.4212 22.12C41.3679 21.8533 41.3813 21.64 41.4613 21.48C41.4079 21.4 41.4079 21.32 41.4613 21.24C41.5146 21.16 41.5679 21.0933 41.6213 21.04C41.7013 20.9867 41.7546 20.92 41.7812 20.84C41.8346 20.76 41.8212 20.68 41.7412 20.6C41.7679 20.44 41.7812 20.32 41.7812 20.24C41.8079 20.16 41.8346 20.0667 41.8612 19.96C41.8879 19.8533 41.9412 19.7333 42.0212 19.6C42.1012 19.44 42.2479 19.2133 42.4612 18.92C42.3279 18.8933 42.2346 18.84 42.1812 18.76C42.1546 18.6533 42.1546 18.5467 42.1812 18.44C42.2079 18.3067 42.2479 18.2 42.3013 18.12C42.3813 18.0133 42.4612 17.9333 42.5412 17.88C42.4346 17.6933 42.3812 17.5333 42.3812 17.4C42.4079 17.2667 42.4346 17.1467 42.4612 17.04C42.5146 16.9067 42.5546 16.7867 42.5812 16.68C42.6079 16.5467 42.5946 16.3733 42.5412 16.16C42.4879 16.16 42.4746 16.1067 42.5012 16C42.5279 15.8667 42.5412 15.7333 42.5412 15.6C42.5679 15.4667 42.5812 15.3467 42.5812 15.24C42.5812 15.1067 42.5279 15.04 42.4212 15.04C42.3946 14.8 42.3946 14.52 42.4212 14.2C42.4479 13.88 42.4479 13.6 42.4212 13.36C42.4479 13.3333 42.4612 13.28 42.4612 13.2C42.4879 13.0933 42.5012 13 42.5012 12.92C42.5279 12.84 42.5546 12.7867 42.5812 12.76C42.6079 12.7067 42.6612 12.72 42.7412 12.8C42.6879 12.3467 42.6212 11.9333 42.5412 11.56C42.4612 11.16 42.5146 10.9333 42.7012 10.88C42.3546 10.6933 42.0346 10.6 41.7412 10.6C41.4746 10.6 41.1279 10.6133 40.7012 10.64C40.5679 10.5867 40.4479 10.5733 40.3412 10.6C40.2346 10.6267 40.1279 10.6667 40.0212 10.72C39.9146 10.7467 39.8079 10.76 39.7012 10.76C39.5946 10.76 39.4879 10.72 39.3812 10.64C39.2479 10.5333 39.0212 10.4667 38.7012 10.44C38.3812 10.4133 38.0479 10.3733 37.7012 10.32C37.3546 10.4 37.0612 10.48 36.8212 10.56C36.5812 10.64 36.3812 10.6267 36.2212 10.52C36.0612 10.5467 35.8479 10.5867 35.5812 10.64C35.3146 10.6667 34.9946 10.6533 34.6213 10.6C34.5146 10.5467 34.3412 10.5467 34.1012 10.6C33.8879 10.6267 33.6346 10.5467 33.3412 10.36C33.1812 10.1467 33.0746 9.92 33.0212 9.68C32.9946 9.41333 32.9146 9.05333 32.7812 8.6C32.9146 8.43999 33.0212 8.29333 33.1012 8.15999C33.2079 7.99999 33.4346 7.79999 33.7812 7.55999C33.7279 7.42666 33.7946 7.28 33.9812 7.12C34.1679 6.95999 34.3012 6.77333 34.3812 6.56C34.5946 6.66666 34.7812 6.70666 34.9412 6.67999C35.1012 6.62666 35.1812 6.72 35.1812 6.96C35.5812 6.90666 35.9146 6.86666 36.1812 6.83999C36.4746 6.81333 36.7679 6.92 37.0612 7.16C37.1412 7 37.2079 6.89333 37.2612 6.83999C37.3146 6.78666 37.3812 6.76 37.4612 6.76C37.5412 6.73333 37.6479 6.73333 37.7812 6.76C37.9412 6.78666 38.1546 6.8 38.4212 6.8C38.5012 6.88 38.5679 6.93333 38.6213 6.96C38.6746 6.96 38.7279 6.94666 38.7812 6.92C38.8346 6.86666 38.9146 6.81333 39.0212 6.76C39.1546 6.68 39.3279 6.59999 39.5412 6.51999C39.8346 6.54666 40.1012 6.58666 40.3412 6.63999C40.5812 6.66666 40.8079 6.65333 41.0212 6.6C40.9946 6.54666 41.0346 6.51999 41.1412 6.51999C41.2479 6.49333 41.3679 6.50666 41.5012 6.56C41.6346 6.58666 41.7412 6.64 41.8212 6.72C41.9279 6.77333 41.9679 6.85333 41.9412 6.96C42.2079 6.77333 42.4212 6.65333 42.5812 6.6C42.7412 6.51999 42.8746 6.47999 42.9813 6.47999C43.1146 6.45333 43.2346 6.46666 43.3412 6.51999C43.4746 6.54666 43.6213 6.57333 43.7812 6.6C43.8879 6.73333 44.0079 6.81333 44.1413 6.83999C44.2746 6.83999 44.3813 6.85333 44.4613 6.87999C44.5679 6.87999 44.6479 6.90666 44.7012 6.96C44.7812 7.01333 44.8079 7.12 44.7812 7.28C45.0746 7.06666 45.3146 7.01333 45.5012 7.12C45.7146 7.22666 45.8746 7.37333 45.9813 7.55999C46.1946 7.85333 46.3279 8.06666 46.3812 8.2C46.4346 8.30666 46.4346 8.54666 46.3812 8.91999C46.5412 8.78666 46.6479 8.78666 46.7012 8.91999C46.7812 9.05333 46.8346 9.22666 46.8612 9.43999C46.9412 9.76 46.9946 10.0667 47.0212 10.36C47.0746 10.6533 47.1679 10.84 47.3013 10.92C47.2479 11.3733 47.1412 11.7467 46.9812 12.04C46.8212 12.3067 46.7679 12.5733 46.8213 12.84C46.8479 12.8933 46.8346 13.0533 46.7812 13.32C46.7546 13.56 46.6612 14 46.5012 14.64C46.5012 14.8533 46.5812 15.0533 46.7412 15.24C46.9279 15.4 46.9412 15.6 46.7812 15.84C46.8346 16.1867 46.8746 16.4267 46.9012 16.56C46.9546 16.6933 46.9012 16.96 46.7412 17.36L46.7012 17L48.9813 17.32L50.2612 16.88C50.3146 16.7467 50.3813 16.5733 50.4613 16.36C50.5679 16.1467 50.6479 15.9333 50.7012 15.72C50.6212 15.6933 50.5413 15.64 50.4613 15.56C50.4079 15.48 50.3812 15.4 50.3812 15.32C50.3812 15.2133 50.4079 15.1333 50.4613 15.08C50.5146 15.0267 50.6213 15.0267 50.7812 15.08C50.6213 14.9733 50.5012 14.84 50.4212 14.68C50.3412 14.4933 50.2746 14.32 50.2212 14.16C50.1679 14 50.1279 13.8667 50.1012 13.76C50.1012 13.6533 50.1012 13.6133 50.1012 13.64C50.2346 13.4 50.3279 13.2267 50.3812 13.12C50.4346 12.9867 50.4613 12.8933 50.4613 12.84C50.4613 12.7867 50.4346 12.7467 50.3812 12.72C50.3546 12.6667 50.3279 12.5733 50.3013 12.44C50.1679 12.0667 50.1146 11.8267 50.1413 11.72C50.1679 11.5867 50.1012 11.4133 49.9412 11.2C50.1279 11.0933 50.2212 10.96 50.2212 10.8C50.2479 10.6133 50.2346 10.44 50.1812 10.28C50.1546 10.0933 50.1146 9.93333 50.0612 9.79999C50.0079 9.64 49.9946 9.54666 50.0212 9.52C50.0746 9.25333 50.1146 8.98666 50.1413 8.71999C50.1679 8.42666 50.2079 8.21333 50.2612 8.08C50.0746 8.18666 50.0212 8.13333 50.1012 7.92C50.1812 7.70666 50.1812 7.43999 50.1012 7.12L50.1413 6.6L49.7012 6.51999C49.8346 6.30666 49.9279 6.14666 49.9813 6.04C50.0613 5.93333 50.1279 5.83999 50.1812 5.75999C50.2346 5.65333 50.2879 5.54666 50.3413 5.44C50.4213 5.33333 50.5279 5.17333 50.6612 4.96C50.7412 4.85333 50.8079 4.76 50.8612 4.68C50.9146 4.6 50.9946 4.53333 51.1012 4.47999C51.2079 4.4 51.3412 4.34666 51.5012 4.32C51.6879 4.26666 51.9279 4.21333 52.2212 4.16C52.3546 4.26666 52.5279 4.41333 52.7412 4.59999C52.9812 4.78666 53.1679 4.96 53.3013 5.12C53.4079 5.12 53.4746 5.18666 53.5012 5.32C53.5546 5.42666 53.5812 5.56 53.5812 5.71999C53.5812 5.85333 53.5946 5.98666 53.6213 6.11999C53.6479 6.25333 53.7279 6.35999 53.8612 6.44C53.8346 6.70666 53.8079 6.92 53.7812 7.08C53.7546 7.24 53.8079 7.38666 53.9412 7.52C54.1546 7.86666 54.2212 8.18666 54.1412 8.47999C54.0612 8.77333 54.0346 9.03999 54.0612 9.27999C54.0346 9.51999 54.0213 9.77333 54.0213 10.04C54.0213 10.3067 54.1412 10.5867 54.3812 10.88C54.3012 10.9333 54.2612 11 54.2612 11.08C54.2612 11.16 54.2612 11.2533 54.2612 11.36C54.2612 11.44 54.2479 11.5333 54.2212 11.64C54.1946 11.72 54.1146 11.8 53.9813 11.88C54.0612 12.0133 54.1412 12.1333 54.2212 12.24C54.3012 12.32 54.3413 12.4133 54.3413 12.52C54.3679 12.6267 54.3412 12.76 54.2612 12.92C54.2079 13.0533 54.1013 13.24 53.9412 13.48C54.1279 13.5333 54.2479 13.6133 54.3013 13.72C54.3546 13.8 54.3812 13.8933 54.3812 14C54.4079 14.08 54.4212 14.1467 54.4212 14.2C54.4212 14.2533 54.4479 14.2667 54.5012 14.24C54.5546 14.6133 54.5546 14.92 54.5012 15.16C54.4746 15.4 54.4613 15.64 54.4613 15.88C54.5146 16.0667 54.5279 16.2667 54.5012 16.48C54.5012 16.6667 54.4879 16.8 54.4613 16.88C54.4613 17.4133 54.4613 17.7733 54.4613 17.96C54.4613 18.1467 54.3946 18.3733 54.2612 18.64C54.2346 18.6667 54.2079 18.8 54.1813 19.04C54.1813 19.28 54.2479 19.4267 54.3812 19.48C54.4612 19.7733 54.5012 20.1067 54.5012 20.48C54.5012 20.8533 54.5413 21.0267 54.6213 21C54.5679 21.1333 54.4879 21.32 54.3812 21.56C54.3012 21.7733 54.3546 22.0267 54.5412 22.32C54.6746 22.5333 54.7146 22.76 54.6612 23C54.6079 23.24 54.5812 23.4 54.5812 23.48C54.6346 23.6933 54.5946 23.9333 54.4613 24.2C54.3279 24.4667 54.3679 24.76 54.5812 25.08C54.3412 25.4 54.2479 25.6533 54.3013 25.84C54.3546 26 54.3146 26.1333 54.1813 26.24C54.2079 26.5067 54.2346 26.7867 54.2612 27.08C54.2879 27.3467 54.3013 27.56 54.3013 27.72C54.2479 27.8 54.2212 27.8667 54.2212 27.92C54.2479 27.9733 54.2746 28.0267 54.3013 28.08C54.3546 28.1067 54.3946 28.1467 54.4212 28.2C54.4479 28.2533 54.4479 28.3467 54.4212 28.48C54.3412 28.96 54.2879 29.28 54.2612 29.44C54.2346 29.6 54.3412 29.7467 54.5812 29.88C54.3412 30.3867 54.2079 30.8267 54.1813 31.2C54.1546 31.5733 54.1546 31.9867 54.1813 32.44C54.1279 33.0267 54.0879 33.4933 54.0612 33.84C54.0346 34.2133 53.9679 34.6533 53.8612 35.16C53.9146 35.5067 53.8079 35.7733 53.5412 35.96C53.3012 36.1467 52.8746 36.3067 52.2612 36.44C51.9146 36.5733 51.6479 36.5467 51.4613 36.36C51.3013 36.1733 51.0746 35.8533 50.7812 35.4C50.6479 35.3733 50.4879 35.28 50.3013 35.12C50.1146 34.96 50.0079 34.6267 49.9813 34.12C49.9813 34.1733 50.0212 34.1333 50.1012 34C50.2079 33.8667 50.2746 33.6267 50.3013 33.28C50.1679 33.1467 50.1279 32.9467 50.1812 32.68C50.2612 32.3867 50.4346 32.1733 50.7012 32.04C50.7012 31.9333 50.6746 31.84 50.6213 31.76C50.5679 31.68 50.5012 31.5867 50.4212 31.48C50.3679 31.3733 50.3146 31.2667 50.2612 31.16C50.2346 31.0267 50.2346 30.8533 50.2612 30.64C50.4746 30.4 50.5413 30.1067 50.4613 29.76C50.4079 29.4133 50.4479 29.0933 50.5812 28.8C50.3679 28.6933 50.2612 28.5867 50.2612 28.48C50.2612 28.3733 50.3946 28.04 50.6612 27.48C50.5546 27.3733 50.5146 27.2533 50.5412 27.12C50.5946 26.96 50.6879 26.64 50.8213 26.16C50.6613 26.16 50.5679 26.1467 50.5412 26.12C50.5412 26.0933 50.5546 26.04 50.5812 25.96C50.6079 25.8533 50.6346 25.7333 50.6612 25.6C50.7146 25.44 50.7146 25.2533 50.6612 25.04C50.6612 24.7733 50.6479 24.56 50.6213 24.4C50.5946 24.2133 50.4746 24.0667 50.2612 23.96C50.5279 23.48 50.6479 23.1333 50.6213 22.92C50.6213 22.68 50.6079 22.4667 50.5812 22.28C50.7146 21.9067 50.7412 21.6133 50.6612 21.4C50.6079 21.16 50.6346 20.9733 50.7412 20.84L48.5412 20.68L47.5412 20.8L47.0212 21.2C46.9946 21.0933 46.9146 21.0133 46.7812 20.96C46.6746 20.9067 46.5679 20.8667 46.4613 20.84C46.3812 20.7867 46.3146 20.7467 46.2612 20.72C46.2079 20.6667 46.2213 20.6 46.3013 20.52C46.2479 20.8133 46.2212 21.12 46.2212 21.44C46.2479 21.76 46.1812 22.0267 46.0212 22.24C46.0479 22.6133 45.9412 22.9467 45.7012 23.24C45.4879 23.5333 45.2746 23.8133 45.0612 24.08C44.9279 24.32 44.8479 24.48 44.8212 24.56C44.8212 24.6133 44.7946 24.6667 44.7412 24.72C44.7946 25.0933 44.7412 25.3867 44.5812 25.6C44.4479 25.7867 44.3546 25.9333 44.3013 26.04C43.9813 26.1733 43.7412 26.36 43.5812 26.6C43.4479 26.84 43.2612 27.1467 43.0212 27.52C43.1012 27.4933 43.0746 27.6267 42.9412 27.92C42.8079 28.1867 42.6479 28.3867 42.4612 28.52C42.2212 28.7067 42.0612 28.8667 41.9812 29C41.9012 29.1333 41.7546 29.28 41.5412 29.44C41.3546 29.4933 41.1679 29.6533 40.9813 29.92C40.8213 30.16 40.7146 30.2667 40.6612 30.24C40.6079 30.4267 40.5146 30.6 40.3812 30.76C40.2746 30.92 40.1679 31.0667 40.0612 31.2C39.9546 31.3333 39.8612 31.4533 39.7812 31.56C39.7013 31.64 39.6879 31.6933 39.7412 31.72C39.4746 31.9867 39.2079 32.1733 38.9412 32.28C38.7013 32.3867 38.4879 32.6533 38.3013 33.08L38.0212 33.28C37.9146 33.3867 37.8346 33.4533 37.7812 33.48C37.7546 33.5333 37.7146 33.5733 37.6612 33.6C37.6346 33.6267 37.5946 33.6667 37.5412 33.72C37.4879 33.8 37.4212 33.92 37.3412 34.08C37.2079 34.1333 36.9946 34.1333 36.7012 34.08C36.4346 34.0267 36.1812 34.04 35.9412 34.12C35.7279 34.12 35.5012 34.1333 35.2612 34.16C35.0212 34.2133 34.7412 34.0267 34.4212 33.6C34.2879 33.4133 34.1412 33.2533 33.9812 33.12C33.8212 32.9867 33.7412 32.7333 33.7412 32.36H34.0212Z" fill="#111111"/>
<path d="M25.3681 34.2L25.5681 33.52C25.4881 33.28 25.4881 32.9467 25.5681 32.52C25.6748 32.0933 25.6748 31.6933 25.5681 31.32C25.5948 31.2933 25.6081 31.2133 25.6081 31.08C25.6081 30.92 25.5948 30.76 25.5681 30.6C25.5681 30.4133 25.5681 30.2267 25.5681 30.04C25.5681 29.8533 25.5681 29.6933 25.5681 29.56C25.6215 29.32 25.6615 29.0533 25.6881 28.76C25.7148 28.4667 25.7281 28.2933 25.7281 28.24C25.8348 27.9733 25.8615 27.68 25.8081 27.36C25.7548 27.0133 25.8748 26.68 26.1681 26.36C25.9815 26.3333 25.8748 26.1467 25.8481 25.8C25.8481 25.4533 25.7681 25.16 25.6081 24.92C25.8748 24.4133 25.9148 24.04 25.7281 23.8C25.8348 23.6933 25.8881 23.5867 25.8881 23.48C25.8881 23.3733 25.8615 23.2667 25.8081 23.16C25.7815 23.0267 25.7415 22.8933 25.6881 22.76C25.6615 22.6 25.6481 22.4267 25.6481 22.24C25.6481 22.24 25.6348 21.7067 25.6081 20.64C25.7681 20.64 25.8615 20.52 25.8881 20.28C25.9148 20.04 25.9148 19.8933 25.8881 19.84C25.9148 19.6267 25.8881 19.3467 25.8081 19C25.7281 18.6533 25.6481 18.4533 25.5681 18.4C25.8081 18.08 25.8881 17.7733 25.8081 17.48C25.7548 17.1867 25.6348 17.04 25.4481 17.04C25.5015 16.8 25.5948 16.5067 25.7281 16.16C25.8615 15.7867 25.9015 15.4133 25.8481 15.04C25.7948 14.96 25.7815 14.84 25.8081 14.68C25.8615 14.4933 25.8748 14.1333 25.8481 13.6C25.7948 13.4933 25.7281 13.3067 25.6481 13.04C25.5681 12.7733 25.5015 12.4267 25.4481 12C25.6615 11.8933 25.7815 11.6267 25.8081 11.2C25.8348 10.7733 25.7015 10.3733 25.4081 10C25.3548 9.62667 25.3415 9.32 25.3681 9.08C25.4215 8.81334 25.3681 8.52001 25.2081 8.20001C25.4215 7.98667 25.5548 7.84001 25.6081 7.76C25.6615 7.65334 25.5815 7.49334 25.3681 7.28001L24.9681 6.48L25.4481 6.44001C25.3681 6.20001 25.3148 6.01334 25.2881 5.88001C25.2881 5.72001 25.3015 5.58667 25.3281 5.48001C25.3815 5.34667 25.4481 5.22667 25.5281 5.12001C25.6348 4.98667 25.7548 4.81334 25.8881 4.60001C26.0748 4.54667 26.2348 4.46667 26.3681 4.36001C26.5015 4.25334 26.7415 4.09334 27.0881 3.88C27.5148 4.17334 27.8615 4.40001 28.1281 4.56001C28.4215 4.69334 28.5948 4.69334 28.6481 4.56001C28.5681 4.77334 28.5548 5.04001 28.6081 5.36C28.6881 5.65334 28.7681 5.98667 28.8481 6.36001C29.1415 6.28001 29.2615 6.34667 29.2081 6.56001C29.1815 6.74667 29.1548 7.12001 29.1281 7.68001C29.2348 7.86667 29.3548 8.04001 29.4881 8.20001C29.6481 8.36001 29.7148 8.54667 29.6881 8.76001C29.6081 9.00001 29.5681 9.29334 29.5681 9.64C29.5948 9.96001 29.5281 10.2533 29.3681 10.52C29.4748 10.7333 29.5415 10.9333 29.5681 11.12C29.6215 11.28 29.5281 11.4533 29.2881 11.64C29.3415 11.7467 29.4348 11.9867 29.5681 12.36C29.7015 12.7067 29.7548 13.0267 29.7281 13.32C29.7015 13.2933 29.6748 13.4267 29.6481 13.72C29.6215 14.0133 29.7548 14.28 30.0481 14.52C29.7015 14.7867 29.5548 15 29.6081 15.16C29.6615 15.2933 29.7548 15.4267 29.8881 15.56C29.8081 15.8533 29.8081 16.1067 29.8881 16.32C29.9681 16.5067 29.9815 16.6133 29.9281 16.64C29.9281 16.8533 29.9015 17.0267 29.8481 17.16C29.7948 17.2667 29.7415 17.3867 29.6881 17.52C29.6615 17.6267 29.6481 17.7467 29.6481 17.88C29.6481 17.9867 29.6881 18.1467 29.7681 18.36C29.8481 18.6533 29.8348 18.9067 29.7281 19.12C29.6215 19.3333 29.5415 19.3733 29.4881 19.24C29.6481 19.4 29.7415 19.56 29.7681 19.72C29.8215 19.8533 29.8348 19.9867 29.8081 20.12C29.8081 20.2533 29.8081 20.3733 29.8081 20.48C29.8081 20.5867 29.8481 20.6933 29.9281 20.8C29.7681 21.2 29.7015 21.48 29.7281 21.64C29.7815 21.8 29.8615 21.96 29.9681 22.12C29.9415 22.2267 29.9148 22.3867 29.8881 22.6C29.8615 22.7867 29.7415 23.1067 29.5281 23.56C29.6081 23.56 29.6615 23.6267 29.6881 23.76C29.7148 23.8667 29.7281 24 29.7281 24.16C29.7548 24.32 29.7815 24.48 29.8081 24.64C29.8615 24.8 29.9281 24.92 30.0081 25C29.9548 25.08 29.9148 25.1467 29.8881 25.2C29.8881 25.2267 29.8748 25.28 29.8481 25.36C29.8481 25.4133 29.8215 25.5067 29.7681 25.64C29.7415 25.7733 29.6748 25.96 29.5681 26.2C29.7281 26.28 29.8348 26.4533 29.8881 26.72C29.9415 26.96 29.9148 27.2 29.8081 27.44C29.7548 27.4933 29.7015 27.5733 29.6481 27.68C29.5948 27.7867 29.5548 27.8933 29.5281 28C29.5281 28.08 29.5148 28.16 29.4881 28.24C29.4881 28.32 29.5015 28.3333 29.5281 28.28C29.6081 28.52 29.6748 28.7067 29.7281 28.84C29.7815 28.9733 29.8215 29.1067 29.8481 29.24C29.8748 29.3467 29.8748 29.48 29.8481 29.64C29.8481 29.7733 29.7948 29.9467 29.6881 30.16C29.7148 30.16 29.7281 30.2267 29.7281 30.36C29.7548 30.4933 29.7681 30.6533 29.7681 30.84C29.7681 31.0267 29.7415 31.2133 29.6881 31.4C29.6348 31.5867 29.5681 31.7333 29.4881 31.84C29.6748 32.32 29.7548 32.8133 29.7281 33.32C29.7281 33.8267 29.7415 34.3333 29.7681 34.84C29.7415 34.8667 29.6748 34.92 29.5681 35C29.4881 35.1067 29.3948 35.2 29.2881 35.28C29.2081 35.3867 29.1415 35.4533 29.0881 35.48C29.0615 35.5067 29.0881 35.48 29.1681 35.4C28.9548 35.4533 28.7548 35.52 28.5681 35.6C28.4081 35.7067 28.2615 35.8133 28.1281 35.92C27.9948 36.0267 27.8748 36.1067 27.7681 36.16C27.6881 36.24 27.6081 36.2667 27.5281 36.24C27.3415 35.9733 27.0748 35.8133 26.7281 35.76C26.4081 35.7333 26.0748 35.6667 25.7281 35.56C25.7815 35.56 25.7948 35.5067 25.7681 35.4C25.7415 35.32 25.7015 35.2133 25.6481 35.08C25.6215 34.9467 25.5815 34.8 25.5281 34.64C25.4748 34.5067 25.4615 34.3733 25.4881 34.24L25.3681 34.2ZM6.84815 27.76C6.79481 27.9467 6.79481 28.12 6.84815 28.28C6.92814 28.4133 7.02148 28.5333 7.12814 28.64C7.26148 28.7467 7.38148 28.8267 7.48814 28.88C7.62148 28.9333 7.72814 28.96 7.80814 28.96C8.02148 29.1733 8.22148 29.36 8.40814 29.52C8.62148 29.68 9.02148 29.68 9.60814 29.52C9.71481 29.52 9.80815 29.5467 9.88815 29.6C9.99481 29.6533 10.0881 29.7067 10.1681 29.76C10.2481 29.7867 10.3281 29.8 10.4081 29.8C10.5148 29.8 10.6215 29.7333 10.7281 29.6C10.8881 29.4933 10.9948 29.4133 11.0481 29.36C11.1281 29.3067 11.1948 29.2533 11.2481 29.2C11.3015 29.1467 11.3815 29.08 11.4881 29C11.5948 28.92 11.7815 28.7867 12.0481 28.6C12.0215 28.4667 12.0481 28.3867 12.1281 28.36C12.2348 28.3067 12.2881 28.1333 12.2881 27.84C12.4215 27.68 12.4881 27.5467 12.4881 27.44C12.4881 27.3067 12.5281 27.1867 12.6081 27.08C12.5548 26.7867 12.5281 26.5733 12.5281 26.44C12.5548 26.28 12.5815 26.1467 12.6081 26.04C12.6615 25.9067 12.7148 25.7733 12.7681 25.64C12.8215 25.5067 12.8748 25.3067 12.9281 25.04C12.9548 25.0667 12.9548 25.0533 12.9281 25C12.9281 24.92 12.9148 24.84 12.8881 24.76C12.8881 24.6533 12.8881 24.5467 12.8881 24.44C12.8881 24.3067 12.9148 24.2 12.9681 24.12C12.8615 24.04 12.8081 23.9333 12.8081 23.8C12.8081 23.64 12.8215 23.48 12.8481 23.32C12.8748 23.16 12.8748 23.0267 12.8481 22.92C12.8481 22.8133 12.7948 22.76 12.6881 22.76C12.9015 22.44 12.9948 22.1467 12.9681 21.88C12.9415 21.5867 12.9948 21.3067 13.1281 21.04C13.1815 20.9867 13.1815 20.9333 13.1281 20.88C13.1015 20.8267 13.0615 20.76 13.0081 20.68C12.9815 20.6 12.9681 20.5067 12.9681 20.4C12.9681 20.2667 13.0348 20.12 13.1681 19.96C13.1948 19.8533 13.1948 19.76 13.1681 19.68C13.1415 19.6 13.1281 19.5067 13.1281 19.4C13.1281 19.2933 13.1281 19.1733 13.1281 19.04C13.1548 18.88 13.2215 18.6933 13.3281 18.48C13.1681 18.4533 13.0748 18.4 13.0481 18.32C13.0215 18.2133 13.0081 18.1067 13.0081 18C13.0348 17.8667 13.0748 17.7467 13.1281 17.64C13.1815 17.5333 13.2215 17.44 13.2481 17.36C12.9548 16.9867 12.7948 16.7333 12.7681 16.6C12.7415 16.44 12.8348 16.2267 13.0481 15.96C13.0215 15.56 12.9548 15.28 12.8481 15.12C12.7681 14.96 12.6348 14.7333 12.4481 14.44C12.5548 14.1733 12.6481 13.9333 12.7281 13.72C12.8348 13.5067 12.8481 13.4267 12.7681 13.48C12.6081 13.3733 12.5148 13.2533 12.4881 13.12C12.4615 12.9867 12.4481 12.8533 12.4481 12.72C12.4748 12.56 12.5015 12.4 12.5281 12.24C12.5548 12.08 12.5681 11.92 12.5681 11.76C12.2481 11.76 12.0615 11.68 12.0081 11.52C11.9815 11.3333 11.9415 11.0533 11.8881 10.68C11.6748 10.7067 11.5281 10.72 11.4481 10.72C11.3681 10.72 11.3015 10.7067 11.2481 10.68C11.1948 10.6267 11.1281 10.56 11.0481 10.48C10.9681 10.4 10.8348 10.28 10.6481 10.12C10.2748 10.2 10.0215 10.1867 9.88815 10.08C9.78148 9.97334 9.66148 9.94667 9.52815 10C9.15481 9.89334 8.86148 9.88 8.64815 9.96001C8.46148 10.04 8.24815 10.16 8.00814 10.32C7.66148 10.5067 7.39481 10.7333 7.20814 11C7.04814 11.24 6.79481 11.5733 6.44814 12C6.58148 12.2133 6.59481 12.4267 6.48814 12.64C6.38148 12.8267 6.35481 13.0667 6.40814 13.36C6.38148 13.76 6.39481 14.1467 6.44814 14.52C6.50148 14.8933 6.56814 15.1067 6.64814 15.16C6.40814 15.6133 6.27481 15.96 6.24815 16.2C6.24815 16.4133 6.22148 16.5867 6.16814 16.72C6.40814 17.0667 6.51481 17.3467 6.48814 17.56C6.48814 17.7733 6.32814 17.9067 6.00814 17.96C6.22148 18.3333 6.35481 18.68 6.40814 19C6.48814 19.32 6.40814 19.6133 6.16814 19.88C6.11481 19.8267 6.10148 19.8133 6.12814 19.84C6.18148 19.8667 6.23481 19.9333 6.28814 20.04C6.34148 20.12 6.38148 20.2267 6.40814 20.36C6.43481 20.4933 6.40814 20.64 6.32814 20.8C6.27481 20.9867 6.23481 21.24 6.20814 21.56C6.18148 21.8533 6.10148 22 5.96814 22C5.99481 22.24 6.00814 22.44 6.00814 22.6C6.03481 22.76 6.06148 22.9067 6.08814 23.04C6.11481 23.1467 6.15481 23.2667 6.20814 23.4C6.28814 23.5067 6.39481 23.64 6.52814 23.8C6.60814 24.04 6.64814 24.3067 6.64814 24.6C6.64814 24.8933 6.67481 25.1067 6.72814 25.24C6.62148 25.4533 6.58148 25.64 6.60814 25.8C6.63481 25.96 6.56814 26.0933 6.40814 26.2C6.54148 26.5467 6.60814 26.8667 6.60814 27.16C6.60814 27.4267 6.67481 27.6133 6.80815 27.72L6.84815 27.76ZM3.28814 30.36C3.26148 30.1467 3.18148 29.9333 3.04814 29.72C2.94148 29.5067 2.95481 29.3333 3.08814 29.2C2.79481 28.96 2.60814 28.7467 2.52814 28.56C2.47481 28.3733 2.47481 28.04 2.52814 27.56C2.60814 27.4267 2.64814 27.3333 2.64814 27.28C2.64814 27.2 2.64814 27.12 2.64814 27.04C2.64814 26.96 2.64814 26.8667 2.64814 26.76C2.64814 26.6267 2.68814 26.44 2.76814 26.2C2.42148 25.9333 2.20814 25.7467 2.12814 25.64C2.07481 25.5333 2.07481 25.2667 2.12814 24.84C2.12814 24.7067 2.11481 24.5467 2.08814 24.36C2.06148 24.1733 2.10148 23.9467 2.20814 23.68C2.31481 23.5467 2.34148 23.3733 2.28814 23.16C2.23481 22.92 2.23481 22.5733 2.28814 22.12C2.23481 21.96 2.16814 21.8 2.08814 21.64C2.03481 21.4533 1.95481 21.2133 1.84814 20.92C2.11481 20.7867 2.24814 20.6133 2.24814 20.4C2.27481 20.1867 2.26148 19.9067 2.20814 19.56C1.99481 19.6667 1.88814 19.64 1.88814 19.48C1.91481 19.2933 1.90148 19.0533 1.84814 18.76C1.95481 18.4667 2.04814 18.2267 2.12814 18.04C2.20814 17.8267 2.19481 17.6533 2.08814 17.52C2.14148 17.36 2.12814 17.12 2.04814 16.8C1.96814 16.4533 2.00814 16.1467 2.16814 15.88C2.38148 15.8533 2.48814 15.7067 2.48814 15.44C2.51481 15.1733 2.52814 14.9733 2.52814 14.84C2.07481 14.7067 2.07481 14.2533 2.52814 13.48C2.60814 13.2667 2.64814 13.1067 2.64814 13C2.64814 12.8933 2.63481 12.8 2.60814 12.72C2.60814 12.6133 2.59481 12.4933 2.56814 12.36C2.54148 12.2267 2.54148 12.0133 2.56814 11.72C2.78148 11.7467 2.91481 11.64 2.96814 11.4C3.04814 11.16 3.11481 10.8933 3.16814 10.6C3.27481 10.6533 3.32814 10.5333 3.32814 10.24C3.35481 9.94667 3.48814 9.69334 3.72814 9.48001C3.59481 9.42667 3.60814 9.26667 3.76814 9.00001C3.92814 8.70667 4.14148 8.41334 4.40814 8.12001C4.43481 7.98667 4.52814 7.85334 4.68814 7.72001C4.84814 7.56001 4.91481 7.56001 4.88814 7.72001C5.34148 7.42667 5.63481 7.21334 5.76814 7.08001C5.92814 6.94667 6.03481 6.89334 6.08814 6.92001C6.30148 6.76001 6.46148 6.65334 6.56815 6.60001C6.70148 6.54667 6.82148 6.50667 6.92814 6.48C7.03481 6.45334 7.12814 6.42667 7.20814 6.40001C7.31481 6.37334 7.43481 6.29334 7.56814 6.16001C7.83481 6.29334 8.03481 6.38667 8.16814 6.44001C8.30148 6.46667 8.42148 6.48 8.52815 6.48C8.66148 6.48 8.80814 6.48 8.96814 6.48C9.12814 6.48 9.35481 6.49334 9.64814 6.52C9.86148 6.44001 10.0881 6.37334 10.3281 6.32C10.5681 6.24001 10.8215 6.30667 11.0881 6.52C11.2215 6.70667 11.3681 6.81334 11.5281 6.84C11.6881 6.84 11.9415 6.85334 12.2881 6.88C12.5015 7.04001 12.7415 7.17334 13.0081 7.28001C13.3015 7.38667 13.5548 7.50667 13.7681 7.64001C13.9015 7.53334 14.0081 7.53334 14.0881 7.64001C14.1948 7.74667 14.4348 7.78667 14.8081 7.76C14.7015 7.89334 14.6881 8.10667 14.7681 8.40001C14.8481 8.66667 15.0615 8.86667 15.4081 9.00001C15.4615 9.16001 15.5281 9.30667 15.6081 9.44C15.6881 9.54667 15.7148 9.81334 15.6881 10.24C15.7415 10.3467 15.8215 10.52 15.9281 10.76C16.0615 11 16.0881 11.1867 16.0081 11.32C16.3015 11.4 16.5015 11.6267 16.6081 12C16.7148 12.3467 16.6481 12.6267 16.4081 12.84C16.6215 13.0267 16.7815 13.16 16.8881 13.24C16.9948 13.2933 17.0881 13.4133 17.1681 13.6C17.0348 14.16 16.9815 14.5733 17.0081 14.84C17.0348 15.08 16.9681 15.32 16.8081 15.56C16.8881 15.9067 16.9281 16.2 16.9281 16.44C16.9548 16.6533 16.8881 16.9467 16.7281 17.32H18.4881L20.0481 17.24C19.7815 16.9733 19.6881 16.76 19.7681 16.6C19.8748 16.44 19.9948 16.1467 20.1281 15.72C20.0481 15.7467 19.9815 15.6667 19.9281 15.48C19.9015 15.2933 19.9148 15.0533 19.9681 14.76C19.9148 14.7067 19.8748 14.6133 19.8481 14.48C19.8215 14.3467 19.8081 14.2133 19.8081 14.08C19.8081 13.92 19.7948 13.7733 19.7681 13.64C19.7415 13.5067 19.7015 13.4 19.6481 13.32C19.8348 13.32 19.9148 13.1867 19.8881 12.92C19.8881 12.6267 19.8748 12.2933 19.8481 11.92C19.8215 11.8667 19.7815 11.7867 19.7281 11.68C19.6748 11.5467 19.6215 11.4133 19.5681 11.28C19.5415 11.1467 19.5281 11.0267 19.5281 10.92C19.5281 10.8133 19.5681 10.7467 19.6481 10.72C19.7281 10.4 19.7548 10.1333 19.7281 9.92001C19.7281 9.68001 19.7148 9.46667 19.6881 9.28C19.6615 9.09334 19.6481 8.92001 19.6481 8.76001C19.6481 8.57334 19.6881 8.37334 19.7681 8.16C19.7415 8.26667 19.6881 8.20001 19.6081 7.96C19.5548 7.72 19.4081 7.48 19.1681 7.24L19.2481 6.48L19.0881 6.40001C19.1415 6.08001 19.2615 5.84001 19.4481 5.68001C19.6615 5.52001 19.9015 5.22667 20.1681 4.8C20.0081 4.61334 20.0348 4.53334 20.2481 4.56001C20.4615 4.56001 20.6348 4.53334 20.7681 4.48C21.0081 4.48 21.2081 4.52 21.3681 4.60001C21.5281 4.65334 21.6615 4.70667 21.7681 4.76001C21.9015 4.81334 22.0215 4.85334 22.1281 4.88001C22.2615 4.90667 22.3948 4.89334 22.5281 4.84C22.6348 5.02667 22.7281 5.17334 22.8081 5.28001C22.9148 5.38667 22.9815 5.50667 23.0081 5.64001C23.0615 5.74667 23.0881 5.88001 23.0881 6.04001C23.0881 6.17334 23.0481 6.36001 22.9681 6.60001C22.9948 6.49334 23.0215 6.46667 23.0481 6.52C23.1015 6.57334 23.1415 6.66667 23.1681 6.80001C23.1948 6.90667 23.2081 7.02667 23.2081 7.16001C23.2348 7.29334 23.2615 7.38667 23.2881 7.44C23.2081 7.65334 23.1815 7.82667 23.2081 7.96C23.2348 8.06667 23.2615 8.17334 23.2881 8.28001C23.3415 8.38667 23.3548 8.50667 23.3281 8.64001C23.3281 8.77334 23.2748 8.96001 23.1681 9.20001C23.2215 9.25334 23.2615 9.45334 23.2881 9.8C23.3415 10.1467 23.3415 10.4267 23.2881 10.64C23.8748 11.2533 23.9015 11.64 23.3681 11.8C23.2081 12.2 23.2081 12.7867 23.3681 13.56C23.6348 13.5333 23.7415 13.6 23.6881 13.76C23.6615 13.92 23.7148 14.2267 23.8481 14.68C23.9281 14.7867 23.9015 14.9733 23.7681 15.24C23.6348 15.48 23.5148 15.6 23.4081 15.6C23.6215 15.9733 23.7681 16.2667 23.8481 16.48C23.9548 16.6933 23.9815 16.8933 23.9281 17.08C23.9548 17.2133 23.9415 17.36 23.8881 17.52C23.8615 17.6533 23.8215 17.8 23.7681 17.96C23.7415 18.12 23.7148 18.28 23.6881 18.44C23.6881 18.6 23.7415 18.7333 23.8481 18.84C23.7681 18.7867 23.7148 18.8 23.6881 18.88C23.6615 18.9333 23.6481 19.0267 23.6481 19.16C23.6481 19.2933 23.6481 19.44 23.6481 19.6C23.6481 19.7333 23.6348 19.84 23.6081 19.92C23.8215 20.0533 23.9281 20.2133 23.9281 20.4C23.9281 20.56 23.8081 20.84 23.5681 21.24C23.5148 21.3733 23.5148 21.4933 23.5681 21.6C23.6215 21.68 23.6615 21.7733 23.6881 21.88C23.7148 21.9867 23.7148 22.1067 23.6881 22.24C23.6615 22.3733 23.5681 22.5333 23.4081 22.72C23.5415 22.96 23.6081 23.1067 23.6081 23.16C23.6348 23.1867 23.6348 23.2667 23.6081 23.4C23.6348 23.6133 23.6081 23.88 23.5281 24.2C23.4748 24.4933 23.5148 24.7067 23.6481 24.84C23.6481 25.2933 23.6348 25.5467 23.6081 25.6C23.6081 25.6267 23.6215 25.7067 23.6481 25.84C23.8348 26.2667 23.8748 26.5467 23.7681 26.68C23.6615 26.8133 23.5815 26.9467 23.5281 27.08C23.5015 27.56 23.4881 27.9067 23.4881 28.12C23.4881 28.3333 23.6748 28.4933 24.0481 28.6C23.9148 28.7333 23.8215 28.9333 23.7681 29.2C23.7148 29.44 23.7415 29.6667 23.8481 29.88C23.7948 30.2 23.7148 30.6 23.6081 31.08C23.5281 31.56 23.5548 32.04 23.6881 32.52C23.6881 32.68 23.6615 32.8667 23.6081 33.08C23.5548 33.32 23.5015 33.5467 23.4481 33.76C23.3948 34 23.3415 34.2 23.2881 34.36C23.2615 34.52 23.2748 34.6133 23.3281 34.64C23.3281 34.8 23.2748 34.96 23.1681 35.12C23.0881 35.3067 22.9815 35.48 22.8481 35.64C22.7148 35.8 22.5548 35.9333 22.3681 36.04C22.2081 36.1467 22.0348 36.1867 21.8481 36.16C21.7148 36.16 21.5548 36.1733 21.3681 36.2C21.1815 36.2267 20.9948 36.2267 20.8081 36.2C20.6481 36.1733 20.5015 36.0933 20.3681 35.96C20.2348 35.8533 20.1548 35.6667 20.1281 35.4C19.8881 35.3733 19.7948 35.1467 19.8481 34.72C19.8215 34.5333 19.7815 34.2667 19.7281 33.92C19.7015 33.6 19.6348 33.32 19.5281 33.08C19.5548 32.8133 19.6481 32.6267 19.8081 32.52C19.9681 32.3867 20.0348 32.1867 20.0081 31.92C20.0081 31.7067 19.9815 31.5467 19.9281 31.44C19.9015 31.3333 19.8615 31.24 19.8081 31.16C19.7815 31.08 19.7681 31 19.7681 30.92C19.7681 30.8133 19.8081 30.68 19.8881 30.52C19.9948 30.3067 20.0081 30.08 19.9281 29.84C19.8748 29.6 19.8215 29.44 19.7681 29.36C19.7148 29.0667 19.6481 28.76 19.5681 28.44C19.5148 28.12 19.5281 27.7733 19.6081 27.4C19.7148 27.3733 19.7681 27.32 19.7681 27.24C19.7948 27.16 19.7815 27.08 19.7281 27C19.7015 26.8933 19.6615 26.7867 19.6081 26.68C19.5815 26.5467 19.5815 26.44 19.6081 26.36C19.7415 26.2 19.8215 26.0533 19.8481 25.92C19.8748 25.76 19.8881 25.6133 19.8881 25.48C19.8881 25.32 19.8748 25.1867 19.8481 25.08C19.8481 24.9733 19.8748 24.88 19.9281 24.8C19.9815 24.5333 20.0081 24.3067 20.0081 24.12C20.0081 23.9333 19.8481 23.7067 19.5281 23.44C19.5281 23.4133 19.5681 23.3467 19.6481 23.24C19.7281 23.1333 19.8081 23.0133 19.8881 22.88C19.9681 22.72 20.0348 22.5867 20.0881 22.48C20.1415 22.3467 20.1681 22.2533 20.1681 22.2C19.8748 22.1467 19.7148 22 19.6881 21.76C19.6881 21.4933 19.6615 21.32 19.6081 21.24L18.4881 20.6L17.0081 20.56C16.9548 20.9333 16.9015 21.28 16.8481 21.6C16.7948 21.8933 16.8348 22.1333 16.9681 22.32C16.8348 22.4 16.8081 22.5867 16.8881 22.88C16.9948 23.1733 17.0215 23.5867 16.9681 24.12C17.0215 24.12 17.0481 24.1733 17.0481 24.28C17.0748 24.36 17.0881 24.4667 17.0881 24.6C17.0881 24.7067 17.0748 24.8133 17.0481 24.92C17.0481 25.0267 17.0615 25.08 17.0881 25.08C16.9281 25.2133 16.8081 25.36 16.7281 25.52C16.6748 25.68 16.6348 25.84 16.6081 26C16.5815 26.1333 16.5415 26.2533 16.4881 26.36C16.4615 26.4667 16.4081 26.5467 16.3281 26.6C16.4081 26.9733 16.3815 27.3067 16.2481 27.6C16.1415 27.8667 16.0215 28.1733 15.8881 28.52C15.8348 28.6533 15.8481 28.8667 15.9281 29.16C16.0081 29.4267 15.9415 29.68 15.7281 29.92C15.7548 30.2667 15.6881 30.5333 15.5281 30.72C15.3948 30.9067 15.1681 31.1467 14.8481 31.44C14.7948 31.5733 14.6481 31.6933 14.4081 31.8C14.1681 31.88 14.0215 31.8533 13.9681 31.72C13.9948 31.9333 13.9681 32.1067 13.8881 32.24C13.8081 32.3467 13.7148 32.4533 13.6081 32.56C13.5281 32.64 13.4615 32.7333 13.4081 32.84C13.3548 32.92 13.3681 33.0133 13.4481 33.12C13.2615 33.12 13.0081 33.1333 12.6881 33.16C12.3948 33.1867 12.1148 33.2533 11.8481 33.36C11.8215 33.3067 11.7815 33.2933 11.7281 33.32C11.6748 33.3467 11.6081 33.3733 11.5281 33.4C11.4481 33.4533 11.3548 33.48 11.2481 33.48C11.1681 33.48 11.0881 33.4267 11.0081 33.32C10.5815 33.5333 10.2481 33.6133 10.0081 33.56C9.76814 33.5067 9.54148 33.48 9.32814 33.48C9.03481 33.3733 8.79481 33.36 8.60815 33.44C8.42148 33.5467 8.11481 33.6533 7.68815 33.76C7.63481 33.6 7.54148 33.4533 7.40814 33.32C7.27481 33.2133 7.12814 33.12 6.96814 33.04C6.83481 32.9867 6.70148 32.96 6.56815 32.96C6.46148 32.96 6.39481 32.9733 6.36814 33C6.23481 32.84 6.06148 32.72 5.84815 32.64C5.63481 32.5333 5.31481 32.3067 4.88814 31.96C4.94148 31.7467 4.59481 31.4267 3.84814 31C3.79481 31.08 3.75481 31.0533 3.72814 30.92C3.72814 30.76 3.60814 30.4667 3.36814 30.04L3.28814 30.36Z" fill="#111111"/>
</svg>
