<svg width="103" height="20" viewBox="0 0 103 20" fill="none" xmlns="http://www.w3.org/2000/svg">
<path d="M91.2688 14.14C91.0821 14.1667 90.9221 14.1867 90.7888 14.2C90.6688 14.2133 90.5421 14.0933 90.4088 13.84C90.3555 13.7467 90.3288 13.6667 90.3288 13.6C90.3288 13.5333 90.2688 13.4 90.1488 13.2C90.1355 13.1067 90.1421 13.0333 90.1688 12.98C90.2088 12.9267 90.2421 12.88 90.2688 12.84C90.3088 12.8 90.3288 12.76 90.3288 12.72C90.3421 12.68 90.3221 12.6333 90.2688 12.58C90.3355 12.54 90.3888 12.52 90.4288 12.52C90.4821 12.5067 90.5355 12.5 90.5888 12.5C90.6555 12.4867 90.7221 12.4667 90.7888 12.44C90.8688 12.4133 90.9621 12.3667 91.0688 12.3L91.4488 12.44C91.5821 12.44 91.7021 12.4467 91.8088 12.46C91.9155 12.46 92.0621 12.46 92.2488 12.46C92.3155 12.46 92.4488 12.5067 92.6488 12.6C92.8488 12.6933 93.0688 12.72 93.3088 12.68C93.3355 12.7067 93.4155 12.6933 93.5488 12.64C93.6821 12.5867 93.7821 12.5467 93.8488 12.52C93.9288 12.5067 94.0021 12.5067 94.0688 12.52C94.1355 12.5333 94.1955 12.5533 94.2488 12.58C94.3155 12.5933 94.3821 12.6067 94.4488 12.62C94.5288 12.6333 94.6221 12.6267 94.7288 12.6C94.7288 12.6267 94.8155 12.64 94.9888 12.64C95.1755 12.64 95.3421 12.6733 95.4888 12.74C95.4888 12.6733 95.5421 12.6267 95.6488 12.6C95.7688 12.56 95.9555 12.5933 96.2088 12.7C96.2488 12.62 96.2821 12.5667 96.3088 12.54C96.3355 12.5133 96.3688 12.5 96.4088 12.5C96.4621 12.4867 96.5155 12.48 96.5688 12.48C96.6355 12.4667 96.7221 12.44 96.8288 12.4C96.9621 12.4667 97.0421 12.54 97.0688 12.62C97.1088 12.6867 97.2288 12.7133 97.4288 12.7C97.4821 12.6333 97.5621 12.5733 97.6688 12.52C97.7755 12.4533 97.8955 12.4933 98.0288 12.64C98.1621 12.5867 98.2688 12.5467 98.3488 12.52C98.4288 12.4933 98.5021 12.4733 98.5688 12.46C98.6355 12.4467 98.7021 12.44 98.7688 12.44C98.8488 12.44 98.9621 12.44 99.1088 12.44C99.2288 12.4 99.3755 12.38 99.5488 12.38C99.7221 12.3667 99.8355 12.3067 99.8888 12.2C100.075 12.1733 100.249 12.2133 100.409 12.32C100.582 12.4133 100.702 12.5533 100.769 12.74C100.915 12.8067 101.035 12.8667 101.129 12.92C101.235 12.96 101.315 13.0867 101.369 13.3C101.395 13.3933 101.429 13.5267 101.469 13.7C101.522 13.8733 101.495 13.9933 101.389 14.06L101.409 15.12C101.462 15.2 101.495 15.3 101.509 15.42C101.522 15.54 101.455 15.6267 101.309 15.68L101.329 17.08C101.262 17.04 101.255 17.0667 101.309 17.16C101.375 17.2667 101.355 17.4133 101.249 17.6C101.329 17.7067 101.342 17.7867 101.289 17.84C101.235 17.8933 101.215 17.92 101.229 17.92C101.135 18.1067 101.015 18.2533 100.869 18.36C100.722 18.4667 100.589 18.5133 100.469 18.5C100.322 18.46 100.169 18.42 100.009 18.38C99.8621 18.34 99.7088 18.2333 99.5488 18.06C99.5755 17.9667 99.5688 17.8867 99.5288 17.82C99.5021 17.7533 99.4688 17.7 99.4288 17.66C99.4021 17.62 99.3821 17.5867 99.3688 17.56C99.3555 17.5333 99.3888 17.5067 99.4688 17.48C99.4288 17.2 99.3955 16.9933 99.3688 16.86C99.3555 16.74 99.3021 16.6133 99.2088 16.48C99.3155 16.3733 99.3688 16.2667 99.3688 16.16C99.3821 16.0533 99.4621 15.8867 99.6088 15.66C99.5421 15.66 99.5021 15.6467 99.4888 15.62C99.4888 15.58 99.4821 15.54 99.4688 15.5C99.4688 15.4467 99.4555 15.3933 99.4288 15.34C99.4155 15.2733 99.3755 15.2067 99.3088 15.14L99.3888 14.94C99.4288 14.8867 99.4421 14.84 99.4288 14.8C99.4288 14.7467 99.4288 14.7 99.4288 14.66C99.4288 14.62 99.4355 14.5933 99.4488 14.58C99.4621 14.5533 99.5021 14.5467 99.5688 14.56L99.2888 14.22L99.2088 14.18C99.0888 14.1533 98.9555 14.1667 98.8088 14.22C98.6755 14.26 98.5621 14.2467 98.4688 14.18C98.4421 14.3267 98.3621 14.4 98.2288 14.4C98.0955 14.3867 97.8888 14.4067 97.6088 14.46C97.6355 14.4733 97.5888 14.4467 97.4688 14.38C97.3621 14.3133 97.2021 14.2867 96.9888 14.3C96.9355 14.3533 96.8621 14.3933 96.7688 14.42C96.6888 14.4333 96.5955 14.4467 96.4888 14.46C96.3955 14.46 96.3021 14.4733 96.2088 14.5C96.1155 14.5133 96.0355 14.5467 95.9688 14.6C95.9421 14.4933 95.8621 14.4267 95.7288 14.4C95.6088 14.36 95.5088 14.3733 95.4288 14.44C95.3088 14.3867 95.1488 14.3733 94.9488 14.4C94.7621 14.4133 94.6221 14.4467 94.5288 14.5C94.4888 14.4467 94.4221 14.42 94.3288 14.42C94.2488 14.4067 94.1088 14.44 93.9088 14.52C93.8288 14.4667 93.7688 14.4467 93.7288 14.46C93.6888 14.46 93.6488 14.4733 93.6088 14.5C93.5821 14.5133 93.5421 14.5333 93.4888 14.56C93.4355 14.5733 93.3555 14.5667 93.2488 14.54C93.1021 14.54 92.9621 14.5467 92.8288 14.56C92.6955 14.56 92.5888 14.5467 92.5088 14.52C92.4288 14.4267 92.3355 14.3933 92.2288 14.42C92.1221 14.4467 92.0155 14.4333 91.9088 14.38C91.7355 14.3 91.5755 14.26 91.4288 14.26C91.2955 14.2467 91.2088 14.26 91.1688 14.3L91.2688 14.14ZM95.9288 6.12C95.9555 6.09334 96.0021 6.03334 96.0688 5.94C96.1355 5.84667 96.1755 5.7 96.1888 5.5C96.2155 5.36667 96.2888 5.32 96.4088 5.36C96.5421 5.4 96.6688 5.40667 96.7888 5.38L97.7688 5.24L98.2488 5.2L99.0488 5.32H99.9888C99.8021 5.24 99.7021 5.1 99.6888 4.9C99.6755 4.68667 99.7421 4.52667 99.8888 4.42C99.8621 4.26 99.8155 4.14667 99.7488 4.08C99.6821 4.01334 99.6821 3.94 99.7488 3.86C99.6555 3.71334 99.6088 3.54 99.6088 3.34C99.6088 3.12667 99.5821 2.96667 99.5288 2.86C99.5821 2.75334 99.6021 2.65334 99.5888 2.56C99.5888 2.46667 99.5621 2.40667 99.5088 2.38C99.5355 2.22 99.5688 2.09334 99.6088 2C99.6488 1.89334 99.7221 1.77334 99.8288 1.64C99.9088 1.61334 100.062 1.58 100.289 1.54C100.515 1.5 100.689 1.48667 100.809 1.5C100.915 1.34 100.989 1.27334 101.029 1.3C101.082 1.31334 101.169 1.39334 101.289 1.54C101.369 1.63334 101.442 1.72 101.509 1.8C101.575 1.88 101.662 2.02667 101.769 2.24C101.622 2.36 101.535 2.44667 101.509 2.5C101.482 2.54 101.495 2.6 101.549 2.68C101.509 2.90667 101.502 3.08 101.529 3.2C101.569 3.32 101.575 3.46 101.549 3.62C101.562 3.63334 101.569 3.67334 101.569 3.74C101.569 3.80667 101.562 3.88667 101.549 3.98C101.535 4.06 101.522 4.14 101.509 4.22C101.495 4.3 101.489 4.36 101.489 4.4C101.502 4.42667 101.529 4.46667 101.569 4.52C101.609 4.56 101.642 4.60667 101.669 4.66C101.695 4.71334 101.709 4.76 101.709 4.8C101.709 4.82667 101.689 4.83334 101.649 4.82C101.635 5.00667 101.629 5.18 101.629 5.34C101.629 5.48667 101.589 5.56 101.509 5.56C101.655 5.69334 101.749 5.84 101.789 6C101.829 6.16 101.835 6.31334 101.809 6.46C101.662 6.59334 101.575 6.78667 101.549 7.04C101.535 7.28 101.542 7.51334 101.569 7.74C101.702 7.95334 101.755 8.15334 101.729 8.34C101.715 8.51334 101.722 8.68667 101.749 8.86L101.609 9.54C101.582 9.68667 101.562 9.80667 101.549 9.9C101.549 9.98 101.549 10.0533 101.549 10.12C101.549 10.1733 101.542 10.2333 101.529 10.3C101.529 10.3667 101.515 10.4533 101.489 10.56C101.462 10.56 101.442 10.5867 101.429 10.64C101.415 10.68 101.395 10.7333 101.369 10.8C101.355 10.8533 101.329 10.9067 101.289 10.96C101.262 11.0133 101.222 11.04 101.169 11.04C101.062 11.1067 100.969 11.1933 100.889 11.3C100.809 11.4067 100.669 11.4067 100.469 11.3C100.389 11.2467 100.289 11.22 100.169 11.22C100.062 11.22 99.9155 11.1667 99.7288 11.06C99.7955 10.9933 99.8021 10.92 99.7488 10.84C99.7088 10.76 99.6355 10.6333 99.5288 10.46C99.6221 10.34 99.6555 10.2333 99.6288 10.14C99.6155 10.0467 99.5955 9.93334 99.5688 9.8C99.7555 9.54667 99.8488 9.34667 99.8488 9.2C99.8488 9.05334 99.7955 8.9 99.6888 8.74C99.7555 8.7 99.7955 8.65334 99.8088 8.6C99.8221 8.54667 99.8288 8.48667 99.8288 8.42C99.8421 8.35334 99.8555 8.28667 99.8688 8.22C99.8955 8.14 99.9421 8.06667 100.009 8C99.8355 7.89334 99.7421 7.78 99.7288 7.66C99.7155 7.52667 99.7288 7.35334 99.7688 7.14C99.6221 7.12667 99.5155 7.08667 99.4488 7.02C99.3955 6.95334 99.3421 6.92667 99.2888 6.94C99.0888 6.94 98.9221 6.96 98.7888 7C98.6555 7.02667 98.5221 7.03334 98.3888 7.02C98.2688 7.04667 98.1488 7.06667 98.0288 7.08C97.9088 7.08 97.7888 7.13334 97.6688 7.24C97.4688 7.24 97.3221 7.22667 97.2288 7.2C97.1488 7.17334 97.0155 7.10667 96.8288 7C96.7621 7.12 96.6621 7.17334 96.5288 7.16C96.3955 7.13334 96.2155 7.07334 95.9888 6.98C96.0821 6.91334 96.1088 6.83334 96.0688 6.74C96.0288 6.63334 95.9755 6.46667 95.9088 6.24L95.9288 6.12ZM88.5488 10.54C88.5221 10.34 88.5221 10.18 88.5488 10.06C88.5755 9.94 88.6221 9.8 88.6888 9.64C88.6488 9.66667 88.6221 9.66 88.6088 9.62C88.6088 9.58 88.6221 9.53334 88.6488 9.48C88.6755 9.41334 88.7088 9.35334 88.7488 9.3C88.7888 9.24667 88.8355 9.20667 88.8888 9.18L89.4288 8.2L89.7088 7.62C89.6821 7.58 89.6755 7.54 89.6888 7.5C89.7155 7.44667 89.7421 7.4 89.7688 7.36C89.7955 7.30667 89.8155 7.26 89.8288 7.22C89.8421 7.18 89.8221 7.16 89.7688 7.16C89.8888 7.06667 89.9688 6.99334 90.0088 6.94C90.0488 6.87334 90.0755 6.81334 90.0888 6.76C90.1021 6.70667 90.1021 6.65334 90.0888 6.6C90.0755 6.54667 90.0755 6.48 90.0888 6.4C90.1555 6.34667 90.2221 6.26667 90.2888 6.16C90.3688 6.05334 90.5021 5.98667 90.6888 5.96C90.7021 5.82667 90.7155 5.72667 90.7288 5.66C90.7555 5.59334 90.7755 5.54 90.7888 5.5C90.8155 5.46 90.8355 5.42 90.8488 5.38C90.8621 5.34 90.8688 5.28667 90.8688 5.22C90.8821 5.1 90.8955 5.01334 90.9088 4.96C90.9355 4.89334 91.0355 4.74667 91.2088 4.52C91.3155 4.33334 91.3821 4.16667 91.4088 4.02C91.4488 3.87334 91.4621 3.72 91.4488 3.56C91.5421 3.37334 91.5688 3.16667 91.5288 2.94C91.5021 2.71334 91.5355 2.48667 91.6288 2.26C91.6955 2.23334 91.7488 2.18 91.7888 2.1C91.8421 2.02 91.8821 1.96667 91.9088 1.94C91.9755 1.78 92.0488 1.68667 92.1288 1.66C92.2088 1.62 92.3555 1.54667 92.5688 1.44C92.6888 1.52 92.7821 1.57334 92.8488 1.6C92.9288 1.61334 92.9888 1.63334 93.0288 1.66C93.0688 1.67334 93.0955 1.7 93.1088 1.74C93.1355 1.76667 93.1688 1.83334 93.2088 1.94C93.3421 1.96667 93.4355 2.03334 93.4888 2.14C93.5555 2.23334 93.5621 2.33334 93.5088 2.44C93.4955 2.6 93.5088 2.73334 93.5488 2.84C93.5888 2.94667 93.5355 3.04 93.3888 3.12V3.64C93.3621 3.76 93.3421 3.86667 93.3288 3.96C93.3155 4.05334 93.3088 4.14 93.3088 4.22C93.3088 4.3 93.3088 4.38667 93.3088 4.48C93.3088 4.57334 93.3221 4.68667 93.3488 4.82C93.3888 4.79334 93.4221 4.8 93.4488 4.84C93.4755 4.86667 93.4955 4.90667 93.5088 4.96C93.5221 5.01334 93.5288 5.06 93.5288 5.1C93.5288 5.12667 93.5288 5.12667 93.5288 5.1C93.5688 5.19334 93.6155 5.27334 93.6688 5.34C93.7221 5.39334 93.7755 5.45334 93.8288 5.52C93.8955 5.57334 93.9555 5.64 94.0088 5.72C94.0755 5.78667 94.1221 5.86667 94.1488 5.96C94.2555 5.88 94.3288 5.88 94.3688 5.96C94.4221 6.04 94.4355 6.18 94.4088 6.38C94.4621 6.38 94.5221 6.40667 94.5888 6.46C94.6555 6.5 94.7088 6.55334 94.7488 6.62C94.8021 6.67334 94.8355 6.73334 94.8488 6.8C94.8621 6.86667 94.8421 6.92667 94.7888 6.98C94.9621 6.99334 95.1955 7.12667 95.4888 7.38C95.5288 7.43334 95.5755 7.48667 95.6288 7.54C95.6555 7.59334 95.6821 7.65334 95.7088 7.72C95.7488 7.77334 95.7755 7.82667 95.7888 7.88C95.8155 7.89334 95.8955 7.96 96.0288 8.08C96.1621 8.2 96.2888 8.34 96.4088 8.5C96.4755 8.62 96.5555 8.73334 96.6488 8.84C96.7555 8.93334 96.8155 9.03334 96.8288 9.14C96.8688 9.20667 96.9021 9.25334 96.9288 9.28C96.9688 9.30667 96.9955 9.32667 97.0088 9.34C97.0355 9.34 97.0421 9.35334 97.0288 9.38C97.0155 9.40667 96.9821 9.45334 96.9288 9.52C96.9955 9.6 97.0221 9.68 97.0088 9.76C97.0088 9.82667 96.9888 9.89334 96.9488 9.96C96.9088 10.0133 96.8621 10.06 96.8088 10.1C96.7688 10.14 96.7421 10.1667 96.7288 10.18C96.6355 10.2733 96.5221 10.3667 96.3888 10.46C96.2555 10.54 96.1021 10.5267 95.9288 10.42C95.8621 10.5267 95.7821 10.5533 95.6888 10.5C95.6088 10.4467 95.5555 10.38 95.5288 10.3C95.3421 10.2733 95.1955 10.2133 95.0888 10.12C94.9821 10.0133 94.8621 9.96 94.7288 9.96C94.6888 9.78667 94.6688 9.64 94.6688 9.52C94.6688 9.38667 94.6221 9.32667 94.5288 9.34C94.3955 9.18 94.2821 9.05334 94.1888 8.96C94.0955 8.86667 94.0355 8.76667 94.0088 8.66C93.9421 8.63334 93.8555 8.59334 93.7488 8.54C93.6421 8.47334 93.5355 8.40667 93.4288 8.34C93.3888 8.27334 93.3421 8.19334 93.2888 8.1C93.2488 8.00667 93.1555 7.94 93.0088 7.9C93.1021 7.7 93.1155 7.55334 93.0488 7.46C92.9821 7.35334 92.8955 7.31334 92.7888 7.34C92.7355 7.24667 92.6888 7.17334 92.6488 7.12C92.6221 7.06667 92.5955 7.02 92.5688 6.98C92.5555 6.94 92.5421 6.88667 92.5288 6.82C92.5288 6.75334 92.5288 6.66 92.5288 6.54C92.3555 6.76667 92.2488 6.96 92.2088 7.12C92.1688 7.26667 92.1288 7.39334 92.0888 7.5L91.3888 8.38C91.4421 8.52667 91.4488 8.65334 91.4088 8.76C91.3821 8.85334 91.3221 8.98667 91.2288 9.16C91.1355 9.24 91.0221 9.37334 90.8888 9.56C90.7555 9.74667 90.7021 9.88 90.7288 9.96C90.6621 10.16 90.5955 10.3133 90.5288 10.42C90.4755 10.5133 90.3555 10.68 90.1688 10.92C90.1821 11.04 90.1088 11.12 89.9488 11.16C89.8021 11.2 89.6155 11.2333 89.3888 11.26C89.3621 11.26 89.3155 11.2467 89.2488 11.22C89.1955 11.1933 89.1355 11.1667 89.0688 11.14C89.0021 11.1 88.9488 11.06 88.9088 11.02C88.8688 10.9667 88.8621 10.92 88.8888 10.88C88.7421 10.84 88.6221 10.7867 88.5288 10.72C88.4355 10.6533 88.4021 10.5333 88.4288 10.36L88.5488 10.54Z" fill="#171717"/>
<path d="M76.622 6.8H77.042C77.0553 6.90667 77.1353 6.95333 77.282 6.94C77.442 6.92667 77.6353 6.96 77.862 7.04L78.442 6.92L79.042 6.76L79.802 6.72H80.422L81.262 6.76L81.862 6.84L82.782 6.72L83.382 6.9L83.442 6.7C83.5087 6.82 83.602 6.84 83.722 6.76C83.8553 6.68 83.902 6.48667 83.862 6.18L83.882 5.16H83.242L82.302 5.26L81.562 5.32L81.142 5.42L80.182 5.28L79.522 5.26L79.062 5.2L78.402 5.22L77.502 5.46L76.882 5.42L76.062 5.46L76.422 6.22C76.3553 6.19333 76.302 6.2 76.262 6.24C76.2353 6.26667 76.222 6.29333 76.222 6.32V6.52C76.1687 6.62667 76.2487 6.72667 76.462 6.82L76.622 6.8ZM74.742 7.68C74.5287 7.62667 74.422 7.56 74.422 7.48C74.422 7.4 74.402 7.34667 74.362 7.32C74.2553 7.09333 74.202 6.94667 74.202 6.88C74.202 6.81333 74.2953 6.73333 74.482 6.64C74.3753 6.45333 74.3087 6.24667 74.282 6.02C74.2687 5.79333 74.282 5.66 74.322 5.62C74.2953 5.51333 74.282 5.39333 74.282 5.26C74.282 5.12667 74.2687 5.02667 74.242 4.96C74.3887 4.52 74.362 4.28 74.162 4.24C74.2287 4.01333 74.302 3.82667 74.382 3.68C74.462 3.52 74.4953 3.38667 74.482 3.28C74.402 3.24 74.382 3.18 74.422 3.1C74.462 3.00667 74.4353 2.91333 74.342 2.82C74.3153 2.78 74.2953 2.72 74.282 2.64C74.282 2.56 74.2953 2.48 74.322 2.4C74.3487 2.32 74.3887 2.24667 74.442 2.18C74.4953 2.11333 74.5687 2.07333 74.662 2.06C74.582 1.87333 74.5353 1.73333 74.522 1.64C74.5087 1.53333 74.562 1.45333 74.682 1.4C74.7887 1.2 74.902 1.10667 75.022 1.12C75.142 1.13333 75.3087 1.12667 75.522 1.1C75.6687 0.993332 75.8153 0.959999 75.962 0.999998C76.1087 1.04 76.2153 1.14667 76.282 1.32C76.3487 1.48 76.3953 1.57333 76.422 1.6C76.462 1.62667 76.4687 1.7 76.442 1.82L76.182 2.14L76.122 2.92L76.162 3.36L76.942 3.28L77.722 3.52L78.422 3.62L78.822 3.36L79.542 3.54H80.422L80.982 3.28L81.802 3.56L82.162 3.36L83.142 3.54L83.882 3.6C83.8153 3.46667 83.742 3.32 83.662 3.16C83.5953 3 83.562 2.88667 83.562 2.82C83.642 2.79333 83.6887 2.7 83.702 2.54C83.7287 2.38 83.7087 2.24 83.642 2.12C83.682 1.98667 83.7553 1.86667 83.862 1.76C83.982 1.65333 84.062 1.58667 84.102 1.56C84.0487 1.30666 84.0887 1.15333 84.222 1.1C84.3687 1.03333 84.522 1.00667 84.682 1.02C84.7887 1.04667 84.9153 1.08 85.062 1.12C85.222 1.16 85.3353 1.18667 85.402 1.2C85.4153 1.22667 85.422 1.28 85.422 1.36C85.422 1.44 85.422 1.52667 85.422 1.62C85.4353 1.7 85.442 1.78 85.442 1.86C85.4553 1.94 85.4753 2 85.502 2.04C85.502 2.17333 85.5487 2.28667 85.642 2.38C85.7353 2.47333 85.7753 2.50667 85.762 2.48C85.7887 2.62667 85.762 2.77333 85.682 2.92C85.6153 3.05333 85.602 3.15333 85.642 3.22C85.762 3.36667 85.8087 3.5 85.782 3.62C85.7553 3.72667 85.722 3.78667 85.682 3.8C85.6553 3.94667 85.6353 4.06 85.622 4.14C85.622 4.22 85.622 4.29333 85.622 4.36C85.6353 4.41333 85.662 4.47333 85.702 4.54C85.7553 4.59333 85.8353 4.66667 85.942 4.76C85.9153 4.81333 85.8753 4.9 85.822 5.02C85.7687 5.12667 85.7353 5.23333 85.722 5.34C85.7487 5.46 85.7553 5.55333 85.742 5.62C85.7287 5.68667 85.662 5.8 85.542 5.96C85.6487 6.06667 85.6687 6.19333 85.602 6.34C85.5487 6.47333 85.5287 6.56667 85.542 6.62C85.6087 6.75333 85.6487 6.86667 85.662 6.96C85.6753 7.04 85.6687 7.12 85.642 7.2C85.6287 7.26667 85.6087 7.34 85.582 7.42C85.5553 7.48667 85.542 7.57333 85.542 7.68C85.4087 7.82667 85.3153 7.94 85.262 8.02C85.222 8.1 85.1287 8.18667 84.982 8.28C84.9953 8.24 84.9953 8.23333 84.982 8.26C84.982 8.28667 84.9687 8.32 84.942 8.36C84.9153 8.4 84.8687 8.44 84.802 8.48C84.7353 8.52 84.6553 8.54 84.562 8.54C84.4153 8.54 84.2553 8.55333 84.082 8.58C83.9087 8.60667 83.7887 8.63333 83.722 8.66C83.602 8.64667 83.4953 8.64667 83.402 8.66C83.3087 8.66 83.2153 8.68 83.122 8.72C83.0287 8.74667 82.922 8.78 82.802 8.82C82.682 8.86 82.5353 8.9 82.362 8.94C82.3887 8.87333 82.342 8.82667 82.222 8.8C82.102 8.77333 81.9687 8.73333 81.822 8.68C81.702 8.66667 81.5687 8.7 81.422 8.78C81.2887 8.84667 81.1887 8.91333 81.122 8.98C81.002 8.92667 80.902 8.88 80.822 8.84C80.7553 8.8 80.682 8.77333 80.602 8.76C80.5353 8.73333 80.4553 8.72 80.362 8.72C80.2687 8.72 80.1487 8.74 80.002 8.78L79.342 8.8L78.842 8.64C78.7353 8.68 78.642 8.70667 78.562 8.72C78.482 8.73333 78.3953 8.74667 78.302 8.76C78.2087 8.76 78.102 8.76 77.982 8.76C77.862 8.74667 77.7153 8.73333 77.542 8.72C77.502 8.70667 77.4553 8.71333 77.402 8.74C77.362 8.75333 77.3153 8.76667 77.262 8.78C77.2087 8.79333 77.162 8.8 77.122 8.8C77.082 8.78666 77.0553 8.74667 77.042 8.68C76.882 8.62667 76.742 8.6 76.622 8.6C76.502 8.58667 76.3753 8.60667 76.242 8.66C76.0153 8.59333 75.822 8.54 75.662 8.5C75.502 8.44667 75.3087 8.41333 75.082 8.4C75.042 8.41333 75.0087 8.4 74.982 8.36C74.9553 8.30667 74.922 8.24667 74.882 8.18C74.8553 8.11333 74.8153 8.04667 74.762 7.98C74.722 7.91333 74.662 7.86667 74.582 7.84L74.742 7.68ZM76.182 17.76C76.1153 17.8 76.0553 17.8133 76.002 17.8C75.9487 17.8 75.8953 17.7867 75.842 17.76C75.802 17.7333 75.762 17.7067 75.722 17.68C75.682 17.6533 75.6553 17.6467 75.642 17.66C75.4553 17.5533 75.3087 17.5067 75.202 17.52C75.1087 17.5333 75.0887 17.5267 75.142 17.5C75.0487 17.3667 74.9553 17.2533 74.862 17.16C74.782 17.0667 74.7553 16.8867 74.782 16.62C74.702 16.6467 74.642 16.58 74.602 16.42C74.562 16.2733 74.5287 16.16 74.502 16.08L74.642 15.32L74.662 14.54L74.642 13.7C74.6153 13.5267 74.6087 13.4333 74.622 13.42C74.6487 13.4067 74.742 13.3667 74.902 13.3C74.9687 13.2333 75.0487 13.1533 75.142 13.06C75.2487 12.9533 75.362 12.8933 75.482 12.88C75.6153 12.9467 75.742 12.9733 75.862 12.96C75.9953 12.9467 76.0753 13.0333 76.102 13.22C76.1553 13.3267 76.2153 13.3933 76.282 13.42C76.3487 13.4467 76.422 13.5467 76.502 13.72L76.602 14.6L76.562 15.3C76.4553 15.5533 76.4753 15.74 76.622 15.86C76.7687 15.98 76.9553 16.0067 77.182 15.94L77.742 15.92L78.422 15.98L79.262 15.96L80.062 15.82L80.462 15.84L81.402 16.16L82.142 15.76L82.682 15.88L83.322 16.1L83.842 15.86L84.782 15.8C84.8753 15.88 84.9487 15.9267 85.002 15.94C85.0553 15.94 85.102 15.94 85.142 15.94C85.1953 15.9267 85.2553 15.92 85.322 15.92C85.3887 15.9067 85.482 15.92 85.602 15.96C85.6153 16 85.6487 16.0467 85.702 16.1C85.7553 16.1533 85.802 16.22 85.842 16.3C85.882 16.38 85.9087 16.4733 85.922 16.58C85.9353 16.6867 85.9087 16.8067 85.842 16.94C85.882 17.0867 85.8953 17.2 85.882 17.28C85.882 17.36 85.7553 17.3867 85.502 17.36C85.5687 17.5867 85.5487 17.7 85.442 17.7C85.3487 17.7 85.1687 17.6733 84.902 17.62L84.522 17.92H83.702L83.202 17.66L82.522 17.92L81.502 17.64H81.202L80.202 17.84L79.722 17.7L79.102 17.86L78.322 17.82L77.882 17.98L76.882 17.78L76.382 17.84L76.182 17.76ZM74.502 12.16C74.3953 12.12 74.3087 12.0867 74.242 12.06C74.1753 12.0333 74.1153 12.0133 74.062 12C74.022 11.9733 73.9687 11.9533 73.902 11.94C73.8487 11.9267 73.7753 11.9133 73.682 11.9C73.642 11.8467 73.622 11.7867 73.622 11.72C73.622 11.64 73.622 11.5667 73.622 11.5C73.6353 11.4333 73.6353 11.3733 73.622 11.32C73.622 11.2533 73.602 11.2 73.562 11.16C73.5353 11.04 73.5353 10.94 73.562 10.86C73.5887 10.78 73.6287 10.72 73.682 10.68C73.7353 10.6267 73.7887 10.6 73.842 10.6C73.8953 10.5867 73.9353 10.6 73.962 10.64C74.002 10.52 74.0353 10.4333 74.062 10.38C74.0887 10.3133 74.1153 10.2667 74.142 10.24C74.182 10.2133 74.222 10.1933 74.262 10.18C74.3153 10.1533 74.382 10.12 74.462 10.08C74.582 10.0933 74.6687 10.1133 74.722 10.14C74.7887 10.1533 74.8353 10.1733 74.862 10.2C74.8887 10.2267 74.9087 10.2533 74.922 10.28C74.9487 10.3067 74.9887 10.3333 75.042 10.36C75.2153 10.32 75.382 10.28 75.542 10.24C75.7153 10.2 75.8887 10.1467 76.062 10.08C76.062 10.08 76.0887 10.0867 76.142 10.1C76.1953 10.1133 76.2487 10.1267 76.302 10.14C76.3553 10.1533 76.402 10.16 76.442 10.16C76.4953 10.16 76.5153 10.14 76.502 10.1L77.262 10.4L78.082 10.12L78.882 10.08L79.542 10.36L80.122 10.3L80.782 10.02L81.482 10.24L82.022 10.3L82.822 10.26C83.022 10.18 83.1753 10.16 83.282 10.2C83.3887 10.2267 83.522 10.22 83.682 10.18C83.7753 10.1533 83.8487 10.14 83.902 10.14C83.9553 10.1267 84.0087 10.12 84.062 10.12C84.1287 10.12 84.202 10.1267 84.282 10.14C84.362 10.14 84.4753 10.1467 84.622 10.16C84.662 10.2 84.742 10.2133 84.862 10.2C84.982 10.1867 85.1087 10.16 85.242 10.12C85.362 10.0933 85.4553 10.0933 85.522 10.12C85.602 10.1467 85.6687 10.1867 85.722 10.24C85.7753 10.28 85.822 10.3267 85.862 10.38C85.902 10.4333 85.942 10.4733 85.982 10.5C86.022 10.5 86.062 10.5333 86.102 10.6C86.1553 10.6667 86.1953 10.7467 86.222 10.84C86.262 10.92 86.282 11.0067 86.282 11.1C86.2953 11.1933 86.282 11.2667 86.242 11.32C86.3087 11.4267 86.3153 11.5133 86.262 11.58C86.2087 11.6467 86.0753 11.7467 85.862 11.88C85.8087 11.8933 85.7287 11.9 85.622 11.9C85.5287 11.9 85.4753 11.9733 85.462 12.12L84.722 11.98L84.062 12.02L83.282 12.12C83.2153 12.0533 83.0953 12.0133 82.922 12C82.7487 11.9867 82.5687 12.0333 82.382 12.14C82.3553 12.0867 82.302 12.0667 82.222 12.08C82.1553 12.08 82.082 12.0933 82.002 12.12C81.922 12.1333 81.8487 12.1533 81.782 12.18C81.7287 12.1933 81.7087 12.2 81.722 12.2L81.442 12.78L81.402 13.36L81.682 13.96L81.622 14.18L81.542 14.3C81.4353 14.3933 81.342 14.4867 81.262 14.58C81.182 14.66 81.102 14.7333 81.022 14.8C80.942 14.8533 80.862 14.8867 80.782 14.9C80.7153 14.9 80.6353 14.8667 80.542 14.8C80.4353 14.8933 80.342 14.9533 80.262 14.98C80.1953 14.9933 80.1287 14.9933 80.062 14.98C80.0087 14.9533 79.9553 14.9267 79.902 14.9C79.8487 14.8733 79.7953 14.8533 79.742 14.84C79.702 14.6933 79.662 14.56 79.622 14.44C79.5953 14.3067 79.602 14.2267 79.642 14.2L79.442 13.3L79.522 12.94L79.562 12.28L78.742 12.16L78.242 12.26L77.562 12.04L76.822 11.92C76.662 11.9867 76.522 12.0267 76.402 12.04C76.282 12.0533 76.2153 12.0867 76.202 12.14C75.9887 12.1133 75.8353 12.1067 75.742 12.12C75.662 12.1333 75.5687 12.14 75.462 12.14C75.3153 12.1533 75.1353 12.14 74.922 12.1C74.7087 12.06 74.562 12.0333 74.482 12.02L74.502 12.16Z" fill="#171717"/>
<path d="M56.5048 6.8H56.9248C56.9381 6.90667 57.0181 6.95333 57.1648 6.94C57.3248 6.92667 57.5181 6.96 57.7448 7.04L58.3248 6.92L58.9248 6.76L59.6848 6.72H60.3048L61.1448 6.76L61.7448 6.84L62.6648 6.72L63.2648 6.9L63.3248 6.7C63.3915 6.82 63.4848 6.84 63.6048 6.76C63.7381 6.68 63.7848 6.48667 63.7448 6.18L63.7648 5.16H63.1248L62.1848 5.26L61.4448 5.32L61.0248 5.42L60.0648 5.28L59.4048 5.26L58.9448 5.2L58.2848 5.22L57.3848 5.46L56.7648 5.42L55.9448 5.46L56.3048 6.22C56.2381 6.19333 56.1848 6.2 56.1448 6.24C56.1181 6.26667 56.1048 6.29333 56.1048 6.32V6.52C56.0515 6.62667 56.1315 6.72667 56.3448 6.82L56.5048 6.8ZM54.6248 7.68C54.4115 7.62667 54.3048 7.56 54.3048 7.48C54.3048 7.4 54.2848 7.34667 54.2448 7.32C54.1381 7.09333 54.0848 6.94667 54.0848 6.88C54.0848 6.81333 54.1781 6.73333 54.3648 6.64C54.2581 6.45333 54.1915 6.24667 54.1648 6.02C54.1515 5.79333 54.1648 5.66 54.2048 5.62C54.1781 5.51333 54.1648 5.39333 54.1648 5.26C54.1648 5.12667 54.1515 5.02667 54.1248 4.96C54.2715 4.52 54.2448 4.28 54.0448 4.24C54.1115 4.01333 54.1848 3.82667 54.2648 3.68C54.3448 3.52 54.3781 3.38667 54.3648 3.28C54.2848 3.24 54.2648 3.18 54.3048 3.1C54.3448 3.00667 54.3181 2.91333 54.2248 2.82C54.1981 2.78 54.1781 2.72 54.1648 2.64C54.1648 2.56 54.1781 2.48 54.2048 2.4C54.2315 2.32 54.2715 2.24667 54.3248 2.18C54.3781 2.11333 54.4515 2.07333 54.5448 2.06C54.4648 1.87333 54.4181 1.73333 54.4048 1.64C54.3915 1.53333 54.4448 1.45333 54.5648 1.4C54.6715 1.2 54.7848 1.10667 54.9048 1.12C55.0248 1.13333 55.1915 1.12667 55.4048 1.1C55.5515 0.993332 55.6981 0.959999 55.8448 0.999998C55.9915 1.04 56.0981 1.14667 56.1648 1.32C56.2315 1.48 56.2781 1.57333 56.3048 1.6C56.3448 1.62667 56.3515 1.7 56.3248 1.82L56.0648 2.14L56.0048 2.92L56.0448 3.36L56.8248 3.28L57.6048 3.52L58.3048 3.62L58.7048 3.36L59.4248 3.54H60.3048L60.8648 3.28L61.6848 3.56L62.0448 3.36L63.0248 3.54L63.7648 3.6C63.6981 3.46667 63.6248 3.32 63.5448 3.16C63.4781 3 63.4448 2.88667 63.4448 2.82C63.5248 2.79333 63.5715 2.7 63.5848 2.54C63.6115 2.38 63.5915 2.24 63.5248 2.12C63.5648 1.98667 63.6381 1.86667 63.7448 1.76C63.8648 1.65333 63.9448 1.58667 63.9848 1.56C63.9315 1.30666 63.9715 1.15333 64.1048 1.1C64.2515 1.03333 64.4048 1.00667 64.5648 1.02C64.6715 1.04667 64.7981 1.08 64.9448 1.12C65.1048 1.16 65.2181 1.18667 65.2848 1.2C65.2981 1.22667 65.3048 1.28 65.3048 1.36C65.3048 1.44 65.3048 1.52667 65.3048 1.62C65.3181 1.7 65.3248 1.78 65.3248 1.86C65.3381 1.94 65.3581 2 65.3848 2.04C65.3848 2.17333 65.4315 2.28667 65.5248 2.38C65.6181 2.47333 65.6581 2.50667 65.6448 2.48C65.6715 2.62667 65.6448 2.77333 65.5648 2.92C65.4981 3.05333 65.4848 3.15333 65.5248 3.22C65.6448 3.36667 65.6915 3.5 65.6648 3.62C65.6381 3.72667 65.6048 3.78667 65.5648 3.8C65.5381 3.94667 65.5181 4.06 65.5048 4.14C65.5048 4.22 65.5048 4.29333 65.5048 4.36C65.5181 4.41333 65.5448 4.47333 65.5848 4.54C65.6381 4.59333 65.7181 4.66667 65.8248 4.76C65.7981 4.81333 65.7581 4.9 65.7048 5.02C65.6515 5.12667 65.6181 5.23333 65.6048 5.34C65.6315 5.46 65.6381 5.55333 65.6248 5.62C65.6115 5.68667 65.5448 5.8 65.4248 5.96C65.5315 6.06667 65.5515 6.19333 65.4848 6.34C65.4315 6.47333 65.4115 6.56667 65.4248 6.62C65.4915 6.75333 65.5315 6.86667 65.5448 6.96C65.5581 7.04 65.5515 7.12 65.5248 7.2C65.5115 7.26667 65.4915 7.34 65.4648 7.42C65.4381 7.48667 65.4248 7.57333 65.4248 7.68C65.2915 7.82667 65.1981 7.94 65.1448 8.02C65.1048 8.1 65.0115 8.18667 64.8648 8.28C64.8781 8.24 64.8781 8.23333 64.8648 8.26C64.8648 8.28667 64.8515 8.32 64.8248 8.36C64.7981 8.4 64.7515 8.44 64.6848 8.48C64.6181 8.52 64.5381 8.54 64.4448 8.54C64.2981 8.54 64.1381 8.55333 63.9648 8.58C63.7915 8.60667 63.6715 8.63333 63.6048 8.66C63.4848 8.64667 63.3781 8.64667 63.2848 8.66C63.1915 8.66 63.0981 8.68 63.0048 8.72C62.9115 8.74667 62.8048 8.78 62.6848 8.82C62.5648 8.86 62.4181 8.9 62.2448 8.94C62.2715 8.87333 62.2248 8.82667 62.1048 8.8C61.9848 8.77333 61.8515 8.73333 61.7048 8.68C61.5848 8.66667 61.4515 8.7 61.3048 8.78C61.1715 8.84667 61.0715 8.91333 61.0048 8.98C60.8848 8.92667 60.7848 8.88 60.7048 8.84C60.6381 8.8 60.5648 8.77333 60.4848 8.76C60.4181 8.73333 60.3381 8.72 60.2448 8.72C60.1515 8.72 60.0315 8.74 59.8848 8.78L59.2248 8.8L58.7248 8.64C58.6181 8.68 58.5248 8.70667 58.4448 8.72C58.3648 8.73333 58.2781 8.74667 58.1848 8.76C58.0915 8.76 57.9848 8.76 57.8648 8.76C57.7448 8.74667 57.5981 8.73333 57.4248 8.72C57.3848 8.70667 57.3381 8.71333 57.2848 8.74C57.2448 8.75333 57.1981 8.76667 57.1448 8.78C57.0915 8.79333 57.0448 8.8 57.0048 8.8C56.9648 8.78666 56.9381 8.74667 56.9248 8.68C56.7648 8.62667 56.6248 8.6 56.5048 8.6C56.3848 8.58667 56.2581 8.60667 56.1248 8.66C55.8981 8.59333 55.7048 8.54 55.5448 8.5C55.3848 8.44667 55.1915 8.41333 54.9648 8.4C54.9248 8.41333 54.8915 8.4 54.8648 8.36C54.8381 8.30667 54.8048 8.24667 54.7648 8.18C54.7381 8.11333 54.6981 8.04667 54.6448 7.98C54.6048 7.91333 54.5448 7.86667 54.4648 7.84L54.6248 7.68ZM56.0648 17.76C55.9981 17.8 55.9381 17.8133 55.8848 17.8C55.8315 17.8 55.7781 17.7867 55.7248 17.76C55.6848 17.7333 55.6448 17.7067 55.6048 17.68C55.5648 17.6533 55.5381 17.6467 55.5248 17.66C55.3381 17.5533 55.1915 17.5067 55.0848 17.52C54.9915 17.5333 54.9715 17.5267 55.0248 17.5C54.9315 17.3667 54.8381 17.2533 54.7448 17.16C54.6648 17.0667 54.6381 16.8867 54.6648 16.62C54.5848 16.6467 54.5248 16.58 54.4848 16.42C54.4448 16.2733 54.4115 16.16 54.3848 16.08L54.5248 15.32L54.5448 14.54L54.5248 13.7C54.4981 13.5267 54.4915 13.4333 54.5048 13.42C54.5315 13.4067 54.6248 13.3667 54.7848 13.3C54.8515 13.2333 54.9315 13.1533 55.0248 13.06C55.1315 12.9533 55.2448 12.8933 55.3648 12.88C55.4981 12.9467 55.6248 12.9733 55.7448 12.96C55.8781 12.9467 55.9581 13.0333 55.9848 13.22C56.0381 13.3267 56.0981 13.3933 56.1648 13.42C56.2315 13.4467 56.3048 13.5467 56.3848 13.72L56.4848 14.6L56.4448 15.3C56.3381 15.5533 56.3581 15.74 56.5048 15.86C56.6515 15.98 56.8381 16.0067 57.0648 15.94L57.6248 15.92L58.3048 15.98L59.1448 15.96L59.9448 15.82L60.3448 15.84L61.2848 16.16L62.0248 15.76L62.5648 15.88L63.2048 16.1L63.7248 15.86L64.6648 15.8C64.7581 15.88 64.8315 15.9267 64.8848 15.94C64.9381 15.94 64.9848 15.94 65.0248 15.94C65.0781 15.9267 65.1381 15.92 65.2048 15.92C65.2715 15.9067 65.3648 15.92 65.4848 15.96C65.4981 16 65.5315 16.0467 65.5848 16.1C65.6381 16.1533 65.6848 16.22 65.7248 16.3C65.7648 16.38 65.7915 16.4733 65.8048 16.58C65.8181 16.6867 65.7915 16.8067 65.7248 16.94C65.7648 17.0867 65.7781 17.2 65.7648 17.28C65.7648 17.36 65.6381 17.3867 65.3848 17.36C65.4515 17.5867 65.4315 17.7 65.3248 17.7C65.2315 17.7 65.0515 17.6733 64.7848 17.62L64.4048 17.92H63.5848L63.0848 17.66L62.4048 17.92L61.3848 17.64H61.0848L60.0848 17.84L59.6048 17.7L58.9848 17.86L58.2048 17.82L57.7648 17.98L56.7648 17.78L56.2648 17.84L56.0648 17.76ZM54.3848 12.16C54.2781 12.12 54.1915 12.0867 54.1248 12.06C54.0581 12.0333 53.9981 12.0133 53.9448 12C53.9048 11.9733 53.8515 11.9533 53.7848 11.94C53.7315 11.9267 53.6581 11.9133 53.5648 11.9C53.5248 11.8467 53.5048 11.7867 53.5048 11.72C53.5048 11.64 53.5048 11.5667 53.5048 11.5C53.5181 11.4333 53.5181 11.3733 53.5048 11.32C53.5048 11.2533 53.4848 11.2 53.4448 11.16C53.4181 11.04 53.4181 10.94 53.4448 10.86C53.4715 10.78 53.5115 10.72 53.5648 10.68C53.6181 10.6267 53.6715 10.6 53.7248 10.6C53.7781 10.5867 53.8181 10.6 53.8448 10.64C53.8848 10.52 53.9181 10.4333 53.9448 10.38C53.9715 10.3133 53.9981 10.2667 54.0248 10.24C54.0648 10.2133 54.1048 10.1933 54.1448 10.18C54.1981 10.1533 54.2648 10.12 54.3448 10.08C54.4648 10.0933 54.5515 10.1133 54.6048 10.14C54.6715 10.1533 54.7181 10.1733 54.7448 10.2C54.7715 10.2267 54.7915 10.2533 54.8048 10.28C54.8315 10.3067 54.8715 10.3333 54.9248 10.36C55.0981 10.32 55.2648 10.28 55.4248 10.24C55.5981 10.2 55.7715 10.1467 55.9448 10.08C55.9448 10.08 55.9715 10.0867 56.0248 10.1C56.0781 10.1133 56.1315 10.1267 56.1848 10.14C56.2381 10.1533 56.2848 10.16 56.3248 10.16C56.3781 10.16 56.3981 10.14 56.3848 10.1L57.1448 10.4L57.9648 10.12L58.7648 10.08L59.4248 10.36L60.0048 10.3L60.6648 10.02L61.3648 10.24L61.9048 10.3L62.7048 10.26C62.9048 10.18 63.0581 10.16 63.1648 10.2C63.2715 10.2267 63.4048 10.22 63.5648 10.18C63.6581 10.1533 63.7315 10.14 63.7848 10.14C63.8381 10.1267 63.8915 10.12 63.9448 10.12C64.0115 10.12 64.0848 10.1267 64.1648 10.14C64.2448 10.14 64.3581 10.1467 64.5048 10.16C64.5448 10.2 64.6248 10.2133 64.7448 10.2C64.8648 10.1867 64.9915 10.16 65.1248 10.12C65.2448 10.0933 65.3381 10.0933 65.4048 10.12C65.4848 10.1467 65.5515 10.1867 65.6048 10.24C65.6581 10.28 65.7048 10.3267 65.7448 10.38C65.7848 10.4333 65.8248 10.4733 65.8648 10.5C65.9048 10.5 65.9448 10.5333 65.9848 10.6C66.0381 10.6667 66.0781 10.7467 66.1048 10.84C66.1448 10.92 66.1648 11.0067 66.1648 11.1C66.1781 11.1933 66.1648 11.2667 66.1248 11.32C66.1915 11.4267 66.1981 11.5133 66.1448 11.58C66.0915 11.6467 65.9581 11.7467 65.7448 11.88C65.6915 11.8933 65.6115 11.9 65.5048 11.9C65.4115 11.9 65.3581 11.9733 65.3448 12.12L64.6048 11.98L63.9448 12.02L63.1648 12.12C63.0981 12.0533 62.9781 12.0133 62.8048 12C62.6315 11.9867 62.4515 12.0333 62.2648 12.14C62.2381 12.0867 62.1848 12.0667 62.1048 12.08C62.0381 12.08 61.9648 12.0933 61.8848 12.12C61.8048 12.1333 61.7315 12.1533 61.6648 12.18C61.6115 12.1933 61.5915 12.2 61.6048 12.2L61.3248 12.78L61.2848 13.36L61.5648 13.96L61.5048 14.18L61.4248 14.3C61.3181 14.3933 61.2248 14.4867 61.1448 14.58C61.0648 14.66 60.9848 14.7333 60.9048 14.8C60.8248 14.8533 60.7448 14.8867 60.6648 14.9C60.5981 14.9 60.5181 14.8667 60.4248 14.8C60.3181 14.8933 60.2248 14.9533 60.1448 14.98C60.0781 14.9933 60.0115 14.9933 59.9448 14.98C59.8915 14.9533 59.8381 14.9267 59.7848 14.9C59.7315 14.8733 59.6781 14.8533 59.6248 14.84C59.5848 14.6933 59.5448 14.56 59.5048 14.44C59.4781 14.3067 59.4848 14.2267 59.5248 14.2L59.3248 13.3L59.4048 12.94L59.4448 12.28L58.6248 12.16L58.1248 12.26L57.4448 12.04L56.7048 11.92C56.5448 11.9867 56.4048 12.0267 56.2848 12.04C56.1648 12.0533 56.0981 12.0867 56.0848 12.14C55.8715 12.1133 55.7181 12.1067 55.6248 12.12C55.5448 12.1333 55.4515 12.14 55.3448 12.14C55.1981 12.1533 55.0181 12.14 54.8048 12.1C54.5915 12.06 54.4448 12.0333 54.3648 12.02L54.3848 12.16Z" fill="#171717"/>
<path d="M42.319 15.88C42.319 15.9733 42.3324 16.0267 42.359 16.04C42.399 16.0667 42.439 16.0733 42.479 16.06C42.5324 16.06 42.5857 16.0533 42.639 16.04C42.7057 16.0267 42.7657 16.02 42.819 16.02C43.0324 15.9933 43.219 16.0067 43.379 16.06C43.539 16.1133 43.679 16.1467 43.799 16.16C43.799 16.1733 43.8924 16.1733 44.079 16.16C44.2657 16.16 44.4324 16.16 44.579 16.16C44.739 16.1867 44.9124 16.2067 45.099 16.22C45.299 16.2333 45.4124 16.16 45.439 16C45.639 16.0667 45.8524 16.12 46.079 16.16C46.319 16.2133 46.4924 16.1733 46.599 16.04C46.7724 15.9733 46.9124 15.96 47.019 16C47.1257 16.0533 47.2724 16.0733 47.459 16.06C47.6057 16.0333 47.7057 15.9933 47.759 15.94C47.8124 15.8867 47.8924 15.74 47.999 15.5C48.0124 15.4733 48.0257 15.3867 48.039 15.24C48.0524 15.0933 48.0324 14.9533 47.979 14.82C48.019 14.7533 48.0324 14.7067 48.019 14.68C48.019 14.64 48.0057 14.6067 47.979 14.58C47.9657 14.54 47.9524 14.5067 47.939 14.48C47.939 14.44 47.959 14.3867 47.999 14.32C47.799 14.2133 47.639 14.1133 47.519 14.02C47.399 13.9267 47.3057 13.9333 47.239 14.04C47.1324 13.9733 47.0257 13.9267 46.919 13.9C46.8257 13.8733 46.6657 13.8333 46.439 13.78C46.4524 13.78 46.439 13.78 46.399 13.78C46.359 13.78 46.3057 13.78 46.239 13.78C46.1857 13.78 46.1257 13.7867 46.059 13.8C46.0057 13.8 45.9724 13.8133 45.959 13.84H45.099L44.339 13.76C44.299 13.8133 44.179 13.8333 43.979 13.82C43.7924 13.7933 43.5657 13.7267 43.299 13.62C43.2324 13.7 43.119 13.78 42.959 13.86C42.799 13.9267 42.5857 13.9333 42.319 13.88C42.2524 13.9067 42.1724 13.9733 42.079 14.08C41.999 14.1733 41.8924 14.2733 41.759 14.38C41.759 14.4867 41.7257 14.6 41.659 14.72C41.6057 14.8267 41.6124 14.9533 41.679 15.1C41.679 15.26 41.679 15.3867 41.679 15.48C41.6924 15.56 41.719 15.6267 41.759 15.68C41.799 15.72 41.859 15.76 41.939 15.8C42.0324 15.84 42.1524 15.9 42.299 15.98L42.319 15.88ZM41.259 17.52C41.2724 17.5067 41.2657 17.4867 41.239 17.46C41.2124 17.4467 41.1724 17.4267 41.119 17.4C41.079 17.3867 41.039 17.36 40.999 17.32C40.9724 17.2933 40.9657 17.26 40.979 17.22C40.859 17.26 40.7524 17.2667 40.659 17.24C40.5657 17.2133 40.4324 17.1533 40.259 17.06C40.2857 16.9667 40.2857 16.8933 40.259 16.84C40.2324 16.8 40.199 16.76 40.159 16.72C40.119 16.68 40.0857 16.6267 40.059 16.56C40.0324 16.5067 40.0257 16.4067 40.039 16.26C39.9724 16.2867 39.9324 16.28 39.919 16.24C39.9057 16.2133 39.8924 16.1667 39.879 16.1C39.8657 16.0467 39.8457 15.9867 39.819 15.92C39.7924 15.84 39.739 15.7667 39.659 15.7C39.5924 15.5533 39.5724 15.42 39.599 15.3C39.6257 15.1667 39.6724 15.0867 39.739 15.06C39.779 15.0067 39.7857 14.9133 39.759 14.78C39.7324 14.6333 39.7057 14.48 39.679 14.32C39.7724 14.32 39.7924 14.28 39.739 14.2C39.6857 14.12 39.6657 14.02 39.679 13.9C39.8524 13.7533 39.959 13.6133 39.999 13.48C40.0524 13.3333 40.119 13.2 40.199 13.08C40.2124 13.0267 40.2124 12.9867 40.199 12.96C40.199 12.92 40.199 12.8867 40.199 12.86C40.2124 12.8333 40.2324 12.8067 40.259 12.78C40.299 12.7533 40.3657 12.72 40.459 12.68C40.5124 12.6267 40.559 12.5933 40.599 12.58C40.639 12.5533 40.679 12.5333 40.719 12.52C40.759 12.4933 40.8057 12.46 40.859 12.42C40.9124 12.3667 40.9857 12.2867 41.079 12.18C41.2257 12.18 41.319 12.2 41.359 12.24C41.399 12.28 41.4724 12.3 41.579 12.3C41.6857 12.2733 41.7924 12.2333 41.899 12.18C42.0057 12.1133 42.139 12.06 42.299 12.02C42.3924 11.98 42.479 11.9667 42.559 11.98C42.639 11.9933 42.7057 12.0067 42.759 12.02C42.8257 12.02 42.879 12.02 42.919 12.02C42.959 12.02 42.999 11.9867 43.039 11.92C43.119 11.9733 43.2257 12.0133 43.359 12.04C43.5057 12.0533 43.6524 12.0533 43.799 12.04C43.7857 11.9733 43.799 11.9333 43.839 11.92C43.879 11.9067 43.9257 11.9 43.979 11.9C44.0457 11.9 44.1057 11.9067 44.159 11.92C44.2124 11.9333 44.2457 11.9267 44.259 11.9C44.4724 11.9667 44.619 11.98 44.699 11.94C44.7924 11.9 44.8657 11.9267 44.919 12.02C45.0657 11.8867 45.1724 11.84 45.239 11.88C45.319 11.92 45.4057 11.9333 45.499 11.92C45.5257 11.88 45.5724 11.86 45.639 11.86C45.719 11.8467 45.799 11.8467 45.879 11.86C45.9724 11.86 46.059 11.8667 46.139 11.88C46.2324 11.8933 46.3057 11.9 46.359 11.9C46.4124 11.8733 46.4524 11.8933 46.479 11.96C46.5057 12.0133 46.5724 12.0733 46.679 12.14C46.8257 12.14 46.9924 12.1467 47.179 12.16C47.3657 12.16 47.459 12.2133 47.459 12.32C47.6457 12.2 47.7724 12.14 47.839 12.14C47.9057 12.1267 47.9924 12.1667 48.099 12.26C48.1924 12.3 48.2924 12.36 48.399 12.44C48.519 12.52 48.6257 12.5267 48.719 12.46C48.8524 12.5667 48.9524 12.6733 49.019 12.78C49.099 12.8733 49.1924 12.94 49.299 12.98C49.5124 13.0467 49.6257 13.1133 49.639 13.18C49.6524 13.2333 49.6724 13.3333 49.699 13.48C49.739 13.6133 49.759 13.7533 49.759 13.9C49.759 14.0333 49.7724 14.1467 49.799 14.24C49.959 14.4133 50.039 14.5467 50.039 14.64C50.0524 14.7333 50.039 14.8533 49.999 15C49.9324 15.3467 49.859 15.6 49.779 15.76C49.7924 15.8667 49.8057 15.9467 49.819 16C49.8324 16.04 49.8057 16.1133 49.739 16.22C49.6724 16.3667 49.6257 16.4733 49.599 16.54C49.5724 16.62 49.519 16.7 49.439 16.78C49.3057 16.94 49.1724 17.0533 49.039 17.12C48.919 17.1867 48.7324 17.2867 48.479 17.42C48.4657 17.5133 48.419 17.5733 48.339 17.6C48.2724 17.64 48.2257 17.6867 48.199 17.74C48.0124 17.7267 47.8524 17.7067 47.719 17.68C47.599 17.6667 47.479 17.7467 47.359 17.92C47.359 17.9467 47.3324 17.96 47.279 17.96C47.239 17.9733 47.1857 17.9733 47.119 17.96C47.0524 17.96 46.979 17.94 46.899 17.9C46.8324 17.86 46.7724 17.8067 46.719 17.74C46.439 17.9133 46.2124 18.02 46.039 18.06C46.0524 17.9933 45.9924 17.9533 45.859 17.94C45.7257 17.94 45.639 17.98 45.599 18.06C45.0924 18.0867 44.8457 17.9867 44.859 17.76C44.8324 17.8133 44.7724 17.8533 44.679 17.88C44.599 17.9067 44.5124 17.9267 44.419 17.94C44.3257 17.9533 44.2324 17.96 44.139 17.96C44.059 17.9733 43.999 17.9867 43.959 18C43.9324 17.96 43.879 17.9333 43.799 17.92C43.719 17.92 43.6324 17.92 43.539 17.92C43.459 17.9333 43.3857 17.94 43.319 17.94C43.2524 17.9533 43.219 17.9467 43.219 17.92C43.0457 17.88 42.8657 17.8533 42.679 17.84C42.5057 17.8267 42.3857 17.7733 42.319 17.68C42.159 17.72 41.9857 17.74 41.799 17.74C41.6124 17.7533 41.4857 17.7133 41.419 17.62L41.259 17.52ZM44.699 6.3C44.619 6.23333 44.6124 6.13333 44.679 6C44.7457 5.86667 44.7724 5.7 44.759 5.5C44.919 5.42 45.0724 5.37333 45.219 5.36C45.379 5.33333 45.519 5.30667 45.639 5.28L46.219 5.4L47.099 5.42L47.779 5.46L48.679 5.32C48.5724 5.24 48.5124 5.1 48.499 4.9C48.4857 4.7 48.499 4.54667 48.539 4.44C48.5124 4.33333 48.5057 4.21333 48.519 4.08C48.5457 3.93333 48.519 3.78667 48.439 3.64C48.399 3.62667 48.3724 3.59333 48.359 3.54C48.359 3.48667 48.3657 3.43333 48.379 3.38C48.3924 3.31333 48.4057 3.25333 48.419 3.2C48.4457 3.13333 48.4657 3.09333 48.479 3.08C48.4124 2.88 48.379 2.72667 48.379 2.62C48.3924 2.51333 48.3524 2.36667 48.259 2.18C48.339 2.07333 48.3857 1.96 48.399 1.84C48.4257 1.70667 48.5324 1.58667 48.719 1.48C48.8524 1.36 48.979 1.29333 49.099 1.28C49.219 1.25333 49.279 1.26 49.279 1.3C49.3724 1.3 49.4457 1.32 49.499 1.36C49.5657 1.38667 49.619 1.41333 49.659 1.44C49.7124 1.46667 49.7657 1.49333 49.819 1.52C49.8724 1.54667 49.939 1.55333 50.019 1.54C50.1657 1.55333 50.259 1.62 50.299 1.74C50.339 1.84667 50.319 1.92667 50.239 1.98C50.319 2.11333 50.3657 2.27333 50.379 2.46C50.3924 2.63333 50.4257 2.77333 50.479 2.88C50.4257 2.90667 50.3857 2.94667 50.359 3C50.3457 3.05333 50.3324 3.11333 50.319 3.18C50.319 3.23333 50.3057 3.29333 50.279 3.36C50.2657 3.41333 50.239 3.46 50.199 3.5C50.2257 3.60667 50.2657 3.72667 50.319 3.86C50.3724 3.98 50.3657 4.14 50.299 4.34C50.2457 4.47333 50.2457 4.58667 50.299 4.68C50.3657 4.76 50.4257 4.82667 50.479 4.88C50.4124 5.06667 50.3724 5.23333 50.359 5.38C50.359 5.52667 50.419 5.68 50.539 5.84C50.4724 5.88 50.4457 5.96667 50.459 6.1C50.4724 6.23333 50.4924 6.3 50.519 6.3C50.4524 6.62 50.439 6.89333 50.479 7.12C50.5324 7.34667 50.5524 7.49333 50.539 7.56C50.5524 7.64 50.5457 7.74 50.519 7.86C50.5057 7.98 50.479 8.11333 50.439 8.26C50.399 8.39333 50.359 8.52667 50.319 8.66C50.279 8.79333 50.2524 8.90667 50.239 9L50.319 9.74C50.2124 10.1533 50.2924 10.3733 50.559 10.4C50.5057 10.5733 50.4257 10.6867 50.319 10.74C50.2124 10.7933 50.1257 10.9 50.059 11.06C49.9257 11.0867 49.7924 11.14 49.659 11.22C49.5257 11.3 49.3524 11.3533 49.139 11.38C49.059 11.4067 48.9524 11.4067 48.819 11.38C48.699 11.3533 48.6057 11.2533 48.539 11.08C48.4457 11.04 48.379 11 48.339 10.96C48.3124 10.92 48.3524 10.8333 48.459 10.7C48.459 10.62 48.4524 10.5333 48.439 10.44C48.439 10.3333 48.4324 10.2267 48.419 10.12C48.419 10.0133 48.419 9.91333 48.419 9.82C48.419 9.72667 48.4257 9.65333 48.439 9.6C48.4524 9.42667 48.4457 9.29333 48.419 9.2C48.3924 9.09333 48.4124 8.92667 48.479 8.7C48.5324 8.64667 48.559 8.58667 48.559 8.52C48.5724 8.45333 48.579 8.39333 48.579 8.34C48.579 8.27333 48.5857 8.22 48.599 8.18C48.6257 8.14 48.6724 8.12 48.739 8.12C48.699 7.96 48.6457 7.78667 48.579 7.6C48.5124 7.4 48.5124 7.18667 48.579 6.96C48.5124 7.02667 48.4457 7.06 48.379 7.06C48.3124 7.06 48.2457 7.05333 48.179 7.04C48.1124 7.02667 48.0457 7.02 47.979 7.02C47.9124 7.00667 47.8457 7.01333 47.779 7.04C47.7524 7.06667 47.6524 7.1 47.479 7.14C47.319 7.16667 47.199 7.13333 47.119 7.04C47.0924 7.04 47.039 7.04667 46.959 7.06C46.879 7.06 46.799 7.06 46.719 7.06C46.639 7.06 46.5657 7.06667 46.499 7.08C46.4457 7.09333 46.4257 7.11333 46.439 7.14C46.2924 7.07333 46.1657 7.04 46.059 7.04C45.9524 7.04 45.8457 7.00667 45.739 6.94C45.5524 6.96667 45.3857 6.97333 45.239 6.96C45.1057 6.93333 45.0324 6.95333 45.019 7.02C44.9257 6.88667 44.839 6.76 44.759 6.64C44.6924 6.52 44.6524 6.38667 44.639 6.24L44.699 6.3ZM36.999 10.22C37.0657 10.22 37.1324 10.1867 37.199 10.12C37.2657 10.0533 37.3257 9.97333 37.379 9.88C37.4057 9.81333 37.4524 9.71333 37.519 9.58C37.599 9.43333 37.6524 9.27333 37.679 9.1L38.139 8.28L38.479 7.68C38.5457 7.61333 38.579 7.53333 38.579 7.44C38.579 7.33333 38.5524 7.24667 38.499 7.18C38.7124 7.08667 38.8457 6.99333 38.899 6.9C38.9657 6.79333 38.9857 6.64667 38.959 6.46C38.9857 6.35333 39.039 6.24667 39.119 6.14C39.2124 6.02 39.279 5.86 39.319 5.66C39.3057 5.7 39.299 5.70667 39.299 5.68C39.299 5.64 39.3057 5.59333 39.319 5.54C39.3457 5.48667 39.379 5.44 39.419 5.4C39.4724 5.34667 39.539 5.32 39.619 5.32C39.6457 5.24 39.7057 5.14667 39.799 5.04C39.9057 4.93333 39.979 4.82667 40.019 4.72C39.9924 4.42667 40.0057 4.18667 40.059 4C40.1257 3.81333 40.139 3.68 40.099 3.6C40.1657 3.50667 40.2057 3.42 40.219 3.34C40.2457 3.24667 40.2657 3.15333 40.279 3.06C40.2924 2.96667 40.3124 2.86667 40.339 2.76C40.3657 2.65333 40.4257 2.54 40.519 2.42C40.4124 2.35333 40.3924 2.25333 40.459 2.12C40.539 1.97333 40.6724 1.88 40.859 1.84C40.899 1.77333 40.919 1.72667 40.919 1.7C40.9324 1.66 40.9457 1.64 40.959 1.64C40.9724 1.62667 40.9924 1.62 41.019 1.62C41.059 1.62 41.119 1.62 41.199 1.62C41.279 1.62 41.3657 1.62 41.459 1.62C41.5524 1.60667 41.639 1.60667 41.719 1.62C41.799 1.62 41.859 1.63333 41.899 1.66C41.9524 1.68667 41.9724 1.74 41.959 1.82C42.1324 1.94 42.2324 2.02667 42.259 2.08C42.2857 2.13333 42.3324 2.25333 42.399 2.44C42.4257 2.61333 42.419 2.74667 42.379 2.84C42.339 2.92 42.2857 2.94667 42.219 2.92L42.239 3.8C42.1324 3.96 42.079 4.14 42.079 4.34C42.079 4.52667 42.0524 4.71333 41.999 4.9C42.039 4.86 42.079 4.86 42.119 4.9C42.1724 4.92667 42.219 4.97333 42.259 5.04C42.299 5.09333 42.3324 5.15333 42.359 5.22C42.3857 5.28667 42.4057 5.33333 42.419 5.36C42.5257 5.38667 42.6057 5.44667 42.659 5.54C42.7257 5.63333 42.7524 5.64667 42.739 5.58C42.8857 5.71333 42.9924 5.82667 43.059 5.92C43.139 6.01333 43.2724 6.16 43.459 6.36C43.4457 6.4 43.4457 6.43333 43.459 6.46C43.4857 6.47333 43.5124 6.49333 43.539 6.52C43.579 6.54667 43.619 6.58667 43.659 6.64C43.699 6.69333 43.739 6.76667 43.779 6.86C43.7524 6.87333 43.739 6.9 43.739 6.94C43.7524 6.98 43.7724 7.02667 43.799 7.08C43.839 7.12 43.8724 7.15333 43.899 7.18C43.939 7.20667 43.9724 7.22 43.999 7.22C44.0657 7.34 44.1324 7.42 44.199 7.46C44.279 7.5 44.3524 7.53333 44.419 7.56C44.4857 7.58667 44.5457 7.61333 44.599 7.64C44.6657 7.65333 44.719 7.7 44.759 7.78C44.7057 7.80667 44.6857 7.84667 44.699 7.9C44.7257 7.94 44.7657 7.99333 44.819 8.06C44.8857 8.12667 44.959 8.20667 45.039 8.3C45.119 8.38 45.199 8.46667 45.279 8.56C45.279 8.62667 45.2924 8.67333 45.319 8.7C45.359 8.72667 45.4057 8.75333 45.459 8.78C45.5124 8.79333 45.5657 8.82 45.619 8.86C45.6857 8.88667 45.7457 8.94 45.799 9.02C45.7457 9.08667 45.7257 9.14 45.739 9.18C45.7524 9.22 45.7657 9.26 45.779 9.3C45.8057 9.34 45.8124 9.38667 45.799 9.44C45.799 9.49333 45.7524 9.57333 45.659 9.68C45.699 9.68 45.7124 9.71333 45.699 9.78C45.699 9.83333 45.6857 9.9 45.659 9.98C45.6457 10.06 45.6257 10.14 45.599 10.22C45.5857 10.2867 45.5857 10.34 45.599 10.38C45.5457 10.3667 45.4924 10.3733 45.439 10.4C45.3857 10.4133 45.319 10.4333 45.239 10.46C45.1724 10.4733 45.0924 10.48 44.999 10.48C44.919 10.48 44.819 10.4467 44.699 10.38C44.6324 10.4867 44.539 10.5 44.419 10.42C44.299 10.34 44.2524 10.26 44.279 10.18C44.1857 10.1267 44.1124 10.0933 44.059 10.08C44.019 10.0667 43.979 10.0533 43.939 10.04C43.899 10.0133 43.859 9.98 43.819 9.94C43.779 9.9 43.7257 9.82667 43.659 9.72C43.6057 9.78667 43.499 9.76667 43.339 9.66C43.1924 9.54 43.079 9.38667 42.999 9.2C43.039 9.22667 43.0457 9.22667 43.019 9.2C42.9924 9.16 42.959 9.12 42.919 9.08C42.879 9.04 42.839 9.00667 42.799 8.98C42.759 8.95333 42.7457 8.94667 42.759 8.96C42.6524 8.84 42.559 8.71333 42.479 8.58C42.4124 8.44667 42.3324 8.32667 42.239 8.22C42.279 8.16667 42.279 8.11333 42.239 8.06C42.199 8.00667 42.1524 7.95333 42.099 7.9C42.0457 7.84667 41.9857 7.8 41.919 7.76C41.8657 7.70667 41.839 7.66 41.839 7.62C41.839 7.58 41.819 7.54 41.779 7.5C41.7524 7.44667 41.719 7.4 41.679 7.36C41.6524 7.32 41.6324 7.28667 41.619 7.26C41.6057 7.22 41.6124 7.2 41.639 7.2C41.5324 7.12 41.459 7.06 41.419 7.02C41.379 6.96667 41.3457 6.92667 41.319 6.9C41.2924 6.86 41.2657 6.83333 41.239 6.82C41.2124 6.80667 41.1657 6.79333 41.099 6.78C41.1124 6.88667 41.0857 7.01333 41.019 7.16C40.9657 7.29333 40.859 7.41333 40.699 7.52L40.319 8.64C40.239 8.72 40.1457 8.8 40.039 8.88C39.9324 8.96 39.8457 9.05333 39.779 9.16C39.699 9.28 39.6457 9.42667 39.619 9.6C39.6057 9.77333 39.5724 9.88667 39.519 9.94C39.3857 10.1 39.279 10.24 39.199 10.36C39.119 10.48 39.0257 10.6067 38.919 10.74C38.879 10.7933 38.8457 10.86 38.819 10.94C38.8057 11.02 38.779 11.0933 38.739 11.16C38.699 11.2267 38.639 11.2867 38.559 11.34C38.4924 11.38 38.3857 11.3933 38.239 11.38C38.1324 11.3133 37.9924 11.2333 37.819 11.14C37.659 11.0333 37.539 10.9333 37.459 10.84C37.3257 10.8667 37.259 10.8267 37.259 10.72C37.259 10.6 37.2257 10.48 37.159 10.36L36.999 10.22Z" fill="#171717"/>
<path d="M23.0023 15L23.8223 14.86L24.6423 14.94L25.5023 15.04C25.489 14.9333 25.449 14.8067 25.3823 14.66C25.3156 14.5 25.3423 14.3267 25.4623 14.14C25.4223 13.9933 25.4023 13.8733 25.4023 13.78C25.4023 13.6733 25.3623 13.5267 25.2823 13.34C25.2956 13.2867 25.2956 13.1733 25.2823 13C25.269 12.8267 25.3356 12.66 25.4823 12.5C25.389 12.4867 25.3623 12.4133 25.4023 12.28C25.4423 12.1467 25.4623 12.0333 25.4623 11.94L24.5823 11.88L23.8023 11.98H22.8023L22.8823 11.88L22.9423 12.76C22.9556 12.76 22.949 12.7933 22.9223 12.86C22.909 12.9133 22.889 12.98 22.8623 13.06C22.849 13.14 22.8356 13.2267 22.8223 13.32C22.8223 13.4133 22.8356 13.4867 22.8623 13.54C22.8756 13.6333 22.8956 13.7267 22.9223 13.82C22.949 13.9 22.969 13.98 22.9823 14.06C22.9956 14.14 23.0156 14.2133 23.0423 14.28C22.9623 14.3333 22.909 14.3867 22.8823 14.44C22.869 14.4933 22.8623 14.5533 22.8623 14.62C22.8756 14.6733 22.8823 14.7333 22.8823 14.8C22.8956 14.8667 22.8956 14.9333 22.8823 15H23.0023ZM17.6423 15.82C17.589 15.8067 17.5556 15.7733 17.5423 15.72C17.529 15.6667 17.529 15.6133 17.5423 15.56C17.5556 15.5067 17.5823 15.4667 17.6223 15.44C17.6756 15.4 17.7423 15.3933 17.8223 15.42C17.7956 15.38 17.7956 15.3333 17.8223 15.28C17.8623 15.2267 17.9023 15.18 17.9423 15.14C17.9956 15.1 18.049 15.0667 18.1023 15.04C18.169 15.0133 18.2223 15.0133 18.2623 15.04C18.3023 15.0533 18.3556 15.0533 18.4223 15.04C18.5023 15.0133 18.5756 14.9867 18.6423 14.96C18.7223 14.92 18.7956 14.8867 18.8623 14.86C18.9423 14.82 19.0023 14.8 19.0423 14.8C19.1623 14.8267 19.2423 14.8867 19.2823 14.98C19.3223 15.06 19.3956 15.0933 19.5023 15.08C19.689 15.0133 19.8623 14.9933 20.0223 15.02C20.1823 15.0467 20.2956 15 20.3623 14.88C20.389 14.92 20.4756 14.9667 20.6223 15.02C20.769 15.06 20.8956 15.12 21.0023 15.2L20.9823 14.36L20.7623 13.62L20.8623 13.2L20.8023 12.6L21.0423 11.82C20.8823 11.7933 20.7023 11.7667 20.5023 11.74C20.3156 11.7 20.129 11.7 19.9423 11.74C19.8756 11.7667 19.7956 11.78 19.7023 11.78C19.609 11.7667 19.5156 11.76 19.4223 11.76C19.329 11.7467 19.249 11.74 19.1823 11.74C19.1156 11.74 19.0756 11.76 19.0623 11.8C18.9956 11.6933 18.929 11.6133 18.8623 11.56C18.7956 11.5067 18.7356 11.46 18.6823 11.42C18.6423 11.3667 18.6156 11.3133 18.6023 11.26C18.589 11.1933 18.6023 11.1 18.6423 10.98C18.4956 10.9667 18.4356 10.8933 18.4623 10.76C18.489 10.6133 18.4756 10.48 18.4223 10.36L18.1823 9.48L18.2423 8.7L18.2623 7.94C18.249 7.84667 18.2356 7.78 18.2223 7.74C18.2223 7.7 18.2156 7.66 18.2023 7.62C18.189 7.58 18.169 7.53334 18.1423 7.48C18.129 7.42667 18.0956 7.34 18.0423 7.22C18.069 7.14 18.1223 7.04667 18.2023 6.94C18.2956 6.83334 18.3556 6.69334 18.3823 6.52C18.4223 6.48 18.449 6.45334 18.4623 6.44C18.4756 6.42667 18.489 6.41334 18.5023 6.4C18.529 6.37334 18.5556 6.34667 18.5823 6.32C18.6223 6.28 18.6823 6.21334 18.7623 6.12C18.749 6.14667 18.8023 6.14667 18.9223 6.12C19.0423 6.09334 19.2556 6 19.5623 5.84C19.669 5.86667 19.7623 5.88667 19.8423 5.9C19.9356 5.9 20.0823 5.91334 20.2823 5.94C20.3223 5.98 20.3556 6.00667 20.3823 6.02C20.409 6.03334 20.4423 6.04667 20.4823 6.06C20.5223 6.07334 20.569 6.08667 20.6223 6.1C20.689 6.1 20.7756 6.12 20.8823 6.16C20.949 6.08 21.0023 6.04 21.0423 6.04C21.0823 6.02667 21.1156 6.03334 21.1423 6.06C21.1823 6.07334 21.2223 6.1 21.2623 6.14C21.3023 6.16667 21.3556 6.18 21.4223 6.18C21.529 6.12667 21.6356 6.07334 21.7423 6.02C21.849 5.95334 21.9623 5.92 22.0823 5.92C22.189 5.89334 22.309 5.88667 22.4423 5.9C22.589 5.91334 22.709 5.95334 22.8023 6.02C22.9356 6.00667 23.0756 5.99334 23.2223 5.98C23.3823 5.96667 23.5023 5.94667 23.5823 5.92C23.7023 5.90667 23.829 5.92667 23.9623 5.98C24.0956 6.03334 24.229 6.04667 24.3623 6.02C24.3356 6.00667 24.3423 6.01334 24.3823 6.04C24.4223 6.05334 24.469 6.07334 24.5223 6.1C24.589 6.11334 24.649 6.12667 24.7023 6.14C24.7556 6.14 24.7823 6.11334 24.7823 6.06C24.8756 6.03334 25.009 6.06 25.1823 6.14C25.369 6.20667 25.4756 6.24 25.5023 6.24C25.6223 6.2 25.7423 6.18667 25.8623 6.2C25.9823 6.21334 26.109 6.19334 26.2423 6.14C26.4023 6.15334 26.5423 6.15334 26.6623 6.14C26.7956 6.12667 26.889 6.08667 26.9423 6.02C27.089 5.95334 27.209 5.93334 27.3023 5.96C27.409 5.97334 27.4956 5.96 27.5623 5.92L27.9423 5.96C27.9156 6 27.9023 6.01334 27.9023 6C27.9156 5.98667 27.9223 5.96667 27.9223 5.94C27.9223 5.91334 27.9156 5.89334 27.9023 5.88C27.9023 5.85334 27.8756 5.84667 27.8223 5.86L27.8623 5.08L28.0623 3.98C28.0223 3.87334 27.9823 3.8 27.9423 3.76C27.9156 3.70667 27.8823 3.67334 27.8423 3.66C27.8156 3.63334 27.7756 3.62 27.7223 3.62C27.6823 3.60667 27.6223 3.58 27.5423 3.54C27.529 3.60667 27.4423 3.66 27.2823 3.7C27.1356 3.72667 27.0023 3.76667 26.8823 3.82C26.8023 3.67334 26.7023 3.60667 26.5823 3.62C26.4623 3.62 26.389 3.61334 26.3623 3.6C26.349 3.64 26.309 3.66 26.2423 3.66C26.1756 3.64667 26.0956 3.64 26.0023 3.64C25.9223 3.62667 25.8356 3.62667 25.7423 3.64C25.6623 3.65334 25.5956 3.69334 25.5423 3.76C25.569 3.74667 25.569 3.72667 25.5423 3.7C25.5156 3.67334 25.4756 3.65334 25.4223 3.64C25.3823 3.62667 25.329 3.62667 25.2623 3.64C25.209 3.64 25.1623 3.66667 25.1223 3.72C25.0023 3.70667 24.909 3.7 24.8423 3.7C24.7756 3.68667 24.7156 3.68 24.6623 3.68C24.609 3.66667 24.549 3.64667 24.4823 3.62C24.4156 3.59334 24.3356 3.56 24.2423 3.52C24.1223 3.57334 24.0156 3.62 23.9223 3.66C23.829 3.68667 23.7556 3.72 23.7023 3.76C23.7023 3.84 23.5023 3.79334 23.1023 3.62C23.0623 3.62 23.009 3.62667 22.9423 3.64C22.889 3.65334 22.829 3.66667 22.7623 3.68C22.709 3.68 22.6623 3.68 22.6223 3.68C22.5823 3.66667 22.569 3.64 22.5823 3.6C22.329 3.66667 22.149 3.7 22.0423 3.7C21.9356 3.7 21.8823 3.73334 21.8823 3.8C21.7756 3.78667 21.669 3.78 21.5623 3.78C21.469 3.76667 21.3356 3.76 21.1623 3.76L20.2223 3.62L19.4223 3.58C19.329 3.63334 19.2556 3.65334 19.2023 3.64C19.149 3.62667 19.1023 3.6 19.0623 3.56C19.0223 3.52 18.9756 3.48 18.9223 3.44C18.8823 3.4 18.8223 3.36667 18.7423 3.34C18.649 3.19334 18.6023 3.1 18.6023 3.06C18.6156 3.00667 18.629 2.90667 18.6423 2.76C18.6556 2.65334 18.669 2.54667 18.6823 2.44C18.709 2.33334 18.7223 2.19334 18.7223 2.02C18.749 1.9 18.809 1.84667 18.9023 1.86C18.9956 1.86 19.1423 1.84667 19.3423 1.82C19.5423 1.75334 19.709 1.73334 19.8423 1.76C19.989 1.77334 20.0956 1.76667 20.1623 1.74C20.3223 1.88667 20.6156 1.94667 21.0423 1.92L21.9223 1.66H22.5223L22.9623 1.76L23.6223 1.84C23.6756 1.82667 23.7423 1.82667 23.8223 1.84C23.9023 1.84 23.989 1.84667 24.0823 1.86C24.1756 1.86 24.2623 1.85334 24.3423 1.84C24.4356 1.82667 24.509 1.8 24.5623 1.76C24.629 1.72 24.7156 1.72667 24.8223 1.78C24.929 1.82 25.0023 1.87334 25.0423 1.94L25.7623 1.74L26.4823 1.84C26.6156 1.90667 26.7623 1.94 26.9223 1.94C27.0956 1.92667 27.1623 1.90667 27.1223 1.88C27.309 1.74667 27.4956 1.70667 27.6823 1.76C27.8823 1.8 28.0356 1.83334 28.1423 1.86C28.289 1.83334 28.449 1.80667 28.6223 1.78C28.809 1.75334 28.9556 1.75334 29.0623 1.78C29.049 1.82 29.0623 1.85334 29.1023 1.88C29.1556 1.90667 29.209 1.93334 29.2623 1.96C29.3156 1.97334 29.3623 1.99334 29.4023 2.02C29.4556 2.03334 29.4756 2.06 29.4623 2.1C29.569 2.26 29.6556 2.42667 29.7223 2.6C29.789 2.76 29.789 2.86667 29.7223 2.92C29.829 3.10667 29.8956 3.25334 29.9223 3.36C29.9623 3.45334 29.929 3.54667 29.8223 3.64C29.7556 3.72 29.7556 3.86 29.8223 4.06C29.9023 4.26 29.9823 4.42 30.0623 4.54C30.049 4.64667 30.0223 4.75334 29.9823 4.86C29.9423 4.95334 29.8956 5.12667 29.8423 5.38C29.8556 5.38 29.8556 5.40667 29.8423 5.46C29.8423 5.51334 29.8356 5.58 29.8223 5.66C29.8223 5.72667 29.8223 5.8 29.8223 5.88C29.8356 5.96 29.8623 6.02667 29.9023 6.08C29.969 6.14667 29.989 6.23334 29.9623 6.34C29.9356 6.44667 29.909 6.6 29.8823 6.8C29.709 7.02667 29.5823 7.21334 29.5023 7.36C29.4223 7.49334 29.2556 7.59334 29.0023 7.66C29.029 7.66 28.9823 7.68 28.8623 7.72C28.7556 7.76 28.589 7.74667 28.3623 7.68C28.2423 7.76 28.1423 7.82 28.0623 7.86C27.9823 7.88667 27.9356 7.86667 27.9223 7.8C27.8556 7.82667 27.7823 7.84 27.7023 7.84C27.6356 7.84 27.5556 7.84 27.4623 7.84C27.3823 7.84 27.2823 7.86 27.1623 7.9C27.0556 7.92667 26.929 7.98 26.7823 8.06C26.649 7.95334 26.5356 7.92 26.4423 7.96C26.3623 7.98667 26.3023 7.94667 26.2623 7.84C26.169 7.90667 26.0823 7.94 26.0023 7.94C25.9356 7.94 25.869 7.93334 25.8023 7.92C25.7356 7.89334 25.6623 7.87334 25.5823 7.86C25.5023 7.83334 25.409 7.83334 25.3023 7.86C25.289 7.94 25.2023 7.97334 25.0423 7.96C24.8956 7.94667 24.7623 7.96667 24.6423 8.02C24.4823 7.92667 24.3823 7.90667 24.3423 7.96C24.3156 8 24.2623 8.02667 24.1823 8.04C24.049 7.90667 23.929 7.84667 23.8223 7.86C23.7156 7.86 23.6156 7.84667 23.5223 7.82C23.2156 7.91334 23.009 7.96667 22.9023 7.98C22.809 7.99334 22.709 7.98 22.6023 7.94C22.4156 7.92667 22.2956 7.94 22.2423 7.98C22.189 8.00667 22.0556 8.02 21.8423 8.02C21.6823 7.88667 21.549 7.81334 21.4423 7.8C21.349 7.78667 21.209 7.84 21.0223 7.96C20.9156 7.85334 20.8156 7.8 20.7223 7.8C20.6423 7.8 20.509 7.83334 20.3223 7.9L20.2023 8L20.4623 7.92L20.2623 8.26L20.3623 8.84L20.4223 9.66C20.4356 9.7 20.4356 9.74 20.4223 9.78C20.409 9.82 20.3956 9.86 20.3823 9.9C20.369 9.94 20.369 9.98 20.3823 10.02C20.409 10.0467 20.469 10.0667 20.5623 10.08C20.749 10.1467 20.8823 10.1933 20.9623 10.22C21.0556 10.2333 21.1356 10.2267 21.2023 10.2C21.2956 10.1733 21.369 10.1533 21.4223 10.14C21.4756 10.1267 21.5156 10.12 21.5423 10.12C21.5823 10.1067 21.6223 10.1 21.6623 10.1C21.7023 10.1 21.7556 10.1 21.8223 10.1L22.6223 10.16L23.2423 10.32L24.2823 10.36C24.3223 10.2667 24.3556 10.2133 24.3823 10.2C24.4223 10.1867 24.4556 10.18 24.4823 10.18C24.5223 10.18 24.5556 10.18 24.5823 10.18C24.609 10.18 24.6356 10.1467 24.6623 10.08C24.9023 10.0667 25.0556 10.0667 25.1223 10.08C25.189 10.0933 25.2556 10.16 25.3223 10.28C25.5356 10.1867 25.6956 10.14 25.8023 10.14C25.9223 10.14 26.0756 10.1933 26.2623 10.3C26.2356 10.26 26.2823 10.2133 26.4023 10.16C26.5223 10.1067 26.6556 10.1333 26.8023 10.24C26.9356 10.08 27.049 10.0267 27.1423 10.08C27.249 10.1333 27.3556 10.16 27.4623 10.16C27.5823 10.1467 27.6823 10.1267 27.7623 10.1C27.8556 10.0733 27.9356 10.0533 28.0023 10.04C28.0823 10.0133 28.1623 10.0067 28.2423 10.02C28.3356 10.02 28.449 10.06 28.5823 10.14L28.6823 10.1L29.1223 9.7C29.2423 9.88667 29.3756 9.97334 29.5223 9.96C29.669 9.94667 29.8356 9.96 30.0223 10C30.0223 10.04 30.0356 10.1 30.0623 10.18C30.089 10.2467 30.1156 10.3267 30.1423 10.42C30.169 10.5133 30.189 10.6133 30.2023 10.72C30.2156 10.8133 30.2023 10.9 30.1623 10.98C30.0956 11.0867 30.0023 11.2067 29.8823 11.34C29.7623 11.46 29.609 11.5333 29.4223 11.56C29.289 11.5467 29.189 11.5733 29.1223 11.64C29.0556 11.6933 28.989 11.8067 28.9223 11.98C28.6423 11.9267 28.4156 11.92 28.2423 11.96C28.0823 11.9867 27.929 11.9933 27.7823 11.98C27.809 12.0067 27.7423 12.0133 27.5823 12C27.4223 11.9867 27.249 11.9267 27.0623 11.82L27.3223 12.06L27.3023 12.8L27.0623 13.58L27.2023 14.16L27.4423 14.8L27.5223 15.04C27.5756 15.0533 27.6356 15.0533 27.7023 15.04C27.769 15.0133 27.8423 15 27.9223 15C28.0023 14.9867 28.089 14.9867 28.1823 15C28.2756 15.0133 28.369 15.06 28.4623 15.14C28.5156 15.0467 28.569 14.9933 28.6223 14.98C28.689 14.9533 28.749 14.9467 28.8023 14.96C28.869 14.9733 28.9423 14.9867 29.0223 15C29.1023 15.0133 29.1956 15.0067 29.3023 14.98C29.249 14.9667 29.289 14.96 29.4223 14.96C29.5556 14.9467 29.7556 14.98 30.0223 15.06C30.0223 15.06 30.029 15.0533 30.0423 15.04C30.069 15.0267 30.109 15.02 30.1623 15.02C30.2156 15.0067 30.2756 15.0133 30.3423 15.04C30.409 15.0533 30.4823 15.0933 30.5623 15.16C30.6956 15.2 30.7623 15.2933 30.7623 15.44C30.7756 15.5867 30.729 15.7133 30.6223 15.82C30.6356 15.86 30.6356 15.9133 30.6223 15.98C30.609 16.0467 30.589 16.1133 30.5623 16.18C30.549 16.2467 30.529 16.3133 30.5023 16.38C30.4756 16.4467 30.449 16.4933 30.4223 16.52C30.489 16.6533 30.4623 16.7133 30.3423 16.7C30.2356 16.7 30.1023 16.7 29.9423 16.7C29.8356 16.7533 29.7356 16.78 29.6423 16.78C29.5623 16.78 29.4756 16.7733 29.3823 16.76C29.3023 16.76 29.209 16.7533 29.1023 16.74C29.009 16.7267 28.889 16.7333 28.7423 16.76C28.569 16.8133 28.3756 16.8133 28.1623 16.76C27.9623 16.7067 27.8356 16.68 27.7823 16.68C27.6756 16.6667 27.5356 16.7067 27.3623 16.8C27.2023 16.8933 27.009 16.9267 26.7823 16.9C26.7556 16.8333 26.7023 16.7867 26.6223 16.76C26.5556 16.7467 26.389 16.76 26.1223 16.8C26.109 16.8667 26.089 16.9 26.0623 16.9C26.0356 16.9 25.9956 16.8867 25.9423 16.86C25.9023 16.8467 25.8423 16.8267 25.7623 16.8C25.6956 16.7733 25.609 16.7667 25.5023 16.78C25.449 16.7667 25.3956 16.7667 25.3423 16.78C25.3023 16.8067 25.249 16.8267 25.1823 16.84C25.129 16.8533 25.0623 16.8533 24.9823 16.84C24.9023 16.84 24.8156 16.8067 24.7223 16.74C24.669 16.7933 24.6223 16.82 24.5823 16.82C24.5423 16.8333 24.4956 16.84 24.4423 16.84C24.4023 16.84 24.349 16.8467 24.2823 16.86C24.229 16.8733 24.1556 16.9133 24.0623 16.98C24.0623 16.9533 24.0356 16.92 23.9823 16.88C23.929 16.8533 23.869 16.8267 23.8023 16.8C23.7356 16.7867 23.669 16.7733 23.6023 16.76C23.5356 16.76 23.4956 16.76 23.4823 16.76C23.4156 16.7733 23.349 16.78 23.2823 16.78C23.2156 16.78 23.149 16.78 23.0823 16.78C23.029 16.78 22.989 16.7867 22.9623 16.8C22.9356 16.8133 22.9356 16.8267 22.9623 16.84C22.8156 16.88 22.6556 16.8867 22.4823 16.86C22.3223 16.8467 22.2023 16.8733 22.1223 16.94C21.9623 16.9533 21.8156 16.9133 21.6823 16.82C21.5623 16.74 21.449 16.7133 21.3423 16.74C21.2623 16.8067 21.2023 16.8467 21.1623 16.86C21.1223 16.8733 21.0823 16.8667 21.0423 16.84C21.0023 16.8267 20.9423 16.8067 20.8623 16.78C20.7956 16.7667 20.6956 16.76 20.5623 16.76C20.4823 16.84 20.4156 16.8733 20.3623 16.86C20.309 16.8467 20.1956 16.8733 20.0223 16.94C19.7956 16.9133 19.609 16.9133 19.4623 16.94C19.329 16.9667 19.1623 16.98 18.9623 16.98C18.8023 16.9 18.6823 16.8267 18.6023 16.76C18.5356 16.6933 18.4156 16.6267 18.2423 16.56C18.0023 16.6667 17.8023 16.6467 17.6423 16.5C17.4956 16.3533 17.449 16.16 17.5023 15.92L17.6423 15.82Z" fill="#171717"/>
<path d="M11.3559 17L11.4359 16.52C11.5026 16.4267 11.5359 16.3467 11.5359 16.28C11.5492 16.2267 11.5426 16.12 11.5159 15.96C11.5426 15.8533 11.5626 15.7667 11.5759 15.7C11.6026 15.6333 11.6159 15.5733 11.6159 15.52C11.6292 15.4667 11.6292 15.4133 11.6159 15.36C11.6159 15.2933 11.5959 15.2067 11.5559 15.1C11.5026 14.9133 11.4892 14.78 11.5159 14.7C11.5559 14.62 11.5626 14.5067 11.5359 14.36C11.6159 14.1733 11.6759 14.02 11.7159 13.9C11.7559 13.7667 11.7226 13.6467 11.6159 13.54C11.6559 13.4067 11.6826 13.3 11.6959 13.22C11.7226 13.14 11.7426 13.0667 11.7559 13C11.7692 12.92 11.7759 12.8467 11.7759 12.78C11.7892 12.7 11.8092 12.6 11.8359 12.48L11.6159 11.9V10.84V10.18C11.5626 10.14 11.5492 10.02 11.5759 9.82C11.6159 9.60667 11.6626 9.43334 11.7159 9.3C11.7826 9.34 11.7892 9.31334 11.7359 9.22C11.6959 9.11334 11.7159 8.99334 11.7959 8.86C11.7292 8.82 11.6892 8.77334 11.6759 8.72C11.6626 8.66667 11.6626 8.60667 11.6759 8.54C11.6892 8.46 11.6959 8.38 11.6959 8.3C11.6959 8.22 11.6759 8.12667 11.6359 8.02C11.6626 7.91334 11.6759 7.82667 11.6759 7.76C11.6892 7.68 11.6892 7.56667 11.6759 7.42C11.7026 7.23334 11.6826 7.06667 11.6159 6.92C11.5492 6.76 11.4959 6.63334 11.4559 6.54C11.5492 6.51334 11.5959 6.4 11.5959 6.2C11.5959 6 11.5426 5.82 11.4359 5.66C11.5826 5.68667 11.6626 5.63334 11.6759 5.5C11.6892 5.35334 11.6359 5.24667 11.5159 5.18C11.5826 5.14 11.6226 5.05334 11.6359 4.92C11.6626 4.78667 11.6892 4.69334 11.7159 4.64C11.5292 4.48 11.4359 4.33334 11.4359 4.2C11.4359 4.05334 11.3959 3.86667 11.3159 3.64C11.3692 3.58667 11.4026 3.52667 11.4159 3.46C11.4426 3.38 11.4226 3.26667 11.3559 3.12L11.4159 2.86C11.3759 2.64667 11.4026 2.46 11.4959 2.3C11.6026 2.14 11.6959 2.01334 11.7759 1.92C11.8692 1.85334 11.9559 1.80667 12.0359 1.78C12.1292 1.74 12.1892 1.74667 12.2159 1.8C12.4159 1.84 12.5759 1.86 12.6959 1.86C12.8159 1.86 12.9892 1.91334 13.2159 2.02C13.2026 2.11334 13.2026 2.21334 13.2159 2.32C13.2292 2.41334 13.2292 2.56 13.2159 2.76C13.3626 2.84 13.4492 2.91334 13.4759 2.98C13.5159 3.03334 13.4759 3.17334 13.3559 3.4C13.3292 3.45334 13.3359 3.55334 13.3759 3.7C13.4159 3.84667 13.4959 3.99334 13.6159 4.14C13.6292 4.16667 13.6292 4.21334 13.6159 4.28C13.6026 4.33334 13.5826 4.4 13.5559 4.48C13.5426 4.54667 13.5292 4.62 13.5159 4.7C13.5026 4.78 13.5092 4.84667 13.5359 4.9L13.4559 5.44L13.5759 6.22L13.4959 7.12C13.6026 7.08 13.6892 7.06667 13.7559 7.08C13.8226 7.08 13.8826 7.09334 13.9359 7.12C13.9892 7.13334 14.0359 7.14667 14.0759 7.16C14.1292 7.16 14.1892 7.14667 14.2559 7.12C14.3092 7.14667 14.4226 7.14667 14.5959 7.12C14.7692 7.09334 14.9226 7.11334 15.0559 7.18C15.1492 7.12667 15.2226 7.1 15.2759 7.1C15.3426 7.08667 15.3959 7.08667 15.4359 7.1C15.4892 7.11334 15.5359 7.12667 15.5759 7.14C15.6292 7.15334 15.6892 7.16 15.7559 7.16C15.8092 7.26667 15.8359 7.38 15.8359 7.5C15.8492 7.60667 15.9426 7.76 16.1159 7.96C16.0092 8.08 15.9092 8.20667 15.8159 8.34C15.7359 8.46 15.6692 8.55334 15.6159 8.62C15.6426 8.64667 15.6359 8.68 15.5959 8.72C15.5559 8.74667 15.4959 8.77334 15.4159 8.8C15.3492 8.82667 15.2692 8.85334 15.1759 8.88C15.0959 8.89334 15.0226 8.88667 14.9559 8.86L13.8559 9.04C13.8692 9.17334 13.8692 9.30667 13.8559 9.44C13.8426 9.57334 13.7759 9.68 13.6559 9.76C13.6692 9.89334 13.6892 10.0267 13.7159 10.16C13.7426 10.28 13.7692 10.36 13.7959 10.4C13.8092 10.48 13.8026 10.56 13.7759 10.64C13.7626 10.7067 13.7359 10.7733 13.6959 10.84C13.6692 10.8933 13.6492 10.9333 13.6359 10.96C13.6226 10.9867 13.6292 11 13.6559 11C13.6159 11.0533 13.5959 11.1267 13.5959 11.22C13.6092 11.3 13.6159 11.3867 13.6159 11.48C13.6292 11.56 13.6292 11.6467 13.6159 11.74C13.6159 11.82 13.5959 11.8867 13.5559 11.94C13.6492 11.94 13.6826 11.9933 13.6559 12.1C13.6426 12.2067 13.6559 12.3333 13.6959 12.48C13.6559 12.5333 13.6359 12.5867 13.6359 12.64C13.6492 12.6933 13.6626 12.7467 13.6759 12.8C13.6892 12.8533 13.6892 12.9133 13.6759 12.98C13.6759 13.0333 13.6426 13.0933 13.5759 13.16L13.4359 13.88L13.5359 14.56L13.7359 14.96L13.6559 15.58C13.5626 15.6867 13.5092 15.8 13.4959 15.92C13.4826 16.04 13.4959 16.2333 13.5359 16.5L13.3759 16.94C13.3492 17.0467 13.3359 17.1333 13.3359 17.2C13.3492 17.2667 13.3492 17.3133 13.3359 17.34C13.3359 17.38 13.3226 17.4067 13.2959 17.42C13.2826 17.4333 13.2359 17.4467 13.1559 17.46C13.0492 17.5533 12.9692 17.62 12.9159 17.66C12.8759 17.7133 12.7626 17.8067 12.5759 17.94C12.4559 17.7533 12.3359 17.6333 12.2159 17.58C12.1092 17.54 11.9892 17.5067 11.8559 17.48C11.7892 17.36 11.7159 17.26 11.6359 17.18C11.5692 17.1133 11.5426 17.0067 11.5559 16.86L11.3559 17ZM1.7959 16.22C1.92923 16.2467 1.98257 16.2067 1.9559 16.1C1.94257 15.9933 1.94923 15.8867 1.9759 15.78C2.12257 15.5933 2.20923 15.4 2.2359 15.2C2.2759 14.9867 2.32257 14.8333 2.3759 14.74C2.42923 14.62 2.46257 14.5133 2.4759 14.42C2.50257 14.3133 2.5159 14.22 2.5159 14.14C2.52923 14.0467 2.54257 13.9533 2.5559 13.86C2.56923 13.7533 2.60256 13.64 2.6559 13.52C2.64257 13.48 2.64257 13.4267 2.6559 13.36C2.66923 13.28 2.68257 13.2067 2.6959 13.14C2.72257 13.06 2.7359 12.9867 2.7359 12.92C2.7359 12.8533 2.72257 12.8133 2.6959 12.8C2.74923 12.6267 2.7959 12.5133 2.8359 12.46C2.88923 12.4067 2.96257 12.3133 3.0559 12.18C3.12257 12.1133 3.18257 12.0267 3.2359 11.92C3.30257 11.8 3.36257 11.7067 3.4159 11.64C3.30923 11.4267 3.26923 11.2667 3.2959 11.16C3.32257 11.04 3.40923 10.9133 3.5559 10.78C3.48923 10.7267 3.4559 10.68 3.4559 10.64C3.46923 10.6 3.48257 10.5667 3.4959 10.54C3.52257 10.5 3.54257 10.46 3.5559 10.42C3.58257 10.38 3.5759 10.3267 3.5359 10.26C3.54923 10.0733 3.56257 9.92 3.5759 9.8C3.60257 9.68 3.6759 9.58667 3.7959 9.52V9.16C3.82257 9.01334 3.84923 8.90667 3.8759 8.84C3.90257 8.76 3.92923 8.69334 3.9559 8.64C3.98257 8.58667 4.0159 8.54 4.0559 8.5C4.10923 8.46 4.1759 8.40667 4.2559 8.34C4.1759 8.28667 4.14923 8.19334 4.1759 8.06C4.20257 7.91334 4.24923 7.78667 4.3159 7.68C4.22257 7.61334 4.16923 7.55334 4.1559 7.5C4.14257 7.43334 4.1359 7.37334 4.1359 7.32C4.14923 7.25334 4.1559 7.19334 4.1559 7.14C4.1559 7.07334 4.1359 7.00667 4.0959 6.94C4.04257 6.83334 4.04923 6.72667 4.1159 6.62C4.18257 6.51334 4.24257 6.44667 4.2959 6.42C4.2559 6.22 4.2359 6.04 4.2359 5.88C4.24923 5.70667 4.28257 5.63334 4.3359 5.66C4.26923 5.54 4.2359 5.44 4.2359 5.36C4.2359 5.28 4.24257 5.21334 4.2559 5.16C4.28257 5.09334 4.30257 5.03334 4.3159 4.98C4.32923 4.92667 4.32257 4.86667 4.2959 4.8C4.38923 4.65334 4.42256 4.52 4.3959 4.4C4.36923 4.26667 4.32257 4.18667 4.2559 4.16C4.24257 4.12 4.24923 4.08 4.2759 4.04C4.30257 3.98667 4.32257 3.93334 4.3359 3.88C4.34923 3.81334 4.34923 3.75334 4.3359 3.7C4.32257 3.63334 4.2759 3.56667 4.1959 3.5C4.36923 3.27334 4.4559 3.09334 4.4559 2.96C4.4559 2.81334 4.48923 2.75334 4.5559 2.78C4.5959 2.72667 4.64923 2.66667 4.7159 2.6C4.7959 2.52 4.88257 2.44667 4.9759 2.38C5.06923 2.31334 5.16257 2.26 5.2559 2.22C5.34923 2.16667 5.42923 2.14 5.4959 2.14C5.60256 2.28667 5.74923 2.38 5.9359 2.42C6.12257 2.46 6.26923 2.53334 6.3759 2.64C6.40257 2.74667 6.42923 2.84667 6.4559 2.94C6.48257 3.03334 6.50923 3.17334 6.5359 3.36C6.5359 3.38667 6.54257 3.44 6.5559 3.52C6.56923 3.58667 6.56923 3.66 6.5559 3.74C6.5559 3.80667 6.54257 3.87334 6.5159 3.94C6.48923 3.99334 6.44256 4.02 6.3759 4.02C6.46923 4.22 6.48256 4.34 6.4159 4.38C6.36257 4.42 6.30923 4.48667 6.2559 4.58C6.38923 4.71334 6.4559 4.82667 6.4559 4.92C6.4559 5.01334 6.44923 5.11334 6.4359 5.22C6.3959 5.27334 6.3759 5.34667 6.3759 5.44C6.38923 5.52 6.40257 5.60667 6.4159 5.7C6.44256 5.79334 6.46923 5.88667 6.4959 5.98C6.5359 6.07334 6.56257 6.14667 6.5759 6.2C6.5759 6.17334 6.5359 6.20667 6.4559 6.3C6.3759 6.38 6.30923 6.48667 6.2559 6.62C6.30923 6.74 6.34257 6.82667 6.3559 6.88C6.38257 6.93334 6.3959 6.98667 6.3959 7.04C6.3959 7.08 6.38257 7.12667 6.3559 7.18C6.34257 7.23334 6.32257 7.31334 6.2959 7.42C6.34923 7.48667 6.38257 7.55334 6.3959 7.62C6.42257 7.67334 6.4359 7.73334 6.4359 7.8C6.44923 7.85334 6.46256 7.90667 6.4759 7.96C6.48923 8 6.52257 8.03334 6.5759 8.06C6.52257 8.18 6.48923 8.28 6.4759 8.36C6.46256 8.44 6.4359 8.51334 6.3959 8.58L6.4359 8.68V9.22C6.5559 9.20667 6.64257 9.23334 6.6959 9.3C6.74923 9.36667 6.78923 9.45334 6.8159 9.56C6.8559 9.66667 6.88257 9.78667 6.8959 9.92C6.92256 10.04 6.96923 10.1467 7.0359 10.24C7.12923 10.3067 7.2159 10.4333 7.2959 10.62C7.38923 10.7933 7.4759 10.9 7.5559 10.94C7.5959 11.0067 7.64257 11.08 7.6959 11.16C7.76257 11.2267 7.82257 11.2933 7.8759 11.36C7.92923 11.4133 7.9759 11.4533 8.0159 11.48C8.06923 11.4933 8.1159 11.4733 8.1559 11.42C8.22257 11.5267 8.26923 11.62 8.2959 11.7C8.32257 11.7667 8.34257 11.8333 8.3559 11.9C8.38257 11.9533 8.40923 12.0067 8.4359 12.06C8.4759 12.1133 8.5359 12.1733 8.6159 12.24C8.66923 12.3467 8.70923 12.4933 8.7359 12.68C8.76257 12.8667 8.86923 13.0133 9.0559 13.12C9.04257 13.2667 9.06923 13.4 9.1359 13.52C9.2159 13.6267 9.3759 13.7333 9.6159 13.84C9.6559 13.8267 9.70257 13.8467 9.7559 13.9C9.80923 13.9533 9.8559 14.02 9.8959 14.1C9.9359 14.1667 9.96257 14.2333 9.9759 14.3C10.0026 14.3667 10.0092 14.4067 9.9959 14.42C10.0359 14.5267 10.1092 14.6533 10.2159 14.8C10.3226 14.9333 10.3626 15.1133 10.3359 15.34C10.3626 15.34 10.3626 15.36 10.3359 15.4C10.3226 15.44 10.2959 15.5 10.2559 15.58C10.2292 15.6467 10.2026 15.7267 10.1759 15.82C10.1492 15.9 10.1559 15.98 10.1959 16.06C10.0226 16.2333 9.86257 16.3333 9.7159 16.36C9.56923 16.3867 9.34923 16.34 9.0559 16.22C9.02923 16.3 9.00256 16.3333 8.9759 16.32C8.94923 16.32 8.9159 16.3067 8.8759 16.28C8.8359 16.2533 8.78923 16.2267 8.7359 16.2C8.6959 16.1733 8.64257 16.18 8.5759 16.22C8.46923 15.9667 8.3959 15.8 8.3559 15.72C8.32923 15.64 8.22923 15.6267 8.0559 15.68C8.08257 15.56 8.04257 15.46 7.9359 15.38C7.82923 15.3 7.72923 15.1533 7.6359 14.94C7.68923 14.8867 7.70257 14.84 7.6759 14.8C7.66257 14.7467 7.6359 14.7067 7.5959 14.68C7.5559 14.6533 7.5159 14.64 7.4759 14.64C7.4359 14.6267 7.4159 14.64 7.4159 14.68C7.34923 14.6267 7.30257 14.58 7.2759 14.54C7.24923 14.4867 7.22923 14.44 7.2159 14.4C7.2159 14.3467 7.2159 14.2933 7.2159 14.24C7.2159 14.1733 7.20923 14.1 7.1959 14.02C7.12923 13.94 7.08257 13.8867 7.0559 13.86C7.02923 13.82 7.00257 13.7867 6.9759 13.76C6.96257 13.72 6.94257 13.68 6.9159 13.64C6.90257 13.5867 6.8759 13.5067 6.8359 13.4C6.66257 13.4267 6.5359 13.3867 6.4559 13.28C6.38923 13.1733 6.30257 13.0467 6.1959 12.9C6.16923 12.7533 6.12257 12.6267 6.0559 12.52C6.00257 12.4 5.94923 12.2867 5.8959 12.18C5.90923 12.1933 5.90257 12.1267 5.8759 11.98C5.86257 11.8333 5.78257 11.7067 5.6359 11.6C5.54257 11.5467 5.48257 11.4733 5.4559 11.38C5.42923 11.2867 5.46257 11.2533 5.5559 11.28C5.5559 11.28 5.5359 11.3 5.4959 11.34C5.46923 11.3667 5.42923 11.4067 5.3759 11.46C5.3359 11.5 5.28923 11.5533 5.2359 11.62C5.1959 11.6733 5.1759 11.74 5.1759 11.82C5.10923 11.9267 5.08923 12.0667 5.1159 12.24C5.14257 12.4 5.10257 12.5467 4.9959 12.68C5.02257 12.7333 4.9959 12.8067 4.9159 12.9C4.84923 12.98 4.8559 13.0733 4.9359 13.18C4.9359 13.2867 4.90923 13.3733 4.8559 13.44C4.8159 13.5067 4.7759 13.5733 4.7359 13.64C4.6959 13.6933 4.66257 13.76 4.6359 13.84C4.60923 13.92 4.6159 14.02 4.6559 14.14C4.56257 14.1933 4.50923 14.2667 4.4959 14.36C4.48257 14.44 4.44923 14.4533 4.3959 14.4C4.30257 14.56 4.26257 14.7067 4.2759 14.84C4.30257 14.9733 4.34923 15.1133 4.4159 15.26C4.30923 15.3 4.18923 15.4933 4.0559 15.84C4.0159 15.9467 3.96257 16.0467 3.8959 16.14C3.82923 16.2333 3.80257 16.3333 3.8159 16.44C3.8559 16.44 3.86923 16.46 3.8559 16.5C3.84257 16.5533 3.8159 16.6067 3.7759 16.66C3.7359 16.7267 3.68923 16.7867 3.6359 16.84C3.5959 16.9067 3.5559 16.9467 3.5159 16.96C3.48923 16.9867 3.46257 17.0267 3.4359 17.08C3.40923 17.1467 3.38257 17.2 3.3559 17.24C3.32923 17.28 3.28923 17.3 3.2359 17.3C3.1959 17.3133 3.14923 17.2867 3.0959 17.22C2.94923 17.2333 2.82923 17.2333 2.7359 17.22C2.64257 17.2067 2.5559 17.1867 2.4759 17.16C2.40923 17.1467 2.3359 17.1333 2.2559 17.12C2.18923 17.1067 2.0959 17.1133 1.9759 17.14C1.9359 16.9667 1.92257 16.8133 1.9359 16.68C1.94923 16.56 1.94923 16.44 1.9359 16.32L1.7959 16.22Z" fill="#171717"/>
</svg>
