<svg width="54" height="32" viewBox="0 0 54 32" fill="none" xmlns="http://www.w3.org/2000/svg">
<path d="M49.1993 15.01L49.5393 15.25L49.8393 15.45L49.8193 15.97L49.8393 16.35L50.0193 16.69L50.3593 16.91V17.37L50.6793 17.57L50.8393 17.97L51.0993 18.27L51.0593 18.73L51.0993 19.15L51.3793 19.61L51.0793 19.85L51.3793 20.17L51.1593 20.61L50.9193 21.01L51.0393 21.43L50.9593 21.87L50.6593 22.19L50.3393 22.49L50.1993 22.93L49.7593 22.95L49.4393 23.23L49.1193 23.59L48.6793 23.23H48.3193L47.9593 23.07L47.6193 23.03L47.1993 22.95L46.9193 22.69L46.7193 22.33L46.2793 22.21L46.0793 21.89L45.8593 21.47L45.4193 21.39L45.1393 21.21L44.7193 21.09L44.3593 21.27L44.0993 21.57L44.0193 22.03L43.6393 22.27L43.3193 22.49L42.9993 22.67L42.7993 23.07L42.4793 23.23L42.0193 23.21L41.7393 23.59L41.3793 23.29L40.9593 23.37L40.7193 23.15L40.3393 23.05L39.9993 22.79L39.5993 22.65L39.4393 22.29V21.81L39.2793 21.41L39.1393 21.05L38.8593 20.63L39.2593 20.21L39.0393 19.79L39.1193 19.49V19.09L39.2593 18.75L39.2793 18.37L39.3593 18.05L39.4593 17.63L39.7793 17.41L39.6393 16.89L40.0193 16.67L40.3793 16.33L40.4393 15.95L40.3993 15.41L40.8993 15.29L41.1793 14.99L41.4193 14.67L41.6793 14.39L41.8593 13.99L42.0193 13.61L42.5993 13.69L42.8393 13.31L43.1993 13.19L43.5393 12.87L43.9593 12.93L44.3193 12.79L44.7793 12.77L45.1593 12.89L45.5193 13.11L45.8793 12.91L46.2593 13.13L46.5393 13.21L47.0593 13.01L47.3593 13.23L47.5993 13.59L47.8793 13.85L48.2793 13.97L48.5393 14.27L48.6593 14.59L49.0393 14.69L49.1993 15.01ZM40.3393 10.21L40.3593 9.89001L40.3193 9.55001L40.5393 9.21001L40.5193 8.83001L40.6993 8.51001L40.7793 8.21001L41.1193 7.95001L41.4193 7.75001L41.8393 7.73001L42.1793 7.77001L42.5193 8.09001L42.8393 8.29001L43.1393 8.57001L43.2793 8.99001L43.4193 9.37001L43.5393 9.71001V10.03L43.5993 10.43L43.5793 10.75L43.5393 11.13L43.2993 11.35L43.2393 11.71L43.0193 11.91L42.8193 12.13H42.4793L42.1193 12.29L41.7993 12.25L41.5393 12.13L41.2793 12.11L40.8993 11.93L40.6993 11.69L40.5193 11.33L40.4393 10.95L40.4193 10.57L40.3393 10.21ZM46.4193 11.97L46.1193 11.79L45.8393 11.47V11.05L45.6993 10.65L45.7993 10.29L45.9193 9.91001L45.9593 9.53001L46.1593 9.17001L46.3793 8.85001L46.6393 8.61001L46.9193 8.31001L47.1993 8.05001L47.6393 7.91001L48.0393 7.95001L48.3793 8.23001L48.5393 8.53001L48.6793 8.85001L48.9793 9.13001L49.1193 9.47001L49.0593 9.83001L48.9793 10.21L49.0993 10.55L49.0793 10.95L48.7993 11.19L48.5593 11.47L48.3793 11.73L48.0993 11.99L47.8393 12.07L47.4993 12.09L47.1393 12.21L46.7793 12.11L46.4193 11.97ZM53.0593 12.45L53.1593 12.91L53.0393 13.35L52.8993 13.85L52.6993 14.23L52.3993 14.49L52.0993 14.69L51.7393 14.87L51.3593 14.75L50.9793 14.71L50.6793 14.69L50.3193 14.51L50.0793 14.11L50.0193 13.73L49.9993 13.33L49.9593 13.03L50.0193 12.61L50.1993 12.29L50.4393 11.95L50.6993 11.71L50.9593 11.47L51.2993 11.25L51.6793 11.31L52.0993 11.39L52.4593 11.49L52.7993 11.73L53.0193 12.05L53.0593 12.45ZM39.6393 14.71L39.3193 14.87L39.0593 15.09L38.6793 15.15L38.4393 15.03L38.0593 15.05L37.6993 14.89L37.4593 14.65L37.1593 14.45L36.9593 14.15L36.8793 13.89L36.7993 13.61L36.9593 13.19L37.0193 12.75V12.29L37.2993 11.95L37.7793 11.75L38.1793 11.71H38.5793L38.8393 12.03L39.0993 12.41L39.3593 12.71L39.5793 13.05L39.7593 13.37L39.8193 13.83L39.7593 14.17L39.8193 14.59L39.6393 14.71Z" fill="white"/>
<path d="M19.8819 22.35C19.8552 22.4033 19.9019 22.4433 20.0219 22.47C20.1419 22.4967 20.3152 22.5367 20.5419 22.59C20.6085 22.4833 20.7152 22.45 20.8619 22.49C21.0085 22.5433 21.1219 22.6033 21.2019 22.67C21.2685 22.59 21.3419 22.53 21.4219 22.49C21.5152 22.45 21.6085 22.4767 21.7019 22.57C21.8219 22.53 21.9685 22.5033 22.1419 22.49C22.3152 22.49 22.4752 22.5033 22.6219 22.53C22.7552 22.4633 22.8752 22.43 22.9819 22.43C23.0885 22.43 23.1285 22.4967 23.1019 22.63C23.1819 22.6167 23.3085 22.5833 23.4819 22.53C23.6552 22.4767 23.8285 22.49 24.0019 22.57C24.0152 22.6233 24.0819 22.63 24.2019 22.59C24.3219 22.5633 24.3952 22.5233 24.4219 22.47C24.5019 22.4967 24.5685 22.5033 24.6219 22.49C24.6885 22.49 24.7485 22.4833 24.8019 22.47C24.8685 22.47 24.9352 22.47 25.0019 22.47C25.0819 22.4833 25.1819 22.5167 25.3019 22.57C25.2619 22.5033 25.2952 22.4633 25.4019 22.45C25.5219 22.45 25.6885 22.5033 25.9019 22.61C26.0085 22.57 26.1152 22.55 26.2219 22.55C26.3285 22.5633 26.4285 22.5767 26.5219 22.59C26.6152 22.6033 26.6952 22.61 26.7619 22.61C26.8419 22.61 26.9152 22.59 26.9819 22.55C27.0352 22.4967 27.0952 22.45 27.1619 22.41C27.2419 22.37 27.3085 22.3233 27.3619 22.27C27.4285 22.2167 27.4752 22.1433 27.5019 22.05C27.5419 21.9567 27.5485 21.8167 27.5219 21.63H27.4619L27.3419 21.29L27.4219 21.03L27.0419 21.11C26.9885 21.0833 26.9019 21.07 26.7819 21.07C26.6619 21.07 26.5619 21.05 26.4819 21.01C26.3752 21.0633 26.2485 21.1033 26.1019 21.13C25.9552 21.1567 25.8685 21.2033 25.8419 21.27C25.6419 21.1767 25.4552 21.1567 25.2819 21.21C25.1219 21.25 25.0485 21.2833 25.0619 21.31C24.9819 21.27 24.9085 21.2367 24.8419 21.21C24.7885 21.17 24.7285 21.1367 24.6619 21.11C24.5952 21.07 24.5152 21.0433 24.4219 21.03C24.3285 21.0167 24.2019 21.01 24.0419 21.01C23.9352 21.0367 23.8619 21.0633 23.8219 21.09C23.7819 21.1033 23.7019 21.0967 23.5819 21.07C23.4885 21.1367 23.3485 21.1967 23.1619 21.25C22.9752 21.29 22.7885 21.2967 22.6019 21.27C22.5485 21.2167 22.4885 21.19 22.4219 21.19C22.3685 21.19 22.3085 21.2033 22.2419 21.23C22.1885 21.2567 22.1352 21.2833 22.0819 21.31C22.0285 21.3367 21.9819 21.3433 21.9419 21.33C21.6752 21.2233 21.4619 21.17 21.3019 21.17C21.1552 21.1567 21.0485 21.1367 20.9819 21.11C20.7419 21.0967 20.5285 21.1167 20.3419 21.17C20.1685 21.2233 19.9819 21.2033 19.7819 21.11C19.6752 21.0967 19.6019 21.1033 19.5619 21.13C19.5219 21.1433 19.5152 21.2367 19.5419 21.41L19.4419 21.79L19.4619 22.03L19.3419 22.25C19.3685 22.25 19.4419 22.2633 19.5619 22.29C19.6952 22.33 19.8019 22.4033 19.8819 22.51V22.35ZM17.7819 24.01C17.6752 23.8767 17.6285 23.7433 17.6419 23.61C17.6685 23.49 17.6619 23.3167 17.6219 23.09C17.5952 23.0767 17.5752 22.9767 17.5619 22.79C17.5485 22.6167 17.5552 22.4633 17.5819 22.33L17.3419 21.61L17.4419 20.79C17.4552 20.6967 17.4485 20.61 17.4219 20.53C17.4085 20.45 17.4752 20.29 17.6219 20.05C17.5819 19.9967 17.5752 19.95 17.6019 19.91C17.6419 19.87 17.6885 19.83 17.7419 19.79C17.7952 19.7367 17.8485 19.6833 17.9019 19.63C17.9685 19.5633 18.0219 19.4767 18.0619 19.37C18.1285 19.3567 18.1819 19.3367 18.2219 19.31C18.2752 19.27 18.3285 19.23 18.3819 19.19C18.4485 19.15 18.5285 19.1167 18.6219 19.09C18.7285 19.0633 18.8685 19.05 19.0419 19.05C19.1619 19.17 19.2552 19.2433 19.3219 19.27C19.3885 19.2967 19.4085 19.33 19.3819 19.37C19.5019 19.3033 19.5952 19.2567 19.6619 19.23C19.7285 19.19 19.7819 19.1767 19.8219 19.19C19.8619 19.19 19.8952 19.21 19.9219 19.25C19.9619 19.29 20.0085 19.3433 20.0619 19.41C20.1685 19.3167 20.2552 19.2567 20.3219 19.23C20.3885 19.2033 20.4485 19.19 20.5019 19.19C20.5552 19.1767 20.5952 19.17 20.6219 19.17C20.6619 19.17 20.6952 19.15 20.7219 19.11C20.8285 19.27 20.9685 19.35 21.1419 19.35C21.3285 19.3367 21.4485 19.3233 21.5019 19.31C21.5019 19.3367 21.5752 19.3633 21.7219 19.39C21.8685 19.4167 22.0352 19.43 22.2219 19.43C22.2619 19.4033 22.3552 19.37 22.5019 19.33C22.6619 19.29 22.7819 19.2167 22.8619 19.11C22.9419 19.11 22.9952 19.1167 23.0219 19.13C23.0619 19.13 23.0885 19.1367 23.1019 19.15C23.1285 19.15 23.1485 19.1567 23.1619 19.17C23.1752 19.17 23.2152 19.1767 23.2819 19.19C23.4152 19.19 23.5219 19.19 23.6019 19.19C23.6952 19.1767 23.7685 19.17 23.8219 19.17C23.8885 19.17 23.9485 19.17 24.0019 19.17C24.0552 19.17 24.1152 19.1767 24.1819 19.19C24.2085 19.23 24.2485 19.25 24.3019 19.25C24.3552 19.2367 24.4152 19.23 24.4819 19.23C24.5485 19.2167 24.6152 19.21 24.6819 19.21C24.7485 19.21 24.8152 19.23 24.8819 19.27C24.9352 19.27 24.9752 19.2767 25.0019 19.29C25.0419 19.3033 25.0819 19.31 25.1219 19.31C25.1619 19.31 25.2085 19.3033 25.2619 19.29C25.3285 19.2633 25.4219 19.23 25.5419 19.19C25.5419 19.2167 25.6152 19.2633 25.7619 19.33C25.9085 19.3967 26.0085 19.4367 26.0619 19.45C26.1819 19.45 26.3219 19.45 26.4819 19.45C26.6552 19.4367 26.8152 19.4167 26.9619 19.39C27.0685 19.2567 27.2019 19.1833 27.3619 19.17C27.5352 19.1433 27.6752 19.1233 27.7819 19.11C28.0485 19.2167 28.2752 19.2833 28.4619 19.31C28.6485 19.3233 28.7819 19.35 28.8619 19.39C28.8219 19.4567 28.8352 19.5367 28.9019 19.63C28.9819 19.7233 29.0419 19.8033 29.0819 19.87C29.1885 19.9767 29.2419 20.0967 29.2419 20.23C29.2552 20.3633 29.3152 20.4833 29.4219 20.59C29.4619 20.6433 29.4819 20.7367 29.4819 20.87C29.4952 21.0033 29.4285 21.11 29.2819 21.19L29.4819 22.19L29.4219 22.79L29.4419 23.03L29.4019 23.09L29.1819 23.25C29.2219 23.3167 29.2352 23.3633 29.2219 23.39C29.2219 23.43 29.2019 23.47 29.1619 23.51C29.1352 23.55 29.0952 23.59 29.0419 23.63C29.0019 23.6833 28.9685 23.75 28.9419 23.83C28.8752 23.8967 28.8285 23.9367 28.8019 23.95C28.7752 23.9633 28.7485 23.9767 28.7219 23.99C28.7085 24.0033 28.6885 24.0167 28.6619 24.03C28.6352 24.0433 28.6019 24.0767 28.5619 24.13C28.4552 24.0633 28.3685 24.0433 28.3019 24.07C28.2352 24.0967 28.1285 24.1633 27.9819 24.27C27.8485 24.27 27.6752 24.27 27.4619 24.27C27.2619 24.2833 27.1219 24.2833 27.0419 24.27C26.7885 24.2967 26.5819 24.3233 26.4219 24.35C26.2619 24.3767 26.1285 24.3567 26.0219 24.29C25.9285 24.3167 25.8219 24.33 25.7019 24.33C25.5819 24.3433 25.4619 24.3167 25.3419 24.25C25.2885 24.2633 25.1885 24.29 25.0419 24.33C24.8952 24.37 24.7752 24.43 24.6819 24.51C24.6552 24.43 24.6219 24.3767 24.5819 24.35C24.5552 24.3233 24.5152 24.31 24.4619 24.31C24.4085 24.31 24.3485 24.3033 24.2819 24.29C24.2152 24.29 24.1352 24.27 24.0419 24.23C23.9485 24.3367 23.8419 24.39 23.7219 24.39C23.6019 24.39 23.5285 24.33 23.5019 24.21C23.4752 24.25 23.4285 24.27 23.3619 24.27C23.3085 24.2833 23.2485 24.2967 23.1819 24.31C23.1152 24.3367 23.0552 24.37 23.0019 24.41C22.9619 24.45 22.9352 24.51 22.9219 24.59C22.7885 24.5367 22.6819 24.49 22.6019 24.45C22.5219 24.4233 22.4552 24.3967 22.4019 24.37C22.3485 24.3567 22.2952 24.3433 22.2419 24.33C22.2019 24.33 22.1485 24.3167 22.0819 24.29C22.0419 24.29 21.9885 24.29 21.9219 24.29C21.8685 24.3033 21.8152 24.3167 21.7619 24.33C21.7085 24.3567 21.6619 24.3833 21.6219 24.41C21.5819 24.4367 21.5685 24.4633 21.5819 24.49C21.3685 24.4633 21.2219 24.4233 21.1419 24.37C21.0752 24.3167 20.9552 24.3033 20.7819 24.33C20.7685 24.3833 20.7285 24.4233 20.6619 24.45C20.5952 24.4767 20.5219 24.49 20.4419 24.49C20.3752 24.5033 20.3085 24.4967 20.2419 24.47C20.1752 24.4567 20.1419 24.4367 20.1419 24.41C19.6219 24.45 19.3152 24.35 19.2219 24.11C19.0485 24.0833 18.9085 24.11 18.8019 24.19C18.7085 24.27 18.6019 24.33 18.4819 24.37C18.4019 24.3433 18.3019 24.2633 18.1819 24.13C18.0752 23.9967 17.9885 23.9167 17.9219 23.89L17.7819 24.01ZM17.9619 17.61C17.8285 17.61 17.7285 17.6167 17.6619 17.63C17.6085 17.63 17.5619 17.63 17.5219 17.63C17.4819 17.63 17.4419 17.6233 17.4019 17.61C17.3619 17.5967 17.2952 17.57 17.2019 17.53C17.2152 17.4633 17.2085 17.4167 17.1819 17.39C17.1552 17.35 17.1219 17.3167 17.0819 17.29C17.0419 17.2633 17.0019 17.2367 16.9619 17.21C16.9352 17.17 16.9219 17.11 16.9219 17.03C17.0019 16.9367 17.0552 16.85 17.0819 16.77C17.1219 16.6767 17.1552 16.6033 17.1819 16.55C17.2085 16.4967 17.2419 16.4567 17.2819 16.43C17.3219 16.39 17.3819 16.37 17.4619 16.37C17.4619 16.2367 17.4952 16.1233 17.5619 16.03C17.6285 15.9233 17.7619 15.9233 17.9619 16.03C18.1885 15.9233 18.3419 15.89 18.4219 15.93C18.5019 15.9567 18.5485 16.0167 18.5619 16.11C18.8152 16.07 19.0085 16.0567 19.1419 16.07C19.2752 16.07 19.3819 16.0367 19.4619 15.97C19.5819 15.9567 19.7019 15.9833 19.8219 16.05C19.9552 16.1167 20.0619 16.1833 20.1419 16.25C20.3019 16.1433 20.4752 16.07 20.6619 16.03C20.8485 15.99 21.0085 15.9833 21.1419 16.01C21.1819 16.0767 21.2285 16.13 21.2819 16.17C21.3485 16.21 21.4952 16.23 21.7219 16.23C21.7619 16.2167 21.8285 16.19 21.9219 16.15C22.0285 16.11 22.1219 16.1033 22.2019 16.13C22.3752 16.21 22.5352 16.2367 22.6819 16.21C22.8419 16.1833 22.9285 16.2033 22.9419 16.27C23.1019 16.2967 23.2419 16.2833 23.3619 16.23C23.4952 16.1767 23.5685 16.15 23.5819 16.15C23.7419 16.2167 23.9219 16.2367 24.1219 16.21C24.3219 16.1833 24.4752 16.1633 24.5819 16.15C24.6219 16.15 24.7019 16.1633 24.8219 16.19C24.9419 16.2033 25.0485 16.1367 25.1419 15.99C25.2085 16.0433 25.3219 16.0967 25.4819 16.15C25.6552 16.19 25.7485 16.1567 25.7619 16.05C25.9219 16.1167 26.0685 16.1367 26.2019 16.11C26.3352 16.07 26.4419 16.0433 26.5219 16.03C26.6285 16.0567 26.7152 16.0833 26.7819 16.11C26.8619 16.1233 26.9352 16.1367 27.0019 16.15C27.0819 16.1633 27.1619 16.1767 27.2419 16.19C27.3352 16.19 27.4485 16.1967 27.5819 16.21C27.6619 16.13 27.7352 16.09 27.8019 16.09C27.8685 16.0767 27.9219 16.0767 27.9619 16.09C28.0152 16.1033 28.0552 16.11 28.0819 16.11C28.1085 16.0967 28.1285 16.05 28.1419 15.97C28.1952 15.9967 28.2552 16.01 28.3219 16.01C28.3885 16.01 28.4552 16.01 28.5219 16.01C28.5885 15.9967 28.6485 15.9967 28.7019 16.01C28.7552 16.01 28.7885 16.03 28.8019 16.07C29.0552 16.0967 29.2552 16.1433 29.4019 16.21C29.5619 16.2633 29.6352 16.2833 29.6219 16.27C29.7685 16.3233 29.8619 16.41 29.9019 16.53C29.9419 16.6367 30.0085 16.73 30.1019 16.81C30.1019 16.9433 30.0952 17.05 30.0819 17.13C30.0685 17.21 30.0485 17.2833 30.0219 17.35C29.9952 17.4033 29.9619 17.4567 29.9219 17.51C29.8819 17.55 29.8285 17.61 29.7619 17.69C29.6819 17.7167 29.6085 17.73 29.5419 17.73C29.4885 17.73 29.4352 17.7367 29.3819 17.75C29.3285 17.75 29.2752 17.7633 29.2219 17.79C29.1685 17.8167 29.1085 17.87 29.0419 17.95C29.0019 17.9633 28.9352 17.97 28.8419 17.97C28.7619 17.9567 28.6152 17.91 28.4019 17.83C28.2952 17.83 28.2019 17.83 28.1219 17.83C28.0419 17.8167 27.9085 17.7833 27.7219 17.73C27.6819 17.8767 27.6219 17.95 27.5419 17.95C27.4752 17.9367 27.3419 17.8433 27.1419 17.67C27.0619 17.7767 26.9685 17.8367 26.8619 17.85C26.7552 17.85 26.6885 17.89 26.6619 17.97L25.6619 17.85L25.3019 17.69L24.5019 17.81L23.8819 17.69L22.8619 17.79C22.8085 17.8567 22.7685 17.89 22.7419 17.89C22.7152 17.89 22.6819 17.89 22.6419 17.89C22.6152 17.8767 22.5685 17.8767 22.5019 17.89C22.4352 17.89 22.3419 17.9233 22.2219 17.99C22.2485 17.87 22.1885 17.8233 22.0419 17.85C21.8952 17.8633 21.7552 17.8833 21.6219 17.91C21.6752 17.95 21.6419 17.9833 21.5219 18.01C21.4152 18.0233 21.3285 18.03 21.2619 18.03C21.0085 17.9233 20.8285 17.8633 20.7219 17.85C20.6152 17.8233 20.4685 17.8433 20.2819 17.91C20.2152 17.9233 20.1419 17.9167 20.0619 17.89C19.9819 17.8633 19.8619 17.8233 19.7019 17.77C19.6485 17.7967 19.6085 17.8167 19.5819 17.83C19.5685 17.83 19.5419 17.83 19.5019 17.83C19.4752 17.83 19.4419 17.8367 19.4019 17.85C19.3619 17.8633 19.2952 17.89 19.2019 17.93C19.0819 17.8233 18.9619 17.7767 18.8419 17.79C18.7352 17.79 18.5752 17.81 18.3619 17.85C18.3752 17.8233 18.3219 17.8233 18.2019 17.85C18.0819 17.8633 17.9685 17.8433 17.8619 17.79L17.9619 17.61ZM21.0419 12.51C21.4285 12.63 21.7152 12.67 21.9019 12.63C22.0885 12.59 22.2085 12.59 22.2619 12.63C22.4352 12.6567 22.5885 12.67 22.7219 12.67C22.8552 12.6567 22.9752 12.65 23.0819 12.65C23.1885 12.6367 23.2885 12.6367 23.3819 12.65C23.4752 12.6633 23.5619 12.71 23.6419 12.79L24.1619 12.57L25.0819 12.59C25.1485 12.59 25.2485 12.5967 25.3819 12.61C25.5152 12.61 25.6685 12.6633 25.8419 12.77C25.9485 12.6233 26.2485 12.55 26.7419 12.55C26.7152 12.4033 26.7285 12.29 26.7819 12.21C26.8352 12.1167 26.9152 12.01 27.0219 11.89C27.0352 11.9033 27.0552 11.89 27.0819 11.85C27.1085 11.81 27.1285 11.7633 27.1419 11.71C27.1685 11.6433 27.1819 11.5767 27.1819 11.51C27.1952 11.43 27.1819 11.37 27.1419 11.33C27.1685 11.21 27.1952 11.13 27.2219 11.09C27.2485 11.0367 27.2085 10.93 27.1019 10.77C27.0352 10.7033 26.9685 10.65 26.9019 10.61C26.8352 10.5567 26.7419 10.49 26.6219 10.41C26.6085 10.4233 26.5752 10.4233 26.5219 10.41C26.4819 10.3833 26.4352 10.3633 26.3819 10.35C26.3285 10.3233 26.2752 10.31 26.2219 10.31C26.1685 10.2967 26.1219 10.3033 26.0819 10.33C25.8419 10.2233 25.6419 10.1433 25.4819 10.09C25.3352 10.0367 25.2419 9.97667 25.2019 9.91C25.1219 9.95 25.0552 9.97667 25.0019 9.99C24.9485 9.99 24.8952 9.99 24.8419 9.99C24.8019 9.97667 24.7485 9.97667 24.6819 9.99C24.6152 10.0033 24.5352 10.0367 24.4419 10.09C24.3352 10.0233 24.2285 9.99 24.1219 9.99C24.0152 9.97667 23.9152 9.97 23.8219 9.97C23.7419 9.97 23.6619 9.97 23.5819 9.97C23.5019 9.97 23.4352 9.94334 23.3819 9.89C23.3152 9.95667 23.2485 9.99667 23.1819 10.01C23.1152 10.0233 23.0419 10.0233 22.9619 10.01C22.8819 9.99667 22.7885 9.98334 22.6819 9.97C22.5752 9.94334 22.4552 9.92334 22.3219 9.91C22.1485 9.93667 21.9619 9.97667 21.7619 10.03C21.5752 10.0833 21.3819 10.1233 21.1819 10.15C21.1152 10.2567 21.0085 10.3167 20.8619 10.33C20.7285 10.3433 20.5619 10.3967 20.3619 10.49C20.3885 10.4633 20.3685 10.49 20.3019 10.57C20.2352 10.6367 20.2219 10.7167 20.2619 10.81C20.1685 10.8233 20.0952 10.8567 20.0419 10.91C20.0019 10.9633 19.9685 11.0233 19.9419 11.09C19.9152 11.1567 19.8885 11.2167 19.8619 11.27C19.8485 11.3233 19.8219 11.35 19.7819 11.35C19.8219 11.4833 19.8619 11.5833 19.9019 11.65C19.9419 11.7167 19.9819 11.77 20.0219 11.81C20.0619 11.8367 20.0952 11.87 20.1219 11.91C20.1619 11.9367 20.1952 11.9833 20.2219 12.05C20.3152 12.1967 20.4685 12.3233 20.6819 12.43C20.8952 12.5367 21.0819 12.5633 21.2419 12.51H21.0419ZM18.1019 11.41C18.0352 11.29 18.0085 11.1433 18.0219 10.97C18.0352 10.7833 18.0685 10.6767 18.1219 10.65C17.9752 10.49 17.9219 10.37 17.9619 10.29C18.0152 10.1967 18.0752 10.05 18.1419 9.85C18.2619 9.81 18.3619 9.77667 18.4419 9.75C18.5352 9.71 18.5819 9.61 18.5819 9.45C18.5819 9.39667 18.6352 9.32334 18.7419 9.23C18.8485 9.13667 18.9352 9.05667 19.0019 8.99C19.0685 9.03 19.1285 9.04334 19.1819 9.03C19.2352 9.00334 19.2819 8.97667 19.3219 8.95C19.3619 8.91 19.3952 8.87667 19.4219 8.85C19.4619 8.81 19.5019 8.79 19.5419 8.79C19.6085 8.65667 19.7019 8.59 19.8219 8.59C19.9552 8.59 20.0152 8.58334 20.0019 8.57C20.0419 8.54334 20.1019 8.51667 20.1819 8.49C20.2619 8.45 20.3352 8.42334 20.4019 8.41C20.4685 8.39667 20.5285 8.39667 20.5819 8.41C20.6352 8.41 20.6552 8.43 20.6419 8.47C20.9085 8.44334 21.0885 8.43 21.1819 8.43C21.2752 8.43 21.3819 8.44334 21.5019 8.47C21.5285 8.39 21.5619 8.33667 21.6019 8.31C21.6419 8.27 21.6819 8.25 21.7219 8.25C21.7752 8.25 21.8152 8.25667 21.8419 8.27C21.8819 8.27 21.9152 8.26334 21.9419 8.25C22.0619 8.21 22.1552 8.18334 22.2219 8.17C22.2885 8.15667 22.3485 8.15667 22.4019 8.17C22.4685 8.17 22.5352 8.18334 22.6019 8.21C22.6819 8.22334 22.7819 8.24334 22.9019 8.27C22.9019 8.16334 22.9485 8.13667 23.0419 8.19C23.1485 8.24334 23.3019 8.25667 23.5019 8.23C23.5552 8.25667 23.6085 8.27 23.6619 8.27C23.7285 8.25667 23.7885 8.25 23.8419 8.25C23.9085 8.25 23.9685 8.25667 24.0219 8.27C24.0752 8.28334 24.1285 8.32334 24.1819 8.39C24.2885 8.36334 24.3752 8.31667 24.4419 8.25C24.5219 8.18334 24.5752 8.15667 24.6019 8.17C24.6819 8.27667 24.8019 8.32334 24.9619 8.31C25.1352 8.29667 25.3352 8.25667 25.5619 8.19C25.5085 8.16334 25.5419 8.19 25.6619 8.27C25.7819 8.35 25.9752 8.39667 26.2419 8.41C26.3219 8.38334 26.4152 8.39 26.5219 8.43C26.6285 8.47 26.6619 8.52334 26.6219 8.59C26.8885 8.59 27.0552 8.60334 27.1219 8.63C27.2019 8.65667 27.2419 8.68334 27.2419 8.71C27.2952 8.79 27.3552 8.85 27.4219 8.89C27.5019 8.91667 27.5819 8.93667 27.6619 8.95C27.7419 8.96334 27.8152 8.97667 27.8819 8.99C27.9619 8.99 28.0352 9.00334 28.1019 9.03C28.1019 9.03 28.1085 9.05667 28.1219 9.11C28.1485 9.15 28.1752 9.19667 28.2019 9.25C28.2419 9.30334 28.2885 9.34334 28.3419 9.37C28.3952 9.39667 28.4552 9.39 28.5219 9.35C28.5752 9.37667 28.6085 9.42334 28.6219 9.49C28.6485 9.55667 28.6685 9.63 28.6819 9.71C28.7085 9.77667 28.7352 9.83667 28.7619 9.89C28.8019 9.94334 28.8552 9.97667 28.9219 9.99C28.9619 10.0033 28.9819 10.03 28.9819 10.07C28.9952 10.11 28.9952 10.17 28.9819 10.25C28.9819 10.3167 28.9819 10.3967 28.9819 10.49C28.9819 10.5833 28.9952 10.69 29.0219 10.81C29.0485 10.89 29.1552 11.0433 29.3419 11.27C29.2752 11.8433 29.2485 12.1367 29.2619 12.15C29.1552 12.2567 29.0485 12.3767 28.9419 12.51C28.8485 12.6433 28.8019 12.7367 28.8019 12.79C28.8019 13.0167 28.7419 13.1833 28.6219 13.29C28.5152 13.3967 28.4352 13.4833 28.3819 13.55C28.2485 13.5633 28.1352 13.6033 28.0419 13.67C27.9485 13.7367 27.9152 13.7833 27.9419 13.81C27.7552 13.7967 27.5752 13.81 27.4019 13.85C27.2419 13.8767 27.1019 13.9633 26.9819 14.11C26.9819 14.15 26.9552 14.17 26.9019 14.17C26.8619 14.17 26.8219 14.1633 26.7819 14.15C26.7419 14.1367 26.7019 14.13 26.6619 14.13C26.6352 14.13 26.6352 14.15 26.6619 14.19C26.5819 14.1633 26.5019 14.1633 26.4219 14.19C26.3552 14.2167 26.2819 14.25 26.2019 14.29C26.1219 14.3167 26.0419 14.35 25.9619 14.39C25.8819 14.4167 25.8019 14.4233 25.7219 14.41C25.7352 14.3567 25.7285 14.3233 25.7019 14.31C25.6752 14.2967 25.6352 14.2967 25.5819 14.31C25.5419 14.31 25.4952 14.3167 25.4419 14.33C25.3885 14.33 25.3419 14.31 25.3019 14.27C25.0619 14.3367 24.8952 14.3833 24.8019 14.41C24.7085 14.4233 24.5552 14.4233 24.3419 14.41C24.3019 14.45 24.2485 14.47 24.1819 14.47C24.1152 14.4567 24.0419 14.45 23.9619 14.45C23.8819 14.4367 23.7885 14.43 23.6819 14.43C23.5885 14.43 23.4819 14.4633 23.3619 14.53C23.3219 14.5833 23.2419 14.5967 23.1219 14.57C23.0019 14.53 22.8552 14.5233 22.6819 14.55C22.5619 14.4433 22.4952 14.3833 22.4819 14.37C22.4685 14.3433 22.3952 14.3567 22.2619 14.41C22.1419 14.41 22.0485 14.41 21.9819 14.41C21.9285 14.3967 21.8752 14.39 21.8219 14.39C21.7685 14.3767 21.7085 14.3767 21.6419 14.39C21.5752 14.39 21.4752 14.4167 21.3419 14.47C21.2752 14.4433 21.1819 14.43 21.0619 14.43C20.9552 14.43 20.9085 14.43 20.9219 14.43C20.8552 14.3633 20.7819 14.3167 20.7019 14.29C20.6352 14.2633 20.5619 14.2433 20.4819 14.23C20.4019 14.2033 20.3219 14.1767 20.2419 14.15C20.1619 14.11 20.0952 14.05 20.0419 13.97C20.0152 14.0367 19.9885 14.07 19.9619 14.07C19.9352 14.07 19.8952 14.0567 19.8419 14.03C19.8019 14.0033 19.7552 13.9833 19.7019 13.97C19.6485 13.9567 19.5819 13.97 19.5019 14.01C19.4752 13.9433 19.4352 13.8967 19.3819 13.87C19.3419 13.8433 19.2885 13.8233 19.2219 13.81C19.1685 13.7833 19.1085 13.75 19.0419 13.71C18.9752 13.67 18.9085 13.6033 18.8419 13.51C18.8019 13.5233 18.7752 13.5233 18.7619 13.51C18.7485 13.4833 18.7352 13.4567 18.7219 13.43C18.7219 13.39 18.7085 13.35 18.6819 13.31C18.6685 13.27 18.6285 13.2367 18.5619 13.21C18.4952 13.0767 18.4285 12.9833 18.3619 12.93C18.2952 12.8633 18.2752 12.7767 18.3019 12.67C18.2619 12.6967 18.2219 12.69 18.1819 12.65C18.1419 12.61 18.1085 12.5633 18.0819 12.51C18.0685 12.4567 18.0552 12.41 18.0419 12.37C18.0419 12.3167 18.0485 12.2967 18.0619 12.31C17.9952 12.2033 17.9552 12.1167 17.9419 12.05C17.9285 11.97 17.9219 11.8967 17.9219 11.83C17.9352 11.7633 17.9419 11.6967 17.9419 11.63C17.9419 11.5633 17.9285 11.4833 17.9019 11.39L18.1019 11.41Z" fill="white"/>
<path d="M10.896 22.89L10.696 22.69C10.736 22.65 10.7694 22.5967 10.796 22.53C10.8227 22.4633 10.8494 22.39 10.876 22.31C10.9027 22.2433 10.936 22.1833 10.976 22.13C11.016 22.0767 11.076 22.0433 11.156 22.03C11.076 21.8833 11.0294 21.7233 11.016 21.55C11.0027 21.3767 10.9627 21.2567 10.896 21.19C10.976 21.0433 11.016 20.89 11.016 20.73C11.016 20.57 11.0494 20.4767 11.116 20.45C11.076 20.37 11.0494 20.3033 11.036 20.25C11.0227 20.1833 11.0094 20.1233 10.996 20.07C10.9827 20.0033 10.9694 19.9367 10.956 19.87C10.9427 19.8033 10.916 19.7167 10.876 19.61C10.956 19.4633 11.0227 19.33 11.076 19.21C11.1427 19.0767 11.1227 18.9633 11.016 18.87C11.0827 18.8433 11.0894 18.7767 11.036 18.67C10.996 18.5633 10.9427 18.4033 10.876 18.19C10.876 18.15 10.8894 18.0967 10.916 18.03C10.956 17.9633 10.9894 17.8967 11.016 17.83C11.056 17.7633 11.0827 17.7033 11.096 17.65C11.1094 17.5967 11.096 17.57 11.056 17.57C10.976 17.37 10.9427 17.1833 10.956 17.01C10.9827 16.8233 11.0694 16.67 11.216 16.55C11.216 16.4433 11.2027 16.3633 11.176 16.31C11.1627 16.2433 11.1694 16.1033 11.196 15.89C11.076 15.7433 11.0427 15.6233 11.096 15.53C11.056 15.4367 11.036 15.3433 11.036 15.25C11.036 15.1567 11.0427 15.07 11.056 14.99C11.0827 14.8967 11.1027 14.8167 11.116 14.75C11.1294 14.6833 11.1294 14.6233 11.116 14.57C11.1427 14.6233 11.1427 14.5833 11.116 14.45C11.0894 14.3167 11.0427 14.1967 10.976 14.09C11.016 13.9967 11.036 13.9233 11.036 13.87C11.036 13.8167 11.0294 13.77 11.016 13.73C11.0027 13.69 10.996 13.65 10.996 13.61C11.0094 13.5567 11.0427 13.49 11.096 13.41C11.096 13.3567 11.0894 13.3167 11.076 13.29C11.076 13.25 11.0694 13.21 11.056 13.17C11.056 13.1167 11.0494 13.0567 11.036 12.99C11.0227 12.91 11.0094 12.8033 10.996 12.67C10.9827 12.6967 10.976 12.69 10.976 12.65C10.976 12.5967 10.9694 12.5367 10.956 12.47C10.956 12.4033 10.9427 12.3433 10.916 12.29C10.9027 12.2367 10.876 12.21 10.836 12.21C10.9027 12.1167 10.936 12.0367 10.936 11.97C10.9494 11.9033 10.9494 11.85 10.936 11.81C10.9227 11.7567 10.9094 11.7167 10.896 11.69C10.8827 11.65 10.8894 11.6233 10.916 11.61C10.9027 11.5033 10.916 11.39 10.956 11.27C10.996 11.1367 10.9627 11.0167 10.856 10.91C10.8827 10.8433 10.8894 10.7167 10.876 10.53C10.8627 10.3433 10.8427 10.1967 10.816 10.09C10.7894 10.01 10.7894 9.87001 10.816 9.67001C10.856 9.45668 10.8627 9.29001 10.836 9.17001C10.7294 9.22335 10.6694 9.19668 10.656 9.09001C10.656 8.97001 10.6694 8.80335 10.696 8.59001L10.656 8.61001L10.636 8.27001C10.7027 8.17668 10.7494 8.09001 10.776 8.01001C10.816 7.93001 10.8694 7.77668 10.936 7.55001C11.056 7.57668 11.1627 7.57001 11.256 7.53001C11.3627 7.49001 11.536 7.46335 11.776 7.45001C12.0027 7.49001 12.176 7.51668 12.296 7.53001C12.416 7.54335 12.4894 7.55668 12.516 7.57001C12.4894 7.63668 12.4827 7.70335 12.496 7.77001C12.5227 7.82335 12.5494 7.88335 12.576 7.95001C12.6027 8.00335 12.6227 8.06335 12.636 8.13001C12.6627 8.19668 12.656 8.27001 12.616 8.35001C12.6427 8.40335 12.6827 8.45001 12.736 8.49001C12.8027 8.51668 12.8494 8.63001 12.876 8.83001C12.836 8.88335 12.816 8.93668 12.816 8.99001C12.8294 9.04335 12.836 9.09668 12.836 9.15001C12.8494 9.20335 12.8494 9.25001 12.836 9.29001C12.836 9.33001 12.816 9.35668 12.776 9.37001C12.776 9.58335 12.7694 9.76335 12.756 9.91001C12.756 10.0567 12.7627 10.1033 12.776 10.05C12.7894 10.1833 12.7894 10.31 12.776 10.43C12.776 10.55 12.7827 10.61 12.796 10.61C12.9427 10.7433 13.0227 10.9167 13.036 11.13C13.0627 11.3433 13.0627 11.5167 13.036 11.65C13.0627 11.5967 13.056 11.6233 13.016 11.73C12.9894 11.8233 13.0494 11.9367 13.196 12.07C13.1827 12.19 13.1694 12.2833 13.156 12.35C13.1427 12.4033 13.1294 12.45 13.116 12.49C13.1027 12.53 13.0894 12.57 13.076 12.61C13.076 12.65 13.0827 12.7167 13.096 12.81C13.1627 12.89 13.1894 13.01 13.176 13.17C13.176 13.3167 13.1694 13.4767 13.156 13.65C13.1827 13.5167 13.2227 13.4567 13.276 13.47C13.3294 13.47 13.4294 13.49 13.576 13.53C13.736 13.45 13.8694 13.4367 13.976 13.49C14.0827 13.5433 14.2094 13.5633 14.356 13.55C14.436 13.4967 14.516 13.4833 14.596 13.51C14.6894 13.5233 14.776 13.5633 14.856 13.63C14.9494 13.6967 15.036 13.7833 15.116 13.89C15.196 13.9833 15.2627 14.07 15.316 14.15L15.456 14.45C15.456 14.4633 15.4094 14.5233 15.316 14.63C15.2227 14.7233 15.1694 14.8033 15.156 14.87C15.0894 15.0167 14.9694 15.1233 14.796 15.19C14.636 15.2567 14.4827 15.3233 14.336 15.39L13.076 15.33C13.1294 15.5833 13.136 15.7633 13.096 15.87C13.056 15.9767 12.996 16.0633 12.916 16.13C12.9427 16.17 12.956 16.21 12.956 16.25C12.9694 16.29 12.976 16.33 12.976 16.37C12.9894 16.41 13.0027 16.4633 13.016 16.53C13.0294 16.5967 13.0694 16.6833 13.136 16.79C13.0427 16.83 13.0227 16.9367 13.076 17.11C13.1427 17.27 13.1894 17.4233 13.216 17.57C13.1894 17.6367 13.156 17.7033 13.116 17.77C13.076 17.8233 13.056 17.9033 13.056 18.01C13.1227 18.21 13.136 18.3433 13.096 18.41C13.056 18.4767 12.9827 18.5833 12.876 18.73C12.916 18.7833 12.9494 18.8433 12.976 18.91C13.0027 18.9767 13.0227 19.0433 13.036 19.11C13.0494 19.1767 13.056 19.23 13.056 19.27C13.0694 19.31 13.0694 19.3233 13.056 19.31L12.936 20.19L12.796 21.17L12.736 21.87C12.896 21.8833 12.9827 21.93 12.996 22.01C13.0227 22.1033 13.0027 22.1833 12.936 22.25C12.9894 22.3967 12.9894 22.5167 12.936 22.61C12.896 22.7167 12.876 22.8767 12.876 23.09C12.836 23.1167 12.8027 23.1567 12.776 23.21C12.7627 23.2633 12.7494 23.31 12.736 23.35C12.736 23.4033 12.7294 23.4433 12.716 23.47C12.716 23.51 12.696 23.5233 12.656 23.51C12.4294 23.6167 12.256 23.7167 12.136 23.81C12.0294 23.9033 11.9694 23.9233 11.956 23.87C11.8494 23.8567 11.756 23.83 11.676 23.79C11.6094 23.7633 11.5427 23.73 11.476 23.69C11.4227 23.6633 11.3627 23.6433 11.296 23.63C11.2427 23.6167 11.1827 23.6233 11.116 23.65C11.0094 23.5433 10.916 23.41 10.836 23.25C10.7694 23.1033 10.7827 22.9967 10.876 22.93L10.896 22.89ZM2.21604 21.95C2.17604 21.8433 2.10937 21.7367 2.01604 21.63C1.93604 21.51 1.94937 21.3767 2.05604 21.23C1.9227 21.1367 1.8427 21.0367 1.81604 20.93C1.8027 20.8233 1.78937 20.7567 1.77604 20.73C1.78937 20.6233 1.7827 20.5367 1.75604 20.47C1.7427 20.4033 1.71604 20.35 1.67604 20.31C1.64937 20.27 1.6227 20.23 1.59604 20.19C1.5827 20.15 1.58937 20.0967 1.61604 20.03C1.57604 19.95 1.55604 19.8767 1.55604 19.81C1.55604 19.7433 1.55604 19.67 1.55604 19.59C1.56937 19.51 1.57604 19.4233 1.57604 19.33C1.57604 19.2367 1.5627 19.1233 1.53604 18.99C1.5627 19.03 1.55604 18.99 1.51604 18.87C1.48937 18.75 1.50937 18.63 1.57604 18.51C1.54937 18.4033 1.53604 18.31 1.53604 18.23C1.54937 18.15 1.56937 18.0767 1.59604 18.01C1.6227 17.93 1.64937 17.8567 1.67604 17.79C1.7027 17.7233 1.7227 17.65 1.73604 17.57C1.58937 17.4367 1.5227 17.31 1.53604 17.19C1.54937 17.07 1.5427 16.9567 1.51604 16.85C1.7027 16.8767 1.67604 16.7567 1.43604 16.49C1.47604 16.29 1.50937 16.13 1.53604 16.01C1.57604 15.89 1.64937 15.8433 1.75604 15.87C1.64937 15.7767 1.5827 15.65 1.55604 15.49C1.5427 15.3167 1.58937 15.2367 1.69604 15.25C1.6827 15.1967 1.66937 15.13 1.65604 15.05C1.65604 14.97 1.65604 14.8967 1.65604 14.83C1.65604 14.7633 1.6627 14.71 1.67604 14.67C1.68937 14.6167 1.7027 14.5967 1.71604 14.61C1.56937 14.4767 1.49604 14.3633 1.49604 14.27C1.49604 14.1767 1.58937 14.0433 1.77604 13.87C1.6827 13.79 1.61604 13.7233 1.57604 13.67C1.53604 13.6167 1.5027 13.57 1.47604 13.53C1.4627 13.4767 1.45604 13.4233 1.45604 13.37C1.45604 13.3033 1.44937 13.2233 1.43604 13.13C1.5027 13.1167 1.5427 13.09 1.55604 13.05C1.5827 13.01 1.59604 12.97 1.59604 12.93C1.60937 12.8767 1.61604 12.83 1.61604 12.79C1.62937 12.75 1.65604 12.7233 1.69604 12.71C1.6427 12.59 1.61604 12.49 1.61604 12.41C1.61604 12.3167 1.6227 12.2367 1.63604 12.17C1.6627 12.09 1.68937 12.0233 1.71604 11.97C1.75604 11.9167 1.77604 11.8633 1.77604 11.81C1.77604 11.7833 1.75604 11.7433 1.71604 11.69C1.68937 11.6367 1.6627 11.5833 1.63604 11.53C1.60937 11.4633 1.58937 11.4033 1.57604 11.35C1.57604 11.2833 1.60937 11.2367 1.67604 11.21C1.60937 11.0767 1.59604 10.9833 1.63604 10.93C1.67604 10.8767 1.7227 10.81 1.77604 10.73C1.8027 10.57 1.80937 10.41 1.79604 10.25C1.7827 10.09 1.79604 9.94335 1.83604 9.81001C1.76937 9.75668 1.7227 9.71668 1.69604 9.69001C1.6827 9.66335 1.67604 9.64335 1.67604 9.63001C1.67604 9.60335 1.66937 9.57668 1.65604 9.55001C1.65604 9.51001 1.63604 9.45668 1.59604 9.39001C1.60937 9.25668 1.67604 9.11668 1.79604 8.97001C1.92937 8.82335 2.04937 8.71668 2.15604 8.65001C2.16937 8.65001 2.18937 8.63001 2.21604 8.59001C2.25604 8.55001 2.29604 8.51668 2.33604 8.49001C2.38937 8.45001 2.45604 8.42335 2.53604 8.41001C2.62937 8.39668 2.73604 8.41001 2.85604 8.45001C2.8827 8.46335 2.95604 8.43001 3.07604 8.35001C3.20937 8.25668 3.3827 8.19001 3.59604 8.15001C3.72937 8.11001 3.83604 8.12335 3.91604 8.19001C4.00937 8.25668 4.10937 8.29001 4.21604 8.29001C4.3627 8.17001 4.49604 8.14335 4.61604 8.21001C4.74937 8.26335 4.86937 8.31668 4.97604 8.37001C5.0427 8.37001 5.13604 8.36335 5.25604 8.35001C5.38937 8.32335 5.57604 8.22335 5.81604 8.05001C5.81604 8.09001 5.8427 8.12335 5.89604 8.15001C5.94937 8.16335 6.00937 8.17668 6.07604 8.19001C6.1427 8.20335 6.19604 8.23001 6.23604 8.27001C6.28937 8.29668 6.31604 8.33668 6.31604 8.39001C6.35604 8.37668 6.41604 8.37001 6.49604 8.37001C6.57604 8.37001 6.65604 8.36335 6.73604 8.35001C6.81604 8.33668 6.8827 8.31001 6.93604 8.27001C6.98937 8.23001 7.00937 8.17001 6.99604 8.09001C7.11604 8.15668 7.20937 8.20335 7.27604 8.23001C7.35604 8.25668 7.4227 8.27668 7.47604 8.29001C7.52937 8.29001 7.57604 8.29001 7.61604 8.29001C7.66937 8.29001 7.72937 8.29668 7.79604 8.31001C7.92937 8.28335 8.07604 8.29001 8.23604 8.33001C8.39604 8.37001 8.54937 8.40335 8.69604 8.43001C8.74937 8.39001 8.8027 8.38335 8.85604 8.41001C8.90937 8.42335 8.95604 8.45001 8.99604 8.49001C9.03604 8.53001 9.07604 8.57001 9.11604 8.61001C9.15604 8.65001 9.19604 8.66335 9.23604 8.65001C9.23604 8.70335 9.2427 8.79668 9.25604 8.93001C9.2827 9.06335 9.32937 9.14335 9.39604 9.17001C9.43604 9.31668 9.4227 9.45001 9.35604 9.57001C9.3027 9.69001 9.2627 9.82335 9.23604 9.97001C9.12937 10.0367 9.0427 10.0967 8.97604 10.15C8.9227 10.2033 8.87604 10.25 8.83604 10.29C8.79604 10.3167 8.74937 10.3433 8.69604 10.37C8.65604 10.3833 8.59604 10.3967 8.51604 10.41C8.3827 10.4233 8.27604 10.43 8.19604 10.43C8.11604 10.4167 8.0427 10.4033 7.97604 10.39C7.9227 10.3767 7.86937 10.37 7.81604 10.37C7.7627 10.3567 7.7027 10.3567 7.63603 10.37C7.55604 10.3967 7.45604 10.4233 7.33604 10.45C7.22937 10.4767 7.1027 10.4833 6.95604 10.47C6.80937 10.4567 6.61604 10.45 6.37604 10.45C6.13604 10.4367 5.98937 10.4233 5.93604 10.41C5.8427 10.2633 5.71603 10.21 5.55604 10.25C5.39604 10.2767 5.1827 10.29 4.91604 10.29C4.75604 10.3167 4.56937 10.33 4.35603 10.33C4.1427 10.3167 4.0027 10.2633 3.93604 10.17C3.81604 10.1967 3.75604 10.25 3.75604 10.33C3.75604 10.3967 3.69604 10.45 3.57604 10.49L3.63604 11.23L3.85604 11.91L3.77604 12.41L3.53604 13.25L3.55604 13.61C3.5827 13.8767 3.60937 14.0633 3.63604 14.17C3.67604 14.2633 3.72937 14.31 3.79604 14.31C3.6627 14.43 3.58937 14.5433 3.57604 14.65C3.5627 14.7433 3.56937 14.89 3.59604 15.09C3.6227 15.2233 3.6627 15.3433 3.71604 15.45C3.7827 15.5567 3.79604 15.5967 3.75604 15.57C3.7827 15.6233 3.79604 15.6967 3.79604 15.79C3.79604 15.87 3.78937 15.95 3.77604 16.03C3.77604 16.11 3.77604 16.1833 3.77604 16.25C3.77604 16.3167 3.78937 16.35 3.81604 16.35C3.82937 16.43 3.8227 16.5033 3.79604 16.57C3.76937 16.6367 3.7427 16.7033 3.71604 16.77C3.7027 16.8233 3.69604 16.8767 3.69604 16.93C3.70937 16.97 3.75604 17.0033 3.83604 17.03C3.76937 17.11 3.72937 17.19 3.71604 17.27C3.71604 17.35 3.71604 17.4167 3.71604 17.47C3.72937 17.51 3.72937 17.5433 3.71604 17.57C3.71604 17.5967 3.6827 17.6033 3.61604 17.59C3.70937 17.83 3.74937 17.99 3.73604 18.07C3.7227 18.1367 3.6827 18.1833 3.61604 18.21C3.69604 18.3167 3.7427 18.4367 3.75604 18.57C3.76937 18.69 3.77604 18.81 3.77604 18.93C3.77604 19.05 3.77604 19.1633 3.77604 19.27C3.77604 19.3633 3.80937 19.4367 3.87604 19.49C3.9027 19.7567 3.9227 19.99 3.93604 20.19C3.94937 20.3767 3.95604 20.4967 3.95604 20.55C3.92937 21.0433 4.04937 21.1833 4.31604 20.97C4.5027 20.9967 4.61604 21.05 4.65604 21.13C4.69604 21.21 4.7427 21.2367 4.79604 21.21C4.96937 21.1567 5.0827 21.1167 5.13604 21.09C5.2027 21.0633 5.28937 21.1033 5.39604 21.21C5.68937 20.9567 5.90937 20.8767 6.05604 20.97C6.1227 20.9967 6.17604 20.9967 6.21604 20.97C6.26937 20.9433 6.34937 20.97 6.45604 21.05C6.5227 21.09 6.5827 21.11 6.63604 21.11C6.7027 21.0967 6.7627 21.0833 6.81604 21.07C6.8827 21.0433 6.94937 21.03 7.01604 21.03C7.09604 21.0167 7.17604 21.0367 7.25604 21.09C7.29604 21.1033 7.3427 21.0967 7.39604 21.07C7.4627 21.0433 7.5227 21.0233 7.57604 21.01C7.6427 20.9833 7.69604 20.97 7.73604 20.97C7.78937 20.9567 7.8227 20.9767 7.83604 21.03C7.96937 21.03 8.07604 21.03 8.15604 21.03C8.23604 21.0167 8.3027 21.0033 8.35604 20.99C8.4227 20.9633 8.47604 20.9367 8.51604 20.91C8.56937 20.8833 8.63604 20.8567 8.71604 20.83L9.03604 20.79C9.16937 20.9233 9.2627 20.9967 9.31604 21.01C9.36937 21.0233 9.47604 21.0433 9.63604 21.07C9.60937 21.2433 9.5827 21.3967 9.55604 21.53C9.52937 21.65 9.51604 21.7233 9.51604 21.75C9.48937 21.9367 9.4827 22.09 9.49604 22.21C9.50937 22.3433 9.44937 22.45 9.31604 22.53C9.28937 22.5433 9.22937 22.6033 9.13604 22.71C9.0427 22.8167 8.97604 22.87 8.93604 22.87C8.8827 22.8033 8.80937 22.7633 8.71604 22.75C8.6227 22.7367 8.5227 22.7367 8.41604 22.75C8.3227 22.7633 8.22937 22.7833 8.13604 22.81C8.05604 22.8367 7.99604 22.8567 7.95604 22.87C7.83604 22.7767 7.72937 22.75 7.63603 22.79C7.5427 22.83 7.35604 22.89 7.07604 22.97C7.04937 22.9033 6.9827 22.87 6.87604 22.87C6.76937 22.87 6.6027 22.9433 6.37604 23.09C6.38937 23.09 6.3827 23.0767 6.35604 23.05C6.32937 23.0367 6.28937 23.0167 6.23604 22.99C6.19604 22.9767 6.1427 22.97 6.07604 22.97C6.0227 22.9833 5.97604 23.0167 5.93604 23.07C5.65604 22.9233 5.46937 22.8433 5.37604 22.83C5.2827 22.8167 5.1827 22.7967 5.07604 22.77C4.84937 22.9033 4.7027 22.9833 4.63604 23.01C4.5827 23.0367 4.51604 23.0367 4.43604 23.01C4.32937 23.0367 4.2027 23.03 4.05604 22.99C3.90937 22.95 3.7227 22.83 3.49604 22.63C3.45604 22.63 3.4227 22.6433 3.39604 22.67C3.36937 22.71 3.33604 22.7433 3.29604 22.77C3.25604 22.7967 3.2027 22.8167 3.13604 22.83C3.0827 22.8433 3.00937 22.8367 2.91604 22.81C2.79604 22.73 2.68937 22.6367 2.59604 22.53C2.5027 22.4367 2.47604 22.3633 2.51604 22.31C2.4227 22.31 2.34937 22.2833 2.29604 22.23C2.25604 22.19 2.2227 22.1367 2.19604 22.07C2.16937 22.0167 2.1427 21.9633 2.11604 21.91C2.1027 21.8567 2.07604 21.8233 2.03604 21.81L2.21604 21.95Z" fill="white"/>
</svg>
