<svg width="200" height="32" viewBox="0 0 200 32" fill="none" xmlns="http://www.w3.org/2000/svg">
<path d="M165.359 16.2274C165.487 16.2061 165.572 16.1954 165.615 16.1954C165.679 16.1741 165.732 16.1741 165.775 16.1954C165.839 16.1954 165.924 16.2168 166.031 16.2594C166.137 16.3021 166.308 16.3661 166.543 16.4514C166.436 16.3874 166.447 16.3554 166.575 16.3554C166.724 16.3554 166.852 16.3768 166.959 16.4194C167.279 16.3554 167.535 16.2381 167.727 16.0674L169.007 16.1314L170.223 16.0994L171.151 16.3874L172.879 16.0674L173.519 16.4194L174.991 16.0674L176.271 16.3874L177.263 16.1314C177.305 16.1528 177.444 16.0781 177.679 15.9074C177.913 15.7154 178.073 15.5021 178.159 15.2674L177.935 15.6194L178.351 14.1154V12.9954L177.999 11.9074L177.071 11.7474L176.271 11.6514L174.671 12.0034L173.647 11.9714L172.687 11.8434L171.663 11.4594L170.799 12.0034L169.743 11.4914L168.623 11.4274H167.727L166.383 11.7794H165.487L165.359 12.1634C165.316 12.3768 165.316 12.5154 165.359 12.5794C165.401 12.6434 165.508 12.7928 165.679 13.0274C165.572 13.3048 165.487 13.4754 165.423 13.5394C165.38 13.6034 165.455 13.6888 165.647 13.7954C165.604 14.0301 165.551 14.2754 165.487 14.5314C165.423 14.7874 165.529 15.0968 165.807 15.4594L165.519 15.4914L165.615 16.0034L165.359 16.2274ZM161.775 26.3074C161.732 26.0941 161.732 25.9341 161.775 25.8274C161.817 25.6994 161.999 25.5821 162.319 25.4754C162.276 25.4541 162.287 25.4221 162.351 25.3794C162.436 25.3154 162.532 25.2621 162.639 25.2194C162.767 25.1554 162.884 25.0914 162.991 25.0274C163.119 24.9634 163.204 24.8888 163.247 24.8034C163.353 24.9101 163.545 24.9741 163.823 24.9954C164.121 25.0168 164.356 24.9848 164.527 24.8994L165.775 25.2194L166.543 24.9634C166.649 25.1341 166.863 25.2621 167.183 25.3474C167.503 25.4328 167.727 25.4648 167.855 25.4434C167.919 25.3581 168.068 25.3048 168.303 25.2834C168.559 25.2621 168.804 25.2621 169.039 25.2834C169.273 25.3901 169.444 25.4114 169.551 25.3474C169.657 25.2621 169.679 25.1874 169.615 25.1234L170.127 24.6434C170.169 24.3874 170.137 24.1848 170.031 24.0354C169.945 23.8861 169.881 23.8221 169.839 23.8434C170.009 23.5448 170.063 23.2994 169.999 23.1074C169.935 22.9154 169.956 22.7234 170.063 22.5314C170.169 22.3394 170.201 22.1368 170.159 21.9234C170.137 21.6888 170.169 21.5394 170.255 21.4754C170.255 21.1981 170.233 20.9741 170.191 20.8034C170.148 20.6114 170.212 20.4621 170.383 20.3554C170.34 20.2061 170.329 20.0034 170.351 19.7474C170.372 19.4701 170.308 19.2461 170.159 19.0754L168.943 19.1074L167.919 19.0754C167.684 19.1394 167.481 19.1821 167.311 19.2034C167.14 19.2034 166.937 19.3208 166.703 19.5554C166.532 19.5341 166.287 19.4594 165.967 19.3314C165.668 19.1821 165.391 19.1608 165.135 19.2674C165.071 19.2674 164.985 19.2568 164.879 19.2354C164.772 19.1928 164.655 19.1394 164.527 19.0754C164.42 19.0114 164.324 18.9474 164.239 18.8834C164.153 18.7981 164.1 18.7021 164.079 18.5954C163.908 18.6381 163.769 18.6594 163.663 18.6594C163.556 18.6594 163.471 18.6381 163.407 18.5954C163.343 18.5528 163.268 18.4994 163.183 18.4354C163.119 18.3501 163.033 18.2754 162.927 18.2114C162.841 17.9554 162.777 17.7634 162.735 17.6354C162.713 17.4861 162.692 17.3581 162.671 17.2514C162.671 17.1234 162.681 17.0168 162.703 16.9314C162.745 16.8248 162.788 16.6968 162.831 16.5474C162.809 16.5901 162.799 16.5794 162.799 16.5154C162.799 16.4514 162.777 16.3874 162.735 16.3234C162.713 16.2381 162.671 16.1634 162.607 16.0994C162.543 16.0141 162.447 15.9714 162.319 15.9714C162.489 15.7368 162.532 15.4701 162.447 15.1714C162.383 14.8728 162.351 14.6914 162.351 14.6274C162.436 14.5208 162.479 14.4461 162.479 14.4034C162.5 14.3394 162.489 14.2861 162.447 14.2434C162.425 14.2008 162.393 14.1688 162.351 14.1474C162.329 14.1048 162.319 14.0408 162.319 13.9554C162.383 13.8274 162.415 13.7101 162.415 13.6034C162.415 13.4754 162.404 13.3474 162.383 13.2194C162.383 13.0914 162.372 12.9528 162.351 12.8034C162.351 12.6541 162.383 12.4941 162.447 12.3234C162.383 12.3448 162.351 12.3234 162.351 12.2594C162.372 12.1954 162.404 12.1208 162.447 12.0354C162.489 11.9288 162.532 11.8434 162.575 11.7794C162.617 11.6941 162.639 11.6408 162.639 11.6194C162.553 11.4274 162.5 11.2141 162.479 10.9794C162.479 10.7234 162.457 10.5101 162.415 10.3394C162.436 10.3394 162.436 10.3288 162.415 10.3074C162.415 10.2648 162.415 10.2008 162.415 10.1154C162.415 10.0301 162.436 9.93411 162.479 9.82745C162.543 9.72078 162.649 9.60345 162.799 9.47545C162.713 9.21945 162.639 9.03812 162.575 8.93145C162.532 8.80345 162.447 8.60078 162.319 8.32345C162.34 8.02478 162.404 7.77945 162.511 7.58745C162.617 7.39545 162.745 7.11811 162.895 6.75545C162.596 6.71278 162.447 6.60611 162.447 6.43545C162.468 6.24345 162.575 6.09411 162.767 5.98745C162.681 5.90211 162.639 5.81678 162.639 5.73145C162.639 5.62478 162.639 5.52878 162.639 5.44345C162.66 5.33678 162.66 5.24078 162.639 5.15545C162.639 5.04878 162.575 4.94211 162.447 4.83545C162.489 4.64345 162.628 4.47278 162.863 4.32345C163.097 4.17411 163.268 3.93945 163.375 3.61945C163.439 3.51278 163.556 3.43811 163.727 3.39545C163.897 3.35278 163.993 3.43811 164.015 3.65145C164.271 3.65145 164.463 3.64078 164.591 3.61945C164.74 3.59811 164.847 3.58745 164.911 3.58745C164.975 3.58745 165.017 3.61945 165.039 3.68345C165.06 3.72611 165.092 3.82211 165.135 3.97145C165.369 4.07811 165.551 4.21678 165.679 4.38745C165.807 4.55811 165.785 4.69678 165.615 4.80345C165.593 4.95278 165.593 5.09145 165.615 5.21945C165.657 5.34745 165.689 5.46478 165.711 5.57145C165.732 5.67811 165.732 5.77411 165.711 5.85945C165.689 5.94478 165.615 6.00878 165.487 6.05145C165.551 6.15811 165.583 6.37145 165.583 6.69145C165.604 6.99011 165.615 7.18211 165.615 7.26745C165.657 7.41678 165.721 7.64078 165.807 7.93945C165.892 8.21678 165.881 8.52611 165.775 8.86745L166.799 8.41945H167.759L169.135 8.83545L170.415 8.48345L171.471 8.80345L172.463 8.86745L173.391 8.61145L174.351 8.64345L175.535 8.77145L176.911 8.70745L177.679 8.86745C177.679 8.67545 177.679 8.51545 177.679 8.38745C177.679 8.25945 177.668 8.15278 177.647 8.06745C177.647 7.96078 177.636 7.86478 177.615 7.77945C177.615 7.69411 177.593 7.57678 177.551 7.42745C177.636 7.29945 177.689 7.19278 177.711 7.10745C177.732 7.02211 177.743 6.93678 177.743 6.85145C177.764 6.76611 177.775 6.65945 177.775 6.53145C177.796 6.40345 177.86 6.22211 177.967 5.98745C177.881 5.81678 177.828 5.63545 177.807 5.44345C177.807 5.25145 177.924 5.03811 178.159 4.80345C178.052 4.71811 177.999 4.64345 177.999 4.57945C178.02 4.49411 178.063 4.41945 178.127 4.35545C178.191 4.27011 178.265 4.19545 178.351 4.13145C178.436 4.04611 178.5 3.96078 178.543 3.87545C178.521 3.81145 178.617 3.72611 178.831 3.61945C179.065 3.49145 179.279 3.44878 179.471 3.49145C179.684 3.42745 179.855 3.41678 179.983 3.45945C180.111 3.48078 180.217 3.52345 180.303 3.58745C180.409 3.65145 180.505 3.72611 180.591 3.81145C180.697 3.87545 180.815 3.91811 180.943 3.93945C180.943 3.91811 180.975 3.99278 181.039 4.16345C181.124 4.31278 181.177 4.44078 181.199 4.54745L181.295 5.92345L181.071 6.78745L180.847 7.65145L180.751 8.86745L181.135 9.92345V11.0114L181.231 12.0674L180.911 13.0274L181.231 13.7954L181.295 15.1394L181.359 16.0034C181.359 16.2808 181.327 16.5154 181.263 16.7074C181.22 16.8994 181.135 17.1234 181.007 17.3794C180.751 17.5501 180.591 17.7208 180.527 17.8914C180.484 18.0621 180.367 18.2221 180.175 18.3714C180.025 18.4781 179.908 18.5528 179.823 18.5954C179.759 18.6381 179.705 18.6701 179.663 18.6914C179.62 18.6914 179.577 18.7021 179.535 18.7234C179.513 18.7234 179.471 18.7448 179.407 18.7874C179.279 18.8514 179.14 18.9048 178.991 18.9474C178.841 18.9688 178.692 18.9901 178.543 19.0114C178.415 19.0114 178.287 19.0328 178.159 19.0754C178.052 19.0968 177.967 19.1501 177.903 19.2354C177.817 19.4061 177.625 19.4808 177.327 19.4594C177.049 19.4381 176.825 19.2888 176.655 19.0114C176.484 19.2674 176.335 19.3741 176.207 19.3314C176.1 19.2888 176.025 19.2034 175.983 19.0754C175.791 19.2034 175.545 19.2461 175.247 19.2034C174.969 19.1394 174.713 19.1928 174.479 19.3634C174.201 19.4061 174.02 19.4168 173.935 19.3954C173.849 19.3741 173.636 19.3208 173.295 19.2354C173.316 19.3635 173.305 19.5021 173.263 19.6514C173.22 19.7794 173.177 19.9074 173.135 20.0354C173.113 20.1634 173.103 20.2808 173.103 20.3874C173.103 20.4941 173.145 20.5794 173.231 20.6434C173.188 20.7714 173.188 20.9634 173.231 21.2194C173.273 21.4541 173.252 21.6994 173.167 21.9554C173.231 21.9981 173.231 22.1474 173.167 22.4034C173.103 22.6381 173.017 22.8728 172.911 23.1074C172.953 23.0648 173.028 23.1288 173.135 23.2994C173.241 23.4488 173.263 23.6408 173.199 23.8754C173.305 24.1741 173.369 24.4408 173.391 24.6754C173.433 24.9101 173.423 25.1768 173.359 25.4754C173.423 25.4968 173.476 25.4968 173.519 25.4754C173.561 25.4328 173.615 25.3901 173.679 25.3474C173.764 25.3048 173.86 25.2728 173.967 25.2514C174.073 25.2301 174.212 25.2301 174.383 25.2514C174.425 25.4008 174.735 25.3261 175.311 25.0274C175.311 25.1341 175.353 25.1981 175.439 25.2194C175.524 25.2194 175.62 25.2088 175.727 25.1874C175.833 25.1661 175.929 25.1448 176.015 25.1234C176.121 25.0808 176.196 25.0701 176.239 25.0914C176.409 25.1128 176.612 25.1448 176.847 25.1874C177.081 25.2088 177.22 25.1981 177.263 25.1554C177.412 25.1768 177.54 25.1768 177.647 25.1554C177.753 25.1128 177.86 25.0808 177.967 25.0594C178.073 25.0381 178.169 25.0381 178.255 25.0594C178.361 25.0594 178.479 25.1128 178.607 25.2194C178.628 25.0701 178.671 24.9848 178.735 24.9634C178.82 24.9421 178.905 24.9421 178.991 24.9634C179.076 24.9848 179.151 25.0168 179.215 25.0594C179.279 25.0808 179.321 25.0914 179.343 25.0914C179.535 25.0274 179.673 24.9741 179.759 24.9314C179.865 24.8674 179.951 24.8141 180.015 24.7714C180.1 24.7288 180.175 24.6968 180.239 24.6754C180.324 24.6541 180.42 24.6541 180.527 24.6754C180.847 24.6754 181.092 24.7714 181.263 24.9634C181.455 25.1554 181.519 25.3048 181.455 25.4114C181.753 25.6034 181.924 25.7741 181.967 25.9234C182.031 26.0514 181.935 26.2221 181.679 26.4354C181.828 26.5208 181.913 26.6381 181.935 26.7874C181.977 26.9581 181.967 27.1181 181.903 27.2674C181.839 27.4168 181.732 27.5448 181.583 27.6514C181.455 27.7581 181.295 27.8008 181.103 27.7794C180.74 27.7368 180.452 27.7261 180.239 27.7474C180.047 27.7901 179.833 27.8754 179.599 28.0034C179.385 28.0888 179.204 28.1314 179.055 28.1314C178.905 28.1528 178.767 28.1528 178.639 28.1314C178.532 28.1314 178.425 28.1421 178.319 28.1634C178.233 28.1848 178.137 28.2594 178.031 28.3874C177.796 28.3021 177.604 28.2061 177.455 28.0994C177.305 28.0141 177.103 28.0568 176.847 28.2274C176.697 28.2061 176.548 28.1634 176.399 28.0994C176.249 28.0354 175.961 28.0141 175.535 28.0354C175.407 28.2701 175.279 28.3768 175.151 28.3554C175.023 28.3341 174.841 28.3874 174.607 28.5154C174.372 28.4514 174.201 28.3981 174.095 28.3554C173.988 28.3341 173.839 28.2594 173.647 28.1314C173.348 28.3874 173.145 28.5048 173.039 28.4834C172.953 28.4621 172.857 28.3341 172.751 28.0994C172.559 28.3768 172.335 28.4728 172.079 28.3874C171.844 28.3234 171.62 28.2381 171.407 28.1314C171.108 28.2381 170.895 28.3234 170.767 28.3874C170.66 28.4514 170.564 28.4941 170.479 28.5154C170.351 28.4301 170.223 28.3661 170.095 28.3234C169.988 28.3021 169.881 28.2914 169.775 28.2914C169.668 28.2914 169.561 28.2808 169.455 28.2594C169.369 28.2594 169.284 28.2168 169.199 28.1314C169.177 28.1101 169.071 28.1421 168.879 28.2274C168.708 28.3128 168.452 28.3768 168.111 28.4194C168.068 28.4194 167.993 28.4194 167.887 28.4194C167.801 28.4408 167.716 28.4514 167.631 28.4514C167.545 28.4728 167.471 28.4834 167.407 28.4834C167.343 28.5048 167.332 28.5048 167.375 28.4834C167.247 28.3981 167.129 28.3448 167.023 28.3234C166.937 28.3021 166.852 28.2808 166.767 28.2594C166.703 28.2594 166.628 28.2488 166.543 28.2274C166.457 28.2061 166.361 28.1528 166.255 28.0674C166.084 28.1314 165.849 28.1848 165.551 28.2274C165.273 28.2914 165.049 28.2381 164.879 28.0674C164.687 28.1101 164.527 28.1528 164.399 28.1954C164.271 28.2594 164.036 28.2381 163.695 28.1314C163.588 27.9821 163.46 27.9394 163.311 28.0034C163.161 28.0674 162.98 28.0141 162.767 27.8434C162.596 27.7794 162.447 27.7474 162.319 27.7474C162.212 27.7474 162.137 27.7474 162.095 27.7474C162.052 27.7688 162.031 27.7688 162.031 27.7474C162.031 27.7474 162.052 27.7048 162.095 27.6194C161.924 27.5554 161.807 27.4808 161.743 27.3954C161.7 27.3314 161.679 27.2568 161.679 27.1714C161.679 27.1074 161.679 27.0221 161.679 26.9154C161.679 26.8088 161.647 26.6701 161.583 26.4994L161.775 26.3074Z" fill="#111111"/>
<path d="M143.685 26.5634C143.792 26.6274 143.898 26.6594 144.005 26.6594C144.133 26.6594 144.24 26.6488 144.325 26.6274C144.432 26.6061 144.506 26.5848 144.549 26.5634C144.613 26.5421 144.634 26.5421 144.613 26.5634C144.826 26.5421 145.008 26.5314 145.157 26.5314C145.306 26.5528 145.445 26.5741 145.573 26.5954C145.701 26.6381 145.818 26.6701 145.925 26.6914C146.053 26.7341 146.202 26.7448 146.373 26.7234C146.33 26.7448 146.341 26.7341 146.405 26.6914C146.469 26.6701 146.544 26.6488 146.629 26.6274C146.736 26.6274 146.842 26.6381 146.949 26.6594C147.056 26.6808 147.13 26.7448 147.173 26.8514C147.45 26.7661 147.685 26.7021 147.877 26.6594C148.09 26.6381 148.272 26.6274 148.421 26.6274C148.57 26.6274 148.698 26.6168 148.805 26.5954C148.912 26.5741 149.008 26.5314 149.093 26.4674C149.498 26.5741 149.829 26.6488 150.085 26.6914C150.341 26.7554 150.49 26.7341 150.533 26.6274C150.917 26.6488 151.237 26.6594 151.493 26.6594C151.749 26.6594 151.845 26.6381 151.781 26.5954C152.144 26.5314 152.357 26.4461 152.421 26.3394C152.506 26.2114 152.602 26.0514 152.709 25.8594C152.73 25.6248 152.773 25.4434 152.837 25.3154C152.922 25.1874 152.944 25.0594 152.901 24.9314C153.05 24.0994 152.89 23.5874 152.421 23.3954C152.378 23.5021 152.357 23.5128 152.357 23.4274C152.357 23.3208 152.24 23.2888 152.005 23.3314C151.749 23.0754 151.514 22.9048 151.301 22.8194C151.109 22.7341 150.832 22.7234 150.469 22.7874C150.256 22.8088 150.064 22.8194 149.893 22.8194C149.722 22.7981 149.637 22.7768 149.637 22.7554L148.069 22.6594L147.173 22.6914C147.088 22.7981 146.97 22.8621 146.821 22.8834C146.693 22.9048 146.544 22.9154 146.373 22.9154C146.224 22.8941 146.064 22.8728 145.893 22.8514C145.722 22.8088 145.562 22.7874 145.413 22.7874C145.37 22.7448 145.296 22.7341 145.189 22.7554C145.082 22.7554 144.954 22.7768 144.805 22.8194C144.656 22.8408 144.496 22.8621 144.325 22.8834C144.154 22.9048 143.984 22.8941 143.813 22.8514C143.77 22.8941 143.685 22.9901 143.557 23.1394C143.45 23.2888 143.248 23.3528 142.949 23.3314C142.992 23.5021 142.992 23.6621 142.949 23.8114C142.906 23.9394 142.842 24.0674 142.757 24.1954C142.693 24.3234 142.618 24.4408 142.533 24.5474C142.469 24.6541 142.426 24.7608 142.405 24.8674C142.682 25.3154 142.896 25.6568 143.045 25.8914C143.216 26.1261 143.461 26.2861 143.781 26.3714L143.685 26.5634ZM142.181 29.1874C141.968 29.1874 141.84 29.1341 141.797 29.0274C141.754 28.9421 141.712 28.7501 141.669 28.4514C141.52 28.3234 141.37 28.2274 141.221 28.1634C141.093 28.1208 140.976 28.0781 140.869 28.0354C140.656 27.9288 140.453 27.8008 140.261 27.6514C140.09 27.5021 140.037 27.3101 140.101 27.0754C139.632 26.6274 139.482 26.2114 139.653 25.8274C139.781 25.6781 139.77 25.3048 139.621 24.7074C139.514 24.6008 139.482 24.4621 139.525 24.2914C139.568 24.0994 139.525 23.8861 139.397 23.6514C139.418 23.4168 139.514 23.2568 139.685 23.1714C139.877 23.0861 140.005 22.9048 140.069 22.6274C139.984 22.5634 139.973 22.4674 140.037 22.3394C140.122 22.2114 140.208 22.1261 140.293 22.0834C140.336 21.9341 140.368 21.8381 140.389 21.7954C140.432 21.7314 140.474 21.6888 140.517 21.6674C140.56 21.6248 140.624 21.5928 140.709 21.5714C140.794 21.5288 140.922 21.4541 141.093 21.3474C141.029 21.3261 141.008 21.2941 141.029 21.2514C141.072 21.1874 141.136 21.1234 141.221 21.0594C141.328 20.9954 141.445 20.9314 141.573 20.8674C141.701 20.7821 141.818 20.7074 141.925 20.6434C142.01 20.5794 142.117 20.4941 142.245 20.3874C142.373 20.2808 142.448 20.2061 142.469 20.1634C142.682 20.0994 142.842 20.0674 142.949 20.0674C143.056 20.0674 143.141 20.0781 143.205 20.0994C143.269 20.0994 143.322 20.1101 143.365 20.1314C143.429 20.1528 143.493 20.1528 143.557 20.1314C143.706 20.1314 143.834 20.1208 143.941 20.0994C144.048 20.0568 144.154 20.0141 144.261 19.9714C144.389 19.9074 144.517 19.8541 144.645 19.8114C144.773 19.7688 144.922 19.7474 145.093 19.7474C145.157 19.9181 145.274 19.9714 145.445 19.9074C145.616 19.8221 145.893 19.7581 146.277 19.7154C146.362 19.7154 146.437 19.7368 146.501 19.7794C146.586 19.8008 146.789 19.9288 147.109 20.1634C147.13 20.1421 147.173 20.1101 147.237 20.0674C147.322 20.0034 147.408 19.9501 147.493 19.9074C147.6 19.8648 147.717 19.8434 147.845 19.8434C147.973 19.8434 148.101 19.8968 148.229 20.0034C148.208 19.8968 148.261 19.8648 148.389 19.9074C148.517 19.9288 148.677 19.8754 148.869 19.7474C149.146 19.9181 149.338 20.0248 149.445 20.0674C149.573 20.1101 149.69 20.1101 149.797 20.0674C149.989 20.0461 150.138 20.0248 150.245 20.0034C150.352 19.9821 150.437 19.9714 150.501 19.9714C150.565 19.9714 150.618 19.9928 150.661 20.0354C150.725 20.0568 150.81 20.1208 150.917 20.2274C151.109 20.0141 151.28 19.9608 151.429 20.0674C151.578 20.1741 151.77 20.2701 152.005 20.3554C152.09 20.2914 152.186 20.2488 152.293 20.2274C152.421 20.2061 152.549 20.2061 152.677 20.2274C152.805 20.2488 152.922 20.2701 153.029 20.2914C153.136 20.3128 153.221 20.3234 153.285 20.3234C153.285 20.4728 153.317 20.5688 153.381 20.6114C153.445 20.6328 153.52 20.6541 153.605 20.6754C153.712 20.6754 153.818 20.6861 153.925 20.7074C154.053 20.7074 154.192 20.7501 154.341 20.8354C154.405 20.8994 154.448 20.9528 154.469 20.9954C154.512 21.0168 154.544 21.0488 154.565 21.0914C154.608 21.1341 154.661 21.1874 154.725 21.2514C154.789 21.2941 154.874 21.3688 154.981 21.4754C155.173 21.7314 155.354 21.9021 155.525 21.9874C155.717 22.0728 155.866 22.1688 155.973 22.2754C155.802 22.6381 155.76 22.9368 155.845 23.1714C155.952 23.4061 156.133 23.6408 156.389 23.8754C156.176 23.9821 156.058 24.1208 156.037 24.2914C156.037 24.4408 156.176 24.6541 156.453 24.9314C156.432 24.9528 156.389 25.0168 156.325 25.1234C156.261 25.2088 156.197 25.3154 156.133 25.4434C156.09 25.5714 156.048 25.7101 156.005 25.8594C155.962 25.9874 155.962 26.0941 156.005 26.1794C156.133 26.3714 156.144 26.4994 156.037 26.5634C155.93 26.6274 155.888 26.7021 155.909 26.7874C155.632 27.0221 155.429 27.2141 155.301 27.3634C155.194 27.5128 155.12 27.6941 155.077 27.9074C154.906 27.9288 154.757 27.9714 154.629 28.0354C154.522 28.1208 154.416 28.1954 154.309 28.2594C154.202 28.3448 154.106 28.3981 154.021 28.4194C153.936 28.4621 153.85 28.4514 153.765 28.3874C153.744 28.7074 153.648 28.9208 153.477 29.0274C153.306 29.1341 153.061 29.1661 152.741 29.1234C152.762 29.1874 152.752 29.2194 152.709 29.2194C152.666 29.2194 152.602 29.2194 152.517 29.2194C152.432 29.2194 152.336 29.2301 152.229 29.2514C152.122 29.2941 152.037 29.3794 151.973 29.5074C151.845 29.5288 151.696 29.5074 151.525 29.4434C151.376 29.3794 151.184 29.4328 150.949 29.6034C150.842 29.6461 150.757 29.6568 150.693 29.6354C150.629 29.6141 150.554 29.5928 150.469 29.5714C150.384 29.5501 150.277 29.5288 150.149 29.5074C150.042 29.5074 149.893 29.5394 149.701 29.6034C149.53 29.5394 149.36 29.5074 149.189 29.5074C149.04 29.5074 148.986 29.5608 149.029 29.6674C148.752 29.5608 148.517 29.4861 148.325 29.4434C148.154 29.4008 147.973 29.3474 147.781 29.2834C147.61 29.4754 147.397 29.5928 147.141 29.6354C146.885 29.6994 146.746 29.6888 146.725 29.6034C146.234 29.4541 145.861 29.3794 145.605 29.3794C145.349 29.3794 145.21 29.4114 145.189 29.4754C144.357 29.5181 143.866 29.4434 143.717 29.2514C143.653 29.2941 143.557 29.2941 143.429 29.2514C143.301 29.2301 143.162 29.1981 143.013 29.1554C142.885 29.1128 142.757 29.0701 142.629 29.0274C142.501 28.9848 142.416 28.9741 142.373 28.9954L142.181 29.1874ZM147.653 10.6594C147.696 10.5528 147.749 10.4354 147.813 10.3074C147.877 10.1581 147.941 9.99811 148.005 9.82744C148.069 9.76344 148.186 9.62478 148.357 9.41144C148.528 9.17678 148.752 9.03811 149.029 8.99544L150.245 9.31544L151.173 9.18744L152.357 9.15544L153.861 9.37944C153.925 9.01678 153.946 8.75011 153.925 8.57944C153.925 8.38744 153.85 8.24878 153.701 8.16344C153.808 7.77944 153.829 7.50211 153.765 7.33144C153.701 7.16078 153.562 7.00078 153.349 6.85144C153.456 6.65944 153.52 6.51011 153.541 6.40344C153.584 6.29678 153.594 6.19011 153.573 6.08344C153.573 5.97678 153.552 5.85944 153.509 5.73144C153.466 5.60344 153.413 5.44344 153.349 5.25144C153.392 5.23011 153.402 5.10211 153.381 4.86744C153.381 4.63278 153.52 4.41944 153.797 4.22744C153.797 4.09944 153.786 3.91811 153.765 3.68344C153.744 3.44878 153.818 3.23544 153.989 3.04344C154.138 3.04344 154.245 3.04344 154.309 3.04344C154.394 3.02211 154.469 3.01144 154.533 3.01144C154.597 3.01144 154.672 3.02211 154.757 3.04344C154.864 3.06478 155.013 3.11811 155.205 3.20344C155.226 3.09678 155.386 3.04344 155.685 3.04344C155.984 3.02211 156.197 3.03278 156.325 3.07544C156.688 3.52344 156.688 3.90744 156.325 4.22744C156.602 4.52611 156.72 4.72878 156.677 4.83544C156.634 4.92078 156.549 5.05944 156.421 5.25144C156.442 5.44344 156.474 5.59278 156.517 5.69944C156.56 5.80611 156.602 5.91278 156.645 6.01944C156.688 6.10478 156.709 6.20078 156.709 6.30744C156.709 6.41411 156.677 6.54211 156.613 6.69144C156.528 6.88344 156.517 7.02211 156.581 7.10744C156.645 7.17144 156.666 7.36344 156.645 7.68344C156.602 7.79011 156.634 7.95011 156.741 8.16344C156.869 8.37678 156.901 8.63278 156.837 8.93144C156.88 9.18744 156.901 9.37944 156.901 9.50744C156.922 9.63544 156.858 9.89144 156.709 10.2754C156.858 10.4674 156.912 10.6381 156.869 10.7874C156.848 10.9154 156.752 11.0754 156.581 11.2674C156.602 11.4594 156.634 11.6408 156.677 11.8114C156.72 11.9608 156.752 12.0994 156.773 12.2274C156.816 12.3554 156.837 12.4728 156.837 12.5794C156.837 12.6861 156.794 12.7821 156.709 12.8674C156.837 13.1448 156.88 13.4754 156.837 13.8594C156.794 14.2434 156.816 14.6381 156.901 15.0434L156.517 16.3874C156.602 16.4088 156.666 16.4728 156.709 16.5794C156.752 16.6861 156.784 16.8034 156.805 16.9314C156.826 17.0594 156.826 17.1874 156.805 17.3154C156.805 17.4221 156.805 17.4968 156.805 17.5394C156.72 17.5608 156.634 17.6248 156.549 17.7314C156.485 17.8381 156.421 17.9554 156.357 18.0834C156.293 18.2114 156.218 18.3288 156.133 18.4354C156.069 18.5421 155.994 18.5954 155.909 18.5954C155.674 18.7448 155.461 18.8194 155.269 18.8194C155.098 18.8194 154.992 18.7661 154.949 18.6594C154.714 18.9154 154.501 19.0328 154.309 19.0114C154.138 18.9688 154.085 18.8088 154.149 18.5314C154.064 18.5314 154 18.4888 153.957 18.4034C153.914 18.3181 153.861 18.2328 153.797 18.1474C153.754 18.0408 153.701 17.9554 153.637 17.8914C153.573 17.8061 153.477 17.7741 153.349 17.7954C153.413 17.6674 153.456 17.5501 153.477 17.4434C153.498 17.3154 153.52 17.1981 153.541 17.0914C153.562 16.9634 153.584 16.8248 153.605 16.6754C153.648 16.5261 153.722 16.3448 153.829 16.1314C153.85 16.0674 153.84 15.9821 153.797 15.8754C153.776 15.7688 153.744 15.6621 153.701 15.5554C153.68 15.4274 153.658 15.3208 153.637 15.2354C153.637 15.1501 153.669 15.0968 153.733 15.0754C153.776 14.8194 153.829 14.5741 153.893 14.3394C153.957 14.1048 154 13.9341 154.021 13.8274C153.978 13.5501 153.968 13.2728 153.989 12.9954C154.032 12.6968 154.042 12.4621 154.021 12.2914C153.914 12.3341 153.786 12.3341 153.637 12.2914C153.509 12.2488 153.37 12.1954 153.221 12.1314C153.093 12.0674 152.954 12.0248 152.805 12.0034C152.677 11.9608 152.549 11.9501 152.421 11.9714C152.464 11.9501 152.378 11.9821 152.165 12.0674C151.952 12.1528 151.76 12.2061 151.589 12.2274C151.269 12.1208 150.97 12.0781 150.693 12.0994C150.437 12.1208 150.234 12.0674 150.085 11.9394C149.85 12.0888 149.637 12.1634 149.445 12.1634C149.253 12.1634 149.104 12.1101 148.997 12.0034C148.89 12.0888 148.773 12.1421 148.645 12.1634C148.538 12.1634 148.432 12.1421 148.325 12.0994C148.24 12.0568 148.176 11.9928 148.133 11.9074C148.112 11.8221 148.122 11.7368 148.165 11.6514C148.122 11.6301 148.048 11.5768 147.941 11.4914C147.856 11.4061 147.77 11.3208 147.685 11.2354C147.6 11.1501 147.536 11.0648 147.493 10.9794C147.45 10.8941 147.461 10.8301 147.525 10.7874L147.653 10.6594ZM135.717 16.8994C135.76 16.6008 135.77 16.3341 135.749 16.0994C135.728 15.8434 135.856 15.6941 136.133 15.6514C136.197 15.4808 136.272 15.4061 136.357 15.4274C136.464 15.4488 136.581 15.4381 136.709 15.3954C136.645 15.0968 136.666 14.9261 136.773 14.8834C136.88 14.8408 136.976 14.8514 137.061 14.9154C137.104 14.8088 137.2 14.6381 137.349 14.4034C137.52 14.1688 137.754 14.0301 138.053 13.9874C138.01 13.9448 138 13.8808 138.021 13.7954C138.064 13.6888 138.117 13.5821 138.181 13.4754C138.245 13.3688 138.32 13.2728 138.405 13.1874C138.49 13.0808 138.565 13.0168 138.629 12.9954C138.778 12.8888 138.928 12.7928 139.077 12.7074C139.226 12.6008 139.482 12.4514 139.845 12.2594C139.781 12.2168 139.77 12.1634 139.813 12.0994C139.877 12.0354 139.962 11.9608 140.069 11.8754C140.176 11.7901 140.293 11.6941 140.421 11.5874C140.549 11.4808 140.656 11.3634 140.741 11.2354C140.698 11.1501 140.698 11.0754 140.741 11.0114C140.805 10.9261 140.869 10.8408 140.933 10.7554C141.018 10.6488 141.093 10.5314 141.157 10.4034C141.242 10.2541 141.296 10.0728 141.317 9.85944C141.509 9.88078 141.658 9.88078 141.765 9.85944C141.872 9.81678 141.968 9.76344 142.053 9.69944C142.138 9.61411 142.224 9.50744 142.309 9.37944C142.394 9.23011 142.501 9.05944 142.629 8.86744C142.736 8.91011 142.821 8.83544 142.885 8.64344C142.949 8.43011 143.002 8.19544 143.045 7.93944C143.173 7.85411 143.29 7.75811 143.397 7.65144C143.504 7.54478 143.674 7.43811 143.909 7.33144C143.909 7.37411 143.898 7.36344 143.877 7.29944C143.856 7.23544 143.824 7.17144 143.781 7.10744C143.76 7.02211 143.728 6.93678 143.685 6.85144C143.642 6.76611 143.61 6.72344 143.589 6.72344C143.44 6.83011 143.28 6.89411 143.109 6.91544C142.96 6.91544 142.906 6.99011 142.949 7.13944C142.842 7.11811 142.725 7.10744 142.597 7.10744C142.469 7.08611 142.352 7.06478 142.245 7.04344C142.138 7.02211 142.053 7.00078 141.989 6.97944C141.946 6.95811 141.946 6.92611 141.989 6.88344C141.861 6.81944 141.722 6.79811 141.573 6.81944C141.424 6.84078 141.285 6.86211 141.157 6.88344C141.05 6.90478 140.954 6.90478 140.869 6.88344C140.805 6.86211 140.794 6.78744 140.837 6.65944C140.602 6.78744 140.357 6.89411 140.101 6.97944C139.866 7.04344 139.77 6.95811 139.813 6.72344C139.621 6.83011 139.461 6.90478 139.333 6.94744C139.205 6.96878 139.077 6.97944 138.949 6.97944C138.842 6.97944 138.725 6.99011 138.597 7.01144C138.469 7.03278 138.32 7.09678 138.149 7.20344C138.17 7.13944 138.138 7.09678 138.053 7.07544C137.968 7.05411 137.872 7.04344 137.765 7.04344C137.658 7.02211 137.552 7.01144 137.445 7.01144C137.338 6.99011 137.274 6.96878 137.253 6.94744L136.773 7.01144C136.709 7.22478 136.56 7.27811 136.325 7.17144C136.09 7.04344 135.93 6.79811 135.845 6.43544C135.802 6.39278 135.802 6.27544 135.845 6.08344C135.909 5.89144 135.962 5.65678 136.005 5.37944C135.941 5.31544 135.93 5.19811 135.973 5.02744C136.037 4.85678 136.037 4.67544 135.973 4.48344C136.08 4.48344 136.197 4.45144 136.325 4.38744C136.474 4.30211 136.666 4.14211 136.901 3.90744C136.965 4.09944 137.093 4.18478 137.285 4.16344C137.477 4.12078 137.616 4.12078 137.701 4.16344C137.701 4.09944 137.744 4.06744 137.829 4.06744C137.936 4.04611 138.042 4.02478 138.149 4.00344C138.277 3.98211 138.394 3.95011 138.501 3.90744C138.629 3.86478 138.725 3.77944 138.789 3.65144C139.024 3.77944 139.184 3.86478 139.269 3.90744C139.354 3.95011 139.514 3.92878 139.749 3.84344C139.92 3.82211 140.058 3.81144 140.165 3.81144C140.293 3.79011 140.41 3.79011 140.517 3.81144C140.645 3.81144 140.773 3.82211 140.901 3.84344C141.05 3.84344 141.242 3.84344 141.477 3.84344L142.213 3.93944C142.554 3.85411 142.821 3.83278 143.013 3.87544C143.205 3.91811 143.461 3.88611 143.781 3.77944C144.016 3.80078 144.208 3.79011 144.357 3.74744C144.506 3.70478 144.613 3.75811 144.677 3.90744C144.762 3.95011 144.944 3.99278 145.221 4.03544C145.52 4.05678 145.765 4.04611 145.957 4.00344C145.957 4.02478 146 4.04611 146.085 4.06744C146.192 4.06744 146.298 4.08878 146.405 4.13144C146.512 4.15278 146.597 4.20611 146.661 4.29144C146.746 4.37678 146.778 4.49411 146.757 4.64344C146.842 4.64344 146.928 4.67544 147.013 4.73944C147.12 4.78211 147.205 4.83544 147.269 4.89944C147.333 4.94211 147.376 4.98478 147.397 5.02744C147.44 5.04878 147.44 5.03811 147.397 4.99544C147.418 5.14478 147.493 5.32611 147.621 5.53944C147.749 5.73144 147.706 5.97678 147.493 6.27544C147.6 6.53144 147.653 6.71278 147.653 6.81944C147.674 6.90478 147.557 7.06478 147.301 7.29944C147.322 7.32078 147.322 7.37411 147.301 7.45944C147.301 7.54478 147.29 7.64078 147.269 7.74744C147.248 7.85411 147.226 7.96078 147.205 8.06744C147.184 8.15278 147.184 8.22744 147.205 8.29144C147.077 8.39811 146.981 8.47278 146.917 8.51544C146.853 8.55811 146.8 8.61144 146.757 8.67544C146.714 8.71811 146.661 8.78211 146.597 8.86744C146.554 8.95278 146.469 9.07011 146.341 9.21944C146.128 9.47544 145.989 9.69944 145.925 9.89144C145.882 10.0834 145.776 10.3288 145.605 10.6274C145.349 10.8194 145.136 10.9794 144.965 11.1074C144.816 11.2141 144.72 11.2141 144.677 11.1074C145.061 11.3208 145.285 11.5554 145.349 11.8114C145.434 12.0461 145.53 12.1848 145.637 12.2274C145.68 12.4194 145.818 12.5794 146.053 12.7074C146.288 12.8354 146.469 13.0488 146.597 13.3474C146.682 13.4754 146.757 13.5714 146.821 13.6354C146.906 13.6994 146.992 13.7741 147.077 13.8594C147.162 13.9234 147.258 14.0088 147.365 14.1154C147.493 14.2221 147.664 14.3608 147.877 14.5314C148.048 14.7021 148.186 14.8941 148.293 15.1074C148.4 15.2994 148.464 15.4701 148.485 15.6194C148.592 15.6194 148.677 15.6514 148.741 15.7154C148.826 15.7794 148.89 15.8541 148.933 15.9394C148.976 16.0034 148.997 16.0674 148.997 16.1314C148.997 16.1741 148.976 16.1848 148.933 16.1634C148.976 16.3554 149.008 16.5154 149.029 16.6434C149.05 16.7714 149.05 16.8888 149.029 16.9954C149.008 17.0808 148.976 17.1768 148.933 17.2834C148.912 17.3901 148.88 17.5181 148.837 17.6674C148.645 17.6674 148.485 17.6888 148.357 17.7314C148.25 17.7528 148.154 17.7848 148.069 17.8274C147.984 17.8701 147.888 17.9128 147.781 17.9554C147.696 17.9768 147.568 17.9768 147.397 17.9554C147.269 17.9768 147.173 17.9768 147.109 17.9554C147.066 17.9128 146.949 17.9554 146.757 18.0834C146.65 17.7848 146.544 17.6248 146.437 17.6034C146.33 17.5608 146.16 17.4221 145.925 17.1874C145.797 17.2301 145.69 17.2194 145.605 17.1554C145.52 17.0701 145.445 16.9741 145.381 16.8674C145.317 16.7608 145.264 16.6541 145.221 16.5474C145.2 16.4408 145.189 16.3554 145.189 16.2914C144.869 16.1634 144.656 16.0034 144.549 15.8114C144.464 15.5981 144.4 15.5128 144.357 15.5554C144.208 15.3634 144.08 15.2141 143.973 15.1074C143.866 15.0008 143.77 14.9154 143.685 14.8514C143.621 14.7661 143.557 14.6914 143.493 14.6274C143.429 14.5421 143.354 14.4461 143.269 14.3394C143.184 14.2541 143.12 14.1901 143.077 14.1474C143.056 14.0834 143.024 14.0301 142.981 13.9874C142.96 13.9448 142.928 13.9021 142.885 13.8594C142.842 13.8168 142.768 13.7634 142.661 13.6994C142.576 13.7421 142.448 13.7848 142.277 13.8274C142.128 13.8488 142.053 13.9234 142.053 14.0514C141.946 14.1154 141.861 14.2648 141.797 14.4994C141.754 14.7128 141.552 14.9474 141.189 15.2034C141.146 15.2888 141.093 15.3528 141.029 15.3954C140.986 15.4168 140.944 15.4488 140.901 15.4914C140.858 15.5341 140.837 15.5874 140.837 15.6514C140.837 15.7154 140.869 15.8221 140.933 15.9714C140.826 15.9501 140.698 15.9714 140.549 16.0354C140.421 16.0994 140.304 16.1848 140.197 16.2914C140.09 16.3981 139.994 16.5154 139.909 16.6434C139.845 16.7714 139.824 16.8781 139.845 16.9634C139.717 16.8994 139.61 16.8888 139.525 16.9314C139.461 16.9741 139.408 17.0274 139.365 17.0914C139.322 17.1554 139.28 17.2301 139.237 17.3154C139.194 17.3794 139.13 17.4221 139.045 17.4434C138.874 17.4434 138.768 17.4541 138.725 17.4754C138.682 17.4968 138.64 17.5394 138.597 17.6034C138.576 17.6461 138.544 17.7101 138.501 17.7954C138.48 17.8594 138.405 17.9448 138.277 18.0514C138.192 18.1154 138.128 18.1581 138.085 18.1794C138.042 18.1794 137.978 18.1901 137.893 18.2114C137.829 18.2114 137.733 18.2328 137.605 18.2754C137.477 18.3181 137.285 18.3821 137.029 18.4674C137.05 18.4034 137.018 18.3394 136.933 18.2754C136.869 18.2114 136.784 18.1474 136.677 18.0834C136.592 18.0194 136.506 17.9448 136.421 17.8594C136.336 17.7741 136.293 17.6674 136.293 17.5394C135.909 17.4541 135.685 17.1768 135.621 16.7074L135.717 16.8994Z" fill="#111111"/>
<path d="M116.443 11.6834L117.211 11.5234C117.36 11.7368 117.573 11.8541 117.851 11.8754C118.128 11.8968 118.267 11.8861 118.267 11.8434L119.771 11.6834L120.699 12.0034L121.787 12.0674L123.099 11.8114L123.867 11.7794L125.275 11.8114L126.267 11.8754H127.291L127.419 11.7474C127.653 11.5768 127.824 11.4381 127.931 11.3314C128.037 11.2248 128.069 11.0221 128.027 10.7234L128.411 9.12345L126.939 9.25145L126.139 9.57145L125.019 9.25145L123.867 9.15545L122.587 9.57145L121.851 9.47545L120.667 9.53945L119.451 9.44345L118.267 9.21945L116.955 9.09145L115.995 9.44345L115.867 10.9794C115.995 11.0008 116.069 11.0114 116.091 11.0114C116.133 10.9901 116.155 10.9794 116.155 10.9794C116.176 10.9581 116.187 10.9474 116.187 10.9474C116.187 10.9474 116.219 10.9688 116.283 11.0114L116.219 11.4914C116.197 11.4274 116.187 11.4061 116.187 11.4274C116.187 11.4488 116.187 11.4914 116.187 11.5554C116.208 11.5981 116.24 11.6408 116.283 11.6834C116.325 11.7261 116.379 11.7368 116.443 11.7154V11.6834ZM111.835 18.9474C111.728 18.9048 111.675 18.8514 111.675 18.7874C111.675 18.7234 111.696 18.6595 111.739 18.5954C111.803 18.5101 111.856 18.4141 111.899 18.3074C111.963 18.1795 112.005 18.0301 112.027 17.8594C112.005 17.7741 112.027 17.6888 112.091 17.6034C112.176 17.5181 112.272 17.4648 112.379 17.4434C112.485 17.4008 112.581 17.4008 112.667 17.4434C112.773 17.4648 112.837 17.5394 112.859 17.6674L113.243 17.6994C113.541 17.7421 113.787 17.7314 113.979 17.6674C114.171 17.6034 114.395 17.6781 114.651 17.8914C114.693 17.7848 114.736 17.7208 114.779 17.6994C114.821 17.6781 114.875 17.6888 114.939 17.7314C115.003 17.7528 115.077 17.7848 115.163 17.8274C115.269 17.8488 115.387 17.8594 115.515 17.8594C115.792 17.6461 115.984 17.5501 116.091 17.5714C116.197 17.5928 116.4 17.6568 116.699 17.7634C116.869 17.7421 116.976 17.7421 117.019 17.7634C117.061 17.7634 117.221 17.8061 117.499 17.8914C117.52 17.8701 117.573 17.8381 117.659 17.7954C117.765 17.7528 117.861 17.7208 117.947 17.6994C118.053 17.6781 118.128 17.6781 118.171 17.6994C118.235 17.7208 118.256 17.7848 118.235 17.8914L120.155 17.6994L120.059 17.5074C120.037 17.3794 120.037 17.2941 120.059 17.2514C120.08 17.1874 120.101 17.1448 120.123 17.1234C120.165 17.1021 120.197 17.0808 120.219 17.0594C120.261 17.0168 120.304 16.9528 120.347 16.8674C120.283 16.7821 120.251 16.6754 120.251 16.5474C120.251 16.3981 120.336 16.2274 120.507 16.0354C120.443 15.8648 120.411 15.7048 120.411 15.5554C120.411 15.4061 120.421 15.2781 120.443 15.1714C120.464 15.0648 120.464 14.9688 120.443 14.8834C120.443 14.7981 120.4 14.7341 120.315 14.6914L118.619 14.9474C118.192 14.8621 117.872 14.8088 117.659 14.7874C117.467 14.7448 117.221 14.7234 116.923 14.7234C116.752 14.7661 116.592 14.7554 116.443 14.6914C116.293 14.6061 116.069 14.6168 115.771 14.7234C115.429 14.6168 115.184 14.5101 115.035 14.4034C114.885 14.2968 114.651 14.1581 114.331 13.9874C114.245 13.9448 114.139 13.8701 114.011 13.7634C113.883 13.6568 113.669 13.5501 113.371 13.4434C113.307 13.2728 113.253 13.1341 113.211 13.0274C113.189 12.9208 113.168 12.8248 113.147 12.7394C113.125 12.6541 113.083 12.5581 113.019 12.4514C112.976 12.3448 112.891 12.1954 112.763 12.0034C112.891 11.9181 112.944 11.8008 112.923 11.6514C112.901 11.4808 112.987 11.3741 113.179 11.3314C113.051 10.9688 112.955 10.6701 112.891 10.4354C112.827 10.2008 112.763 9.85945 112.699 9.41145C112.784 9.43278 112.848 9.31545 112.891 9.05945C112.933 8.78212 112.955 8.59012 112.955 8.48345C112.997 8.44078 112.997 8.31278 112.955 8.09945C112.912 7.86478 112.837 7.66212 112.731 7.49145C112.901 7.12878 113.029 6.88345 113.115 6.75545C113.221 6.60611 113.296 6.44612 113.339 6.27545C113.168 6.06211 113.083 5.91278 113.083 5.82745C113.083 5.72078 113.061 5.58212 113.019 5.41145C112.997 5.09145 113.019 4.81412 113.083 4.57945C113.147 4.32345 113.125 4.15278 113.019 4.06745C113.125 4.00345 113.2 3.91812 113.243 3.81145C113.307 3.68345 113.349 3.56612 113.371 3.45945C113.392 3.33145 113.403 3.22478 113.403 3.13945C113.424 3.03278 113.456 2.97945 113.499 2.97945C113.605 2.95811 113.712 2.90478 113.819 2.81945C113.925 2.71278 114.032 2.61678 114.139 2.53145C114.245 2.44611 114.352 2.38211 114.459 2.33945C114.587 2.29678 114.715 2.30745 114.843 2.37145C115.099 2.32878 115.312 2.37145 115.483 2.49945C115.675 2.60611 115.739 2.74478 115.675 2.91545C115.867 3.12878 116.016 3.31012 116.123 3.45945C116.229 3.60878 116.261 3.79011 116.219 4.00345H116.443L116.315 5.05945L116.155 6.01945L117.499 6.56345L118.651 6.11545L119.355 6.30745L120.411 6.56345L121.531 6.59545L122.331 6.30745L123.867 6.11545L125.083 6.05145L125.979 6.24345L127.195 6.56345L128.059 6.30745C128.016 6.13678 127.995 5.95545 127.995 5.76345C128.016 5.57145 127.952 5.41145 127.803 5.28345C127.824 4.98478 127.877 4.75012 127.963 4.57945C128.048 4.40878 128.091 4.31278 128.091 4.29145C128.176 4.22745 128.219 4.15278 128.219 4.06745C128.24 3.98212 128.251 3.88612 128.251 3.77945C128.272 3.67278 128.315 3.56612 128.379 3.45945C128.464 3.33145 128.603 3.20345 128.795 3.07545C128.752 2.75545 128.816 2.53145 128.987 2.40345C129.157 2.27545 129.435 2.22211 129.819 2.24345C129.968 2.41411 130.16 2.54211 130.395 2.62745C130.651 2.69145 130.832 2.89412 130.939 3.23545C130.96 3.19278 130.992 3.20345 131.035 3.26745C131.077 3.33145 131.12 3.40612 131.163 3.49145C131.205 3.57678 131.248 3.66212 131.291 3.74745C131.355 3.81145 131.397 3.83278 131.419 3.81145C131.44 3.93945 131.408 4.14211 131.323 4.41945C131.259 4.67545 131.184 4.93145 131.099 5.18745C131.12 5.18745 131.152 5.21945 131.195 5.28345C131.259 5.34745 131.312 5.42212 131.355 5.50745C131.397 5.59278 131.429 5.67811 131.451 5.76345C131.493 5.84878 131.515 5.89145 131.515 5.89145C131.536 5.95545 131.536 6.05145 131.515 6.17945C131.493 6.30745 131.451 6.43545 131.387 6.56345C131.344 6.69145 131.291 6.80878 131.227 6.91545C131.184 7.02212 131.141 7.07545 131.099 7.07545C131.12 7.18212 131.131 7.27812 131.131 7.36345C131.131 7.42745 131.131 7.49145 131.131 7.55545C131.131 7.61945 131.131 7.70478 131.131 7.81145C131.131 7.91812 131.152 8.05678 131.195 8.22745C131.173 8.31278 131.173 8.39812 131.195 8.48345C131.216 8.54745 131.227 8.62212 131.227 8.70745C131.248 8.79278 131.248 8.86745 131.227 8.93145C131.205 8.99545 131.131 9.04878 131.003 9.09145C131.173 9.41145 131.216 9.66745 131.131 9.85945C131.067 10.0301 131.035 10.1794 131.035 10.3074C131.163 10.3928 131.248 10.5101 131.291 10.6594C131.333 10.7874 131.355 10.9154 131.355 11.0434C131.355 11.1714 131.333 11.2994 131.291 11.4274C131.248 11.5341 131.205 11.6088 131.163 11.6514C131.205 11.7794 131.237 11.9821 131.259 12.2594C131.301 12.5368 131.269 12.7608 131.163 12.9314C130.971 12.9528 130.821 13.0488 130.715 13.2194C130.629 13.3901 130.555 13.6568 130.491 14.0194C130.32 13.8701 130.171 13.8381 130.043 13.9234C129.915 14.0088 129.765 14.1048 129.595 14.2114C129.509 14.3394 129.424 14.4354 129.339 14.4994C129.275 14.5634 129.179 14.6168 129.051 14.6594C128.944 14.6808 128.816 14.7128 128.667 14.7554C128.539 14.7981 128.368 14.8728 128.155 14.9794C128.219 14.8301 128.144 14.7234 127.931 14.6594C127.717 14.5954 127.579 14.5634 127.515 14.5634C127.323 14.6488 127.163 14.7021 127.035 14.7234C126.907 14.7448 126.789 14.7554 126.683 14.7554C126.576 14.7341 126.469 14.7234 126.363 14.7234C126.277 14.7021 126.171 14.7021 126.043 14.7234C125.829 14.8728 125.595 14.9794 125.339 15.0434C125.104 15.1074 124.965 15.1394 124.923 15.1394C124.624 15.0328 124.304 15.0114 123.963 15.0754C123.643 15.1394 123.376 15.1501 123.163 15.1074L123.035 14.8194L123.611 16.5474L123.195 17.6674L124.347 17.5714L125.883 17.6994L126.747 17.9234C127.045 17.9448 127.291 17.9554 127.483 17.9554C127.675 17.9554 127.888 17.9448 128.123 17.9234C128.165 17.8594 128.315 17.7848 128.571 17.6994C128.848 17.6141 129.115 17.7101 129.371 17.9874C129.392 17.8808 129.435 17.8168 129.499 17.7954C129.584 17.7741 129.669 17.7634 129.755 17.7634C129.84 17.7634 129.915 17.7741 129.979 17.7954C130.064 17.7954 130.128 17.7634 130.171 17.6994L130.715 17.4754C131.056 17.5608 131.291 17.6674 131.419 17.7954C131.568 17.9021 131.696 18.0301 131.803 18.1795C131.973 18.2221 132.069 18.3395 132.091 18.5315C132.112 18.7234 132.155 18.9261 132.219 19.1395C132.133 19.2675 132.069 19.4168 132.027 19.5875C131.984 19.7581 131.92 19.9074 131.835 20.0354C131.749 20.1635 131.643 20.2701 131.515 20.3554C131.387 20.4408 131.195 20.4621 130.939 20.4194C130.896 20.4621 130.747 20.5368 130.491 20.6434C130.256 20.7288 130 20.8248 129.723 20.9314C129.787 20.9101 129.712 20.8461 129.499 20.7395C129.307 20.6328 129.093 20.5581 128.859 20.5154C128.816 20.7501 128.667 20.8781 128.411 20.8995C128.176 20.9208 128.027 20.8248 127.963 20.6115C127.899 20.6541 127.803 20.6861 127.675 20.7075C127.547 20.7075 127.419 20.7181 127.291 20.7395C127.184 20.7395 127.077 20.7715 126.971 20.8354C126.885 20.8781 126.832 20.9421 126.811 21.0275C126.64 20.9421 126.512 20.8888 126.427 20.8675C126.341 20.8461 126.267 20.8354 126.203 20.8354C126.139 20.8354 126.064 20.8248 125.979 20.8034C125.915 20.7608 125.819 20.6861 125.691 20.5794C125.413 20.6434 125.157 20.7181 124.923 20.8034C124.709 20.8888 124.432 21.0061 124.091 21.1554C124.133 21.0274 124.123 20.9528 124.059 20.9314C123.995 20.8888 123.899 20.8888 123.771 20.9314C123.664 20.9528 123.536 20.9955 123.387 21.0595C123.259 21.1021 123.152 21.1448 123.067 21.1875C122.896 21.0168 122.725 20.8994 122.555 20.8354C122.384 20.7715 122.277 20.7288 122.235 20.7075C122.149 20.7501 122.032 20.7715 121.883 20.7715C121.733 20.7715 121.584 20.7715 121.435 20.7715C121.285 20.7501 121.136 20.7395 120.987 20.7395C120.859 20.7395 120.752 20.7608 120.667 20.8034C120.539 20.8461 120.368 20.8354 120.155 20.7715C119.963 20.7075 119.867 20.6648 119.867 20.6434C119.803 20.7288 119.717 20.7821 119.611 20.8034C119.504 20.8034 119.397 20.8141 119.291 20.8354C119.205 20.8354 119.131 20.8568 119.067 20.8995C119.003 20.9421 118.971 21.0274 118.971 21.1554C118.736 21.1128 118.533 21.0488 118.363 20.9634C118.192 20.8568 118.021 20.7715 117.851 20.7075C117.403 20.7075 117.104 20.7181 116.955 20.7395C116.827 20.7608 116.635 20.8781 116.379 21.0914C116.08 20.9208 115.845 20.8248 115.675 20.8034C115.504 20.7821 115.419 20.6968 115.419 20.5474C115.056 20.7181 114.747 20.7928 114.491 20.7715C114.256 20.7288 114.043 20.6861 113.851 20.6434C113.829 20.5794 113.787 20.5581 113.723 20.5794C113.68 20.5794 113.616 20.5901 113.531 20.6115C113.445 20.6328 113.339 20.6434 113.211 20.6434C113.083 20.6434 112.923 20.6008 112.731 20.5154C112.581 20.6434 112.4 20.6434 112.187 20.5154C111.995 20.3661 111.856 20.2168 111.771 20.0674C111.749 19.9181 111.685 19.8008 111.579 19.7155C111.472 19.6088 111.483 19.4061 111.611 19.1074L111.835 18.9474ZM116.443 29.6035C116.315 29.4541 116.197 29.3581 116.091 29.3155C115.984 29.2728 115.877 29.2514 115.771 29.2514C115.685 29.2728 115.6 29.2941 115.515 29.3155C115.451 29.3581 115.397 29.3794 115.355 29.3794C115.056 29.1021 114.843 28.9528 114.715 28.9314C114.608 28.9101 114.501 28.8461 114.395 28.7395C114.096 28.3981 113.904 28.1635 113.819 28.0354C113.733 27.9074 113.701 27.8221 113.723 27.7794C113.509 27.6514 113.424 27.4914 113.467 27.2994C113.509 27.1075 113.509 26.7875 113.467 26.3395L113.563 25.3794L113.115 24.0994V22.8514C113.307 22.6808 113.456 22.5208 113.563 22.3715C113.691 22.2221 113.787 22.1048 113.851 22.0194C113.893 21.8914 113.968 21.8061 114.075 21.7635C114.181 21.6995 114.299 21.6568 114.427 21.6355C114.555 21.5928 114.672 21.5501 114.779 21.5075C114.907 21.4435 114.992 21.3475 115.035 21.2194C115.248 21.1981 115.419 21.3048 115.547 21.5394C115.696 21.7528 115.952 21.9555 116.315 22.1474C116.315 22.1048 116.347 22.1474 116.411 22.2754C116.475 22.3821 116.453 22.6808 116.347 23.1714L116.443 24.2594L116.219 25.2194C116.283 25.6248 116.464 25.9235 116.763 26.1154C117.061 26.3074 117.435 26.3074 117.883 26.1154L118.939 26.0835L120.027 26.1154L121.179 26.1794L122.267 26.6275L123.163 26.3074L124.187 26.4995L125.115 26.2435L126.203 26.5954L127.419 26.1794L128.443 26.2754L129.595 26.4354C129.957 26.3715 130.192 26.3288 130.299 26.3074C130.405 26.2861 130.523 26.2968 130.651 26.3395C130.885 26.3821 131.067 26.4355 131.195 26.4995C131.344 26.5848 131.451 26.6808 131.515 26.7875C131.6 26.9155 131.653 27.0648 131.675 27.2355C131.717 27.4061 131.749 27.6194 131.771 27.8755C131.813 28.0461 131.771 28.2488 131.643 28.4834C131.515 28.7181 131.365 28.8568 131.195 28.8995C131.045 29.0275 130.907 29.1021 130.779 29.1234C130.672 29.1448 130.405 29.1128 129.979 29.0275L129.019 29.2835L127.707 29.5075L126.651 29.4435L125.755 29.4114L124.603 28.9954H123.419L122.587 29.1875L121.755 29.5714L120.667 29.2194L119.579 29.5394L118.523 29.2194L117.403 29.5075L116.315 29.3475L116.443 29.6035Z" fill="#111111"/>
<path d="M102.737 27.9074C102.759 27.8861 102.78 27.8434 102.801 27.7794C102.844 27.7154 102.876 27.6514 102.897 27.5874C102.919 27.5234 102.94 27.4594 102.961 27.3954C102.983 27.3528 102.983 27.3421 102.961 27.3634C103.004 27.2141 103.015 27.0541 102.993 26.8834C102.993 26.7128 103.047 26.4888 103.153 26.2114C103.281 25.9768 103.345 25.7741 103.345 25.6034C103.345 25.4328 103.377 25.1661 103.441 24.8034C103.377 24.8034 103.303 24.7608 103.217 24.6754C103.153 24.5688 103.111 24.4621 103.089 24.3554C103.068 24.2274 103.068 24.1101 103.089 24.0034C103.132 23.8754 103.217 23.7901 103.345 23.7474C103.239 23.6408 103.185 23.5234 103.185 23.3954C103.185 23.2674 103.271 23.0754 103.441 22.8194C103.228 22.6488 103.111 22.4674 103.089 22.2754C103.068 22.0834 103.047 21.8701 103.025 21.6354C103.068 21.4648 103.089 21.3261 103.089 21.2194C103.089 21.1128 103.079 21.0168 103.057 20.9314C103.036 20.8461 103.004 20.7608 102.961 20.6754C102.94 20.5688 102.919 20.4514 102.897 20.3234C102.961 20.1741 103.015 20.0674 103.057 20.0034C103.121 19.9181 103.207 19.7901 103.313 19.6194C103.313 19.5128 103.292 19.4168 103.249 19.3314C103.228 19.2461 103.196 19.1608 103.153 19.0754C103.132 18.9901 103.121 18.8941 103.121 18.7874C103.143 18.6808 103.196 18.5528 103.281 18.4034C103.175 18.3608 103.111 18.2968 103.089 18.2114C103.089 18.1261 103.1 18.0301 103.121 17.9234C103.164 17.8168 103.196 17.7101 103.217 17.6034C103.26 17.4968 103.281 17.4114 103.281 17.3474C103.281 17.1981 103.239 17.0488 103.153 16.8994C103.068 16.7501 103.068 16.4514 103.153 16.0034C103.303 15.9821 103.335 15.8968 103.249 15.7474C103.164 15.5981 103.111 15.3528 103.089 15.0114C103.196 14.9048 103.239 14.8088 103.217 14.7234C103.217 14.6381 103.26 14.4781 103.345 14.2434C103.132 13.9448 103.047 13.7208 103.089 13.5714C103.153 13.4221 103.175 13.2621 103.153 13.0914C103.239 12.9421 103.249 12.8034 103.185 12.6754C103.121 12.5261 103.121 12.2488 103.185 11.8434C103.079 11.7581 103.057 11.6514 103.121 11.5234C103.207 11.3954 103.207 11.1714 103.121 10.8514C103.121 10.7234 103.121 10.5848 103.121 10.4354C103.143 10.2861 103.025 10.1154 102.769 9.92345C102.833 9.79545 102.876 9.69945 102.897 9.63545C102.94 9.57145 102.961 9.50745 102.961 9.44345C102.983 9.37945 102.993 9.29411 102.993 9.18745C102.993 9.08078 102.983 8.91011 102.961 8.67545C102.876 8.50478 102.876 8.34478 102.961 8.19545C103.047 8.04611 103.143 7.83278 103.249 7.55545C103.121 7.40612 103.079 7.27812 103.121 7.17145C103.164 7.04345 103.132 6.93678 103.025 6.85145C103.025 6.63811 102.993 6.44611 102.929 6.27545C102.887 6.10478 102.78 5.90211 102.609 5.66745L102.897 4.89945C102.663 4.72878 102.599 4.61145 102.705 4.54745C102.812 4.46211 102.951 4.32345 103.121 4.13145C103.228 3.87545 103.399 3.68345 103.633 3.55545C103.868 3.40611 104.092 3.35278 104.305 3.39545C104.561 3.56611 104.775 3.64078 104.945 3.61945C105.116 3.59811 105.191 3.67278 105.169 3.84345C105.255 4.01411 105.34 4.14211 105.425 4.22745C105.511 4.31278 105.585 4.39811 105.649 4.48345C105.713 4.56878 105.756 4.66478 105.777 4.77145C105.799 4.85678 105.777 4.99545 105.713 5.18745C105.777 5.16611 105.82 5.20878 105.841 5.31545C105.884 5.40078 106.044 5.62478 106.321 5.98745C106.215 6.03011 106.161 6.08345 106.161 6.14745C106.161 6.21145 106.161 6.30745 106.161 6.43545C106.161 6.54211 106.151 6.67011 106.129 6.81945C106.108 6.94745 106.033 7.08611 105.905 7.23545C106.033 7.34211 106.108 7.45945 106.129 7.58745C106.151 7.71545 106.14 7.84345 106.097 7.97145C106.076 8.09945 106.055 8.21678 106.033 8.32345C106.012 8.40878 106.023 8.47278 106.065 8.51545C106.023 8.55811 106.012 8.62211 106.033 8.70745C106.076 8.79278 106.108 8.87812 106.129 8.96345C106.151 9.04878 106.151 9.13412 106.129 9.21945C106.129 9.28345 106.087 9.31545 106.001 9.31545C106.236 9.55012 106.364 9.76345 106.385 9.95545C106.407 10.1474 106.268 10.3394 105.969 10.5314C106.119 10.7021 106.193 10.8941 106.193 11.1074C106.193 11.3208 106.279 11.5128 106.449 11.6834C106.343 11.6834 106.257 11.7261 106.193 11.8114C106.129 11.8968 106.097 12.0034 106.097 12.1314C106.097 12.2381 106.119 12.3448 106.161 12.4514C106.225 12.5581 106.311 12.6328 106.417 12.6754C106.353 12.7394 106.311 12.8248 106.289 12.9314C106.289 13.0381 106.279 13.1554 106.257 13.2834C106.257 13.4114 106.247 13.5394 106.225 13.6674C106.204 13.7741 106.151 13.8594 106.065 13.9234C106.257 14.1581 106.353 14.3288 106.353 14.4354C106.353 14.5208 106.439 14.6168 106.609 14.7234C106.396 14.8728 106.289 15.0541 106.289 15.2674C106.289 15.4594 106.279 15.7368 106.257 16.0994C106.215 16.1634 106.193 16.2701 106.193 16.4194C106.215 16.5474 106.279 16.7928 106.385 17.1554C106.343 17.2621 106.332 17.3901 106.353 17.5394C106.375 17.6674 106.439 17.7848 106.545 17.8914C106.46 17.9341 106.417 18.0088 106.417 18.1154C106.417 18.2008 106.417 18.2968 106.417 18.4034C106.439 18.5101 106.449 18.6168 106.449 18.7234C106.471 18.8088 106.449 18.8728 106.385 18.9154C106.428 19.0861 106.439 19.2248 106.417 19.3314C106.417 19.4168 106.396 19.4914 106.353 19.5554C106.332 19.6194 106.311 19.6728 106.289 19.7154C106.289 19.7581 106.311 19.8221 106.353 19.9074C106.247 20.1634 106.225 20.3448 106.289 20.4514C106.375 20.5368 106.396 20.6861 106.353 20.8994C106.311 21.0914 106.268 21.2301 106.225 21.3154C106.204 21.4008 106.183 21.4754 106.161 21.5394C106.161 21.6034 106.161 21.6781 106.161 21.7634C106.161 21.8274 106.183 21.9341 106.225 22.0834C106.183 22.2541 106.183 22.4461 106.225 22.6594C106.268 22.8728 106.268 23.0221 106.225 23.1074C106.183 23.1501 106.172 23.2674 106.193 23.4594C106.236 23.6301 106.321 23.9288 106.449 24.3554C106.321 24.4408 106.236 24.5581 106.193 24.7074C106.172 24.8568 106.151 25.0168 106.129 25.1874C106.129 25.3368 106.119 25.4968 106.097 25.6674C106.076 25.8381 106.033 25.9874 105.969 26.1154C105.905 26.5848 105.916 26.9154 106.001 27.1074C106.108 27.2994 106.183 27.5341 106.225 27.8114C106.14 27.9608 106.033 28.1208 105.905 28.2914C105.777 28.4834 105.628 28.6541 105.457 28.8034C105.308 28.9528 105.148 29.0594 104.977 29.1234C104.828 29.2088 104.679 29.1981 104.529 29.0914C104.295 29.0274 104.092 29.0168 103.921 29.0594C103.751 29.1021 103.633 29.0701 103.569 28.9634C103.505 28.6434 103.42 28.3874 103.313 28.1954C103.207 28.0034 103.1 27.8541 102.993 27.7474L102.737 27.9074ZM86.4492 25.9234C86.4492 25.6248 86.5025 25.4221 86.6092 25.3154C86.7159 25.2088 86.9505 25.0381 87.3132 24.8034C87.3985 24.5261 87.5159 24.3661 87.6652 24.3234C87.8145 24.2594 87.8785 24.1848 87.8572 24.0994C88.0705 23.8861 88.2305 23.7261 88.3372 23.6194C88.4652 23.4914 88.5612 23.3954 88.6252 23.3314C88.7105 23.2461 88.7639 23.1714 88.7852 23.1074C88.8065 23.0221 88.8279 22.9261 88.8492 22.8194C89.0199 22.5421 89.1905 22.3714 89.3612 22.3074C89.5532 22.2221 89.6812 22.0621 89.7452 21.8274C89.8305 21.7634 89.9799 21.6674 90.1932 21.5394C90.4065 21.3901 90.4705 21.2194 90.3852 21.0274C90.7905 20.7074 91.0359 20.4621 91.1212 20.2914C91.2279 20.0994 91.3772 20.0248 91.5692 20.0674C91.5692 20.0461 91.5905 20.0034 91.6332 19.9394C91.6759 19.8541 91.7185 19.7688 91.7612 19.6834C91.8039 19.5768 91.8252 19.4701 91.8252 19.3634C91.8252 19.2568 91.7825 19.1501 91.6972 19.0434C91.8252 18.9368 91.9532 18.7768 92.0812 18.5634C92.2305 18.3501 92.2732 18.2221 92.2092 18.1795C92.2945 18.1795 92.3479 18.1581 92.3692 18.1154C92.4119 18.0728 92.4332 18.0194 92.4332 17.9554C92.4545 17.8914 92.4865 17.8274 92.5292 17.7634C92.5719 17.6781 92.6465 17.6034 92.7532 17.5394C92.6892 17.4754 92.6572 17.3901 92.6572 17.2834C92.6785 17.1768 92.6999 17.0701 92.7212 16.9634C92.7639 16.8568 92.7959 16.7714 92.8172 16.7074C92.8599 16.6434 92.8812 16.6114 92.8812 16.6114C92.8812 16.3981 92.9345 16.1528 93.0412 15.8754C93.1479 15.5768 93.2865 15.3208 93.4572 15.1074C93.3719 15.1074 93.3185 15.0754 93.2972 15.0114C93.2972 14.9474 93.2972 14.8621 93.2972 14.7554C93.2972 14.6274 93.3079 14.4994 93.3292 14.3714C93.3505 14.2434 93.3505 14.1261 93.3292 14.0194C93.4999 13.9341 93.5532 13.7741 93.4892 13.5394C93.4465 13.3048 93.3825 13.1448 93.2972 13.0594C93.5105 12.9101 93.6385 12.7181 93.6812 12.4834C93.7452 12.2274 93.6599 11.9928 93.4252 11.7794C93.5959 11.5234 93.6812 11.3314 93.6812 11.2034C93.6812 11.0754 93.6705 10.9901 93.6492 10.9474C93.6705 10.8408 93.7025 10.7554 93.7452 10.6914C93.7879 10.6274 93.8092 10.5634 93.8092 10.4994C93.8092 10.4354 93.7879 10.3608 93.7452 10.2754C93.7025 10.1688 93.6065 10.0194 93.4572 9.82745C93.6279 9.65678 93.7345 9.49678 93.7772 9.34745C93.8199 9.19811 93.8092 8.97411 93.7452 8.67545C93.4892 8.61145 93.2332 8.57945 92.9772 8.57945C92.7212 8.55811 92.5399 8.49411 92.4332 8.38745C92.1559 8.60078 91.9532 8.69678 91.8252 8.67545C91.6972 8.65412 91.5265 8.55812 91.3132 8.38745C91.0785 8.45145 90.8865 8.48345 90.7372 8.48345C90.6092 8.48345 90.5025 8.48345 90.4172 8.48345C90.3532 8.48345 90.2999 8.49412 90.2572 8.51545C90.2145 8.51545 90.1719 8.55812 90.1292 8.64345C89.7879 8.60078 89.5425 8.59011 89.3932 8.61145C89.2439 8.61145 89.0732 8.65411 88.8812 8.73945L87.6652 8.35545C87.3025 8.44078 87.0039 8.45145 86.7692 8.38745C86.5345 8.30211 86.4492 8.13145 86.5132 7.87545C86.4705 7.79011 86.4172 7.69412 86.3532 7.58745C86.2892 7.45945 86.2572 7.22478 86.2572 6.88345C86.1505 6.86212 86.0865 6.81945 86.0652 6.75545C86.0652 6.67011 86.0652 6.57411 86.0652 6.46745C86.0652 6.33945 86.0652 6.21145 86.0652 6.08345C86.0865 5.95545 86.0759 5.82745 86.0332 5.69945C86.2039 5.72078 86.3212 5.72078 86.3852 5.69945C86.4705 5.65678 86.5345 5.61411 86.5772 5.57145C86.6199 5.52878 86.6625 5.49678 86.7052 5.47545C86.7479 5.45411 86.8332 5.47545 86.9612 5.53945C86.9825 5.56078 87.0252 5.56078 87.0892 5.53945C87.1532 5.49678 87.2279 5.45411 87.3132 5.41145C87.3985 5.34745 87.4839 5.29411 87.5692 5.25145C87.6759 5.20878 87.7719 5.18745 87.8572 5.18745C88.0279 5.37945 88.2519 5.49678 88.5292 5.53945C88.8065 5.56078 89.0412 5.51811 89.2332 5.41145C89.3399 5.28345 89.6279 5.27278 90.0972 5.37945C90.2039 5.33678 90.3105 5.32611 90.4172 5.34745C90.5239 5.36878 90.6092 5.40078 90.6732 5.44345C90.7585 5.46478 90.8332 5.48611 90.8972 5.50745C90.9825 5.52878 91.0465 5.51811 91.0892 5.47545C91.3025 5.51811 91.4839 5.48612 91.6332 5.37945C91.7825 5.27278 91.9212 5.19811 92.0492 5.15545C92.1345 5.13411 92.2199 5.13411 92.3052 5.15545C92.3905 5.17678 92.4972 5.20878 92.6252 5.25145C92.7532 5.27278 92.9025 5.28345 93.0732 5.28345C93.2439 5.28345 93.4465 5.23011 93.6812 5.12345C93.6385 5.12345 93.6492 5.13411 93.7132 5.15545C93.7985 5.15545 93.8839 5.17678 93.9692 5.21945C94.0759 5.24078 94.1719 5.28345 94.2572 5.34745C94.3425 5.41145 94.3852 5.50745 94.3852 5.63545C94.8332 5.42211 95.1532 5.37945 95.3452 5.50745C95.5372 5.61411 95.6225 5.72078 95.6012 5.82745C95.7292 5.74212 95.8145 5.72078 95.8572 5.76345C95.9212 5.78478 95.9532 5.83811 95.9532 5.92345C95.9745 6.00878 95.9745 6.10478 95.9532 6.21145C95.9532 6.29678 95.9745 6.35011 96.0172 6.37145C96.2092 6.49945 96.3479 6.58478 96.4332 6.62745C96.5399 6.67011 96.6465 6.76611 96.7532 6.91545C96.7105 7.15011 96.6999 7.32078 96.7212 7.42745C96.7425 7.51278 96.8172 7.72611 96.9452 8.06745C97.1372 8.23812 97.2332 8.38745 97.2332 8.51545C97.2545 8.62212 97.1479 8.88878 96.9132 9.31545C96.9772 9.25145 97.0305 9.23012 97.0732 9.25145C97.1159 9.25145 97.1479 9.27278 97.1692 9.31545C97.1905 9.35812 97.2119 9.40078 97.2332 9.44345C97.2759 9.46478 97.3292 9.47545 97.3932 9.47545C97.3932 9.68878 97.3612 9.85945 97.2972 9.98745C97.2332 10.0941 97.1692 10.1794 97.1052 10.2434C97.0412 10.3074 96.9879 10.3714 96.9452 10.4354C96.9025 10.4994 96.8919 10.5954 96.9132 10.7234C96.9132 10.8728 96.8919 11.0541 96.8492 11.2674C96.8279 11.4808 96.8599 11.6408 96.9452 11.7474C96.8812 11.7901 96.8492 11.8541 96.8492 11.9394C96.8705 12.0248 96.9025 12.1208 96.9452 12.2274C96.9879 12.3341 97.0305 12.4408 97.0732 12.5474C97.1159 12.6328 97.1372 12.6968 97.1372 12.7394C97.0945 12.9741 97.0519 13.2408 97.0092 13.5394C96.9879 13.8381 96.9665 14.1154 96.9452 14.3714C96.8599 14.3501 96.8065 14.3821 96.7852 14.4674C96.7639 14.5314 96.7532 14.6381 96.7532 14.7874C96.7532 14.9154 96.7532 15.0541 96.7532 15.2034C96.7745 15.3528 96.7852 15.4914 96.7852 15.6194C96.8065 15.7474 96.7639 15.8434 96.6572 15.9074C96.5719 15.9714 96.4225 16.1848 96.2092 16.5474C96.4012 16.6541 96.5079 16.8034 96.5292 16.9954C96.5719 17.1874 96.5292 17.3048 96.4012 17.3474C96.2305 17.5394 96.1239 17.6994 96.0812 17.8274C96.0599 17.9341 96.1132 18.1688 96.2412 18.5314C96.0705 18.5741 95.9425 18.6381 95.8572 18.7234C95.7719 18.7874 95.6652 18.8514 95.5372 18.9154C95.6439 19.0434 95.6439 19.2248 95.5372 19.4594C95.4305 19.6728 95.3239 19.8648 95.2172 20.0354C95.2812 20.0568 95.2919 20.1101 95.2492 20.1954C95.2065 20.2594 95.1425 20.3448 95.0572 20.4514C94.9932 20.5368 94.9079 20.6434 94.8012 20.7714C94.7159 20.8781 94.6625 20.9954 94.6412 21.1234C94.6839 21.0808 94.6945 21.1341 94.6732 21.2834C94.6519 21.4114 94.5665 21.5608 94.4172 21.7314C94.3745 21.8808 94.3105 21.9874 94.2252 22.0514C94.1612 22.0941 94.0865 22.1368 94.0012 22.1794C93.9372 22.2008 93.8839 22.2328 93.8412 22.2754C93.7985 22.2968 93.7985 22.3394 93.8412 22.4034C93.6492 22.5741 93.4572 22.7768 93.2652 23.0114C93.0945 23.2248 93.0199 23.4488 93.0412 23.6834C92.9985 23.6621 92.9452 23.6834 92.8812 23.7474C92.8172 23.7901 92.7532 23.8541 92.6892 23.9394C92.6252 24.0248 92.5505 24.0994 92.4652 24.1634C92.4012 24.2061 92.3372 24.2061 92.2732 24.1634C92.0812 24.3341 91.9319 24.4728 91.8252 24.5794C91.7185 24.6648 91.6225 24.7608 91.5372 24.8674C91.4732 24.9528 91.4199 25.0594 91.3772 25.1874C91.3559 25.2941 91.3345 25.4541 91.3132 25.6674C91.0999 25.6034 90.9079 25.6674 90.7372 25.8594C90.5879 26.0301 90.4599 26.1688 90.3532 26.2754C90.3532 26.3821 90.3425 26.4461 90.3212 26.4674C90.3212 26.4888 90.2999 26.4994 90.2572 26.4994C90.2359 26.5208 90.2039 26.5421 90.1612 26.5634C90.1399 26.5848 90.1079 26.6381 90.0652 26.7234C89.8519 26.6808 89.7239 26.6914 89.6812 26.7554C89.6599 26.8194 89.6172 26.8408 89.5532 26.8194C89.3825 27.0328 89.2225 27.1714 89.0732 27.2354C88.9239 27.3208 88.6252 27.3848 88.1772 27.4274C88.0065 27.4061 87.8679 27.3208 87.7612 27.1714C87.6759 27.0221 87.4839 26.8941 87.1852 26.7874C87.0572 26.8514 86.9185 26.7874 86.7692 26.5954C86.6199 26.4248 86.5452 26.1901 86.5452 25.8914L86.4492 25.9234Z" fill="#111111"/>
<path d="M66.1202 8.13145C66.0136 7.79011 66.0562 7.52345 66.2482 7.33145C66.4402 7.11811 66.5576 7.01145 66.6002 7.01145L67.7202 6.53145L68.6802 5.53945L69.6722 5.15545L70.4722 4.86745L71.5282 4.41945C71.8269 4.16345 72.0189 4.02478 72.1042 4.00345C72.2109 3.96078 72.3496 3.91811 72.5202 3.87545C72.9256 3.85411 73.2136 3.87545 73.3842 3.93945C73.5762 3.98211 73.7362 4.02478 73.8642 4.06745C74.1842 4.30211 74.3656 4.59011 74.4082 4.93145C74.4722 5.25145 74.4082 5.49678 74.2162 5.66745L74.5042 6.69145L74.4082 7.42745L74.5682 8.83545L74.6962 9.76345L74.6002 10.8514L74.2162 11.6514L74.6642 12.4834L74.4082 13.8914L74.5362 14.7874L74.2802 15.6834L74.6002 16.4834L74.3762 17.6034L74.4082 18.8514L74.3762 19.9394L74.5682 20.8354L74.1522 21.9874L74.1202 22.9154L74.3122 24.0034L74.6322 25.2514L74.2802 26.3074L74.0882 26.1154L74.5682 26.2754C74.3762 26.6168 74.1522 26.9474 73.8962 27.2674C73.6616 27.5874 73.3629 27.7581 73.0002 27.7794C72.6162 27.6088 72.3069 27.4808 72.0722 27.3954C71.8589 27.3101 71.7096 27.2141 71.6242 27.1074C71.5389 27.0434 71.4856 26.9688 71.4642 26.8834C71.4429 26.7981 71.4216 26.7021 71.4002 26.5954C71.4002 26.5101 71.3896 26.4141 71.3682 26.3074C71.3682 26.2008 71.3362 26.1154 71.2722 26.0514V24.8994L70.9842 24.2274L71.4642 22.9794L70.9842 22.2754L71.3362 20.7394L71.4642 20.0354L71.2082 18.8514L71.2722 18.0834L71.3042 16.9634L71.2082 15.7794L70.9202 14.9794V13.7634L71.1442 12.7074V11.6514L71.0802 10.8834L71.0482 9.92345L70.9202 8.96345L71.1442 7.74745L70.2482 8.29145L69.5442 8.89945L68.1682 9.18745L67.9762 9.50745C67.8056 9.55011 67.6669 9.55011 67.5602 9.50745C67.4749 9.44345 67.3789 9.46478 67.2722 9.57145C67.1656 9.52878 67.0056 9.46478 66.7922 9.37945C66.5789 9.27278 66.4509 9.24078 66.4082 9.28345C66.2376 9.04878 66.1309 8.85678 66.0882 8.70745C66.0456 8.53678 65.9922 8.33411 65.9282 8.09945L66.1202 8.13145Z" fill="#111111"/>
<path d="M47.2617 22.6914C47.347 22.7554 47.4217 22.8301 47.4857 22.9154C47.571 23.0008 47.6563 23.0754 47.7417 23.1394C47.827 23.2034 47.923 23.2461 48.0297 23.2674C48.1577 23.2674 48.3177 23.2248 48.5097 23.1394C48.6377 23.2248 48.7443 23.3741 48.8297 23.5874C48.915 23.8008 48.979 23.9288 49.0217 23.9714C49.299 23.8434 49.5657 23.7794 49.8217 23.7794C50.0777 23.7794 50.227 23.8861 50.2697 24.0994C50.6323 24.0141 50.9417 23.9608 51.1977 23.9394C51.475 23.8968 51.7523 23.8861 52.0297 23.9074C52.2643 23.6514 52.4563 23.5021 52.6057 23.4594C52.7763 23.3954 52.9363 23.3208 53.0857 23.2354C53.0003 23.1714 52.9577 23.0541 52.9577 22.8834C52.9577 22.6914 52.979 22.4461 53.0217 22.1474C53.3203 21.7848 53.491 21.4968 53.5337 21.2834C53.5977 21.0488 53.5443 20.7821 53.3737 20.4834L53.3097 19.4914L53.4057 18.7554L53.2137 17.4434L53.2457 16.3234C53.395 16.0461 53.4483 15.8434 53.4057 15.7154C53.363 15.5661 53.3843 15.3954 53.4697 15.2034C53.2563 14.9474 53.0857 14.7128 52.9577 14.4994C52.8297 14.2861 52.659 14.1368 52.4457 14.0514C52.467 13.9021 52.403 13.8061 52.2537 13.7634C52.1257 13.7208 51.8483 13.5821 51.4217 13.3474C51.4643 13.4114 51.3683 13.4434 51.1337 13.4434C50.9203 13.4434 50.6537 13.3688 50.3337 13.2194C50.2057 13.2621 50.035 13.3048 49.8217 13.3474C49.6297 13.3688 49.2883 13.4434 48.7977 13.5714C48.819 13.5074 48.8083 13.4861 48.7657 13.5074C48.723 13.5288 48.6697 13.5821 48.6057 13.6674C48.5417 13.7314 48.4563 13.8168 48.3497 13.9234C48.2643 14.0088 48.1683 14.0728 48.0617 14.1154C47.9763 14.2221 47.8697 14.2861 47.7417 14.3074C47.6137 14.3288 47.4537 14.5208 47.2617 14.8834C47.155 14.8834 47.1123 14.9474 47.1337 15.0754C47.1763 15.1821 47.2617 15.3848 47.3897 15.6834L47.1657 16.7074L47.3577 18.3074L47.3897 18.9474L47.4857 20.6754L47.4537 21.6034L47.2297 22.7554L47.2617 22.6914ZM43.9657 30.0514L44.2857 29.0274L43.8057 27.9074L43.9337 26.8834L43.9977 26.2434L43.9017 25.2194L44.3497 23.9394L44.3817 22.9794L44.0937 21.7314L43.8697 21.0274L43.8377 19.8434L44.1577 19.1074L43.9977 18.0834L44.1897 16.9634L44.0617 15.9074C44.2323 15.6728 44.275 15.4594 44.1897 15.2674C44.1257 15.0754 44.0297 14.8194 43.9017 14.4994C43.923 14.5208 43.9443 14.5101 43.9657 14.4674C44.0083 14.4034 44.051 14.3288 44.0937 14.2434C44.1577 14.1581 44.2217 14.0728 44.2857 13.9874C44.371 13.9021 44.4457 13.8488 44.5097 13.8274C44.7443 13.6994 44.915 13.5394 45.0217 13.3474C45.1497 13.1341 45.2457 12.9848 45.3097 12.8994C45.395 12.5581 45.395 12.3554 45.3097 12.2914C45.2457 12.2274 45.267 12.2061 45.3737 12.2274C45.5657 12.0994 45.7577 11.9394 45.9497 11.7474C46.163 11.5341 46.451 11.2994 46.8137 11.0434C46.835 10.9794 46.8883 10.9474 46.9737 10.9474C47.0803 10.9261 47.187 10.9154 47.2937 10.9154C47.4003 10.9154 47.4963 10.9154 47.5817 10.9154C47.6883 10.8941 47.7417 10.8301 47.7417 10.7234C47.891 10.7874 48.1043 10.7661 48.3817 10.6594C48.6803 10.5314 48.915 10.4141 49.0857 10.3074C49.107 10.3074 49.171 10.3074 49.2777 10.3074C49.4057 10.3074 49.5337 10.3074 49.6617 10.3074C49.811 10.3074 49.9497 10.3181 50.0777 10.3394C50.227 10.3394 50.3443 10.3394 50.4297 10.3394C50.451 10.4248 50.5043 10.4888 50.5897 10.5314C50.6963 10.5741 50.803 10.6061 50.9097 10.6274C51.0377 10.6274 51.155 10.6274 51.2617 10.6274C51.3897 10.6061 51.475 10.5741 51.5177 10.5314C51.9657 10.6381 52.3177 10.7234 52.5737 10.7874C52.851 10.8301 53.075 10.9368 53.2457 11.1074C53.4163 10.9154 53.5337 10.8514 53.5977 10.9154C53.683 10.9794 53.8537 11.1181 54.1097 11.3314C54.1523 11.5874 54.291 11.7794 54.5257 11.9074C54.7817 12.0141 54.995 12.1848 55.1657 12.4194C55.1443 12.2701 55.1977 12.3234 55.3257 12.5794C55.4537 12.8141 55.6137 13.0701 55.8057 13.3474C56.0403 13.4114 56.2643 13.6461 56.4777 14.0514C56.4563 14.1581 56.4777 14.3501 56.5417 14.6274C56.6057 14.9048 56.563 15.1608 56.4137 15.3954C56.435 15.3954 56.4457 15.4381 56.4457 15.5234C56.4457 15.6088 56.4457 15.7048 56.4457 15.8114C56.467 15.9181 56.4777 16.0248 56.4777 16.1314C56.4777 16.2381 56.4883 16.3128 56.5097 16.3554L56.6057 17.2194L56.7977 18.2754L56.4457 19.9074L56.5097 20.9314C56.5523 20.9741 56.563 21.0274 56.5417 21.0914C56.5417 21.1554 56.531 21.2301 56.5097 21.3154C56.5097 21.4008 56.5203 21.5074 56.5417 21.6354C56.563 21.7421 56.627 21.8701 56.7337 22.0194C56.6697 22.1688 56.5523 22.3394 56.3817 22.5314C56.2323 22.7234 56.147 22.8941 56.1257 23.0434C56.2323 23.1288 56.2643 23.2248 56.2217 23.3314C56.179 23.4168 56.179 23.5554 56.2217 23.7474C56.1363 23.9181 56.051 24.0461 55.9657 24.1314C55.8803 24.2168 55.7843 24.3021 55.6777 24.3874C55.5923 24.4514 55.507 24.5368 55.4217 24.6434C55.3363 24.7288 55.2617 24.8461 55.1977 24.9954C55.155 25.2728 55.0057 25.4541 54.7497 25.5394C54.515 25.6248 54.3337 25.6034 54.2057 25.4754C54.0777 25.7954 54.003 25.9981 53.9817 26.0834C53.9603 26.1474 53.7897 26.1368 53.4697 26.0514C53.2777 26.2008 53.0643 26.3181 52.8297 26.4034C52.595 26.4674 52.403 26.4888 52.2537 26.4674C52.0617 26.6594 51.8803 26.7341 51.7097 26.6914C51.5603 26.6701 51.411 26.6701 51.2617 26.6914C51.1763 26.7341 51.059 26.7554 50.9097 26.7554C50.7817 26.7768 50.643 26.7874 50.4937 26.7874C50.3657 26.7874 50.2483 26.7661 50.1417 26.7234C50.0563 26.7021 50.003 26.6594 49.9817 26.5954C49.491 26.5101 49.1497 26.4781 48.9577 26.4994C48.787 26.5421 48.6803 26.5101 48.6377 26.4034C48.339 26.1688 48.0617 25.9981 47.8057 25.8914C47.571 25.7634 47.4217 25.6461 47.3577 25.5394L47.3257 26.8194L47.2617 27.8114L47.1337 29.3794L47.1017 29.9554C47.251 30.3821 47.2723 30.6594 47.1657 30.7874C47.059 30.9368 46.8563 30.9901 46.5577 30.9474C46.6003 31.2674 46.4937 31.5128 46.2377 31.6834C46.003 31.8541 45.7363 31.9501 45.4377 31.9714C45.395 31.9714 45.2883 31.9074 45.1177 31.7794C44.947 31.6514 44.6483 31.4061 44.2217 31.0434C44.2217 31.1501 44.2217 31.1074 44.2217 30.9154C44.243 30.7448 44.2003 30.4994 44.0937 30.1794L43.9657 30.0514Z" fill="#111111"/>
<path d="M31.9919 17.9234C31.9066 17.9234 31.9919 17.9128 32.2479 17.8914C32.5039 17.8488 32.8133 17.9021 33.1759 18.0514C33.2613 18.0728 33.3253 18.0941 33.3679 18.1154C33.4319 18.1368 33.4959 18.1581 33.5599 18.1794C33.6239 18.2008 33.6879 18.2221 33.7519 18.2434C33.8373 18.2434 33.9546 18.2221 34.1039 18.1794C34.1679 18.1154 34.2319 18.0941 34.2959 18.1154C34.3813 18.1154 34.4773 18.1368 34.5839 18.1794C34.7119 18.2008 34.8613 18.2328 35.0319 18.2754C35.2026 18.2968 35.4053 18.2968 35.6399 18.2754C35.7466 18.2328 35.8319 18.2008 35.8959 18.1794C35.9599 18.1581 36.0239 18.1368 36.0879 18.1154C36.1733 18.0728 36.2586 18.0194 36.3439 17.9554C36.4506 17.8701 36.5999 17.7528 36.7919 17.6034C36.7493 17.6674 36.7493 17.6888 36.7919 17.6674C36.8559 17.6461 36.9199 17.6141 36.9839 17.5714C37.0479 17.5074 37.1013 17.4541 37.1439 17.4114C37.2079 17.3474 37.2293 17.3261 37.2079 17.3474C37.1653 17.1128 37.1653 16.8461 37.2079 16.5474C37.2719 16.2274 37.3573 15.9821 37.4639 15.8114C37.3999 15.7474 37.3679 15.6621 37.3679 15.5554C37.3679 15.4488 37.3573 15.3421 37.3359 15.2354C37.3359 15.1288 37.3039 15.0434 37.2399 14.9794C37.1973 14.9154 37.1013 14.8941 36.9519 14.9154C36.9093 14.6381 36.8666 14.4354 36.8239 14.3074C36.7813 14.1794 36.6959 14.0621 36.5679 13.9554C36.5466 13.6781 36.4719 13.5394 36.3439 13.5394C36.2159 13.5181 36.0453 13.4541 35.8319 13.3474C35.8533 13.3261 35.8213 13.3154 35.7359 13.3154C35.6506 13.3154 35.5333 13.3048 35.3839 13.2834C35.2559 13.2621 35.1173 13.2301 34.9679 13.1874C34.8399 13.1448 34.7333 13.0808 34.6479 12.9954C34.5413 13.1234 34.3919 13.2408 34.1999 13.3474C34.0079 13.4541 33.8266 13.4221 33.6559 13.2514C33.5279 13.3368 33.4106 13.3901 33.3039 13.4114C33.1973 13.4328 33.1013 13.4541 33.0159 13.4754C32.9306 13.4754 32.8346 13.4968 32.7279 13.5394C32.6426 13.5608 32.5466 13.6141 32.4399 13.6994C32.4613 13.7634 32.4399 13.8381 32.3759 13.9234C32.3333 13.9874 32.2693 14.0621 32.1839 14.1474C32.0986 14.2328 32.0026 14.3288 31.8959 14.4354C31.8106 14.5208 31.7466 14.6274 31.7039 14.7554C31.7466 14.7981 31.7146 14.9368 31.6079 15.1714C31.5226 15.3848 31.5226 15.6728 31.6079 16.0354L31.7999 16.9954L31.7039 17.8914L31.9919 17.9234ZM28.8879 24.2914C29.0586 23.9928 29.1226 23.7474 29.0799 23.5554C29.0373 23.3634 28.9413 23.1501 28.7919 22.9154C28.8559 22.8088 28.8773 22.6701 28.8559 22.4994C28.8559 22.3288 28.8026 22.0408 28.6959 21.6354L28.4399 20.7074L28.7919 19.4594V18.3074L28.8879 17.3154L28.7279 16.2274C28.7706 16.1421 28.7813 16.0461 28.7599 15.9394C28.7599 15.8114 28.7386 15.6941 28.6959 15.5874C28.6746 15.4808 28.6426 15.3848 28.5999 15.2994C28.5786 15.2141 28.5679 15.1714 28.5679 15.1714C28.6746 14.9368 28.7386 14.6701 28.7599 14.3714C28.8026 14.0728 28.8453 13.8808 28.8879 13.7954C29.1226 13.7528 29.2506 13.6568 29.2719 13.5074C29.3146 13.3368 29.4213 13.1021 29.5919 12.8034C29.5066 12.9101 29.5066 12.8888 29.5919 12.7394C29.6986 12.5688 29.9439 12.3234 30.3279 12.0034C30.3279 12.0674 30.3386 12.0781 30.3599 12.0354C30.3813 11.9928 30.4026 11.9501 30.4239 11.9074C30.4666 11.8434 30.5093 11.7901 30.5519 11.7474C30.5946 11.6834 30.6373 11.6621 30.6799 11.6834C30.8719 11.4061 30.9999 11.2568 31.0639 11.2354C31.1493 11.1928 31.3626 11.2248 31.7039 11.3314C31.7893 11.2674 31.8853 11.1608 31.9919 11.0114C32.1199 10.8621 32.4186 10.6914 32.8879 10.4994C32.8666 10.4994 32.8879 10.5101 32.9519 10.5314C33.0373 10.5528 33.1333 10.5741 33.2399 10.5954C33.3679 10.6168 33.4853 10.6381 33.5919 10.6594C33.7199 10.6594 33.8266 10.6594 33.9119 10.6594C33.9973 10.6594 34.0719 10.6488 34.1359 10.6274C34.1999 10.5848 34.2639 10.5634 34.3279 10.5634C34.3919 10.5421 34.4773 10.5314 34.5839 10.5314C34.6906 10.5314 34.8293 10.5634 34.9999 10.6274C35.1919 10.4568 35.4159 10.3821 35.6719 10.4034C35.9493 10.4248 36.1519 10.5208 36.2799 10.6914C36.3866 10.6061 36.4719 10.5741 36.5359 10.5954C36.5999 10.5954 36.6639 10.6168 36.7279 10.6594C36.7919 10.6808 36.8559 10.7128 36.9199 10.7554C36.9839 10.7768 37.0799 10.7661 37.2079 10.7234C37.3999 10.6808 37.5813 10.7128 37.7519 10.8194C37.9439 10.9048 38.2106 11.0648 38.5519 11.2994C38.6159 11.4488 38.7013 11.5341 38.8079 11.5554C38.9359 11.5768 39.0746 11.6728 39.2239 11.8434C39.3519 12.0354 39.4586 12.2061 39.5439 12.3554C39.6293 12.4834 39.6399 12.5688 39.5759 12.6114C39.7466 12.6114 39.8533 12.6754 39.8959 12.8034C39.9386 12.9314 39.9599 13.1128 39.9599 13.3474C40.1093 13.4754 40.2053 13.6141 40.2479 13.7634C40.2906 13.8914 40.3119 14.0088 40.3119 14.1154C40.3119 14.2008 40.3013 14.2754 40.2799 14.3394C40.2586 14.4034 40.2586 14.4141 40.2799 14.3714C40.3013 14.8194 40.3226 15.1714 40.3439 15.4274C40.3866 15.6621 40.3866 15.8861 40.3439 16.0994C40.3866 16.1421 40.3973 16.1741 40.3759 16.1954C40.3759 16.2168 40.3759 16.2488 40.3759 16.2914C40.3973 16.3341 40.4293 16.3981 40.4719 16.4834C40.5146 16.5688 40.5999 16.7074 40.7279 16.8994C40.5999 17.0274 40.5146 17.1234 40.4719 17.1874C40.4293 17.2301 40.3973 17.2834 40.3759 17.3474C40.3546 17.3901 40.3226 17.4648 40.2799 17.5714C40.2586 17.6568 40.2053 17.8061 40.1199 18.0194C40.1199 18.2114 40.0559 18.3714 39.9279 18.4994C39.7999 18.6274 39.7999 18.6381 39.9279 18.5314C39.7786 18.7021 39.6719 18.8514 39.6079 18.9794C39.5653 19.0861 39.5226 19.1821 39.4799 19.2674C39.4586 19.3314 39.4373 19.4061 39.4159 19.4914C39.3946 19.5554 39.3519 19.6301 39.2879 19.7154C38.9679 19.7581 38.7759 19.8434 38.7119 19.9714C38.6479 20.0994 38.5519 20.2808 38.4239 20.5154C38.3173 20.4301 38.1999 20.3874 38.0719 20.3874C37.9439 20.3874 37.8159 20.3981 37.6879 20.4194C37.5599 20.4408 37.4426 20.4514 37.3359 20.4514C37.2293 20.4514 37.1439 20.3981 37.0799 20.2914C36.9093 20.3341 36.6853 20.4194 36.4079 20.5474C36.1306 20.6754 35.9813 20.8034 35.9599 20.9314C35.7893 20.9528 35.6613 20.9421 35.5759 20.8994C35.4906 20.8568 35.4053 20.8034 35.3199 20.7394C35.2346 20.6754 35.1386 20.6221 35.0319 20.5794C34.9253 20.5368 34.7759 20.5154 34.5839 20.5154C34.4559 20.6861 34.2853 20.7501 34.0719 20.7074C33.8586 20.6434 33.6986 20.6008 33.5919 20.5794C33.4853 20.5154 33.3146 20.5261 33.0799 20.6114C32.8666 20.6968 32.6746 20.6861 32.5039 20.5794C32.4399 20.5368 32.3226 20.5474 32.1519 20.6114C32.0026 20.6541 31.7999 20.6968 31.5439 20.7394L31.9279 21.9234C31.8213 22.2861 31.7466 22.5314 31.7039 22.6594C31.6613 22.7661 31.7039 22.8941 31.8319 23.0434C31.8106 23.0861 31.8319 23.1501 31.8959 23.2354C31.9813 23.3208 32.0773 23.4168 32.1839 23.5234C32.2906 23.6088 32.3866 23.6941 32.4719 23.7794C32.5573 23.8648 32.6106 23.9181 32.6319 23.9394C32.6319 24.0034 32.6746 24.0674 32.7599 24.1314C32.8453 24.1954 32.9413 24.2488 33.0479 24.2914C33.1546 24.3341 33.2613 24.3661 33.3679 24.3874C33.4746 24.3874 33.5599 24.3661 33.6239 24.3234C33.6666 24.3448 33.7413 24.3874 33.8479 24.4514C33.9759 24.4941 34.1146 24.5474 34.2639 24.6114C34.4133 24.6541 34.5519 24.6968 34.6799 24.7394C34.8293 24.7821 34.9573 24.8034 35.0639 24.8034C35.1919 24.8034 35.3733 24.7074 35.6079 24.5154C35.8639 24.3234 36.1946 24.1848 36.5999 24.0994C36.8346 24.0781 37.0586 24.0674 37.2719 24.0674C37.4853 24.0674 37.5706 24.0461 37.5279 24.0034C37.7839 23.9821 38.0293 23.9394 38.2639 23.8754C38.5199 23.8114 38.6906 23.8221 38.7759 23.9074C39.0106 23.8221 39.2239 23.7474 39.4159 23.6834C39.6293 23.6194 39.8213 23.6408 39.9919 23.7474C39.9919 23.9181 40.0133 24.1208 40.0559 24.3554C40.0986 24.5901 40.1199 24.7608 40.1199 24.8674C40.2053 24.9741 40.2266 25.1021 40.1839 25.2514C40.1413 25.3794 40.0986 25.5394 40.0559 25.7314C39.7573 26.0301 39.5333 26.2221 39.3839 26.3074C39.2346 26.3928 39.0319 26.4141 38.7759 26.3714C38.6479 26.5848 38.4986 26.6914 38.3279 26.6914C38.1786 26.6914 38.0826 26.7021 38.0399 26.7234C37.6559 26.8941 37.3679 26.9901 37.1759 27.0114C37.0053 27.0328 36.9413 27.0968 36.9839 27.2034C36.8559 27.1394 36.7173 27.1074 36.5679 27.1074C36.4186 27.1074 36.2799 27.1181 36.1519 27.1394C36.0453 27.1608 35.9493 27.1608 35.8639 27.1394C35.7999 27.1394 35.7679 27.0968 35.7679 27.0114C35.7039 27.1608 35.6079 27.2461 35.4799 27.2674C35.3733 27.3101 35.2666 27.3208 35.1599 27.2994C35.0533 27.2994 34.9573 27.2994 34.8719 27.2994C34.7866 27.2994 34.7439 27.3421 34.7439 27.4274C34.5733 27.3208 34.3599 27.2354 34.1039 27.1714C33.8479 27.1288 33.7093 27.1394 33.6879 27.2034C33.4533 27.2034 33.1439 27.1821 32.7599 27.1394C32.3759 27.1181 32.0666 27.0541 31.8319 26.9474C31.7039 26.9901 31.5866 26.9154 31.4799 26.7234C31.3733 26.5314 31.1919 26.3821 30.9359 26.2754C30.8719 26.2114 30.7973 26.1048 30.7119 25.9554C30.6266 25.7848 30.5199 25.6781 30.3919 25.6354C30.0506 25.5288 29.8266 25.3901 29.7199 25.2194C29.6346 25.0274 29.6773 24.8994 29.8479 24.8354C29.6559 24.6861 29.4853 24.5581 29.3359 24.4514C29.1866 24.3234 29.0906 24.1741 29.0479 24.0034L28.8879 24.2914Z" fill="#111111"/>
<path d="M18.761 20.4514L18.249 19.2034L18.377 18.6594L18.537 17.2834L18.153 16.4834L18.697 15.0114L18.441 14.2114L17.769 14.0834C17.8116 14.0834 17.8223 14.1048 17.801 14.1474C17.7796 14.1901 17.7476 14.2328 17.705 14.2754C17.6623 14.2968 17.6196 14.3074 17.577 14.3074C17.5556 14.2861 17.5663 14.2114 17.609 14.0834C17.289 14.0194 17.0436 13.9234 16.873 13.7954C16.7236 13.6674 16.6276 13.4541 16.585 13.1554C16.6276 12.8994 16.649 12.6754 16.649 12.4834C16.649 12.2701 16.6596 12.0888 16.681 11.9394C16.7236 11.7901 16.7983 11.6834 16.905 11.6194C17.0116 11.5341 17.193 11.4914 17.449 11.4914C17.6196 11.4274 17.7263 11.4061 17.769 11.4274C17.833 11.4488 17.8223 11.5021 17.737 11.5874L18.217 11.2674L18.633 9.89144V8.96344L18.569 7.36344C18.5263 7.23544 18.5156 7.13944 18.537 7.07544C18.5583 6.9901 18.5796 6.90477 18.601 6.81944C18.6223 6.7341 18.633 6.6381 18.633 6.53144C18.633 6.40344 18.6116 6.2541 18.569 6.08344C18.9956 5.97677 19.2836 5.88077 19.433 5.79544C19.6036 5.68877 19.6996 5.65677 19.721 5.69944C19.9556 5.69944 20.233 5.76344 20.553 5.89144C20.873 6.01944 21.1076 6.0941 21.257 6.11544C21.449 6.41411 21.5876 6.63811 21.673 6.78744C21.7796 6.91544 21.8436 7.06477 21.865 7.23544L21.577 8.45144L21.481 10.2434L21.705 11.6194L22.473 11.4274L23.913 11.6194L24.425 11.2674H24.713L25.001 11.5234C25.257 11.5448 25.4596 11.6088 25.609 11.7154C25.7583 11.8008 25.8756 11.8968 25.961 12.0034C26.0463 12.1101 26.089 12.2168 26.089 12.3234C26.089 12.4301 26.0783 12.5048 26.057 12.5474C26.0143 12.8674 25.9183 13.2088 25.769 13.5714C25.641 13.9128 25.513 14.1368 25.385 14.2434L24.713 14.2754L24.585 14.1794L23.785 14.3074L22.857 14.1154L21.609 14.5954L21.801 15.2674L21.353 16.8674L21.417 18.0194L21.769 19.3314L21.545 20.3874C21.481 20.5154 21.449 20.6114 21.449 20.6754C21.4703 20.7394 21.4916 20.8034 21.513 20.8674C21.5556 20.9314 21.5983 21.0168 21.641 21.1234C21.6836 21.2301 21.7156 21.3901 21.737 21.6034C21.7583 21.6461 21.7476 21.6888 21.705 21.7314C21.6836 21.7741 21.6623 21.8274 21.641 21.8914C21.641 21.9341 21.6623 21.9981 21.705 22.0834C21.7476 22.1688 21.8436 22.2754 21.993 22.4034C21.8863 22.4674 21.8116 22.5314 21.769 22.5954C21.7263 22.6594 21.6943 22.7341 21.673 22.8194C21.673 22.9048 21.6836 23.0114 21.705 23.1394C21.7263 23.2674 21.7476 23.4381 21.769 23.6514C22.0036 23.8861 22.185 24.0354 22.313 24.0994C22.4623 24.1634 22.6863 24.2488 22.985 24.3554L23.913 24.4514L24.457 24.2594H25.097C25.3316 24.3448 25.5236 24.4088 25.673 24.4514C25.8223 24.4941 25.9396 24.4621 26.025 24.3554C26.0676 24.3768 26.121 24.4301 26.185 24.5154C26.2703 24.5794 26.345 24.6754 26.409 24.8034C26.473 24.9101 26.505 25.0274 26.505 25.1554C26.5263 25.2621 26.505 25.3581 26.441 25.4434C26.5903 25.6781 26.5903 25.9554 26.441 26.2754C26.313 26.5954 26.2063 26.8301 26.121 26.9794C26.0143 27.0221 25.8863 27.0861 25.737 27.1714C25.609 27.2781 25.4596 27.3208 25.289 27.2994C25.225 27.2994 25.1396 27.2888 25.033 27.2674C24.9476 27.2461 24.8516 27.2141 24.745 27.1714C24.6383 27.1501 24.5423 27.1288 24.457 27.1074C24.3716 27.0861 24.3183 27.0968 24.297 27.1394C24.0196 27.0541 23.7956 27.0114 23.625 27.0114C23.4756 27.0328 23.2836 27.1074 23.049 27.2354C23.0063 27.2354 22.9423 27.2354 22.857 27.2354C22.793 27.2354 22.7183 27.2141 22.633 27.1714C22.569 27.1501 22.5156 27.0968 22.473 27.0114C22.4303 26.9474 22.4303 26.8514 22.473 26.7234C22.2596 26.7661 22.089 26.7981 21.961 26.8194C21.8543 26.8621 21.7583 26.8834 21.673 26.8834C21.5876 26.9048 21.4916 26.8941 21.385 26.8514C21.2783 26.8088 21.129 26.7234 20.937 26.5954C20.8303 26.6808 20.7556 26.6808 20.713 26.5954C20.6916 26.5101 20.4996 26.4141 20.137 26.3074C20.1583 26.1794 20.1476 26.0728 20.105 25.9874C20.0623 25.9021 20.009 25.8381 19.945 25.7954C19.881 25.7314 19.8276 25.6888 19.785 25.6674C19.7636 25.6248 19.785 25.5821 19.849 25.5394C19.4863 25.3474 19.2516 25.1981 19.145 25.0914C19.0383 24.9634 18.9423 24.8781 18.857 24.8354C19.0063 24.4728 19.0596 24.2061 19.017 24.0354C18.9743 23.8648 18.985 23.7154 19.049 23.5874C19.0276 23.5234 18.985 23.4381 18.921 23.3314C18.857 23.2248 18.793 23.1074 18.729 22.9794C18.6863 22.8514 18.665 22.7448 18.665 22.6594C18.665 22.5528 18.7076 22.4888 18.793 22.4674C18.7076 22.2754 18.665 22.1048 18.665 21.9554C18.665 21.8061 18.6863 21.6461 18.729 21.4754C18.7076 21.4114 18.665 21.2834 18.601 21.0914C18.537 20.8994 18.4836 20.6861 18.441 20.4514H18.761Z" fill="#111111"/>
<path d="M1.22888 25.0274C1.25021 24.7501 1.27155 24.5048 1.29288 24.2914C1.33555 24.0781 1.42088 23.9181 1.54888 23.8114C1.52755 23.7901 1.52755 23.7474 1.54888 23.6834C1.59155 23.6194 1.64488 23.5554 1.70888 23.4914C1.77288 23.4274 1.84755 23.3848 1.93288 23.3634C2.01821 23.3421 2.12488 23.3634 2.25288 23.4274C2.44488 23.3848 2.58355 23.3528 2.66888 23.3314C2.75421 23.3101 2.80755 23.3101 2.82888 23.3314C2.87155 23.3528 2.90355 23.3848 2.92488 23.4274C2.94621 23.4701 2.97821 23.5234 3.02088 23.5874C3.17021 23.5874 3.28755 23.5981 3.37288 23.6194C3.45821 23.6194 3.53288 23.6301 3.59688 23.6514C3.68221 23.6728 3.77821 23.6834 3.88488 23.6834C3.99155 23.6834 4.13021 23.6728 4.30088 23.6514C4.32221 23.7581 4.36488 23.8328 4.42888 23.8754C4.51421 23.8968 4.59955 23.9181 4.68488 23.9394C4.77021 23.9608 4.84488 24.0034 4.90888 24.0674C4.99421 24.1101 5.03688 24.2061 5.03688 24.3554C5.20755 24.1848 5.35688 24.1314 5.48488 24.1954C5.63421 24.2594 5.89021 24.3341 6.25288 24.4194C6.46621 24.3768 6.65821 24.3341 6.82888 24.2914C6.99955 24.2274 7.10621 24.2808 7.14888 24.4514C7.42621 24.5368 7.67155 24.5048 7.88488 24.3554C8.11955 24.2061 8.38621 24.0888 8.68488 24.0034C8.72755 24.0034 8.82355 24.0248 8.97288 24.0674C9.14355 24.1101 9.31421 24.1528 9.48488 24.1954C9.67688 24.0888 9.81555 23.9928 9.90088 23.9074C10.0075 23.8221 10.1675 23.6408 10.3809 23.3634C10.3382 23.3421 10.3382 23.3101 10.3809 23.2674C10.4235 23.2034 10.4769 23.1501 10.5409 23.1074C10.6262 23.0648 10.7115 23.0328 10.7969 23.0114C10.8822 22.9688 10.9462 22.9688 10.9889 23.0114C10.7969 22.7341 10.7435 22.5208 10.8289 22.3714C10.9355 22.2008 10.9889 22.0621 10.9889 21.9554C11.0529 21.7421 11.1275 21.6034 11.2129 21.5394C11.2982 21.4541 11.3942 21.3048 11.5009 21.0914C11.3942 20.6648 11.2875 20.3661 11.1809 20.1954C11.0955 20.0248 11.0209 19.8114 10.9569 19.5554C10.8502 19.3848 10.7862 19.2034 10.7649 19.0114C10.7649 18.7981 10.7009 18.6594 10.5729 18.5954C10.4662 18.4888 10.3275 18.4034 10.1569 18.3394C10.0075 18.2541 9.85821 18.1794 9.70888 18.1154C9.58088 17.9661 9.35688 17.8168 9.03688 17.6674C8.73821 17.5181 8.37555 17.3261 7.94888 17.0914C7.86355 17.1341 7.77821 17.1448 7.69288 17.1234C7.60755 17.1021 7.51155 17.0808 7.40488 17.0594C7.31955 17.0168 7.23421 16.9848 7.14888 16.9634C7.06355 16.9421 6.97821 16.9634 6.89288 17.0274L5.70888 16.5154C5.49555 16.3874 5.32488 16.3021 5.19688 16.2594C5.09021 16.2168 4.98355 16.1848 4.87688 16.1634C4.79155 16.1208 4.69555 16.0781 4.58888 16.0354C4.48221 15.9714 4.32221 15.8861 4.10888 15.7794C4.04488 15.7154 3.97021 15.6728 3.88488 15.6514C3.79955 15.6301 3.72488 15.6194 3.66088 15.6194C3.59688 15.6194 3.55421 15.6301 3.53288 15.6514C3.53288 15.6514 3.56488 15.6301 3.62888 15.5874C3.33021 15.2461 3.08488 15.0328 2.89288 14.9474C2.72221 14.8408 2.65821 14.7021 2.70088 14.5314C2.40221 14.4888 2.16755 14.4248 1.99688 14.3394C1.82621 14.2328 1.70888 13.9981 1.64488 13.6354C1.58088 13.6141 1.53821 13.5608 1.51688 13.4754C1.51688 13.3901 1.51688 13.3048 1.51688 13.2194C1.51688 13.1128 1.50621 13.0061 1.48488 12.8994C1.46355 12.7928 1.41021 12.6968 1.32488 12.6114C1.13288 12.5901 1.04755 12.5154 1.06888 12.3874C1.09021 12.2381 1.15421 12.0568 1.26088 11.8434C1.06888 11.5448 0.951546 11.2994 0.908879 11.1074C0.866212 10.9154 0.994212 10.6808 1.29288 10.4034C0.994212 10.1688 0.876879 9.94477 0.940879 9.73144C1.00488 9.5181 1.11155 9.3261 1.26088 9.15544C1.19688 9.15544 1.16488 9.12344 1.16488 9.05944C1.18621 8.9741 1.19688 8.88877 1.19688 8.80344C1.21821 8.7181 1.22888 8.64344 1.22888 8.57944C1.22888 8.4941 1.18621 8.45144 1.10088 8.45144C1.27155 8.2381 1.37821 8.0781 1.42088 7.97144C1.48488 7.86477 1.46355 7.64077 1.35688 7.29944C1.42088 7.32077 1.49555 7.3101 1.58088 7.26744C1.66621 7.20344 1.74088 7.13944 1.80488 7.07544C1.86888 6.9901 1.91155 6.91544 1.93288 6.85144C1.97555 6.78744 1.97555 6.75544 1.93288 6.75544C2.23155 6.52077 2.44488 6.36077 2.57288 6.27544C2.72221 6.1901 2.79688 6.08344 2.79688 5.95544C2.79688 5.82744 2.82888 5.73144 2.89288 5.66744C2.95688 5.60344 3.03155 5.5501 3.11688 5.50744C3.22355 5.46477 3.31955 5.4221 3.40488 5.37944C3.51155 5.33677 3.59688 5.27277 3.66088 5.18744C3.72488 5.01677 3.82088 4.92077 3.94888 4.89944C4.07688 4.85677 4.24755 4.85677 4.46088 4.89944C4.67421 4.6221 4.84488 4.48344 4.97288 4.48344C5.12221 4.48344 5.25021 4.44077 5.35688 4.35544C5.52755 4.24877 5.70888 4.2381 5.90088 4.32344C6.09288 4.38744 6.26355 4.4301 6.41288 4.45144C6.49821 4.45144 6.60488 4.4301 6.73288 4.38744C6.88221 4.32344 7.02088 4.2701 7.14888 4.22744C7.27688 4.18477 7.39421 4.1741 7.50088 4.19544C7.60755 4.19544 7.66088 4.2381 7.66088 4.32344C7.78888 4.13144 7.97021 4.02477 8.20488 4.00344C8.43955 3.96077 8.67421 3.9501 8.90888 3.97144C8.88755 4.0781 8.95155 4.12077 9.10088 4.09944C9.25021 4.05677 9.41021 4.00344 9.58088 3.93944C10.0075 3.9821 10.3062 4.08877 10.4769 4.25944C10.6475 4.40877 10.8182 4.5261 10.9889 4.61144C11.1809 4.54744 11.3409 4.5261 11.4689 4.54744C11.6182 4.56877 11.7462 4.6221 11.8529 4.70744C11.9809 4.77144 12.0875 4.8461 12.1729 4.93144C12.2795 5.01677 12.3969 5.0701 12.5249 5.09144C12.5675 5.02744 12.6209 5.0061 12.6849 5.02744C12.7489 5.04877 12.8235 5.09144 12.9089 5.15544C12.9942 5.1981 13.0795 5.24077 13.1649 5.28344C13.2715 5.3261 13.3675 5.33677 13.4529 5.31544C13.6022 5.6141 13.6342 5.84877 13.5489 6.01944C13.4635 6.16877 13.4209 6.33944 13.4209 6.53144C13.3782 6.78744 13.3675 6.96877 13.3889 7.07544C13.4102 7.1821 13.4209 7.35277 13.4209 7.58744C13.1222 7.58744 12.8875 7.6301 12.7169 7.71544C12.5462 7.80077 12.2902 7.92877 11.9489 8.09944C11.9489 8.05677 11.9062 8.02477 11.8209 8.00344C11.7355 7.9821 11.6502 7.96077 11.5649 7.93944C11.5009 7.89677 11.4369 7.8541 11.3729 7.81144C11.3089 7.74744 11.2875 7.6621 11.3089 7.55544C11.0102 7.68344 10.8075 7.70477 10.7009 7.61944C10.6155 7.51277 10.5089 7.4381 10.3809 7.39544C10.1462 7.41677 9.91155 7.38477 9.67688 7.29944C9.46355 7.2141 9.28221 7.16077 9.13288 7.13944C9.11155 7.03277 8.97288 6.9901 8.71688 7.01144C8.48221 7.03277 8.23688 7.13944 7.98088 7.33144C7.68221 7.20344 7.39421 7.16077 7.11688 7.20344C6.83955 7.22477 6.70088 7.2141 6.70088 7.17144C6.25288 7.17144 5.94355 7.25677 5.77288 7.42744C5.62355 7.5981 5.46355 7.73677 5.29288 7.84344C5.29288 7.92877 5.25021 8.0141 5.16488 8.09944C5.10088 8.18477 5.00488 8.25944 4.87688 8.32344C4.77021 8.38744 4.66355 8.44077 4.55688 8.48344C4.45021 8.5261 4.38621 8.54744 4.36488 8.54744C4.25821 8.99544 4.22621 9.33677 4.26888 9.57144C4.31155 9.8061 4.38621 9.97677 4.49288 10.0834C4.42888 10.2328 4.37555 10.3928 4.33288 10.5634C4.31155 10.7128 4.23688 10.9368 4.10888 11.2354C4.40755 11.4488 4.62088 11.6088 4.74888 11.7154C4.87688 11.8008 4.96221 12.0141 5.00488 12.3554C4.96221 12.5688 5.00488 12.6648 5.13288 12.6434C5.26088 12.6008 5.43155 12.6328 5.64488 12.7394C5.87955 12.9741 6.12488 13.2194 6.38088 13.4754C6.65821 13.7101 6.87155 13.8488 7.02088 13.8914C7.25555 13.8488 7.46888 13.8488 7.66088 13.8914C7.87421 13.9128 8.15155 13.9448 8.49288 13.9874C8.53555 14.1154 8.67421 14.2541 8.90888 14.4034C9.14355 14.5528 9.34621 14.5741 9.51688 14.4674C9.83688 14.4248 10.0609 14.4994 10.1889 14.6914C10.3382 14.8621 10.5409 14.9794 10.7969 15.0434C10.7969 15.1074 10.9035 15.1394 11.1169 15.1394C11.3515 15.1181 11.6075 15.2354 11.8849 15.4914C11.8849 15.5768 11.9169 15.6301 11.9809 15.6514C12.0449 15.6728 12.0982 15.6941 12.1409 15.7154C12.2049 15.7154 12.2475 15.7261 12.2689 15.7474C12.3115 15.7474 12.3222 15.7581 12.3009 15.7794C12.4502 15.9501 12.5782 16.0674 12.6849 16.1314C12.7915 16.1954 12.8875 16.2594 12.9729 16.3234C13.0582 16.3874 13.1222 16.4621 13.1649 16.5474C13.2075 16.6114 13.2289 16.7288 13.2289 16.8994C13.4209 17.0274 13.5062 17.1021 13.4849 17.1234C13.4635 17.1234 13.4849 17.2194 13.5489 17.4114C13.7409 17.6461 13.8369 17.8488 13.8369 18.0194C13.8369 18.1901 13.8582 18.2434 13.9009 18.1794C14.0715 18.2861 14.1889 18.4034 14.2529 18.5314C14.3382 18.6594 14.3915 18.7874 14.4129 18.9154C14.4342 19.0434 14.4449 19.1714 14.4449 19.2994C14.4449 19.4061 14.4662 19.4914 14.5089 19.5554C14.3809 19.8114 14.3489 20.0248 14.4129 20.1954C14.4982 20.3448 14.6155 20.4408 14.7649 20.4834C14.5729 20.6968 14.4662 20.8674 14.4449 20.9954C14.4449 21.1021 14.5195 21.2408 14.6689 21.4114C14.5622 21.6034 14.4982 21.7528 14.4769 21.8594C14.4555 21.9448 14.4449 22.0194 14.4449 22.0834C14.4449 22.1261 14.4342 22.1688 14.4129 22.2114C14.3915 22.2328 14.3275 22.2861 14.2209 22.3714C14.1569 22.5634 14.1142 22.7128 14.0929 22.8194C14.0929 22.9261 14.0822 23.0221 14.0609 23.1074C14.0609 23.1714 14.0289 23.2354 13.9649 23.2994C13.9222 23.3634 13.8369 23.4381 13.7089 23.5234C13.7302 23.6088 13.7302 23.6834 13.7089 23.7474C13.6875 23.7901 13.6555 23.8328 13.6129 23.8754C13.5915 23.9181 13.5702 23.9608 13.5489 24.0034C13.5489 24.0461 13.5915 24.0888 13.6769 24.1314C13.5915 24.2168 13.5169 24.3234 13.4529 24.4514C13.3889 24.5581 13.3249 24.6754 13.2609 24.8034C13.1969 24.9101 13.1115 25.0061 13.0049 25.0914C12.8982 25.1554 12.7702 25.1874 12.6209 25.1874C12.6849 25.2728 12.7062 25.3368 12.6849 25.3794C12.6849 25.4221 12.6529 25.4648 12.5889 25.5074C12.5462 25.5501 12.4929 25.6034 12.4289 25.6674C12.3862 25.7101 12.3649 25.7954 12.3649 25.9234C12.1515 26.0088 11.9595 26.1368 11.7889 26.3074C11.6395 26.4568 11.5862 26.5208 11.6289 26.4994C11.4582 26.5634 11.3195 26.6168 11.2129 26.6594C11.1275 26.7234 11.0315 26.7768 10.9249 26.8194C10.8395 26.8621 10.7435 26.9048 10.6369 26.9474C10.5302 26.9901 10.3915 27.0221 10.2209 27.0434C10.0502 27.1501 9.94355 27.1928 9.90088 27.1714C9.85821 27.1501 9.75155 27.1714 9.58088 27.2354C9.41021 27.2781 9.20755 27.3101 8.97288 27.3314C8.75955 27.3741 8.52488 27.4061 8.26888 27.4274C8.16221 27.2994 8.00221 27.2994 7.78888 27.4274C7.59688 27.5768 7.34088 27.6728 7.02088 27.7154C6.89288 27.4168 6.81821 27.2781 6.79688 27.2994C6.77555 27.3421 6.69021 27.3741 6.54088 27.3954C6.17821 27.3954 5.90088 27.3954 5.70888 27.3954C5.53821 27.4168 5.38888 27.2781 5.26088 26.9794C4.81288 27.0221 4.49288 27.0221 4.30088 26.9794C4.10888 26.9581 3.93821 26.9794 3.78888 27.0434C3.61821 26.9368 3.46888 26.8728 3.34088 26.8514C3.23421 26.8301 3.12755 26.8088 3.02088 26.7874C2.91421 26.7874 2.80755 26.7768 2.70088 26.7554C2.59421 26.7554 2.47688 26.7128 2.34888 26.6274C2.22088 26.4568 2.01821 26.2861 1.74088 26.1154C1.46355 25.9448 1.31421 25.8808 1.29288 25.9234C1.31421 25.6461 1.25021 25.4114 1.10088 25.2194C0.972879 25.0061 0.930212 24.8461 0.972879 24.7394L1.22888 25.0274Z" fill="#111111"/>
</svg>
