<svg width="86" height="32" viewBox="0 0 86 32" fill="none" xmlns="http://www.w3.org/2000/svg">
<path d="M80.441 14.8244L80.781 15.0644L81.081 15.2644L81.061 15.7844L81.081 16.1644L81.261 16.5044L81.601 16.7244V17.1844L81.921 17.3844L82.081 17.7844L82.341 18.0844L82.301 18.5444L82.341 18.9644L82.621 19.4244L82.321 19.6644L82.621 19.9844L82.401 20.4244L82.161 20.8244L82.281 21.2444L82.201 21.6844L81.901 22.0044L81.581 22.3044L81.441 22.7444L81.001 22.7644L80.681 23.0444L80.361 23.4044L79.921 23.0444H79.561L79.201 22.8844L78.861 22.8444L78.441 22.7644L78.161 22.5044L77.961 22.1444L77.521 22.0244L77.321 21.7044L77.101 21.2844L76.661 21.2044L76.381 21.0244L75.961 20.9044L75.601 21.0844L75.341 21.3844L75.261 21.8444L74.881 22.0844L74.561 22.3044L74.241 22.4844L74.041 22.8844L73.721 23.0444L73.261 23.0244L72.981 23.4044L72.621 23.1044L72.201 23.1844L71.961 22.9644L71.581 22.8644L71.241 22.6044L70.841 22.4644L70.681 22.1044V21.6244L70.521 21.2244L70.381 20.8644L70.101 20.4444L70.501 20.0244L70.281 19.6044L70.361 19.3044V18.9044L70.501 18.5644L70.521 18.1844L70.601 17.8644L70.701 17.4444L71.021 17.2244L70.881 16.7044L71.261 16.4844L71.621 16.1444L71.681 15.7644L71.641 15.2244L72.141 15.1044L72.421 14.8044L72.661 14.4844L72.921 14.2044L73.101 13.8044L73.261 13.4244L73.841 13.5044L74.081 13.1244L74.441 13.0044L74.781 12.6844L75.201 12.7444L75.561 12.6044L76.021 12.5844L76.401 12.7044L76.761 12.9244L77.121 12.7244L77.501 12.9444L77.781 13.0244L78.301 12.8244L78.601 13.0444L78.841 13.4044L79.121 13.6644L79.521 13.7844L79.781 14.0844L79.901 14.4044L80.281 14.5044L80.441 14.8244ZM71.581 10.0244L71.601 9.70443L71.561 9.36443L71.781 9.02443L71.761 8.64443L71.941 8.32443L72.021 8.02443L72.361 7.76443L72.661 7.56443L73.081 7.54443L73.421 7.58443L73.761 7.90443L74.081 8.10443L74.381 8.38443L74.521 8.80443L74.661 9.18443L74.781 9.52443V9.84443L74.841 10.2444L74.821 10.5644L74.781 10.9444L74.541 11.1644L74.481 11.5244L74.261 11.7244L74.061 11.9444H73.721L73.361 12.1044L73.041 12.0644L72.781 11.9444L72.521 11.9244L72.141 11.7444L71.941 11.5044L71.761 11.1444L71.681 10.7644L71.661 10.3844L71.581 10.0244ZM77.661 11.7844L77.361 11.6044L77.081 11.2844V10.8644L76.941 10.4644L77.041 10.1044L77.161 9.72443L77.201 9.34443L77.401 8.98443L77.621 8.66443L77.881 8.42443L78.161 8.12443L78.441 7.86443L78.881 7.72443L79.281 7.76443L79.621 8.04443L79.781 8.34443L79.921 8.66443L80.221 8.94443L80.361 9.28443L80.301 9.64443L80.221 10.0244L80.341 10.3644L80.321 10.7644L80.041 11.0044L79.801 11.2844L79.621 11.5444L79.341 11.8044L79.081 11.8844L78.741 11.9044L78.381 12.0244L78.021 11.9244L77.661 11.7844ZM84.301 12.2644L84.401 12.7244L84.281 13.1644L84.141 13.6644L83.941 14.0444L83.641 14.3044L83.341 14.5044L82.981 14.6844L82.601 14.5644L82.221 14.5244L81.921 14.5044L81.561 14.3244L81.321 13.9244L81.261 13.5444L81.241 13.1444L81.201 12.8444L81.261 12.4244L81.441 12.1044L81.681 11.7644L81.941 11.5244L82.201 11.2844L82.541 11.0644L82.921 11.1244L83.341 11.2044L83.701 11.3044L84.041 11.5444L84.261 11.8644L84.301 12.2644ZM70.881 14.5244L70.561 14.6844L70.301 14.9044L69.921 14.9644L69.681 14.8444L69.301 14.8644L68.941 14.7044L68.701 14.4644L68.401 14.2644L68.201 13.9644L68.121 13.7044L68.041 13.4244L68.201 13.0044L68.261 12.5644V12.1044L68.541 11.7644L69.021 11.5644L69.421 11.5244H69.821L70.081 11.8444L70.341 12.2244L70.601 12.5244L70.821 12.8644L71.001 13.1844L71.061 13.6444L71.001 13.9844L71.061 14.4044L70.881 14.5244Z" fill="white"/>
<path d="M58.2047 22.7644C58.218 22.7511 58.2313 22.7244 58.2447 22.6844C58.2713 22.6444 58.2913 22.6044 58.3046 22.5644C58.318 22.5244 58.3313 22.4844 58.3447 22.4444C58.358 22.4178 58.358 22.4111 58.3447 22.4244C58.3713 22.3311 58.378 22.2311 58.3647 22.1244C58.3647 22.0178 58.398 21.8778 58.4646 21.7044C58.5447 21.5578 58.5847 21.4311 58.5847 21.3244C58.5847 21.2178 58.6047 21.0511 58.6446 20.8244C58.6047 20.8244 58.558 20.7978 58.5047 20.7444C58.4647 20.6778 58.438 20.6111 58.4247 20.5444C58.4113 20.4644 58.4113 20.3911 58.4247 20.3244C58.4513 20.2444 58.5047 20.1911 58.5847 20.1644C58.518 20.0978 58.4846 20.0244 58.4846 19.9444C58.4846 19.8644 58.538 19.7444 58.6446 19.5844C58.5113 19.4778 58.438 19.3644 58.4247 19.2444C58.4113 19.1244 58.398 18.9911 58.3847 18.8444C58.4113 18.7378 58.4247 18.6511 58.4247 18.5844C58.4247 18.5178 58.418 18.4578 58.4047 18.4044C58.3913 18.3511 58.3713 18.2978 58.3447 18.2444C58.3313 18.1778 58.318 18.1044 58.3046 18.0244C58.3446 17.9311 58.378 17.8644 58.4047 17.8244C58.4447 17.7711 58.498 17.6911 58.5647 17.5844C58.5647 17.5178 58.5513 17.4578 58.5247 17.4044C58.5113 17.3511 58.4913 17.2978 58.4646 17.2444C58.4513 17.1911 58.4446 17.1311 58.4446 17.0644C58.458 16.9978 58.4913 16.9178 58.5447 16.8244C58.478 16.7978 58.438 16.7578 58.4247 16.7044C58.4247 16.6511 58.4313 16.5911 58.4446 16.5244C58.4713 16.4578 58.4913 16.3911 58.5047 16.3244C58.5313 16.2578 58.5447 16.2044 58.5447 16.1644C58.5447 16.0711 58.518 15.9778 58.4646 15.8844C58.4113 15.7911 58.4113 15.6044 58.4646 15.3244C58.558 15.3111 58.578 15.2578 58.5247 15.1644C58.4713 15.0711 58.438 14.9178 58.4247 14.7044C58.4913 14.6378 58.518 14.5778 58.5047 14.5244C58.5047 14.4711 58.5313 14.3711 58.5847 14.2244C58.4513 14.0378 58.398 13.8978 58.4247 13.8044C58.4647 13.7111 58.478 13.6111 58.4646 13.5044C58.518 13.4111 58.5246 13.3244 58.4846 13.2444C58.4446 13.1511 58.4446 12.9778 58.4846 12.7244C58.418 12.6711 58.4046 12.6044 58.4446 12.5244C58.498 12.4444 58.498 12.3044 58.4446 12.1044C58.4446 12.0244 58.4446 11.9378 58.4446 11.8444C58.458 11.7511 58.3847 11.6444 58.2247 11.5244C58.2647 11.4444 58.2913 11.3844 58.3046 11.3444C58.3313 11.3044 58.3447 11.2644 58.3447 11.2244C58.358 11.1844 58.3647 11.1311 58.3647 11.0644C58.3647 10.9978 58.358 10.8911 58.3447 10.7444C58.2913 10.6378 58.2913 10.5378 58.3447 10.4444C58.398 10.3511 58.458 10.2178 58.5247 10.0444C58.4447 9.9511 58.418 9.8711 58.4446 9.80444C58.4713 9.72444 58.4513 9.65777 58.3847 9.60444C58.3847 9.4711 58.3646 9.3511 58.3246 9.24444C58.298 9.13777 58.2313 9.0111 58.1246 8.86444L58.3046 8.38444C58.158 8.27777 58.118 8.20444 58.1847 8.16444C58.2513 8.1111 58.338 8.02444 58.4446 7.90444C58.5113 7.74444 58.618 7.62444 58.7647 7.54444C58.9113 7.4511 59.0513 7.41777 59.1847 7.44444C59.3447 7.5511 59.478 7.59777 59.5847 7.58444C59.6913 7.5711 59.738 7.61777 59.7247 7.72444C59.778 7.8311 59.8313 7.9111 59.8847 7.96444C59.938 8.01777 59.9847 8.0711 60.0247 8.12444C60.0647 8.17777 60.0913 8.23777 60.1046 8.30444C60.118 8.35777 60.1047 8.44444 60.0647 8.56444C60.1047 8.5511 60.1313 8.57777 60.1446 8.64444C60.1713 8.69777 60.2713 8.83777 60.4446 9.06444C60.378 9.0911 60.3447 9.12444 60.3447 9.16444C60.3447 9.20444 60.3447 9.26444 60.3447 9.34444C60.3447 9.4111 60.338 9.4911 60.3246 9.58444C60.3113 9.66444 60.2647 9.7511 60.1847 9.84444C60.2647 9.9111 60.3113 9.98444 60.3246 10.0644C60.338 10.1444 60.3313 10.2244 60.3046 10.3044C60.2913 10.3844 60.278 10.4578 60.2646 10.5244C60.2513 10.5778 60.258 10.6178 60.2846 10.6444C60.258 10.6711 60.2513 10.7111 60.2646 10.7644C60.2913 10.8178 60.3113 10.8711 60.3246 10.9244C60.338 10.9778 60.338 11.0311 60.3246 11.0844C60.3246 11.1244 60.298 11.1444 60.2447 11.1444C60.3913 11.2911 60.4713 11.4244 60.4846 11.5444C60.498 11.6644 60.4113 11.7844 60.2247 11.9044C60.318 12.0111 60.3647 12.1311 60.3647 12.2644C60.3647 12.3978 60.418 12.5178 60.5247 12.6244C60.458 12.6244 60.4047 12.6511 60.3647 12.7044C60.3247 12.7578 60.3046 12.8244 60.3046 12.9044C60.3046 12.9711 60.318 13.0378 60.3447 13.1044C60.3846 13.1711 60.438 13.2178 60.5047 13.2444C60.4647 13.2844 60.438 13.3378 60.4247 13.4044C60.4247 13.4711 60.418 13.5444 60.4046 13.6244C60.4046 13.7044 60.398 13.7844 60.3847 13.8644C60.3713 13.9311 60.338 13.9844 60.2846 14.0244C60.4046 14.1711 60.4646 14.2778 60.4646 14.3444C60.4646 14.3978 60.518 14.4578 60.6246 14.5244C60.4913 14.6178 60.4247 14.7311 60.4247 14.8644C60.4247 14.9844 60.418 15.1578 60.4046 15.3844C60.378 15.4244 60.3647 15.4911 60.3647 15.5844C60.378 15.6644 60.418 15.8178 60.4846 16.0444C60.458 16.1111 60.4513 16.1911 60.4646 16.2844C60.478 16.3644 60.518 16.4378 60.5846 16.5044C60.5313 16.5311 60.5047 16.5778 60.5047 16.6444C60.5047 16.6978 60.5047 16.7578 60.5047 16.8244C60.518 16.8911 60.5247 16.9578 60.5247 17.0244C60.538 17.0778 60.5246 17.1178 60.4846 17.1444C60.5113 17.2511 60.518 17.3378 60.5047 17.4044C60.5047 17.4578 60.4913 17.5044 60.4646 17.5444C60.4513 17.5844 60.438 17.6178 60.4247 17.6444C60.4247 17.6711 60.438 17.7111 60.4646 17.7644C60.398 17.9244 60.3847 18.0378 60.4247 18.1044C60.478 18.1578 60.4913 18.2511 60.4646 18.3844C60.438 18.5044 60.4113 18.5911 60.3847 18.6444C60.3713 18.6978 60.358 18.7444 60.3447 18.7844C60.3447 18.8244 60.3447 18.8711 60.3447 18.9244C60.3447 18.9644 60.358 19.0311 60.3847 19.1244C60.358 19.2311 60.358 19.3511 60.3847 19.4844C60.4113 19.6178 60.4113 19.7111 60.3847 19.7644C60.358 19.7911 60.3513 19.8644 60.3647 19.9844C60.3913 20.0911 60.4446 20.2778 60.5247 20.5444C60.4446 20.5978 60.3913 20.6711 60.3647 20.7644C60.3513 20.8578 60.338 20.9578 60.3246 21.0644C60.3246 21.1578 60.318 21.2578 60.3046 21.3644C60.2913 21.4711 60.2647 21.5644 60.2247 21.6444C60.1847 21.9378 60.1913 22.1444 60.2447 22.2644C60.3113 22.3844 60.358 22.5311 60.3847 22.7044C60.3313 22.7978 60.2647 22.8978 60.1847 23.0044C60.1047 23.1244 60.0113 23.2311 59.9047 23.3244C59.8113 23.4178 59.7113 23.4844 59.6047 23.5244C59.5113 23.5778 59.418 23.5711 59.3246 23.5044C59.178 23.4644 59.0513 23.4578 58.9446 23.4844C58.838 23.5111 58.7647 23.4911 58.7247 23.4244C58.6847 23.2244 58.6313 23.0644 58.5647 22.9444C58.498 22.8244 58.4313 22.7311 58.3647 22.6644L58.2047 22.7644ZM48.0247 21.5244C48.0247 21.3378 48.058 21.2111 48.1246 21.1444C48.1913 21.0778 48.338 20.9711 48.5647 20.8244C48.618 20.6511 48.6913 20.5511 48.7846 20.5244C48.878 20.4844 48.918 20.4378 48.9046 20.3844C49.038 20.2511 49.138 20.1511 49.2047 20.0844C49.2847 20.0044 49.3447 19.9444 49.3847 19.9044C49.438 19.8511 49.4713 19.8044 49.4846 19.7644C49.498 19.7111 49.5113 19.6511 49.5247 19.5844C49.6313 19.4111 49.738 19.3044 49.8447 19.2644C49.9647 19.2111 50.0446 19.1111 50.0846 18.9644C50.138 18.9244 50.2313 18.8644 50.3647 18.7844C50.498 18.6911 50.538 18.5844 50.4846 18.4644C50.738 18.2644 50.8913 18.1111 50.9446 18.0044C51.0113 17.8844 51.1047 17.8378 51.2247 17.8644C51.2247 17.8511 51.238 17.8244 51.2646 17.7844C51.2913 17.7311 51.318 17.6778 51.3447 17.6244C51.3713 17.5578 51.3847 17.4911 51.3847 17.4244C51.3847 17.3578 51.358 17.2911 51.3046 17.2244C51.3846 17.1578 51.4647 17.0578 51.5447 16.9244C51.638 16.7911 51.6646 16.7111 51.6246 16.6844C51.678 16.6844 51.7113 16.6711 51.7247 16.6444C51.7513 16.6178 51.7646 16.5844 51.7646 16.5444C51.778 16.5044 51.798 16.4644 51.8246 16.4244C51.8513 16.3711 51.898 16.3244 51.9646 16.2844C51.9246 16.2444 51.9047 16.1911 51.9047 16.1244C51.918 16.0578 51.9313 15.9911 51.9446 15.9244C51.9713 15.8578 51.9913 15.8044 52.0047 15.7644C52.0313 15.7244 52.0447 15.7044 52.0447 15.7044C52.0447 15.5711 52.078 15.4178 52.1446 15.2444C52.2113 15.0578 52.298 14.8978 52.4047 14.7644C52.3513 14.7644 52.318 14.7444 52.3046 14.7044C52.3046 14.6644 52.3046 14.6111 52.3046 14.5444C52.3046 14.4644 52.3113 14.3844 52.3246 14.3044C52.338 14.2244 52.338 14.1511 52.3246 14.0844C52.4313 14.0311 52.4646 13.9311 52.4246 13.7844C52.398 13.6378 52.358 13.5378 52.3046 13.4844C52.438 13.3911 52.518 13.2711 52.5447 13.1244C52.5847 12.9644 52.5313 12.8178 52.3847 12.6844C52.4913 12.5244 52.5447 12.4044 52.5447 12.3244C52.5447 12.2444 52.538 12.1911 52.5247 12.1644C52.538 12.0978 52.558 12.0444 52.5846 12.0044C52.6113 11.9644 52.6246 11.9244 52.6246 11.8844C52.6246 11.8444 52.6113 11.7978 52.5846 11.7444C52.558 11.6778 52.498 11.5844 52.4047 11.4644C52.5113 11.3578 52.578 11.2578 52.6046 11.1644C52.6313 11.0711 52.6246 10.9311 52.5846 10.7444C52.4246 10.7044 52.2646 10.6844 52.1046 10.6844C51.9446 10.6711 51.8313 10.6311 51.7646 10.5644C51.5913 10.6978 51.4647 10.7578 51.3847 10.7444C51.3047 10.7311 51.198 10.6711 51.0647 10.5644C50.918 10.6044 50.798 10.6244 50.7047 10.6244C50.6247 10.6244 50.558 10.6244 50.5047 10.6244C50.4647 10.6244 50.4313 10.6311 50.4046 10.6444C50.378 10.6444 50.3513 10.6711 50.3246 10.7244C50.1113 10.6978 49.958 10.6911 49.8647 10.7044C49.7713 10.7044 49.6647 10.7311 49.5447 10.7844L48.7846 10.5444C48.558 10.5978 48.3713 10.6044 48.2247 10.5644C48.078 10.5111 48.0247 10.4044 48.0647 10.2444C48.038 10.1911 48.0046 10.1311 47.9646 10.0644C47.9246 9.98444 47.9046 9.83777 47.9046 9.62444C47.838 9.6111 47.798 9.58444 47.7846 9.54444C47.7846 9.4911 47.7846 9.4311 47.7846 9.36444C47.7846 9.28444 47.7846 9.20444 47.7846 9.12444C47.798 9.04444 47.7913 8.96444 47.7646 8.88444C47.8713 8.89777 47.9446 8.89777 47.9846 8.88444C48.038 8.85777 48.078 8.8311 48.1046 8.80444C48.1313 8.77777 48.158 8.75777 48.1847 8.74444C48.2113 8.7311 48.2647 8.74444 48.3447 8.78444C48.358 8.79777 48.3846 8.79777 48.4246 8.78444C48.4646 8.75777 48.5113 8.7311 48.5647 8.70444C48.618 8.66444 48.6713 8.6311 48.7247 8.60444C48.7913 8.57777 48.8513 8.56444 48.9046 8.56444C49.0113 8.68444 49.1513 8.75777 49.3246 8.78444C49.498 8.79777 49.6446 8.7711 49.7646 8.70444C49.8313 8.62444 50.0113 8.61777 50.3046 8.68444C50.3713 8.65777 50.438 8.6511 50.5047 8.66444C50.5713 8.67777 50.6247 8.69777 50.6646 8.72444C50.718 8.73777 50.7646 8.7511 50.8046 8.76444C50.858 8.77777 50.898 8.7711 50.9246 8.74444C51.058 8.7711 51.1713 8.7511 51.2646 8.68444C51.358 8.61777 51.4447 8.5711 51.5247 8.54444C51.578 8.5311 51.6313 8.5311 51.6847 8.54444C51.738 8.55777 51.8047 8.57777 51.8847 8.60444C51.9647 8.61777 52.058 8.62444 52.1646 8.62444C52.2713 8.62444 52.398 8.5911 52.5447 8.52444C52.518 8.52444 52.5247 8.5311 52.5647 8.54444C52.618 8.54444 52.6713 8.55777 52.7247 8.58444C52.7913 8.59777 52.8513 8.62444 52.9046 8.66444C52.958 8.70444 52.9846 8.76444 52.9846 8.84444C53.2646 8.7111 53.4646 8.68444 53.5846 8.76444C53.7046 8.8311 53.758 8.89777 53.7447 8.96444C53.8247 8.9111 53.878 8.89777 53.9047 8.92444C53.9447 8.93777 53.9646 8.9711 53.9646 9.02444C53.978 9.07777 53.978 9.13777 53.9646 9.20444C53.9646 9.25777 53.978 9.2911 54.0047 9.30444C54.1247 9.38444 54.2113 9.43777 54.2646 9.46444C54.3313 9.4911 54.398 9.5511 54.4646 9.64444C54.438 9.7911 54.4313 9.89777 54.4446 9.96444C54.458 10.0178 54.5047 10.1511 54.5847 10.3644C54.7047 10.4711 54.7646 10.5644 54.7646 10.6444C54.778 10.7111 54.7113 10.8778 54.5647 11.1444C54.6047 11.1044 54.638 11.0911 54.6646 11.1044C54.6913 11.1044 54.7113 11.1178 54.7247 11.1444C54.738 11.1711 54.7513 11.1978 54.7646 11.2244C54.7913 11.2378 54.8247 11.2444 54.8647 11.2444C54.8647 11.3778 54.8446 11.4844 54.8046 11.5644C54.7646 11.6311 54.7247 11.6844 54.6847 11.7244C54.6447 11.7644 54.6113 11.8044 54.5847 11.8444C54.558 11.8844 54.5513 11.9444 54.5647 12.0244C54.5647 12.1178 54.5513 12.2311 54.5247 12.3644C54.5113 12.4978 54.5313 12.5978 54.5847 12.6644C54.5447 12.6911 54.5247 12.7311 54.5247 12.7844C54.538 12.8378 54.558 12.8978 54.5847 12.9644C54.6113 13.0311 54.638 13.0978 54.6646 13.1644C54.6913 13.2178 54.7047 13.2578 54.7047 13.2844C54.678 13.4311 54.6513 13.5978 54.6246 13.7844C54.6113 13.9711 54.598 14.1444 54.5847 14.3044C54.5313 14.2911 54.498 14.3111 54.4846 14.3644C54.4713 14.4044 54.4646 14.4711 54.4646 14.5644C54.4646 14.6444 54.4646 14.7311 54.4646 14.8244C54.478 14.9178 54.4846 15.0044 54.4846 15.0844C54.498 15.1644 54.4713 15.2244 54.4047 15.2644C54.3513 15.3044 54.258 15.4378 54.1246 15.6644C54.2446 15.7311 54.3113 15.8244 54.3246 15.9444C54.3513 16.0644 54.3246 16.1378 54.2446 16.1644C54.138 16.2844 54.0713 16.3844 54.0447 16.4644C54.0313 16.5311 54.0646 16.6778 54.1446 16.9044C54.038 16.9311 53.958 16.9711 53.9047 17.0244C53.8513 17.0644 53.7847 17.1044 53.7047 17.1444C53.7713 17.2244 53.7713 17.3378 53.7047 17.4844C53.638 17.6178 53.5713 17.7378 53.5047 17.8444C53.5447 17.8578 53.5513 17.8911 53.5247 17.9444C53.498 17.9844 53.458 18.0378 53.4047 18.1044C53.3647 18.1578 53.3113 18.2244 53.2447 18.3044C53.1913 18.3711 53.158 18.4444 53.1446 18.5244C53.1713 18.4978 53.178 18.5311 53.1646 18.6244C53.1513 18.7044 53.098 18.7978 53.0047 18.9044C52.978 18.9978 52.938 19.0644 52.8847 19.1044C52.8447 19.1311 52.798 19.1578 52.7447 19.1844C52.7047 19.1978 52.6713 19.2178 52.6446 19.2444C52.618 19.2578 52.618 19.2844 52.6446 19.3244C52.5246 19.4311 52.4046 19.5578 52.2846 19.7044C52.178 19.8378 52.1313 19.9778 52.1446 20.1244C52.118 20.1111 52.0847 20.1244 52.0447 20.1644C52.0047 20.1911 51.9646 20.2311 51.9246 20.2844C51.8846 20.3378 51.838 20.3844 51.7846 20.4244C51.7446 20.4511 51.7046 20.4511 51.6646 20.4244C51.5446 20.5311 51.4513 20.6178 51.3847 20.6844C51.318 20.7378 51.258 20.7978 51.2047 20.8644C51.1647 20.9178 51.1313 20.9844 51.1046 21.0644C51.0913 21.1311 51.078 21.2311 51.0647 21.3644C50.9313 21.3244 50.8113 21.3644 50.7047 21.4844C50.6113 21.5911 50.5313 21.6778 50.4646 21.7444C50.4646 21.8111 50.458 21.8511 50.4446 21.8644C50.4446 21.8778 50.4313 21.8844 50.4046 21.8844C50.3913 21.8978 50.3713 21.9111 50.3447 21.9244C50.3313 21.9378 50.3113 21.9711 50.2846 22.0244C50.1513 21.9978 50.0713 22.0044 50.0447 22.0444C50.0313 22.0844 50.0046 22.0978 49.9646 22.0844C49.858 22.2178 49.758 22.3044 49.6646 22.3444C49.5713 22.3978 49.3846 22.4378 49.1046 22.4644C48.998 22.4511 48.9113 22.3978 48.8447 22.3044C48.7913 22.2111 48.6713 22.1311 48.4846 22.0644C48.4046 22.1044 48.318 22.0644 48.2247 21.9444C48.1313 21.8378 48.0846 21.6911 48.0846 21.5044L48.0247 21.5244Z" fill="white"/>
<path d="M33.6178 9.76442C33.5511 9.77776 33.4845 9.77109 33.4178 9.74442C33.3645 9.70442 33.3045 9.66442 33.2378 9.62442C33.1845 9.57109 33.1311 9.52442 33.0778 9.48442C33.0245 9.43109 32.9645 9.39109 32.8978 9.36442C32.9378 9.35109 32.9445 9.31109 32.9178 9.24442C32.9045 9.17776 32.8845 9.10442 32.8578 9.02442C32.8445 8.94442 32.8378 8.86442 32.8378 8.78442C32.8378 8.70442 32.8711 8.64442 32.9378 8.60442C32.8711 8.51109 32.8445 8.41776 32.8578 8.32442C32.8845 8.21776 32.9178 8.12442 32.9578 8.04442C33.0111 7.96442 33.0711 7.89776 33.1378 7.84442C33.2178 7.79109 33.2911 7.76442 33.3578 7.76442C33.4778 7.79109 33.5645 7.81109 33.6178 7.82442C33.6845 7.83776 33.7311 7.85109 33.7578 7.86442C33.7978 7.86442 33.8311 7.86442 33.8578 7.86442C33.8845 7.86442 33.9245 7.86442 33.9778 7.86442C34.0978 7.73109 34.2445 7.67776 34.4178 7.70442C34.6045 7.73109 34.7711 7.71109 34.9178 7.64442C34.9445 7.63109 34.9978 7.63109 35.0778 7.64442C35.1711 7.65776 35.3511 7.65109 35.6178 7.62442C35.6845 7.62442 35.7511 7.63776 35.8178 7.66442C35.8978 7.67776 36.0311 7.62442 36.2178 7.50442C36.2045 7.53109 36.2178 7.55776 36.2578 7.58442C36.3111 7.59776 36.3645 7.61776 36.4178 7.64442C36.4845 7.65776 36.5445 7.67776 36.5978 7.70442C36.6511 7.71776 36.6778 7.73109 36.6778 7.74442C36.7711 7.67776 36.8911 7.63109 37.0378 7.60442C37.1978 7.56442 37.3911 7.63776 37.6178 7.82442C37.6445 7.79776 37.6911 7.78442 37.7578 7.78442C37.8378 7.77109 37.9111 7.78442 37.9778 7.82442C38.1111 7.85109 38.2711 7.87109 38.4578 7.88442C38.6578 7.88442 38.8311 7.87109 38.9778 7.84442C39.1111 7.79109 39.1845 7.80442 39.1978 7.88442C39.2245 7.95109 39.2978 8.07109 39.4178 8.24442C39.4578 8.40442 39.4845 8.54442 39.4978 8.66442C39.5245 8.77109 39.5578 8.83776 39.5978 8.86442C39.5578 8.91776 39.5178 9.02442 39.4778 9.18442C39.4378 9.33109 39.3845 9.42442 39.3178 9.46442C39.2911 9.50442 39.2578 9.53109 39.2178 9.54442C39.1911 9.54442 39.1445 9.54442 39.0778 9.54442C39.0245 9.53109 38.9511 9.52442 38.8578 9.52442C38.7778 9.51109 38.6711 9.51109 38.5378 9.52442L38.4978 9.64442C38.3245 9.55109 38.1845 9.50442 38.0778 9.50442C37.9711 9.49109 37.8045 9.57109 37.5778 9.74442C37.5778 9.73109 37.5578 9.71109 37.5178 9.68442C37.4778 9.64442 37.4245 9.60442 37.3578 9.56442C37.2911 9.52442 37.2178 9.49776 37.1378 9.48442C37.0578 9.45776 36.9778 9.45109 36.8978 9.46442C36.6711 9.41109 36.5245 9.39109 36.4578 9.40442C36.4045 9.40442 36.3245 9.45109 36.2178 9.54442C36.0978 9.50442 35.9645 9.47776 35.8178 9.46442C35.6845 9.43776 35.5511 9.45776 35.4178 9.52442C35.2711 9.55109 35.1445 9.54442 35.0378 9.50442C34.9445 9.45109 34.8711 9.40442 34.8178 9.36442C34.5778 9.37776 34.4111 9.39109 34.3178 9.40442C34.2245 9.40442 34.0845 9.41109 33.8978 9.42443L33.7378 9.60442L33.6178 9.76442ZM32.2578 12.3044L32.3178 12.3444L32.3778 12.2844L32.3578 12.1644L32.2578 12.0444C32.2578 11.9111 32.2845 11.7978 32.3378 11.7044C32.3911 11.5978 32.4511 11.5044 32.5178 11.4244C32.5978 11.3311 32.6645 11.2511 32.7178 11.1844C32.7845 11.1044 32.8245 11.0311 32.8378 10.9644C33.0378 10.9511 33.1911 10.9578 33.2978 10.9844C33.4178 10.9978 33.5645 10.9644 33.7378 10.8844C33.7778 11.0178 33.8311 11.0911 33.8978 11.1044C33.9778 11.1044 34.0511 11.0778 34.1178 11.0244C34.2511 10.9844 34.3511 10.9578 34.4178 10.9444C34.4845 10.9178 34.5378 10.8978 34.5778 10.8844C34.6311 10.8711 34.6845 10.8644 34.7378 10.8644C34.7911 10.8511 34.8778 10.8378 34.9978 10.8244C35.1711 10.8511 35.3045 10.8911 35.3978 10.9444C35.4911 10.9978 35.6178 10.9911 35.7778 10.9244C35.7911 10.9378 35.8045 10.9378 35.8178 10.9244C35.8445 10.9111 35.8711 10.9044 35.8978 10.9044C35.9245 10.8911 35.9578 10.8978 35.9978 10.9244C36.0511 10.9378 36.1178 10.9844 36.1978 11.0644C36.3445 10.9178 36.4645 10.8444 36.5578 10.8444C36.6511 10.8444 36.7445 10.8311 36.8378 10.8044C37.1045 10.8711 37.2978 10.9044 37.4178 10.9044C37.5511 10.9044 37.6978 10.8711 37.8578 10.8044C37.8978 10.8711 37.9511 10.9178 38.0178 10.9444C38.0845 10.9711 38.1578 10.9911 38.2378 11.0044C38.3178 11.0044 38.3978 11.0111 38.4778 11.0244C38.5578 11.0378 38.6245 11.0578 38.6778 11.0844C38.7445 10.9911 38.8711 10.9644 39.0578 11.0044C39.2445 11.0311 39.4178 11.0378 39.5778 11.0244C39.6045 11.0911 39.6578 11.1844 39.7378 11.3044C39.8311 11.4111 39.8578 11.4711 39.8178 11.4844C39.9511 11.6044 40.0111 11.6911 39.9978 11.7444C39.9978 11.7978 40.0111 11.8378 40.0378 11.8644C40.1178 11.9711 40.1511 12.0644 40.1378 12.1444C40.1378 12.2111 40.1111 12.2711 40.0578 12.3244C40.0178 12.3778 39.9645 12.4244 39.8978 12.4644C39.8445 12.5044 39.7978 12.5444 39.7578 12.5844C39.8111 12.6378 39.8245 12.7044 39.7978 12.7844C39.7711 12.8511 39.7311 12.9111 39.6778 12.9644C39.6245 13.0178 39.5645 13.0578 39.4978 13.0844C39.4445 13.1111 39.3978 13.1044 39.3578 13.0644L39.0978 13.0044C38.9645 12.9378 38.8445 12.9044 38.7378 12.9044C38.6445 12.9044 38.5378 12.9778 38.4178 13.1244C38.2311 12.9778 38.1111 12.8911 38.0578 12.8644C38.0045 12.8244 37.8778 12.8444 37.6778 12.9244C37.5578 12.9511 37.4445 12.9511 37.3378 12.9244C37.2445 12.8844 37.1111 12.8978 36.9378 12.9644C36.8578 13.0044 36.7578 13.0244 36.6378 13.0244C36.5311 13.0111 36.4711 12.9578 36.4578 12.8644C36.3111 12.9178 36.1845 12.9311 36.0778 12.9044C35.9845 12.8644 35.8645 12.8578 35.7178 12.8844C35.6111 12.8844 35.5045 12.9044 35.3978 12.9444C35.3045 12.9844 35.1511 12.9778 34.9378 12.9244C34.8711 12.9644 34.8178 12.9844 34.7778 12.9844C34.7378 12.9711 34.6978 12.9578 34.6578 12.9444C34.6178 12.9178 34.5778 12.8978 34.5378 12.8844C34.4978 12.8711 34.4445 12.8844 34.3778 12.9244C33.9911 13.0311 33.6911 13.0178 33.4778 12.8844L33.3378 12.8244C33.1911 12.9711 33.0245 13.0111 32.8378 12.9444C32.6511 12.8778 32.5111 12.7244 32.4178 12.4844L32.2578 12.3044ZM34.8578 19.7244C34.9645 19.8311 35.0578 19.9511 35.1378 20.0844C35.2311 20.2178 35.2711 20.2578 35.2578 20.2044C35.3778 20.3111 35.4711 20.3844 35.5378 20.4244C35.6178 20.4511 35.6845 20.4711 35.7378 20.4844C35.7911 20.4844 35.8378 20.4911 35.8778 20.5044C35.9311 20.5044 35.9978 20.5311 36.0778 20.5844C36.5045 20.4778 36.7645 20.3778 36.8578 20.2844C36.9645 20.2444 37.0578 20.2244 37.1378 20.2244C37.2311 20.2244 37.3111 20.2178 37.3778 20.2044C37.4445 20.1778 37.4978 20.1444 37.5378 20.1044C37.5911 20.0644 37.6245 19.9844 37.6378 19.8644C37.6245 19.8911 37.6311 19.8444 37.6578 19.7244C37.6845 19.6044 37.6911 19.5378 37.6778 19.5244C37.7845 19.3378 37.8045 19.1978 37.7378 19.1044C37.6711 18.9978 37.6178 18.8778 37.5778 18.7444C37.6711 18.6911 37.7245 18.6311 37.7378 18.5644C37.7511 18.4844 37.7578 18.4044 37.7578 18.3244C37.7578 18.2444 37.7645 18.1578 37.7778 18.0644C37.7911 17.9711 37.8378 17.8778 37.9178 17.7844C37.8511 17.8111 37.8111 17.8044 37.7978 17.7644C37.7978 17.7111 37.7978 17.6578 37.7978 17.6044C37.7978 17.5511 37.7978 17.5044 37.7978 17.4644C37.7978 17.4244 37.7845 17.4178 37.7578 17.4444C37.7178 17.2978 37.6845 17.1644 37.6578 17.0444C37.6445 16.9111 37.6178 16.7311 37.5778 16.5044C37.5778 16.3978 37.5645 16.2711 37.5378 16.1244C37.5245 15.9644 37.4778 15.8578 37.3978 15.8044C37.3578 15.8311 37.3311 15.8378 37.3178 15.8244C37.3045 15.8111 37.2845 15.7911 37.2578 15.7644C37.2445 15.7244 37.2178 15.6978 37.1778 15.6844C37.1511 15.6578 37.1045 15.6444 37.0378 15.6444C36.9845 15.4844 36.8778 15.3911 36.7178 15.3644C36.5578 15.3244 36.3645 15.3244 36.1378 15.3644C35.9511 15.3378 35.8045 15.3644 35.6978 15.4444C35.5911 15.5244 35.5511 15.5444 35.5778 15.5044C35.4311 15.5844 35.3111 15.7044 35.2178 15.8644C35.1378 16.0244 35.1311 16.1911 35.1978 16.3644C35.0645 16.3911 34.9711 16.4978 34.9178 16.6844C34.8778 16.8711 34.9111 17.0378 35.0178 17.1844C35.0178 17.2244 35.0045 17.2844 34.9778 17.3644C34.9645 17.4311 34.9511 17.5044 34.9378 17.5844C34.9245 17.6511 34.9245 17.7111 34.9378 17.7644C34.9511 17.8178 34.9845 17.8511 35.0378 17.8644C35.0111 18.1444 34.9711 18.3578 34.9178 18.5044C34.8778 18.6511 34.8511 18.7978 34.8378 18.9444C34.8645 19.0911 34.8911 19.2311 34.9178 19.3644C34.9445 19.4978 34.9711 19.6244 34.9978 19.7444L34.8578 19.7244ZM33.0178 18.1244C32.8978 18.0178 32.8245 17.8978 32.7978 17.7644C32.7711 17.6311 32.7378 17.5178 32.6978 17.4244C32.7778 17.3711 32.8311 17.3044 32.8578 17.2244C32.8845 17.1444 32.9045 17.0711 32.9178 17.0044C32.9311 16.9244 32.9445 16.8644 32.9578 16.8244C32.9845 16.7844 33.0378 16.7711 33.1178 16.7844C33.0911 16.5311 33.0645 16.3778 33.0378 16.3244C33.0245 16.2578 33.0645 16.2111 33.1578 16.1844C33.1445 15.9711 33.1178 15.8044 33.0778 15.6844C33.0378 15.5644 33.0445 15.5044 33.0978 15.5044C33.2311 15.3978 33.2911 15.3244 33.2778 15.2844C33.2645 15.2444 33.2845 15.1911 33.3378 15.1244C33.4178 14.9911 33.5045 14.8511 33.5978 14.7044C33.7045 14.5578 33.8245 14.5178 33.9578 14.5844C34.0111 14.5311 34.0378 14.4578 34.0378 14.3644C34.0511 14.2711 34.0978 14.2111 34.1778 14.1844C34.2845 13.9978 34.3978 13.8911 34.5178 13.8644C34.6511 13.8378 34.7378 13.8778 34.7778 13.9844C34.8978 13.7844 35.0111 13.6844 35.1178 13.6844C35.2245 13.6844 35.3111 13.6844 35.3778 13.6844C35.4978 13.7111 35.6178 13.6844 35.7378 13.6044C35.8711 13.5111 36.0911 13.4511 36.3978 13.4244C36.4645 13.5311 36.5711 13.6111 36.7178 13.6644C36.8645 13.7178 36.9445 13.7178 36.9578 13.6644C37.2511 13.6911 37.4578 13.7044 37.5778 13.7044C37.6978 13.6911 37.7245 13.7178 37.6578 13.7844C37.7111 13.7578 37.7711 13.7578 37.8378 13.7844C37.9178 13.8111 37.9911 13.8511 38.0578 13.9044C38.1378 13.9444 38.2045 13.9911 38.2578 14.0444C38.3111 14.0978 38.3445 14.1444 38.3578 14.1844C38.5311 14.1578 38.6511 14.1644 38.7178 14.2044C38.7845 14.2444 38.8778 14.2978 38.9978 14.3644C39.0111 14.4578 39.0178 14.5244 39.0178 14.5644C39.0311 14.5911 39.0378 14.6244 39.0378 14.6644C39.0378 14.6911 39.0378 14.7311 39.0378 14.7844C39.0511 14.8244 39.0711 14.9044 39.0978 15.0244C39.2845 15.0378 39.3911 15.1044 39.4178 15.2244C39.4445 15.3444 39.4445 15.4111 39.4178 15.4244C39.4711 15.4378 39.5045 15.4711 39.5178 15.5244C39.5445 15.5778 39.5578 15.6378 39.5578 15.7044C39.5711 15.7711 39.5911 15.8378 39.6178 15.9044C39.6445 15.9711 39.6978 16.0311 39.7778 16.0844C39.7911 16.1378 39.7978 16.2044 39.7978 16.2844C39.8111 16.3511 39.7445 16.4378 39.5978 16.5444C39.5978 16.6244 39.6178 16.6911 39.6578 16.7444C39.6978 16.7844 39.7378 16.8378 39.7778 16.9044C39.8311 16.9578 39.8778 17.0311 39.9178 17.1244C39.9578 17.2044 39.9711 17.3111 39.9578 17.4444C39.9045 17.4711 39.8711 17.5111 39.8578 17.5644C39.8578 17.6044 39.8578 17.6511 39.8578 17.7044C39.8578 17.7444 39.8578 17.7844 39.8578 17.8244C39.8578 17.8511 39.8311 17.8711 39.7778 17.8844C39.8311 17.9911 39.8511 18.1244 39.8378 18.2844C39.8378 18.4311 39.7911 18.5578 39.6978 18.6644C39.7511 18.7311 39.7778 18.8311 39.7778 18.9644C39.7778 19.0844 39.8178 19.2378 39.8978 19.4244C39.8178 19.4511 39.7645 19.4844 39.7378 19.5244C39.7111 19.5511 39.6911 19.5911 39.6778 19.6444C39.6645 19.6844 39.6511 19.7311 39.6378 19.7844C39.6245 19.8378 39.5778 19.8844 39.4978 19.9244C39.4978 19.9511 39.4978 19.9978 39.4978 20.0644C39.4978 20.1311 39.4911 20.1978 39.4778 20.2644C39.4778 20.3311 39.4711 20.3911 39.4578 20.4444C39.4445 20.4978 39.4245 20.5311 39.3978 20.5444C39.3178 20.7444 39.2378 20.9178 39.1578 21.0644C39.0911 21.1978 39.0378 21.3111 38.9978 21.4044C38.8911 21.3778 38.8111 21.4244 38.7578 21.5444C38.7178 21.6511 38.6445 21.7711 38.5378 21.9044C38.4845 21.9044 38.4445 21.9111 38.4178 21.9244C38.3911 21.9511 38.3645 21.9711 38.3378 21.9844C38.3245 22.0111 38.3045 22.0244 38.2778 22.0244C38.2645 22.0378 38.2311 22.0178 38.1778 21.9644C37.9911 21.9911 37.8378 22.0311 37.7178 22.0844C37.5978 22.1378 37.4845 22.1778 37.3778 22.2044C37.3645 22.2711 37.3045 22.2978 37.1978 22.2844C37.0911 22.2711 36.9445 22.2644 36.7578 22.2644C36.6511 22.2644 36.5711 22.2778 36.5178 22.3044C36.4778 22.3444 36.3911 22.3444 36.2578 22.3044C36.1778 22.3711 36.0645 22.4178 35.9178 22.4444C35.7711 22.4711 35.5845 22.4978 35.3578 22.5244C35.3311 22.4711 35.2711 22.4044 35.1778 22.3244C35.0845 22.2444 34.9978 22.2378 34.9178 22.3044C34.7178 22.2778 34.5578 22.2378 34.4378 22.1844C34.3178 22.1444 34.2778 22.0711 34.3178 21.9644C34.2511 21.8178 34.1578 21.7111 34.0378 21.6444C33.9178 21.5778 33.7845 21.5044 33.6378 21.4244C33.5578 21.3578 33.4978 21.2844 33.4578 21.2044C33.4311 21.1244 33.3778 21.0778 33.2978 21.0644C33.3378 20.9178 33.3645 20.7978 33.3778 20.7044C33.4045 20.5978 33.3845 20.5511 33.3178 20.5644C33.2245 20.4844 33.1445 20.4244 33.0778 20.3844C33.0245 20.3311 32.9778 20.2844 32.9378 20.2444C32.9111 20.1911 32.8978 20.1378 32.8978 20.0844C32.8978 20.0178 32.9045 19.9311 32.9178 19.8244C32.8778 19.6911 32.8645 19.5911 32.8778 19.5244C32.9045 19.4578 32.8911 19.3311 32.8378 19.1444C32.8111 19.1178 32.8045 19.0711 32.8178 19.0044C32.8445 18.9244 32.8711 18.8378 32.8978 18.7444C32.8311 18.5978 32.7978 18.4511 32.7978 18.3044C32.7978 18.1444 32.8178 18.0311 32.8578 17.9644L33.0178 18.1244ZM41.8978 22.7244L42.0178 22.6444C41.9511 22.5378 41.9578 22.3911 42.0378 22.2044C42.1178 22.0178 42.1578 21.8311 42.1578 21.6444C42.0245 21.4444 41.9978 21.2044 42.0778 20.9244C42.0511 20.9244 42.0445 20.8644 42.0578 20.7444C42.0845 20.6111 42.0511 20.4844 41.9578 20.3644C42.0245 20.2311 42.0978 20.1111 42.1778 20.0044C42.2578 19.8844 42.2911 19.6978 42.2778 19.4444C42.1978 19.3644 42.1511 19.3044 42.1378 19.2644C42.1378 19.2111 42.1445 19.1644 42.1578 19.1244C42.1845 19.0844 42.2045 19.0444 42.2178 19.0044C42.2311 18.9511 42.2178 18.8844 42.1778 18.8044C42.1378 18.7644 42.1178 18.7178 42.1178 18.6644C42.1311 18.5978 42.1445 18.5311 42.1578 18.4644C42.1711 18.3978 42.1778 18.3378 42.1778 18.2844C42.1911 18.2178 42.1845 18.1711 42.1578 18.1444C42.0911 17.9844 42.0911 17.8378 42.1578 17.7044C42.2245 17.5711 42.2711 17.4178 42.2978 17.2444C42.1911 17.1911 42.1378 17.1111 42.1378 17.0044C42.1378 16.8978 42.1911 16.7778 42.2978 16.6444C42.3245 16.4844 42.3311 16.3578 42.3178 16.2644C42.3178 16.1711 42.3311 16.0644 42.3578 15.9444C42.3178 15.9178 42.2978 15.8444 42.2978 15.7244C42.2978 15.5911 42.2445 15.4644 42.1378 15.3444C42.0845 15.1978 42.0845 15.0844 42.1378 15.0044C42.2045 14.9244 42.2178 14.8844 42.1778 14.8844C42.1511 14.8044 42.1378 14.7311 42.1378 14.6644C42.1511 14.5844 42.1645 14.5111 42.1778 14.4444C42.2045 14.3644 42.2245 14.2844 42.2378 14.2044C42.2511 14.1111 42.2511 14.0111 42.2378 13.9044C42.1578 13.8778 42.1045 13.8178 42.0778 13.7244C42.0645 13.6311 42.0378 13.5978 41.9978 13.6244C42.0645 13.5044 42.1111 13.4111 42.1378 13.3444C42.1778 13.2778 42.2045 13.2178 42.2178 13.1644C42.2445 13.1111 42.2645 13.0578 42.2778 13.0044C42.2911 12.9378 42.3111 12.8511 42.3378 12.7444C42.3111 12.7444 42.2578 12.6911 42.1778 12.5844C42.0978 12.4644 42.0445 12.2844 42.0178 12.0444C42.0045 11.9911 42.0178 11.9378 42.0578 11.8844C42.1111 11.8311 42.1511 11.7178 42.1778 11.5444C42.2178 11.4511 42.2178 11.3511 42.1778 11.2444C42.1378 11.1378 42.0845 11.0178 42.0178 10.8844C41.9645 10.7778 41.9645 10.6911 42.0178 10.6244C42.0711 10.5578 42.1378 10.4044 42.2178 10.1644C42.1911 10.1644 42.1578 10.1444 42.1178 10.1044C42.0911 10.0644 42.0578 10.0244 42.0178 9.98442C41.9911 9.93109 41.9645 9.89109 41.9378 9.86442C41.9245 9.83776 41.9178 9.83109 41.9178 9.84442L42.1178 9.24442C42.1178 9.20442 42.1045 9.17109 42.0778 9.14442C42.0511 9.10442 42.0245 9.06442 41.9978 9.02442C41.9845 8.98442 41.9711 8.93776 41.9578 8.88442C41.9578 8.83109 41.9711 8.76442 41.9978 8.68442L41.7978 8.66442L41.9978 8.54442C42.0111 8.45109 42.0245 8.37776 42.0378 8.32442C42.0511 8.25776 42.0645 8.20442 42.0778 8.16442C42.0911 8.12442 42.1045 8.08442 42.1178 8.04442C42.1311 7.99109 42.1378 7.93109 42.1378 7.86442C42.3378 7.81109 42.4845 7.71776 42.5778 7.58442C42.6845 7.45109 42.7511 7.35109 42.7778 7.28442C42.8711 7.31109 43.0111 7.35109 43.1978 7.40442C43.3978 7.45776 43.5511 7.58442 43.6578 7.78442C43.6045 7.77109 43.6045 7.78442 43.6578 7.82442C43.7245 7.86442 43.8578 7.99776 44.0578 8.22442L43.9778 8.14442L43.8378 8.42442C43.9311 8.61109 43.9511 8.73776 43.8978 8.80442C43.8578 8.85776 43.8511 8.87109 43.8778 8.84442C44.0245 9.08442 44.0911 9.27109 44.0778 9.40442C44.0645 9.53776 44.0178 9.65776 43.9378 9.76442C43.9378 9.83109 43.9578 9.91109 43.9978 10.0044C44.0511 10.0978 44.1045 10.2178 44.1578 10.3644C44.1445 10.4311 44.1111 10.5244 44.0578 10.6444C44.0178 10.7511 44.0378 10.8778 44.1178 11.0244C44.1578 11.1844 44.1778 11.3511 44.1778 11.5244C44.1778 11.6844 44.1911 11.8378 44.2178 11.9844C44.1911 12.0244 44.1645 12.0778 44.1378 12.1444C44.1111 12.2111 44.1711 12.3111 44.3178 12.4444C44.2245 12.6044 44.1645 12.7311 44.1378 12.8244C44.1111 12.9178 44.0645 12.9978 43.9978 13.0644C44.0511 13.2511 44.0845 13.4178 44.0978 13.5644C44.1111 13.6978 44.1778 13.8311 44.2978 13.9644L44.7378 14.0244L45.7978 13.9244C45.9445 13.9911 46.0578 14.0644 46.1378 14.1444C46.2311 14.2111 46.3511 14.3111 46.4978 14.4444C46.5378 14.4444 46.5578 14.4711 46.5578 14.5244C46.5711 14.5778 46.5778 14.6378 46.5778 14.7044C46.5778 14.7711 46.5845 14.8444 46.5978 14.9244C46.6245 15.0044 46.6711 15.0844 46.7378 15.1644C46.7911 15.2311 46.7845 15.3244 46.7178 15.4444C46.6511 15.5511 46.4911 15.6311 46.2378 15.6844C46.1445 15.6711 46.0378 15.6911 45.9178 15.7444C45.8111 15.7978 45.6978 15.8044 45.5778 15.7644L44.8378 15.8844L44.2178 15.7844C44.1645 15.8911 44.1378 15.9778 44.1378 16.0444C44.1378 16.1111 44.1378 16.1711 44.1378 16.2244C44.1511 16.2778 44.1578 16.3311 44.1578 16.3844C44.1711 16.4244 44.1578 16.4778 44.1178 16.5444C44.1445 16.7844 44.1578 16.9844 44.1578 17.1444C44.1578 17.3044 44.0911 17.4111 43.9578 17.4644C44.1045 17.6244 44.1778 17.7511 44.1778 17.8444C44.1778 17.9378 44.1845 18.0378 44.1978 18.1444C44.0778 18.2111 44.0245 18.3178 44.0378 18.4644C44.0511 18.6111 44.1178 18.7378 44.2378 18.8444C44.2111 19.0044 44.2045 19.1511 44.2178 19.2844C44.2311 19.4178 44.2178 19.5111 44.1778 19.5644L43.9578 20.4644L43.9778 21.2244L43.8978 21.7444L43.8778 22.1444C44.0111 22.2911 44.0578 22.4578 44.0178 22.6444C43.9778 22.8311 43.9578 22.9444 43.9578 22.9844C44.0111 23.0911 43.9778 23.1711 43.8578 23.2244C43.7378 23.2911 43.6311 23.3311 43.5378 23.3444C43.4578 23.4244 43.4045 23.4711 43.3778 23.4844C43.3645 23.5111 43.2711 23.5844 43.0978 23.7044C42.8711 23.5844 42.7378 23.5111 42.6978 23.4844C42.6578 23.4578 42.5845 23.4444 42.4778 23.4444C42.3311 23.2444 42.2311 23.0844 42.1778 22.9644C42.1245 22.8578 42.0711 22.7711 42.0178 22.7044L41.8978 22.7244Z" fill="white"/>
<path d="M20.3703 12.1844C20.357 12.1711 20.3703 12.2644 20.4103 12.4644C20.4636 12.6511 20.477 12.8244 20.4503 12.9844C20.517 12.9578 20.5636 12.9711 20.5903 13.0244C20.6303 13.0644 20.6636 13.1178 20.6903 13.1844C20.7036 13.2511 20.7103 13.3311 20.7103 13.4244C20.897 13.5178 21.0036 13.5778 21.0303 13.6044C21.057 13.6311 21.1303 13.6778 21.2503 13.7444C21.397 13.7444 21.5103 13.7778 21.5903 13.8444C21.6703 13.9111 21.7836 13.9578 21.9303 13.9844C21.9703 14.0244 22.017 14.0511 22.0703 14.0644C22.137 14.0778 22.197 14.0911 22.2503 14.1044C22.317 14.1044 22.377 14.1111 22.4303 14.1244C22.497 14.1378 22.5503 14.1711 22.5903 14.2244C22.6436 14.2378 22.7103 14.2378 22.7903 14.2244C22.8703 14.2111 22.9503 14.2044 23.0303 14.2044C23.1103 14.1911 23.197 14.1911 23.2903 14.2044C23.3836 14.2044 23.4836 14.2378 23.5903 14.3044C23.6036 14.1311 23.6636 14.0511 23.7703 14.0644C23.8903 14.0644 24.0636 14.0511 24.2903 14.0244C24.357 13.9844 24.4836 13.9911 24.6703 14.0444C24.857 14.0978 25.0236 14.1444 25.1703 14.1844C25.437 13.9444 25.6436 13.9244 25.7903 14.1244C25.8436 13.9778 25.877 13.8711 25.8903 13.8044C25.917 13.7378 25.9703 13.7511 26.0503 13.8444C26.2236 13.7778 26.3503 13.7111 26.4303 13.6444C26.5103 13.5778 26.5703 13.5044 26.6103 13.4244C26.6636 13.3311 26.7036 13.2178 26.7303 13.0844C26.757 12.9378 26.8103 12.8911 26.8903 12.9444C26.9436 12.8644 26.977 12.7911 26.9903 12.7244C27.0036 12.6444 27.0103 12.5644 27.0103 12.4844C27.0103 12.4044 27.0103 12.3178 27.0103 12.2244C27.0236 12.1311 27.0503 12.0244 27.0903 11.9044C26.9836 11.8111 26.937 11.7378 26.9503 11.6844C26.977 11.6178 26.9636 11.5244 26.9103 11.4044C26.857 11.3644 26.8236 11.3178 26.8103 11.2644C26.797 11.1978 26.7836 11.1444 26.7703 11.1044C26.7703 11.0511 26.757 11.0111 26.7303 10.9844C26.717 10.9444 26.6836 10.9378 26.6303 10.9644C26.6036 10.8178 26.5436 10.6844 26.4503 10.5644C26.357 10.4311 26.2903 10.4111 26.2503 10.5044C26.237 10.4111 26.197 10.3511 26.1303 10.3244C26.077 10.2844 26.0103 10.2644 25.9303 10.2644C25.8503 10.2511 25.7703 10.2511 25.6903 10.2644C25.6236 10.2644 25.5636 10.2511 25.5103 10.2244C25.4836 10.1044 25.437 9.98443 25.3703 9.86443C25.3036 9.74443 25.1636 9.6711 24.9503 9.64443C24.857 9.7111 24.7836 9.74443 24.7303 9.74443C24.677 9.74443 24.6303 9.73777 24.5903 9.72443C24.5503 9.69777 24.5103 9.6711 24.4703 9.64443C24.4303 9.61777 24.3836 9.60443 24.3303 9.60443C24.237 9.64443 24.1436 9.65777 24.0503 9.64443C23.9703 9.6311 23.8903 9.61777 23.8103 9.60443C23.7303 9.5911 23.6503 9.58443 23.5703 9.58443C23.4903 9.5711 23.417 9.58443 23.3503 9.62443C23.3236 9.6111 23.2836 9.6111 23.2303 9.62443C23.1903 9.63777 23.1436 9.6511 23.0903 9.66443C23.037 9.67777 22.9903 9.68443 22.9503 9.68443C22.9236 9.6711 22.9103 9.63777 22.9103 9.58443C22.697 9.7311 22.5303 9.81777 22.4103 9.84443C22.2903 9.8711 22.1436 9.8511 21.9703 9.78443C21.837 9.86443 21.7303 9.90443 21.6503 9.90443C21.5836 9.90443 21.517 9.98443 21.4503 10.1444C21.4636 10.1044 21.457 10.0911 21.4303 10.1044C21.4036 10.1178 21.3636 10.1444 21.3103 10.1844C21.2703 10.2244 21.2236 10.2778 21.1703 10.3444C21.117 10.3978 21.0703 10.4444 21.0303 10.4844C20.9236 10.4711 20.8636 10.4711 20.8503 10.4844C20.8503 10.4978 20.757 10.5378 20.5703 10.6044C20.517 10.6844 20.497 10.7911 20.5103 10.9244C20.537 11.0578 20.6036 11.1378 20.7103 11.1644C20.617 11.4178 20.5303 11.6111 20.4503 11.7444C20.3836 11.8778 20.3836 11.9778 20.4503 12.0444L20.3703 12.1844ZM18.6103 12.1844C18.6103 12.0644 18.597 11.9778 18.5703 11.9244C18.557 11.8578 18.537 11.8044 18.5103 11.7644C18.4836 11.7111 18.457 11.6644 18.4303 11.6244C18.4036 11.5711 18.377 11.5111 18.3503 11.4444C18.3903 11.3378 18.4236 11.2578 18.4503 11.2044C18.477 11.1378 18.5036 11.0778 18.5303 11.0244C18.557 10.9578 18.5836 10.8911 18.6103 10.8244C18.637 10.7444 18.6703 10.6311 18.7103 10.4844C18.6436 10.5111 18.6303 10.4844 18.6703 10.4044C18.7236 10.3244 18.7703 10.2444 18.8103 10.1644C18.7703 10.0311 18.8103 9.90443 18.9303 9.78443C19.0636 9.66443 19.1436 9.55777 19.1703 9.46443C19.1436 9.46443 19.177 9.43777 19.2703 9.38443C19.377 9.3311 19.4236 9.2911 19.4103 9.26443C19.4503 9.02443 19.4903 8.86443 19.5303 8.78443C19.5703 8.70443 19.6636 8.7111 19.8103 8.80443C19.957 8.61777 20.0503 8.5111 20.0903 8.48443C20.1303 8.44443 20.1836 8.3511 20.2503 8.20443C20.3703 8.21777 20.4703 8.2311 20.5503 8.24443C20.6303 8.24443 20.7103 8.21777 20.7903 8.16443C20.8836 8.16443 20.9503 8.1511 20.9903 8.12443C21.0436 8.09777 21.0836 8.0711 21.1103 8.04443C21.1503 8.01777 21.1903 8.00443 21.2303 8.00443C21.2703 7.9911 21.3303 8.0111 21.4103 8.06443C21.6103 7.9311 21.757 7.84443 21.8503 7.80443C21.9436 7.76443 22.0436 7.7111 22.1503 7.64443C22.297 7.61777 22.417 7.61777 22.5103 7.64443C22.617 7.65777 22.7303 7.66443 22.8503 7.66443C23.0103 7.70443 23.137 7.7111 23.2303 7.68443C23.337 7.65777 23.4436 7.6111 23.5503 7.54443C23.657 7.54443 23.777 7.57777 23.9103 7.64443C24.0436 7.69777 24.2036 7.7111 24.3903 7.68443C24.3503 7.7511 24.3836 7.78443 24.4903 7.78443C24.597 7.7711 24.7236 7.80443 24.8703 7.88443C24.937 7.8311 25.0503 7.8111 25.2103 7.82443C25.3836 7.82443 25.4836 7.80443 25.5103 7.76443C25.617 7.96443 25.7236 8.0711 25.8303 8.08443C25.9503 8.09777 26.0436 8.0711 26.1103 8.00443C26.1503 8.05777 26.2103 8.10443 26.2903 8.14443C26.3703 8.18443 26.4436 8.21777 26.5103 8.24443C26.577 8.2711 26.6303 8.2911 26.6703 8.30443C26.7103 8.31777 26.717 8.32443 26.6903 8.32443C26.797 8.32443 26.8836 8.3511 26.9503 8.40443C27.0303 8.44443 27.0903 8.4911 27.1303 8.54443C27.1836 8.58443 27.217 8.61777 27.2303 8.64443C27.257 8.65777 27.2703 8.64443 27.2703 8.60443C27.4436 8.6711 27.537 8.7511 27.5503 8.84443C27.5636 8.93777 27.6036 8.9711 27.6703 8.94443C27.7236 9.06443 27.7836 9.1511 27.8503 9.20443C27.917 9.24443 27.9703 9.3111 28.0103 9.40443C28.0503 9.48443 28.097 9.55777 28.1503 9.62443C28.217 9.67777 28.2703 9.72443 28.3103 9.76443C28.3636 9.80443 28.397 9.84443 28.4103 9.88443C28.4236 9.92443 28.4036 9.9711 28.3503 10.0244C28.577 10.0778 28.697 10.1778 28.7103 10.3244C28.737 10.4711 28.737 10.6378 28.7103 10.8244C28.7903 10.8778 28.8236 10.9244 28.8103 10.9644C28.797 11.0044 28.817 11.1178 28.8703 11.3044C28.9103 11.3311 28.9236 11.3778 28.9103 11.4444C28.9103 11.5111 28.9036 11.5844 28.8903 11.6644C28.877 11.7444 28.8636 11.8244 28.8503 11.9044C28.837 11.9844 28.8436 12.0444 28.8703 12.0844C28.8703 12.1911 28.8703 12.3111 28.8703 12.4444C28.8836 12.5644 28.9436 12.6911 29.0503 12.8244C28.997 12.9044 28.9503 13.0178 28.9103 13.1644C28.8836 13.2978 28.8503 13.4244 28.8103 13.5444C28.8236 13.6644 28.8036 13.7511 28.7503 13.8044C28.7103 13.8444 28.657 13.9378 28.5903 14.0844C28.497 14.0844 28.4303 14.1044 28.3903 14.1444C28.3503 14.1844 28.317 14.2311 28.2903 14.2844C28.2636 14.3378 28.237 14.3978 28.2103 14.4644C28.197 14.5178 28.1703 14.5578 28.1303 14.5844C28.1303 14.6644 28.1236 14.7178 28.1103 14.7444C28.097 14.7711 28.077 14.7978 28.0503 14.8244C28.037 14.8378 28.0103 14.8644 27.9703 14.9044C27.9436 14.9444 27.9036 15.0244 27.8503 15.1444C27.7436 15.1178 27.6436 15.1511 27.5503 15.2444C27.4703 15.3244 27.417 15.3511 27.3903 15.3244C27.3236 15.3911 27.217 15.4511 27.0703 15.5044C26.9236 15.5578 26.797 15.5711 26.6903 15.5444C26.677 15.5311 26.657 15.5378 26.6303 15.5644C26.6036 15.5911 26.5636 15.6244 26.5103 15.6644C26.4703 15.6911 26.4103 15.7111 26.3303 15.7244C26.2636 15.7378 26.1836 15.7178 26.0903 15.6644C26.0636 15.6911 26.0236 15.7178 25.9703 15.7444C25.917 15.7711 25.8703 15.8044 25.8303 15.8444C25.7903 15.8711 25.757 15.9044 25.7303 15.9444C25.717 15.9844 25.7236 16.0244 25.7503 16.0644C25.6703 16.0378 25.5903 16.0111 25.5103 15.9844C25.4303 15.9578 25.357 15.9444 25.2903 15.9444C25.2236 15.9311 25.1703 15.9444 25.1303 15.9844C25.0903 16.0111 25.077 16.0644 25.0903 16.1444C24.9036 16.1844 24.7636 16.1978 24.6703 16.1844C24.577 16.1711 24.457 16.1644 24.3103 16.1644C24.2703 16.0978 24.2103 16.0644 24.1303 16.0644C24.0636 16.0511 23.9836 16.0511 23.8903 16.0644C23.8103 16.0644 23.717 16.0778 23.6103 16.1044C23.517 16.1178 23.4303 16.1178 23.3503 16.1044C23.257 16.1178 23.1703 16.0978 23.0903 16.0444C23.0103 15.9778 22.917 15.9778 22.8103 16.0444C22.6636 15.9778 22.5236 15.9578 22.3903 15.9844C22.257 15.9978 22.177 16.0578 22.1503 16.1644C21.9636 16.0178 21.797 15.9244 21.6503 15.8844C21.517 15.8311 21.417 15.8578 21.3503 15.9644C21.2436 15.8711 21.097 15.8111 20.9103 15.7844C20.737 15.7444 20.6036 15.6844 20.5103 15.6044C20.4436 15.6711 20.3836 15.6711 20.3303 15.6044C20.2903 15.5244 20.257 15.4178 20.2303 15.2844C20.0036 15.3111 19.8503 15.2778 19.7703 15.1844C19.7036 15.0911 19.717 15.0244 19.8103 14.9844C19.7703 15.0244 19.717 15.0444 19.6503 15.0444C19.597 15.0444 19.5436 15.0311 19.4903 15.0044C19.4503 14.9644 19.417 14.9044 19.3903 14.8244C19.377 14.7444 19.3836 14.6444 19.4103 14.5244C19.2236 14.5778 19.117 14.5778 19.0903 14.5244C19.0636 14.4578 18.997 14.3511 18.8903 14.2044C18.8903 14.1244 18.877 14.0644 18.8503 14.0244C18.8236 13.9711 18.7903 13.9311 18.7503 13.9044C18.7236 13.8644 18.7036 13.8244 18.6903 13.7844C18.6903 13.7444 18.717 13.6778 18.7703 13.5844C18.757 13.5578 18.737 13.5111 18.7103 13.4444C18.6836 13.3778 18.6503 13.3111 18.6103 13.2444C18.5836 13.1778 18.5503 13.1244 18.5103 13.0844C18.4703 13.0311 18.4303 13.0044 18.3903 13.0044C18.4303 12.9511 18.4503 12.8911 18.4503 12.8244C18.4503 12.7578 18.4436 12.6844 18.4303 12.6044C18.4303 12.5244 18.4303 12.4378 18.4303 12.3444C18.4303 12.2511 18.4436 12.1511 18.4703 12.0444L18.6103 12.1844ZM20.1103 22.5644L20.1503 21.7444L19.8903 21.1244L19.8503 20.3644L20.1303 19.5444C19.7836 19.5311 19.537 19.5978 19.3903 19.7444C19.2436 19.6644 19.1303 19.6044 19.0503 19.5644C18.9703 19.5111 18.877 19.4978 18.7703 19.5244C18.637 19.4578 18.497 19.4378 18.3503 19.4644C18.2036 19.4778 18.1236 19.5244 18.1103 19.6044C17.9903 19.4978 17.857 19.4178 17.7103 19.3644C17.5636 19.2978 17.397 19.2044 17.2103 19.0844C17.2903 19.0178 17.3036 18.9644 17.2503 18.9244C17.197 18.8844 17.1903 18.8178 17.2303 18.7244C17.1236 18.4578 17.1036 18.2644 17.1703 18.1444C17.237 18.0244 17.257 17.9511 17.2303 17.9244C17.257 17.8978 17.357 17.8711 17.5303 17.8444C17.7036 17.8178 17.8836 17.7711 18.0703 17.7044L18.1903 17.5244C18.2436 17.6444 18.3436 17.7111 18.4903 17.7244C18.6503 17.7244 18.7703 17.6844 18.8503 17.6044C19.077 17.5778 19.2903 17.6044 19.4903 17.6844C19.6903 17.7644 19.8103 17.8444 19.8503 17.9244C19.9303 17.8978 20.0703 17.8578 20.2703 17.8044C20.4836 17.7378 20.6636 17.6844 20.8103 17.6444C20.7836 17.7111 20.857 17.7578 21.0303 17.7844C21.2036 17.8111 21.337 17.8378 21.4303 17.8644H21.9303L22.7103 17.7844L23.1903 17.6644L24.0103 17.8044L24.4903 17.7844L25.3303 17.8644L25.9103 17.9044L26.4903 17.6444C26.677 17.7111 26.8436 17.7711 26.9903 17.8244C27.137 17.8644 27.2503 17.8111 27.3303 17.6644C27.4503 17.6911 27.5503 17.7111 27.6303 17.7244C27.7103 17.7244 27.8036 17.7111 27.9103 17.6844C28.0836 17.6844 28.2236 17.7111 28.3303 17.7644C28.437 17.8044 28.577 17.7844 28.7503 17.7044C28.8303 17.6378 28.9236 17.6378 29.0303 17.7044C29.137 17.7578 29.297 17.7644 29.5103 17.7244C29.657 17.7511 29.777 17.7778 29.8703 17.8044C29.9636 17.8311 30.077 17.8711 30.2103 17.9244C30.1703 17.9644 30.1503 18.0178 30.1503 18.0844C30.1503 18.1511 30.1503 18.2178 30.1503 18.2844C30.1636 18.3378 30.1703 18.3844 30.1703 18.4244C30.1836 18.4644 30.1836 18.4844 30.1703 18.4844C30.2103 18.6978 30.2303 18.8511 30.2303 18.9444C30.2436 19.0244 30.217 19.0978 30.1503 19.1644C30.017 19.4044 29.857 19.5644 29.6703 19.6444C29.4036 19.5911 29.1836 19.5578 29.0103 19.5444C28.837 19.5311 28.577 19.4911 28.2303 19.4244C28.177 19.4511 28.0436 19.4778 27.8303 19.5044C27.6303 19.5311 27.437 19.5578 27.2503 19.5844L27.3903 20.5444L27.1703 21.1044V21.7844L27.2703 22.5844C27.297 22.6911 27.2836 22.8044 27.2303 22.9244C27.177 23.0578 27.1503 23.1578 27.1503 23.2244C27.017 23.3178 26.877 23.3978 26.7303 23.4644C26.5836 23.5444 26.497 23.6244 26.4703 23.7044C26.2036 23.6778 26.0036 23.6044 25.8703 23.4844C25.737 23.3644 25.6436 23.2644 25.5903 23.1844C25.4436 23.2111 25.3436 23.1578 25.2903 23.0244C25.237 22.8911 25.2503 22.7644 25.3303 22.6444L25.2703 21.7244L25.1903 21.2244L25.4703 20.4844L25.3503 19.7044L24.4903 19.6044L23.9503 19.5244L23.4903 19.6044L22.5903 19.7644L22.1303 19.5644L22.2103 20.5444L22.0903 21.3244L21.9903 21.8844V22.7644C22.017 22.8444 22.0303 22.9044 22.0303 22.9444C22.0436 22.9978 22.037 23.0444 22.0103 23.0844C21.997 23.1244 21.9703 23.1711 21.9303 23.2244C21.8903 23.2778 21.837 23.3578 21.7703 23.4644C21.6236 23.3711 21.5103 23.3578 21.4303 23.4244C21.3503 23.5044 21.257 23.5844 21.1503 23.6644C21.0703 23.5978 20.9903 23.5511 20.9103 23.5244C20.8436 23.5111 20.777 23.4911 20.7103 23.4644C20.6436 23.4511 20.577 23.4244 20.5103 23.3844C20.4436 23.3578 20.3703 23.3044 20.2903 23.2244C20.2636 23.2244 20.2303 23.2044 20.1903 23.1644C20.1503 23.1244 20.1103 23.0711 20.0703 23.0044C20.0436 22.9511 20.0236 22.8911 20.0103 22.8244C19.997 22.7578 20.0036 22.6911 20.0303 22.6244L20.1103 22.5644Z" fill="white"/>
<path d="M5.20457 21.9844C5.31124 22.0244 5.39124 22.0711 5.44457 22.1244C5.51124 22.1911 5.58457 22.2644 5.66457 22.3444C5.78457 22.3444 5.88457 22.3311 5.96457 22.3044C6.04457 22.2911 6.11124 22.2711 6.16457 22.2444C6.23124 22.2311 6.28457 22.2244 6.32457 22.2244C6.3779 22.2378 6.4379 22.2778 6.50457 22.3444C6.61124 22.2778 6.6979 22.2244 6.76457 22.1844C6.84457 22.1578 6.91124 22.1311 6.96457 22.1044C7.03124 22.0911 7.0979 22.0844 7.16457 22.0844C7.23124 22.0844 7.3179 22.0778 7.42457 22.0644C7.45124 22.1178 7.50457 22.1578 7.58457 22.1844C7.66457 22.2111 7.7579 22.1911 7.86457 22.1244L8.66457 22.0044L9.34457 22.0844C9.5579 22.0311 9.7379 22.0111 9.88457 22.0244C10.0312 22.0511 10.1246 22.0711 10.1646 22.0844C10.2312 22.1511 10.3512 22.1778 10.5246 22.1644C10.6979 22.1511 10.8112 22.0711 10.8646 21.9244C11.1179 21.9378 11.2712 21.8444 11.3246 21.6444C11.3912 21.4311 11.3912 21.2178 11.3246 21.0044C11.4712 20.8978 11.4779 20.7444 11.3446 20.5444C11.2246 20.3311 10.9779 20.1978 10.6046 20.1444C10.5112 20.1578 10.4379 20.1578 10.3846 20.1444C10.3446 20.1311 10.2579 20.0911 10.1246 20.0244C9.99124 20.0111 9.89124 20.0044 9.82457 20.0044C9.7579 19.9911 9.69124 19.9844 9.62457 19.9844C9.57124 19.9844 9.50457 19.9844 9.42457 19.9844C9.3579 19.9711 9.2579 19.9644 9.12457 19.9644C9.07124 20.0711 8.97124 20.1311 8.82457 20.1444C8.69124 20.1578 8.57124 20.1911 8.46457 20.2444C8.53124 20.2311 8.4979 20.2178 8.36457 20.2044C8.23124 20.1911 8.04457 20.1178 7.80457 19.9844C7.7779 19.9978 7.72457 20.0378 7.64457 20.1044C7.5779 20.1578 7.45124 20.1244 7.26457 20.0044C7.22457 20.0444 7.17124 20.0644 7.10457 20.0644C7.05124 20.0644 6.9979 20.0644 6.94457 20.0644C6.90457 20.0511 6.87124 20.0444 6.84457 20.0444C6.8179 20.0311 6.80457 20.0378 6.80457 20.0644C6.6579 20.1044 6.52457 20.1378 6.40457 20.1644C6.28457 20.1778 6.10457 20.1178 5.86457 19.9844C5.74457 19.9978 5.63124 20.0311 5.52457 20.0844C5.4179 20.1244 5.23124 20.1778 4.96457 20.2444C4.92457 20.2844 4.88457 20.3111 4.84457 20.3244C4.80457 20.3244 4.76457 20.3311 4.72457 20.3444C4.68457 20.3578 4.6379 20.3844 4.58457 20.4244C4.54457 20.4644 4.50457 20.5444 4.46457 20.6644C4.45124 20.6244 4.43124 20.6244 4.40457 20.6644C4.3779 20.7044 4.35124 20.7511 4.32457 20.8044C4.2979 20.8578 4.2779 20.9111 4.26457 20.9644C4.25124 21.0178 4.24457 21.0444 4.24457 21.0444C4.32457 21.3111 4.4379 21.5044 4.58457 21.6244C4.74457 21.7311 4.91124 21.8644 5.08457 22.0244L5.20457 21.9844ZM4.46457 23.6044C4.2379 23.6844 4.0779 23.6911 3.98457 23.6244C3.89124 23.5578 3.76457 23.4311 3.60457 23.2444C3.63124 23.2978 3.58457 23.2844 3.46457 23.2044C3.3579 23.1378 3.22457 23.0911 3.06457 23.0644C3.0779 23.0511 3.06457 23.0311 3.02457 23.0044C2.98457 22.9911 2.94457 22.9644 2.90457 22.9244C2.86457 22.8844 2.83124 22.8311 2.80457 22.7644C2.7779 22.7111 2.78457 22.6311 2.82457 22.5244C2.7179 22.4844 2.64457 22.4311 2.60457 22.3644C2.5779 22.3111 2.5579 22.2511 2.54457 22.1844C2.54457 22.1178 2.53124 22.0444 2.50457 21.9644C2.49124 21.8978 2.4579 21.8311 2.40457 21.7644C2.43124 21.7378 2.43124 21.6644 2.40457 21.5444C2.39124 21.4111 2.3779 21.2911 2.36457 21.1844C2.3379 21.0378 2.3379 20.9178 2.36457 20.8244C2.40457 20.7311 2.4379 20.6711 2.46457 20.6444C2.45124 20.5111 2.43124 20.3844 2.40457 20.2644C2.3779 20.1311 2.4179 20.0311 2.52457 19.9644C2.55124 19.8178 2.6179 19.6844 2.72457 19.5644C2.84457 19.4444 2.91124 19.3311 2.92457 19.2244C2.9379 19.2778 2.97124 19.2711 3.02457 19.2044C3.09124 19.1244 3.22457 19.0778 3.42457 19.0644C3.41124 18.9578 3.58457 18.7778 3.94457 18.5244C4.05124 18.5778 4.13124 18.5978 4.18457 18.5844C4.25124 18.5578 4.33124 18.5778 4.42457 18.6444C4.45124 18.5644 4.50457 18.5111 4.58457 18.4844C4.66457 18.4444 4.74457 18.4178 4.82457 18.4044C4.90457 18.3778 4.98457 18.3511 5.06457 18.3244C5.14457 18.2978 5.1979 18.2511 5.22457 18.1844C5.2379 18.2244 5.2779 18.2578 5.34457 18.2844C5.41124 18.2978 5.48457 18.3111 5.56457 18.3244C5.6579 18.3244 5.7379 18.3178 5.80457 18.3044C5.88457 18.2911 5.94457 18.2711 5.98457 18.2444C6.01124 18.2444 6.08457 18.2578 6.20457 18.2844C6.3379 18.3111 6.44457 18.3111 6.52457 18.2844C6.64457 18.2578 6.7379 18.2444 6.80457 18.2444C6.87124 18.2311 6.9379 18.2311 7.00457 18.2444C7.07124 18.2444 7.14457 18.2511 7.22457 18.2644C7.30457 18.2778 7.40457 18.2844 7.52457 18.2844C7.5779 18.2444 7.62457 18.2311 7.66457 18.2444C7.70457 18.2444 7.7379 18.2578 7.76457 18.2844C7.80457 18.2978 7.84457 18.3178 7.88457 18.3444C7.9379 18.3711 8.01124 18.3844 8.10457 18.3844C8.1579 18.2511 8.2379 18.1911 8.34457 18.2044C8.45124 18.2178 8.53124 18.2578 8.58457 18.3244C8.77124 18.2178 8.91124 18.1778 9.00457 18.2044C9.0979 18.2311 9.19124 18.2844 9.28457 18.3644C9.2979 18.2844 9.33124 18.2311 9.38457 18.2044C9.45124 18.1644 9.51124 18.1511 9.56457 18.1644C9.6179 18.1644 9.6579 18.1844 9.68457 18.2244C9.72457 18.2511 9.73124 18.2978 9.70457 18.3644C9.81124 18.3111 9.95124 18.3044 10.1246 18.3444C10.3112 18.3711 10.4046 18.4244 10.4046 18.5044C10.5512 18.5578 10.6846 18.5644 10.8046 18.5244C10.9246 18.4711 11.0912 18.4311 11.3046 18.4044C11.4112 18.4578 11.5112 18.4978 11.6046 18.5244C11.7112 18.5378 11.8379 18.5578 11.9846 18.5844C12.0112 18.6778 12.0446 18.7644 12.0846 18.8444C12.1246 18.9244 12.2646 19.0178 12.5046 19.1244C12.5712 19.1511 12.6246 19.1778 12.6646 19.2044C12.7179 19.2311 12.7779 19.3378 12.8446 19.5244C12.8312 19.4844 12.8446 19.4778 12.8846 19.5044C12.9246 19.5311 12.9712 19.5711 13.0246 19.6244C13.0912 19.6644 13.1512 19.7111 13.2046 19.7644C13.2579 19.8044 13.2912 19.8244 13.3046 19.8244C13.3712 19.9711 13.3979 20.0711 13.3846 20.1244C13.3846 20.1778 13.3312 20.2644 13.2246 20.3844C13.3712 20.4378 13.4712 20.5578 13.5246 20.7444C13.5779 20.9178 13.6312 21.0978 13.6846 21.2844C13.4979 21.3511 13.3979 21.4644 13.3846 21.6244C13.3712 21.7844 13.4179 21.9378 13.5246 22.0844C13.4179 22.1111 13.3446 22.1511 13.3046 22.2044C13.2646 22.2578 13.2312 22.3178 13.2046 22.3844C13.1779 22.5711 13.1179 22.7044 13.0246 22.7844C12.9312 22.8778 12.8179 22.9378 12.6846 22.9644C12.5646 22.9911 12.4579 23.0378 12.3646 23.1044C12.2846 23.1844 12.2246 23.2578 12.1846 23.3244C11.9846 23.4311 11.8246 23.5111 11.7046 23.5644C11.5846 23.6178 11.4712 23.6178 11.3646 23.5644C11.2179 23.6311 11.0646 23.6578 10.9046 23.6444C10.7446 23.6311 10.5579 23.6844 10.3446 23.8044C10.2379 23.8444 10.1112 23.8378 9.96457 23.7844C9.83124 23.7444 9.65124 23.7311 9.42457 23.7444C9.4379 23.8244 9.4179 23.8778 9.36457 23.9044C9.32457 23.9311 9.2579 23.9444 9.16457 23.9444C9.08457 23.9578 8.98457 23.9644 8.86457 23.9644C8.7579 23.9778 8.65124 23.9911 8.54457 24.0044C8.54457 23.9778 8.46457 23.9778 8.30457 24.0044C8.14457 24.0311 7.95124 23.9978 7.72457 23.9044C7.7379 23.8644 7.7179 23.8444 7.66457 23.8444C7.62457 23.8444 7.56457 23.8444 7.48457 23.8444C7.4179 23.8578 7.3379 23.8578 7.24457 23.8444C7.16457 23.8444 7.08457 23.8111 7.00457 23.7444C6.96457 23.7578 6.90457 23.7644 6.82457 23.7644C6.74457 23.7778 6.66457 23.7844 6.58457 23.7844C6.5179 23.7978 6.4579 23.8178 6.40457 23.8444C6.35124 23.8711 6.33124 23.9044 6.34457 23.9444C6.2379 23.9711 6.14457 23.9711 6.06457 23.9444C5.98457 23.9311 5.8979 23.9111 5.80457 23.8844C5.72457 23.8711 5.63124 23.8578 5.52457 23.8444C5.4179 23.8311 5.28457 23.8444 5.12457 23.8844C5.07124 23.8311 5.02457 23.7911 4.98457 23.7644C4.94457 23.7511 4.8979 23.7378 4.84457 23.7244C4.80457 23.7244 4.74457 23.7178 4.66457 23.7044C4.5979 23.7044 4.50457 23.6911 4.38457 23.6644L4.46457 23.6044ZM3.42457 9.78443C3.2779 9.74443 3.1579 9.7111 3.06457 9.68443C2.98457 9.64443 2.91124 9.60443 2.84457 9.56443C2.79124 9.5111 2.7379 9.4511 2.68457 9.38443C2.63124 9.31776 2.56457 9.23776 2.48457 9.14443C2.43124 9.15776 2.37124 9.13776 2.30457 9.08443C2.25124 9.0311 2.20457 8.9711 2.16457 8.90443C2.1379 8.82443 2.12457 8.74443 2.12457 8.66443C2.1379 8.58443 2.19124 8.5311 2.28457 8.50443C2.2979 8.42443 2.30457 8.3311 2.30457 8.22443C2.30457 8.10443 2.32457 7.99776 2.36457 7.90443C2.40457 7.79776 2.4779 7.7111 2.58457 7.64443C2.69124 7.57776 2.84457 7.53776 3.04457 7.52443C3.0579 7.5911 3.08457 7.63776 3.12457 7.66443C3.1779 7.67776 3.23124 7.6911 3.28457 7.70443C3.3379 7.71776 3.38457 7.7311 3.42457 7.74443C3.46457 7.74443 3.4779 7.76443 3.46457 7.80443C3.53124 7.76443 3.59124 7.74443 3.64457 7.74443C3.71124 7.74443 3.77124 7.74443 3.82457 7.74443C3.8779 7.74443 3.93124 7.74443 3.98457 7.74443C4.0379 7.7311 4.0979 7.69776 4.16457 7.64443C4.2579 7.60443 4.3379 7.5911 4.40457 7.60443C4.47124 7.60443 4.53124 7.61776 4.58457 7.64443C4.65124 7.65776 4.7179 7.67776 4.78457 7.70443C4.86457 7.71776 4.9579 7.72443 5.06457 7.72443C5.09124 7.6711 5.1379 7.6511 5.20457 7.66443C5.27124 7.66443 5.39124 7.67776 5.56457 7.70443C5.7779 7.7311 5.9579 7.74443 6.10457 7.74443C6.25124 7.7311 6.37124 7.6511 6.46457 7.50443C6.46457 7.5711 6.4779 7.60443 6.50457 7.60443C6.54457 7.60443 6.58457 7.59776 6.62457 7.58443C6.66457 7.55776 6.71124 7.5311 6.76457 7.50443C6.8179 7.47776 6.8779 7.46443 6.94457 7.46443C7.01124 7.4911 7.07124 7.51776 7.12457 7.54443C7.1779 7.5711 7.2379 7.5911 7.30457 7.60443C7.37124 7.61776 7.44457 7.61776 7.52457 7.60443C7.6179 7.57776 7.73124 7.52443 7.86457 7.44443C7.9579 7.53776 8.0379 7.55776 8.10457 7.50443C8.18457 7.4511 8.29124 7.4311 8.42457 7.44443C8.4379 7.44443 8.47124 7.4511 8.52457 7.46443C8.5779 7.47776 8.63124 7.49776 8.68457 7.52443C8.7379 7.53776 8.78457 7.55776 8.82457 7.58443C8.8779 7.59776 8.91124 7.6111 8.92457 7.62443C9.19124 7.51776 9.38457 7.48443 9.50457 7.52443C9.62457 7.56443 9.72457 7.61776 9.80457 7.68443C9.91124 7.5911 10.0512 7.53776 10.2246 7.52443C10.4112 7.5111 10.5179 7.5511 10.5446 7.64443C10.7046 7.56443 10.8512 7.5111 10.9846 7.48443C11.1179 7.45776 11.2246 7.49776 11.3046 7.60443C11.4379 7.53776 11.5446 7.50443 11.6246 7.50443C11.7179 7.50443 11.7979 7.51776 11.8646 7.54443C11.9446 7.5711 12.0312 7.60443 12.1246 7.64443C12.2179 7.6711 12.3379 7.68443 12.4846 7.68443C12.5112 7.5511 12.5846 7.5311 12.7046 7.62443C12.8246 7.70443 12.9712 7.80443 13.1446 7.92443C13.1979 7.9911 13.2646 8.07776 13.3446 8.18443C13.4246 8.27776 13.4912 8.48443 13.5446 8.80443C13.5846 8.7911 13.6046 8.85776 13.6046 9.00443C13.6046 9.13776 13.5712 9.29776 13.5046 9.48443C13.5312 9.5111 13.5179 9.57776 13.4646 9.68443C13.4246 9.77776 13.4046 9.94443 13.4046 10.1844C13.4179 10.2111 13.4446 10.2844 13.4846 10.4044C13.5379 10.5111 13.5779 10.5778 13.6046 10.6044C13.5246 10.7244 13.4446 10.8511 13.3646 10.9844C13.2846 11.1178 13.2512 11.1978 13.2646 11.2244C13.2646 11.3444 13.2712 11.4378 13.2846 11.5044C13.3112 11.5711 13.3246 11.6244 13.3246 11.6644C13.3379 11.7044 13.3379 11.7444 13.3246 11.7844C13.3112 11.8244 13.2779 11.8844 13.2246 11.9644C13.2646 11.9778 13.2846 12.0111 13.2846 12.0644C13.2846 12.1178 13.2779 12.1778 13.2646 12.2444C13.2512 12.2978 13.2446 12.3578 13.2446 12.4244C13.2446 12.4778 13.2646 12.5244 13.3046 12.5644C13.3179 12.6044 13.3112 12.6511 13.2846 12.7044C13.2579 12.7578 13.2246 12.8111 13.1846 12.8644C13.1579 12.9178 13.1312 12.9778 13.1046 13.0444C13.0912 13.0978 13.0979 13.1511 13.1246 13.2044C13.1912 13.3911 13.1979 13.5378 13.1446 13.6444C13.1046 13.7511 13.0712 13.8578 13.0446 13.9644C12.7912 14.0044 12.6179 14.0178 12.5246 14.0044C12.4446 13.9911 12.3579 13.9978 12.2646 14.0244C12.0646 14.0244 11.9179 14.0244 11.8246 14.0244C11.7312 14.0111 11.6046 13.9111 11.4446 13.7244C11.4446 13.7378 11.4246 13.7444 11.3846 13.7444C11.3579 13.7444 11.3312 13.7311 11.3046 13.7044C11.2779 13.6644 11.2646 13.6178 11.2646 13.5644C11.2779 13.5111 11.3179 13.4378 11.3846 13.3444L11.3646 13.1244C11.2846 12.9911 11.2512 12.9044 11.2646 12.8644C11.2912 12.8244 11.2779 12.7378 11.2246 12.6044C11.1846 12.4444 11.1846 12.3178 11.2246 12.2244C11.2779 12.1178 11.2712 11.9778 11.2046 11.8044C11.3112 11.6711 11.3846 11.5578 11.4246 11.4644C11.4646 11.3578 11.4179 11.2844 11.2846 11.2444C11.3246 11.0711 11.3646 10.9178 11.4046 10.7844C11.4579 10.6511 11.4646 10.5378 11.4246 10.4444L11.6646 10.2244C11.6646 9.90443 11.6046 9.69776 11.4846 9.60443C11.3779 9.5111 11.1312 9.47776 10.7446 9.50443C10.6912 9.43776 10.6112 9.43776 10.5046 9.50443C10.4112 9.55776 10.3646 9.5911 10.3646 9.60443C10.1379 9.6311 9.98457 9.6511 9.90457 9.66443C9.82457 9.67776 9.74457 9.62443 9.66457 9.50443C9.3979 9.4511 9.20457 9.4511 9.08457 9.50443C8.9779 9.55776 8.83124 9.59776 8.64457 9.62443C8.56457 9.55776 8.46457 9.53776 8.34457 9.56443C8.2379 9.5911 8.1379 9.59776 8.04457 9.58443C7.9779 9.62443 7.89124 9.61776 7.78457 9.56443C7.6779 9.49776 7.5779 9.4711 7.48457 9.48443C7.40457 9.4711 7.2979 9.4711 7.16457 9.48443C7.04457 9.49776 6.9579 9.55776 6.90457 9.66443C6.66457 9.66443 6.47124 9.64443 6.32457 9.60443C6.19124 9.56443 6.15124 9.5311 6.20457 9.50443C6.04457 9.6511 5.86457 9.74443 5.66457 9.78443C5.4779 9.82443 5.31124 9.84443 5.16457 9.84443C5.19124 9.8311 5.14457 9.78443 5.02457 9.70443C4.90457 9.6111 4.7979 9.5511 4.70457 9.52443C4.62457 9.52443 4.5579 9.54443 4.50457 9.58443C4.45124 9.6111 4.3979 9.64443 4.34457 9.68443C4.30457 9.72443 4.2579 9.75776 4.20457 9.78443C4.15124 9.8111 4.0979 9.81776 4.04457 9.80443C3.91124 9.80443 3.80457 9.77776 3.72457 9.72443C3.64457 9.6711 3.4979 9.65776 3.28457 9.68443L3.42457 9.78443ZM1.64457 16.9644C1.4979 16.7511 1.3579 16.5778 1.22457 16.4444C1.09124 16.2978 0.997904 16.1711 0.94457 16.0644C0.931237 15.8911 0.931237 15.7511 0.94457 15.6444C0.971237 15.5378 1.0579 15.4444 1.20457 15.3644C1.2579 15.2711 1.2979 15.1978 1.32457 15.1444C1.36457 15.0778 1.41124 15.0311 1.46457 15.0044C1.5179 14.9778 1.58457 14.9711 1.66457 14.9844C1.7579 14.9844 1.8779 14.9911 2.02457 15.0044L1.92457 15.0244C2.1379 14.9978 2.2779 14.9778 2.34457 14.9644C2.41124 14.9378 2.4979 14.9378 2.60457 14.9644C2.76457 14.9511 2.8779 14.9711 2.94457 15.0244C3.02457 15.0644 3.0979 15.0911 3.16457 15.1044C3.4179 15.0778 3.58457 15.0711 3.66457 15.0844C3.7579 15.0978 3.81124 15.0311 3.82457 14.8844C4.01124 14.9778 4.17124 15.0044 4.30457 14.9644C4.45124 14.9244 4.6379 14.8911 4.86457 14.8644C4.89124 14.9444 4.94457 15.0044 5.02457 15.0444C5.10457 15.0844 5.19124 15.1111 5.28457 15.1244C5.39124 15.1378 5.49124 15.1378 5.58457 15.1244C5.6779 15.1111 5.75124 15.0911 5.80457 15.0644C5.72457 14.9578 5.68457 14.8511 5.68457 14.7444C5.6979 14.6244 5.6779 14.4511 5.62457 14.2244C5.65124 14.0778 5.69124 13.9578 5.74457 13.8644C5.81124 13.7578 5.84457 13.6311 5.84457 13.4844C5.8579 13.4311 5.85124 13.3844 5.82457 13.3444C5.7979 13.3044 5.76457 13.2644 5.72457 13.2244C5.6979 13.1711 5.6779 13.1178 5.66457 13.0644C5.65124 13.0111 5.6579 12.9444 5.68457 12.8644C5.79124 12.8244 5.80457 12.7711 5.72457 12.7044C5.64457 12.6378 5.5979 12.5511 5.58457 12.4444C5.6779 12.3644 5.7379 12.2911 5.76457 12.2244C5.80457 12.1444 5.83124 12.0778 5.84457 12.0244C5.8579 11.9578 5.87124 11.9044 5.88457 11.8644C5.91124 11.8111 5.9579 11.7711 6.02457 11.7444C6.0779 11.5578 6.1779 11.4578 6.32457 11.4444C6.47124 11.4178 6.62457 11.4111 6.78457 11.4244C6.89124 11.3178 7.0179 11.3044 7.16457 11.3844C7.32457 11.4644 7.47124 11.5444 7.60457 11.6244C7.6979 11.7844 7.72457 11.9178 7.68457 12.0244C7.64457 12.1311 7.67124 12.2178 7.76457 12.2844C7.7379 12.4844 7.7379 12.6111 7.76457 12.6644C7.80457 12.7178 7.78457 12.7711 7.70457 12.8244C7.7579 12.9311 7.7979 13.0244 7.82457 13.1044C7.85124 13.1711 7.86457 13.2378 7.86457 13.3044C7.86457 13.3578 7.8579 13.4178 7.84457 13.4844C7.83124 13.5511 7.82457 13.6444 7.82457 13.7644C7.7979 13.7644 7.78457 13.7911 7.78457 13.8444C7.7979 13.8978 7.80457 13.9578 7.80457 14.0244C7.80457 14.0911 7.79124 14.1644 7.76457 14.2444C7.75124 14.3111 7.70457 14.3578 7.62457 14.3844C7.65124 14.5044 7.68457 14.6178 7.72457 14.7244C7.7779 14.8311 7.86457 14.9178 7.98457 14.9844C8.01124 15.1044 8.05124 15.1444 8.10457 15.1044C8.17124 15.0644 8.2579 15.0111 8.36457 14.9444C8.47124 15.0511 8.58457 15.0911 8.70457 15.0644C8.82457 15.0244 8.9379 15.0311 9.04457 15.0844C9.31124 14.9911 9.5179 14.9711 9.66457 15.0244C9.81124 15.0778 9.93124 15.1044 10.0246 15.1044C10.1046 15.0378 10.1646 14.9911 10.2046 14.9644C10.2446 14.9378 10.2846 14.9244 10.3246 14.9244C10.3646 14.9244 10.4179 14.9311 10.4846 14.9444C10.5512 14.9578 10.6512 14.9778 10.7846 15.0044C10.7579 14.9378 10.8112 14.8911 10.9446 14.8644C11.0912 14.8378 11.2312 14.8778 11.3646 14.9844C11.4446 14.9444 11.4979 14.9244 11.5246 14.9244C11.5646 14.9244 11.5979 14.9378 11.6246 14.9644C11.6512 14.9778 11.6779 14.9911 11.7046 15.0044C11.7312 15.0044 11.7712 14.9844 11.8246 14.9444C11.9046 14.9844 11.9712 15.0111 12.0246 15.0244C12.0912 15.0244 12.1512 15.0178 12.2046 15.0044C12.2712 14.9778 12.3446 14.9444 12.4246 14.9044C12.5046 14.8511 12.6112 14.7911 12.7446 14.7244C12.8379 14.7511 12.9246 14.7644 13.0046 14.7644C13.0979 14.7644 13.1912 14.7644 13.2846 14.7644C13.3779 14.7644 13.4779 14.7711 13.5846 14.7844C13.6912 14.7978 13.8112 14.8378 13.9446 14.9044C14.1979 14.6911 14.3779 14.7578 14.4846 15.1044C14.5246 15.2244 14.5579 15.3644 14.5846 15.5244C14.6112 15.6711 14.6646 15.8111 14.7446 15.9444C14.6646 16.0111 14.6046 16.0578 14.5646 16.0844C14.5246 16.1111 14.4512 16.1778 14.3446 16.2844C14.3846 16.4444 14.3646 16.5378 14.2846 16.5644C14.2179 16.5911 14.0512 16.5711 13.7846 16.5044C13.7179 16.5711 13.6579 16.6111 13.6046 16.6244C13.5512 16.6244 13.4979 16.6311 13.4446 16.6444C13.4046 16.6444 13.3646 16.6578 13.3246 16.6844C13.2846 16.6978 13.2579 16.7378 13.2446 16.8044C13.1112 16.8044 13.0046 16.8111 12.9246 16.8244C12.8579 16.8378 12.7979 16.8511 12.7446 16.8644C12.6912 16.8778 12.6379 16.8911 12.5846 16.9044C12.5312 16.9044 12.4512 16.8911 12.3446 16.8644C12.2512 16.8911 12.1446 16.8911 12.0246 16.8644C11.9179 16.8244 11.7512 16.8778 11.5246 17.0244C11.3512 17.0378 11.2179 17.0111 11.1246 16.9444C11.0446 16.8778 10.9379 16.8444 10.8046 16.8444C10.7646 16.8444 10.7312 16.8511 10.7046 16.8644C10.6779 16.8778 10.6379 16.8911 10.5846 16.9044C10.5446 16.9178 10.4846 16.9244 10.4046 16.9244C10.3379 16.9244 10.2379 16.8978 10.1046 16.8444C10.1179 16.8578 10.1046 16.8711 10.0646 16.8844C10.0246 16.8844 9.9779 16.8911 9.92457 16.9044C9.88457 16.9044 9.8379 16.9111 9.78457 16.9244C9.74457 16.9378 9.73124 16.9511 9.74457 16.9644C9.50457 16.8978 9.33124 16.8978 9.22457 16.9644C9.13124 17.0178 9.03124 17.0778 8.92457 17.1444C8.8979 17.0644 8.85124 17.0111 8.78457 16.9844C8.73124 16.9578 8.66457 16.9511 8.58457 16.9644C8.50457 16.9644 8.43124 16.9711 8.36457 16.9844C8.2979 16.9978 8.2579 17.0044 8.24457 17.0044C8.08457 16.9111 7.96457 16.8711 7.88457 16.8844C7.8179 16.8844 7.6979 16.8644 7.52457 16.8244C7.4579 16.8911 7.40457 16.9311 7.36457 16.9444C7.32457 16.9578 7.27124 16.9644 7.20457 16.9644C7.15124 16.9644 7.08457 16.9711 7.00457 16.9844C6.92457 16.9978 6.82457 17.0444 6.70457 17.1244C6.5979 16.9911 6.4979 16.9311 6.40457 16.9444C6.31124 16.9444 6.23124 16.9111 6.16457 16.8444L5.50457 16.7844L4.58457 17.0444C4.42457 16.9911 4.30457 16.9644 4.22457 16.9644C4.14457 16.9644 4.07124 16.9044 4.00457 16.7844C3.91124 16.8378 3.8179 16.8778 3.72457 16.9044C3.63124 16.9311 3.55124 16.9444 3.48457 16.9444C3.4179 16.9444 3.3579 16.9378 3.30457 16.9244C3.26457 16.8978 3.25124 16.8578 3.26457 16.8044C3.0379 16.8311 2.86457 16.8511 2.74457 16.8644C2.6379 16.8778 2.56457 16.8578 2.52457 16.8044C2.4179 16.7778 2.28457 16.7644 2.12457 16.7644C1.96457 16.7644 1.83124 16.7778 1.72457 16.8044L1.64457 16.9644Z" fill="white"/>
</svg>
