<svg width="63" height="40" viewBox="0 0 63 40" fill="none" xmlns="http://www.w3.org/2000/svg">
<path d="M54.5676 33.32L54.0876 32.92C54.1409 32.7867 54.2209 32.6267 54.3276 32.44C54.4609 32.2267 54.5009 31.9733 54.4476 31.68C54.4476 31.44 54.4742 31.2 54.5276 30.96C54.6076 30.6933 54.6476 30.5067 54.6476 30.4C54.7009 30 54.7142 29.68 54.6876 29.44C54.6609 29.2 54.5409 29.0667 54.3276 29.04C54.4609 28.96 54.5676 28.84 54.6476 28.68C54.7276 28.4933 54.7676 28.32 54.7676 28.16C54.7942 27.9733 54.7942 27.8133 54.7676 27.68C54.7409 27.5467 54.6876 27.4667 54.6076 27.44C54.5009 27.3333 54.4476 27.2133 54.4476 27.08C54.4476 26.9467 54.4609 26.8133 54.4876 26.68C54.5409 26.5467 54.5809 26.4267 54.6076 26.32C54.6609 26.1867 54.6876 26.0533 54.6876 25.92C54.5809 25.7867 54.5409 25.6133 54.5676 25.4C54.5942 25.16 54.5276 24.8933 54.3676 24.6C54.6342 24.5467 54.7676 24.4267 54.7676 24.24C54.7676 24.0267 54.6342 23.6667 54.3676 23.16C54.4742 23.1867 54.5542 23.16 54.6076 23.08C54.6609 22.9733 54.6876 22.8533 54.6876 22.72C54.7142 22.5867 54.7276 22.44 54.7276 22.28C54.7276 22.12 54.7409 22 54.7676 21.92C54.6076 21.68 54.5409 21.4933 54.5676 21.36C54.5942 21.2 54.5142 20.92 54.3276 20.52C54.5942 20.5733 54.7276 20.44 54.7276 20.12C54.7276 19.7733 54.6342 19.4133 54.4476 19.04C54.4742 18.9867 54.5142 18.8533 54.5676 18.64C54.6476 18.4 54.6876 18.2133 54.6876 18.08C54.7409 17.9733 54.7142 17.7733 54.6076 17.48C54.5009 17.16 54.4609 16.8933 54.4876 16.68C54.5942 16.6 54.6342 16.4933 54.6076 16.36C54.6076 16.2267 54.5942 16.08 54.5676 15.92C54.5676 15.76 54.5676 15.6133 54.5676 15.48C54.5942 15.3467 54.7009 15.24 54.8876 15.16C54.8876 14.9467 54.8209 14.7067 54.6876 14.44C54.5542 14.1733 54.5542 13.84 54.6876 13.44C54.5809 13.4667 54.5676 13.3867 54.6476 13.2C54.7542 13.0133 54.8076 12.7867 54.8076 12.52C54.7009 12.12 54.6076 11.7333 54.5276 11.36C54.4742 10.9867 54.4742 10.6133 54.5276 10.24C54.5276 9.94668 54.5009 9.69335 54.4476 9.48001C54.3942 9.26668 54.2476 9.05335 54.0076 8.84001C54.1942 8.44001 54.2876 8.16001 54.2876 8.00001C54.2876 7.81335 54.1142 7.57335 53.7676 7.28001L54.2476 6.92001L54.0876 6.52001C54.0076 6.41335 53.9676 6.29335 53.9676 6.16001C53.9942 6.00001 54.0342 5.86668 54.0876 5.76001C54.1409 5.62668 54.1942 5.52001 54.2476 5.44001C54.3009 5.33335 54.3276 5.26668 54.3276 5.24001C54.4876 4.89335 54.7809 4.64001 55.2076 4.48001C55.6609 4.32001 56.0476 4.22668 56.3676 4.20001C56.5809 4.46668 56.7142 4.66668 56.7676 4.80001C56.8209 4.93334 56.9276 5.12001 57.0876 5.36001C57.5409 5.46668 57.8076 5.58668 57.8876 5.72001C57.9676 5.82668 58.0476 6.06668 58.1276 6.44001C57.9942 6.52001 57.9276 6.61335 57.9276 6.72001C57.9276 6.82668 57.9542 6.94668 58.0076 7.08001C58.0609 7.18668 58.1276 7.30668 58.2076 7.44001C58.2876 7.54668 58.3276 7.65334 58.3276 7.76001C58.2476 7.84001 58.2076 7.94668 58.2076 8.08001C58.2076 8.18668 58.2209 8.30668 58.2476 8.44001C58.2742 8.57335 58.2742 8.70668 58.2476 8.84001C58.2209 8.94668 58.1542 9.04001 58.0476 9.12001C58.0742 9.33335 58.1009 9.49334 58.1276 9.60001C58.1809 9.70668 58.2209 9.80001 58.2476 9.88001C58.2742 9.93335 58.2876 9.98668 58.2876 10.04C58.3142 10.0933 58.3409 10.1733 58.3676 10.28C58.3409 10.5733 58.3676 10.9067 58.4476 11.28C58.5276 11.6267 58.5409 11.8667 58.4876 12C58.5409 12.0533 58.5809 12.1867 58.6076 12.4C58.6342 12.5867 58.5942 12.8533 58.4876 13.2C58.3542 13.4133 58.3409 13.64 58.4476 13.88C58.5809 14.0933 58.6742 14.1867 58.7276 14.16C58.5676 14.3733 58.4476 14.6667 58.3676 15.04C58.2876 15.3867 58.3542 15.72 58.5676 16.04C58.4609 16.04 58.4076 16.0933 58.4076 16.2C58.4076 16.28 58.4209 16.3733 58.4476 16.48C58.4742 16.56 58.4742 16.64 58.4476 16.72C58.4476 16.7733 58.3942 16.8 58.2876 16.8C58.5009 16.9867 58.6076 17.2267 58.6076 17.52C58.6076 17.8133 58.6342 18.16 58.6876 18.56C58.6876 18.5067 58.6609 18.52 58.6076 18.6C58.5809 18.68 58.5409 18.7867 58.4876 18.92C58.4342 19.0533 58.3942 19.2 58.3676 19.36C58.3409 19.52 58.3409 19.6533 58.3676 19.76C58.5276 19.8133 58.5676 19.92 58.4876 20.08C58.4342 20.2133 58.4742 20.4667 58.6076 20.84C58.3942 21.08 58.2876 21.28 58.2876 21.44C58.2876 21.6 58.3942 21.9467 58.6076 22.48C58.5009 22.56 58.4342 22.6533 58.4076 22.76C58.4076 22.8667 58.4076 22.9733 58.4076 23.08C58.4342 23.1867 58.4342 23.28 58.4076 23.36C58.3809 23.44 58.3009 23.48 58.1676 23.48C58.2476 23.9867 58.3542 24.3467 58.4876 24.56C58.6209 24.7467 58.6209 24.8267 58.4876 24.8C58.3009 25.04 58.2209 25.3333 58.2476 25.68C58.2742 26.0267 58.4476 26.2267 58.7676 26.28C58.7142 26.5467 58.6342 26.8133 58.5276 27.08C58.4209 27.3467 58.3942 27.7067 58.4476 28.16C58.4209 28.1867 58.3809 28.3467 58.3276 28.64C58.3009 28.9333 58.3542 29.16 58.4876 29.32C58.3542 29.5867 58.3009 29.8 58.3276 29.96C58.3542 30.12 58.3942 30.28 58.4476 30.44C58.5009 30.6 58.5542 30.7733 58.6076 30.96C58.6876 31.1467 58.7276 31.3867 58.7276 31.68C58.4609 32.2933 58.2476 32.8 58.0876 33.2C57.9542 33.6267 57.8876 33.8533 57.8876 33.88C57.8609 34.2267 57.7942 34.48 57.6876 34.64C57.6076 34.8267 57.4876 34.96 57.3276 35.04C57.1676 35.1467 56.9809 35.2133 56.7676 35.24C56.5542 35.2933 56.3142 35.3467 56.0476 35.4C55.6742 35.5333 55.3809 35.52 55.1676 35.36C54.9809 35.2267 54.9809 35.1333 55.1676 35.08C54.9009 35.0533 54.7009 34.9733 54.5676 34.84C54.4609 34.7067 54.3809 34.56 54.3276 34.4C54.3009 34.24 54.2876 34.08 54.2876 33.92C54.2876 33.76 54.2742 33.64 54.2476 33.56L54.5676 33.32ZM34.2076 30.16L33.8876 28.52L34.2076 27.32L34.4876 25.84L33.7676 24.64L34.2876 22.84L34.0076 22.08C33.9276 21.6533 33.8876 21.36 33.8876 21.2C33.9142 21.04 33.8876 21.0267 33.8076 21.16C33.7809 20.7067 33.7942 20.32 33.8476 20C33.9009 19.6533 33.9542 19.4267 34.0076 19.32C34.0076 19.1067 34.1276 18.92 34.3676 18.76C34.6076 18.6 34.9009 18.5867 35.2476 18.72C35.3009 18.56 35.3942 18.4133 35.5276 18.28C35.6876 18.12 36.1009 17.9867 36.7676 17.88C36.9542 17.96 37.0876 18.0133 37.1676 18.04C37.2476 18.0667 37.4342 18.1467 37.7276 18.28C37.9409 18.0933 38.1809 18.0533 38.4476 18.16C38.7142 18.2667 39.0076 18.32 39.3276 18.32C39.4609 18.2933 39.6742 18.2933 39.9676 18.32C40.2609 18.3467 40.4742 18.3333 40.6076 18.28C40.7142 18.1467 40.7942 18.0667 40.8476 18.04C40.9276 18.0133 41.0209 18.0267 41.1276 18.08C41.2342 18.1067 41.3542 18.1467 41.4876 18.2C41.6209 18.2267 41.7942 18.2267 42.0076 18.2C42.0876 18.1733 42.2876 18.16 42.6076 18.16C42.9276 18.1333 43.1542 18 43.2876 17.76C43.4476 17.9467 43.5809 18.0667 43.6876 18.12C43.8209 18.1467 43.9409 18.16 44.0476 18.16C44.1809 18.1333 44.3142 18.1067 44.4476 18.08C44.6076 18.0267 44.7942 18 45.0076 18L45.6076 17.72C45.3676 17.7733 45.2609 17.7867 45.2876 17.76C45.3409 17.7333 45.4342 17.64 45.5676 17.48L46.0876 16.12L45.6876 15.2L45.4876 13.24L45.9676 12.08L45.4076 11C45.4076 10.7867 45.4209 10.6133 45.4476 10.48C45.4742 10.3467 45.4876 10.2533 45.4876 10.2C45.4876 10.12 45.4476 10.08 45.3676 10.08C45.3142 10.08 45.1809 10.12 44.9676 10.2C44.6476 9.98668 44.3676 9.86668 44.1276 9.84001C43.8876 9.78668 43.8209 9.84001 43.9276 10C43.7142 9.97335 43.5409 9.94668 43.4076 9.92001C43.2742 9.89335 43.1542 9.88001 43.0476 9.88001C42.9676 9.88001 42.8742 9.89335 42.7676 9.92001C42.6609 9.92001 42.5142 9.96001 42.3276 10.04C42.1942 10.0133 41.9276 10.0133 41.5276 10.04C41.1276 10.0667 40.8209 10.16 40.6076 10.32C40.5009 10.24 40.3809 10.2 40.2476 10.2C40.1409 10.2 40.0342 10.2 39.9276 10.2C39.8476 10.2 39.7676 10.2 39.6876 10.2C39.6076 10.1733 39.5676 10.0933 39.5676 9.96001C39.4876 10.12 39.3676 10.2133 39.2076 10.24C39.0742 10.24 38.9276 10.2267 38.7676 10.2C38.6076 10.1467 38.4609 10.0933 38.3276 10.04C38.1942 9.98668 38.1142 9.97335 38.0876 10C37.7142 10.4267 37.1942 10.5333 36.5276 10.32C36.4476 10.32 36.3276 10.2933 36.1676 10.24C36.0342 10.1867 35.8876 10.12 35.7276 10.04C35.5676 9.96001 35.4209 9.86668 35.2876 9.76001C35.1542 9.65335 35.0742 9.56001 35.0476 9.48001C35.0476 9.48001 35.0476 9.44001 35.0476 9.36001C35.0476 9.25335 35.0209 9.13335 34.9676 9.00001C34.9409 8.84001 34.8876 8.70668 34.8076 8.60001C34.7542 8.46668 34.6609 8.37335 34.5276 8.32001C34.5542 8.05335 34.6209 7.81335 34.7276 7.60001C34.8342 7.36001 34.9942 7.21334 35.2076 7.16001C35.3676 7.13335 35.4742 7.05335 35.5276 6.92001C35.6076 6.78668 35.7676 6.62668 36.0076 6.44001C36.1676 6.38668 36.3542 6.36001 36.5676 6.36001C36.8076 6.36001 37.0476 6.36001 37.2876 6.36001C37.5542 6.36001 37.8076 6.36001 38.0476 6.36001C38.2876 6.33335 38.5009 6.26668 38.6876 6.16001L40.0476 6.40001L40.9676 6.28001C41.2609 6.41334 41.5142 6.49334 41.7276 6.52001C41.9409 6.52001 42.1009 6.53334 42.2076 6.56001C42.7942 6.42668 43.2076 6.32001 43.4476 6.24001C43.6876 6.16001 43.8342 6.14668 43.8876 6.20001C44.4209 6.14668 44.8609 6.17334 45.2076 6.28001C45.5809 6.38668 45.8476 6.41335 46.0076 6.36001C46.2476 6.41335 46.4742 6.46668 46.6876 6.52001C46.9009 6.54668 47.1409 6.46668 47.4076 6.28001C47.4876 6.36001 47.6076 6.44001 47.7676 6.52001C47.9542 6.60001 48.1276 6.68001 48.2876 6.76001C48.4476 6.81335 48.5942 6.85334 48.7276 6.88001C48.8609 6.90668 48.9409 6.90668 48.9676 6.88001C49.0209 7.41335 49.0876 7.80001 49.1676 8.04001C49.2476 8.25335 49.2876 8.42668 49.2876 8.56001L49.7276 9.80001L49.1676 10.56C49.5409 10.8 49.7276 11.0133 49.7276 11.2C49.7276 11.3867 49.5809 11.6267 49.2876 11.92C49.3409 12.2133 49.4209 12.56 49.5276 12.96C49.6609 13.36 49.7009 13.6933 49.6476 13.96C49.5942 14.3333 49.5409 14.6 49.4876 14.76C49.4609 14.8933 49.4876 15.1333 49.5676 15.48C49.5942 15.48 49.6209 15.6 49.6476 15.84C49.6742 16.0533 49.5409 16.3333 49.2476 16.68C49.4342 17.1333 49.5409 17.48 49.5676 17.72C49.5942 17.9333 49.7142 18.1467 49.9276 18.36C49.9276 18.4933 49.8876 18.6133 49.8076 18.72C49.7276 18.8 49.6476 18.88 49.5676 18.96C49.5142 19.04 49.4876 19.1067 49.4876 19.16C49.4876 19.2133 49.5542 19.2533 49.6876 19.28C49.5276 19.6533 49.3142 20.0133 49.0476 20.36C48.8076 20.68 48.4076 20.9333 47.8476 21.12C47.7676 21.12 47.7009 21.1467 47.6476 21.2C47.6209 21.2533 47.5809 21.32 47.5276 21.4C47.5009 21.4533 47.4342 21.5067 47.3276 21.56C47.2476 21.5867 47.1142 21.5733 46.9276 21.52C46.9009 21.44 46.8342 21.4133 46.7276 21.44C46.6476 21.44 46.5276 21.4533 46.3676 21.48C46.2342 21.5067 46.0876 21.5333 45.9276 21.56C45.7676 21.5867 45.6209 21.56 45.4876 21.48C45.2742 21.72 45.0609 21.8267 44.8476 21.8C44.6342 21.7733 44.3142 21.8133 43.8876 21.92C43.8342 21.7867 43.7409 21.7067 43.6076 21.68C43.5009 21.6533 43.3942 21.6533 43.2876 21.68C43.2076 21.68 43.1276 21.6933 43.0476 21.72C42.9676 21.72 42.9409 21.6933 42.9676 21.64C42.7809 21.6933 42.5409 21.68 42.2476 21.6C41.9809 21.52 41.7276 21.4133 41.4876 21.28C41.4076 21.4933 41.2209 21.64 40.9276 21.72C40.6342 21.7733 40.3142 21.7333 39.9676 21.6C39.7809 21.6267 39.6342 21.64 39.5276 21.64C39.4209 21.6133 39.3142 21.5867 39.2076 21.56C39.1276 21.5067 39.0342 21.4533 38.9276 21.4C38.8209 21.3467 38.6742 21.2933 38.4876 21.24L38.3676 21.76L38.1276 21.72L38.4476 22.24L38.0476 23.2L38.0076 24.44L37.8076 26.36L38.4076 27.08L38.2876 29.08C38.3142 29.16 38.3142 29.2133 38.2876 29.24C38.2876 29.2667 38.2742 29.3067 38.2476 29.36C38.2209 29.4133 38.2076 29.48 38.2076 29.56C38.2076 29.6133 38.2609 29.72 38.3676 29.88C38.7942 29.9333 39.1142 29.8933 39.3276 29.76C39.5409 29.6267 39.7809 29.52 40.0476 29.44C40.3409 29.4133 40.5676 29.4 40.7276 29.4C40.9142 29.3733 41.0742 29.3733 41.2076 29.4C41.4742 29.4533 41.7276 29.52 41.9676 29.6C42.2076 29.6533 42.3676 29.76 42.4476 29.92C42.9009 29.8133 43.2342 29.72 43.4476 29.64C43.6609 29.5333 43.9942 29.5467 44.4476 29.68C44.5542 29.68 45.1009 29.5067 46.0876 29.16C45.9809 29.2933 45.9409 29.4 45.9676 29.48C46.0209 29.5333 46.0876 29.56 46.1676 29.56C46.2742 29.56 46.3942 29.5333 46.5276 29.48C46.6609 29.4267 46.7809 29.3467 46.8876 29.24C46.9409 29.2667 47.0876 29.2667 47.3276 29.24C47.5942 29.1867 47.7542 29.1867 47.8076 29.24C47.9142 29.2133 48.0609 29.2 48.2476 29.2C48.4342 29.1733 48.6209 29.1867 48.8076 29.24C48.9942 29.2667 49.1676 29.3333 49.3276 29.44C49.4876 29.5467 49.6076 29.7067 49.6876 29.92C49.7942 29.8667 49.8742 29.88 49.9276 29.96C50.0076 30.0133 50.0609 30.1067 50.0876 30.24C50.1142 30.3733 50.1276 30.5333 50.1276 30.72C50.1542 30.88 50.1676 31.04 50.1676 31.2C50.0342 31.6533 49.8742 32.0533 49.6876 32.4C49.5009 32.7467 49.1676 33.0133 48.6876 33.2C48.2076 33.0667 47.9009 32.9733 47.7676 32.92C47.6609 32.8667 47.5009 32.8133 47.2876 32.76C46.9942 32.84 46.6876 32.8533 46.3676 32.8C46.0742 32.7467 45.9142 32.7467 45.8876 32.8C45.6742 32.9333 45.4876 33.0133 45.3276 33.04C45.1942 33.0667 45.0609 33.08 44.9276 33.08C44.8209 33.1067 44.7276 33.12 44.6476 33.12C44.5676 33.12 44.4742 33.16 44.3676 33.24C43.9142 33.32 43.5809 33.36 43.3676 33.36C43.1809 33.3867 42.9409 33.3067 42.6476 33.12C42.4609 33.2533 42.2876 33.2667 42.1276 33.16C41.9676 33.0533 41.7009 32.96 41.3276 32.88C41.3276 32.88 41.2609 32.92 41.1276 33C41.0209 33.0533 40.8876 33.1067 40.7276 33.16C40.5942 33.2133 40.4609 33.2533 40.3276 33.28C40.2209 33.3333 40.1676 33.3333 40.1676 33.28C40.0876 33.0933 39.8742 33 39.5276 33C39.1809 33 38.8076 32.9333 38.4076 32.8C38.2742 32.9867 38.1142 33.12 37.9276 33.2C37.7676 33.28 37.6076 33.2133 37.4476 33C37.0209 33.0533 36.6609 33.0133 36.3676 32.88C36.0742 32.7467 35.8209 32.6267 35.6076 32.52C35.5809 32.4667 35.5542 32.4533 35.5276 32.48C35.5009 32.5067 35.4609 32.52 35.4076 32.52C35.3809 32.52 35.3409 32.5067 35.2876 32.48C35.2342 32.4267 35.1942 32.32 35.1676 32.16C34.7409 32.08 34.5009 31.9867 34.4476 31.88C34.4209 31.7733 34.3676 31.64 34.2876 31.48C34.3409 31.0267 34.3542 30.72 34.3276 30.56C34.3009 30.3733 34.2609 30.1733 34.2076 29.96V30.16Z" fill="#111111"/>
<path d="M4.51383 28.48C4.11383 28.2133 3.78049 28.0933 3.51383 28.12C3.27383 28.12 3.03383 28.1333 2.79383 28.16C2.68716 27.9733 2.63383 27.8133 2.63383 27.68C2.66049 27.52 2.70049 27.3867 2.75383 27.28C2.80716 27.1467 2.84716 27.04 2.87383 26.96C2.92716 26.88 2.94049 26.8133 2.91383 26.76C2.62049 26.4667 2.54049 26.2267 2.67383 26.04C2.80716 25.8267 3.02049 25.5067 3.31383 25.08C3.36716 24.8667 3.48716 24.7867 3.67383 24.84C3.86049 24.8933 4.11383 24.8933 4.43383 24.84L4.39383 24.92C4.6605 24.9733 4.86049 25 4.99383 25C5.12716 25 5.23383 25 5.31383 25C5.39383 25 5.46049 25.0133 5.51383 25.04C5.59383 25.04 5.7005 25.0533 5.83383 25.08C6.28716 25.08 6.62049 25.0667 6.83383 25.04C7.07383 25.0133 7.20716 24.92 7.23383 24.76C7.74049 24.9467 8.11383 25.08 8.35383 25.16C8.59383 25.2133 8.72716 25.2667 8.75383 25.32C8.8605 25.2667 8.98049 25.2533 9.11383 25.28C9.27383 25.28 9.40716 25.28 9.51383 25.28C9.64716 25.28 9.75383 25.2667 9.83383 25.24C9.91383 25.2133 9.94049 25.1333 9.91383 25C10.0472 25.1333 10.1938 25.2267 10.3538 25.28C10.5405 25.3067 10.7272 25.32 10.9138 25.32C11.1005 25.32 11.2605 25.3333 11.3938 25.36C11.5538 25.3867 11.6738 25.4667 11.7538 25.6C11.7805 25.44 11.8472 25.3333 11.9538 25.28C12.0872 25.2 12.2072 25.16 12.3138 25.16C12.4205 25.16 12.5005 25.16 12.5538 25.16C12.6338 25.16 12.6472 25.1333 12.5938 25.08C12.8872 25.16 13.2072 25.1733 13.5538 25.12C13.9272 25.0667 14.3005 25.0133 14.6738 24.96C14.9405 25.0933 15.1805 25.1867 15.3938 25.24C15.6338 25.2667 16.0205 25.2133 16.5538 25.08C16.4472 25.08 16.5005 25.1067 16.7138 25.16C16.9538 25.1867 17.3405 25.12 17.8738 24.96C17.9005 24.96 17.9805 24.96 18.1138 24.96C18.2472 24.9333 18.3672 24.92 18.4738 24.92C18.6072 24.8933 18.7138 24.88 18.7938 24.88C18.9005 24.8533 18.9538 24.84 18.9538 24.84C19.3805 24.8133 19.6738 24.8267 19.8338 24.88C20.0205 24.9067 20.3005 24.9733 20.6738 25.08C20.8072 25.2133 20.9272 25.2533 21.0338 25.2C21.1405 25.1467 21.3538 25.1467 21.6738 25.2C22.1805 25.2 22.5538 25.16 22.7938 25.08C23.0338 25 23.1805 24.9733 23.2338 25C23.3138 24.9467 23.4338 24.92 23.5938 24.92C23.7805 24.8933 23.9538 24.88 24.1138 24.88C24.3005 24.88 24.4738 24.88 24.6338 24.88C24.7938 24.88 24.9005 24.88 24.9538 24.88C25.2472 24.8267 25.6072 24.8133 26.0338 24.84C26.4872 24.84 26.8605 24.8667 27.1538 24.92C27.3672 24.6267 27.5405 24.5867 27.6738 24.8C27.8072 24.9867 27.9272 25.2133 28.0338 25.48C28.1672 25.4 28.2605 25.52 28.3138 25.84C28.3938 26.16 28.4472 26.4667 28.4738 26.76C28.7405 27.0267 28.8338 27.2533 28.7538 27.44C28.7005 27.6 28.6738 27.6 28.6738 27.44C28.4605 27.52 28.3005 27.6 28.1938 27.68C28.1138 27.76 28.0338 27.84 27.9538 27.92C27.9005 28 27.8338 28.0933 27.7538 28.2C27.6738 28.3067 27.5405 28.44 27.3538 28.6C26.9005 28.5467 26.5672 28.5067 26.3538 28.48C26.1405 28.4267 25.9405 28.3333 25.7538 28.2C25.3805 28.36 25.0605 28.52 24.7938 28.68C24.5272 28.8133 24.1405 28.88 23.6338 28.88C23.3938 28.6667 23.2072 28.5733 23.0738 28.6C22.9405 28.6 22.7672 28.5467 22.5538 28.44C22.3672 28.6 22.1672 28.6933 21.9538 28.72C21.7672 28.7467 21.5938 28.76 21.4338 28.76C21.2738 28.76 21.1538 28.76 21.0738 28.76C20.9938 28.7333 20.9672 28.7333 20.9938 28.76C20.4605 28.7867 20.0738 28.8133 19.8338 28.84C19.6205 28.84 19.4072 28.8667 19.1938 28.92C19.1138 28.92 18.9138 28.9467 18.5938 29C18.2738 29.0533 17.9138 29 17.5138 28.84L17.7538 30.48L17.8738 32.12L17.3538 33L17.9538 34.4C17.7938 34.64 17.6472 34.88 17.5138 35.12C17.4072 35.3867 17.1538 35.6667 16.7538 35.96C16.6205 36.1733 16.4738 36.36 16.3138 36.52C16.1538 36.7067 15.9672 36.7467 15.7538 36.64C15.3538 36.5333 15.0338 36.44 14.7938 36.36C14.5805 36.3067 14.3805 36.2133 14.1938 36.08C13.9805 35.7867 13.8472 35.48 13.7938 35.16C13.7672 34.8667 13.9005 34.5467 14.1938 34.2L13.6338 33.4V31.68L13.4338 30L13.5538 28.76C13.3405 28.6533 13.1138 28.64 12.8738 28.72C12.6338 28.7733 12.3405 28.84 11.9938 28.92C11.8338 28.9733 11.6738 28.92 11.5138 28.76C11.3538 28.5733 11.1272 28.5333 10.8338 28.64C10.2205 28.5867 9.76716 28.5867 9.47383 28.64C9.20716 28.6933 8.9405 28.8 8.67383 28.96C8.64716 28.9333 8.56716 28.9067 8.43383 28.88C8.3005 28.8267 8.15383 28.7867 7.99383 28.76C7.83383 28.7067 7.67383 28.68 7.51383 28.68C7.35383 28.6533 7.23383 28.64 7.15383 28.64C7.15383 28.6933 7.08716 28.7333 6.95383 28.76C6.8205 28.76 6.67383 28.76 6.51383 28.76C6.35383 28.76 6.19383 28.76 6.03383 28.76C5.9005 28.7333 5.8205 28.72 5.79383 28.72C5.63383 28.7733 5.39383 28.7467 5.07383 28.64C4.75383 28.5067 4.50049 28.4267 4.31383 28.4L4.51383 28.48ZM9.55383 13.6C9.5805 14.0267 9.5005 14.2933 9.31383 14.4C9.15383 14.48 9.08716 14.5733 9.11383 14.68C9.32716 15.0533 9.52716 15.3333 9.71383 15.52C9.92716 15.7067 9.95383 15.84 9.79383 15.92C9.92716 16.2933 10.1405 16.5467 10.4338 16.68C10.7538 16.8133 10.9272 16.9733 10.9538 17.16C11.0872 17.1067 11.2338 17.12 11.3938 17.2C11.5538 17.28 11.7805 17.4 12.0738 17.56C12.5272 17.6667 12.9005 17.7333 13.1938 17.76C13.5138 17.7867 13.7938 17.8267 14.0338 17.88C14.1138 17.7733 14.1805 17.72 14.2338 17.72C14.3138 17.6933 14.3938 17.7067 14.4738 17.76C14.5805 17.7867 14.7138 17.8267 14.8738 17.88C15.0338 17.9067 15.2338 17.92 15.4738 17.92C15.5272 17.9467 15.5938 17.9333 15.6738 17.88C15.7805 17.8 15.8872 17.7333 15.9938 17.68C16.1272 17.6267 16.2605 17.5867 16.3938 17.56C16.5272 17.5067 16.6738 17.5067 16.8338 17.56C17.0472 17.5333 17.2605 17.4933 17.4738 17.44C17.7138 17.3867 17.9405 17.2933 18.1538 17.16C18.6605 17.2133 19.0205 17.32 19.2338 17.48C19.4738 17.6133 19.7405 17.6533 20.0338 17.6C20.2205 17.4933 20.3405 17.36 20.3938 17.2C20.4472 17.0133 20.7005 16.8133 21.1538 16.6C21.1805 16.52 21.2205 16.4667 21.2738 16.44C21.3272 16.4133 21.3538 16.4 21.3538 16.4C21.3805 16.4 21.3805 16.4 21.3538 16.4C21.3538 16.3733 21.3138 16.32 21.2338 16.24C21.4205 16 21.5672 15.8267 21.6738 15.72C21.7805 15.6133 21.8472 15.52 21.8738 15.44C21.9005 15.3333 21.9005 15.2267 21.8738 15.12C21.8472 14.9867 21.8072 14.8133 21.7538 14.6C22.0205 14.6 22.1672 14.4667 22.1938 14.2C22.2472 13.9067 22.2072 13.5467 22.0738 13.12C22.1272 12.8533 22.1405 12.6533 22.1138 12.52C22.0872 12.3867 22.0738 12.2533 22.0738 12.12C22.1538 11.9333 22.1672 11.7867 22.1138 11.68C22.0872 11.5467 22.0338 11.4267 21.9538 11.32C21.8738 11.2133 21.7805 11.1067 21.6738 11C21.5938 10.8933 21.5405 10.76 21.5138 10.6C21.3805 10.7067 21.2072 10.7067 20.9938 10.6C20.7805 10.4933 20.6738 10.2133 20.6738 9.75999C20.5405 9.70666 20.3672 9.66666 20.1538 9.63999C19.9672 9.61332 19.8338 9.51999 19.7538 9.35999C19.4605 9.41332 19.2605 9.38665 19.1538 9.27999C19.0472 9.17332 18.8605 8.97332 18.5938 8.67999C18.3005 8.81332 17.9938 8.85332 17.6738 8.79999C17.3805 8.74665 17.1672 8.77332 17.0338 8.87999C16.8205 8.77332 16.5805 8.71999 16.3138 8.71999C16.0738 8.69332 15.8605 8.74665 15.6738 8.87999C15.3005 8.79999 14.9405 8.73332 14.5938 8.67999C14.2472 8.59999 14.0605 8.66666 14.0338 8.87999C13.8472 8.63999 13.6072 8.57332 13.3138 8.67999C13.0205 8.75999 12.7938 8.79999 12.6338 8.79999C12.5005 8.90666 12.3138 8.97332 12.0738 8.99999C11.8338 8.99999 11.7138 9.05332 11.7138 9.15999C11.2872 9.18666 11.0338 9.30666 10.9538 9.51999C10.9005 9.73332 10.8205 9.98665 10.7138 10.28C10.5805 10.3867 10.4738 10.4933 10.3938 10.6C10.3138 10.7067 10.1938 10.88 10.0338 11.12C10.0072 11.0133 9.92716 11.1067 9.79383 11.4C9.68716 11.6667 9.6605 11.9733 9.71383 12.32C9.52716 12.2933 9.39383 12.32 9.31383 12.4C9.2605 12.4533 9.2205 12.5467 9.19383 12.68C9.19383 12.7867 9.20716 12.92 9.23383 13.08C9.2605 13.2133 9.27383 13.3333 9.27383 13.44L9.55383 13.6ZM5.39383 13.2C5.3405 13.1733 5.35383 13.04 5.43383 12.8C5.54049 12.56 5.51383 12.1733 5.35383 11.64C5.30049 11.5067 5.35383 11.36 5.51383 11.2C5.67383 11.04 5.78049 10.7733 5.83383 10.4C5.83383 10.32 5.84716 10.16 5.87383 9.91999C5.9005 9.67999 5.91383 9.51999 5.91383 9.43999C6.02049 9.38665 6.10049 9.31999 6.15383 9.23999C6.20716 9.15999 6.24716 9.06666 6.27383 8.95999C6.32716 8.85332 6.38049 8.73332 6.43383 8.59999C6.51383 8.46666 6.6205 8.31999 6.75383 8.15999C6.80716 8.10665 6.9005 8.03999 7.03383 7.95999C7.19383 7.85332 7.3405 7.79999 7.47383 7.79999C7.4205 7.69332 7.40716 7.57332 7.43383 7.43999C7.48716 7.30665 7.55383 7.19999 7.63383 7.11999C7.7405 7.01332 7.84716 6.94666 7.95383 6.91999C8.08716 6.86665 8.2205 6.89332 8.35383 6.99999C8.3005 6.75999 8.36716 6.54665 8.55383 6.35999C8.7405 6.14666 8.94049 6.06665 9.15383 6.11999C9.36716 6.09332 9.52716 6.02665 9.63383 5.91999C9.7405 5.81332 9.95383 5.70665 10.2738 5.59999C10.2205 5.65332 10.2205 5.65332 10.2738 5.59999C10.3538 5.51999 10.4472 5.43999 10.5538 5.35999C10.6605 5.27999 10.7672 5.22666 10.8738 5.19999C10.9805 5.14665 11.0605 5.15999 11.1138 5.23999C11.4072 5.10665 11.6072 5.01332 11.7138 4.95999C11.8205 4.90666 12.0205 4.93332 12.3138 5.03999C12.5272 4.95999 12.6872 4.90666 12.7938 4.87999C12.9005 4.85332 12.9938 4.85332 13.0738 4.87999C13.1805 4.90666 13.2872 4.94665 13.3938 4.99999C13.5005 5.02665 13.6605 5.06665 13.8738 5.11999C14.2205 4.87999 14.5538 4.71999 14.8738 4.63999C15.1938 4.53332 15.4605 4.59999 15.6738 4.83999C15.6738 4.73332 15.7138 4.65332 15.7938 4.59999C15.9005 4.54666 16.0072 4.51999 16.1138 4.51999C16.2472 4.51999 16.3805 4.55999 16.5138 4.63999C16.6472 4.69332 16.7405 4.77332 16.7938 4.87999C16.9805 5.01332 17.1672 5.03999 17.3538 4.95999C17.5672 4.85332 17.7405 4.73332 17.8738 4.59999C18.0605 4.75999 18.2338 4.86665 18.3938 4.91999C18.5538 4.94665 18.6872 4.97332 18.7938 4.99999C18.9005 4.99999 18.9938 5.01332 19.0738 5.03999C19.1538 5.06665 19.2205 5.11999 19.2738 5.19999C19.7538 5.30665 20.1138 5.37332 20.3538 5.39999C20.6205 5.39999 20.8738 5.50665 21.1138 5.71999C21.4338 5.61332 21.7005 5.67999 21.9138 5.91999C22.0205 6.07999 22.1138 6.19999 22.1938 6.27999C22.3005 6.33332 22.3805 6.38666 22.4338 6.43999C22.5138 6.46665 22.5672 6.51999 22.5938 6.59999C22.6205 6.65332 22.6338 6.75999 22.6338 6.91999C22.8738 6.91999 23.0605 6.95999 23.1938 7.03999C23.3538 7.09332 23.4872 7.15999 23.5938 7.23999C23.7005 7.31999 23.7938 7.38665 23.8738 7.43999C23.9805 7.46666 24.0872 7.45332 24.1938 7.39999C24.2472 7.69332 24.3138 7.93332 24.3938 8.11999C24.5005 8.27999 24.5272 8.46665 24.4738 8.67999C24.6605 8.62666 24.7938 8.61332 24.8738 8.63999C24.9538 8.66665 25.0072 8.70666 25.0338 8.75999C25.0605 8.81332 25.0872 8.89332 25.1138 8.99999C25.1405 9.07999 25.1805 9.15999 25.2338 9.23999C25.2338 9.31999 25.2605 9.43999 25.3138 9.59999C25.3672 9.75999 25.4338 9.90665 25.5138 10.04C25.5938 10.1733 25.6872 10.2933 25.7938 10.4C25.9005 10.48 26.0205 10.4933 26.1538 10.44C26.0205 10.6533 25.9538 10.9467 25.9538 11.32C25.9538 11.6667 26.0872 11.9867 26.3538 12.28C26.2205 12.2 26.1938 12.2933 26.2738 12.56C26.3805 12.8267 26.4605 13.0533 26.5138 13.24C26.5138 13.5333 26.4872 13.76 26.4338 13.92C26.3805 14.0533 26.3138 14.1733 26.2338 14.28C26.1805 14.3867 26.1272 14.48 26.0738 14.56C26.0472 14.6133 26.0338 14.68 26.0338 14.76C26.0872 15.16 26.1138 15.4667 26.1138 15.68C26.1138 15.8933 25.9272 16.2 25.5538 16.6C25.5005 16.7067 25.4738 16.8533 25.4738 17.04C25.4738 17.2267 25.5272 17.5067 25.6338 17.88C25.5805 17.8267 25.5138 17.8267 25.4338 17.88C25.3805 17.9333 25.3138 18.0133 25.2338 18.12C25.1538 18.2 25.0738 18.3067 24.9938 18.44C24.9138 18.5467 24.8205 18.64 24.7138 18.72C24.4205 18.6667 24.2072 18.7067 24.0738 18.84C23.9405 18.9467 23.7672 19.1867 23.5538 19.56C23.5805 19.6133 23.5938 19.64 23.5938 19.64C23.5938 19.64 23.5538 19.64 23.4738 19.64C23.4205 19.64 23.3405 19.6667 23.2338 19.72C23.1538 19.7733 23.0605 19.88 22.9538 20.04C22.7138 20.28 22.5672 20.4267 22.5138 20.48C22.4872 20.5067 22.4205 20.4533 22.3138 20.32C22.1272 20.2933 21.8338 20.3067 21.4338 20.36C21.0338 20.4133 20.7138 20.48 20.4738 20.56C20.5538 20.6667 20.5538 20.7467 20.4738 20.8C20.4205 20.8267 20.3272 20.8533 20.1938 20.88C20.0872 20.9067 19.9538 20.9467 19.7938 21C19.6338 21.0533 19.4872 21.1333 19.3538 21.24C19.3538 21.3733 19.2338 21.4533 18.9938 21.48C18.7538 21.5067 18.4472 21.48 18.0738 21.4C17.9938 21.3467 17.9272 21.3333 17.8738 21.36C17.8205 21.3867 17.7538 21.4133 17.6738 21.44C17.6205 21.4667 17.5405 21.48 17.4338 21.48C17.3538 21.4533 17.2472 21.36 17.1138 21.2C16.6338 21.4133 16.2738 21.4933 16.0338 21.44C15.8205 21.3867 15.5272 21.3867 15.1538 21.44C14.9405 21.4133 14.7272 21.4533 14.5138 21.56C14.3005 21.64 13.9538 21.5733 13.4738 21.36C13.3138 21.52 13.1138 21.5733 12.8738 21.52C12.6338 21.4667 12.4072 21.48 12.1938 21.56C12.1672 21.4267 12.1005 21.36 11.9938 21.36C11.8872 21.3333 11.7672 21.32 11.6338 21.32C11.5005 21.32 11.3672 21.32 11.2338 21.32C11.1272 21.32 11.0472 21.2533 10.9938 21.12C10.7272 21.0667 10.5138 21.04 10.3538 21.04C10.1938 21.0133 10.0205 20.9333 9.83383 20.8C9.51383 20.8267 9.24716 20.7733 9.03383 20.64C8.84716 20.5067 8.64716 20.3733 8.43383 20.24C8.2205 20.2933 8.11383 20.24 8.11383 20.08C8.1405 19.92 8.03383 19.7867 7.79383 19.68C7.76716 19.4933 7.7005 19.36 7.59383 19.28C7.51383 19.1733 7.40716 19.0933 7.27383 19.04C7.14049 18.96 7.00716 18.8933 6.87383 18.84C6.74049 18.7867 6.6205 18.6933 6.51383 18.56C6.59383 18.64 6.60716 18.56 6.55383 18.32C6.52716 18.0533 6.52716 17.88 6.55383 17.8C6.39383 17.7733 6.26049 17.7067 6.15383 17.6C6.04716 17.4667 5.95383 17.32 5.87383 17.16C5.79383 17 5.72716 16.8533 5.67383 16.72C5.64716 16.5867 5.64716 16.48 5.67383 16.4C5.7005 16.2667 5.6605 16.04 5.55383 15.72C5.44716 15.3733 5.4205 15.1333 5.47383 15C5.28716 14.7867 5.19383 14.5333 5.19383 14.24C5.19383 13.92 5.23383 13.6533 5.31383 13.44L5.39383 13.2Z" fill="#111111"/>
</svg>
