<svg width="20" height="20" viewBox="0 0 20 20" fill="none" xmlns="http://www.w3.org/2000/svg">
<rect width="20" height="20" rx="10" fill="#171717" fill-opacity="0.5"/>
<path d="M13.2572 7.22783C13.557 7.52762 13.557 8.01351 13.2572 8.31335L11.0855 10.4851L13.2572 12.6568C13.557 12.9566 13.557 13.4425 13.2572 13.7423C12.9574 14.0422 12.4716 14.0422 12.1717 13.7423L10 11.5706L7.82827 13.7423C7.52844 14.0422 7.04258 14.0422 6.74275 13.7423C6.44311 13.4425 6.44298 12.9566 6.74275 12.6568L8.91448 10.4851L6.74275 8.31335C6.44312 8.0135 6.44299 7.52759 6.74275 7.22783C7.04253 6.92818 7.52846 6.92824 7.82827 7.22783L10 9.39956L12.1717 7.22783C12.4715 6.92818 12.9574 6.92823 13.2572 7.22783Z" fill="white"/>
</svg>
