<svg width="64" height="64" viewBox="0 0 64 64" fill="none" xmlns="http://www.w3.org/2000/svg">
<g clip-path="url(#clip0_9_85)">
<path d="M44.1472 8.81725C39.9017 8.75488 35.6229 8.86643 31.3928 8.74878C30.8888 8.63723 31.1858 7.49028 31.0884 7.20708C31.0907 5.96884 31.2675 4.73027 31.2048 3.49107C31.208 3.38659 31.2627 3.28244 31.299 3.17829C31.3443 3.09085 31.5124 3.03235 31.7616 3.01306C38.6471 3.04296 45.5748 2.94941 52.4706 3.04231C53.7217 3.05582 54.9728 3.06835 56.2239 3.08121C56.5306 3.08443 56.5795 3.09953 56.5942 3.20401C56.8215 4.63126 56.6939 6.06238 56.6849 7.49125C56.6441 7.89917 56.736 8.31224 56.6132 8.71727C56.5942 8.74267 56.5418 8.76646 56.4917 8.78735C52.4002 8.851 48.2525 8.8989 44.1462 8.82175C44.1462 8.82014 44.1462 8.81853 44.1462 8.81693L44.1472 8.81725Z" fill="#CCCCCC"/>
<path d="M44.2992 17.6885C39.2897 17.5782 34.2162 17.7753 29.2558 17.5676C28.7045 17.3709 29.4876 15.3483 29.4844 14.8487C29.9588 12.6648 30.6172 10.4805 31.019 8.29524C31.0618 8.11105 31.1563 7.92717 31.2321 7.7433C31.3106 7.58868 31.5005 7.48582 31.7567 7.45206C38.641 7.50478 45.5709 7.33955 52.4828 7.50382C53.7401 7.52761 54.9979 7.54979 56.2567 7.57229C56.5653 7.57775 56.6209 7.60443 56.6791 7.78895C57.5094 10.3063 57.973 12.83 58.5596 15.3502C58.6827 16.0693 58.9618 16.798 58.9868 17.5126C58.9749 17.5576 58.9232 17.5994 58.8727 17.6364C54.0605 17.7486 49.1632 17.8331 44.2992 17.6968C44.2992 17.6939 44.2992 17.6914 44.2992 17.6885Z" fill="#E6E6E6"/>
<path d="M43.5782 61.1623C41.0089 61.1623 36.8885 61.2249 32.7703 61.1336C30.9136 61.0922 29.0427 60.8366 27.2091 60.5071C25.0191 60.1124 23.721 58.5533 23.8223 56.4202C23.9489 53.7553 24.1801 51.094 24.4861 48.4478C24.9528 44.4248 25.5324 40.4194 26.0522 36.4096C26.762 30.9603 27.4435 25.5123 28.1864 20.0794C28.3185 19.1176 28.6332 18.1806 28.9312 17.2545C29.1183 16.6742 29.5541 16.2997 30.2646 16.2438C31.7629 16.1255 33.2509 15.8838 34.7546 15.8587C40.8028 15.7594 46.8558 15.7401 52.9207 16.1425C54.2779 16.2322 55.6389 16.2004 56.9987 16.2396C58.405 16.2804 59.0139 16.6424 59.3443 17.9244C59.667 19.1768 59.8863 20.4642 59.9773 21.7404C60.4225 28.0177 61.1319 34.2652 62.1676 40.4853C62.7469 43.9734 63.0928 47.4898 63.5142 50.9927C63.7093 52.6177 63.8466 54.2481 63.989 55.8769C64.0195 56.2286 63.9835 56.5892 63.9379 56.9409C63.7376 58.4942 62.8755 59.6235 61.2769 60.1072C60.2026 60.4332 59.0634 60.692 57.9408 60.7392C53.6726 60.9186 49.4001 60.9996 43.5786 61.1619L43.5782 61.1623Z" fill="#F2F2F2"/>
<path d="M41.5351 15.799C39.274 15.7958 37.0138 15.8218 34.7543 15.8588C33.2506 15.8838 31.7626 16.1259 30.2643 16.2439C29.5538 16.3001 29.118 16.6743 28.9309 17.2545C28.6329 18.1806 28.3182 19.1177 28.1861 20.0795C27.936 21.9089 27.6939 23.7402 27.4541 25.5725C27.7187 25.5551 27.9835 25.5394 28.2484 25.5297C31.5083 25.4118 34.9073 25.7891 38.1396 25.323C38.9802 25.2019 39.8163 24.8968 40.4393 24.3195C42.3641 22.5363 41.7701 19.2061 41.6248 16.8926C41.6049 16.5769 41.5817 16.1912 41.5348 15.7983L41.5351 15.799Z" fill="#FFCC00"/>
<path d="M44.1861 55.621C39.2428 55.5786 34.2609 55.6545 29.3356 55.5744C28.7486 55.4986 29.0945 54.7194 28.9814 54.5268C28.9842 53.6852 29.1897 52.8437 29.117 52.0018C29.1205 51.9307 29.1845 51.86 29.2269 51.789C29.28 51.7295 29.4754 51.6896 29.7654 51.6768C37.7828 51.697 45.8484 51.6334 53.8777 51.6967C55.3342 51.706 56.791 51.7144 58.2479 51.7231C58.605 51.7253 58.6619 51.7353 58.6793 51.8067C58.9438 52.7765 58.7953 53.7492 58.785 54.72C58.7378 54.9971 58.8448 55.2777 58.7014 55.5532C58.6793 55.5706 58.6185 55.5866 58.56 55.6008C53.7964 55.6442 48.9668 55.6766 44.1858 55.6239C44.1858 55.623 44.1858 55.6217 44.1858 55.6207L44.1861 55.621Z" fill="#E6E6E6"/>
<path d="M56.6611 3.71191C55.6611 3.72702 54.6617 3.75692 53.6629 3.81639C52.6658 3.87586 51.676 3.98065 50.6846 4.09862C49.6733 4.21885 48.6556 4.26128 47.6392 4.31143C47.1406 4.33618 46.6423 4.36125 46.146 4.41622C45.6645 4.46926 45.1845 4.53773 44.702 4.57888C43.6795 4.66631 42.6505 4.5493 41.6267 4.52809C39.5855 4.48566 37.5449 4.56313 35.5036 4.5493C34.393 4.54191 33.2943 4.45737 32.1872 4.38311C31.8644 4.36157 31.5398 4.35354 31.2148 4.34582C31.2122 4.47376 31.208 4.6017 31.2029 4.72964C31.3842 4.73446 31.5652 4.73928 31.7458 4.74635C32.7291 4.78461 33.7067 4.89647 34.6916 4.92219C36.7477 4.97587 38.805 4.88619 40.8613 4.9029C41.3718 4.90708 41.8822 4.91705 42.3924 4.93537C42.8984 4.95369 43.4056 5.00223 43.9116 5.00191C44.9068 5.00127 45.8872 4.79811 46.8786 4.73768C47.8848 4.67628 48.8928 4.64928 49.8974 4.56409C50.9077 4.47858 51.9107 4.32879 52.9223 4.2526C54.1779 4.15777 55.4357 4.11598 56.6945 4.09766C56.6855 3.9694 56.6746 3.84082 56.6611 3.71256V3.71191Z" fill="black"/>
<path d="M56.7203 5.88855C55.8755 5.90719 55.031 5.91748 54.1866 5.88244C53.1457 5.83936 52.1077 5.78472 51.0656 5.77122C50.0443 5.75804 49.0227 5.76382 48.0015 5.77379C46.9593 5.78375 45.9175 5.79822 44.8753 5.80079C43.8454 5.80336 42.8199 5.79372 41.7916 5.86444C39.7835 6.00298 37.7866 6.3103 35.7705 6.32251C34.611 6.32958 33.4518 6.28169 32.2926 6.26433C31.9001 6.25822 31.5089 6.25726 31.1171 6.26497C31.1103 6.39452 31.1045 6.52374 31.1 6.65329C31.3286 6.6475 31.5575 6.643 31.7867 6.64461C32.8198 6.652 33.8523 6.68929 34.8855 6.70343C35.9109 6.71758 36.9309 6.68608 37.9531 6.60185C38.9651 6.5186 39.9738 6.40287 40.9854 6.31415C43.043 6.13382 45.1084 6.19039 47.1721 6.16821C49.2561 6.14571 51.3417 6.12289 53.4241 6.22832C54.5215 6.28394 55.6135 6.29551 56.7116 6.27365C56.7151 6.14539 56.7184 6.01713 56.7213 5.88855H56.7203Z" fill="black"/>
<path d="M37.8992 35.8152C38.418 37.1091 37.9792 38.5026 36.9191 38.9279C35.8586 39.3532 34.5786 38.6492 34.0594 37.3557C33.5406 36.0618 33.9794 34.6683 35.0395 34.243C36.1 33.8177 37.38 34.5217 37.8992 35.8152Z" fill="#1D1D1B"/>
<path d="M41.1214 34.4475C42.4503 34.2299 43.3123 32.7391 43.0468 31.1178C42.7813 29.4965 41.4888 28.3586 40.1599 28.5762C38.831 28.7938 37.969 30.2845 38.2345 31.9059C38.5 33.5272 39.7925 34.6651 41.1214 34.4475Z" fill="#1D1D1B"/>
<path d="M49.5231 31.9104C49.7886 30.2891 48.9265 28.7983 47.5976 28.5807C46.2687 28.3631 44.9762 29.501 44.7107 31.1223C44.4452 32.7437 45.3073 34.2344 46.6362 34.452C47.9651 34.6696 49.2576 33.5317 49.5231 31.9104Z" fill="#1D1D1B"/>
<path d="M53.7325 37.3571C54.2515 36.0634 53.8127 34.6697 52.7524 34.2444C51.6922 33.819 50.4119 34.523 49.8928 35.8167C49.3738 37.1105 49.8125 38.5041 50.8728 38.9295C51.9331 39.3549 53.2134 38.6509 53.7325 37.3571Z" fill="#1D1D1B"/>
<path d="M42.9801 35.8972C43.5131 35.4025 44.6176 35.3498 45.1239 35.8272C47.4113 37.9854 49.0517 38.8485 51.1971 41.2996C52.6723 42.985 52.7134 45.8726 50.8368 47.485C49.2205 48.874 46.9346 48.9017 45.1711 47.9826C44.4883 47.6268 43.677 47.6438 43.0074 48.0244C40.5386 49.4276 36.7172 48.8432 35.8171 46.1124C35.2301 44.3316 35.7146 42.7622 37.0165 41.2626C38.8124 39.1938 40.9369 37.7938 42.9801 35.8972Z" fill="#1D1D1B"/>
<path d="M49.5493 55.839C47.79 55.839 46.0104 55.8313 44.2479 55.812C44.2363 55.812 44.2247 55.8108 44.2135 55.8085C42.0922 55.7905 39.9291 55.7944 37.8365 55.7979C35.0645 55.8027 32.1981 55.8079 29.3967 55.7622C29.2903 55.7606 29.2051 55.6728 29.207 55.5661C29.2086 55.4607 29.2948 55.3765 29.3999 55.3765C29.4008 55.3765 29.4021 55.3765 29.4031 55.3765C32.201 55.4218 35.0655 55.417 37.8358 55.4121C39.941 55.4086 42.1176 55.4048 44.252 55.4231C44.2639 55.4231 44.2758 55.4244 44.2874 55.4266C49.2089 55.48 54.2666 55.4424 58.6223 55.4028C58.7291 55.4006 58.8159 55.4874 58.8168 55.5941C58.8178 55.7005 58.7323 55.7876 58.6256 55.7886C55.817 55.814 52.7166 55.8387 49.549 55.8387L49.5493 55.839Z" fill="black"/>
<path d="M58.9878 17.1446C58.929 17.1446 58.8708 17.1179 58.8329 17.0668C58.5108 16.6347 58.0129 16.4554 57.0565 16.4277C56.5563 16.4132 56.0468 16.4084 55.554 16.4036C54.708 16.3956 53.833 16.3872 52.9715 16.33C46.7954 15.9201 40.5984 15.9516 34.8215 16.0465C33.8732 16.0622 32.9111 16.1673 31.9805 16.2689C31.445 16.3274 30.8911 16.3878 30.3436 16.4309C29.8557 16.4695 29.5037 16.673 29.2973 17.0359C29.2446 17.1285 29.1269 17.1609 29.0344 17.1082C28.9418 17.0555 28.9093 16.9379 28.962 16.8453C29.2314 16.3711 29.6988 16.095 30.3134 16.0465C30.8551 16.0037 31.4061 15.9436 31.9387 15.8854C32.878 15.7829 33.8494 15.6768 34.8154 15.6607C40.6006 15.5656 46.8073 15.5344 52.9972 15.9452C53.8478 16.0015 54.7173 16.0098 55.5579 16.0179C56.0526 16.0227 56.5641 16.0275 57.0678 16.042C58.1443 16.0731 58.7454 16.3033 59.1424 16.8363C59.2061 16.9218 59.1884 17.0427 59.1029 17.1063C59.0682 17.132 59.028 17.1446 58.9878 17.1446Z" fill="black"/>
<path d="M12.0066 53.0642C10.4849 51.2007 8.22441 47.1455 10.0779 46.0185C10.8999 45.5495 11.8774 45.6395 12.8386 46.4666C13.6564 47.2011 13.9704 48.0048 14.4667 48.9508C14.6522 48.0491 14.5429 47.3352 15.1228 46.6772C15.5674 46.195 16.292 46.0327 16.9204 45.9867C18.4316 45.8771 19.3737 47.143 19.6412 48.8798C20.0687 48.4111 20.1989 47.5965 20.5869 47.0407C21.0672 46.3798 21.7107 45.8157 22.3945 45.5386C23.292 45.1821 23.9162 45.535 24.5144 46.1815C25.1371 46.8922 25.0323 47.6525 25.0072 48.7171C25.2802 47.2188 26.2124 46.1133 27.2886 45.5971C28.9132 44.8459 28.7605 47.0391 28.5275 48.0067C29.2668 47.5297 29.9744 46.3377 30.8892 45.8382C31.8754 45.3139 32.9906 45.1258 33.3956 45.8337C33.8125 46.6344 33.4284 48.2414 33.0111 49.4661C32.3968 51.1708 31.4119 52.0869 30.1245 52.7446C28.6876 53.5139 27.3532 53.538 26.1368 53.7563C24.7507 54.0099 23.4559 54.0655 22.1405 54.0861C20.0279 54.1192 17.9391 54.449 15.8596 54.4487C14.6741 54.4487 13.2729 53.926 12.0063 53.0638L12.0066 53.0642Z" fill="#754C24"/>
<path d="M26.2422 53.7383C26.4441 53.7039 26.6466 53.6747 26.8495 53.6461C28.7943 53.4985 30.092 52.2092 30.8786 50.1776C31.2894 48.7722 32.1287 46.3706 30.5083 46.0919C29.7747 46.6538 29.2858 47.479 28.5275 48.0071C29.5069 43.31 25.3508 46.0642 25.0072 48.7175C25.0323 47.6525 25.1371 46.8923 24.5144 46.1819C23.9162 45.5358 23.2923 45.1825 22.3944 45.539C21.7107 45.8161 21.0671 46.3802 20.5869 47.0411C20.1979 47.5982 20.0713 48.4047 19.6412 48.8802C19.3657 46.243 17.0046 45.106 15.1225 46.6772C14.5426 47.3353 14.6519 48.0489 14.4664 48.9509C13.7942 47.2584 11.9925 44.8748 10.0776 46.0189C7.96916 47.5076 11.275 51.9909 12.006 53.0642C14.7306 54.9962 16.923 54.4069 19.9697 54.2006C22.0723 54.0164 24.1512 54.1565 26.2419 53.7386L26.2422 53.7383Z" fill="#8C6239"/>
<path d="M21.839 61.1C14.623 60.9833 7.2816 61.1916 0.180345 60.972C-0.551607 60.7637 1.1685 58.6231 1.31154 58.0944C2.58708 55.7828 4.0513 53.4709 5.13621 51.158C5.2365 50.9632 5.40012 50.7684 5.53996 50.5739C5.67497 50.4103 5.93181 50.3013 6.25102 50.2656C14.5995 50.3216 23.0059 50.1467 31.4109 50.3206C32.9436 50.3457 34.4783 50.3692 36.0155 50.3929C36.3925 50.3987 36.4681 50.427 36.597 50.6225C38.4447 53.2867 39.8986 55.958 41.5747 58.6254C42.0032 59.3866 42.6603 60.1578 42.956 60.9141C42.9553 60.9617 42.8959 61.0061 42.8364 61.045C35.9309 61.1639 28.874 61.253 21.8387 61.1089C21.8387 61.1061 21.8387 61.1032 21.8387 61.1H21.839Z" fill="#91AEEB"/>
<path d="M36.6722 50.6681C36.6545 50.6366 36.6371 50.6051 36.6195 50.5736C36.4877 50.41 36.2366 50.301 35.9248 50.2653C32.9272 50.2788 29.9207 50.2705 26.9086 50.2615C25.0259 50.2496 23.1431 50.2467 21.2613 50.248C19.4949 50.2467 17.7276 50.2493 15.9605 50.2599C12.7171 50.2695 9.47873 50.2792 6.25133 50.2653C5.9318 50.301 5.67496 50.41 5.54027 50.5736C5.52227 50.6051 5.50427 50.6366 5.48627 50.6681C3.11586 54.813 6.11857 59.9697 10.8931 59.9556C13.6589 59.9472 16.427 59.9447 19.1764 59.989C19.1764 59.9919 19.1764 59.9948 19.1767 59.998C19.1825 60.0405 20.8643 60.026 21.0228 60.0282C21.6509 60.0372 22.2787 60.0446 22.9069 60.0507C24.1628 60.063 25.419 60.07 26.6749 60.072C27.9174 60.0742 29.1601 60.07 30.4025 60.0636C30.9448 60.0607 31.489 60.0877 32.0246 59.9955C32.4229 59.9267 32.8141 59.8174 33.1908 59.6711C34.6724 59.0954 35.9049 57.9533 36.649 56.5543C37.3961 55.1498 37.6369 53.486 37.2023 51.9456C37.0769 51.5007 36.8978 51.0716 36.6722 50.6681Z" fill="#A1C3FF"/>
<path d="M25.7823 54.3674C22.9155 54.7872 19.9 54.9943 17.0725 54.2327C16.7902 54.1514 16.5119 54.0547 16.2431 53.9348C15.1087 53.5381 13.9174 54.8458 15.065 56.1104C13.9087 57.3688 15.0994 58.683 16.2331 58.2914C17.3097 57.8867 18.502 57.7507 19.6402 57.6556C21.1067 57.5328 22.5893 57.5289 24.0554 57.6633C24.652 57.718 25.2663 57.7658 25.8434 57.9349C26.4088 58.1008 26.9684 58.5267 27.5782 58.2998C28.2556 58.0478 28.8367 57.0905 27.9212 56.1107C28.8297 55.1273 28.2507 54.171 27.5683 53.9232C26.9054 53.6779 26.3863 54.2003 25.782 54.3678L25.7823 54.3674Z" fill="#F2F2F2"/>
<path d="M25.6141 51.9083C23.3286 51.8784 21.0456 51.7385 18.7597 51.7225C16.7211 51.708 14.6782 51.6993 12.647 51.5032C10.7366 51.319 8.82969 50.9587 7.03469 50.2682C6.77367 50.2672 6.51233 50.2666 6.25131 50.2656C6.19698 50.2717 6.14458 50.2801 6.09412 50.2904C7.8843 51.0927 9.80081 51.5428 11.744 51.789C13.81 52.0507 15.8956 52.0863 17.9754 52.1027C20.2487 52.1207 22.5172 52.2252 24.7896 52.2789C27.0141 52.3313 29.2536 52.3175 31.4511 51.9298C33.1657 51.6273 34.8437 51.1194 36.4397 50.4235C36.3044 50.3434 36.1276 50.2888 35.9245 50.2656C35.8901 50.2656 35.8557 50.2656 35.8213 50.2659C34.6229 50.7555 33.3818 51.1381 32.1139 51.4087C29.9753 51.8649 27.7939 51.9372 25.6138 51.9086L25.6141 51.9083Z" fill="black"/>
</g>
<defs>
<clipPath id="clip0_9_85">
<rect width="64" height="64" fill="white"/>
</clipPath>
</defs>
</svg>
