<svg width="64" height="64" viewBox="0 0 64 64" fill="none" xmlns="http://www.w3.org/2000/svg">
<path d="M3.02152 12.8059C2.66151 7.50112 6.86459 3 12.1779 3H51.8069C57.1202 3 61.3233 7.50112 60.9633 12.8059L58.274 52.4384C57.9469 57.2579 53.9448 61 49.1176 61H14.8672C10.04 61 6.03786 57.2579 5.71082 52.4384L3.02152 12.8059Z" fill="#FFCC00"/>
<path d="M51.8145 3H47.9633C53.2767 3 57.4798 7.50112 57.1198 12.8059L54.4305 52.4384C54.1034 57.2579 50.1013 61 45.274 61H49.1252C53.9524 61 57.9545 57.2579 58.2816 52.4384L60.9709 12.8059C61.3309 7.50112 57.1278 3 51.8145 3Z" fill="#FAB938"/>
<path d="M18.8129 22.4889C18.8129 15.2059 24.717 9.30188 32 9.30188C39.283 9.30188 45.1871 15.206 45.1871 22.4889H18.8129Z" fill="#F4F4FF"/>
<path d="M29.1352 13.1756C29.2102 13.1756 29.2864 13.1659 29.3623 13.1456C29.8293 13.0204 30.1062 12.5405 29.9812 12.0736L29.2941 9.5802C28.7174 9.7005 28.1547 9.85887 27.6083 10.0518L28.2902 12.5268C28.3951 12.9178 28.7487 13.1756 29.1352 13.1756Z" fill="black"/>
<path d="M24.427 15.9957C24.651 15.9957 24.8751 15.9101 25.0459 15.7393C25.3878 15.3974 25.3878 14.8434 25.0459 14.5015L23.2068 12.6624C22.7717 13.0519 22.3625 13.4699 21.9824 13.9135L23.8082 15.7393C23.9791 15.9102 24.2031 15.9957 24.427 15.9957Z" fill="black"/>
<path d="M38.8016 15.4988C38.9725 15.6698 39.1965 15.7552 39.4204 15.7552C39.6444 15.7552 39.8684 15.6697 40.0393 15.4988L41.834 13.7042C41.4447 13.2688 41.0272 12.8593 40.5839 12.4788L38.8016 14.2611C38.4598 14.6028 38.4598 15.157 38.8016 15.4988Z" fill="black"/>
<path d="M34.3971 13.0576C34.473 13.0779 34.5493 13.0876 34.6242 13.0876C35.0107 13.0876 35.3643 12.8297 35.4691 12.4387L36.1364 9.96457C35.5863 9.78298 35.0204 9.63673 34.441 9.52832L33.7782 11.9856C33.6532 12.4524 33.9302 12.9324 34.3971 13.0576Z" fill="black"/>
<path d="M28.8539 14.8254C28.6173 14.4038 28.0839 14.2539 27.6622 14.4903C27.2407 14.7269 27.0906 15.2603 27.3272 15.6819L31.1531 22.4891H33.1611L28.8539 14.8254Z" fill="black"/>
<path d="M24.699 35.7805C25.3255 37.3429 24.7957 39.0258 23.5154 39.5393C22.2347 40.0529 20.6889 39.2028 20.062 37.6407C19.4355 36.0782 19.9653 34.3954 21.2456 33.8818C22.5263 33.3682 24.0721 34.2184 24.699 35.7805Z" fill="white"/>
<path d="M28.5901 34.1286C30.195 33.8658 31.236 32.0656 30.9154 30.1076C30.5947 28.1497 29.0339 26.7755 27.4291 27.0383C25.8243 27.3011 24.7832 29.1014 25.1039 31.0593C25.4245 33.0172 26.9853 34.3914 28.5901 34.1286Z" fill="white"/>
<path d="M38.7362 31.0649C39.0569 29.1069 38.0158 27.3067 36.411 27.0439C34.8062 26.7811 33.2453 28.1553 32.9247 30.1132C32.6041 32.0711 33.6451 33.8714 35.2499 34.1342C36.8547 34.397 38.4156 33.0228 38.7362 31.0649Z" fill="white"/>
<path d="M43.8196 37.6424C44.4464 36.08 43.9166 34.397 42.6361 33.8833C41.3557 33.3696 39.8096 34.2198 39.1828 35.7821C38.556 37.3445 39.0858 39.0275 40.3663 39.5412C41.6467 40.0549 43.1928 39.2048 43.8196 37.6424Z" fill="white"/>
<path d="M30.8348 35.8794C31.4784 35.282 32.8122 35.2183 33.4236 35.7948C36.186 38.4011 38.167 39.4434 40.7578 42.4034C42.5392 44.4387 42.5889 47.9259 40.3226 49.8731C38.3708 51.5505 35.6103 51.5838 33.4807 50.474C32.6562 50.0443 31.6764 50.0648 30.8678 50.5245C27.8864 52.2189 23.2716 51.5132 22.1846 48.2155C21.4758 46.0649 22.0608 44.1697 23.633 42.3588C25.8018 39.8604 28.3674 38.1698 30.8348 35.8794Z" fill="white"/>
<path d="M37.3423 57.4626C35.583 57.4626 33.8034 57.4549 32.0409 57.4356C32.0293 57.4356 32.0177 57.4343 32.0065 57.432C29.8852 57.414 27.7222 57.4179 25.6295 57.4214C22.8576 57.4262 19.9912 57.4314 17.1897 57.3857C17.0833 57.3841 16.9981 57.2964 17 57.1897C17.0016 57.0842 17.0878 57 17.1929 57C17.1939 57 17.1952 57 17.1961 57C19.9941 57.0453 22.8585 57.0405 25.6288 57.0357C27.734 57.0321 29.9106 57.0283 32.0451 57.0466C32.057 57.0466 32.0689 57.0479 32.0804 57.0501C37.0019 57.1035 42.0597 57.0659 46.4154 57.0264C46.5221 57.0241 46.6089 57.1109 46.6099 57.2176C46.6108 57.324 46.5253 57.4111 46.4186 57.4121C43.61 57.4375 40.5096 57.4623 37.342 57.4623L37.3423 57.4626Z" fill="black"/>
</svg>
