<svg width="106" height="72" viewBox="0 0 106 72" fill="none" xmlns="http://www.w3.org/2000/svg">
<g clip-path="url(#clip0_9_195)">
<path d="M105.977 61.4836C105.309 60.8106 104.491 60.4998 103.626 60.4485C102.678 60.1799 101.838 59.9513 100.999 59.4534C98.8192 58.3225 95.7034 55.7484 93.5215 54.1347C90.9467 52.324 88.5559 50.5458 86.9157 48.1618C85.382 45.9385 86.0097 42.8453 88.3273 41.4572C93.0312 38.3429 95.9463 41.8699 99.1979 39.261C99.2002 39.2588 99.4438 39.0611 99.4544 39.0528C100.054 38.5534 100.931 37.8759 101.256 37.5236C101.266 37.5281 101.276 37.5319 101.284 37.5349C101.749 37.0739 101.771 36.6175 101.559 36.0215C101.554 36.0215 101.549 36.023 101.544 36.023C101.352 35.5153 100.957 34.8378 100.378 33.8125C99.5925 31.8601 100.855 30.9404 98.4533 28.2116C98.4518 28.2131 98.4457 28.2177 98.4374 28.2244C97.7652 27.3727 96.9738 26.6168 96.101 26.0011C96.7083 24.4764 97.038 22.4297 95.9516 22.0849C95.6687 21.9951 95.3586 22.0502 95.1119 22.2154C94.5166 22.613 93.5412 23.5047 92.8275 24.4251C92.6094 24.0675 92.3748 23.6918 92.156 23.2905C91.4657 22.023 89.9855 20.1686 89.0651 21.1599C88.3876 21.8895 88.0738 23.4021 88.1719 24.8966C85.4054 26.0283 82.5265 27.6828 79.7547 27.9996C74.9452 28.5292 73.6053 29.1049 69.2288 29.215C65.8852 29.2995 62.4208 29.2776 59.809 28.8619C49.3382 27.2867 37.2009 26.0177 27.0561 28.5934C26.4638 28.7163 25.9606 28.6681 25.3775 28.3836C24.3024 27.8329 23.597 27.2173 22.2435 26.2856C16.9723 22.0487 1.11113 15.6782 4.47439 7.31234C4.48571 7.31385 4.49703 7.31535 4.5091 7.31686C5.19412 5.73708 6.78824 4.23199 7.49212 2.65674C8.25712 0.767637 7.58266 -0.494528 5.95836 0.566204C3.71015 2.45681 2.25787 3.58393 0.84482 5.36515C0.853873 5.37345 0.863681 5.3825 0.872734 5.3908C-0.850389 7.52886 -0.630849 11.1977 0.403477 13.7967C2.99646 20.4266 11.213 26.5028 17.2681 30.0011C18.7098 30.7774 20.5921 31.2708 20.9029 33.077C20.9633 33.4874 20.9565 33.971 20.9029 34.5587C20.6887 36.6779 20.0512 39.1788 19.563 41.3772C19.0251 42.6492 18.1681 43.7763 17.1466 44.619C14.1432 47.0641 10.3031 46.2094 7.89424 49.6481C5.64452 52.6613 3.9214 57.2626 1.93875 60.8137C1.93875 60.8137 1.93875 60.8137 1.93875 60.8152C1.81879 61.0521 1.69959 61.292 1.58794 61.5326C0.959494 62.7714 -0.066534 65.0038 1.68903 65.8804C3.4197 66.699 4.94742 65.688 5.82935 64.1679C6.14848 63.633 6.39669 63.0513 6.5853 62.4598C7.95761 58.5828 9.77654 54.6515 14.7467 54.9351C19.1081 55.4104 24.3876 55.9347 28.8343 54.2026C28.4895 55.301 27.901 56.5685 27.136 57.5937C24.113 62.1867 32.623 68.6002 36.4752 70.1271C36.4752 70.1294 36.4752 70.1317 36.4752 70.1347C37.9659 70.5941 39.3103 70.7239 41.1722 70.7857C41.9946 70.8559 42.6464 70.742 43.139 70.5111C45.5057 69.4217 44.2269 65.5123 40.6456 66.5572C40.1477 66.6552 39.5374 66.6175 38.9716 66.4259C37.3103 65.6413 34.4563 63.5613 35.1074 61.8382C35.8671 60.0871 37.3835 58.8883 38.6419 57.3214C40.4623 55.2097 42.5936 52.4312 43.1036 49.845C45.1323 49.8314 47.139 49.8533 48.7022 49.9649C53.0198 50.2735 57.8429 51.5832 60.8637 52.5572C60.5725 54.1958 60.3635 55.8676 59.9508 57.4957C59.3163 60.4191 57.4423 65.0317 58.2609 68.5187C58.2503 68.5262 58.239 68.533 58.2284 68.5406C58.9904 72.0924 61.5653 72.0932 64.9399 72.1777C65.7592 72.1467 66.7143 72.1384 67.3337 71.6224C68.1017 70.9502 68.1998 69.2475 66.5415 68.6522C66.2081 68.4855 65.7947 68.3731 65.3707 68.3097C65.0033 68.2116 64.6208 68.1203 64.2292 68.0396C62.8388 66.441 64.4057 63.3387 65.3978 61.2874C67.5253 56.6077 70.1726 54.321 73.7177 52.1007C80.8531 54.4108 81.4348 55.9694 90.7875 59.5802C92.2752 60.398 95.1202 62.0026 97.9387 63.1833C97.9387 63.1841 97.9372 63.1848 97.9365 63.1856C100.008 64.0539 101.631 64.6567 103.502 64.7088C105.307 64.8793 106.956 63.1252 105.979 61.4806L105.977 61.4836Z" fill="url(#paint0_radial_9_195)"/>
<mask id="mask0_9_195" style="mask-type:alpha" maskUnits="userSpaceOnUse" x="-1" y="0" width="108" height="73">
<path d="M105.977 61.4836C105.309 60.8106 104.491 60.4998 103.626 60.4485C102.678 60.1799 101.838 59.9513 100.999 59.4534C98.8192 58.3225 95.7034 55.7484 93.5215 54.1347C90.9467 52.324 88.5559 50.5458 86.9157 48.1618C85.382 45.9385 86.0097 42.8453 88.3273 41.4572C93.0312 38.3429 95.9463 41.8699 99.1979 39.261C99.2002 39.2588 99.4438 39.0611 99.4544 39.0528C100.054 38.5534 100.931 37.8759 101.256 37.5236C101.266 37.5281 101.276 37.5319 101.284 37.5349C101.749 37.0739 101.771 36.6175 101.559 36.0215C101.554 36.0215 101.549 36.023 101.544 36.023C101.352 35.5153 100.957 34.8378 100.378 33.8125C99.5925 31.8601 100.855 30.9404 98.4533 28.2116C98.4518 28.2131 98.4457 28.2177 98.4374 28.2244C97.7652 27.3727 96.9738 26.6168 96.101 26.0011C96.7083 24.4764 97.038 22.4297 95.9516 22.0849C95.6687 21.9951 95.3586 22.0502 95.1119 22.2154C94.5166 22.613 93.5412 23.5047 92.8275 24.4251C92.6094 24.0675 92.3748 23.6918 92.156 23.2905C91.4657 22.023 89.9855 20.1686 89.0651 21.1599C88.3876 21.8895 88.0738 23.4021 88.1719 24.8966C85.4054 26.0283 82.5265 27.6828 79.7547 27.9996C74.9452 28.5292 73.6053 29.1049 69.2288 29.215C65.8852 29.2995 62.4208 29.2776 59.809 28.8619C49.3382 27.2867 37.2009 26.0177 27.0561 28.5934C26.4638 28.7163 25.9606 28.6681 25.3775 28.3836C24.3024 27.8329 23.597 27.2173 22.2435 26.2856C16.9723 22.0487 1.11113 15.6782 4.47439 7.31234C4.48571 7.31385 4.49703 7.31535 4.5091 7.31686C5.19412 5.73708 6.78824 4.23199 7.49212 2.65674C8.25712 0.767637 7.58266 -0.494528 5.95836 0.566204C3.71015 2.45681 2.25787 3.58393 0.84482 5.36515C0.853873 5.37345 0.863681 5.3825 0.872734 5.3908C-0.850389 7.52886 -0.630849 11.1977 0.403477 13.7967C2.99646 20.4266 11.213 26.5028 17.2681 30.0011C18.7098 30.7774 20.5921 31.2708 20.9029 33.077C20.9633 33.4874 20.9565 33.971 20.9029 34.5587C20.6887 36.6779 20.0512 39.1788 19.563 41.3772C19.0251 42.6492 18.1681 43.7763 17.1466 44.619C14.1432 47.0641 10.3031 46.2094 7.89424 49.6481C5.64452 52.6613 3.9214 57.2626 1.93875 60.8137C1.93875 60.8137 1.93875 60.8137 1.93875 60.8152C1.81879 61.0521 1.69959 61.292 1.58794 61.5326C0.959494 62.7714 -0.066534 65.0038 1.68903 65.8804C3.4197 66.699 4.94742 65.688 5.82935 64.1679C6.14848 63.633 6.39669 63.0513 6.5853 62.4598C7.95761 58.5828 9.77654 54.6515 14.7467 54.9351C19.1081 55.4104 24.3876 55.9347 28.8343 54.2026C28.4895 55.301 27.901 56.5685 27.136 57.5937C24.113 62.1867 32.623 68.6002 36.4752 70.1271C36.4752 70.1294 36.4752 70.1317 36.4752 70.1347C37.9659 70.5941 39.3103 70.7239 41.1722 70.7857C41.9946 70.8559 42.6464 70.742 43.139 70.5111C45.5057 69.4217 44.2269 65.5123 40.6456 66.5572C40.1477 66.6552 39.5374 66.6175 38.9716 66.4259C37.3103 65.6413 34.4563 63.5613 35.1074 61.8382C35.8671 60.0871 37.3835 58.8883 38.6419 57.3214C40.4623 55.2097 42.5936 52.4312 43.1036 49.845C45.1323 49.8314 47.139 49.8533 48.7022 49.9649C53.0198 50.2735 57.8429 51.5832 60.8637 52.5572C60.5725 54.1958 60.3635 55.8676 59.9508 57.4957C59.3163 60.4191 57.4423 65.0317 58.2609 68.5187C58.2503 68.5262 58.239 68.533 58.2284 68.5406C58.9904 72.0924 61.5653 72.0932 64.9399 72.1777C65.7592 72.1467 66.7143 72.1384 67.3337 71.6224C68.1017 70.9502 68.1998 69.2475 66.5415 68.6522C66.2081 68.4855 65.7947 68.3731 65.3707 68.3097C65.0033 68.2116 64.6208 68.1203 64.2292 68.0396C62.8388 66.441 64.4057 63.3387 65.3978 61.2874C67.5253 56.6077 70.1726 54.321 73.7177 52.1007C80.8531 54.4108 81.4348 55.9694 90.7875 59.5802C92.2752 60.398 95.1202 62.0026 97.9387 63.1833C97.9387 63.1841 97.9372 63.1848 97.9365 63.1856C100.008 64.0539 101.631 64.6567 103.502 64.7088C105.307 64.8793 106.956 63.1252 105.979 61.4806L105.977 61.4836Z" fill="#666666"/>
</mask>
<g mask="url(#mask0_9_195)">
<path d="M41.5096 56.1092C42.7818 53.7658 39.7744 58.0344 37.4266 56.7598C35.0788 55.4851 33.2106 53.5765 31.9383 55.9199C30.6661 58.2632 34.0226 58.5899 36.3704 59.8646C38.7182 61.1392 40.2373 58.4525 41.5096 56.1092Z" fill="#FCBF84"/>
<path d="M40.7236 60.4354C41.3396 58.257 39.5579 62.329 36.9873 61.602C34.4166 60.875 32.142 59.5383 31.5259 61.7167C30.9098 63.8951 34.2019 63.6665 36.7726 64.3935C39.3433 65.1205 40.1075 62.6138 40.7236 60.4354Z" fill="#FCBF84"/>
<path d="M71.6166 54.0212C72.8889 51.6779 69.7744 55.0244 67.4266 53.7498C65.0788 52.4751 62.5812 52.1972 61.9383 52.9099C61.0965 54.5303 64.0226 55.5799 66.3704 56.8546C68.7182 58.1292 70.3444 56.3646 71.6166 54.0212Z" fill="#FCBF84"/>
<path d="M71.5096 59.1092C72.7818 56.7658 69.7744 61.0344 67.4266 59.7598C65.0788 58.4851 63.2106 56.5765 61.9383 58.9199C60.6661 61.2632 64.0226 61.5899 66.3704 62.8646C68.7182 64.1392 70.2373 61.4525 71.5096 59.1092Z" fill="#FCBF84"/>
<path d="M70.7236 63.4354C71.3396 61.257 69.5579 65.329 66.9873 64.602C64.4166 63.875 62.142 62.5383 61.5259 64.7167C60.9098 66.8951 64.2019 66.6665 66.7726 67.3935C69.3433 68.1205 70.1075 65.6138 70.7236 63.4354Z" fill="#FCBF84"/>
<path d="M60.8015 29.0287C64.4894 28.4514 69.9263 29.0047 74.9922 28.8243C73.9038 29.6408 72.665 30.3512 72.4407 31.3294C72.3781 31.5854 72.4606 31.9206 72.688 32.3349C73.5287 33.8659 73.9598 35.3183 71.4508 36.3861C69.1556 37.3612 66.0059 36.6748 64.4067 35.5001C61.82 33.608 60.3215 30.8375 60.8015 29.0287Z" fill="#FCBF84"/>
<path d="M54.4267 23.899C57.8956 24.7153 61.2045 34.4463 54.8429 38.4607C49.9356 41.5574 50.8946 35.4094 48.1478 34.7023C47.4294 34.5135 46.4608 34.4281 45.2419 34.4463C40.7374 34.5136 36.5275 34.2166 33.9181 31.2143C31.5358 28.4687 34.0318 25.707 37.6521 24.7153C43.4847 23.1074 48.1478 22.4213 54.4267 23.899Z" fill="#FCBF84"/>
</g>
</g>
<defs>
<radialGradient id="paint0_radial_9_195" cx="0" cy="0" r="1" gradientUnits="userSpaceOnUse" gradientTransform="translate(55.4888 54.391) rotate(98.1676) scale(17.969 26.6218)">
<stop offset="0.552885" stop-color="#F6F4F1"/>
<stop offset="1" stop-color="#FFDCAC"/>
</radialGradient>
<clipPath id="clip0_9_195">
<rect width="106" height="72" fill="white"/>
</clipPath>
</defs>
</svg>
