<svg width="96" height="24" viewBox="0 0 96 24" fill="none" xmlns="http://www.w3.org/2000/svg">
<path d="M4.05781 9.34393C4.57664 10.6378 4.13785 12.0313 3.07769 12.4566C2.01722 12.8819 0.737184 12.1779 0.218035 10.8843C-0.300793 9.59049 0.137993 8.19698 1.19815 7.7717C2.25863 7.34641 3.53866 8.0504 4.05781 9.34393Z" fill="#1D1D1B"/>
<path d="M7.28 7.97615C8.6089 7.75854 9.47095 6.26779 9.20545 4.64649C8.93995 3.02518 7.64744 1.88726 6.31854 2.10487C4.98964 2.32249 4.12758 3.81323 4.39308 5.43454C4.65858 7.05585 5.9511 8.19377 7.28 7.97615Z" fill="#1D1D1B"/>
<path d="M15.6818 5.43908C15.9473 3.81778 15.0852 2.32703 13.7563 2.10942C12.4274 1.8918 11.1349 3.02972 10.8694 4.65103C10.6039 6.27234 11.466 7.76308 12.7949 7.9807C14.1238 8.19831 15.4163 7.06039 15.6818 5.43908Z" fill="#1D1D1B"/>
<path d="M19.891 10.8858C20.4101 9.59206 19.9713 8.19842 18.911 7.77305C17.8507 7.34768 16.5704 8.05165 16.0514 9.34542C15.5323 10.6392 15.9711 12.0328 17.0314 12.4582C18.0917 12.8836 19.372 12.1796 19.891 10.8858Z" fill="#1D1D1B"/>
<path d="M9.13865 9.42592C9.67163 8.9312 10.7761 8.87848 11.2824 9.35584C13.5699 11.5141 15.2103 12.3772 17.3557 14.8283C18.8308 16.5137 18.872 19.4013 16.9953 21.0137C15.379 22.4027 13.0932 22.4304 11.3297 21.5113C10.6469 21.1555 9.83557 21.1725 9.16598 21.5531C6.69721 22.9563 2.87575 22.3719 1.97568 19.6411C1.3887 17.8602 1.87314 16.2909 3.17503 14.7913C4.97099 12.7224 7.09549 11.3225 9.13865 9.42592Z" fill="#1D1D1B"/>
<path d="M39.757 7.41999C39.757 10.48 37.057 12.12 33.237 12.12C29.417 12.12 26.717 10.46 26.717 7.41999C26.717 4.15999 29.617 2.73999 33.257 2.73999C37.157 2.73999 39.757 4.47999 39.757 7.41999ZM36.437 7.41999C36.437 6.41999 35.417 5.87999 33.217 5.87999C31.137 5.87999 30.037 6.41999 30.037 7.41999C30.037 8.51999 31.237 8.97999 33.217 8.97999C35.317 8.97999 36.437 8.45999 36.437 7.41999ZM26.257 16.14C25.497 16.02 24.757 15.42 24.837 14.34C24.917 13.32 25.917 12.86 26.637 12.96C29.737 13.26 36.917 13.32 39.977 12.96C40.777 12.86 41.697 13.3 41.797 14.4C41.897 15.5 41.077 16.02 40.377 16.14C39.397 16.28 37.317 16.36 34.997 16.38V20.06C34.997 20.8 34.057 21.26 33.297 21.26C32.557 21.26 31.637 20.8 31.637 20.06V16.4C29.397 16.38 27.337 16.3 26.257 16.14Z" fill="#0C100A"/>
<path d="M43.8048 16.48C43.5448 15.42 43.6648 11.76 43.8448 10.92C43.9848 10.26 44.4448 9.69999 44.9848 9.69999H49.9448C49.9448 9.21999 49.9648 8.67999 49.9248 7.87999C49.9248 7.71999 49.9048 7.45999 49.4448 7.45999H45.1848C44.4248 7.45999 44.0248 6.55999 44.0248 5.87999C44.0248 5.19999 44.5048 4.31999 45.1848 4.31999H51.4648C52.0448 4.31999 52.9048 4.77999 53.0648 5.71999C53.2048 6.73999 53.2048 10.12 52.9848 11.36C52.8648 11.96 52.4048 12.84 51.5248 12.84H46.9048C46.9248 13.34 46.9048 14.08 46.9248 14.82C46.9448 15.16 47.1448 15.38 47.6048 15.46C48.1048 15.56 48.5048 15.6 49.1648 15.6C50.3648 15.6 51.3448 15.34 51.7448 15.14C52.3648 14.86 53.7448 15.06 53.9848 16.22C54.1648 17.06 53.4648 17.88 53.0248 18.06C52.0248 18.56 50.4248 18.8 49.0848 18.8C47.4248 18.8 46.0848 18.46 45.3248 18.14C44.7848 17.88 44.0248 17.36 43.8048 16.48ZM58.3048 4.43999C58.6848 7.17999 58.5248 16.64 58.3048 18.86C58.1848 19.66 57.3448 20.32 56.4848 20.24C55.5048 20.14 54.9248 19.36 54.9648 18.56C55.2248 15.52 55.2648 7.87999 54.9648 4.79999C54.8448 3.95999 55.6248 3.15999 56.4248 3.07999C57.3448 2.97999 58.1848 3.59999 58.3048 4.43999Z" fill="#0C100A"/>
<path d="M64.8001 4.91999C64.6801 6.09999 64.4801 7.29999 64.6401 8.71999C64.6601 8.93999 64.7801 9.07999 65.0401 9.11999C65.5001 9.21999 66.1401 9.25999 66.8601 9.25999C68.0801 9.25999 69.4201 8.95999 69.8801 8.79999C70.6001 8.55999 71.7801 8.65999 72.0801 9.89999C72.3001 10.82 71.5601 11.52 71.1201 11.7C70.1001 12.2 68.1001 12.42 66.7801 12.42C65.3801 12.42 63.8001 12.2 63.0001 11.84C62.5001 11.58 61.6801 11.06 61.5001 10.14C61.1801 8.43999 61.3201 6.05999 61.5201 4.57999C61.6401 3.87999 62.3401 3.19999 63.4201 3.29999C64.6001 3.39999 64.8401 4.49999 64.8001 4.91999ZM76.3201 4.45999C76.3201 4.55999 76.3401 4.63999 76.3401 4.73999H77.5001C78.2201 4.73999 78.8001 5.41999 78.8001 6.19999C78.8001 6.87999 78.4001 7.69999 77.6001 7.69999H76.5001C76.5001 7.97999 76.4801 8.25999 76.4801 8.53999H77.5001C78.2201 8.53999 78.8001 9.21999 78.8001 9.99999C78.8001 10.68 78.4001 11.5 77.6001 11.5H76.3201C76.2201 12.34 75.4601 13.02 74.5001 12.9C73.5001 12.78 72.9401 12.02 72.9801 11.22C73.1801 8.79999 73.1601 7.23999 72.9801 4.73999C72.9401 3.95999 73.4601 3.19999 74.4401 3.07999C75.4201 2.95999 76.2001 3.59999 76.3201 4.45999ZM76.7601 17.18C76.7601 20.08 73.5201 21.24 69.4401 21.24C65.4401 21.24 62.1201 20.08 62.1201 17.18C62.1201 14.28 65.3801 13.12 69.4401 13.12C73.4801 13.12 76.7601 14.28 76.7601 17.18ZM73.4001 17.18C73.4001 16.4 72.4601 16 69.4201 16C66.3801 16 65.4801 16.4 65.4801 17.18C65.4801 17.98 66.3801 18.36 69.4201 18.36C72.4801 18.36 73.4001 17.96 73.4001 17.18Z" fill="#0C100A"/>
<path d="M90.2487 11.34C90.2487 15.62 88.6687 18.82 84.9287 18.8C81.0287 18.82 79.6087 15.52 79.6087 11.32C79.6087 7.13999 81.0287 3.85999 84.9287 3.83999C88.9087 3.85999 90.2487 7.41999 90.2487 11.34ZM86.8887 11.36C86.8887 8.25999 86.3087 7.03999 84.9087 7.03999C83.6287 7.03999 82.9687 8.17999 82.9687 11.36C82.9687 14.34 83.5087 15.6 84.9087 15.6C86.3287 15.6 86.8887 14.34 86.8887 11.36ZM94.8087 4.43999C95.1887 7.17999 95.0287 16.64 94.8087 18.86C94.6887 19.66 93.8487 20.32 92.9887 20.24C92.0087 20.14 91.4287 19.36 91.4687 18.56C91.7287 15.52 91.7687 7.87999 91.4687 4.79999C91.3487 3.95999 92.1287 3.15999 92.9287 3.07999C93.8487 2.97999 94.6887 3.59999 94.8087 4.43999Z" fill="#0C100A"/>
</svg>
