<svg width="167" height="73" viewBox="0 0 167 73" fill="none" xmlns="http://www.w3.org/2000/svg">
<path d="M46.877 63.0903C48.3855 61.7065 49.3848 60.1052 49.8749 58.2854C50.2096 57.0457 50.0841 56.0234 50.0805 54.6285C50.0781 53.6148 50.3614 52.1528 51.2328 51.5689C51.5961 51.3259 52.0743 51.365 52.3946 51.663C52.9242 52.1601 53.07 52.7097 53.321 53.3729C54.5092 56.5021 54.8546 59.7486 54.3562 63.1111L58.9988 62.8973C59.9754 61.4024 60.5731 59.795 60.7918 58.0753C60.958 56.7782 60.5922 55.4921 60.4631 54.2694C60.3089 52.8123 60.64 51.586 61.4553 50.5894C62.8311 48.9112 64.3898 50.6102 64.636 52.1174C65.0006 54.3598 65.5266 56.5754 66.2151 58.7629C66.3776 59.2771 66.4374 59.966 66.3956 60.8295C71.9563 57.8273 75.2028 52.4178 75.137 45.9237C75.1083 43.0888 75.1155 37.2262 75.1574 28.3381C75.1729 25.1466 75.0306 22.9042 74.7306 21.6107C74.0062 18.4791 72.3651 15.7871 69.8082 13.5325C69.9624 16.6189 69.0755 19.5331 67.6889 22.2715C66.8307 23.9729 65.2182 24.6153 64.1137 22.6281C62.9064 20.4541 63.1921 18.1041 63.6869 15.6894C63.8208 15.0372 63.8782 14.4925 63.8591 14.0552C63.7933 12.3917 63.0642 11.1788 62.5573 9.64722C61.0548 9.20263 59.4746 8.98156 57.8179 8.984C58.553 10.6671 58.3725 12.5761 57.9242 14.2738C57.6744 15.2204 57.2298 17.585 56.5914 21.3677C56.3141 23.0129 55.4212 26.9592 53.2421 26.5732C51.7515 26.3106 50.9997 23.6737 50.9029 22.3973C50.8574 21.8171 50.8861 20.5041 50.9913 18.4608C51.1646 15.0592 50.212 11.886 48.1309 8.94125C46.5614 8.96324 44.9788 8.87896 43.383 8.68965C39.962 8.28048 36.8649 6.94184 34.2411 4.69449C32.4911 3.19462 30.6061 1.66911 28.0194 0.757951C22.9022 -1.04848 17.2698 0.392756 14.0866 4.88136C12.492 7.12994 11.8932 9.82921 12.2876 12.9804C12.3295 13.3212 12.094 13.6326 11.7593 13.6766C11.7509 13.6766 11.7426 13.679 11.7354 13.679C8.7088 13.9343 6.11134 15.0641 3.94062 17.0696C-1.59736 22.1848 -1.27342 30.9055 4.75584 35.4674C5.3045 35.8827 5.13356 36.3089 4.63631 36.7095C1.70057 39.0607 -0.0326646 42.4305 0.0247115 46.2999C0.10719 51.8792 3.87129 56.1431 8.87735 57.8713C9.6053 58.1229 10.4994 58.2756 11.5573 58.3306C12.0737 58.3562 12.2996 58.6823 12.2326 59.3101C12.0342 61.1471 12.1657 62.7544 12.6271 64.1297C15.5593 72.8749 25.6993 74.1048 32.2174 68.9469C33.7271 67.7524 34.8746 66.8632 35.6588 66.2781C37.5486 64.8699 39.7133 63.9355 42.1518 63.4751C43.6448 63.1941 45.2202 63.0671 46.877 63.0928L46.877 63.0903ZM7.34493 47.7167C6.68511 44.8892 8.91799 41.9224 12.3307 41.0919C15.7433 40.2613 19.0448 41.8797 19.7047 44.7084C20.3645 47.5359 18.1316 50.5027 14.7189 51.3332C11.3063 52.1638 8.00475 50.5454 7.34493 47.7167ZM7.43577 24.117C8.21513 21.3029 11.5884 19.8141 14.9712 20.7924C18.3527 21.7707 20.4637 24.845 19.6843 27.659C18.905 30.4731 15.5318 31.962 12.149 30.9837C8.76738 30.0053 6.65642 26.9311 7.43577 24.117ZM19.3999 62.239C18.4591 59.5104 20.4123 56.3214 23.7628 55.1171C27.1122 53.9116 30.5906 55.1464 31.5301 57.875C32.4708 60.6036 30.5177 63.7926 27.1683 64.9969C23.819 66.2024 20.3394 64.9676 19.3999 62.239ZM19.529 9.49577C20.588 6.80505 24.1131 5.71801 27.4038 7.07009C30.6946 8.42217 32.5031 11.6992 31.4452 14.3899C30.3862 17.0806 26.8611 18.1676 23.5704 16.8156C20.2796 15.4635 18.4711 12.1865 19.529 9.49577ZM42.1972 36.0439C42.2032 37.7892 42.7949 38.8054 43.6077 40.7694C44.9346 43.9756 43.9819 47.2281 41.0904 48.9613C37.5833 51.0633 33.5311 50.0837 31.3137 46.6614C30.7591 45.8052 30.2212 44.0489 29.1454 43.2623C26.591 41.3923 24.2768 39.3575 24.2708 36.0866C24.2625 32.8133 26.5683 30.7675 29.1131 28.8853C30.1853 28.0939 30.7149 26.3338 31.2635 25.474C33.4665 22.0394 37.5139 21.0428 41.0318 23.1301C43.9293 24.8486 44.8963 28.0963 43.5862 31.3073C42.783 33.2738 42.1937 34.2973 42.1961 36.0427L42.1972 36.0439Z" fill="#636383"/>
<path d="M14.7189 51.3332C11.3056 52.1641 8.0041 50.545 7.3447 47.7168C6.68531 44.8886 8.91775 41.9223 12.331 41.0915C15.7442 40.2606 19.0458 41.8797 19.7052 44.7079C20.3646 47.5361 18.1321 50.5023 14.7189 51.3332Z" fill="#FEA99C"/>
<path d="M19.6821 27.6587C18.9027 30.473 15.5293 31.9618 12.1474 30.984C8.76547 30.0061 6.6557 26.9319 7.4351 24.1176C8.21449 21.3032 11.5879 19.8144 14.9698 20.7923C18.3517 21.7701 20.4615 24.8443 19.6821 27.6587Z" fill="#FEA99C"/>
<path d="M27.1671 64.9964C23.8177 66.2016 20.3402 64.9669 19.3999 62.2387C18.4596 59.5104 20.4126 56.3217 23.762 55.1165C27.1114 53.9112 30.5889 55.1459 31.5292 57.8742C32.4695 60.6024 30.5165 63.7911 27.1671 64.9964Z" fill="#FEA99C"/>
<path d="M31.4446 14.3912C30.3857 17.0825 26.86 18.1685 23.5695 16.8169C20.279 15.4653 18.4699 12.1879 19.5287 9.49663C20.5875 6.80536 24.1133 5.71934 27.4037 7.07094C30.6942 8.42254 32.5034 11.6999 31.4446 14.3912Z" fill="#FEA99C"/>
<path d="M42.1971 36.0441C42.1947 34.2988 42.784 33.2765 43.5873 31.3088C44.8973 28.0965 43.9303 24.8501 41.0328 23.1316C37.515 21.0442 33.4676 22.0409 31.2646 25.4754C30.7159 26.3353 30.1864 28.0941 29.1142 28.8868C26.5681 30.7689 24.2635 32.8148 24.2719 36.0881C24.2779 39.359 26.592 41.3926 29.1464 43.2638C30.2222 44.0503 30.7601 45.8067 31.3148 46.6629C33.5321 50.0852 37.5843 51.0648 41.0914 48.9628C43.9829 47.2296 44.9356 43.977 43.6088 40.7709C42.7959 38.8069 42.2043 37.7895 42.1983 36.0453L42.1971 36.0441Z" fill="#FEA99C"/>
<path d="M167 31.2034C167 19.098 157.196 9.2796 145.091 9.26171L48.3958 9.11879L47 63.1188H145.058C157.176 63.1188 167 53.2951 167 41.177V31.2034Z" fill="#636383"/>
</svg>
