<svg preserveAspectRatio="none" width="100%" height="100%" overflow="visible" style="display: block;" viewBox="0 0 46.1025 35.4524" fill="none" xmlns="http://www.w3.org/2000/svg">
<g id="Group 7">
<path id="Vector 2" d="M6.12127 1.56988L18.0375 5.26801L8.19132 12.4065C6.83961 10.0892 5.28592 6.35818 4.3621 3.23346C4.04531 2.16196 5.05414 1.2387 6.12127 1.56988Z" fill="var(--fill-0, #D9D9D9)"/>
<path id="Vector 7" d="M11.6478 9.45257C8.10318 7.68026 5.576 3.95513 4.75549 2.3141C4.55857 4.28334 7.13498 10.0269 8.4478 12.6526L11.6478 9.45257Z" fill="var(--fill-0, white)"/>
<path id="Ellipse 4194" d="M42.4065 21.7603C42.4065 31.2766 32.4767 33.8218 22.9604 33.8218C13.4441 33.8218 4.745 31.2766 4.745 21.7603C4.745 12.244 16.0681 4.52949 23.4527 4.52949C30.8373 4.52949 42.4065 12.244 42.4065 21.7603Z" fill="var(--fill-0, white)"/>
<path id="Vector 3" d="M41.2766 1.32367L29.3604 5.0218C29.3604 5.0218 13.9763 3.95261 26.5915 14.4526C39.2066 24.9526 39.2066 12.1603 39.2066 12.1603C40.5583 9.84304 42.112 6.11197 43.0358 2.98725C43.3526 1.91576 42.3438 0.992493 41.2766 1.32367Z" fill="var(--fill-0, #D9D9D9)"/>
<path id="Vector 6" d="M35.7603 9.45257C39.3049 7.68026 41.832 3.95513 42.6526 2.3141C42.8495 4.28334 40.2731 10.0269 38.9603 12.6526L35.7603 9.45257Z" fill="var(--fill-0, white)"/>
<path id="Ellipse 4198" d="M40.5913 11.9526C40.5913 12.781 40.1436 13.4526 39.5913 13.4526C39.039 13.4526 38.5913 12.781 38.5913 11.9526C38.5913 11.1242 39.039 10.4526 39.5913 10.4526C40.1436 10.4526 40.5913 11.1242 40.5913 11.9526Z" fill="var(--fill-0, black)"/>
<path id="Union" fill-rule="evenodd" clip-rule="evenodd" d="M42.2598 0.00399895C42.5827 -0.0212268 42.8964 0.0738228 43.1465 0.262788L43.25 0.349702L43.3428 0.436616C43.5214 0.603281 43.6297 0.79116 43.6943 0.969819C43.7385 1.00181 43.7823 1.03673 43.8242 1.07529L43.9043 1.15439L43.9463 1.20029L43.9883 1.24521C44.1054 1.37149 44.2002 1.51497 44.2715 1.67001L44.2979 1.72666L44.3232 1.7833C44.3461 1.83298 44.3673 1.88309 44.3857 1.93369L44.4346 2.08798L44.4521 2.14951L44.4688 2.21103C44.5528 2.5158 44.5284 2.82819 44.416 3.10751C44.4615 3.46017 44.3647 3.82891 44.1152 4.11826C44.0238 4.22418 43.9242 4.30303 43.8311 4.36337C43.823 4.39358 43.8135 4.42364 43.8037 4.45322C43.8443 4.62156 43.8609 4.8272 43.8047 5.05771C43.743 5.31002 43.6196 5.49818 43.4863 5.63681C43.5017 5.77029 43.5002 5.92413 43.459 6.08994C43.4391 6.16968 43.4125 6.24472 43.3809 6.31357C43.3784 6.4825 43.3416 6.67029 43.2441 6.86435L43.2188 6.91416L43.1943 6.96494C43.1003 7.15186 42.9761 7.29299 42.8506 7.39853C42.8645 7.59401 42.8381 7.82084 42.7285 8.04697C42.6878 8.1308 42.6376 8.20322 42.5869 8.26865C42.5333 8.42164 42.4533 8.55946 42.3545 8.6788C42.3563 8.74737 42.3531 8.82092 42.3418 8.89755C42.2842 9.28834 42.0922 9.53869 41.8857 9.69833C41.8463 9.79692 41.7984 9.88447 41.7441 9.96103C41.7805 10.2623 41.7283 10.6616 41.3994 11.004C41.3694 11.0352 41.3366 11.0625 41.3057 11.089C41.263 11.3521 41.1451 11.6067 40.9502 11.8165L40.8721 11.9005C40.8376 11.9375 40.8005 11.9715 40.7646 12.003C40.7508 12.1606 40.7056 12.3372 40.6035 12.5157C40.5733 12.5685 40.5401 12.617 40.5059 12.6612C40.513 12.6693 40.5184 12.6792 40.5254 12.6876C40.5792 12.6692 40.6362 12.6523 40.6973 12.6407L40.8018 12.6212L40.9053 12.6017L41.0879 12.5802C41.1432 12.5777 41.1966 12.5797 41.248 12.5841C41.2872 12.571 41.3281 12.5586 41.3711 12.5489C41.6491 12.4865 41.8971 12.5273 42.0947 12.6036C42.1999 12.5788 42.3159 12.5642 42.4434 12.5704C42.6193 12.579 42.7692 12.624 42.8945 12.6808C42.9464 12.6446 43.0051 12.6094 43.0703 12.5782C43.3713 12.4345 43.7151 12.4192 44.0254 12.5304C44.0894 12.5533 44.1476 12.5808 44.2002 12.6095C44.2327 12.6049 44.266 12.5989 44.2998 12.5968L44.4033 12.5909L44.5078 12.5841C44.7124 12.5713 44.8889 12.6085 45.0361 12.6651C45.4562 12.7226 45.8121 12.9932 45.9854 13.3702L46.1025 13.4894L46.0977 14.0001L46.0967 14.0899C46.0961 14.1519 46.0966 14.4992 45.8438 14.8311C45.6902 15.0325 45.4621 15.2013 45.1758 15.2765C44.91 15.3461 44.6822 15.312 44.54 15.2735C44.5159 15.267 44.4932 15.2567 44.4707 15.2491C44.362 15.3065 44.2317 15.3547 44.0801 15.378C43.8071 15.42 43.5662 15.3636 43.3779 15.2784C43.1715 15.3664 42.918 15.4126 42.6328 15.3546L42.5273 15.3331L42.4814 15.3233C42.502 15.3669 42.5209 15.412 42.5371 15.4591L42.5771 15.5968L42.5898 15.6534L42.6035 15.7101C42.6433 15.8807 42.6492 16.0453 42.6377 16.1964C42.8146 16.3535 42.9717 16.5753 43.04 16.8595L43.0674 17.0177L43.0742 17.0753L43.0801 17.1261C43.0893 17.1419 43.0967 17.1592 43.1055 17.1759C43.154 17.1737 43.2041 17.173 43.2559 17.1769L43.3604 17.1856L43.4648 17.1935C43.4976 17.1959 43.5303 17.2008 43.5625 17.2052C43.7268 17.1195 43.9402 17.0548 44.1914 17.0655C44.5126 17.0794 44.7545 17.2124 44.9053 17.3302C45.2641 17.3408 45.5836 17.5056 45.8018 17.7599L46.0986 17.9493V18.6778L46.0889 18.838C46.0432 19.1958 45.8514 19.4482 45.7041 19.586C45.5502 19.7299 45.3956 19.801 45.3232 19.8311L45.2178 19.8751L45.1133 19.9181C44.8592 20.0239 44.5799 20.0412 44.3164 19.9727C44.3131 19.974 44.3099 19.9764 44.3066 19.9776C44.107 20.0508 43.9063 20.0672 43.7188 20.0421C43.7253 20.0955 43.7292 20.1496 43.7295 20.2042C43.7624 20.3022 43.7834 20.404 43.792 20.5079C43.8714 20.6673 43.9292 20.8651 43.9238 21.0938C43.916 21.4198 43.7841 21.6655 43.6729 21.8145C43.6726 21.8606 43.6726 21.9084 43.667 21.9571L43.6611 22.0069C43.7107 22.1425 43.7447 22.301 43.7373 22.4845C43.7304 22.6536 43.69 22.7992 43.6367 22.9239L43.668 23.002L43.6875 23.0616L43.708 23.1202C43.8486 23.5421 43.7537 23.9693 43.5215 24.2862C43.603 24.5183 43.6343 24.8205 43.4883 25.1671C43.4116 25.3487 43.304 25.4842 43.1992 25.5841C43.1707 25.6947 43.1243 25.8088 43.0547 25.9239L43.0635 26.0382C43.0795 26.2395 43.0501 26.4774 42.9336 26.712C42.8415 26.8972 42.7154 27.0361 42.5898 27.1378C42.5787 27.238 42.5559 27.346 42.5127 27.4571C42.4856 27.5267 42.4516 27.5903 42.416 27.6495C42.4005 27.718 42.3793 27.7897 42.3486 27.8624C42.2121 28.1859 41.9693 28.3943 41.7393 28.5079C41.7196 28.5176 41.6982 28.5239 41.6787 28.5323C41.6787 28.5364 41.6797 28.5409 41.6797 28.545C41.6742 28.8154 41.5742 29.2046 41.2236 29.4952C41.1184 29.5823 41.009 29.6415 40.9062 29.6847C40.7947 29.7923 40.6627 29.8807 40.5127 29.9425C40.4187 30.0394 40.3049 30.1245 40.1689 30.1925C40.1521 30.2808 40.1265 30.3804 40.0791 30.4835C39.9476 30.7691 39.704 31.0134 39.377 31.1339C39.2283 31.1886 39.0887 31.2064 38.9717 31.2091C38.8537 31.2936 38.7214 31.3614 38.5762 31.4034L38.5361 31.4142C38.4982 31.449 38.458 31.4846 38.4131 31.5167C38.3617 31.5534 38.308 31.5842 38.2559 31.6114V31.6134C38.166 31.7633 38.0399 31.8992 37.8848 32.006C37.7784 32.2565 37.5693 32.5534 37.1445 32.7022C36.9808 32.7595 36.8265 32.7752 36.6924 32.7716C36.4818 32.8517 36.2744 32.867 36.0986 32.8497C35.8714 32.9 35.666 32.8805 35.4941 32.836C35.4826 32.8459 35.4712 32.8576 35.459 32.8673C35.3001 32.9927 35.1253 33.0709 34.9502 33.1114C34.9026 33.2341 34.8254 33.3867 34.6914 33.5294C34.5483 33.6816 34.3421 33.8233 34.0771 33.8888C33.8574 33.9429 33.6571 33.9281 33.4971 33.8917C33.4205 33.9557 33.332 34.0186 33.2256 34.0685C32.957 34.1941 32.7084 34.2029 32.501 34.1681L32.4824 34.1749C32.3166 34.2316 32.1599 34.2486 32.0166 34.2442C31.9866 34.271 31.9542 34.2988 31.9189 34.3243C31.6554 34.515 31.3199 34.6005 30.9834 34.545C30.981 34.5445 30.9779 34.5435 30.9756 34.5431C30.7715 34.6711 30.5052 34.7612 30.1904 34.7315C30.1541 34.7281 30.1189 34.721 30.085 34.7149C29.9413 34.7416 29.7838 34.7476 29.6143 34.714L29.6113 34.713C29.5163 34.7447 29.4127 34.7666 29.3018 34.7745C29.1165 34.8701 28.8869 34.9341 28.6201 34.9112C28.483 34.8994 28.3623 34.8658 28.2588 34.8243C28.0808 34.8497 27.8953 34.8379 27.7148 34.7833C27.6993 34.7785 27.6839 34.7719 27.6689 34.7667C27.5602 34.8164 27.4362 34.8559 27.2959 34.8751L27.2412 34.8829L27.2207 34.8849C27.1333 34.9811 27.0127 35.0863 26.8506 35.1681C26.6198 35.2843 26.3805 35.317 26.1582 35.294C25.916 35.3961 25.6272 35.432 25.3301 35.3497C25.2607 35.3304 25.1969 35.3052 25.1387 35.2784C25.0554 35.3264 24.9598 35.373 24.8486 35.4044C24.5509 35.4883 24.2543 35.4563 24.0068 35.3517L23.9502 35.3282L23.8936 35.3038C23.8103 35.2685 23.7361 35.2268 23.6709 35.1827C23.6085 35.225 23.5395 35.2674 23.4609 35.3009C23.2436 35.3933 23.0018 35.4218 22.7646 35.3819C22.5348 35.4277 22.3166 35.4049 22.126 35.3409C22.0043 35.3692 21.8699 35.3841 21.7256 35.3712C21.5811 35.3581 21.4532 35.3205 21.3428 35.2735L21.3379 35.2765C20.9064 35.3992 20.5505 35.274 20.3086 35.1153C20.0869 35.2445 19.7596 35.3435 19.3857 35.2579C19.2279 35.2216 19.0958 35.1595 18.9883 35.0909C18.8921 35.1083 18.7876 35.1195 18.6758 35.1114C18.4608 35.0957 18.2774 35.0279 18.1318 34.9425C17.755 35.0266 17.3702 34.9319 17.0811 34.7042C17.0408 34.6912 16.999 34.677 16.958 34.6593C16.8729 34.6223 16.7981 34.5771 16.7314 34.5304C16.6791 34.5457 16.623 34.5595 16.5635 34.5685C16.4058 34.592 16.253 34.5827 16.1104 34.5518C16.1038 34.5545 16.0975 34.5591 16.0908 34.5616C15.9216 34.6241 15.7215 34.6555 15.5127 34.6329C15.2893 34.686 15.0397 34.6822 14.7988 34.5968C14.6477 34.603 14.4947 34.5815 14.3477 34.5323C14.1802 34.5361 13.9962 34.5086 13.8086 34.4249C13.7177 34.3843 13.6383 34.3356 13.5693 34.2843C13.2162 34.305 12.8793 34.1843 12.626 33.9581C12.4566 33.8068 12.3564 33.6383 12.2969 33.5089C12.1546 33.4564 12.0198 33.3808 11.8994 33.2804L11.8926 33.2784L11.8398 33.2628C11.7463 33.2357 11.662 33.1981 11.585 33.1573C11.4617 33.1716 11.324 33.1722 11.1807 33.1436C10.9377 33.2393 10.5399 33.3261 10.1016 33.1173L10.0498 33.0929L9.99805 33.0675C9.65344 32.903 9.47278 32.6395 9.37793 32.4259C9.19707 32.36 9.05494 32.2646 8.94434 32.1573C8.91343 32.1497 8.88051 32.1444 8.84863 32.1339C8.62794 32.0607 8.44023 31.9312 8.29688 31.7696C8.06475 31.747 7.77347 31.6578 7.52441 31.4102C7.38119 31.2678 7.29281 31.1131 7.23828 30.9727C7.20629 30.959 7.17193 30.9468 7.13965 30.9298L7.08789 30.9024L7.03516 30.8751C6.8153 30.7591 6.66407 30.61 6.55957 30.4532C6.36095 30.3713 6.1488 30.2275 5.98633 29.9688C5.93305 29.884 5.89608 29.798 5.86719 29.7159C5.66606 29.6225 5.45412 29.4615 5.2998 29.1866L5.27051 29.1358L5.24219 29.0851C5.00425 28.6608 5.07913 28.2556 5.12988 28.0772C5.10797 28.0607 5.08528 28.0434 5.06348 28.0245C4.8247 27.9533 4.33422 27.7373 4.18555 27.1183C4.07755 26.9666 3.9966 26.7846 3.96582 26.5782C3.96215 26.5535 3.96015 26.5288 3.95801 26.505C3.89653 26.3773 3.84995 26.2297 3.83691 26.0587C3.83305 26.0078 3.83306 25.9585 3.83496 25.9112C3.7944 25.7912 3.76918 25.6556 3.76953 25.504C3.76956 25.5002 3.77044 25.4961 3.77051 25.4923C3.72661 25.387 3.6931 25.2679 3.67871 25.1339L3.67285 25.0782L3.66602 25.0226C3.66511 25.0139 3.66579 25.0047 3.66504 24.9962C3.58533 24.8954 3.5083 24.7699 3.45605 24.6144C3.37122 24.3616 3.3787 24.1214 3.42676 23.919C3.32428 23.7266 3.25653 23.4857 3.28125 23.211C3.29272 23.0845 3.32199 22.9712 3.35938 22.8731C3.31017 22.7485 3.27358 22.6038 3.27051 22.4376C3.26698 22.2424 3.30828 22.0749 3.36621 21.9356C3.34732 21.8438 3.33818 21.7444 3.3418 21.6378L3.31641 21.6485C3.23756 21.6812 3.15566 21.7074 3.07129 21.7257L2.96875 21.7481L2.86621 21.7696C2.5938 21.8286 2.36091 21.7891 2.18262 21.7247C2.09426 21.8005 1.91707 21.9326 1.6543 21.9933C1.28897 22.0774 0.899885 21.991 0.601562 21.7511C0.361778 21.558 0.26028 21.3302 0.222656 21.2335L0.19043 21.1495L0.151367 21.0499C0.147947 21.041 0.144841 21.0316 0.141602 21.0226L0 20.6593L0.0732422 20.502C0.115455 19.9995 0.465279 19.5542 0.980469 19.4161L1.07715 19.3897L1.14453 19.3712C1.23398 19.2343 1.38593 19.0592 1.63184 18.9366C2.00644 18.75 2.37781 18.7915 2.62988 18.8878C2.67197 18.9039 2.71069 18.9231 2.74707 18.9415L2.87305 18.9083C3.03663 18.7741 3.24367 18.6727 3.47852 18.6368L3.5332 18.5919L3.62793 18.5186C3.68802 18.4769 3.75215 18.4403 3.81934 18.4093C3.77309 18.1927 3.77275 17.919 3.90137 17.6349C3.93941 17.5509 3.98475 17.477 4.03223 17.4122C4.05243 17.2199 4.10915 17.0278 4.20996 16.8497L4.23828 16.7999L4.25 16.7804C4.24767 16.7625 4.24379 16.7443 4.24219 16.7257C4.21395 16.3944 4.31825 16.0385 4.5752 15.7647C4.57937 15.7603 4.58466 15.7564 4.58887 15.752C4.58416 15.7492 4.57883 15.7471 4.57422 15.7442C4.36673 15.7548 4.17996 15.7129 4.02246 15.6456L4.01172 15.6476L3.90723 15.6583C3.86309 15.6629 3.81993 15.6647 3.77832 15.6651C3.6388 15.7294 3.46927 15.7801 3.27246 15.7823C3.08041 15.7844 2.91288 15.7396 2.77246 15.6798C2.72549 15.6897 2.67645 15.6984 2.625 15.7032L2.41504 15.7227C2.39299 15.7248 2.37109 15.7238 2.34961 15.7247C2.23266 15.7842 2.09258 15.8342 1.92676 15.8526C1.38356 15.9129 1.02296 15.6161 0.881836 15.4649C0.841928 15.4221 0.80834 15.3785 0.779297 15.338C0.575218 15.1754 0.424944 14.9492 0.356445 14.6895L0.314453 14.6319V14.1173C0.314461 14.0794 0.315538 13.9987 0.333008 13.8995C0.342983 13.8428 0.390296 13.5629 0.619141 13.3009C0.756075 13.1442 0.969749 12.9828 1.26172 12.9132C1.40932 12.878 1.5473 12.8744 1.66992 12.8868L1.67285 12.8858C2.05392 12.7678 2.39721 12.8537 2.64453 12.9913C2.74386 12.9804 2.8379 12.9807 2.92676 12.9913C3.00868 12.947 3.10331 12.9056 3.21191 12.878C3.50889 12.8028 3.75769 12.8379 3.95801 12.9171C4.12081 12.8771 4.30959 12.8673 4.52246 12.9151C4.6528 12.9445 4.76506 12.9926 4.86133 13.047C4.94135 13.0003 5.03437 12.9577 5.14062 12.9269C5.47812 12.829 5.77819 12.889 6.00781 12.9962C6.09505 12.961 6.19304 12.9329 6.30176 12.9181C6.31498 12.9034 6.32755 12.8877 6.3418 12.8731C6.44176 12.7712 6.54765 12.6954 6.65137 12.6407C6.65715 12.634 6.66405 12.6277 6.66992 12.6212C6.67839 12.5987 6.68943 12.5769 6.69922 12.5548C6.66166 12.4484 6.6403 12.3453 6.63184 12.2491C6.59598 12.2176 6.55882 12.1836 6.52441 12.1466L6.44629 12.0626C6.2515 11.8528 6.13345 11.5981 6.09082 11.3351C6.05989 11.3086 6.02706 11.2813 5.99707 11.2501C5.66851 10.9078 5.61602 10.5083 5.65234 10.2071C5.59808 10.1306 5.5501 10.043 5.51074 9.94443C5.30441 9.78475 5.11224 9.53425 5.05469 9.14365C5.04345 9.06707 5.04018 8.99342 5.04199 8.9249C4.94329 8.80556 4.86312 8.66769 4.80957 8.51474C4.75895 8.44933 4.70862 8.37688 4.66797 8.29306C4.55848 8.06705 4.53201 7.84002 4.5459 7.64462C4.42044 7.53906 4.29614 7.3979 4.20215 7.21103L4.17773 7.16025L4.15234 7.11044C4.05494 6.91647 4.01807 6.72852 4.01562 6.55966C3.98404 6.49081 3.95734 6.41576 3.9375 6.33603C3.89635 6.17033 3.89475 6.01631 3.91016 5.88291C3.77696 5.74426 3.65339 5.55603 3.5918 5.3038C3.53566 5.07346 3.55218 4.86757 3.59277 4.69931C3.58298 4.66973 3.57347 4.63968 3.56543 4.60947C3.47238 4.54911 3.37259 4.47026 3.28125 4.36435C3.03202 4.07509 2.93503 3.70609 2.98047 3.35361C2.86815 3.07442 2.84377 2.76173 2.92773 2.45712L2.94434 2.3956L2.96191 2.33408L3.01074 2.17978C3.02911 2.12929 3.05048 2.07898 3.07324 2.02939L3.09863 1.97275L3.125 1.91611C3.19622 1.76117 3.29121 1.61752 3.4082 1.4913L3.4502 1.44638L3.49219 1.40048L3.57227 1.32138C3.6141 1.28285 3.65805 1.24789 3.70215 1.21591C3.76673 1.03736 3.87527 0.849299 4.05371 0.68271L4.14648 0.595796L4.25 0.508882C4.49995 0.319892 4.81386 0.225038 5.13672 0.250093C5.3818 0.269335 5.5753 0.353754 5.70508 0.427827C5.75213 0.418058 5.79949 0.409725 5.8457 0.403413L5.96094 0.387788C6.22447 0.351898 6.50286 0.388617 6.76172 0.510835L6.8125 0.534272L6.86328 0.558686C6.91922 0.585142 6.97319 0.616063 7.02637 0.646577C7.14362 0.646566 7.26699 0.662877 7.39355 0.696382C7.65305 0.691107 7.89166 0.7627 8.0918 0.883882C8.40115 0.81604 8.75216 0.857529 9.05664 1.04892L9.18652 1.14365L9.2334 1.18076L9.25977 1.20224L9.28418 1.21787L9.29688 1.22568C9.40698 1.22032 9.52741 1.22914 9.65332 1.25888C9.78707 1.29058 9.90733 1.34139 10.0117 1.40341C10.0412 1.40148 10.0718 1.39753 10.1025 1.39755H10.2188C10.4475 1.39825 10.6441 1.45893 10.8086 1.54599C11.1024 1.57279 11.3438 1.69514 11.5215 1.8497C11.6293 1.86933 11.7283 1.90219 11.8184 1.94248C11.8953 1.93402 11.9778 1.93045 12.0645 1.93759C12.3248 1.95922 12.5285 2.04798 12.6865 2.16025C12.8394 2.17415 13.0044 2.21596 13.1729 2.30673C13.2823 2.36583 13.3742 2.43532 13.4502 2.50791C13.5295 2.49574 13.6166 2.49137 13.709 2.49619C14.013 2.51221 14.2577 2.63253 14.4395 2.78134C14.567 2.77754 14.7084 2.79151 14.8574 2.83896C15.061 2.90391 15.2163 3.00955 15.334 3.12021C15.5511 3.13354 15.7528 3.20255 15.9268 3.30869C16.0157 3.29044 16.1156 3.27982 16.2236 3.2833C16.6343 3.29679 16.9124 3.47492 17.0947 3.67099L17.2383 3.71396L17.291 3.73251L17.3428 3.75107C17.3754 3.7627 17.4071 3.77668 17.4375 3.79013C17.621 3.76031 17.8388 3.76465 18.0752 3.85068C18.2173 3.9025 18.3345 3.97421 18.4316 4.05185C18.4452 4.04525 18.4586 4.03667 18.4727 4.03037C18.57 3.92432 18.6962 3.82014 18.8633 3.74228C18.9792 3.68833 19.0918 3.65605 19.1982 3.63876C19.3783 3.5324 19.6009 3.45928 19.8613 3.46494C19.9894 3.46779 20.1041 3.49085 20.2041 3.52158C20.3845 3.30964 20.6931 3.07241 21.1709 3.07236H21.2871C21.4945 3.07249 21.6704 3.12203 21.8145 3.18759C21.9695 3.18688 22.106 3.21618 22.2246 3.25693C22.3434 3.20558 22.4822 3.16852 22.6416 3.1583C22.8103 3.14756 22.9594 3.17207 23.0889 3.21201C23.2022 3.15252 23.3358 3.10191 23.4922 3.07822L23.5488 3.06943L23.6064 3.06064L23.7529 3.04599C24.0728 3.03182 24.3225 3.13778 24.5068 3.26669C24.6825 3.15045 24.9322 3.04233 25.2539 3.05283C25.3474 3.05593 25.4344 3.06895 25.5146 3.08798C25.5921 3.07896 25.6752 3.07552 25.7627 3.08212C25.9673 3.09769 26.1373 3.1572 26.2773 3.23447C26.3676 3.24491 26.4622 3.26215 26.5586 3.29501L26.6123 3.31357L26.667 3.33212C26.7202 3.35031 26.7711 3.37276 26.8203 3.3956C26.8591 3.39104 26.8996 3.38387 26.9414 3.38291C27.2284 3.37664 27.499 3.46757 27.7168 3.62509C27.7359 3.63893 27.7528 3.65564 27.7705 3.67001C28.0619 3.70383 28.3027 3.8347 28.4785 3.99619C28.5191 4.01301 28.5615 4.02975 28.6025 4.05185L28.6035 4.05283C28.681 3.99245 28.7666 3.93977 28.8594 3.89853C28.9734 3.78509 29.1237 3.67672 29.3213 3.60458C29.5577 3.51842 29.7754 3.51427 29.959 3.54404C29.9894 3.53058 30.021 3.51664 30.0537 3.50498L30.1055 3.48642L30.1582 3.46787L30.3018 3.4249C30.484 3.22878 30.7622 3.05083 31.1729 3.0372C31.2809 3.03367 31.3807 3.04436 31.4697 3.06259C31.6436 2.95637 31.8454 2.88753 32.0625 2.87412C32.1801 2.76342 32.3356 2.6579 32.5391 2.59287C32.6882 2.54532 32.8294 2.53149 32.957 2.53525C33.1387 2.38636 33.3835 2.26623 33.6875 2.25009C33.7799 2.24523 33.8669 2.24967 33.9463 2.26181C34.0223 2.1892 34.1142 2.11977 34.2236 2.06064C34.3921 1.96977 34.5571 1.92811 34.71 1.91416C34.8679 1.8018 35.0716 1.71322 35.332 1.6915C35.4187 1.6843 35.5011 1.68794 35.5781 1.69638C35.6682 1.65604 35.7671 1.62328 35.875 1.60361C36.0527 1.44898 36.2941 1.32681 36.5879 1.2999C36.7524 1.21275 36.9489 1.15224 37.1777 1.15146H37.2939C37.3247 1.15138 37.3552 1.15536 37.3848 1.15732C37.4891 1.09524 37.6094 1.04455 37.7432 1.01279C37.8691 0.982968 37.9894 0.974268 38.0996 0.979585L38.1123 0.971772L38.1367 0.956147L38.1631 0.934663L38.21 0.897554L38.3398 0.802827C38.6443 0.611273 38.9953 0.570052 39.3047 0.637788C39.5048 0.516503 39.7434 0.445107 40.0029 0.450288C40.1295 0.416718 40.2528 0.400517 40.3701 0.400483C40.4233 0.369956 40.4773 0.339083 40.5332 0.312593L40.584 0.288179L40.6348 0.264741C40.8936 0.14239 41.172 0.105886 41.4355 0.141694L41.5508 0.157319C41.5971 0.163622 41.6443 0.17196 41.6914 0.181733C41.8211 0.107641 42.0146 0.0233402 42.2598 0.00399895ZM26.375 33.6827L26.334 33.6749L26.3164 33.672L26.375 33.6827ZM41.3867 2.65732L41.3379 2.68564L41.2891 2.71494C41.0735 2.84118 40.8464 2.89496 40.6318 2.90048C40.5611 2.96535 40.4781 3.02833 40.3799 3.08212C40.1403 3.21308 39.9054 3.2481 39.7002 3.23642C39.5233 3.28644 39.3328 3.30205 39.1387 3.26962C39.1283 3.26782 39.1176 3.26377 39.1074 3.26181C39.0245 3.3101 38.9356 3.35217 38.8418 3.38486C38.7189 3.53929 38.5309 3.70701 38.2578 3.80478L38.2051 3.82431L38.1533 3.84287C37.9455 3.91708 37.7492 3.92793 37.5791 3.90927C37.489 3.95404 37.3873 3.99214 37.2734 4.01572C37.1681 4.03747 37.068 4.04324 36.9756 4.04013C36.9198 4.06082 36.8602 4.08063 36.7969 4.09482L36.7432 4.10654L36.6885 4.11923C36.6265 4.13306 36.5654 4.14053 36.5068 4.1456C36.3996 4.2236 36.2726 4.29416 36.123 4.33896C35.9707 4.38452 35.8238 4.39464 35.6904 4.38779C35.6312 4.4097 35.5676 4.43003 35.5 4.44443L35.4463 4.45517L35.4092 4.46298C35.2931 4.553 35.1509 4.6287 34.9785 4.67587C34.8316 4.81525 34.6309 4.94305 34.374 4.99912C34.2392 5.02846 34.1124 5.03208 33.998 5.02255C33.9875 5.03045 33.9768 5.03925 33.9658 5.04697C33.7934 5.16766 33.602 5.2376 33.4111 5.26376C33.3251 5.31337 33.2278 5.35642 33.1191 5.38681C32.9687 5.42881 32.8258 5.4389 32.6973 5.43076C32.6937 5.43342 32.6901 5.43693 32.6865 5.43955C32.597 5.50439 32.5034 5.55109 32.4111 5.58798C32.6576 5.74852 32.8115 5.97278 32.8887 6.15634C32.9599 6.32594 32.9814 6.48227 32.9883 6.58798C33.0601 6.80392 33.074 7.04249 33.0137 7.27939C32.8456 7.93751 32.1759 8.33553 31.5176 8.16806L31.4199 8.14267L30.335 7.8663L30.3867 7.53037C30.3794 7.5228 30.3713 7.51554 30.3643 7.50791C30.1774 7.5816 29.8177 7.67493 29.4092 7.50498C29.1916 7.41432 29.0348 7.28128 28.9238 7.14658C28.7901 7.05972 28.6854 6.95251 28.6045 6.8458C28.4804 6.87335 28.3362 6.88808 28.1768 6.87021C27.7985 6.82763 27.5179 6.6331 27.3379 6.42392C27.2131 6.429 27.0762 6.41726 26.9336 6.37607C26.6341 6.28933 26.4241 6.11129 26.2939 5.95029L26.251 5.89755L26.2227 5.8624L26.1777 5.84677C26.1346 5.83207 26.0921 5.8157 26.0518 5.79794C25.9137 5.8185 25.7609 5.81815 25.5986 5.78232C25.5909 5.79042 25.5844 5.8006 25.5762 5.80869C25.479 5.90412 25.2778 6.07275 24.9697 6.14658C24.7608 6.1965 24.5533 6.18977 24.3623 6.14072C24.2303 6.17287 24.0805 6.1882 23.915 6.16806C23.7658 6.1498 23.6367 6.10555 23.5264 6.05283C23.4436 6.06284 23.3572 6.06454 23.2686 6.05673C23.0993 6.09648 22.9352 6.09705 22.7842 6.07236C22.6034 6.11117 22.4368 6.10494 22.2891 6.07529C22.164 6.09422 22.0296 6.09488 21.8867 6.06943C21.7836 6.08783 21.6707 6.0939 21.5488 6.0831C21.5254 6.08095 21.502 6.07462 21.4795 6.07138C21.4281 6.09397 21.3733 6.1153 21.3145 6.13193C21.177 6.23384 21.0039 6.32247 20.7881 6.36533L20.7354 6.37509L20.6816 6.38583C20.4973 6.42238 20.3291 6.41754 20.1807 6.38876C20.145 6.40274 20.1074 6.41647 20.0684 6.42783C20.0605 6.43007 20.0518 6.43157 20.0439 6.43369C19.8836 6.54998 19.6858 6.63878 19.458 6.66611C19.3922 6.67395 19.3284 6.67485 19.2686 6.67294C19.0769 6.81526 18.8569 6.8983 18.6318 6.92197C18.4578 7.12286 18.1908 7.31153 17.8174 7.35166C17.6431 7.37027 17.4887 7.34943 17.3604 7.31552C17.2674 7.32545 17.177 7.32678 17.0918 7.31943C16.9769 7.40236 16.8383 7.46973 16.6729 7.51083C16.6473 7.55419 16.6187 7.59891 16.585 7.64267C16.5354 7.79773 16.4403 8.00248 16.2471 8.18466C15.9377 8.47596 15.5617 8.54657 15.2705 8.52158C15.2411 8.54407 15.2118 8.56905 15.1787 8.58994C14.5293 8.99932 13.9279 8.66519 13.7412 8.52451L13.6953 8.49033L13.1846 8.10556L13.1924 7.8663C13.1849 7.84628 13.1764 7.82637 13.1699 7.80576C12.9725 7.17514 13.3089 6.50571 13.9238 6.28232C13.927 6.28018 13.9304 6.27762 13.9336 6.27548C14.0806 6.07258 14.2782 5.92307 14.5 5.83798C14.5236 5.78659 14.5525 5.73279 14.5869 5.6788C14.4895 5.67645 14.3851 5.66304 14.2773 5.63291C14.1688 5.60248 14.0713 5.55947 13.9854 5.50986C13.7945 5.48361 13.603 5.41378 13.4307 5.29306C13.4197 5.28534 13.4089 5.27651 13.3984 5.26865C13.2841 5.27812 13.1572 5.27459 13.0225 5.24521C12.7657 5.18903 12.5647 5.06135 12.418 4.92197C12.2457 4.87473 12.1033 4.79911 11.9873 4.70908L11.9502 4.70126L11.8965 4.69052C11.8289 4.67609 11.7652 4.65579 11.7061 4.63388C11.5727 4.64067 11.4257 4.63066 11.2734 4.58505C11.124 4.54019 10.9968 4.46969 10.8896 4.39169C10.8311 4.38662 10.7699 4.37918 10.708 4.36533L10.6533 4.35263L10.5996 4.34091C10.5363 4.32669 10.4767 4.30691 10.4209 4.28623C10.3285 4.28929 10.2284 4.28359 10.123 4.26181C10.0093 4.23819 9.90744 4.20015 9.81738 4.15537C9.64734 4.17393 9.45091 4.16323 9.24316 4.08896L9.19141 4.07041L9.13867 4.05087C8.86571 3.953 8.67746 3.78535 8.55469 3.63095C8.46095 3.59824 8.37192 3.55619 8.28906 3.50791C8.27893 3.50993 8.26815 3.51399 8.25781 3.51572C8.06371 3.54803 7.8731 3.53259 7.69629 3.48251C7.49112 3.49409 7.25608 3.45922 7.0166 3.32822C6.91842 3.2744 6.83529 3.21144 6.76465 3.14658C6.55015 3.14095 6.32287 3.08732 6.10742 2.96103L6.05859 2.93173L6.00977 2.90341C6.0037 2.89981 5.99727 2.89526 5.99121 2.89169C5.88412 2.91159 5.76902 2.92044 5.64844 2.91513C5.63323 2.93175 5.61708 2.94759 5.60156 2.96298C5.70965 3.07251 5.81514 3.21366 5.88867 3.39365C5.97446 3.60402 5.99572 3.81379 5.98047 4.00205L6.03027 4.12021L6.05078 4.17099L6.07129 4.22275C6.13033 4.37323 6.15472 4.51777 6.16016 4.65146C6.21642 4.76921 6.25744 4.90428 6.27637 5.05771C6.29312 5.09677 6.30761 5.13687 6.32129 5.17685C6.48942 5.31261 6.66358 5.52109 6.74609 5.82822C6.78027 5.95564 6.78986 6.07593 6.78711 6.18564C6.85373 6.26298 6.91728 6.35158 6.96973 6.45419L7.02832 6.58603L7.04883 6.63779L7.05664 6.6583L7.06641 6.67587L7.09375 6.72373C7.27411 7.04387 7.28037 7.36031 7.23535 7.5997C7.26598 7.62242 7.29761 7.64755 7.32812 7.6749C7.57515 7.89666 7.73358 8.21416 7.74805 8.56552C7.74847 8.57615 7.74694 8.5873 7.74707 8.59775C7.75873 8.62487 7.76859 8.65296 7.77832 8.68076C7.86747 8.75865 7.95559 8.85528 8.03027 8.97763C8.18147 9.22561 8.22158 9.4716 8.21484 9.68076C8.28745 9.76537 8.35475 9.8648 8.4082 9.98349L8.44238 10.0733C8.57431 9.96805 8.72368 9.89024 8.87891 9.84482C8.97747 9.76761 9.08365 9.70755 9.19043 9.66513C9.27649 9.55397 9.37576 9.4637 9.48047 9.39267C9.54725 9.13561 9.73577 8.72756 10.2441 8.53818C10.7381 8.35461 11.1416 8.55031 11.2061 8.58115C11.4034 8.67543 11.5317 8.8061 11.541 8.81552L11.626 8.90439L11.6924 8.98154L11.8584 9.17099L11.8594 9.17392C12.0022 9.35238 12.0887 9.56533 12.1172 9.78623C12.1184 9.78921 12.1208 9.79201 12.1221 9.79501C12.1492 9.86047 12.2161 10.0303 12.2285 10.2501C12.2408 10.4683 12.199 11.0554 11.623 11.4015C11.5467 11.4473 11.4694 11.4797 11.3955 11.506C11.3291 11.6805 11.2174 11.8652 11.0361 12.0186C10.9833 12.0634 10.929 12.1022 10.875 12.1349L10.4365 12.7667L10.376 12.5802C10.3148 12.7035 10.2298 12.8285 10.1074 12.9435C10.1466 12.942 10.1869 12.9421 10.2285 12.9444C10.5005 12.9596 10.7104 13.0565 10.8652 13.1642C11.4434 13.2649 11.8835 13.7682 11.8838 14.3751C11.8838 14.8924 11.5635 15.3336 11.1113 15.5157C10.9219 15.6437 10.6237 15.7761 10.2363 15.7218C10.2318 15.7211 10.2272 15.7195 10.2227 15.7188C9.98201 15.8357 9.67962 15.889 9.3623 15.8077C9.32211 15.7974 9.28358 15.7857 9.24707 15.7726C9.04349 15.8272 8.83556 15.8293 8.63965 15.7843C8.51571 15.8335 8.37019 15.8691 8.20508 15.8722C8.1497 15.8732 8.09626 15.869 8.04492 15.8634C7.97549 15.8837 7.90194 15.8981 7.8252 15.9063C7.82258 15.9129 7.82113 15.9203 7.81836 15.9269C7.68412 16.2449 7.45384 16.437 7.25391 16.546C7.25692 16.6309 7.24893 16.722 7.23145 16.8175C7.27449 17.0039 7.29181 17.2592 7.18848 17.5372C7.16474 17.6009 7.13523 17.6587 7.10449 17.713C7.36977 17.6238 7.6098 17.6401 7.80273 17.6915L7.83496 17.5792L8.51465 17.3966L8.61133 17.3712C9.26765 17.1955 9.94207 17.5851 10.1182 18.2413C10.2236 18.6348 10.1243 19.0339 9.8877 19.3292C9.83744 19.4434 9.75468 19.593 9.61426 19.7306C9.47112 19.8706 9.25461 20.0127 8.9668 20.0655C8.86813 20.0836 8.77409 20.0852 8.68555 20.0811C8.60688 20.1101 8.52406 20.1316 8.4375 20.1446C8.32186 20.213 8.19495 20.2634 8.06055 20.2921C7.92572 20.3888 7.75595 20.4696 7.54102 20.505C7.38926 20.5299 7.25094 20.5229 7.12988 20.502C7.12782 20.5036 7.12607 20.5063 7.12402 20.5079C6.88581 20.6839 6.61219 20.755 6.35156 20.7472C6.34676 20.8032 6.33951 20.8608 6.3252 20.919C6.36365 21.0621 6.38348 21.2218 6.36426 21.3927C6.35432 21.4805 6.33264 21.5615 6.30859 21.6368L6.32324 21.6778C6.45977 22.0607 6.39205 22.4383 6.23633 22.7179C6.22303 22.7417 6.20542 22.7625 6.19141 22.7843C6.22108 22.9375 6.22501 23.1072 6.18457 23.2901C6.17348 23.3402 6.1591 23.388 6.14355 23.4327C6.22717 23.6421 6.26013 23.8842 6.21094 24.1388C6.20729 24.1575 6.20061 24.1755 6.19629 24.1935C6.40267 24.3664 6.62677 24.6558 6.64746 25.0948C6.65194 25.1908 6.64277 25.2799 6.62891 25.3624C6.63257 25.3809 6.6367 25.3998 6.63965 25.419C6.64389 25.4467 6.64412 25.4743 6.64648 25.5011C6.75315 25.603 6.85311 25.7352 6.92773 25.9073C6.95765 25.9764 6.97874 26.0448 6.99512 26.1104C7.09722 26.1815 7.1986 26.2718 7.28516 26.3858C7.44765 26.4867 7.6086 26.6357 7.72852 26.8565L7.78809 26.9815L7.80957 27.0304L7.83008 27.0802C7.9308 27.3192 7.94494 27.5448 7.92871 27.7286C7.94695 27.751 7.96623 27.7735 7.9834 27.7979C8.16895 27.936 8.29172 28.1032 8.37012 28.2716C8.50058 28.3887 8.60288 28.529 8.67383 28.6817C8.84471 28.763 8.98057 28.8705 9.08594 28.9923C9.21322 28.9842 9.3572 28.9931 9.50977 29.0352C9.82304 29.1221 10.0854 29.324 10.251 29.5929C10.2677 29.62 10.283 29.6472 10.2969 29.6739C10.3054 29.6776 10.3148 29.6808 10.3232 29.6847H10.3623C10.4744 29.6892 10.5964 29.7087 10.7236 29.752L10.7754 29.7696L10.8271 29.7882C11.2224 29.9232 11.4398 30.1872 11.5625 30.4278C11.7184 30.3916 11.9237 30.3732 12.1543 30.4288C12.3845 30.4845 12.5749 30.5973 12.7207 30.7325L12.8516 30.8741L12.9277 30.9698C12.9997 30.9526 13.079 30.9407 13.1641 30.9366C13.5705 30.9175 13.9225 31.0932 14.1533 31.3438C14.1903 31.3841 14.2222 31.4257 14.251 31.4659C14.2943 31.4736 14.3391 31.4842 14.3838 31.4972C14.5774 31.5535 14.7306 31.65 14.8506 31.752C14.9721 31.7301 15.1089 31.7228 15.2588 31.7452C15.3627 31.7608 15.4572 31.7876 15.542 31.8214L15.5879 31.7989L15.7441 31.7306C15.9171 31.6681 16.1387 31.6295 16.3896 31.672C16.6225 31.7116 16.8088 31.8096 16.9492 31.9171C17.0678 31.9308 17.1769 31.9629 17.2773 32.003C17.4278 32.0065 17.5866 32.0399 17.749 32.1104C17.8139 32.0886 17.8842 32.0693 17.96 32.0577C18.133 32.0313 18.29 32.0431 18.4297 32.0753C18.6765 32.0461 18.9232 32.0922 19.1387 32.2003C19.2049 32.2336 19.2639 32.2724 19.3174 32.3116C19.3987 32.3032 19.4839 32.3014 19.5713 32.3106C19.6712 32.2562 19.7889 32.2082 19.9248 32.1798L20.0361 32.1563L20.2275 32.13C20.3246 32.123 20.4221 32.1289 20.5186 32.1417C20.8394 32.0845 21.1602 32.1556 21.417 32.3194C21.5204 32.3855 21.6016 32.4616 21.667 32.5323C21.7057 32.5405 21.7444 32.5509 21.7822 32.5626C21.9708 32.5083 22.1845 32.4911 22.4082 32.5421C22.4428 32.5321 22.4793 32.5238 22.5166 32.5167C22.6569 32.4228 22.8523 32.3318 23.0977 32.3087C23.3383 32.2862 23.553 32.3365 23.7266 32.4142C23.8334 32.3854 23.9519 32.3675 24.0811 32.3702C24.2123 32.3731 24.3315 32.3963 24.4365 32.4298C24.5939 32.36 24.7832 32.312 25 32.3185C25.2533 32.3262 25.4608 32.4055 25.6172 32.4962C25.6266 32.4866 25.6365 32.4764 25.6465 32.4669C25.7727 32.3468 25.9807 32.2009 26.2715 32.1436C26.5309 32.0927 26.769 32.1325 26.9629 32.2071C27.0294 32.1817 27.1014 32.1609 27.1777 32.1466C27.3122 32.0734 27.4745 32.0131 27.665 31.9952C27.9141 31.972 28.1288 32.025 28.2949 32.0977C28.3576 32.0623 28.4264 32.0277 28.5029 32.0011C28.6928 31.9352 28.8701 31.9234 29.0283 31.9386C29.2933 31.818 29.6015 31.79 29.9033 31.879C30.0378 31.7376 30.2352 31.5932 30.5156 31.5255C30.7324 31.4733 30.9263 31.4844 31.0898 31.5226L31.1123 31.5177L31.165 31.506L31.3076 31.4806C31.4705 31.4603 31.6221 31.4721 31.7568 31.5001C31.8569 31.4442 31.968 31.4015 32.0859 31.3741C32.2065 31.2911 32.3517 31.2199 32.5215 31.1817C32.6876 31.1445 32.8429 31.1462 32.9785 31.1661C33.0585 31.0849 33.1565 31.007 33.2764 30.9415L33.374 30.8888L33.5352 30.8136C33.6908 30.7534 33.8439 30.7276 33.9863 30.7247C34.0315 30.6835 34.0819 30.6431 34.1377 30.6056C34.2908 30.5027 34.4496 30.4427 34.6025 30.4122C34.7119 30.3456 34.8371 30.2915 34.9766 30.256L35.0303 30.2423L35.083 30.2286C35.3737 30.1547 35.6303 30.1923 35.8291 30.2579C35.8487 30.2482 35.8696 30.2402 35.8896 30.2315C35.931 30.1743 35.9803 30.1184 36.0352 30.0645C36.0388 30.0554 36.042 30.0455 36.0459 30.0362C36.1318 29.8332 36.3022 29.5801 36.6074 29.4132C36.784 29.3167 36.9598 29.2772 37.1143 29.2647C37.1762 29.2224 37.239 29.1864 37.3018 29.1573C37.354 29.0782 37.4165 28.9977 37.4951 28.9229L37.5303 28.8888C37.5343 28.8766 37.5385 28.864 37.543 28.8517C37.6794 28.4772 37.9964 28.1658 38.4238 28.0597L38.4824 28.045L38.4951 28.0411C38.5874 27.885 38.7224 27.7393 38.9062 27.6241C38.91 27.5876 38.9136 27.5498 38.9209 27.5118C38.9729 27.2415 39.1177 26.9701 39.3643 26.7686C39.4014 26.7104 39.4437 26.6517 39.4941 26.5958C39.6072 26.4706 39.7312 26.3821 39.8496 26.3194C39.8851 26.1046 39.9791 25.871 40.1846 25.6573L40.2236 25.6163L40.2627 25.5763L40.3701 25.4718C40.3879 25.4559 40.4068 25.4409 40.4248 25.4259C40.4245 25.3119 40.4388 25.1891 40.4785 25.0616C40.4484 24.9371 40.4321 24.7937 40.4492 24.6339C40.4648 24.4893 40.501 24.3617 40.5508 24.2511C40.5175 23.8318 40.6802 23.4865 40.8906 23.2501C40.8686 23.1923 40.8491 23.1303 40.834 23.0645L40.8086 22.9532C40.7467 22.6847 40.7737 22.4516 40.8418 22.2579C40.8371 22.1737 40.844 22.0917 40.8555 22.0128C40.8193 21.9324 40.7891 21.842 40.7686 21.7423L40.7578 21.6886L40.7471 21.6358C40.6517 21.172 40.8344 20.8037 40.9893 20.6046C41.0549 20.5203 41.1246 20.4528 41.1875 20.4005C41.194 20.3841 41.2009 20.3676 41.208 20.3517C41.2074 20.3497 41.2066 20.3477 41.2061 20.3458C41.1189 20.234 41.0401 20.0937 40.9893 19.9229C40.9783 19.9236 40.9673 19.9255 40.9561 19.9259L40.7471 19.9337C40.6569 19.937 40.5721 19.9284 40.4932 19.9151C40.3576 19.983 40.1895 20.0378 39.9932 20.047C39.7208 20.0597 39.4865 19.9828 39.3115 19.8819L39.2891 19.8683C39.1994 19.8549 39.1174 19.832 39.042 19.8048C38.9167 19.8699 38.7631 19.9247 38.5801 19.9415C38.2874 19.9683 38.0433 19.8904 37.8613 19.7901H37.4834C36.8037 19.7901 36.2529 19.2394 36.2529 18.5597C36.2532 17.9641 36.6761 17.4662 37.2383 17.3526C37.454 17.2624 37.7537 17.2047 38.0898 17.3028C38.1784 17.2943 38.2628 17.2924 38.3428 17.3009L38.3877 17.2843L38.4922 17.2433L38.5957 17.2081C38.8055 17.1457 39.031 17.1367 39.251 17.1876L39.3604 17.2179L39.4648 17.252L39.5703 17.2862C39.5732 17.2872 39.5762 17.2882 39.5791 17.2892C39.6059 17.2732 39.6337 17.2568 39.6631 17.2423L39.8135 17.1671C39.7903 17.1028 39.7693 17.0343 39.7559 16.9601C39.6678 16.4738 39.8907 16.1198 39.9492 16.0304C39.9552 16.0212 39.9617 16.0118 39.9678 16.003C39.9593 15.9763 39.9523 15.9487 39.9453 15.921C39.7582 15.8282 39.5904 15.6885 39.46 15.5128C39.2448 15.5584 39.0347 15.5423 38.8477 15.4874C38.701 15.5728 38.5167 15.6411 38.2891 15.6524C38.1637 15.6586 38.0493 15.6458 37.9463 15.6222C37.7509 15.7005 37.521 15.7367 37.2744 15.6944C37.1315 15.6699 37.0098 15.623 36.9092 15.5704L36.4229 15.5987L36.3232 15.6036C35.6446 15.6424 35.0622 15.124 35.0234 14.4454C35.0035 14.0949 35.1337 13.7705 35.3564 13.5333C35.4025 13.4361 35.4787 13.2961 35.6074 13.1671C35.7278 13.0466 35.9674 12.8581 36.3281 12.8106C36.6132 12.7732 36.859 12.8386 37.0469 12.9327L37.0498 12.9308C36.9292 12.8117 36.843 12.6768 36.7832 12.5411C36.7673 12.5299 36.7502 12.5192 36.7344 12.5069C36.6293 12.4255 36.5436 12.3335 36.4756 12.2374C36.361 12.1885 36.2415 12.1191 36.1279 12.0167C35.8713 11.7852 35.7687 11.5144 35.7314 11.2989C35.6707 11.2658 35.6108 11.2293 35.5527 11.1895C35.1037 11.0422 34.8372 10.6944 34.7285 10.3673C34.6895 10.2498 34.6725 10.1379 34.665 10.0401C34.5266 9.56061 34.6899 9.02482 35.1143 8.71005C35.6602 8.30562 36.4302 8.42023 36.835 8.96591L36.8945 9.04599L36.9961 9.18369L37.0039 9.18759C37.0233 9.19758 37.0432 9.20773 37.0625 9.21787C37.2912 9.24777 37.5647 9.33912 37.8037 9.54794L37.9092 9.65048L37.9473 9.6915L37.9844 9.73251C38.0278 9.77949 38.0662 9.82788 38.0996 9.87607C38.1163 9.88574 38.1347 9.8937 38.1514 9.90439L38.3066 10.0216L38.3906 10.0958C38.5189 10.2089 38.6082 10.3343 38.6729 10.4581C38.6808 10.4507 38.6893 10.443 38.6973 10.4356L38.7822 10.3565L38.8369 10.3106C38.8454 10.2082 38.8624 10.0995 38.8984 9.98837L38.915 9.93564L38.9326 9.88193L38.9883 9.7374C39.0417 9.61874 39.1091 9.51927 39.1816 9.43466C39.1749 9.22557 39.2151 8.97946 39.3662 8.73154C39.4408 8.6092 39.5291 8.51257 39.6182 8.43466C39.6279 8.40689 39.6378 8.37875 39.6494 8.35166C39.6496 8.34118 39.648 8.33009 39.6484 8.31943C39.6629 7.96817 39.8215 7.65058 40.0684 7.4288C40.0989 7.40143 40.1305 7.37634 40.1611 7.35361C40.1161 7.11428 40.1225 6.79771 40.3027 6.47763L40.3301 6.42978L40.3398 6.4122L40.3477 6.39169L40.3682 6.33994L40.4268 6.2081C40.4792 6.10551 40.5428 6.01688 40.6094 5.93955C40.6066 5.82987 40.6163 5.70951 40.6504 5.58212C40.7328 5.27512 40.9071 5.06655 41.0752 4.93076C41.0889 4.8908 41.1034 4.85066 41.1201 4.81162C41.139 4.65825 41.1801 4.52308 41.2363 4.40537C41.2418 4.27172 41.2662 4.12708 41.3252 3.97666L41.3457 3.9249L41.3662 3.87412L41.416 3.75595C41.4008 3.56775 41.4221 3.35787 41.5078 3.14755C41.5813 2.96763 41.6869 2.82642 41.7949 2.71689C41.7794 2.70147 41.7633 2.6857 41.748 2.66904C41.6274 2.67431 41.5124 2.66555 41.4053 2.6456C41.3992 2.64922 41.3928 2.65374 41.3867 2.65732ZM40.4053 28.3692L40.4121 28.4298L40.4043 28.3517L40.4053 28.3692ZM42.4629 22.5802L42.3877 22.6466L42.4648 22.5782L42.4629 22.5802ZM5.98926 16.1378L5.97852 16.1095L5.95117 16.0392L5.98926 16.1378ZM39.6963 10.7286L39.8613 11.1241C39.8373 11.1068 39.8118 11.0896 39.7852 11.0733L39.6289 11.3409C39.7439 11.4278 39.8532 11.542 39.9424 11.6905C39.9803 11.7537 40.0103 11.8167 40.0342 11.878L40.0684 11.8751L40.043 11.878H40.0342C40.1036 12.0564 40.1188 12.2225 40.1172 12.3507L40.207 12.4161C40.2181 12.4227 40.2301 12.4286 40.2412 12.4356C40.2576 12.3977 40.2731 12.3596 40.2852 12.3214L40.249 12.3546L40.2061 12.3946C40.2356 12.367 40.2633 12.3365 40.29 12.3058C40.292 12.2994 40.2941 12.2926 40.2959 12.2862L40.2705 12.297L40.2158 12.3185C40.2395 12.3081 40.2677 12.2936 40.2988 12.2755C40.3324 12.1515 40.3446 12.0275 40.3398 11.9112C40.3318 11.8498 40.3136 11.7505 40.2666 11.6358C40.214 11.5077 40.0976 11.2939 39.8613 11.1241L39.6953 10.7247L39.6963 10.7286ZM39.4775 10.6046L39.4883 10.6026L39.5283 10.5948L39.4775 10.6046ZM39.7646 10.2686L39.6426 10.2286L39.4639 10.171L39.7646 10.2686ZM41.2422 9.22177L41.1982 9.21103L41.1426 9.19833L41.2422 9.22177ZM5.58496 9.02451L5.50879 9.01767L5.43359 9.01181L5.58496 9.02451ZM40.8691 8.10654L41.0635 8.12998L40.8613 8.10556L40.8691 8.10654ZM20.3428 4.68955L20.3926 4.65537L20.4736 4.59775L20.3428 4.68955ZM5.05469 4.56162L5.16211 4.51962L5.27051 4.47666L5.05469 4.56162Z" fill="var(--fill-0, black)"/>
<path id="Polygon 2 (Stroke)" d="M22.956 14.1144C23.5082 14.1144 23.9565 14.5616 23.9566 15.1138C23.9568 15.9932 24.4797 16.6188 25.1742 17.0814C25.5152 17.3085 25.8641 17.4707 26.1311 17.5761C26.2628 17.6281 26.3705 17.6653 26.4425 17.6881C26.4784 17.6995 26.5056 17.7074 26.5214 17.712C26.529 17.7142 26.534 17.7158 26.5362 17.7164L26.5352 17.7154C27.0692 17.8544 27.3901 18.3999 27.2517 18.9341C27.1133 19.4686 26.5676 19.7898 26.0331 19.6516L26.2832 18.6831C26.037 19.6336 26.0326 19.6514 26.0321 19.6517L26.0311 19.6507L26.0291 19.6508C26.0278 19.6504 26.026 19.6495 26.0242 19.649C26.0207 19.648 26.0164 19.6469 26.0114 19.6455C26.001 19.6427 25.9874 19.6388 25.971 19.6341C25.9381 19.6247 25.8928 19.6119 25.8378 19.5944C25.728 19.5596 25.5765 19.5076 25.3969 19.4367C25.0401 19.2959 24.556 19.0728 24.0653 18.746C23.7152 18.5129 23.3438 18.2118 23.0109 17.8372C22.7085 18.2311 22.3694 18.5574 22.045 18.8172C21.5937 19.1788 21.1475 19.4382 20.816 19.6064C20.6491 19.691 20.5075 19.7541 20.405 19.7975C20.3539 19.8191 20.3124 19.8364 20.2816 19.8484C20.2661 19.8544 20.2527 19.8587 20.2429 19.8623C20.2381 19.8642 20.2338 19.8664 20.2304 19.8676C20.229 19.8681 20.2276 19.8683 20.2265 19.8687L20.2246 19.8698L20.2236 19.8698C20.2232 19.87 20.2226 19.8699 19.8835 18.9291L20.2226 19.8698C19.7031 20.0571 19.1301 19.7879 18.9428 19.2683C18.7557 18.7488 19.0258 18.1757 19.5453 17.9884C19.5476 17.9875 19.5509 17.9867 19.5549 17.9852C19.569 17.9797 19.5927 17.9693 19.6253 17.9555C19.6908 17.9278 19.7901 17.8836 19.9112 17.8222C20.1558 17.6981 20.478 17.511 20.7947 17.2572C21.3973 16.7745 21.8909 16.1321 21.9504 15.2862L21.9565 15.114L21.961 15.0113C22.0124 14.5073 22.4384 14.1145 22.956 14.1144Z" fill="var(--fill-0, #111111)"/>
<path id="Polygon 1" d="M23.2334 15.6705C23.068 15.7808 22.8526 15.7808 22.6872 15.6705L21.3593 14.7853C20.954 14.5151 21.1453 13.8834 21.6324 13.8834L24.2881 13.8834C24.7752 13.8834 24.9665 14.5151 24.5612 14.7853L23.2334 15.6705Z" fill="var(--fill-0, #111111)"/>
<path id="Polygon 1 (Stroke)" d="M24.2877 13.8834C24.7748 13.8834 24.9664 14.5155 24.5611 14.7857L23.233 15.6705C23.0676 15.7806 22.8524 15.7807 22.6871 15.6705L21.359 14.7857C20.9538 14.5155 21.1453 13.8834 21.6324 13.8834H24.2877ZM22.9605 15.2613L24.2877 14.3756H21.6324L22.9605 15.2613Z" fill="var(--fill-0, #111111)"/>
<path id="Ellipse 4195" d="M19.0218 14.1295C19.0218 14.8092 18.4708 15.3603 17.7911 15.3603C17.1113 15.3603 16.5603 14.8092 16.5603 14.1295C16.5603 13.4498 17.1113 12.8987 17.7911 12.8987C18.4708 12.8987 19.0218 13.4498 19.0218 14.1295Z" fill="var(--fill-0, #111111)"/>
<path id="Ellipse 4196" d="M29.8527 14.1295C29.8527 14.8092 29.3016 15.3603 28.6219 15.3603C27.9421 15.3603 27.3911 14.8092 27.3911 14.1295C27.3911 13.4498 27.9421 12.8987 28.6219 12.8987C29.3016 12.8987 29.8527 13.4498 29.8527 14.1295Z" fill="var(--fill-0, #111111)"/>
</g>
</svg>
